<svg width="15" height="15" viewBox="0 0 15 15" fill="none" xmlns="http://www.w3.org/2000/svg">
<path fill-rule="evenodd" clip-rule="evenodd" d="M4.79892 1.66663H10.2011C10.8719 1.66662 11.4255 1.66661 11.8765 1.70345C12.3449 1.74173 12.7755 1.82386 13.18 2.02994C13.8072 2.34952 14.3171 2.85945 14.6367 3.48666C14.8428 3.8911 14.9249 4.32169 14.9632 4.79011C15 5.2411 15 5.79472 15 6.46552V10.2011C15 10.8719 15 11.4255 14.9632 11.8765C14.9249 12.3449 14.8428 12.7755 14.6367 13.1799C14.3171 13.8071 13.8072 14.3171 13.18 14.6366C12.7755 14.8427 12.3449 14.9249 11.8765 14.9631C11.4255 15 10.8719 15 10.2011 15H4.79894C4.12812 15 3.57448 15 3.12348 14.9631C2.65506 14.9249 2.22448 14.8427 1.82003 14.6366C1.19283 14.3171 0.68289 13.8071 0.363312 13.1799C0.157237 12.7755 0.0750998 12.3449 0.0368288 11.8765C-1.90114e-05 11.4255 -1.02701e-05 10.8719 3.59409e-07 10.201V6.46554C-1.02701e-05 5.79474 -1.90114e-05 5.2411 0.0368288 4.79011C0.0750998 4.32169 0.157237 3.8911 0.363312 3.48666C0.68289 2.85945 1.19283 2.34952 1.82003 2.02994C2.22448 1.82386 2.65506 1.74173 3.12348 1.70345C3.57448 1.66661 4.12811 1.66662 4.79892 1.66663ZM3.2592 3.36459C2.89385 3.39444 2.70702 3.44854 2.57668 3.51495C2.26308 3.67474 2.00811 3.92971 1.84832 4.24331C1.78191 4.37364 1.72781 4.56048 1.69796 4.92582C1.66732 5.3009 1.66667 5.78614 1.66667 6.49996V10.1666C1.66667 10.8804 1.66732 11.3657 1.69796 11.7408C1.72781 12.1061 1.78191 12.2929 1.84832 12.4233C2.00811 12.7369 2.26308 12.9918 2.57668 13.1516C2.70702 13.218 2.89385 13.2722 3.2592 13.302C3.63427 13.3326 4.11952 13.3333 4.83333 13.3333H10.1667C10.8805 13.3333 11.3657 13.3326 11.7408 13.302C12.1061 13.2722 12.293 13.218 12.4233 13.1516C12.7369 12.9918 12.9919 12.7369 13.1517 12.4233C13.2181 12.2929 13.2722 12.1061 13.302 11.7408C13.3327 11.3657 13.3333 10.8804 13.3333 10.1666V6.49996C13.3333 5.78614 13.3327 5.3009 13.302 4.92582C13.2722 4.56048 13.2181 4.37364 13.1517 4.24331C12.9919 3.92971 12.7369 3.67474 12.4233 3.51495C12.293 3.44854 12.1061 3.39444 11.7408 3.36459C11.3657 3.33394 10.8805 3.33329 10.1667 3.33329H4.83333C4.11952 3.33329 3.63427 3.33394 3.2592 3.36459Z" fill="#C64191"/>
<path d="M4.99992 0.833333C4.99992 0.373096 4.62682 0 4.16659 0C3.70635 0 3.33325 0.373096 3.33325 0.833333V2.5C3.33325 2.96024 3.70635 3.33333 4.16659 3.33333C4.62682 3.33333 4.99992 2.96024 4.99992 2.5V0.833333Z" fill="#C64191"/>
<path d="M11.6666 0.833333C11.6666 0.373096 11.2935 0 10.8333 0C10.373 0 9.99992 0.373096 9.99992 0.833333V2.5C9.99992 2.96024 10.373 3.33333 10.8333 3.33333C11.2935 3.33333 11.6666 2.96024 11.6666 2.5V0.833333Z" fill="#C64191"/>
<path fill-rule="evenodd" clip-rule="evenodd" d="M4.16659 7.50004C4.62682 7.50004 4.99992 7.12694 4.99992 6.66671C4.99992 6.20647 4.62682 5.83337 4.16659 5.83337C3.70635 5.83337 3.33325 6.20647 3.33325 6.66671C3.33325 7.12694 3.70635 7.50004 4.16659 7.50004ZM8.33325 6.66671C8.33325 7.12694 7.96016 7.50004 7.49992 7.50004C7.03968 7.50004 6.66659 7.12694 6.66659 6.66671C6.66659 6.20647 7.03968 5.83337 7.49992 5.83337C7.96016 5.83337 8.33325 6.20647 8.33325 6.66671ZM11.6666 6.66671C11.6666 7.12694 11.2935 7.50004 10.8333 7.50004C10.373 7.50004 9.99992 7.12694 9.99992 6.66671C9.99992 6.20647 10.373 5.83337 10.8333 5.83337C11.2935 5.83337 11.6666 6.20647 11.6666 6.66671ZM8.33325 10C8.33325 10.4603 7.96016 10.8334 7.49992 10.8334C7.03968 10.8334 6.66659 10.4603 6.66659 10C6.66659 9.5398 7.03968 9.16671 7.49992 9.16671C7.96016 9.16671 8.33325 9.5398 8.33325 10ZM4.16659 10.8334C4.62682 10.8334 4.99992 10.4603 4.99992 10C4.99992 9.5398 4.62682 9.16671 4.16659 9.16671C3.70635 9.16671 3.33325 9.5398 3.33325 10C3.33325 10.4603 3.70635 10.8334 4.16659 10.8334Z" fill="#C64191"/>
</svg>
