<svg width="15" height="13" viewBox="0 0 15 13" fill="none" xmlns="http://www.w3.org/2000/svg">
<path fill-rule="evenodd" clip-rule="evenodd" d="M4.31903 0.5H10.681C11.2847 0.499991 11.783 0.499983 12.1889 0.533146C12.6104 0.56759 12.998 0.641513 13.362 0.826981C13.9265 1.1146 14.3854 1.57354 14.673 2.13803C14.8585 2.50203 14.9324 2.88956 14.9669 3.31113C15 3.71702 15 4.21529 15 4.81901V8.18099C15 8.78471 15 9.28298 14.9669 9.68887C14.9324 10.1104 14.8585 10.498 14.673 10.862C14.3854 11.4265 13.9265 11.8854 13.362 12.173C12.998 12.3585 12.6104 12.4324 12.1889 12.4669C11.783 12.5 11.2847 12.5 10.681 12.5H4.31904C3.71531 12.5 3.21703 12.5 2.81113 12.4669C2.38956 12.4324 2.00203 12.3585 1.63803 12.173C1.07354 11.8854 0.614601 11.4265 0.326981 10.862C0.141513 10.498 0.0675898 10.1104 0.0331459 9.68887C-1.71103e-05 9.28297 -9.24308e-06 8.7847 3.23469e-07 8.18097V4.81903C-9.24308e-06 4.2153 -1.71103e-05 3.71703 0.0331459 3.31113C0.0675898 2.88956 0.141513 2.50203 0.326981 2.13803C0.614601 1.57354 1.07354 1.1146 1.63803 0.826981C2.00203 0.641513 2.38956 0.56759 2.81113 0.533146C3.21703 0.499983 3.7153 0.499991 4.31903 0.5ZM2.93328 2.02816C2.60447 2.05503 2.43631 2.10372 2.31901 2.16349C2.03677 2.3073 1.8073 2.53677 1.66349 2.81901C1.60372 2.93631 1.55503 3.10447 1.52816 3.43328C1.50058 3.77085 1.5 4.20757 1.5 4.85V8.15C1.5 8.79243 1.50058 9.22915 1.52816 9.56672C1.55503 9.89553 1.60372 10.0637 1.66349 10.181C1.8073 10.4632 2.03677 10.6927 2.31901 10.8365C2.43631 10.8963 2.60447 10.945 2.93328 10.9718C3.27085 10.9994 3.70757 11 4.35 11H10.65C11.2924 11 11.7292 10.9994 12.0667 10.9718C12.3955 10.945 12.5637 10.8963 12.681 10.8365C12.9632 10.6927 13.1927 10.4632 13.3365 10.181C13.3963 10.0637 13.445 9.89553 13.4718 9.56672C13.4994 9.22915 13.5 8.79243 13.5 8.15V4.85C13.5 4.20757 13.4994 3.77085 13.4718 3.43328C13.445 3.10447 13.3963 2.93631 13.3365 2.81901C13.1927 2.53677 12.9632 2.3073 12.681 2.16349C12.5637 2.10372 12.3955 2.05503 12.0667 2.02816C11.7292 2.00058 11.2924 2 10.65 2H4.35C3.70757 2 3.27085 2.00058 2.93328 2.02816Z" fill="#C64191"/>
<path fill-rule="evenodd" clip-rule="evenodd" d="M3.13161 3.8258C3.36592 3.48424 3.83277 3.39729 4.17434 3.63161L7.0758 5.62201C7.33146 5.79739 7.66868 5.79739 7.92434 5.62201L10.8258 3.63161C11.1674 3.39729 11.6342 3.48424 11.8685 3.8258C12.1028 4.16737 12.0159 4.63422 11.6743 4.86853L8.77287 6.85894C8.0059 7.38508 6.99424 7.38508 6.22727 6.85894L3.3258 4.86853C2.98424 4.63422 2.89729 4.16737 3.13161 3.8258Z" fill="#C64191"/>
</svg>
