<svg width="14" height="15" viewBox="0 0 14 15" fill="none" xmlns="http://www.w3.org/2000/svg">
<path fill-rule="evenodd" clip-rule="evenodd" d="M3.57143 9.99998C2.38796 9.99998 1.42857 10.9594 1.42857 12.1428C1.42857 12.5373 1.74837 12.8571 2.14286 12.8571H5.71428C6.10877 12.8571 6.42857 13.1769 6.42857 13.5714C6.42857 13.9659 6.10877 14.2857 5.71428 14.2857H2.14286C0.95939 14.2857 0 13.3263 0 12.1428C0 10.1704 1.59898 8.57141 3.57143 8.57141H7.85714C8.25163 8.57141 8.57143 8.89121 8.57143 9.2857C8.57143 9.68019 8.25163 9.99998 7.85714 9.99998H3.57143Z" fill="#C64191"/>
<path fill-rule="evenodd" clip-rule="evenodd" d="M5.71425 1.42857C4.53078 1.42857 3.57139 2.38796 3.57139 3.57143C3.57139 4.7549 4.53078 5.71429 5.71425 5.71429C6.89772 5.71429 7.85711 4.7549 7.85711 3.57143C7.85711 2.38796 6.89772 1.42857 5.71425 1.42857ZM2.14282 3.57143C2.14282 1.59898 3.74181 0 5.71425 0C7.6867 0 9.28568 1.59898 9.28568 3.57143C9.28568 5.54387 7.6867 7.14286 5.71425 7.14286C3.74181 7.14286 2.14282 5.54387 2.14282 3.57143Z" fill="#C64191"/>
<path fill-rule="evenodd" clip-rule="evenodd" d="M10.7143 9.28577C11.1088 9.28577 11.4286 9.60556 11.4286 10.0001V11.4286H12.8572C13.2517 11.4286 13.5715 11.7484 13.5715 12.1429C13.5715 12.5374 13.2517 12.8572 12.8572 12.8572H11.4286V14.2858C11.4286 14.6803 11.1088 15.0001 10.7143 15.0001C10.3198 15.0001 10 14.6803 10 14.2858V12.8572H8.57146C8.17697 12.8572 7.85718 12.5374 7.85718 12.1429C7.85718 11.7484 8.17697 11.4286 8.57146 11.4286H10V10.0001C10 9.60556 10.3198 9.28577 10.7143 9.28577Z" fill="#C64191"/>
</svg>
