<svg width="12" height="15" viewBox="0 0 12 15" fill="none" xmlns="http://www.w3.org/2000/svg">
<path fill-rule="evenodd" clip-rule="evenodd" d="M7.68097 3.08956e-07H4.31903C3.7153 -8.96838e-06 3.21703 -1.66241e-05 2.81113 0.0331462C2.38956 0.0675901 2.00203 0.141513 1.63803 0.326981C1.07354 0.614601 0.614601 1.07354 0.326981 1.63803C0.141513 2.00203 0.0675901 2.38956 0.0331462 2.81113C-1.66157e-05 3.21703 -8.96413e-06 3.71529 3.08735e-07 4.31901V10.681C-8.96413e-06 11.2847 -1.66185e-05 11.783 0.0331462 12.1889C0.0675901 12.6104 0.141513 12.998 0.326981 13.362C0.614601 13.9265 1.07354 14.3854 1.63803 14.673C2.00203 14.8585 2.38956 14.9324 2.81113 14.9669C3.21702 15 3.71529 15 4.31901 15H7.68099C8.28471 15 8.78298 15 9.18887 14.9669C9.61044 14.9324 9.99797 14.8585 10.362 14.673C10.9265 14.3854 11.3854 13.9265 11.673 13.362C11.8585 12.998 11.9324 12.6104 11.9669 12.1889C12 11.783 12 11.2847 12 10.681V4.31901C12 3.7153 12 3.21702 11.9669 2.81113C11.9324 2.38956 11.8585 2.00203 11.673 1.63803C11.3854 1.07354 10.9265 0.614601 10.362 0.326981C9.99797 0.141513 9.61044 0.0675901 9.18887 0.0331462C8.78298 -1.66241e-05 8.2847 -8.96838e-06 7.68097 3.08956e-07ZM2.31902 1.66349C2.43632 1.60372 2.60447 1.55503 2.93328 1.52816C3.15347 1.51017 3.41585 1.50367 3.75 1.50132V2.25C3.75 2.66421 4.08579 3 4.5 3H7.5C7.91421 3 8.25 2.66421 8.25 2.25V1.50132C8.58415 1.50367 8.84653 1.51017 9.06672 1.52816C9.39553 1.55503 9.56369 1.60372 9.68099 1.66349C9.96323 1.8073 10.1927 2.03677 10.3365 2.31902C10.3963 2.43632 10.445 2.60447 10.4718 2.93328C10.4994 3.27085 10.5 3.70757 10.5 4.35V10.65C10.5 11.2924 10.4994 11.7292 10.4718 12.0667C10.445 12.3955 10.3963 12.5637 10.3365 12.681C10.1927 12.9632 9.96323 13.1927 9.68099 13.3365C9.56369 13.3963 9.39553 13.445 9.06672 13.4718C8.72916 13.4994 8.29244 13.5 7.65 13.5H4.35C3.70757 13.5 3.27085 13.4994 2.93328 13.4718C2.60447 13.445 2.43632 13.3963 2.31902 13.3365C2.03677 13.1927 1.8073 12.9632 1.66349 12.681C1.60372 12.5637 1.55503 12.3955 1.52816 12.0667C1.50058 11.7292 1.5 11.2924 1.5 10.65V4.35C1.5 3.70757 1.50058 3.27085 1.52816 2.93328C1.55503 2.60447 1.60372 2.43632 1.66349 2.31902C1.8073 2.03677 2.03677 1.8073 2.31902 1.66349Z" fill="#C64191"/>
</svg>
