<svg width="100" height="100" viewBox="0 0 100 100" fill="none" xmlns="http://www.w3.org/2000/svg">
<rect width="100" height="100" fill="white"/>
<path d="M81.136 16.0491C81.5634 15.9136 81.8748 15.5563 81.8748 15.1128V12.8644C81.8748 12.4209 81.5756 12.0574 81.1665 11.8973C80.6719 11.7002 80.2384 11.2566 80.0247 10.7084C79.8659 10.2957 79.5057 10 79.066 10H76.7274C76.2756 10 75.9031 10.308 75.7505 10.733C75.1643 12.3839 72.612 12.3962 72.0319 10.733C71.8793 10.3018 71.5068 10 71.055 10H68.7408C68.289 10 67.9165 10.308 67.7638 10.733C67.1838 12.3901 64.6254 12.3901 64.0453 10.733C63.8926 10.3018 63.5202 10 63.0683 10H60.7603C60.3084 10 59.936 10.308 59.7833 10.733C59.1971 12.3901 56.6448 12.3962 56.0648 10.733C55.9121 10.3018 55.5396 10 55.0878 10H52.7736C52.3218 10 51.9493 10.308 51.7967 10.733C51.2166 12.3901 48.6582 12.3901 48.0781 10.733C47.9255 10.3018 47.553 10 47.1012 10H44.7931C44.3413 10 43.9688 10.308 43.8161 10.733C43.23 12.3901 40.6777 12.3962 40.0976 10.733C39.9449 10.3018 39.5725 10 39.1206 10H36.8065C36.3546 10 35.9822 10.308 35.8295 10.733C35.2494 12.3901 32.691 12.3901 32.111 10.733C31.9583 10.3018 31.5858 10 31.134 10H28.8259C28.3741 10 28.0016 10.308 27.849 10.733C27.2628 12.3901 24.7105 12.3962 24.1304 10.733C23.9778 10.3018 23.6053 10 23.1535 10H20.8149C20.3752 10 20.0028 10.2895 19.8501 10.7022C19.6486 11.2382 19.2334 11.6755 18.6839 11.8726C18.2748 12.0205 18 12.4024 18 12.8398V15.1374C18 15.5933 18.3053 15.969 18.7266 16.123C20.3691 16.7082 20.3691 19.2893 18.7266 19.8745C18.2992 20.0285 18 20.4042 18 20.8601V23.1393C18 23.5951 18.3053 23.9709 18.7266 24.1249C20.3691 24.7101 20.3691 27.2911 18.7266 27.8763C18.2992 28.0303 18 28.4061 18 28.8619V31.1411C18 31.597 18.3053 31.9727 18.7266 32.1267C20.3752 32.7119 20.3691 35.293 18.7266 35.8782C18.3053 36.0322 18 36.4079 18 36.8638V39.1368C18 39.5927 18.3053 39.9684 18.7266 40.1224C20.3691 40.7138 20.3752 43.2887 18.7266 43.8739C18.2992 44.0279 18 44.4036 18 44.8595V47.1387C18 47.5945 18.3053 47.9703 18.7266 48.1243C20.3691 48.7095 20.3691 51.2905 18.7266 51.8757C18.2992 52.0297 18 52.4055 18 52.8613V55.1405C18 55.5964 18.3053 55.9721 18.7266 56.1261C20.3752 56.7113 20.3691 59.2924 18.7266 59.8776C18.3053 60.0316 18 60.4073 18 60.8632V63.1362C18 63.592 18.3053 63.9678 18.7266 64.1218C20.3691 64.7132 20.3752 67.2881 18.7266 67.8733C18.2992 68.0273 18 68.403 18 68.8589V71.1381C18 71.5939 18.3053 71.9697 18.7266 72.1237C20.3691 72.7089 20.3691 75.2899 18.7266 75.8751C18.2992 76.0291 18 76.4049 18 76.8607V79.1399C18 79.5957 18.3053 79.9715 18.7266 80.1255C20.3691 80.7107 20.3691 83.2918 18.7266 83.877C18.2992 84.031 18 84.4067 18 84.8626V87.1602C18 87.5976 18.2809 87.9795 18.69 88.1274C19.2334 88.3245 19.6547 88.7618 19.8562 89.2978C20.0089 89.7105 20.3813 90 20.821 90H23.1596C23.6114 90 23.9839 89.692 24.1365 89.267C24.7166 87.6099 27.275 87.6099 27.8551 89.267C28.0077 89.6982 28.3802 90 28.832 90H31.1401C31.5919 90 31.9644 89.692 32.1171 89.267C32.6971 87.6099 35.2555 87.6099 35.8356 89.267C35.9883 89.6982 36.3607 90 36.8126 90H39.1267C39.5786 90 39.951 89.692 40.1037 89.267C40.6838 87.5976 43.2422 87.6099 43.8222 89.267C43.9749 89.6982 44.3474 90 44.7992 90H47.1073C47.5591 90 47.9316 89.692 48.0842 89.267C48.6643 87.6099 51.2227 87.6099 51.8028 89.267C51.9554 89.6982 52.3279 90 52.7797 90H55.0939C55.5458 90 55.9182 89.692 56.0709 89.267C56.6509 87.6099 59.2093 87.6099 59.7894 89.267C59.9421 89.6982 60.3145 90 60.7664 90H63.0744C63.5263 90 63.8988 89.692 64.0514 89.267C64.6315 87.6099 67.1899 87.6099 67.7699 89.267C67.9226 89.6982 68.2951 90 68.7469 90H71.0611C71.5129 90 71.8854 89.692 72.038 89.267C72.6181 87.6099 75.1765 87.6099 75.7566 89.267C75.9092 89.6982 76.2817 90 76.7335 90H79.0599C79.4996 90 79.872 89.7105 80.0247 89.2916C80.2201 88.768 80.6292 88.3368 81.1848 88.1458C81.5939 88.0042 81.8748 87.6161 81.8748 87.1787V84.8872C81.8748 84.4375 81.5573 84.0802 81.1299 83.9447C79.5301 83.4458 79.5362 80.569 81.1299 80.0701C81.5573 79.9345 81.8748 79.5773 81.8748 79.1276V76.873C81.8748 76.4233 81.5756 76.0353 81.1543 75.8936C79.408 75.3022 79.6217 72.5364 81.1787 72.0682C81.6122 71.9389 81.8809 71.5015 81.8809 71.0457V68.8958C81.8809 68.4461 81.5634 68.0827 81.136 67.9533C79.5301 67.4544 79.5484 64.5777 81.1421 64.0787C81.5695 63.9432 81.8809 63.592 81.8809 63.1424V60.9987C81.8809 60.5428 81.6122 60.0993 81.1726 59.97C79.6034 59.5018 79.408 56.736 81.1543 56.1446C81.5817 56.0029 81.8748 55.6148 81.8748 55.1652V52.9106C81.8748 52.4609 81.5573 52.1036 81.1299 51.9681C79.5301 51.4692 79.5301 48.5924 81.1299 48.0935C81.5573 47.958 81.8748 47.6007 81.8748 47.151V44.8964C81.8748 44.4468 81.5756 44.0587 81.1543 43.917C79.408 43.3256 79.6217 40.566 81.1787 40.0916C81.6122 39.9623 81.8748 39.5249 81.8748 39.0691V36.9993C81.8748 36.5435 81.6061 36.1061 81.1726 35.9767C79.6095 35.5086 79.3958 32.7427 81.1482 32.1514C81.5756 32.0097 81.8748 31.6216 81.8748 31.1719V28.9235C81.8748 28.4739 81.5573 28.1166 81.1299 27.9811C79.5301 27.4821 79.5362 24.6054 81.1299 24.1064C81.5573 23.9709 81.8687 23.6136 81.8687 23.1639V20.9217C81.8687 20.472 81.5512 20.1147 81.1238 19.9792C79.524 19.4802 79.5301 16.6035 81.1238 16.1046L81.136 16.0491ZM24.6067 16.3386H75.2803C75.4513 16.3386 75.5856 16.4742 75.5856 16.6466V63.7214C59.594 63.974 52.9751 71.483 50.2702 76.9962C47.5286 71.4091 40.7692 63.7645 24.2953 63.7152V16.6466C24.2953 16.4742 24.4296 16.3386 24.6006 16.3386H24.6067ZM24.6067 83.6059C24.4357 83.6059 24.3014 83.4704 24.3014 83.2979V67.4174C46.6799 67.4913 48.3895 82.4478 48.4506 83.1008C48.4506 83.1069 48.4506 83.1131 48.4506 83.1254C48.4506 83.1809 48.4689 83.2363 48.4811 83.2856C48.4933 83.3472 48.5055 83.4149 48.5239 83.4765C48.5361 83.5197 48.5605 83.5628 48.5727 83.6059H24.6067ZM75.2864 83.6059H51.9737C51.9921 83.5628 52.0104 83.5197 52.0287 83.4704C52.047 83.4088 52.0531 83.3472 52.0653 83.2917C52.0775 83.2363 52.0898 83.1809 52.0959 83.1193C52.0959 83.1131 52.0959 83.1008 52.0959 83.0946C52.0959 83.0577 52.4561 79.2693 55.5274 75.4069C59.5635 70.3311 66.4938 67.5899 75.5795 67.4297V83.3041C75.5795 83.4766 75.4452 83.6121 75.2742 83.6121L75.2864 83.6059Z" fill="#EB6540"/>
<path d="M33.4361 60.4688C36.0067 60.4688 37.4721 59.3107 38.2537 58.3374C39.8962 56.28 39.9817 53.2123 39.5177 51.0255C39.3039 50.0276 38.3331 49.3931 37.3378 49.6087C36.3486 49.8243 35.7197 50.8099 35.9334 51.8078C36.2204 53.1569 36.1777 55.048 35.4022 56.0213C35.1397 56.3477 34.6573 56.7789 33.4361 56.7789C32.2149 56.7789 31.3662 56.3785 30.6579 55.5531C29.687 54.4197 29.3145 52.7133 29.4611 51.6785C29.4611 51.6415 29.4733 51.6045 29.4733 51.5676C29.5832 50.1939 31.244 46.9353 33.4361 46.9353C33.9246 46.9353 34.4008 46.732 34.7428 46.387C35.1661 45.9558 35.3574 43.6643 35.3167 39.5124C35.3045 38.3667 35.2923 37.0792 35.2801 35.6994C35.2801 35.1327 35.4938 34.6029 35.8846 34.2025C36.2815 33.796 36.8127 33.5742 37.3806 33.5742H39.1086C40.1527 33.5742 41.0503 34.3565 41.2029 35.3976L42.1738 41.9641C42.5951 44.7977 45.0497 46.9353 47.8951 46.9353H52.6455C55.4848 46.9353 57.9455 44.7977 58.3669 41.9641L59.3377 35.3976C59.4904 34.3565 60.394 33.5742 61.4321 33.5742H63.1601C63.7279 33.5742 64.2591 33.796 64.656 34.2025C65.0529 34.6029 65.2666 35.1327 65.2605 35.6994C65.2483 37.0854 65.2361 38.379 65.2239 39.5309C65.1832 43.6705 65.3745 45.9558 65.7979 46.387C66.1398 46.7381 66.6161 46.9353 67.1045 46.9353C69.2966 46.9353 70.9574 50.1939 71.0673 51.5676C71.0673 51.6045 71.0734 51.6415 71.0795 51.6785C71.2261 52.7072 70.8597 54.4197 69.8828 55.5531C69.1745 56.3785 68.2647 56.7789 67.1045 56.7789C65.9444 56.7789 65.401 56.3477 65.1384 56.0213C64.3629 55.048 64.3202 53.1569 64.6072 51.8078C64.8209 50.8099 64.192 49.8243 63.2028 49.6087C62.2136 49.3931 61.2367 50.0276 61.023 51.0255C60.5528 53.2123 60.6383 56.2861 62.2869 58.3374C63.0624 59.3107 64.5339 60.4688 67.1045 60.4688C69.3332 60.4688 71.2505 59.6064 72.6549 57.9678C74.4317 55.9042 74.9691 53.0953 74.7126 51.2041C74.4806 48.7032 72.3984 44.5637 68.8631 43.4918C68.8631 42.5001 68.8753 41.0524 68.8875 39.5617C68.8997 38.4036 68.9119 37.11 68.9241 35.7179C68.9363 34.1594 68.344 32.6933 67.2572 31.5907C66.1642 30.4819 64.711 29.872 63.1601 29.872H62.9891C63.5997 28.8002 63.9538 27.562 63.9538 26.2376C63.9538 22.1967 60.6932 18.9072 56.6877 18.9072C53.9095 18.9072 51.4854 20.4965 50.2703 22.8188C49.0491 20.4965 46.6311 18.9072 43.8529 18.9072C39.8474 18.9072 36.5868 22.1967 36.5868 26.2376C36.5868 27.562 36.9409 28.8002 37.5515 29.872H37.3806C35.8296 29.872 34.3764 30.4819 33.2834 31.5907C32.1966 32.6933 31.6043 34.1594 31.6104 35.7179C31.6226 37.1039 31.6348 38.3913 31.647 39.5432C31.6592 41.0463 31.6776 42.4939 31.6776 43.4918C28.1361 44.5637 26.0539 48.7032 25.828 51.2041C25.5777 53.0953 26.115 55.9042 27.8857 57.9678C29.2901 59.6002 31.2074 60.4688 33.4361 60.4688ZM56.6938 22.6094C58.6783 22.6094 60.2963 24.2418 60.2963 26.2438C60.2963 28.2458 58.6783 29.8782 56.6938 29.8782C54.7094 29.8782 53.0913 28.252 53.0913 26.2438C53.0913 24.2356 54.7094 22.6094 56.6938 22.6094ZM50.2764 29.6564C51.406 31.8063 53.5614 33.3155 56.0771 33.5311C55.9122 33.9438 55.784 34.3812 55.7169 34.837L54.746 41.4036C54.5934 42.4446 53.6897 43.2269 52.6516 43.2269H47.9012C46.8571 43.2269 45.9595 42.4446 45.8068 41.4036L44.836 34.837C44.7688 34.3812 44.6406 33.9438 44.4757 33.5311C46.9914 33.3155 49.1468 31.8001 50.2764 29.6564ZM43.859 22.6094C45.8435 22.6094 47.4616 24.2418 47.4616 26.2438C47.4616 28.2458 45.8435 29.8782 43.859 29.8782C41.8746 29.8782 40.2565 28.252 40.2565 26.2438C40.2565 24.2356 41.8746 22.6094 43.859 22.6094Z" fill="#EB6540"/>
<path d="M50.2759 54.1548C46.881 54.1548 44.1211 56.9391 44.1211 60.3641C44.1211 63.789 46.881 66.5734 50.2759 66.5734C53.6709 66.5734 56.4308 63.789 56.4308 60.3641C56.4308 56.9391 53.6709 54.1548 50.2759 54.1548ZM50.2759 62.8774C48.9021 62.8774 47.7847 61.7501 47.7847 60.3641C47.7847 58.9781 48.9021 57.8508 50.2759 57.8508C51.6498 57.8508 52.7672 58.9781 52.7672 60.3641C52.7672 61.7501 51.6498 62.8774 50.2759 62.8774Z" fill="#EB6540"/>
</svg>
