<svg width="14" height="15" viewBox="0 0 14 15" fill="none" xmlns="http://www.w3.org/2000/svg">
<path fill-rule="evenodd" clip-rule="evenodd" d="M6.75 3C3.85051 3 1.5 5.35051 1.5 8.25C1.5 11.1495 3.85051 13.5 6.75 13.5C9.6495 13.5 12 11.1495 12 8.25C12 5.35051 9.6495 3 6.75 3ZM0 8.25C0 4.52208 3.02208 1.5 6.75 1.5C10.4779 1.5 13.5 4.52208 13.5 8.25C13.5 11.9779 10.4779 15 6.75 15C3.02208 15 0 11.9779 0 8.25Z" fill="#010101"/>
<path fill-rule="evenodd" clip-rule="evenodd" d="M6.75 4.5C7.16421 4.5 7.5 4.83579 7.5 5.25V7.93934L8.78033 9.21967C9.07322 9.51256 9.07322 9.98744 8.78033 10.2803C8.48744 10.5732 8.01256 10.5732 7.71967 10.2803L6.21967 8.78033C6.07902 8.63968 6 8.44891 6 8.25V5.25C6 4.83579 6.33579 4.5 6.75 4.5Z" fill="#010101"/>
<path d="M1.20004 2.47504C0.868673 2.72357 0.398572 2.65641 0.150044 2.32504C-0.098484 1.99367 -0.0313267 1.52357 0.300044 1.27504L1.80004 0.150044C2.13141 -0.0984839 2.60152 -0.0313268 2.85004 0.300044C3.09857 0.631415 3.03141 1.10152 2.70004 1.35004L1.20004 2.47504Z" fill="#010101"/>
<path d="M11.7 0.150132C11.3687 -0.0983957 10.8986 -0.0312384 10.65 0.300132C10.4015 0.631503 10.4687 1.1016 10.8 1.35013L12.3 2.47513C12.6314 2.72366 13.1015 2.6565 13.35 2.32513C13.5986 1.99376 13.5314 1.52366 13.2 1.27513L11.7 0.150132Z" fill="#010101"/>
</svg>
