<svg width="15" height="15" viewBox="0 0 15 15" fill="none" xmlns="http://www.w3.org/2000/svg">
<path fill-rule="evenodd" clip-rule="evenodd" d="M4.79892 1.6665H10.2011C10.8719 1.66649 11.4255 1.66648 11.8765 1.70333C12.3449 1.7416 12.7755 1.82374 13.18 2.02982C13.8072 2.34939 14.3171 2.85933 14.6367 3.48654C14.8428 3.89098 14.9249 4.32157 14.9632 4.78998C15 5.24097 15 5.7946 15 6.4654V10.2009C15 10.8717 15 11.4254 14.9632 11.8764C14.9249 12.3448 14.8428 12.7754 14.6367 13.1798C14.3171 13.807 13.8072 14.3169 13.18 14.6365C12.7755 14.8426 12.3449 14.9247 11.8765 14.963C11.4255 14.9999 10.8719 14.9998 10.2011 14.9998H4.79894C4.12812 14.9998 3.57448 14.9999 3.12348 14.963C2.65506 14.9247 2.22448 14.8426 1.82003 14.6365C1.19283 14.3169 0.68289 13.807 0.363312 13.1798C0.157237 12.7754 0.0750998 12.3448 0.0368288 11.8764C-1.90114e-05 11.4254 -1.02701e-05 10.8717 3.59409e-07 10.2009V6.46542C-1.02701e-05 5.79461 -1.90114e-05 5.24098 0.0368288 4.78998C0.0750998 4.32157 0.157237 3.89098 0.363312 3.48654C0.68289 2.85933 1.19283 2.34939 1.82003 2.02982C2.22448 1.82374 2.65506 1.7416 3.12348 1.70333C3.57448 1.66648 4.12811 1.66649 4.79892 1.6665ZM3.2592 3.36446C2.89385 3.39431 2.70702 3.44842 2.57668 3.51483C2.26308 3.67462 2.00811 3.92958 1.84832 4.24319C1.78191 4.37352 1.72781 4.56036 1.69796 4.9257C1.66732 5.30078 1.66667 5.78602 1.66667 6.49984V10.1665C1.66667 10.8803 1.66732 11.3656 1.69796 11.7406C1.72781 12.106 1.78191 12.2928 1.84832 12.4232C2.00811 12.7368 2.26308 12.9917 2.57668 13.1515C2.70702 13.2179 2.89385 13.272 3.2592 13.3019C3.63427 13.3325 4.11952 13.3332 4.83333 13.3332H10.1667C10.8805 13.3332 11.3657 13.3325 11.7408 13.3019C12.1061 13.272 12.293 13.2179 12.4233 13.1515C12.7369 12.9917 12.9919 12.7368 13.1517 12.4232C13.2181 12.2928 13.2722 12.106 13.302 11.7406C13.3327 11.3656 13.3333 10.8803 13.3333 10.1665V6.49984C13.3333 5.78602 13.3327 5.30078 13.302 4.9257C13.2722 4.56036 13.2181 4.37352 13.1517 4.24319C12.9919 3.92958 12.7369 3.67462 12.4233 3.51483C12.293 3.44842 12.1061 3.39431 11.7408 3.36446C11.3657 3.33382 10.8805 3.33317 10.1667 3.33317H4.83333C4.11952 3.33317 3.63427 3.33382 3.2592 3.36446Z" fill="#5998C5"/>
<path d="M4.99992 0.833333C4.99992 0.373096 4.62682 0 4.16659 0C3.70635 0 3.33325 0.373096 3.33325 0.833333V2.5C3.33325 2.96024 3.70635 3.33333 4.16659 3.33333C4.62682 3.33333 4.99992 2.96024 4.99992 2.5V0.833333Z" fill="#5998C5"/>
<path d="M11.6666 0.833333C11.6666 0.373096 11.2935 0 10.8333 0C10.373 0 9.99992 0.373096 9.99992 0.833333V2.5C9.99992 2.96024 10.373 3.33333 10.8333 3.33333C11.2935 3.33333 11.6666 2.96024 11.6666 2.5V0.833333Z" fill="#5998C5"/>
<path fill-rule="evenodd" clip-rule="evenodd" d="M4.16659 7.50016C4.62682 7.50016 4.99992 7.12707 4.99992 6.66683C4.99992 6.20659 4.62682 5.8335 4.16659 5.8335C3.70635 5.8335 3.33325 6.20659 3.33325 6.66683C3.33325 7.12707 3.70635 7.50016 4.16659 7.50016ZM8.33325 6.66683C8.33325 7.12707 7.96016 7.50016 7.49992 7.50016C7.03968 7.50016 6.66659 7.12707 6.66659 6.66683C6.66659 6.20659 7.03968 5.8335 7.49992 5.8335C7.96016 5.8335 8.33325 6.20659 8.33325 6.66683ZM11.6666 6.66683C11.6666 7.12707 11.2935 7.50016 10.8333 7.50016C10.373 7.50016 9.99992 7.12707 9.99992 6.66683C9.99992 6.20659 10.373 5.8335 10.8333 5.8335C11.2935 5.8335 11.6666 6.20659 11.6666 6.66683ZM8.33325 10.0002C8.33325 10.4604 7.96016 10.8335 7.49992 10.8335C7.03968 10.8335 6.66659 10.4604 6.66659 10.0002C6.66659 9.53993 7.03968 9.16683 7.49992 9.16683C7.96016 9.16683 8.33325 9.53993 8.33325 10.0002ZM4.16659 10.8335C4.62682 10.8335 4.99992 10.4604 4.99992 10.0002C4.99992 9.53993 4.62682 9.16683 4.16659 9.16683C3.70635 9.16683 3.33325 9.53993 3.33325 10.0002C3.33325 10.4604 3.70635 10.8335 4.16659 10.8335Z" fill="#5998C5"/>
</svg>
