<svg width="136" height="20" viewBox="0 0 136 20" fill="none" xmlns="http://www.w3.org/2000/svg">
<path d="M10.125 19C9.95833 19 9.84167 18.925 9.775 18.775L6.65 11.85C6.61667 11.7833 6.56667 11.75 6.5 11.75H4.175C4.09167 11.75 4.05 11.7917 4.05 11.875V18.7C4.05 18.7833 4.01667 18.8583 3.95 18.925C3.9 18.975 3.83333 19 3.75 19H0.825C0.741667 19 0.666667 18.975 0.6 18.925C0.55 18.8583 0.525 18.7833 0.525 18.7V1.8C0.525 1.71667 0.55 1.65 0.6 1.6C0.666667 1.53333 0.741667 1.5 0.825 1.5H7.975C9.04167 1.5 9.975 1.71667 10.775 2.15C11.5917 2.58333 12.2167 3.2 12.65 4C13.1 4.8 13.325 5.725 13.325 6.775C13.325 7.90833 13.0417 8.88333 12.475 9.7C11.9083 10.5 11.1167 11.0667 10.1 11.4C10.0167 11.4333 9.99167 11.4917 10.025 11.575L13.425 18.65C13.4583 18.7167 13.475 18.7667 13.475 18.8C13.475 18.9333 13.3833 19 13.2 19H10.125ZM4.175 4.525C4.09167 4.525 4.05 4.56667 4.05 4.65V8.925C4.05 9.00833 4.09167 9.05 4.175 9.05H7.45C8.15 9.05 8.71667 8.84167 9.15 8.425C9.6 8.00833 9.825 7.46667 9.825 6.8C9.825 6.13333 9.6 5.59167 9.15 5.175C8.71667 4.74167 8.15 4.525 7.45 4.525H4.175ZM26.8605 11.25C26.9605 11.8833 26.9939 12.5917 26.9605 13.375C26.9439 13.575 26.8355 13.675 26.6355 13.675H18.9105C18.8105 13.675 18.7772 13.7167 18.8105 13.8C18.8605 14.1333 18.9522 14.4667 19.0855 14.8C19.5189 15.7333 20.4022 16.2 21.7355 16.2C22.8022 16.1833 23.6439 15.75 24.2605 14.9C24.3272 14.8 24.4022 14.75 24.4855 14.75C24.5355 14.75 24.5939 14.7833 24.6605 14.85L26.4605 16.625C26.5439 16.7083 26.5855 16.7833 26.5855 16.85C26.5855 16.8833 26.5522 16.95 26.4855 17.05C25.9355 17.7333 25.2272 18.2667 24.3605 18.65C23.4939 19.0167 22.5439 19.2 21.5105 19.2C20.0772 19.2 18.8605 18.875 17.8605 18.225C16.8772 17.575 16.1689 16.6667 15.7355 15.5C15.3855 14.6667 15.2105 13.575 15.2105 12.225C15.2105 11.3083 15.3355 10.5 15.5855 9.8C15.9689 8.61667 16.6355 7.675 17.5855 6.975C18.5522 6.275 19.6939 5.925 21.0105 5.925C22.6772 5.925 24.0105 6.40833 25.0105 7.375C26.0272 8.34167 26.6439 9.63333 26.8605 11.25ZM21.0355 8.975C19.9855 8.975 19.2939 9.46667 18.9605 10.45C18.8939 10.6667 18.8355 10.9333 18.7855 11.25C18.7855 11.3333 18.8272 11.375 18.9105 11.375H23.2355C23.3355 11.375 23.3689 11.3333 23.3355 11.25C23.2522 10.7667 23.2105 10.5333 23.2105 10.55C23.0605 10.05 22.7939 9.66667 22.4105 9.4C22.0439 9.11667 21.5855 8.975 21.0355 8.975ZM34.0871 19.175C32.9704 19.175 31.9954 19.0167 31.1621 18.7C30.3288 18.3833 29.6788 17.9417 29.2121 17.375C28.7621 16.8083 28.5371 16.1667 28.5371 15.45V15.2C28.5371 15.1167 28.5621 15.05 28.6121 15C28.6788 14.9333 28.7538 14.9 28.8371 14.9H31.6121C31.6954 14.9 31.7621 14.9333 31.8121 15C31.8788 15.05 31.9121 15.1167 31.9121 15.2V15.225C31.9121 15.5917 32.1121 15.9083 32.5121 16.175C32.9288 16.425 33.4454 16.55 34.0621 16.55C34.6288 16.55 35.0871 16.4417 35.4371 16.225C35.7871 15.9917 35.9621 15.7083 35.9621 15.375C35.9621 15.075 35.8121 14.85 35.5121 14.7C35.2121 14.55 34.7204 14.3917 34.0371 14.225C33.2538 14.025 32.6371 13.8333 32.1871 13.65C31.1204 13.2833 30.2704 12.8333 29.6371 12.3C29.0038 11.7667 28.6871 11 28.6871 10C28.6871 8.76667 29.1621 7.79167 30.1121 7.075C31.0788 6.34167 32.3538 5.975 33.9371 5.975C35.0038 5.975 35.9371 6.15 36.7371 6.5C37.5371 6.83333 38.1538 7.30833 38.5871 7.925C39.0371 8.54167 39.2621 9.24167 39.2621 10.025C39.2621 10.1083 39.2288 10.1833 39.1621 10.25C39.1121 10.3 39.0454 10.325 38.9621 10.325H36.2871C36.2038 10.325 36.1288 10.3 36.0621 10.25C36.0121 10.1833 35.9871 10.1083 35.9871 10.025C35.9871 9.65833 35.7954 9.35 35.4121 9.1C35.0454 8.85 34.5538 8.725 33.9371 8.725C33.3871 8.725 32.9371 8.825 32.5871 9.025C32.2371 9.225 32.0621 9.5 32.0621 9.85C32.0621 10.1833 32.2288 10.4333 32.5621 10.6C32.9121 10.7667 33.4871 10.9417 34.2871 11.125C34.4704 11.175 34.6788 11.2333 34.9121 11.3C35.1454 11.35 35.3954 11.4167 35.6621 11.5C36.8454 11.85 37.7788 12.3 38.4621 12.85C39.1454 13.4 39.4871 14.2 39.4871 15.25C39.4871 16.4833 38.9954 17.45 38.0121 18.15C37.0454 18.8333 35.7371 19.175 34.0871 19.175ZM52.8859 11.25C52.9859 11.8833 53.0193 12.5917 52.9859 13.375C52.9693 13.575 52.8609 13.675 52.6609 13.675H44.9359C44.8359 13.675 44.8026 13.7167 44.8359 13.8C44.8859 14.1333 44.9776 14.4667 45.1109 14.8C45.5443 15.7333 46.4276 16.2 47.7609 16.2C48.8276 16.1833 49.6693 15.75 50.2859 14.9C50.3526 14.8 50.4276 14.75 50.5109 14.75C50.5609 14.75 50.6193 14.7833 50.6859 14.85L52.4859 16.625C52.5693 16.7083 52.6109 16.7833 52.6109 16.85C52.6109 16.8833 52.5776 16.95 52.5109 17.05C51.9609 17.7333 51.2526 18.2667 50.3859 18.65C49.5193 19.0167 48.5693 19.2 47.5359 19.2C46.1026 19.2 44.8859 18.875 43.8859 18.225C42.9026 17.575 42.1943 16.6667 41.7609 15.5C41.4109 14.6667 41.2359 13.575 41.2359 12.225C41.2359 11.3083 41.3609 10.5 41.6109 9.8C41.9943 8.61667 42.6609 7.675 43.6109 6.975C44.5776 6.275 45.7193 5.925 47.0359 5.925C48.7026 5.925 50.0359 6.40833 51.0359 7.375C52.0526 8.34167 52.6693 9.63333 52.8859 11.25ZM47.0609 8.975C46.0109 8.975 45.3193 9.46667 44.9859 10.45C44.9193 10.6667 44.8609 10.9333 44.8109 11.25C44.8109 11.3333 44.8526 11.375 44.9359 11.375H49.2609C49.3609 11.375 49.3943 11.3333 49.3609 11.25C49.2776 10.7667 49.2359 10.5333 49.2359 10.55C49.0859 10.05 48.8193 9.66667 48.4359 9.4C48.0693 9.11667 47.6109 8.975 47.0609 8.975ZM61.5584 5.975C62.1584 5.975 62.6334 6.09167 62.9834 6.325C63.1167 6.39167 63.1667 6.51667 63.1334 6.7L62.6084 9.55C62.5917 9.75 62.4751 9.80833 62.2584 9.725C62.0084 9.64167 61.7167 9.6 61.3834 9.6C61.2501 9.6 61.0667 9.61667 60.8334 9.65C60.2334 9.7 59.7251 9.925 59.3084 10.325C58.8917 10.7083 58.6834 11.225 58.6834 11.875V18.7C58.6834 18.7833 58.6501 18.8583 58.5834 18.925C58.5334 18.975 58.4667 19 58.3834 19H55.4584C55.3751 19 55.3001 18.975 55.2334 18.925C55.1834 18.8583 55.1584 18.7833 55.1584 18.7V6.45C55.1584 6.36667 55.1834 6.3 55.2334 6.25C55.3001 6.18333 55.3751 6.15 55.4584 6.15H58.3834C58.4667 6.15 58.5334 6.18333 58.5834 6.25C58.6501 6.3 58.6834 6.36667 58.6834 6.45V7.4C58.6834 7.45 58.7001 7.48333 58.7334 7.5C58.7667 7.51667 58.7917 7.50833 58.8084 7.475C59.4917 6.475 60.4084 5.975 61.5584 5.975ZM68.5723 19C68.4056 19 68.2973 18.9167 68.2473 18.75L64.2473 6.475C64.2306 6.44167 64.2223 6.4 64.2223 6.35C64.2223 6.2 64.3139 6.125 64.4973 6.125H67.7223C67.9056 6.125 68.0223 6.20833 68.0723 6.375L70.1223 13.95C70.1389 14 70.1639 14.025 70.1973 14.025C70.2306 14.025 70.2556 14 70.2723 13.95L72.3223 6.375C72.3723 6.20833 72.4889 6.125 72.6723 6.125L75.8973 6.175C75.9973 6.175 76.0723 6.20833 76.1223 6.275C76.1723 6.325 76.1806 6.40833 76.1473 6.525L72.1723 18.75C72.1223 18.9167 72.0139 19 71.8473 19H68.5723ZM82.427 5.95C83.5103 5.95 84.477 6.14167 85.327 6.525C86.177 6.89167 86.8353 7.4 87.302 8.05C87.7853 8.7 88.027 9.425 88.027 10.225V18.7C88.027 18.7833 87.9936 18.8583 87.927 18.925C87.877 18.975 87.8103 19 87.727 19H84.802C84.7186 19 84.6436 18.975 84.577 18.925C84.527 18.8583 84.502 18.7833 84.502 18.7V17.875C84.502 17.825 84.4853 17.7917 84.452 17.775C84.4186 17.7583 84.3853 17.775 84.352 17.825C83.652 18.7417 82.527 19.2 80.977 19.2C79.677 19.2 78.627 18.8833 77.827 18.25C77.027 17.6167 76.627 16.6833 76.627 15.45C76.627 14.1667 77.077 13.175 77.977 12.475C78.877 11.7583 80.1603 11.4 81.827 11.4H84.377C84.4603 11.4 84.502 11.3583 84.502 11.275V10.725C84.502 10.175 84.3353 9.75 84.002 9.45C83.6686 9.13333 83.1686 8.975 82.502 8.975C81.9853 8.975 81.552 9.06667 81.202 9.25C80.8686 9.43333 80.652 9.69167 80.552 10.025C80.502 10.2083 80.3936 10.2917 80.227 10.275L77.202 9.875C77.002 9.84167 76.9103 9.76667 76.927 9.65C76.9936 8.95 77.2686 8.31667 77.752 7.75C78.252 7.18333 78.902 6.74167 79.702 6.425C80.5186 6.10833 81.427 5.95 82.427 5.95ZM81.927 16.575C82.6436 16.575 83.252 16.3833 83.752 16C84.252 15.6167 84.502 15.125 84.502 14.525V13.625C84.502 13.5417 84.4603 13.5 84.377 13.5H82.577C81.827 13.5 81.2353 13.6417 80.802 13.925C80.3853 14.2083 80.177 14.6083 80.177 15.125C80.177 15.575 80.3353 15.9333 80.652 16.2C80.9686 16.45 81.3936 16.575 81.927 16.575ZM96.16 19.2C94.8266 19.2 93.6683 18.8667 92.685 18.2C91.7183 17.5333 91.0266 16.6167 90.61 15.45C90.3266 14.6167 90.185 13.6333 90.185 12.5C90.185 11.3833 90.3266 10.4167 90.61 9.6C91.01 8.46667 91.7016 7.575 92.685 6.925C93.6683 6.275 94.8266 5.95 96.16 5.95C97.4933 5.95 98.66 6.28333 99.66 6.95C100.677 7.61667 101.352 8.45833 101.685 9.475C101.818 9.875 101.885 10.175 101.885 10.375V10.425C101.885 10.575 101.802 10.6667 101.635 10.7L98.76 11.125H98.71C98.56 11.125 98.46 11.0417 98.41 10.875L98.335 10.475C98.2183 10.0417 97.96 9.68333 97.56 9.4C97.16 9.11667 96.685 8.975 96.135 8.975C95.6016 8.975 95.1516 9.10833 94.785 9.375C94.4183 9.64167 94.16 10.0083 94.01 10.475C93.8266 10.975 93.735 11.6583 93.735 12.525C93.735 13.3917 93.8183 14.075 93.985 14.575C94.135 15.075 94.3933 15.4667 94.76 15.75C95.1433 16.0333 95.6016 16.175 96.135 16.175C96.6516 16.175 97.1016 16.0417 97.485 15.775C97.885 15.4917 98.16 15.1083 98.31 14.625C98.3266 14.5917 98.335 14.5417 98.335 14.475C98.3516 14.4583 98.36 14.4333 98.36 14.4C98.3766 14.2 98.4933 14.1167 98.71 14.15L101.585 14.6C101.752 14.6333 101.835 14.725 101.835 14.875C101.835 15.0083 101.785 15.2583 101.685 15.625C101.335 16.7417 100.652 17.6167 99.635 18.25C98.635 18.8833 97.4766 19.2 96.16 19.2ZM105.838 4.7C105.271 4.7 104.796 4.51667 104.413 4.15C104.046 3.76667 103.863 3.29167 103.863 2.725C103.863 2.14167 104.046 1.66667 104.413 1.3C104.779 0.933333 105.254 0.75 105.838 0.75C106.421 0.75 106.896 0.933333 107.263 1.3C107.629 1.66667 107.813 2.14167 107.813 2.725C107.813 3.29167 107.621 3.76667 107.238 4.15C106.871 4.51667 106.404 4.7 105.838 4.7ZM104.338 19C104.254 19 104.179 18.975 104.113 18.925C104.063 18.8583 104.038 18.7833 104.038 18.7V6.425C104.038 6.34167 104.063 6.275 104.113 6.225C104.179 6.15833 104.254 6.125 104.338 6.125H107.263C107.346 6.125 107.413 6.15833 107.463 6.225C107.529 6.275 107.563 6.34167 107.563 6.425V18.7C107.563 18.7833 107.529 18.8583 107.463 18.925C107.413 18.975 107.346 19 107.263 19H104.338ZM115.985 19.2C114.585 19.2 113.385 18.8333 112.385 18.1C111.385 17.3667 110.701 16.3667 110.335 15.1C110.101 14.3167 109.985 13.4667 109.985 12.55C109.985 11.5667 110.101 10.6833 110.335 9.9C110.718 8.66667 111.41 7.7 112.41 7C113.41 6.3 114.61 5.95 116.01 5.95C117.376 5.95 118.543 6.3 119.51 7C120.476 7.68333 121.16 8.64167 121.56 9.875C121.826 10.7083 121.96 11.5833 121.96 12.5C121.96 13.4 121.843 14.2417 121.61 15.025C121.243 16.325 120.56 17.35 119.56 18.1C118.576 18.8333 117.385 19.2 115.985 19.2ZM115.985 16.175C116.535 16.175 117.001 16.0083 117.385 15.675C117.768 15.3417 118.043 14.8833 118.21 14.3C118.343 13.7667 118.41 13.1833 118.41 12.55C118.41 11.85 118.343 11.2583 118.21 10.775C118.026 10.2083 117.743 9.76667 117.36 9.45C116.976 9.13333 116.51 8.975 115.96 8.975C115.393 8.975 114.918 9.13333 114.535 9.45C114.168 9.76667 113.901 10.2083 113.735 10.775C113.601 11.175 113.535 11.7667 113.535 12.55C113.535 13.3 113.593 13.8833 113.71 14.3C113.876 14.8833 114.151 15.3417 114.535 15.675C114.935 16.0083 115.418 16.175 115.985 16.175ZM114.485 4.6C114.368 4.6 114.293 4.56667 114.26 4.5C114.226 4.43333 114.235 4.35 114.285 4.25L115.61 1.725C115.676 1.575 115.801 1.5 115.985 1.5H118.51C118.626 1.5 118.701 1.54167 118.735 1.625C118.785 1.69167 118.776 1.775 118.71 1.875L116.935 4.4C116.851 4.53333 116.735 4.6 116.585 4.6H114.485ZM130.73 5.95C132.064 5.95 133.139 6.35833 133.955 7.175C134.772 7.99167 135.18 9.1 135.18 10.5V18.7C135.18 18.7833 135.147 18.8583 135.08 18.925C135.03 18.975 134.964 19 134.88 19H131.955C131.872 19 131.797 18.975 131.73 18.925C131.68 18.8583 131.655 18.7833 131.655 18.7V11.225C131.655 10.5583 131.464 10.0167 131.08 9.6C130.714 9.18333 130.222 8.975 129.605 8.975C128.989 8.975 128.489 9.18333 128.105 9.6C127.739 10.0167 127.555 10.5583 127.555 11.225V18.7C127.555 18.7833 127.522 18.8583 127.455 18.925C127.405 18.975 127.339 19 127.255 19H124.33C124.247 19 124.172 18.975 124.105 18.925C124.055 18.8583 124.03 18.7833 124.03 18.7V6.45C124.03 6.36667 124.055 6.3 124.105 6.25C124.172 6.18333 124.247 6.15 124.33 6.15H127.255C127.339 6.15 127.405 6.18333 127.455 6.25C127.522 6.3 127.555 6.36667 127.555 6.45V7.325C127.555 7.375 127.572 7.40833 127.605 7.425C127.639 7.44167 127.664 7.43333 127.68 7.4C128.364 6.43333 129.38 5.95 130.73 5.95Z" fill="#5998C5"/>
</svg>
