<svg width="137" height="70" viewBox="0 0 137 70" fill="none" xmlns="http://www.w3.org/2000/svg">
<path d="M3.855 3.215C4.485 3.215 5.04 3.325 5.52 3.545C6 3.765 6.37 4.07 6.63 4.46C6.89 4.84 7.02 5.275 7.02 5.765V10.82C7.02 10.87 7 10.915 6.96 10.955C6.93 10.985 6.89 11 6.84 11H5.46C5.41 11 5.365 10.985 5.325 10.955C5.295 10.915 5.28 10.87 5.28 10.82V10.34C5.28 10.31 5.27 10.295 5.25 10.295C5.23 10.285 5.21 10.29 5.19 10.31C4.7 10.85 3.99 11.12 3.06 11.12C2.31 11.12 1.69 10.93 1.2 10.55C0.72 10.17 0.48 9.605 0.48 8.855C0.48 8.075 0.75 7.47 1.29 7.04C1.84 6.6 2.61 6.38 3.6 6.38H5.205C5.255 6.38 5.28 6.355 5.28 6.305V5.945C5.28 5.555 5.165 5.255 4.935 5.045C4.705 4.825 4.36 4.715 3.9 4.715C3.52 4.715 3.21 4.785 2.97 4.925C2.74 5.055 2.595 5.24 2.535 5.48C2.505 5.6 2.435 5.65 2.325 5.63L0.87 5.45C0.82 5.44 0.775 5.425 0.735 5.405C0.705 5.375 0.695 5.34 0.705 5.3C0.785 4.69 1.11 4.19 1.68 3.8C2.26 3.41 2.985 3.215 3.855 3.215ZM3.495 9.74C3.985 9.74 4.405 9.61 4.755 9.35C5.105 9.09 5.28 8.76 5.28 8.36V7.655C5.28 7.605 5.255 7.58 5.205 7.58H3.945C3.415 7.58 2.995 7.68 2.685 7.88C2.385 8.08 2.235 8.365 2.235 8.735C2.235 9.055 2.35 9.305 2.58 9.485C2.82 9.655 3.125 9.74 3.495 9.74ZM11.6169 11.09C10.9869 11.09 10.4319 11 9.95191 10.82C9.48191 10.63 9.11691 10.375 8.85691 10.055C8.59691 9.725 8.46691 9.36 8.46691 8.96V8.825C8.46691 8.775 8.48191 8.735 8.51191 8.705C8.55191 8.665 8.59691 8.645 8.64691 8.645H9.96691C10.0169 8.645 10.0569 8.665 10.0869 8.705C10.1269 8.735 10.1469 8.775 10.1469 8.825V8.855C10.1469 9.105 10.2819 9.325 10.5519 9.515C10.8319 9.695 11.1819 9.785 11.6019 9.785C12.0019 9.785 12.3269 9.705 12.5769 9.545C12.8269 9.375 12.9519 9.165 12.9519 8.915C12.9519 8.685 12.8469 8.515 12.6369 8.405C12.4369 8.285 12.1069 8.16 11.6469 8.03L11.0769 7.85C10.5669 7.7 10.1369 7.54 9.78691 7.37C9.43691 7.2 9.14191 6.97 8.90191 6.68C8.66191 6.38 8.54191 6 8.54191 5.54C8.54191 4.84 8.81691 4.285 9.36691 3.875C9.91691 3.455 10.6419 3.245 11.5419 3.245C12.1519 3.245 12.6869 3.345 13.1469 3.545C13.6069 3.735 13.9619 4.005 14.2119 4.355C14.4619 4.695 14.5869 5.085 14.5869 5.525C14.5869 5.575 14.5669 5.62 14.5269 5.66C14.4969 5.69 14.4569 5.705 14.4069 5.705H13.1319C13.0819 5.705 13.0369 5.69 12.9969 5.66C12.9669 5.62 12.9519 5.575 12.9519 5.525C12.9519 5.265 12.8219 5.05 12.5619 4.88C12.3119 4.7 11.9669 4.61 11.5269 4.61C11.1369 4.61 10.8169 4.685 10.5669 4.835C10.3269 4.975 10.2069 5.175 10.2069 5.435C10.2069 5.675 10.3219 5.86 10.5519 5.99C10.7919 6.11 11.1869 6.245 11.7369 6.395L12.0669 6.485C12.5969 6.645 13.0419 6.81 13.4019 6.98C13.7619 7.14 14.0669 7.37 14.3169 7.67C14.5669 7.96 14.6919 8.34 14.6919 8.81C14.6919 9.52 14.4119 10.08 13.8519 10.49C13.2919 10.89 12.5469 11.09 11.6169 11.09ZM16.2544 11C16.2044 11 16.1594 10.985 16.1194 10.955C16.0894 10.915 16.0744 10.87 16.0744 10.82V3.515C16.0744 3.465 16.0894 3.425 16.1194 3.395C16.1594 3.355 16.2044 3.335 16.2544 3.335H17.6344C17.6844 3.335 17.7244 3.355 17.7544 3.395C17.7944 3.425 17.8144 3.465 17.8144 3.515V10.82C17.8144 10.87 17.7944 10.915 17.7544 10.955C17.7244 10.985 17.6844 11 17.6344 11H16.2544ZM16.2394 2.375C16.1694 2.375 16.1244 2.355 16.1044 2.315C16.0844 2.275 16.0894 2.225 16.1194 2.165L16.9444 0.62C16.9844 0.539999 17.0594 0.499999 17.1694 0.499999H18.3544C18.4244 0.499999 18.4694 0.524999 18.4894 0.574999C18.5194 0.614999 18.5144 0.664999 18.4744 0.724999L17.4394 2.255C17.3894 2.335 17.3194 2.375 17.2294 2.375H16.2394ZM25.4304 11.09C24.8004 11.09 24.2454 11 23.7654 10.82C23.2954 10.63 22.9304 10.375 22.6704 10.055C22.4104 9.725 22.2804 9.36 22.2804 8.96V8.825C22.2804 8.775 22.2954 8.735 22.3254 8.705C22.3654 8.665 22.4104 8.645 22.4604 8.645H23.7804C23.8304 8.645 23.8704 8.665 23.9004 8.705C23.9404 8.735 23.9604 8.775 23.9604 8.825V8.855C23.9604 9.105 24.0954 9.325 24.3654 9.515C24.6454 9.695 24.9954 9.785 25.4154 9.785C25.8154 9.785 26.1404 9.705 26.3904 9.545C26.6404 9.375 26.7654 9.165 26.7654 8.915C26.7654 8.685 26.6604 8.515 26.4504 8.405C26.2504 8.285 25.9204 8.16 25.4604 8.03L24.8904 7.85C24.3804 7.7 23.9504 7.54 23.6004 7.37C23.2504 7.2 22.9554 6.97 22.7154 6.68C22.4754 6.38 22.3554 6 22.3554 5.54C22.3554 4.84 22.6304 4.285 23.1804 3.875C23.7304 3.455 24.4554 3.245 25.3554 3.245C25.9654 3.245 26.5004 3.345 26.9604 3.545C27.4204 3.735 27.7754 4.005 28.0254 4.355C28.2754 4.695 28.4004 5.085 28.4004 5.525C28.4004 5.575 28.3804 5.62 28.3404 5.66C28.3104 5.69 28.2704 5.705 28.2204 5.705H26.9454C26.8954 5.705 26.8504 5.69 26.8104 5.66C26.7804 5.62 26.7654 5.575 26.7654 5.525C26.7654 5.265 26.6354 5.05 26.3754 4.88C26.1254 4.7 25.7804 4.61 25.3404 4.61C24.9504 4.61 24.6304 4.685 24.3804 4.835C24.1404 4.975 24.0204 5.175 24.0204 5.435C24.0204 5.675 24.1354 5.86 24.3654 5.99C24.6054 6.11 25.0004 6.245 25.5504 6.395L25.8804 6.485C26.4104 6.645 26.8554 6.81 27.2154 6.98C27.5754 7.14 27.8804 7.37 28.1304 7.67C28.3804 7.96 28.5054 8.34 28.5054 8.81C28.5054 9.52 28.2254 10.08 27.6654 10.49C27.1054 10.89 26.3604 11.09 25.4304 11.09ZM33.2329 11.12C32.4429 11.12 31.7629 10.92 31.1929 10.52C30.6329 10.12 30.2379 9.565 30.0079 8.855C29.8379 8.315 29.7529 7.745 29.7529 7.145C29.7529 6.505 29.8329 5.935 29.9929 5.435C30.2229 4.735 30.6229 4.19 31.1929 3.8C31.7629 3.41 32.4479 3.215 33.2479 3.215C34.0079 3.215 34.6629 3.41 35.2129 3.8C35.7729 4.19 36.1679 4.73 36.3979 5.42C36.5779 5.9 36.6679 6.47 36.6679 7.13C36.6679 7.76 36.5829 8.33 36.4129 8.84C36.1829 9.55 35.7879 10.11 35.2279 10.52C34.6679 10.92 34.0029 11.12 33.2329 11.12ZM33.2329 9.62C33.6029 9.62 33.9179 9.515 34.1779 9.305C34.4479 9.095 34.6429 8.8 34.7629 8.42C34.8629 8.09 34.9129 7.67 34.9129 7.16C34.9129 6.62 34.8629 6.2 34.7629 5.9C34.6529 5.52 34.4629 5.23 34.1929 5.03C33.9229 4.82 33.5929 4.715 33.2029 4.715C32.8329 4.715 32.5129 4.82 32.2429 5.03C31.9729 5.23 31.7779 5.52 31.6579 5.9C31.5579 6.25 31.5079 6.67 31.5079 7.16C31.5079 7.65 31.5579 8.07 31.6579 8.42C31.7679 8.8 31.9579 9.095 32.2279 9.305C32.5079 9.515 32.8429 9.62 33.2329 9.62ZM41.9878 3.215C42.7978 3.215 43.4428 3.455 43.9228 3.935C44.4128 4.415 44.6578 5.07 44.6578 5.9V10.82C44.6578 10.87 44.6378 10.915 44.5978 10.955C44.5678 10.985 44.5278 11 44.4778 11H43.0978C43.0478 11 43.0028 10.985 42.9628 10.955C42.9328 10.915 42.9178 10.87 42.9178 10.82V6.26C42.9178 5.8 42.7878 5.43 42.5278 5.15C42.2678 4.86 41.9228 4.715 41.4928 4.715C41.0628 4.715 40.7128 4.855 40.4428 5.135C40.1828 5.415 40.0528 5.785 40.0528 6.245V10.82C40.0528 10.87 40.0328 10.915 39.9928 10.955C39.9628 10.985 39.9228 11 39.8728 11H38.4928C38.4428 11 38.3978 10.985 38.3578 10.955C38.3278 10.915 38.3128 10.87 38.3128 10.82V3.515C38.3128 3.465 38.3278 3.425 38.3578 3.395C38.3978 3.355 38.4428 3.335 38.4928 3.335H39.8728C39.9228 3.335 39.9628 3.355 39.9928 3.395C40.0328 3.425 40.0528 3.465 40.0528 3.515V3.995C40.0528 4.025 40.0628 4.045 40.0828 4.055C40.1028 4.065 40.1178 4.055 40.1278 4.025C40.5378 3.485 41.1578 3.215 41.9878 3.215ZM49.6549 11C49.6049 11 49.5599 10.985 49.5199 10.955C49.4899 10.915 49.4749 10.87 49.4749 10.82V0.68C49.4749 0.63 49.4899 0.59 49.5199 0.559999C49.5599 0.519999 49.6049 0.499999 49.6549 0.499999H51.0349C51.0849 0.499999 51.1249 0.519999 51.1549 0.559999C51.1949 0.59 51.2149 0.63 51.2149 0.68V10.82C51.2149 10.87 51.1949 10.915 51.1549 10.955C51.1249 10.985 51.0849 11 51.0349 11H49.6549ZM56.3188 11.12C55.5288 11.12 54.8488 10.92 54.2788 10.52C53.7188 10.12 53.3238 9.565 53.0938 8.855C52.9238 8.315 52.8388 7.745 52.8388 7.145C52.8388 6.505 52.9188 5.935 53.0788 5.435C53.3088 4.735 53.7088 4.19 54.2788 3.8C54.8488 3.41 55.5338 3.215 56.3338 3.215C57.0938 3.215 57.7488 3.41 58.2988 3.8C58.8588 4.19 59.2538 4.73 59.4838 5.42C59.6638 5.9 59.7538 6.47 59.7538 7.13C59.7538 7.76 59.6688 8.33 59.4988 8.84C59.2688 9.55 58.8738 10.11 58.3138 10.52C57.7538 10.92 57.0888 11.12 56.3188 11.12ZM56.3188 9.62C56.6888 9.62 57.0038 9.515 57.2638 9.305C57.5338 9.095 57.7288 8.8 57.8488 8.42C57.9488 8.09 57.9988 7.67 57.9988 7.16C57.9988 6.62 57.9488 6.2 57.8488 5.9C57.7388 5.52 57.5488 5.23 57.2788 5.03C57.0088 4.82 56.6788 4.715 56.2888 4.715C55.9188 4.715 55.5988 4.82 55.3288 5.03C55.0588 5.23 54.8638 5.52 54.7438 5.9C54.6438 6.25 54.5938 6.67 54.5938 7.16C54.5938 7.65 54.6438 8.07 54.7438 8.42C54.8538 8.8 55.0438 9.095 55.3138 9.305C55.5938 9.515 55.9288 9.62 56.3188 9.62ZM64.2488 11.09C63.6188 11.09 63.0638 11 62.5838 10.82C62.1138 10.63 61.7488 10.375 61.4888 10.055C61.2288 9.725 61.0988 9.36 61.0988 8.96V8.825C61.0988 8.775 61.1138 8.735 61.1438 8.705C61.1838 8.665 61.2288 8.645 61.2788 8.645H62.5988C62.6488 8.645 62.6888 8.665 62.7188 8.705C62.7588 8.735 62.7788 8.775 62.7788 8.825V8.855C62.7788 9.105 62.9138 9.325 63.1838 9.515C63.4638 9.695 63.8138 9.785 64.2338 9.785C64.6338 9.785 64.9588 9.705 65.2088 9.545C65.4588 9.375 65.5838 9.165 65.5838 8.915C65.5838 8.685 65.4788 8.515 65.2688 8.405C65.0688 8.285 64.7388 8.16 64.2788 8.03L63.7088 7.85C63.1988 7.7 62.7688 7.54 62.4188 7.37C62.0688 7.2 61.7738 6.97 61.5338 6.68C61.2938 6.38 61.1738 6 61.1738 5.54C61.1738 4.84 61.4488 4.285 61.9988 3.875C62.5488 3.455 63.2738 3.245 64.1738 3.245C64.7838 3.245 65.3188 3.345 65.7788 3.545C66.2388 3.735 66.5938 4.005 66.8438 4.355C67.0938 4.695 67.2188 5.085 67.2188 5.525C67.2188 5.575 67.1988 5.62 67.1588 5.66C67.1288 5.69 67.0888 5.705 67.0388 5.705H65.7638C65.7138 5.705 65.6688 5.69 65.6288 5.66C65.5988 5.62 65.5838 5.575 65.5838 5.525C65.5838 5.265 65.4538 5.05 65.1938 4.88C64.9438 4.7 64.5988 4.61 64.1588 4.61C63.7688 4.61 63.4488 4.685 63.1988 4.835C62.9588 4.975 62.8388 5.175 62.8388 5.435C62.8388 5.675 62.9538 5.86 63.1838 5.99C63.4238 6.11 63.8188 6.245 64.3688 6.395L64.6988 6.485C65.2288 6.645 65.6738 6.81 66.0338 6.98C66.3938 7.14 66.6988 7.37 66.9488 7.67C67.1988 7.96 67.3238 8.34 67.3238 8.81C67.3238 9.52 67.0438 10.08 66.4838 10.49C65.9238 10.89 65.1788 11.09 64.2488 11.09ZM78.2941 5.315C78.4741 5.825 78.5641 6.45 78.5641 7.19C78.5641 7.9 78.4791 8.51 78.3091 9.02C78.0891 9.68 77.7341 10.195 77.2441 10.565C76.7641 10.935 76.1541 11.12 75.4141 11.12C74.7041 11.12 74.1341 10.865 73.7041 10.355C73.6841 10.335 73.6641 10.33 73.6441 10.34C73.6241 10.35 73.6141 10.37 73.6141 10.4V13.655C73.6141 13.705 73.5941 13.745 73.5541 13.775C73.5241 13.815 73.4841 13.835 73.4341 13.835H72.0541C72.0041 13.835 71.9591 13.815 71.9191 13.775C71.8891 13.745 71.8741 13.705 71.8741 13.655V3.515C71.8741 3.465 71.8891 3.425 71.9191 3.395C71.9591 3.355 72.0041 3.335 72.0541 3.335H73.4341C73.4841 3.335 73.5241 3.355 73.5541 3.395C73.5941 3.425 73.6141 3.465 73.6141 3.515V3.965C73.6141 3.995 73.6241 4.015 73.6441 4.025C73.6641 4.035 73.6841 4.025 73.7041 3.995C74.1441 3.475 74.7191 3.215 75.4291 3.215C76.1391 3.215 76.7391 3.4 77.2291 3.77C77.7191 4.14 78.0741 4.655 78.2941 5.315ZM76.3441 8.99C76.6441 8.53 76.7941 7.92 76.7941 7.16C76.7941 6.43 76.6741 5.855 76.4341 5.435C76.1541 4.945 75.7291 4.7 75.1591 4.7C74.6391 4.7 74.2491 4.94 73.9891 5.42C73.7591 5.81 73.6441 6.39 73.6441 7.16C73.6441 7.95 73.7691 8.55 74.0191 8.96C74.2791 9.4 74.6541 9.62 75.1441 9.62C75.6741 9.62 76.0741 9.41 76.3441 8.99ZM83.1763 3.215C83.8063 3.215 84.3613 3.325 84.8413 3.545C85.3213 3.765 85.6913 4.07 85.9513 4.46C86.2113 4.84 86.3413 5.275 86.3413 5.765V10.82C86.3413 10.87 86.3213 10.915 86.2813 10.955C86.2513 10.985 86.2113 11 86.1613 11H84.7813C84.7313 11 84.6863 10.985 84.6463 10.955C84.6163 10.915 84.6013 10.87 84.6013 10.82V10.34C84.6013 10.31 84.5913 10.295 84.5713 10.295C84.5513 10.285 84.5313 10.29 84.5113 10.31C84.0213 10.85 83.3113 11.12 82.3813 11.12C81.6313 11.12 81.0113 10.93 80.5213 10.55C80.0413 10.17 79.8013 9.605 79.8013 8.855C79.8013 8.075 80.0713 7.47 80.6113 7.04C81.1613 6.6 81.9313 6.38 82.9213 6.38H84.5263C84.5763 6.38 84.6013 6.355 84.6013 6.305V5.945C84.6013 5.555 84.4863 5.255 84.2563 5.045C84.0263 4.825 83.6813 4.715 83.2213 4.715C82.8413 4.715 82.5313 4.785 82.2913 4.925C82.0613 5.055 81.9163 5.24 81.8563 5.48C81.8263 5.6 81.7563 5.65 81.6463 5.63L80.1913 5.45C80.1413 5.44 80.0963 5.425 80.0563 5.405C80.0263 5.375 80.0163 5.34 80.0263 5.3C80.1063 4.69 80.4313 4.19 81.0013 3.8C81.5813 3.41 82.3063 3.215 83.1763 3.215ZM82.8163 9.74C83.3063 9.74 83.7263 9.61 84.0763 9.35C84.4263 9.09 84.6013 8.76 84.6013 8.36V7.655C84.6013 7.605 84.5763 7.58 84.5263 7.58H83.2663C82.7363 7.58 82.3163 7.68 82.0063 7.88C81.7063 8.08 81.5563 8.365 81.5563 8.735C81.5563 9.055 81.6713 9.305 81.9013 9.485C82.1413 9.655 82.4463 9.74 82.8163 9.74ZM90.9382 11.09C90.3082 11.09 89.7532 11 89.2732 10.82C88.8032 10.63 88.4382 10.375 88.1782 10.055C87.9182 9.725 87.7882 9.36 87.7882 8.96V8.825C87.7882 8.775 87.8032 8.735 87.8332 8.705C87.8732 8.665 87.9182 8.645 87.9682 8.645H89.2882C89.3382 8.645 89.3782 8.665 89.4082 8.705C89.4482 8.735 89.4682 8.775 89.4682 8.825V8.855C89.4682 9.105 89.6032 9.325 89.8732 9.515C90.1532 9.695 90.5032 9.785 90.9232 9.785C91.3232 9.785 91.6482 9.705 91.8982 9.545C92.1482 9.375 92.2732 9.165 92.2732 8.915C92.2732 8.685 92.1682 8.515 91.9582 8.405C91.7582 8.285 91.4282 8.16 90.9682 8.03L90.3982 7.85C89.8882 7.7 89.4582 7.54 89.1082 7.37C88.7582 7.2 88.4632 6.97 88.2232 6.68C87.9832 6.38 87.8632 6 87.8632 5.54C87.8632 4.84 88.1382 4.285 88.6882 3.875C89.2382 3.455 89.9632 3.245 90.8632 3.245C91.4732 3.245 92.0082 3.345 92.4682 3.545C92.9282 3.735 93.2832 4.005 93.5332 4.355C93.7832 4.695 93.9082 5.085 93.9082 5.525C93.9082 5.575 93.8882 5.62 93.8482 5.66C93.8182 5.69 93.7782 5.705 93.7282 5.705H92.4532C92.4032 5.705 92.3582 5.69 92.3182 5.66C92.2882 5.62 92.2732 5.575 92.2732 5.525C92.2732 5.265 92.1432 5.05 91.8832 4.88C91.6332 4.7 91.2882 4.61 90.8482 4.61C90.4582 4.61 90.1382 4.685 89.8882 4.835C89.6482 4.975 89.5282 5.175 89.5282 5.435C89.5282 5.675 89.6432 5.86 89.8732 5.99C90.1132 6.11 90.5082 6.245 91.0582 6.395L91.3882 6.485C91.9182 6.645 92.3632 6.81 92.7232 6.98C93.0832 7.14 93.3882 7.37 93.6382 7.67C93.8882 7.96 94.0132 8.34 94.0132 8.81C94.0132 9.52 93.7332 10.08 93.1732 10.49C92.6132 10.89 91.8682 11.09 90.9382 11.09ZM101.951 6.305C101.991 6.555 102.011 6.835 102.011 7.145L101.996 7.61C101.996 7.73 101.936 7.79 101.816 7.79H97.1207C97.0707 7.79 97.0457 7.815 97.0457 7.865C97.0757 8.195 97.1207 8.42 97.1807 8.54C97.4207 9.26 98.0057 9.625 98.9357 9.635C99.6157 9.635 100.156 9.355 100.556 8.795C100.596 8.735 100.646 8.705 100.706 8.705C100.746 8.705 100.781 8.72 100.811 8.75L101.741 9.515C101.831 9.585 101.846 9.665 101.786 9.755C101.476 10.195 101.061 10.535 100.541 10.775C100.031 11.015 99.4607 11.135 98.8307 11.135C98.0507 11.135 97.3857 10.96 96.8357 10.61C96.2957 10.26 95.9007 9.77 95.6507 9.14C95.4207 8.6 95.3057 7.85 95.3057 6.89C95.3057 6.31 95.3657 5.84 95.4857 5.48C95.6857 4.78 96.0607 4.23 96.6107 3.83C97.1707 3.42 97.8407 3.215 98.6207 3.215C100.591 3.215 101.701 4.245 101.951 6.305ZM98.6207 4.715C98.2507 4.715 97.9407 4.81 97.6907 5C97.4507 5.18 97.2807 5.435 97.1807 5.765C97.1207 5.935 97.0807 6.155 97.0607 6.425C97.0407 6.475 97.0607 6.5 97.1207 6.5H100.166C100.216 6.5 100.241 6.475 100.241 6.425C100.221 6.175 100.191 5.985 100.151 5.855C100.061 5.495 99.8807 5.215 99.6107 5.015C99.3507 4.815 99.0207 4.715 98.6207 4.715ZM106.856 11.12C106.066 11.12 105.386 10.92 104.816 10.52C104.256 10.12 103.861 9.565 103.631 8.855C103.461 8.315 103.376 7.745 103.376 7.145C103.376 6.505 103.456 5.935 103.616 5.435C103.846 4.735 104.246 4.19 104.816 3.8C105.386 3.41 106.071 3.215 106.871 3.215C107.631 3.215 108.286 3.41 108.836 3.8C109.396 4.19 109.791 4.73 110.021 5.42C110.201 5.9 110.291 6.47 110.291 7.13C110.291 7.76 110.206 8.33 110.036 8.84C109.806 9.55 109.411 10.11 108.851 10.52C108.291 10.92 107.626 11.12 106.856 11.12ZM106.856 9.62C107.226 9.62 107.541 9.515 107.801 9.305C108.071 9.095 108.266 8.8 108.386 8.42C108.486 8.09 108.536 7.67 108.536 7.16C108.536 6.62 108.486 6.2 108.386 5.9C108.276 5.52 108.086 5.23 107.816 5.03C107.546 4.82 107.216 4.715 106.826 4.715C106.456 4.715 106.136 4.82 105.866 5.03C105.596 5.23 105.401 5.52 105.281 5.9C105.181 6.25 105.131 6.67 105.131 7.16C105.131 7.65 105.181 8.07 105.281 8.42C105.391 8.8 105.581 9.095 105.851 9.305C106.131 9.515 106.466 9.62 106.856 9.62ZM114.786 11.09C114.156 11.09 113.601 11 113.121 10.82C112.651 10.63 112.286 10.375 112.026 10.055C111.766 9.725 111.636 9.36 111.636 8.96V8.825C111.636 8.775 111.651 8.735 111.681 8.705C111.721 8.665 111.766 8.645 111.816 8.645H113.136C113.186 8.645 113.226 8.665 113.256 8.705C113.296 8.735 113.316 8.775 113.316 8.825V8.855C113.316 9.105 113.451 9.325 113.721 9.515C114.001 9.695 114.351 9.785 114.771 9.785C115.171 9.785 115.496 9.705 115.746 9.545C115.996 9.375 116.121 9.165 116.121 8.915C116.121 8.685 116.016 8.515 115.806 8.405C115.606 8.285 115.276 8.16 114.816 8.03L114.246 7.85C113.736 7.7 113.306 7.54 112.956 7.37C112.606 7.2 112.311 6.97 112.071 6.68C111.831 6.38 111.711 6 111.711 5.54C111.711 4.84 111.986 4.285 112.536 3.875C113.086 3.455 113.811 3.245 114.711 3.245C115.321 3.245 115.856 3.345 116.316 3.545C116.776 3.735 117.131 4.005 117.381 4.355C117.631 4.695 117.756 5.085 117.756 5.525C117.756 5.575 117.736 5.62 117.696 5.66C117.666 5.69 117.626 5.705 117.576 5.705H116.301C116.251 5.705 116.206 5.69 116.166 5.66C116.136 5.62 116.121 5.575 116.121 5.525C116.121 5.265 115.991 5.05 115.731 4.88C115.481 4.7 115.136 4.61 114.696 4.61C114.306 4.61 113.986 4.685 113.736 4.835C113.496 4.975 113.376 5.175 113.376 5.435C113.376 5.675 113.491 5.86 113.721 5.99C113.961 6.11 114.356 6.245 114.906 6.395L115.236 6.485C115.766 6.645 116.211 6.81 116.571 6.98C116.931 7.14 117.236 7.37 117.486 7.67C117.736 7.96 117.861 8.34 117.861 8.81C117.861 9.52 117.581 10.08 117.021 10.49C116.461 10.89 115.716 11.09 114.786 11.09ZM128.801 6.305C128.841 6.555 128.861 6.835 128.861 7.145L128.846 7.61C128.846 7.73 128.786 7.79 128.666 7.79H123.971C123.921 7.79 123.896 7.815 123.896 7.865C123.926 8.195 123.971 8.42 124.031 8.54C124.271 9.26 124.856 9.625 125.786 9.635C126.466 9.635 127.006 9.355 127.406 8.795C127.446 8.735 127.496 8.705 127.556 8.705C127.596 8.705 127.631 8.72 127.661 8.75L128.591 9.515C128.681 9.585 128.696 9.665 128.636 9.755C128.326 10.195 127.911 10.535 127.391 10.775C126.881 11.015 126.311 11.135 125.681 11.135C124.901 11.135 124.236 10.96 123.686 10.61C123.146 10.26 122.751 9.77 122.501 9.14C122.271 8.6 122.156 7.85 122.156 6.89C122.156 6.31 122.216 5.84 122.336 5.48C122.536 4.78 122.911 4.23 123.461 3.83C124.021 3.42 124.691 3.215 125.471 3.215C127.441 3.215 128.551 4.245 128.801 6.305ZM125.471 4.715C125.101 4.715 124.791 4.81 124.541 5C124.301 5.18 124.131 5.435 124.031 5.765C123.971 5.935 123.931 6.155 123.911 6.425C123.891 6.475 123.911 6.5 123.971 6.5H127.016C127.066 6.5 127.091 6.475 127.091 6.425C127.071 6.175 127.041 5.985 127.001 5.855C126.911 5.495 126.731 5.215 126.461 5.015C126.201 4.815 125.871 4.715 125.471 4.715ZM134.126 3.215C134.936 3.215 135.581 3.455 136.061 3.935C136.551 4.415 136.796 5.07 136.796 5.9V10.82C136.796 10.87 136.776 10.915 136.736 10.955C136.706 10.985 136.666 11 136.616 11H135.236C135.186 11 135.141 10.985 135.101 10.955C135.071 10.915 135.056 10.87 135.056 10.82V6.26C135.056 5.8 134.926 5.43 134.666 5.15C134.406 4.86 134.061 4.715 133.631 4.715C133.201 4.715 132.851 4.855 132.581 5.135C132.321 5.415 132.191 5.785 132.191 6.245V10.82C132.191 10.87 132.171 10.915 132.131 10.955C132.101 10.985 132.061 11 132.011 11H130.631C130.581 11 130.536 10.985 130.496 10.955C130.466 10.915 130.451 10.87 130.451 10.82V3.515C130.451 3.465 130.466 3.425 130.496 3.395C130.536 3.355 130.581 3.335 130.631 3.335H132.011C132.061 3.335 132.101 3.355 132.131 3.395C132.171 3.425 132.191 3.465 132.191 3.515V3.995C132.191 4.025 132.201 4.045 132.221 4.055C132.241 4.065 132.256 4.055 132.266 4.025C132.676 3.485 133.296 3.215 134.126 3.215ZM1.11 28C1.06 28 1.015 27.985 0.975 27.955C0.945 27.915 0.93 27.87 0.93 27.82V17.68C0.93 17.63 0.945 17.59 0.975 17.56C1.015 17.52 1.06 17.5 1.11 17.5H2.49C2.54 17.5 2.58 17.52 2.61 17.56C2.65 17.59 2.67 17.63 2.67 17.68V23.095C2.67 23.125 2.68 23.145 2.7 23.155C2.72 23.165 2.74 23.155 2.76 23.125L5.19 20.44C5.26 20.37 5.335 20.335 5.415 20.335H7.005C7.105 20.335 7.155 20.37 7.155 20.44C7.155 20.47 7.14 20.51 7.11 20.56L5.205 22.84C5.175 22.87 5.17 22.905 5.19 22.945L7.44 27.79C7.46 27.83 7.47 27.86 7.47 27.88C7.47 27.96 7.415 28 7.305 28H5.85C5.75 28 5.68 27.955 5.64 27.865L4.005 24.055C3.995 24.035 3.975 24.025 3.945 24.025C3.925 24.015 3.91 24.02 3.9 24.04L2.7 25.42C2.68 25.46 2.67 25.495 2.67 25.525V27.82C2.67 27.87 2.65 27.915 2.61 27.955C2.58 27.985 2.54 28 2.49 28H1.11ZM11.4429 20.215C12.0729 20.215 12.6279 20.325 13.1079 20.545C13.5879 20.765 13.9579 21.07 14.2179 21.46C14.4779 21.84 14.6079 22.275 14.6079 22.765V27.82C14.6079 27.87 14.5879 27.915 14.5479 27.955C14.5179 27.985 14.4779 28 14.4279 28H13.0479C12.9979 28 12.9529 27.985 12.9129 27.955C12.8829 27.915 12.8679 27.87 12.8679 27.82V27.34C12.8679 27.31 12.8579 27.295 12.8379 27.295C12.8179 27.285 12.7979 27.29 12.7779 27.31C12.2879 27.85 11.5779 28.12 10.6479 28.12C9.89789 28.12 9.27789 27.93 8.78789 27.55C8.30789 27.17 8.06789 26.605 8.06789 25.855C8.06789 25.075 8.33789 24.47 8.87789 24.04C9.42789 23.6 10.1979 23.38 11.1879 23.38H12.7929C12.8429 23.38 12.8679 23.355 12.8679 23.305V22.945C12.8679 22.555 12.7529 22.255 12.5229 22.045C12.2929 21.825 11.9479 21.715 11.4879 21.715C11.1079 21.715 10.7979 21.785 10.5579 21.925C10.3279 22.055 10.1829 22.24 10.1229 22.48C10.0929 22.6 10.0229 22.65 9.91289 22.63L8.45789 22.45C8.40789 22.44 8.36289 22.425 8.32289 22.405C8.29289 22.375 8.28289 22.34 8.29289 22.3C8.37289 21.69 8.69789 21.19 9.26789 20.8C9.84789 20.41 10.5729 20.215 11.4429 20.215ZM11.0829 26.74C11.5729 26.74 11.9929 26.61 12.3429 26.35C12.6929 26.09 12.8679 25.76 12.8679 25.36V24.655C12.8679 24.605 12.8429 24.58 12.7929 24.58H11.5329C11.0029 24.58 10.5829 24.68 10.2729 24.88C9.97289 25.08 9.82289 25.365 9.82289 25.735C9.82289 26.055 9.93789 26.305 10.1679 26.485C10.4079 26.655 10.7129 26.74 11.0829 26.74ZM16.0437 30.985C16.0137 30.985 15.9887 30.965 15.9687 30.925C15.9487 30.895 15.9387 30.855 15.9387 30.805V29.725C15.9387 29.675 15.9537 29.63 15.9837 29.59C16.0237 29.56 16.0687 29.545 16.1187 29.545H16.1337C16.5437 29.535 16.8637 29.49 17.0937 29.41C17.3237 29.34 17.5137 29.2 17.6637 28.99C17.8137 28.78 17.9487 28.465 18.0687 28.045C18.0787 28.025 18.0787 27.995 18.0687 27.955L15.5937 20.53C15.5837 20.51 15.5787 20.485 15.5787 20.455C15.5787 20.365 15.6287 20.32 15.7287 20.32H17.1987C17.3087 20.32 17.3787 20.37 17.4087 20.47L18.9087 25.75C18.9187 25.78 18.9337 25.795 18.9537 25.795C18.9737 25.795 18.9887 25.78 18.9987 25.75L20.4987 20.47C20.5287 20.37 20.5987 20.32 20.7087 20.32H22.1337C22.1937 20.32 22.2337 20.34 22.2537 20.38C22.2837 20.41 22.2887 20.46 22.2687 20.53L19.6287 28.42C19.3787 29.13 19.1337 29.66 18.8937 30.01C18.6537 30.36 18.3237 30.61 17.9037 30.76C17.4937 30.91 16.9087 30.985 16.1487 30.985H16.0437ZM26.1206 20.215C26.7506 20.215 27.3056 20.325 27.7856 20.545C28.2656 20.765 28.6356 21.07 28.8956 21.46C29.1556 21.84 29.2856 22.275 29.2856 22.765V27.82C29.2856 27.87 29.2656 27.915 29.2256 27.955C29.1956 27.985 29.1556 28 29.1056 28H27.7256C27.6756 28 27.6306 27.985 27.5906 27.955C27.5606 27.915 27.5456 27.87 27.5456 27.82V27.34C27.5456 27.31 27.5356 27.295 27.5156 27.295C27.4956 27.285 27.4756 27.29 27.4556 27.31C26.9656 27.85 26.2556 28.12 25.3256 28.12C24.5756 28.12 23.9556 27.93 23.4656 27.55C22.9856 27.17 22.7456 26.605 22.7456 25.855C22.7456 25.075 23.0156 24.47 23.5556 24.04C24.1056 23.6 24.8756 23.38 25.8656 23.38H27.4706C27.5206 23.38 27.5456 23.355 27.5456 23.305V22.945C27.5456 22.555 27.4306 22.255 27.2006 22.045C26.9706 21.825 26.6256 21.715 26.1656 21.715C25.7856 21.715 25.4756 21.785 25.2356 21.925C25.0056 22.055 24.8606 22.24 24.8006 22.48C24.7706 22.6 24.7006 22.65 24.5906 22.63L23.1356 22.45C23.0856 22.44 23.0406 22.425 23.0006 22.405C22.9706 22.375 22.9606 22.34 22.9706 22.3C23.0506 21.69 23.3756 21.19 23.9456 20.8C24.5256 20.41 25.2506 20.215 26.1206 20.215ZM25.7606 26.74C26.2506 26.74 26.6706 26.61 27.0206 26.35C27.3706 26.09 27.5456 25.76 27.5456 25.36V24.655C27.5456 24.605 27.5206 24.58 27.4706 24.58H26.2106C25.6806 24.58 25.2606 24.68 24.9506 24.88C24.6506 25.08 24.5006 25.365 24.5006 25.735C24.5006 26.055 24.6156 26.305 24.8456 26.485C25.0856 26.655 25.3906 26.74 25.7606 26.74ZM31.2125 28C31.1625 28 31.1175 27.985 31.0775 27.955C31.0475 27.915 31.0325 27.87 31.0325 27.82V17.68C31.0325 17.63 31.0475 17.59 31.0775 17.56C31.1175 17.52 31.1625 17.5 31.2125 17.5H32.5925C32.6425 17.5 32.6825 17.52 32.7125 17.56C32.7525 17.59 32.7725 17.63 32.7725 17.68V23.095C32.7725 23.125 32.7825 23.145 32.8025 23.155C32.8225 23.165 32.8425 23.155 32.8625 23.125L35.2925 20.44C35.3625 20.37 35.4375 20.335 35.5175 20.335H37.1075C37.2075 20.335 37.2575 20.37 37.2575 20.44C37.2575 20.47 37.2425 20.51 37.2125 20.56L35.3075 22.84C35.2775 22.87 35.2725 22.905 35.2925 22.945L37.5425 27.79C37.5625 27.83 37.5725 27.86 37.5725 27.88C37.5725 27.96 37.5175 28 37.4075 28H35.9525C35.8525 28 35.7825 27.955 35.7425 27.865L34.1075 24.055C34.0975 24.035 34.0775 24.025 34.0475 24.025C34.0275 24.015 34.0125 24.02 34.0025 24.04L32.8025 25.42C32.7825 25.46 32.7725 25.495 32.7725 25.525V27.82C32.7725 27.87 32.7525 27.915 32.7125 27.955C32.6825 27.985 32.6425 28 32.5925 28H31.2125ZM48.3374 23.305C48.3774 23.555 48.3974 23.835 48.3974 24.145L48.3824 24.61C48.3824 24.73 48.3224 24.79 48.2024 24.79H43.5074C43.4574 24.79 43.4324 24.815 43.4324 24.865C43.4624 25.195 43.5074 25.42 43.5674 25.54C43.8074 26.26 44.3924 26.625 45.3224 26.635C46.0024 26.635 46.5424 26.355 46.9424 25.795C46.9824 25.735 47.0324 25.705 47.0924 25.705C47.1324 25.705 47.1674 25.72 47.1974 25.75L48.1274 26.515C48.2174 26.585 48.2324 26.665 48.1724 26.755C47.8624 27.195 47.4474 27.535 46.9274 27.775C46.4174 28.015 45.8474 28.135 45.2174 28.135C44.4374 28.135 43.7724 27.96 43.2224 27.61C42.6824 27.26 42.2874 26.77 42.0374 26.14C41.8074 25.6 41.6924 24.85 41.6924 23.89C41.6924 23.31 41.7524 22.84 41.8724 22.48C42.0724 21.78 42.4474 21.23 42.9974 20.83C43.5574 20.42 44.2274 20.215 45.0074 20.215C46.9774 20.215 48.0874 21.245 48.3374 23.305ZM45.0074 21.715C44.6374 21.715 44.3274 21.81 44.0774 22C43.8374 22.18 43.6674 22.435 43.5674 22.765C43.5074 22.935 43.4674 23.155 43.4474 23.425C43.4274 23.475 43.4474 23.5 43.5074 23.5H46.5524C46.6024 23.5 46.6274 23.475 46.6274 23.425C46.6074 23.175 46.5774 22.985 46.5374 22.855C46.4474 22.495 46.2674 22.215 45.9974 22.015C45.7374 21.815 45.4074 21.715 45.0074 21.715ZM53.6626 20.215C54.4726 20.215 55.1176 20.455 55.5976 20.935C56.0876 21.415 56.3326 22.07 56.3326 22.9V27.82C56.3326 27.87 56.3126 27.915 56.2726 27.955C56.2426 27.985 56.2026 28 56.1526 28H54.7726C54.7226 28 54.6776 27.985 54.6376 27.955C54.6076 27.915 54.5926 27.87 54.5926 27.82V23.26C54.5926 22.8 54.4626 22.43 54.2026 22.15C53.9426 21.86 53.5976 21.715 53.1676 21.715C52.7376 21.715 52.3876 21.855 52.1176 22.135C51.8576 22.415 51.7276 22.785 51.7276 23.245V27.82C51.7276 27.87 51.7076 27.915 51.6676 27.955C51.6376 27.985 51.5976 28 51.5476 28H50.1676C50.1176 28 50.0726 27.985 50.0326 27.955C50.0026 27.915 49.9876 27.87 49.9876 27.82V20.515C49.9876 20.465 50.0026 20.425 50.0326 20.395C50.0726 20.355 50.1176 20.335 50.1676 20.335H51.5476C51.5976 20.335 51.6376 20.355 51.6676 20.395C51.7076 20.425 51.7276 20.465 51.7276 20.515V20.995C51.7276 21.025 51.7376 21.045 51.7576 21.055C51.7776 21.065 51.7926 21.055 51.8026 21.025C52.2126 20.485 52.8326 20.215 53.6626 20.215ZM60.8797 28C60.8097 28 60.7597 27.985 60.7297 27.955C60.7097 27.915 60.7197 27.86 60.7597 27.79L63.7447 22.795C63.7647 22.765 63.7647 22.735 63.7447 22.705L60.7597 17.71C60.7397 17.65 60.7297 17.615 60.7297 17.605C60.7297 17.535 60.7797 17.5 60.8797 17.5H62.3797C62.4897 17.5 62.5647 17.54 62.6047 17.62L64.7947 21.34C64.8247 21.4 64.8547 21.4 64.8847 21.34L67.0897 17.62C67.1297 17.54 67.1997 17.5 67.2997 17.5H68.7997C68.8697 17.5 68.9147 17.52 68.9347 17.56C68.9647 17.59 68.9597 17.64 68.9197 17.71L65.9347 22.705C65.9247 22.735 65.9247 22.765 65.9347 22.795L68.9197 27.79C68.9397 27.85 68.9497 27.885 68.9497 27.895C68.9497 27.965 68.8997 28 68.7997 28H67.2997C67.1997 28 67.1297 27.96 67.0897 27.88L64.8847 24.175C64.8547 24.115 64.8247 24.115 64.7947 24.175L62.5897 27.88C62.5497 27.96 62.4797 28 62.3797 28H60.8797ZM73.2084 28.12C72.4184 28.12 71.7384 27.92 71.1684 27.52C70.6084 27.12 70.2134 26.565 69.9834 25.855C69.8134 25.315 69.7284 24.745 69.7284 24.145C69.7284 23.505 69.8084 22.935 69.9684 22.435C70.1984 21.735 70.5984 21.19 71.1684 20.8C71.7384 20.41 72.4234 20.215 73.2234 20.215C73.9834 20.215 74.6384 20.41 75.1884 20.8C75.7484 21.19 76.1434 21.73 76.3734 22.42C76.5534 22.9 76.6434 23.47 76.6434 24.13C76.6434 24.76 76.5584 25.33 76.3884 25.84C76.1584 26.55 75.7634 27.11 75.2034 27.52C74.6434 27.92 73.9784 28.12 73.2084 28.12ZM73.2084 26.62C73.5784 26.62 73.8934 26.515 74.1534 26.305C74.4234 26.095 74.6184 25.8 74.7384 25.42C74.8384 25.09 74.8884 24.67 74.8884 24.16C74.8884 23.62 74.8384 23.2 74.7384 22.9C74.6284 22.52 74.4384 22.23 74.1684 22.03C73.8984 21.82 73.5684 21.715 73.1784 21.715C72.8084 21.715 72.4884 21.82 72.2184 22.03C71.9484 22.23 71.7534 22.52 71.6334 22.9C71.5334 23.25 71.4834 23.67 71.4834 24.16C71.4834 24.65 71.5334 25.07 71.6334 25.42C71.7434 25.8 71.9334 26.095 72.2034 26.305C72.4834 26.515 72.8184 26.62 73.2084 26.62ZM81.4834 28.12C80.7134 28.12 80.0484 27.925 79.4884 27.535C78.9284 27.135 78.5384 26.6 78.3184 25.93C78.1584 25.48 78.0784 24.88 78.0784 24.13C78.0784 23.41 78.1584 22.82 78.3184 22.36C78.5284 21.7 78.9134 21.18 79.4734 20.8C80.0434 20.41 80.7134 20.215 81.4834 20.215C82.2634 20.215 82.9434 20.41 83.5234 20.8C84.1034 21.19 84.4884 21.68 84.6784 22.27C84.7284 22.43 84.7634 22.59 84.7834 22.75V22.78C84.7834 22.88 84.7284 22.94 84.6184 22.96L83.2684 23.155H83.2384C83.1484 23.155 83.0884 23.105 83.0584 23.005C83.0584 22.955 83.0534 22.915 83.0434 22.885C83.0234 22.805 83.0034 22.735 82.9834 22.675C82.8934 22.395 82.7134 22.165 82.4434 21.985C82.1734 21.805 81.8534 21.715 81.4834 21.715C81.1034 21.715 80.7784 21.815 80.5084 22.015C80.2484 22.205 80.0734 22.47 79.9834 22.81C79.8834 23.13 79.8334 23.575 79.8334 24.145C79.8334 24.695 79.8784 25.14 79.9684 25.48C80.0684 25.83 80.2484 26.11 80.5084 26.32C80.7684 26.52 81.0934 26.62 81.4834 26.62C81.8634 26.62 82.1884 26.525 82.4584 26.335C82.7384 26.135 82.9184 25.87 82.9984 25.54C83.0084 25.52 83.0134 25.495 83.0134 25.465C83.0234 25.455 83.0284 25.44 83.0284 25.42C83.0584 25.3 83.1284 25.25 83.2384 25.27L84.5884 25.48C84.6384 25.49 84.6784 25.515 84.7084 25.555C84.7484 25.585 84.7634 25.63 84.7534 25.69C84.7234 25.85 84.6984 25.965 84.6784 26.035C84.4884 26.675 84.1034 27.185 83.5234 27.565C82.9434 27.935 82.2634 28.12 81.4834 28.12ZM89.9321 20.215C90.7421 20.215 91.3871 20.455 91.8671 20.935C92.3571 21.415 92.6021 22.07 92.6021 22.9V27.82C92.6021 27.87 92.5821 27.915 92.5421 27.955C92.5121 27.985 92.4721 28 92.4221 28H91.0421C90.9921 28 90.9471 27.985 90.9071 27.955C90.8771 27.915 90.8621 27.87 90.8621 27.82V23.26C90.8621 22.8 90.7321 22.43 90.4721 22.15C90.2121 21.86 89.8671 21.715 89.4371 21.715C89.0071 21.715 88.6571 21.855 88.3871 22.135C88.1271 22.415 87.9971 22.785 87.9971 23.245V27.82C87.9971 27.87 87.9771 27.915 87.9371 27.955C87.9071 27.985 87.8671 28 87.8171 28H86.4371C86.3871 28 86.3421 27.985 86.3021 27.955C86.2721 27.915 86.2571 27.87 86.2571 27.82V17.68C86.2571 17.63 86.2721 17.59 86.3021 17.56C86.3421 17.52 86.3871 17.5 86.4371 17.5H87.8171C87.8671 17.5 87.9071 17.52 87.9371 17.56C87.9771 17.59 87.9971 17.63 87.9971 17.68V20.995C87.9971 21.025 88.0071 21.045 88.0271 21.055C88.0471 21.065 88.0621 21.055 88.0721 21.025C88.4821 20.485 89.1021 20.215 89.9321 20.215ZM95.4063 19.285C95.0963 19.285 94.8413 19.185 94.6413 18.985C94.4413 18.785 94.3413 18.53 94.3413 18.22C94.3413 17.91 94.4413 17.655 94.6413 17.455C94.8413 17.255 95.0963 17.155 95.4063 17.155C95.7163 17.155 95.9713 17.255 96.1713 17.455C96.3713 17.655 96.4713 17.91 96.4713 18.22C96.4713 18.53 96.3713 18.785 96.1713 18.985C95.9713 19.185 95.7163 19.285 95.4063 19.285ZM94.6863 28C94.6363 28 94.5913 27.985 94.5513 27.955C94.5213 27.915 94.5063 27.87 94.5063 27.82V20.5C94.5063 20.45 94.5213 20.41 94.5513 20.38C94.5913 20.34 94.6363 20.32 94.6863 20.32H96.0663C96.1163 20.32 96.1563 20.34 96.1863 20.38C96.2263 20.41 96.2463 20.45 96.2463 20.5V27.82C96.2463 27.87 96.2263 27.915 96.1863 27.955C96.1563 27.985 96.1163 28 96.0663 28H94.6863ZM106.445 20.215C107.215 20.215 107.815 20.45 108.245 20.92C108.685 21.38 108.905 22.025 108.905 22.855V27.82C108.905 27.87 108.885 27.915 108.845 27.955C108.815 27.985 108.775 28 108.725 28H107.36C107.31 28 107.265 27.985 107.225 27.955C107.195 27.915 107.18 27.87 107.18 27.82V23.215C107.18 22.755 107.055 22.39 106.805 22.12C106.565 21.85 106.24 21.715 105.83 21.715C105.42 21.715 105.085 21.85 104.825 22.12C104.565 22.39 104.435 22.75 104.435 23.2V27.82C104.435 27.87 104.415 27.915 104.375 27.955C104.345 27.985 104.305 28 104.255 28H102.89C102.84 28 102.795 27.985 102.755 27.955C102.725 27.915 102.71 27.87 102.71 27.82V23.215C102.71 22.755 102.585 22.39 102.335 22.12C102.085 21.85 101.755 21.715 101.345 21.715C100.965 21.715 100.65 21.825 100.4 22.045C100.16 22.265 100.02 22.565 99.9796 22.945V27.82C99.9796 27.87 99.9596 27.915 99.9196 27.955C99.8896 27.985 99.8496 28 99.7996 28H98.4196C98.3696 28 98.3246 27.985 98.2846 27.955C98.2546 27.915 98.2396 27.87 98.2396 27.82V20.515C98.2396 20.465 98.2546 20.425 98.2846 20.395C98.3246 20.355 98.3696 20.335 98.4196 20.335H99.7996C99.8496 20.335 99.8896 20.355 99.9196 20.395C99.9596 20.425 99.9796 20.465 99.9796 20.515V21.01C99.9796 21.04 99.9896 21.06 100.01 21.07C100.03 21.08 100.05 21.07 100.07 21.04C100.29 20.76 100.56 20.555 100.88 20.425C101.21 20.285 101.575 20.215 101.975 20.215C102.465 20.215 102.895 20.315 103.265 20.515C103.635 20.715 103.92 21.005 104.12 21.385C104.15 21.425 104.185 21.425 104.225 21.385C104.445 20.985 104.75 20.69 105.14 20.5C105.53 20.31 105.965 20.215 106.445 20.215ZM111.666 19.285C111.356 19.285 111.101 19.185 110.901 18.985C110.701 18.785 110.601 18.53 110.601 18.22C110.601 17.91 110.701 17.655 110.901 17.455C111.101 17.255 111.356 17.155 111.666 17.155C111.976 17.155 112.231 17.255 112.431 17.455C112.631 17.655 112.731 17.91 112.731 18.22C112.731 18.53 112.631 18.785 112.431 18.985C112.231 19.185 111.976 19.285 111.666 19.285ZM110.946 28C110.896 28 110.851 27.985 110.811 27.955C110.781 27.915 110.766 27.87 110.766 27.82V20.5C110.766 20.45 110.781 20.41 110.811 20.38C110.851 20.34 110.896 20.32 110.946 20.32H112.326C112.376 20.32 112.416 20.34 112.446 20.38C112.486 20.41 112.506 20.45 112.506 20.5V27.82C112.506 27.87 112.486 27.915 112.446 27.955C112.416 27.985 112.376 28 112.326 28H110.946ZM114.679 28C114.629 28 114.584 27.985 114.544 27.955C114.514 27.915 114.499 27.87 114.499 27.82V17.68C114.499 17.63 114.514 17.59 114.544 17.56C114.584 17.52 114.629 17.5 114.679 17.5H116.059C116.109 17.5 116.149 17.52 116.179 17.56C116.219 17.59 116.239 17.63 116.239 17.68V27.82C116.239 27.87 116.219 27.915 116.179 27.955C116.149 27.985 116.109 28 116.059 28H114.679ZM121.283 28.12C120.513 28.12 119.848 27.925 119.288 27.535C118.728 27.135 118.338 26.6 118.118 25.93C117.958 25.48 117.878 24.88 117.878 24.13C117.878 23.41 117.958 22.82 118.118 22.36C118.328 21.7 118.713 21.18 119.273 20.8C119.843 20.41 120.513 20.215 121.283 20.215C122.063 20.215 122.743 20.41 123.323 20.8C123.903 21.19 124.288 21.68 124.478 22.27C124.528 22.43 124.563 22.59 124.583 22.75V22.78C124.583 22.88 124.528 22.94 124.418 22.96L123.068 23.155H123.038C122.948 23.155 122.888 23.105 122.858 23.005C122.858 22.955 122.853 22.915 122.843 22.885C122.823 22.805 122.803 22.735 122.783 22.675C122.693 22.395 122.513 22.165 122.243 21.985C121.973 21.805 121.653 21.715 121.283 21.715C120.903 21.715 120.578 21.815 120.308 22.015C120.048 22.205 119.873 22.47 119.783 22.81C119.683 23.13 119.633 23.575 119.633 24.145C119.633 24.695 119.678 25.14 119.768 25.48C119.868 25.83 120.048 26.11 120.308 26.32C120.568 26.52 120.893 26.62 121.283 26.62C121.663 26.62 121.988 26.525 122.258 26.335C122.538 26.135 122.718 25.87 122.798 25.54C122.808 25.52 122.813 25.495 122.813 25.465C122.823 25.455 122.828 25.44 122.828 25.42C122.858 25.3 122.928 25.25 123.038 25.27L124.388 25.48C124.438 25.49 124.478 25.515 124.508 25.555C124.548 25.585 124.563 25.63 124.553 25.69C124.523 25.85 124.498 25.965 124.478 26.035C124.288 26.675 123.903 27.185 123.323 27.565C122.743 27.935 122.063 28.12 121.283 28.12ZM129.239 28.12C128.449 28.12 127.769 27.92 127.199 27.52C126.639 27.12 126.244 26.565 126.014 25.855C125.844 25.315 125.759 24.745 125.759 24.145C125.759 23.505 125.839 22.935 125.999 22.435C126.229 21.735 126.629 21.19 127.199 20.8C127.769 20.41 128.454 20.215 129.254 20.215C130.014 20.215 130.669 20.41 131.219 20.8C131.779 21.19 132.174 21.73 132.404 22.42C132.584 22.9 132.674 23.47 132.674 24.13C132.674 24.76 132.589 25.33 132.419 25.84C132.189 26.55 131.794 27.11 131.234 27.52C130.674 27.92 130.009 28.12 129.239 28.12ZM129.239 26.62C129.609 26.62 129.924 26.515 130.184 26.305C130.454 26.095 130.649 25.8 130.769 25.42C130.869 25.09 130.919 24.67 130.919 24.16C130.919 23.62 130.869 23.2 130.769 22.9C130.659 22.52 130.469 22.23 130.199 22.03C129.929 21.82 129.599 21.715 129.209 21.715C128.839 21.715 128.519 21.82 128.249 22.03C127.979 22.23 127.784 22.52 127.664 22.9C127.564 23.25 127.514 23.67 127.514 24.16C127.514 24.65 127.564 25.07 127.664 25.42C127.774 25.8 127.964 26.095 128.234 26.305C128.514 26.515 128.849 26.62 129.239 26.62ZM6.825 35.91C7.725 35.91 8.52 36.095 9.21 36.465C9.91 36.835 10.45 37.35 10.83 38.01C11.21 38.67 11.4 39.42 11.4 40.26C11.4 40.42 11.38 40.68 11.34 41.04C11.22 41.93 10.935 42.63 10.485 43.14C10.045 43.64 9.5 43.89 8.85 43.89C8.5 43.89 8.195 43.82 7.935 43.68C7.675 43.53 7.48 43.32 7.35 43.05C7.33 43 7.305 43 7.275 43.05C7.105 43.32 6.875 43.53 6.585 43.68C6.305 43.82 5.99 43.89 5.64 43.89C5.12 43.89 4.695 43.76 4.365 43.5C4.045 43.23 3.86 42.885 3.81 42.465C3.8 42.405 3.795 42.305 3.795 42.165C3.795 41.895 3.825 41.56 3.885 41.16C3.945 40.58 4.035 40.14 4.155 39.84C4.305 39.41 4.56 39.07 4.92 38.82C5.29 38.56 5.705 38.43 6.165 38.43C6.755 38.43 7.2 38.63 7.5 39.03C7.52 39.05 7.535 39.06 7.545 39.06C7.565 39.06 7.575 39.045 7.575 39.015L7.62 38.64C7.63 38.55 7.68 38.505 7.77 38.505H8.085C8.135 38.505 8.175 38.525 8.205 38.565C8.235 38.595 8.245 38.63 8.235 38.67L7.815 41.88C7.805 41.93 7.8 42.005 7.8 42.105C7.8 42.465 7.9 42.76 8.1 42.99C8.31 43.22 8.585 43.335 8.925 43.335C9.365 43.335 9.745 43.135 10.065 42.735C10.385 42.335 10.6 41.78 10.71 41.07C10.75 40.83 10.77 40.57 10.77 40.29C10.77 39.52 10.6 38.85 10.26 38.28C9.92 37.7 9.445 37.255 8.835 36.945C8.225 36.635 7.535 36.48 6.765 36.48C5.915 36.48 5.1 36.675 4.32 37.065C3.54 37.445 2.9 38.025 2.4 38.805C1.91 39.585 1.665 40.535 1.665 41.655C1.665 42.455 1.815 43.17 2.115 43.8C2.415 44.43 2.86 44.925 3.45 45.285C4.04 45.645 4.745 45.825 5.565 45.825C6.065 45.825 6.55 45.765 7.02 45.645C7.5 45.525 7.865 45.38 8.115 45.21C8.145 45.19 8.18 45.18 8.22 45.18C8.26 45.18 8.295 45.2 8.325 45.24L8.475 45.42C8.495 45.44 8.505 45.47 8.505 45.51C8.505 45.56 8.485 45.6 8.445 45.63C8.135 45.87 7.705 46.06 7.155 46.2C6.605 46.34 6.05 46.41 5.49 46.41C4.57 46.41 3.775 46.2 3.105 45.78C2.435 45.37 1.925 44.8 1.575 44.07C1.225 43.34 1.05 42.505 1.05 41.565C1.05 40.375 1.33 39.355 1.89 38.505C2.45 37.645 3.17 37 4.05 36.57C4.94 36.13 5.865 35.91 6.825 35.91ZM5.67 43.335C6.01 43.335 6.305 43.235 6.555 43.035C6.815 42.825 6.995 42.565 7.095 42.255C7.155 42.105 7.2 41.9 7.23 41.64L7.335 40.815C7.365 40.575 7.38 40.315 7.38 40.035C7.37 39.725 7.26 39.47 7.05 39.27C6.84 39.07 6.56 38.97 6.21 38.97C5.86 38.97 5.55 39.07 5.28 39.27C5.02 39.47 4.83 39.72 4.71 40.02C4.66 40.13 4.62 40.26 4.59 40.41C4.56 40.55 4.525 40.8 4.485 41.16C4.425 41.7 4.4 42.065 4.41 42.255C4.43 42.575 4.55 42.835 4.77 43.035C5 43.235 5.3 43.335 5.67 43.335ZM23.0741 34.5C23.1741 34.5 23.2241 34.55 23.2241 34.65V35.055C23.2241 35.155 23.1741 35.205 23.0741 35.205H20.0741C20.0341 35.205 20.0141 35.225 20.0141 35.265V44.85C20.0141 44.95 19.9641 45 19.8641 45H19.3691C19.2691 45 19.2191 44.95 19.2191 44.85V35.265C19.2191 35.225 19.1991 35.205 19.1591 35.205H16.3091C16.2091 35.205 16.1591 35.155 16.1591 35.055V34.65C16.1591 34.55 16.2091 34.5 16.3091 34.5H23.0741ZM25.6212 35.925C25.4012 35.925 25.2212 35.855 25.0812 35.715C24.9412 35.575 24.8712 35.395 24.8712 35.175C24.8712 34.955 24.9412 34.775 25.0812 34.635C25.2212 34.495 25.4012 34.425 25.6212 34.425C25.8412 34.425 26.0212 34.495 26.1612 34.635C26.3012 34.775 26.3712 34.955 26.3712 35.175C26.3712 35.395 26.3012 35.575 26.1612 35.715C26.0212 35.855 25.8412 35.925 25.6212 35.925ZM25.3362 44.985C25.2362 44.985 25.1862 44.935 25.1862 44.835V37.575C25.1862 37.475 25.2362 37.425 25.3362 37.425H25.8312C25.9312 37.425 25.9812 37.475 25.9812 37.575V44.835C25.9812 44.935 25.9312 44.985 25.8312 44.985H25.3362ZM36.3441 37.335C37.0741 37.335 37.6591 37.555 38.0991 37.995C38.5391 38.435 38.7591 39.04 38.7591 39.81V44.85C38.7591 44.95 38.7091 45 38.6091 45H38.1291C38.0291 45 37.9791 44.95 37.9791 44.85V39.96C37.9791 39.37 37.8041 38.905 37.4541 38.565C37.1141 38.215 36.6691 38.04 36.1191 38.04C35.5391 38.04 35.0691 38.21 34.7091 38.55C34.3591 38.89 34.1841 39.35 34.1841 39.93V44.85C34.1841 44.95 34.1341 45 34.0341 45H33.5541C33.4541 45 33.4041 44.95 33.4041 44.85V39.96C33.4041 39.37 33.2341 38.905 32.8941 38.565C32.5541 38.215 32.1091 38.04 31.5591 38.04C30.9691 38.04 30.4991 38.21 30.1491 38.55C29.8091 38.89 29.6391 39.35 29.6391 39.93V44.85C29.6391 44.95 29.5891 45 29.4891 45H28.9941C28.8941 45 28.8441 44.95 28.8441 44.85V37.59C28.8441 37.49 28.8941 37.44 28.9941 37.44H29.4891C29.5891 37.44 29.6391 37.49 29.6391 37.59V38.265C29.6391 38.285 29.6491 38.3 29.6691 38.31C29.6891 38.32 29.7041 38.315 29.7141 38.295C29.9241 37.975 30.2041 37.735 30.5541 37.575C30.9141 37.415 31.3191 37.335 31.7691 37.335C32.2891 37.335 32.7341 37.45 33.1041 37.68C33.4841 37.9 33.7691 38.215 33.9591 38.625C33.9791 38.665 34.0041 38.67 34.0341 38.64C34.2441 38.21 34.5491 37.885 34.9491 37.665C35.3491 37.445 35.8141 37.335 36.3441 37.335ZM43.9541 44.415C44.4241 44.415 44.8241 44.31 45.1541 44.1C45.4941 43.88 45.7591 43.58 45.9491 43.2C45.9991 43.11 46.0641 43.085 46.1441 43.125L46.5341 43.32C46.6241 43.37 46.6491 43.435 46.6091 43.515C46.3891 44.005 46.0391 44.395 45.5591 44.685C45.0891 44.975 44.5341 45.12 43.8941 45.12C43.1941 45.12 42.5991 44.95 42.1091 44.61C41.6191 44.27 41.2841 43.805 41.1041 43.215C41.0241 42.965 40.9691 42.685 40.9391 42.375C40.9091 42.065 40.8941 41.675 40.8941 41.205C40.8941 40.715 40.8991 40.345 40.9091 40.095C40.9291 39.845 40.9641 39.615 41.0141 39.405C41.1741 38.775 41.4991 38.27 41.9891 37.89C42.4891 37.51 43.0991 37.32 43.8191 37.32C44.6391 37.32 45.2941 37.535 45.7841 37.965C46.2741 38.385 46.5791 38.97 46.6991 39.72C46.7291 39.91 46.7491 40.135 46.7591 40.395C46.7691 40.645 46.7741 40.96 46.7741 41.34C46.7741 41.44 46.7241 41.49 46.6241 41.49H41.7341C41.6941 41.49 41.6741 41.51 41.6741 41.55C41.6741 42.19 41.6991 42.615 41.7491 42.825C41.8591 43.315 42.1041 43.705 42.4841 43.995C42.8741 44.275 43.3641 44.415 43.9541 44.415ZM41.7791 39.585C41.7291 39.775 41.6941 40.165 41.6741 40.755C41.6741 40.795 41.6941 40.815 41.7341 40.815H45.9191C45.9591 40.815 45.9791 40.795 45.9791 40.755C45.9791 40.255 45.9541 39.88 45.9041 39.63C45.7941 39.15 45.5541 38.765 45.1841 38.475C44.8141 38.175 44.3591 38.025 43.8191 38.025C43.2791 38.025 42.8291 38.17 42.4691 38.46C42.1091 38.74 41.8791 39.115 41.7791 39.585ZM52.4332 45.12C51.7432 45.12 51.1332 44.98 50.6032 44.7C50.0832 44.41 49.6782 44.01 49.3882 43.5C49.1082 42.98 48.9682 42.385 48.9682 41.715V37.785C48.9682 37.115 49.1082 36.525 49.3882 36.015C49.6782 35.495 50.0832 35.095 50.6032 34.815C51.1332 34.525 51.7432 34.38 52.4332 34.38C53.1232 34.38 53.7332 34.525 54.2632 34.815C54.7932 35.095 55.2032 35.495 55.4932 36.015C55.7832 36.525 55.9282 37.115 55.9282 37.785V41.715C55.9282 42.385 55.7832 42.98 55.4932 43.5C55.2032 44.01 54.7932 44.41 54.2632 44.7C53.7332 44.98 53.1232 45.12 52.4332 45.12ZM52.4332 44.43C53.2432 44.43 53.8932 44.185 54.3832 43.695C54.8832 43.205 55.1332 42.555 55.1332 41.745V37.77C55.1332 36.97 54.8832 36.325 54.3832 35.835C53.8932 35.335 53.2432 35.085 52.4332 35.085C51.6332 35.085 50.9882 35.335 50.4982 35.835C50.0082 36.325 49.7632 36.97 49.7632 37.77V41.745C49.7632 42.555 50.0082 43.205 50.4982 43.695C50.9882 44.185 51.6332 44.43 52.4332 44.43ZM63.0543 37.59C63.0543 37.49 63.1043 37.44 63.2043 37.44H63.6843C63.7843 37.44 63.8343 37.49 63.8343 37.59V44.85C63.8343 44.95 63.7843 45 63.6843 45H63.2043C63.1043 45 63.0543 44.95 63.0543 44.85V44.115C63.0543 44.085 63.0443 44.07 63.0243 44.07C63.0043 44.06 62.9893 44.07 62.9793 44.1C62.7693 44.43 62.4843 44.68 62.1243 44.85C61.7743 45.02 61.3593 45.105 60.8793 45.105C60.1393 45.105 59.5243 44.885 59.0343 44.445C58.5443 44.005 58.2993 43.4 58.2993 42.63V37.59C58.2993 37.49 58.3493 37.44 58.4493 37.44H58.9293C59.0293 37.44 59.0793 37.49 59.0793 37.59V42.42C59.0793 43.02 59.2543 43.5 59.6043 43.86C59.9643 44.22 60.4393 44.4 61.0293 44.4C61.6393 44.4 62.1293 44.22 62.4993 43.86C62.8693 43.49 63.0543 43.01 63.0543 42.42V37.59ZM69.5966 37.965C69.5966 38.065 69.5466 38.115 69.4466 38.115H67.6916C67.6516 38.115 67.6316 38.135 67.6316 38.175V42.915C67.6316 43.425 67.7466 43.785 67.9766 43.995C68.2066 44.195 68.5766 44.295 69.0866 44.295H69.4316C69.5316 44.295 69.5816 44.345 69.5816 44.445V44.85C69.5816 44.95 69.5316 45 69.4316 45L68.9816 45.015C68.2816 45.015 67.7516 44.88 67.3916 44.61C67.0416 44.34 66.8616 43.845 66.8516 43.125V38.175C66.8516 38.135 66.8316 38.115 66.7916 38.115H65.8916C65.7916 38.115 65.7416 38.065 65.7416 37.965V37.59C65.7416 37.49 65.7916 37.44 65.8916 37.44H66.7916C66.8316 37.44 66.8516 37.42 66.8516 37.38V35.67C66.8516 35.57 66.9016 35.52 67.0016 35.52H67.4816C67.5816 35.52 67.6316 35.57 67.6316 35.67V37.38C67.6316 37.42 67.6516 37.44 67.6916 37.44H69.4466C69.5466 37.44 69.5966 37.49 69.5966 37.59V37.965ZM81.8902 34.605C81.9402 34.535 82.0002 34.5 82.0702 34.5H82.5802C82.6802 34.5 82.7302 34.55 82.7302 34.65V44.85C82.7302 44.95 82.6802 45 82.5802 45H82.0852C81.9852 45 81.9352 44.95 81.9352 44.85V36.045C81.9352 36.015 81.9252 36 81.9052 36C81.8852 35.99 81.8702 36 81.8602 36.03L79.2202 40.11C79.1702 40.18 79.1102 40.215 79.0402 40.215H78.7852C78.7152 40.215 78.6552 40.18 78.6052 40.11L75.9352 36.045C75.9252 36.015 75.9102 36.005 75.8902 36.015C75.8702 36.025 75.8602 36.045 75.8602 36.075V44.85C75.8602 44.95 75.8102 45 75.7102 45H75.2152C75.1152 45 75.0652 44.95 75.0652 44.85V34.65C75.0652 34.55 75.1152 34.5 75.2152 34.5H75.7402C75.8102 34.5 75.8702 34.535 75.9202 34.605L78.8602 39.105C78.8702 39.115 78.8852 39.12 78.9052 39.12C78.9252 39.12 78.9402 39.115 78.9502 39.105L81.8902 34.605ZM88.3975 44.415C88.8675 44.415 89.2675 44.31 89.5975 44.1C89.9375 43.88 90.2025 43.58 90.3925 43.2C90.4425 43.11 90.5075 43.085 90.5875 43.125L90.9775 43.32C91.0675 43.37 91.0925 43.435 91.0525 43.515C90.8325 44.005 90.4825 44.395 90.0025 44.685C89.5325 44.975 88.9775 45.12 88.3375 45.12C87.6375 45.12 87.0425 44.95 86.5525 44.61C86.0625 44.27 85.7275 43.805 85.5475 43.215C85.4675 42.965 85.4125 42.685 85.3825 42.375C85.3525 42.065 85.3375 41.675 85.3375 41.205C85.3375 40.715 85.3425 40.345 85.3525 40.095C85.3725 39.845 85.4075 39.615 85.4575 39.405C85.6175 38.775 85.9425 38.27 86.4325 37.89C86.9325 37.51 87.5425 37.32 88.2625 37.32C89.0825 37.32 89.7375 37.535 90.2275 37.965C90.7175 38.385 91.0225 38.97 91.1425 39.72C91.1725 39.91 91.1925 40.135 91.2025 40.395C91.2125 40.645 91.2175 40.96 91.2175 41.34C91.2175 41.44 91.1675 41.49 91.0675 41.49H86.1775C86.1375 41.49 86.1175 41.51 86.1175 41.55C86.1175 42.19 86.1425 42.615 86.1925 42.825C86.3025 43.315 86.5475 43.705 86.9275 43.995C87.3175 44.275 87.8075 44.415 88.3975 44.415ZM86.2225 39.585C86.1725 39.775 86.1375 40.165 86.1175 40.755C86.1175 40.795 86.1375 40.815 86.1775 40.815H90.3625C90.4025 40.815 90.4225 40.795 90.4225 40.755C90.4225 40.255 90.3975 39.88 90.3475 39.63C90.2375 39.15 89.9975 38.765 89.6275 38.475C89.2575 38.175 88.8025 38.025 88.2625 38.025C87.7225 38.025 87.2725 38.17 86.9125 38.46C86.5525 38.74 86.3225 39.115 86.2225 39.585ZM87.8425 36.435C87.7825 36.435 87.7425 36.42 87.7225 36.39C87.7025 36.35 87.7075 36.305 87.7375 36.255L88.6525 34.605C88.6825 34.535 88.7425 34.5 88.8325 34.5H89.2675C89.3275 34.5 89.3675 34.52 89.3875 34.56C89.4075 34.59 89.4025 34.63 89.3725 34.68L88.3675 36.33C88.3175 36.4 88.2575 36.435 88.1875 36.435H87.8425ZM92.6358 45C92.5758 45 92.5358 44.98 92.5158 44.94C92.4958 44.9 92.5058 44.86 92.5458 44.82L95.0508 41.265C95.0708 41.235 95.0708 41.205 95.0508 41.175L92.5458 37.62C92.5258 37.6 92.5158 37.57 92.5158 37.53C92.5158 37.51 92.5258 37.49 92.5458 37.47C92.5658 37.45 92.5958 37.44 92.6358 37.44H93.1608C93.2408 37.44 93.3008 37.47 93.3408 37.53L95.4558 40.56C95.4658 40.57 95.4808 40.575 95.5008 40.575C95.5208 40.575 95.5358 40.57 95.5458 40.56L97.6458 37.53C97.6858 37.47 97.7458 37.44 97.8258 37.44H98.3958C98.4558 37.44 98.4958 37.46 98.5158 37.5C98.5358 37.54 98.5258 37.58 98.4858 37.62L95.9808 41.175C95.9708 41.205 95.9708 41.235 95.9808 41.265L98.4858 44.82C98.5058 44.84 98.5158 44.87 98.5158 44.91C98.5158 44.93 98.5058 44.95 98.4858 44.97C98.4658 44.99 98.4358 45 98.3958 45H97.8558C97.7758 45 97.7158 44.97 97.6758 44.91L95.5758 41.895C95.5658 41.875 95.5508 41.865 95.5308 41.865C95.5108 41.865 95.4958 41.875 95.4858 41.895L93.3708 44.91C93.3308 44.97 93.2708 45 93.1908 45H92.6358ZM100.899 35.925C100.679 35.925 100.499 35.855 100.359 35.715C100.219 35.575 100.149 35.395 100.149 35.175C100.149 34.955 100.219 34.775 100.359 34.635C100.499 34.495 100.679 34.425 100.899 34.425C101.119 34.425 101.299 34.495 101.439 34.635C101.579 34.775 101.649 34.955 101.649 35.175C101.649 35.395 101.579 35.575 101.439 35.715C101.299 35.855 101.119 35.925 100.899 35.925ZM100.614 44.985C100.514 44.985 100.464 44.935 100.464 44.835V37.575C100.464 37.475 100.514 37.425 100.614 37.425H101.109C101.209 37.425 101.259 37.475 101.259 37.575V44.835C101.259 44.935 101.209 44.985 101.109 44.985H100.614ZM106.867 45.12C106.157 45.12 105.552 44.935 105.052 44.565C104.562 44.195 104.232 43.7 104.062 43.08C103.932 42.6 103.867 41.975 103.867 41.205C103.867 40.465 103.932 39.845 104.062 39.345C104.222 38.735 104.552 38.245 105.052 37.875C105.552 37.505 106.157 37.32 106.867 37.32C107.577 37.32 108.187 37.5 108.697 37.86C109.217 38.22 109.547 38.67 109.687 39.21C109.727 39.35 109.757 39.49 109.777 39.63V39.66C109.777 39.73 109.732 39.775 109.642 39.795L109.162 39.855H109.132C109.062 39.855 109.017 39.81 108.997 39.72L108.952 39.51C108.862 39.09 108.627 38.74 108.247 38.46C107.867 38.17 107.407 38.025 106.867 38.025C106.317 38.025 105.857 38.17 105.487 38.46C105.127 38.75 104.897 39.135 104.797 39.615C104.707 39.995 104.662 40.53 104.662 41.22C104.662 41.92 104.707 42.45 104.797 42.81C104.897 43.3 105.127 43.69 105.487 43.98C105.857 44.27 106.317 44.415 106.867 44.415C107.407 44.415 107.867 44.275 108.247 43.995C108.637 43.705 108.872 43.345 108.952 42.915L108.967 42.84C108.987 42.73 109.047 42.685 109.147 42.705L109.612 42.78C109.712 42.8 109.757 42.855 109.747 42.945L109.687 43.215C109.547 43.775 109.217 44.235 108.697 44.595C108.187 44.945 107.577 45.12 106.867 45.12ZM114.557 45.12C113.857 45.12 113.257 44.935 112.757 44.565C112.257 44.195 111.917 43.7 111.737 43.08C111.627 42.68 111.572 42.055 111.572 41.205C111.572 40.355 111.627 39.735 111.737 39.345C111.917 38.725 112.252 38.235 112.742 37.875C113.242 37.505 113.852 37.32 114.572 37.32C115.272 37.32 115.872 37.505 116.372 37.875C116.882 38.245 117.222 38.735 117.392 39.345C117.452 39.575 117.492 39.835 117.512 40.125C117.532 40.405 117.542 40.765 117.542 41.205C117.542 41.665 117.532 42.035 117.512 42.315C117.492 42.595 117.452 42.85 117.392 43.08C117.222 43.7 116.882 44.195 116.372 44.565C115.872 44.935 115.267 45.12 114.557 45.12ZM114.557 44.415C115.087 44.415 115.537 44.27 115.907 43.98C116.287 43.68 116.532 43.29 116.642 42.81C116.712 42.54 116.747 42.01 116.747 41.22C116.747 40.42 116.717 39.89 116.657 39.63C116.547 39.14 116.302 38.75 115.922 38.46C115.552 38.17 115.097 38.025 114.557 38.025C114.017 38.025 113.562 38.17 113.192 38.46C112.822 38.75 112.582 39.14 112.472 39.63C112.402 39.94 112.367 40.47 112.367 41.22C112.367 41.97 112.402 42.5 112.472 42.81C112.582 43.3 112.822 43.69 113.192 43.98C113.562 44.27 114.017 44.415 114.557 44.415ZM5.1 69C5.04 69 5 68.9733 4.98 68.92L4.55 67.59C4.54333 67.57 4.53 67.56 4.51 67.56H1.39C1.37 67.56 1.35667 67.57 1.35 67.59L0.93 68.92C0.91 68.9733 0.87 69 0.81 69H0.46C0.386667 69 0.36 68.9633 0.38 68.89L2.6 62.08C2.62 62.0267 2.66 62 2.72 62H3.17C3.23 62 3.27 62.0267 3.29 62.08L5.52 68.89L5.53 68.93C5.53 68.9767 5.5 69 5.44 69H5.1ZM1.51 67.07C1.50333 67.0833 1.50333 67.0967 1.51 67.11C1.52333 67.1167 1.53667 67.12 1.55 67.12H4.35C4.36333 67.12 4.37333 67.1167 4.38 67.11C4.39333 67.0967 4.39667 67.0833 4.39 67.07L2.98 62.72C2.97333 62.7067 2.96333 62.7 2.95 62.7C2.93667 62.7 2.92667 62.7067 2.92 62.72L1.51 67.07ZM10.4984 65.23C10.5384 65.3833 10.5651 65.5567 10.5784 65.75C10.5918 65.9433 10.5984 66.19 10.5984 66.49C10.5984 67.05 10.5618 67.47 10.4884 67.75C10.3751 68.1567 10.1618 68.48 9.84844 68.72C9.5351 68.96 9.15177 69.08 8.69844 69.08C8.4051 69.08 8.14177 69.02 7.90844 68.9C7.6751 68.78 7.48844 68.61 7.34844 68.39C7.3351 68.3767 7.32177 68.3733 7.30844 68.38C7.30177 68.38 7.29844 68.39 7.29844 68.41V68.9C7.29844 68.9667 7.2651 69 7.19844 69H6.86844C6.80177 69 6.76844 68.9667 6.76844 68.9V62.1C6.76844 62.0333 6.80177 62 6.86844 62H7.19844C7.2651 62 7.29844 62.0333 7.29844 62.1V64.56C7.29844 64.58 7.3051 64.5933 7.31844 64.6C7.33177 64.6 7.34177 64.59 7.34844 64.57C7.48844 64.35 7.6751 64.18 7.90844 64.06C8.14177 63.94 8.4051 63.88 8.69844 63.88C9.1651 63.88 9.5551 64.0033 9.86844 64.25C10.1818 64.49 10.3918 64.8167 10.4984 65.23ZM9.93844 67.67C9.9851 67.5367 10.0184 67.3933 10.0384 67.24C10.0584 67.08 10.0684 66.8267 10.0684 66.48C10.0684 66.1267 10.0551 65.87 10.0284 65.71C10.0084 65.55 9.96844 65.4 9.90844 65.26C9.82844 64.9933 9.6751 64.7767 9.44844 64.61C9.22177 64.4367 8.95177 64.35 8.63844 64.35C8.33177 64.35 8.07177 64.4367 7.85844 64.61C7.65177 64.7767 7.51177 64.9967 7.43844 65.27C7.39177 65.4033 7.35844 65.5533 7.33844 65.72C7.31844 65.88 7.30844 66.1367 7.30844 66.49C7.30844 66.83 7.3151 67.08 7.32844 67.24C7.34844 67.4 7.38177 67.5433 7.42844 67.67C7.50177 67.95 7.64177 68.1767 7.84844 68.35C8.06177 68.5233 8.32844 68.61 8.64844 68.61C8.96844 68.61 9.2451 68.5233 9.47844 68.35C9.71177 68.1767 9.8651 67.95 9.93844 67.67ZM14.0786 63.92C14.3053 63.92 14.4986 63.96 14.6586 64.04C14.7119 64.06 14.7319 64.1033 14.7186 64.17L14.6286 64.49C14.6086 64.5567 14.5653 64.5767 14.4986 64.55C14.3653 64.4967 14.1986 64.4733 13.9986 64.48C13.6253 64.4867 13.3153 64.63 13.0686 64.91C12.8286 65.1833 12.7086 65.52 12.7086 65.92V68.9C12.7086 68.9667 12.6753 69 12.6086 69H12.2786C12.2119 69 12.1786 68.9667 12.1786 68.9V64.06C12.1786 63.9933 12.2119 63.96 12.2786 63.96H12.6086C12.6753 63.96 12.7086 63.9933 12.7086 64.06V64.74C12.7086 64.76 12.7119 64.7733 12.7186 64.78C12.7319 64.78 12.7419 64.77 12.7486 64.75C12.8886 64.49 13.0686 64.2867 13.2886 64.14C13.5153 63.9933 13.7786 63.92 14.0786 63.92ZM16.1823 62.95C16.0357 62.95 15.9157 62.9033 15.8223 62.81C15.729 62.7167 15.6823 62.5967 15.6823 62.45C15.6823 62.3033 15.729 62.1833 15.8223 62.09C15.9157 61.9967 16.0357 61.95 16.1823 61.95C16.329 61.95 16.449 61.9967 16.5423 62.09C16.6357 62.1833 16.6823 62.3033 16.6823 62.45C16.6823 62.5967 16.6357 62.7167 16.5423 62.81C16.449 62.9033 16.329 62.95 16.1823 62.95ZM15.9923 68.99C15.9257 68.99 15.8923 68.9567 15.8923 68.89V64.05C15.8923 63.9833 15.9257 63.95 15.9923 63.95H16.3223C16.389 63.95 16.4223 63.9833 16.4223 64.05V68.89C16.4223 68.9567 16.389 68.99 16.3223 68.99H15.9923ZM18.4309 69C18.3643 69 18.3309 68.9667 18.3309 68.9V62.1C18.3309 62.0333 18.3643 62 18.4309 62H18.7609C18.8276 62 18.8609 62.0333 18.8609 62.1V68.9C18.8609 68.9667 18.8276 69 18.7609 69H18.4309ZM23.5888 62.03C23.6221 62.01 23.6654 62 23.7188 62H24.0788C24.1454 62 24.1788 62.0333 24.1788 62.1V68.9C24.1788 68.9667 24.1454 69 24.0788 69H23.7488C23.6821 69 23.6488 68.9667 23.6488 68.9V62.65C23.6488 62.6367 23.6421 62.6267 23.6288 62.62C23.6221 62.6133 23.6121 62.6133 23.5988 62.62L22.5188 63.1C22.5054 63.1067 22.4888 63.11 22.4688 63.11C22.4288 63.11 22.4054 63.0867 22.3988 63.04L22.3588 62.8V62.78C22.3588 62.7333 22.3788 62.7 22.4188 62.68L23.5888 62.03ZM26.5251 68.48C26.5051 68.5133 26.5117 68.53 26.5451 68.53H29.7851C29.8517 68.53 29.8851 68.5633 29.8851 68.63V68.9C29.8851 68.9667 29.8517 69 29.7851 69H25.9351C25.8684 69 25.8351 68.9667 25.8351 68.9V68.62C25.8351 68.5733 25.8484 68.5333 25.8751 68.5C26.1617 68.1467 26.4184 67.8233 26.6451 67.53C26.8717 67.2367 27.0751 66.9767 27.2551 66.75L28.1651 65.59C28.7917 64.7767 29.1051 64.1333 29.1051 63.66C29.1051 63.28 28.9751 62.9733 28.7151 62.74C28.4617 62.5067 28.1284 62.39 27.7151 62.39C27.3017 62.39 26.9684 62.5067 26.7151 62.74C26.4684 62.9733 26.3484 63.28 26.3551 63.66V63.98C26.3551 64.0467 26.3217 64.08 26.2551 64.08H25.9251C25.8584 64.08 25.8251 64.0467 25.8251 63.98V63.6C25.8317 63.1 26.0084 62.6967 26.3551 62.39C26.7084 62.0767 27.1617 61.92 27.7151 61.92C28.1017 61.92 28.4384 61.9933 28.7251 62.14C29.0184 62.2867 29.2451 62.4933 29.4051 62.76C29.5651 63.02 29.6451 63.3167 29.6451 63.65C29.6451 64.2233 29.3251 64.9267 28.6851 65.76C28.2251 66.36 27.5717 67.1833 26.7251 68.23L26.5251 68.48ZM31.3378 69.74C31.3045 69.74 31.2778 69.73 31.2578 69.71C31.2445 69.69 31.2411 69.6633 31.2478 69.63L31.7178 67.55C31.7311 67.49 31.7678 67.46 31.8278 67.46H32.1078C32.1411 67.46 32.1645 67.47 32.1778 67.49C32.1978 67.51 32.2045 67.5367 32.1978 67.57L31.6578 69.65C31.6511 69.71 31.6145 69.74 31.5478 69.74H31.3378ZM36.4665 68.48C36.4465 68.5133 36.4532 68.53 36.4865 68.53H39.7265C39.7932 68.53 39.8265 68.5633 39.8265 68.63V68.9C39.8265 68.9667 39.7932 69 39.7265 69H35.8765C35.8098 69 35.7765 68.9667 35.7765 68.9V68.62C35.7765 68.5733 35.7898 68.5333 35.8165 68.5C36.1032 68.1467 36.3598 67.8233 36.5865 67.53C36.8132 67.2367 37.0165 66.9767 37.1965 66.75L38.1065 65.59C38.7332 64.7767 39.0465 64.1333 39.0465 63.66C39.0465 63.28 38.9165 62.9733 38.6565 62.74C38.4032 62.5067 38.0698 62.39 37.6565 62.39C37.2432 62.39 36.9098 62.5067 36.6565 62.74C36.4098 62.9733 36.2898 63.28 36.2965 63.66V63.98C36.2965 64.0467 36.2632 64.08 36.1965 64.08H35.8665C35.7998 64.08 35.7665 64.0467 35.7665 63.98V63.6C35.7732 63.1 35.9498 62.6967 36.2965 62.39C36.6498 62.0767 37.1032 61.92 37.6565 61.92C38.0432 61.92 38.3798 61.9933 38.6665 62.14C38.9598 62.2867 39.1865 62.4933 39.3465 62.76C39.5065 63.02 39.5865 63.3167 39.5865 63.65C39.5865 64.2233 39.2665 64.9267 38.6265 65.76C38.1665 66.36 37.5132 67.1833 36.6665 68.23L36.4665 68.48ZM43.2492 69.1C42.6359 69.1 42.1426 68.9233 41.7692 68.57C41.4026 68.21 41.2192 67.7333 41.2192 67.14V63.86C41.2192 63.2667 41.4026 62.7933 41.7692 62.44C42.1426 62.0867 42.6359 61.91 43.2492 61.91C43.8692 61.91 44.3659 62.09 44.7392 62.45C45.1192 62.8033 45.3092 63.2733 45.3092 63.86V67.14C45.3092 67.7333 45.1192 68.21 44.7392 68.57C44.3659 68.9233 43.8692 69.1 43.2492 69.1ZM43.2492 68.62C43.7159 68.62 44.0859 68.49 44.3592 68.23C44.6392 67.9633 44.7792 67.6133 44.7792 67.18V63.83C44.7792 63.3967 44.6392 63.0467 44.3592 62.78C44.0859 62.5133 43.7159 62.38 43.2492 62.38C42.7959 62.38 42.4326 62.5133 42.1592 62.78C41.8859 63.0467 41.7492 63.3967 41.7492 63.83V67.18C41.7492 67.6133 41.8859 67.9633 42.1592 68.23C42.4326 68.49 42.7959 68.62 43.2492 68.62ZM47.404 68.48C47.384 68.5133 47.3907 68.53 47.424 68.53H50.664C50.7307 68.53 50.764 68.5633 50.764 68.63V68.9C50.764 68.9667 50.7307 69 50.664 69H46.814C46.7473 69 46.714 68.9667 46.714 68.9V68.62C46.714 68.5733 46.7273 68.5333 46.754 68.5C47.0407 68.1467 47.2973 67.8233 47.524 67.53C47.7507 67.2367 47.954 66.9767 48.134 66.75L49.044 65.59C49.6707 64.7767 49.984 64.1333 49.984 63.66C49.984 63.28 49.854 62.9733 49.594 62.74C49.3407 62.5067 49.0073 62.39 48.594 62.39C48.1807 62.39 47.8473 62.5067 47.594 62.74C47.3473 62.9733 47.2273 63.28 47.234 63.66V63.98C47.234 64.0467 47.2007 64.08 47.134 64.08H46.804C46.7373 64.08 46.704 64.0467 46.704 63.98V63.6C46.7107 63.1 46.8873 62.6967 47.234 62.39C47.5873 62.0767 48.0407 61.92 48.594 61.92C48.9807 61.92 49.3173 61.9933 49.604 62.14C49.8973 62.2867 50.124 62.4933 50.284 62.76C50.444 63.02 50.524 63.3167 50.524 63.65C50.524 64.2233 50.204 64.9267 49.564 65.76C49.104 66.36 48.4507 67.1833 47.604 68.23L47.404 68.48ZM55.5277 65.7C55.661 66.04 55.7277 66.4367 55.7277 66.89C55.7277 67.25 55.681 67.57 55.5877 67.85C55.461 68.25 55.2443 68.5567 54.9377 68.77C54.6377 68.9767 54.261 69.08 53.8077 69.08C53.3477 69.08 52.9577 68.96 52.6377 68.72C52.3243 68.4733 52.1077 68.1467 51.9877 67.74C51.921 67.54 51.8877 67.2967 51.8877 67.01C51.8877 66.9433 51.921 66.91 51.9877 66.91H52.3277C52.3943 66.91 52.4277 66.9433 52.4277 67.01C52.4277 67.2367 52.4477 67.42 52.4877 67.56C52.5543 67.88 52.7043 68.1367 52.9377 68.33C53.171 68.5167 53.461 68.61 53.8077 68.61C54.4543 68.61 54.8743 68.3167 55.0677 67.73C55.1543 67.4833 55.1977 67.2 55.1977 66.88C55.1977 66.4667 55.1377 66.12 55.0177 65.84C54.8043 65.32 54.3977 65.06 53.7977 65.06C53.7177 65.06 53.6177 65.08 53.4977 65.12L53.4577 65.14C53.451 65.1467 53.441 65.15 53.4277 65.15C53.3943 65.15 53.3677 65.1333 53.3477 65.1L53.1777 64.88C53.1643 64.8533 53.1577 64.8333 53.1577 64.82C53.1577 64.7867 53.1677 64.76 53.1877 64.74L54.9777 62.52C54.991 62.5067 54.9943 62.4967 54.9877 62.49C54.981 62.4767 54.971 62.47 54.9577 62.47H52.0277C51.961 62.47 51.9277 62.4367 51.9277 62.37V62.1C51.9277 62.0333 51.961 62 52.0277 62H55.5977C55.6643 62 55.6977 62.0333 55.6977 62.1V62.43C55.6977 62.4767 55.6843 62.5167 55.6577 62.55L53.9877 64.65C53.9743 64.6633 53.971 64.6767 53.9777 64.69C53.9843 64.6967 53.9977 64.7 54.0177 64.7C54.391 64.7133 54.7043 64.8067 54.9577 64.98C55.211 65.1467 55.401 65.3867 55.5277 65.7Z" fill="#010101"/>
</svg>
