<svg width="143" height="87" viewBox="0 0 143 87" fill="none" xmlns="http://www.w3.org/2000/svg">
<path d="M8.205 1.82C8.205 1.87 8.185 1.915 8.145 1.955C8.115 1.985 8.075 2 8.025 2H2.91C2.86 2 2.835 2.025 2.835 2.075V4.88C2.835 4.93 2.86 4.955 2.91 4.955H6.345C6.395 4.955 6.435 4.975 6.465 5.015C6.505 5.045 6.525 5.085 6.525 5.135V6.275C6.525 6.325 6.505 6.37 6.465 6.41C6.435 6.44 6.395 6.455 6.345 6.455H2.91C2.86 6.455 2.835 6.48 2.835 6.53V9.425C2.835 9.475 2.86 9.5 2.91 9.5H8.025C8.075 9.5 8.115 9.52 8.145 9.56C8.185 9.59 8.205 9.63 8.205 9.68V10.82C8.205 10.87 8.185 10.915 8.145 10.955C8.115 10.985 8.075 11 8.025 11H1.275C1.225 11 1.18 10.985 1.14 10.955C1.11 10.915 1.095 10.87 1.095 10.82V0.68C1.095 0.63 1.11 0.59 1.14 0.559999C1.18 0.519999 1.225 0.499999 1.275 0.499999H8.025C8.075 0.499999 8.115 0.519999 8.145 0.559999C8.185 0.59 8.205 0.63 8.205 0.68V1.82ZM12.657 11.09C12.027 11.09 11.472 11 10.992 10.82C10.522 10.63 10.157 10.375 9.89695 10.055C9.63695 9.725 9.50695 9.36 9.50695 8.96V8.825C9.50695 8.775 9.52195 8.735 9.55195 8.705C9.59195 8.665 9.63695 8.645 9.68695 8.645H11.007C11.057 8.645 11.097 8.665 11.127 8.705C11.167 8.735 11.187 8.775 11.187 8.825V8.855C11.187 9.105 11.322 9.325 11.592 9.515C11.872 9.695 12.222 9.785 12.642 9.785C13.042 9.785 13.367 9.705 13.617 9.545C13.867 9.375 13.992 9.165 13.992 8.915C13.992 8.685 13.887 8.515 13.677 8.405C13.477 8.285 13.147 8.16 12.687 8.03L12.117 7.85C11.607 7.7 11.177 7.54 10.827 7.37C10.477 7.2 10.182 6.97 9.94195 6.68C9.70195 6.38 9.58195 6 9.58195 5.54C9.58195 4.84 9.85695 4.285 10.407 3.875C10.957 3.455 11.682 3.245 12.582 3.245C13.192 3.245 13.727 3.345 14.187 3.545C14.647 3.735 15.002 4.005 15.252 4.355C15.502 4.695 15.627 5.085 15.627 5.525C15.627 5.575 15.607 5.62 15.567 5.66C15.537 5.69 15.497 5.705 15.447 5.705H14.172C14.122 5.705 14.077 5.69 14.037 5.66C14.007 5.62 13.992 5.575 13.992 5.525C13.992 5.265 13.862 5.05 13.602 4.88C13.352 4.7 13.007 4.61 12.567 4.61C12.177 4.61 11.857 4.685 11.607 4.835C11.367 4.975 11.247 5.175 11.247 5.435C11.247 5.675 11.362 5.86 11.592 5.99C11.832 6.11 12.227 6.245 12.777 6.395L13.107 6.485C13.637 6.645 14.082 6.81 14.442 6.98C14.802 7.14 15.107 7.37 15.357 7.67C15.607 7.96 15.732 8.34 15.732 8.81C15.732 9.52 15.452 10.08 14.892 10.49C14.332 10.89 13.587 11.09 12.657 11.09ZM21.2548 4.565C21.2548 4.615 21.2348 4.66 21.1948 4.7C21.1648 4.73 21.1248 4.745 21.0748 4.745H19.5448C19.4948 4.745 19.4698 4.77 19.4698 4.82V8.435C19.4698 8.815 19.5498 9.09 19.7098 9.26C19.8798 9.43 20.1448 9.515 20.5048 9.515H20.9548C21.0048 9.515 21.0448 9.535 21.0748 9.575C21.1148 9.605 21.1348 9.645 21.1348 9.695V10.82C21.1348 10.93 21.0748 10.995 20.9548 11.015L20.1748 11.03C19.3848 11.03 18.7948 10.895 18.4048 10.625C18.0148 10.355 17.8148 9.845 17.8048 9.095V4.82C17.8048 4.77 17.7798 4.745 17.7298 4.745H16.8748C16.8248 4.745 16.7798 4.73 16.7398 4.7C16.7098 4.66 16.6948 4.615 16.6948 4.565V3.515C16.6948 3.465 16.7098 3.425 16.7398 3.395C16.7798 3.355 16.8248 3.335 16.8748 3.335H17.7298C17.7798 3.335 17.8048 3.31 17.8048 3.26V1.505C17.8048 1.455 17.8198 1.415 17.8498 1.385C17.8898 1.345 17.9348 1.325 17.9848 1.325H19.2898C19.3398 1.325 19.3798 1.345 19.4098 1.385C19.4498 1.415 19.4698 1.455 19.4698 1.505V3.26C19.4698 3.31 19.4948 3.335 19.5448 3.335H21.0748C21.1248 3.335 21.1648 3.355 21.1948 3.395C21.2348 3.425 21.2548 3.465 21.2548 3.515V4.565ZM25.7251 3.215C26.3551 3.215 26.9101 3.325 27.3901 3.545C27.8701 3.765 28.2401 4.07 28.5001 4.46C28.7601 4.84 28.8901 5.275 28.8901 5.765V10.82C28.8901 10.87 28.8701 10.915 28.8301 10.955C28.8001 10.985 28.7601 11 28.7101 11H27.3301C27.2801 11 27.2351 10.985 27.1951 10.955C27.1651 10.915 27.1501 10.87 27.1501 10.82V10.34C27.1501 10.31 27.1401 10.295 27.1201 10.295C27.1001 10.285 27.0801 10.29 27.0601 10.31C26.5701 10.85 25.8601 11.12 24.9301 11.12C24.1801 11.12 23.5601 10.93 23.0701 10.55C22.5901 10.17 22.3501 9.605 22.3501 8.855C22.3501 8.075 22.6201 7.47 23.1601 7.04C23.7101 6.6 24.4801 6.38 25.4701 6.38H27.0751C27.1251 6.38 27.1501 6.355 27.1501 6.305V5.945C27.1501 5.555 27.0351 5.255 26.8051 5.045C26.5751 4.825 26.2301 4.715 25.7701 4.715C25.3901 4.715 25.0801 4.785 24.8401 4.925C24.6101 5.055 24.4651 5.24 24.4051 5.48C24.3751 5.6 24.3051 5.65 24.1951 5.63L22.7401 5.45C22.6901 5.44 22.6451 5.425 22.6051 5.405C22.5751 5.375 22.5651 5.34 22.5751 5.3C22.6551 4.69 22.9801 4.19 23.5501 3.8C24.1301 3.41 24.8551 3.215 25.7251 3.215ZM25.3651 9.74C25.8551 9.74 26.2751 9.61 26.6251 9.35C26.9751 9.09 27.1501 8.76 27.1501 8.36V7.655C27.1501 7.605 27.1251 7.58 27.0751 7.58H25.8151C25.2851 7.58 24.8651 7.68 24.5551 7.88C24.2551 8.08 24.1051 8.365 24.1051 8.735C24.1051 9.055 24.2201 9.305 24.4501 9.485C24.6901 9.655 24.9951 9.74 25.3651 9.74ZM40.105 6.305C40.145 6.555 40.165 6.835 40.165 7.145L40.15 7.61C40.15 7.73 40.09 7.79 39.97 7.79H35.275C35.225 7.79 35.2 7.815 35.2 7.865C35.23 8.195 35.275 8.42 35.335 8.54C35.575 9.26 36.16 9.625 37.09 9.635C37.77 9.635 38.31 9.355 38.71 8.795C38.75 8.735 38.8 8.705 38.86 8.705C38.9 8.705 38.935 8.72 38.965 8.75L39.895 9.515C39.985 9.585 40 9.665 39.94 9.755C39.63 10.195 39.215 10.535 38.695 10.775C38.185 11.015 37.615 11.135 36.985 11.135C36.205 11.135 35.54 10.96 34.99 10.61C34.45 10.26 34.055 9.77 33.805 9.14C33.575 8.6 33.46 7.85 33.46 6.89C33.46 6.31 33.52 5.84 33.64 5.48C33.84 4.78 34.215 4.23 34.765 3.83C35.325 3.42 35.995 3.215 36.775 3.215C38.745 3.215 39.855 4.245 40.105 6.305ZM36.775 4.715C36.405 4.715 36.095 4.81 35.845 5C35.605 5.18 35.435 5.435 35.335 5.765C35.275 5.935 35.235 6.155 35.215 6.425C35.195 6.475 35.215 6.5 35.275 6.5H38.32C38.37 6.5 38.395 6.475 38.395 6.425C38.375 6.175 38.345 5.985 38.305 5.855C38.215 5.495 38.035 5.215 37.765 5.015C37.505 4.815 37.175 4.715 36.775 4.715ZM44.488 11.09C43.858 11.09 43.303 11 42.823 10.82C42.353 10.63 41.988 10.375 41.728 10.055C41.468 9.725 41.338 9.36 41.338 8.96V8.825C41.338 8.775 41.353 8.735 41.383 8.705C41.423 8.665 41.468 8.645 41.518 8.645H42.838C42.888 8.645 42.928 8.665 42.958 8.705C42.998 8.735 43.018 8.775 43.018 8.825V8.855C43.018 9.105 43.153 9.325 43.423 9.515C43.703 9.695 44.053 9.785 44.473 9.785C44.873 9.785 45.198 9.705 45.448 9.545C45.698 9.375 45.823 9.165 45.823 8.915C45.823 8.685 45.718 8.515 45.508 8.405C45.308 8.285 44.978 8.16 44.518 8.03L43.948 7.85C43.438 7.7 43.008 7.54 42.658 7.37C42.308 7.2 42.013 6.97 41.773 6.68C41.533 6.38 41.413 6 41.413 5.54C41.413 4.84 41.688 4.285 42.238 3.875C42.788 3.455 43.513 3.245 44.413 3.245C45.023 3.245 45.558 3.345 46.018 3.545C46.478 3.735 46.833 4.005 47.083 4.355C47.333 4.695 47.458 5.085 47.458 5.525C47.458 5.575 47.438 5.62 47.398 5.66C47.368 5.69 47.328 5.705 47.278 5.705H46.003C45.953 5.705 45.908 5.69 45.868 5.66C45.838 5.62 45.823 5.575 45.823 5.525C45.823 5.265 45.693 5.05 45.433 4.88C45.183 4.7 44.838 4.61 44.398 4.61C44.008 4.61 43.688 4.685 43.438 4.835C43.198 4.975 43.078 5.175 43.078 5.435C43.078 5.675 43.193 5.86 43.423 5.99C43.663 6.11 44.058 6.245 44.608 6.395L44.938 6.485C45.468 6.645 45.913 6.81 46.273 6.98C46.633 7.14 46.938 7.37 47.188 7.67C47.438 7.96 47.563 8.34 47.563 8.81C47.563 9.52 47.283 10.08 46.723 10.49C46.163 10.89 45.418 11.09 44.488 11.09ZM52.2184 11C52.1684 11 52.1234 10.985 52.0834 10.955C52.0534 10.915 52.0384 10.87 52.0384 10.82V0.68C52.0384 0.63 52.0534 0.59 52.0834 0.559999C52.1234 0.519999 52.1684 0.499999 52.2184 0.499999H53.5984C53.6484 0.499999 53.6884 0.519999 53.7184 0.559999C53.7584 0.59 53.7784 0.63 53.7784 0.68V10.82C53.7784 10.87 53.7584 10.915 53.7184 10.955C53.6884 10.985 53.6484 11 53.5984 11H52.2184ZM58.5523 3.215C59.1823 3.215 59.7373 3.325 60.2173 3.545C60.6973 3.765 61.0673 4.07 61.3273 4.46C61.5873 4.84 61.7173 5.275 61.7173 5.765V10.82C61.7173 10.87 61.6973 10.915 61.6573 10.955C61.6273 10.985 61.5873 11 61.5373 11H60.1573C60.1073 11 60.0623 10.985 60.0223 10.955C59.9923 10.915 59.9773 10.87 59.9773 10.82V10.34C59.9773 10.31 59.9673 10.295 59.9473 10.295C59.9273 10.285 59.9073 10.29 59.8873 10.31C59.3973 10.85 58.6873 11.12 57.7573 11.12C57.0073 11.12 56.3873 10.93 55.8973 10.55C55.4173 10.17 55.1773 9.605 55.1773 8.855C55.1773 8.075 55.4473 7.47 55.9873 7.04C56.5373 6.6 57.3073 6.38 58.2973 6.38H59.9023C59.9523 6.38 59.9773 6.355 59.9773 6.305V5.945C59.9773 5.555 59.8623 5.255 59.6323 5.045C59.4023 4.825 59.0573 4.715 58.5973 4.715C58.2173 4.715 57.9073 4.785 57.6673 4.925C57.4373 5.055 57.2923 5.24 57.2323 5.48C57.2023 5.6 57.1323 5.65 57.0223 5.63L55.5673 5.45C55.5173 5.44 55.4723 5.425 55.4323 5.405C55.4023 5.375 55.3923 5.34 55.4023 5.3C55.4823 4.69 55.8073 4.19 56.3773 3.8C56.9573 3.41 57.6823 3.215 58.5523 3.215ZM58.1923 9.74C58.6823 9.74 59.1023 9.61 59.4523 9.35C59.8023 9.09 59.9773 8.76 59.9773 8.36V7.655C59.9773 7.605 59.9523 7.58 59.9023 7.58H58.6423C58.1123 7.58 57.6923 7.68 57.3823 7.88C57.0823 8.08 56.9323 8.365 56.9323 8.735C56.9323 9.055 57.0473 9.305 57.2773 9.485C57.5173 9.655 57.8223 9.74 58.1923 9.74ZM72.9321 6.305C72.9721 6.555 72.9921 6.835 72.9921 7.145L72.9771 7.61C72.9771 7.73 72.9171 7.79 72.7971 7.79H68.1021C68.0521 7.79 68.0271 7.815 68.0271 7.865C68.0571 8.195 68.1021 8.42 68.1621 8.54C68.4021 9.26 68.9871 9.625 69.9171 9.635C70.5971 9.635 71.1371 9.355 71.5371 8.795C71.5771 8.735 71.6271 8.705 71.6871 8.705C71.7271 8.705 71.7621 8.72 71.7921 8.75L72.7221 9.515C72.8121 9.585 72.8271 9.665 72.7671 9.755C72.4571 10.195 72.0421 10.535 71.5221 10.775C71.0121 11.015 70.4421 11.135 69.8121 11.135C69.0321 11.135 68.3671 10.96 67.8171 10.61C67.2771 10.26 66.8821 9.77 66.6321 9.14C66.4021 8.6 66.2871 7.85 66.2871 6.89C66.2871 6.31 66.3471 5.84 66.4671 5.48C66.6671 4.78 67.0421 4.23 67.5921 3.83C68.1521 3.42 68.8221 3.215 69.6021 3.215C71.5721 3.215 72.6821 4.245 72.9321 6.305ZM69.6021 4.715C69.2321 4.715 68.9221 4.81 68.6721 5C68.4321 5.18 68.2621 5.435 68.1621 5.765C68.1021 5.935 68.0621 6.155 68.0421 6.425C68.0221 6.475 68.0421 6.5 68.1021 6.5H71.1471C71.1971 6.5 71.2221 6.475 71.2221 6.425C71.2021 6.175 71.1721 5.985 71.1321 5.855C71.0421 5.495 70.8621 5.215 70.5921 5.015C70.3321 4.815 70.0021 4.715 69.6021 4.715ZM73.8844 11C73.8144 11 73.7644 10.98 73.7344 10.94C73.7144 10.89 73.7244 10.835 73.7644 10.775L76.1944 7.205C76.2144 7.175 76.2144 7.145 76.1944 7.115L73.7644 3.56C73.7444 3.52 73.7344 3.485 73.7344 3.455C73.7344 3.375 73.7844 3.335 73.8844 3.335H75.3544C75.4444 3.335 75.5144 3.375 75.5644 3.455L77.1244 5.765C77.1444 5.785 77.1644 5.795 77.1844 5.795C77.2044 5.795 77.2194 5.785 77.2294 5.765L78.7894 3.455C78.8394 3.375 78.9094 3.335 78.9994 3.335H80.5744C80.6444 3.335 80.6894 3.36 80.7094 3.41C80.7394 3.45 80.7344 3.5 80.6944 3.56L78.2644 7.115C78.2544 7.145 78.2544 7.175 78.2644 7.205L80.6944 10.775C80.7144 10.815 80.7244 10.85 80.7244 10.88C80.7244 10.96 80.6744 11 80.5744 11H79.1044C79.0144 11 78.9444 10.96 78.8944 10.88L77.3344 8.57C77.3244 8.55 77.3094 8.54 77.2894 8.54C77.2694 8.54 77.2494 8.55 77.2294 8.57L75.6694 10.88C75.6194 10.96 75.5494 11 75.4594 11H73.8844ZM88.5188 5.315C88.6988 5.825 88.7888 6.45 88.7888 7.19C88.7888 7.9 88.7038 8.51 88.5338 9.02C88.3138 9.68 87.9588 10.195 87.4688 10.565C86.9888 10.935 86.3788 11.12 85.6388 11.12C84.9288 11.12 84.3588 10.865 83.9288 10.355C83.9088 10.335 83.8888 10.33 83.8688 10.34C83.8488 10.35 83.8388 10.37 83.8388 10.4V13.655C83.8388 13.705 83.8188 13.745 83.7788 13.775C83.7488 13.815 83.7088 13.835 83.6588 13.835H82.2788C82.2288 13.835 82.1838 13.815 82.1438 13.775C82.1138 13.745 82.0988 13.705 82.0988 13.655V3.515C82.0988 3.465 82.1138 3.425 82.1438 3.395C82.1838 3.355 82.2288 3.335 82.2788 3.335H83.6588C83.7088 3.335 83.7488 3.355 83.7788 3.395C83.8188 3.425 83.8388 3.465 83.8388 3.515V3.965C83.8388 3.995 83.8488 4.015 83.8688 4.025C83.8888 4.035 83.9088 4.025 83.9288 3.995C84.3688 3.475 84.9438 3.215 85.6538 3.215C86.3638 3.215 86.9638 3.4 87.4538 3.77C87.9438 4.14 88.2988 4.655 88.5188 5.315ZM86.5688 8.99C86.8688 8.53 87.0188 7.92 87.0188 7.16C87.0188 6.43 86.8988 5.855 86.6588 5.435C86.3788 4.945 85.9538 4.7 85.3838 4.7C84.8638 4.7 84.4738 4.94 84.2138 5.42C83.9838 5.81 83.8688 6.39 83.8688 7.16C83.8688 7.95 83.9938 8.55 84.2438 8.96C84.5038 9.4 84.8788 9.62 85.3688 9.62C85.8988 9.62 86.2988 9.41 86.5688 8.99ZM96.8823 6.305C96.9223 6.555 96.9423 6.835 96.9423 7.145L96.9273 7.61C96.9273 7.73 96.8673 7.79 96.7473 7.79H92.0523C92.0023 7.79 91.9773 7.815 91.9773 7.865C92.0073 8.195 92.0523 8.42 92.1123 8.54C92.3523 9.26 92.9373 9.625 93.8673 9.635C94.5473 9.635 95.0873 9.355 95.4873 8.795C95.5273 8.735 95.5773 8.705 95.6373 8.705C95.6773 8.705 95.7123 8.72 95.7423 8.75L96.6723 9.515C96.7623 9.585 96.7773 9.665 96.7173 9.755C96.4073 10.195 95.9923 10.535 95.4723 10.775C94.9623 11.015 94.3923 11.135 93.7623 11.135C92.9823 11.135 92.3173 10.96 91.7673 10.61C91.2273 10.26 90.8323 9.77 90.5823 9.14C90.3523 8.6 90.2373 7.85 90.2373 6.89C90.2373 6.31 90.2973 5.84 90.4173 5.48C90.6173 4.78 90.9923 4.23 91.5423 3.83C92.1023 3.42 92.7723 3.215 93.5523 3.215C95.5223 3.215 96.6323 4.245 96.8823 6.305ZM93.5523 4.715C93.1823 4.715 92.8723 4.81 92.6223 5C92.3823 5.18 92.2123 5.435 92.1123 5.765C92.0523 5.935 92.0123 6.155 91.9923 6.425C91.9723 6.475 91.9923 6.5 92.0523 6.5H95.0973C95.1473 6.5 95.1723 6.475 95.1723 6.425C95.1523 6.175 95.1223 5.985 95.0823 5.855C94.9923 5.495 94.8123 5.215 94.5423 5.015C94.2823 4.815 93.9523 4.715 93.5523 4.715ZM102.103 3.245C102.423 3.245 102.703 3.31 102.943 3.44C103.023 3.48 103.053 3.555 103.033 3.665L102.778 5.015C102.768 5.135 102.698 5.17 102.568 5.12C102.418 5.07 102.243 5.045 102.043 5.045C101.913 5.045 101.813 5.05 101.743 5.06C101.323 5.08 100.973 5.23 100.693 5.51C100.413 5.78 100.273 6.135 100.273 6.575V10.82C100.273 10.87 100.253 10.915 100.213 10.955C100.183 10.985 100.143 11 100.093 11H98.7125C98.6625 11 98.6175 10.985 98.5775 10.955C98.5475 10.915 98.5325 10.87 98.5325 10.82V3.515C98.5325 3.465 98.5475 3.425 98.5775 3.395C98.6175 3.355 98.6625 3.335 98.7125 3.335H100.093C100.143 3.335 100.183 3.355 100.213 3.395C100.253 3.425 100.273 3.465 100.273 3.515V4.19C100.273 4.23 100.278 4.255 100.288 4.265C100.308 4.265 100.328 4.25 100.348 4.22C100.768 3.57 101.353 3.245 102.103 3.245ZM105.162 2.285C104.852 2.285 104.597 2.185 104.397 1.985C104.197 1.785 104.097 1.53 104.097 1.22C104.097 0.91 104.197 0.655 104.397 0.455C104.597 0.254999 104.852 0.154999 105.162 0.154999C105.472 0.154999 105.727 0.254999 105.927 0.455C106.127 0.655 106.227 0.91 106.227 1.22C106.227 1.53 106.127 1.785 105.927 1.985C105.727 2.185 105.472 2.285 105.162 2.285ZM104.442 11C104.392 11 104.347 10.985 104.307 10.955C104.277 10.915 104.262 10.87 104.262 10.82V3.5C104.262 3.45 104.277 3.41 104.307 3.38C104.347 3.34 104.392 3.32 104.442 3.32H105.822C105.872 3.32 105.912 3.34 105.942 3.38C105.982 3.41 106.002 3.45 106.002 3.5V10.82C106.002 10.87 105.982 10.915 105.942 10.955C105.912 10.985 105.872 11 105.822 11H104.442ZM114.46 6.305C114.5 6.555 114.52 6.835 114.52 7.145L114.505 7.61C114.505 7.73 114.445 7.79 114.325 7.79H109.63C109.58 7.79 109.555 7.815 109.555 7.865C109.585 8.195 109.63 8.42 109.69 8.54C109.93 9.26 110.515 9.625 111.445 9.635C112.125 9.635 112.665 9.355 113.065 8.795C113.105 8.735 113.155 8.705 113.215 8.705C113.255 8.705 113.29 8.72 113.32 8.75L114.25 9.515C114.34 9.585 114.355 9.665 114.295 9.755C113.985 10.195 113.57 10.535 113.05 10.775C112.54 11.015 111.97 11.135 111.34 11.135C110.56 11.135 109.895 10.96 109.345 10.61C108.805 10.26 108.41 9.77 108.16 9.14C107.93 8.6 107.815 7.85 107.815 6.89C107.815 6.31 107.875 5.84 107.995 5.48C108.195 4.78 108.57 4.23 109.12 3.83C109.68 3.42 110.35 3.215 111.13 3.215C113.1 3.215 114.21 4.245 114.46 6.305ZM111.13 4.715C110.76 4.715 110.45 4.81 110.2 5C109.96 5.18 109.79 5.435 109.69 5.765C109.63 5.935 109.59 6.155 109.57 6.425C109.55 6.475 109.57 6.5 109.63 6.5H112.675C112.725 6.5 112.75 6.475 112.75 6.425C112.73 6.175 112.7 5.985 112.66 5.855C112.57 5.495 112.39 5.215 112.12 5.015C111.86 4.815 111.53 4.715 111.13 4.715ZM119.786 3.215C120.596 3.215 121.241 3.455 121.721 3.935C122.211 4.415 122.456 5.07 122.456 5.9V10.82C122.456 10.87 122.436 10.915 122.396 10.955C122.366 10.985 122.326 11 122.276 11H120.896C120.846 11 120.801 10.985 120.761 10.955C120.731 10.915 120.716 10.87 120.716 10.82V6.26C120.716 5.8 120.586 5.43 120.326 5.15C120.066 4.86 119.721 4.715 119.291 4.715C118.861 4.715 118.511 4.855 118.241 5.135C117.981 5.415 117.851 5.785 117.851 6.245V10.82C117.851 10.87 117.831 10.915 117.791 10.955C117.761 10.985 117.721 11 117.671 11H116.291C116.241 11 116.196 10.985 116.156 10.955C116.126 10.915 116.111 10.87 116.111 10.82V3.515C116.111 3.465 116.126 3.425 116.156 3.395C116.196 3.355 116.241 3.335 116.291 3.335H117.671C117.721 3.335 117.761 3.355 117.791 3.395C117.831 3.425 117.851 3.465 117.851 3.515V3.995C117.851 4.025 117.861 4.045 117.881 4.055C117.901 4.065 117.916 4.055 117.926 4.025C118.336 3.485 118.956 3.215 119.786 3.215ZM127.406 11.12C126.636 11.12 125.971 10.925 125.411 10.535C124.851 10.135 124.461 9.6 124.241 8.93C124.081 8.48 124.001 7.88 124.001 7.13C124.001 6.41 124.081 5.82 124.241 5.36C124.451 4.7 124.836 4.18 125.396 3.8C125.966 3.41 126.636 3.215 127.406 3.215C128.186 3.215 128.866 3.41 129.446 3.8C130.026 4.19 130.411 4.68 130.601 5.27C130.651 5.43 130.686 5.59 130.706 5.75V5.78C130.706 5.88 130.651 5.94 130.541 5.96L129.191 6.155H129.161C129.071 6.155 129.011 6.105 128.981 6.005C128.981 5.955 128.976 5.915 128.966 5.885C128.946 5.805 128.926 5.735 128.906 5.675C128.816 5.395 128.636 5.165 128.366 4.985C128.096 4.805 127.776 4.715 127.406 4.715C127.026 4.715 126.701 4.815 126.431 5.015C126.171 5.205 125.996 5.47 125.906 5.81C125.806 6.13 125.756 6.575 125.756 7.145C125.756 7.695 125.801 8.14 125.891 8.48C125.991 8.83 126.171 9.11 126.431 9.32C126.691 9.52 127.016 9.62 127.406 9.62C127.786 9.62 128.111 9.525 128.381 9.335C128.661 9.135 128.841 8.87 128.921 8.54C128.931 8.52 128.936 8.495 128.936 8.465C128.946 8.455 128.951 8.44 128.951 8.42C128.981 8.3 129.051 8.25 129.161 8.27L130.511 8.48C130.561 8.49 130.601 8.515 130.631 8.555C130.671 8.585 130.686 8.63 130.676 8.69C130.646 8.85 130.621 8.965 130.601 9.035C130.411 9.675 130.026 10.185 129.446 10.565C128.866 10.935 128.186 11.12 127.406 11.12ZM133.17 2.285C132.86 2.285 132.605 2.185 132.405 1.985C132.205 1.785 132.105 1.53 132.105 1.22C132.105 0.91 132.205 0.655 132.405 0.455C132.605 0.254999 132.86 0.154999 133.17 0.154999C133.48 0.154999 133.735 0.254999 133.935 0.455C134.135 0.655 134.235 0.91 134.235 1.22C134.235 1.53 134.135 1.785 133.935 1.985C133.735 2.185 133.48 2.285 133.17 2.285ZM132.45 11C132.4 11 132.355 10.985 132.315 10.955C132.285 10.915 132.27 10.87 132.27 10.82V3.5C132.27 3.45 132.285 3.41 132.315 3.38C132.355 3.34 132.4 3.32 132.45 3.32H133.83C133.88 3.32 133.92 3.34 133.95 3.38C133.99 3.41 134.01 3.45 134.01 3.5V10.82C134.01 10.87 133.99 10.915 133.95 10.955C133.92 10.985 133.88 11 133.83 11H132.45ZM138.928 3.215C139.558 3.215 140.113 3.325 140.593 3.545C141.073 3.765 141.443 4.07 141.703 4.46C141.963 4.84 142.093 5.275 142.093 5.765V10.82C142.093 10.87 142.073 10.915 142.033 10.955C142.003 10.985 141.963 11 141.913 11H140.533C140.483 11 140.438 10.985 140.398 10.955C140.368 10.915 140.353 10.87 140.353 10.82V10.34C140.353 10.31 140.343 10.295 140.323 10.295C140.303 10.285 140.283 10.29 140.263 10.31C139.773 10.85 139.063 11.12 138.133 11.12C137.383 11.12 136.763 10.93 136.273 10.55C135.793 10.17 135.553 9.605 135.553 8.855C135.553 8.075 135.823 7.47 136.363 7.04C136.913 6.6 137.683 6.38 138.673 6.38H140.278C140.328 6.38 140.353 6.355 140.353 6.305V5.945C140.353 5.555 140.238 5.255 140.008 5.045C139.778 4.825 139.433 4.715 138.973 4.715C138.593 4.715 138.283 4.785 138.043 4.925C137.813 5.055 137.668 5.24 137.608 5.48C137.578 5.6 137.508 5.65 137.398 5.63L135.943 5.45C135.893 5.44 135.848 5.425 135.808 5.405C135.778 5.375 135.768 5.34 135.778 5.3C135.858 4.69 136.183 4.19 136.753 3.8C137.333 3.41 138.058 3.215 138.928 3.215ZM138.568 9.74C139.058 9.74 139.478 9.61 139.828 9.35C140.178 9.09 140.353 8.76 140.353 8.36V7.655C140.353 7.605 140.328 7.58 140.278 7.58H139.018C138.488 7.58 138.068 7.68 137.758 7.88C137.458 8.08 137.308 8.365 137.308 8.735C137.308 9.055 137.423 9.305 137.653 9.485C137.893 9.655 138.198 9.74 138.568 9.74ZM5.685 17.68C5.685 17.63 5.7 17.59 5.73 17.56C5.77 17.52 5.815 17.5 5.865 17.5H7.245C7.295 17.5 7.335 17.52 7.365 17.56C7.405 17.59 7.425 17.63 7.425 17.68V27.82C7.425 27.87 7.405 27.915 7.365 27.955C7.335 27.985 7.295 28 7.245 28H5.865C5.815 28 5.77 27.985 5.73 27.955C5.7 27.915 5.685 27.87 5.685 27.82V27.37C5.685 27.34 5.675 27.32 5.655 27.31C5.635 27.3 5.615 27.31 5.595 27.34C5.155 27.86 4.58 28.12 3.87 28.12C3.16 28.12 2.56 27.935 2.07 27.565C1.58 27.195 1.225 26.68 1.005 26.02C0.825 25.46 0.735 24.835 0.735 24.145C0.735 23.435 0.82 22.825 0.99 22.315C1.21 21.655 1.565 21.14 2.055 20.77C2.545 20.4 3.16 20.215 3.9 20.215C4.59 20.215 5.155 20.465 5.595 20.965C5.615 20.985 5.635 20.995 5.655 20.995C5.675 20.985 5.685 20.965 5.685 20.935V17.68ZM5.325 25.9C5.555 25.49 5.67 24.91 5.67 24.16C5.67 23.38 5.545 22.785 5.295 22.375C5.025 21.935 4.645 21.715 4.155 21.715C3.645 21.715 3.245 21.925 2.955 22.345C2.655 22.785 2.505 23.395 2.505 24.175C2.505 24.875 2.625 25.45 2.865 25.9C3.145 26.38 3.57 26.62 4.14 26.62C4.65 26.62 5.045 26.38 5.325 25.9ZM15.7739 23.305C15.8139 23.555 15.8339 23.835 15.8339 24.145L15.8189 24.61C15.8189 24.73 15.7589 24.79 15.6389 24.79H10.9439C10.8939 24.79 10.8689 24.815 10.8689 24.865C10.8989 25.195 10.9439 25.42 11.0039 25.54C11.2439 26.26 11.8289 26.625 12.7589 26.635C13.4389 26.635 13.9789 26.355 14.3789 25.795C14.4189 25.735 14.4689 25.705 14.5289 25.705C14.5689 25.705 14.6039 25.72 14.6339 25.75L15.5639 26.515C15.6539 26.585 15.6689 26.665 15.6089 26.755C15.2989 27.195 14.8839 27.535 14.3639 27.775C13.8539 28.015 13.2839 28.135 12.6539 28.135C11.8739 28.135 11.2089 27.96 10.6589 27.61C10.1189 27.26 9.72391 26.77 9.47391 26.14C9.24391 25.6 9.12891 24.85 9.12891 23.89C9.12891 23.31 9.18891 22.84 9.30891 22.48C9.50891 21.78 9.88391 21.23 10.4339 20.83C10.9939 20.42 11.6639 20.215 12.4439 20.215C14.4139 20.215 15.5239 21.245 15.7739 23.305ZM12.4439 21.715C12.0739 21.715 11.7639 21.81 11.5139 22C11.2739 22.18 11.1039 22.435 11.0039 22.765C10.9439 22.935 10.9039 23.155 10.8839 23.425C10.8639 23.475 10.8839 23.5 10.9439 23.5H13.9889C14.0389 23.5 14.0639 23.475 14.0639 23.425C14.0439 23.175 14.0139 22.985 13.9739 22.855C13.8839 22.495 13.7039 22.215 13.4339 22.015C13.1739 21.815 12.8439 21.715 12.4439 21.715ZM22.4971 28C22.3971 28 22.3321 27.95 22.3021 27.85L19.8871 20.53C19.8771 20.51 19.8721 20.485 19.8721 20.455C19.8721 20.365 19.9271 20.32 20.0371 20.32H21.5671C21.6771 20.32 21.7471 20.37 21.7771 20.47L23.2321 25.48C23.2421 25.51 23.2571 25.525 23.2771 25.525C23.2971 25.525 23.3121 25.51 23.3221 25.48L24.7771 20.47C24.8071 20.37 24.8771 20.32 24.9871 20.32L26.5171 20.35C26.5771 20.35 26.6221 20.37 26.6521 20.41C26.6821 20.44 26.6871 20.49 26.6671 20.56L24.2671 27.85C24.2371 27.95 24.1721 28 24.0721 28H22.4971ZM34.0405 23.305C34.0805 23.555 34.1005 23.835 34.1005 24.145L34.0855 24.61C34.0855 24.73 34.0255 24.79 33.9055 24.79H29.2105C29.1605 24.79 29.1355 24.815 29.1355 24.865C29.1655 25.195 29.2105 25.42 29.2705 25.54C29.5105 26.26 30.0955 26.625 31.0255 26.635C31.7055 26.635 32.2455 26.355 32.6455 25.795C32.6855 25.735 32.7355 25.705 32.7955 25.705C32.8355 25.705 32.8705 25.72 32.9005 25.75L33.8305 26.515C33.9205 26.585 33.9355 26.665 33.8755 26.755C33.5655 27.195 33.1505 27.535 32.6305 27.775C32.1205 28.015 31.5505 28.135 30.9205 28.135C30.1405 28.135 29.4755 27.96 28.9255 27.61C28.3855 27.26 27.9905 26.77 27.7405 26.14C27.5105 25.6 27.3955 24.85 27.3955 23.89C27.3955 23.31 27.4555 22.84 27.5755 22.48C27.7755 21.78 28.1505 21.23 28.7005 20.83C29.2605 20.42 29.9305 20.215 30.7105 20.215C32.6805 20.215 33.7905 21.245 34.0405 23.305ZM30.7105 21.715C30.3405 21.715 30.0305 21.81 29.7805 22C29.5405 22.18 29.3705 22.435 29.2705 22.765C29.2105 22.935 29.1705 23.155 29.1505 23.425C29.1305 23.475 29.1505 23.5 29.2105 23.5H32.2555C32.3055 23.5 32.3305 23.475 32.3305 23.425C32.3105 23.175 32.2805 22.985 32.2405 22.855C32.1505 22.495 31.9705 22.215 31.7005 22.015C31.4405 21.815 31.1105 21.715 30.7105 21.715ZM39.2607 20.245C39.5807 20.245 39.8607 20.31 40.1007 20.44C40.1807 20.48 40.2107 20.555 40.1907 20.665L39.9357 22.015C39.9257 22.135 39.8557 22.17 39.7257 22.12C39.5757 22.07 39.4007 22.045 39.2007 22.045C39.0707 22.045 38.9707 22.05 38.9007 22.06C38.4807 22.08 38.1307 22.23 37.8507 22.51C37.5707 22.78 37.4307 23.135 37.4307 23.575V27.82C37.4307 27.87 37.4107 27.915 37.3707 27.955C37.3407 27.985 37.3007 28 37.2507 28H35.8707C35.8207 28 35.7757 27.985 35.7357 27.955C35.7057 27.915 35.6907 27.87 35.6907 27.82V20.515C35.6907 20.465 35.7057 20.425 35.7357 20.395C35.7757 20.355 35.8207 20.335 35.8707 20.335H37.2507C37.3007 20.335 37.3407 20.355 37.3707 20.395C37.4107 20.425 37.4307 20.465 37.4307 20.515V21.19C37.4307 21.23 37.4357 21.255 37.4457 21.265C37.4657 21.265 37.4857 21.25 37.5057 21.22C37.9257 20.57 38.5107 20.245 39.2607 20.245ZM50.7983 23.305C50.8383 23.555 50.8583 23.835 50.8583 24.145L50.8433 24.61C50.8433 24.73 50.7833 24.79 50.6633 24.79H45.9683C45.9183 24.79 45.8933 24.815 45.8933 24.865C45.9233 25.195 45.9683 25.42 46.0283 25.54C46.2683 26.26 46.8533 26.625 47.7833 26.635C48.4633 26.635 49.0033 26.355 49.4033 25.795C49.4433 25.735 49.4933 25.705 49.5533 25.705C49.5933 25.705 49.6283 25.72 49.6583 25.75L50.5883 26.515C50.6783 26.585 50.6933 26.665 50.6333 26.755C50.3233 27.195 49.9083 27.535 49.3883 27.775C48.8783 28.015 48.3083 28.135 47.6783 28.135C46.8983 28.135 46.2333 27.96 45.6833 27.61C45.1433 27.26 44.7483 26.77 44.4983 26.14C44.2683 25.6 44.1533 24.85 44.1533 23.89C44.1533 23.31 44.2133 22.84 44.3333 22.48C44.5333 21.78 44.9083 21.23 45.4583 20.83C46.0183 20.42 46.6883 20.215 47.4683 20.215C49.4383 20.215 50.5483 21.245 50.7983 23.305ZM47.4683 21.715C47.0983 21.715 46.7883 21.81 46.5383 22C46.2983 22.18 46.1283 22.435 46.0283 22.765C45.9683 22.935 45.9283 23.155 45.9083 23.425C45.8883 23.475 45.9083 23.5 45.9683 23.5H49.0133C49.0633 23.5 49.0883 23.475 49.0883 23.425C49.0683 23.175 49.0383 22.985 48.9983 22.855C48.9083 22.495 48.7283 22.215 48.4583 22.015C48.1983 21.815 47.8683 21.715 47.4683 21.715ZM52.6286 28C52.5786 28 52.5336 27.985 52.4936 27.955C52.4636 27.915 52.4486 27.87 52.4486 27.82V17.68C52.4486 17.63 52.4636 17.59 52.4936 17.56C52.5336 17.52 52.5786 17.5 52.6286 17.5H54.0086C54.0586 17.5 54.0986 17.52 54.1286 17.56C54.1686 17.59 54.1886 17.63 54.1886 17.68V27.82C54.1886 27.87 54.1686 27.915 54.1286 27.955C54.0986 27.985 54.0586 28 54.0086 28H52.6286ZM61.9654 20.215C62.5954 20.215 63.1504 20.325 63.6304 20.545C64.1104 20.765 64.4804 21.07 64.7404 21.46C65.0004 21.84 65.1304 22.275 65.1304 22.765V27.82C65.1304 27.87 65.1104 27.915 65.0704 27.955C65.0404 27.985 65.0004 28 64.9504 28H63.5704C63.5204 28 63.4754 27.985 63.4354 27.955C63.4054 27.915 63.3904 27.87 63.3904 27.82V27.34C63.3904 27.31 63.3804 27.295 63.3604 27.295C63.3404 27.285 63.3204 27.29 63.3004 27.31C62.8104 27.85 62.1004 28.12 61.1704 28.12C60.4204 28.12 59.8004 27.93 59.3104 27.55C58.8304 27.17 58.5904 26.605 58.5904 25.855C58.5904 25.075 58.8604 24.47 59.4004 24.04C59.9504 23.6 60.7204 23.38 61.7104 23.38H63.3154C63.3654 23.38 63.3904 23.355 63.3904 23.305V22.945C63.3904 22.555 63.2754 22.255 63.0454 22.045C62.8154 21.825 62.4704 21.715 62.0104 21.715C61.6304 21.715 61.3204 21.785 61.0804 21.925C60.8504 22.055 60.7054 22.24 60.6454 22.48C60.6154 22.6 60.5454 22.65 60.4354 22.63L58.9804 22.45C58.9304 22.44 58.8854 22.425 58.8454 22.405C58.8154 22.375 58.8054 22.34 58.8154 22.3C58.8954 21.69 59.2204 21.19 59.7904 20.8C60.3704 20.41 61.0954 20.215 61.9654 20.215ZM61.6054 26.74C62.0954 26.74 62.5154 26.61 62.8654 26.35C63.2154 26.09 63.3904 25.76 63.3904 25.36V24.655C63.3904 24.605 63.3654 24.58 63.3154 24.58H62.0554C61.5254 24.58 61.1054 24.68 60.7954 24.88C60.4954 25.08 60.3454 25.365 60.3454 25.735C60.3454 26.055 60.4604 26.305 60.6904 26.485C60.9304 26.655 61.2354 26.74 61.6054 26.74ZM75.0823 20.215C75.8523 20.215 76.4523 20.45 76.8823 20.92C77.3223 21.38 77.5423 22.025 77.5423 22.855V27.82C77.5423 27.87 77.5223 27.915 77.4823 27.955C77.4523 27.985 77.4123 28 77.3623 28H75.9973C75.9473 28 75.9023 27.985 75.8623 27.955C75.8323 27.915 75.8173 27.87 75.8173 27.82V23.215C75.8173 22.755 75.6923 22.39 75.4423 22.12C75.2023 21.85 74.8773 21.715 74.4673 21.715C74.0573 21.715 73.7223 21.85 73.4623 22.12C73.2023 22.39 73.0723 22.75 73.0723 23.2V27.82C73.0723 27.87 73.0523 27.915 73.0123 27.955C72.9823 27.985 72.9423 28 72.8923 28H71.5273C71.4773 28 71.4323 27.985 71.3923 27.955C71.3623 27.915 71.3473 27.87 71.3473 27.82V23.215C71.3473 22.755 71.2223 22.39 70.9723 22.12C70.7223 21.85 70.3923 21.715 69.9823 21.715C69.6023 21.715 69.2873 21.825 69.0373 22.045C68.7973 22.265 68.6573 22.565 68.6173 22.945V27.82C68.6173 27.87 68.5973 27.915 68.5573 27.955C68.5273 27.985 68.4873 28 68.4373 28H67.0573C67.0073 28 66.9623 27.985 66.9223 27.955C66.8923 27.915 66.8773 27.87 66.8773 27.82V20.515C66.8773 20.465 66.8923 20.425 66.9223 20.395C66.9623 20.355 67.0073 20.335 67.0573 20.335H68.4373C68.4873 20.335 68.5273 20.355 68.5573 20.395C68.5973 20.425 68.6173 20.465 68.6173 20.515V21.01C68.6173 21.04 68.6273 21.06 68.6473 21.07C68.6673 21.08 68.6873 21.07 68.7073 21.04C68.9273 20.76 69.1973 20.555 69.5173 20.425C69.8473 20.285 70.2123 20.215 70.6123 20.215C71.1023 20.215 71.5323 20.315 71.9023 20.515C72.2723 20.715 72.5573 21.005 72.7573 21.385C72.7873 21.425 72.8223 21.425 72.8623 21.385C73.0823 20.985 73.3873 20.69 73.7773 20.5C74.1673 20.31 74.6023 20.215 75.0823 20.215ZM82.2388 20.215C82.8688 20.215 83.4238 20.325 83.9038 20.545C84.3838 20.765 84.7538 21.07 85.0138 21.46C85.2738 21.84 85.4038 22.275 85.4038 22.765V27.82C85.4038 27.87 85.3838 27.915 85.3438 27.955C85.3138 27.985 85.2738 28 85.2238 28H83.8438C83.7938 28 83.7488 27.985 83.7088 27.955C83.6788 27.915 83.6638 27.87 83.6638 27.82V27.34C83.6638 27.31 83.6538 27.295 83.6338 27.295C83.6138 27.285 83.5938 27.29 83.5738 27.31C83.0838 27.85 82.3738 28.12 81.4438 28.12C80.6938 28.12 80.0738 27.93 79.5838 27.55C79.1038 27.17 78.8638 26.605 78.8638 25.855C78.8638 25.075 79.1338 24.47 79.6738 24.04C80.2238 23.6 80.9938 23.38 81.9838 23.38H83.5888C83.6388 23.38 83.6638 23.355 83.6638 23.305V22.945C83.6638 22.555 83.5488 22.255 83.3188 22.045C83.0888 21.825 82.7438 21.715 82.2838 21.715C81.9038 21.715 81.5938 21.785 81.3538 21.925C81.1238 22.055 80.9788 22.24 80.9188 22.48C80.8888 22.6 80.8188 22.65 80.7088 22.63L79.2538 22.45C79.2038 22.44 79.1588 22.425 79.1188 22.405C79.0888 22.375 79.0788 22.34 79.0888 22.3C79.1688 21.69 79.4938 21.19 80.0638 20.8C80.6438 20.41 81.3688 20.215 82.2388 20.215ZM81.8788 26.74C82.3688 26.74 82.7888 26.61 83.1388 26.35C83.4888 26.09 83.6638 25.76 83.6638 25.36V24.655C83.6638 24.605 83.6388 24.58 83.5888 24.58H82.3288C81.7988 24.58 81.3788 24.68 81.0688 24.88C80.7688 25.08 80.6188 25.365 80.6188 25.735C80.6188 26.055 80.7338 26.305 80.9638 26.485C81.2038 26.655 81.5088 26.74 81.8788 26.74ZM90.8257 20.215C91.6357 20.215 92.2807 20.455 92.7607 20.935C93.2507 21.415 93.4957 22.07 93.4957 22.9V27.82C93.4957 27.87 93.4757 27.915 93.4357 27.955C93.4057 27.985 93.3657 28 93.3157 28H91.9357C91.8857 28 91.8407 27.985 91.8007 27.955C91.7707 27.915 91.7557 27.87 91.7557 27.82V23.26C91.7557 22.8 91.6257 22.43 91.3657 22.15C91.1057 21.86 90.7607 21.715 90.3307 21.715C89.9007 21.715 89.5507 21.855 89.2807 22.135C89.0207 22.415 88.8907 22.785 88.8907 23.245V27.82C88.8907 27.87 88.8707 27.915 88.8307 27.955C88.8007 27.985 88.7607 28 88.7107 28H87.3307C87.2807 28 87.2357 27.985 87.1957 27.955C87.1657 27.915 87.1507 27.87 87.1507 27.82V20.515C87.1507 20.465 87.1657 20.425 87.1957 20.395C87.2357 20.355 87.2807 20.335 87.3307 20.335H88.7107C88.7607 20.335 88.8007 20.355 88.8307 20.395C88.8707 20.425 88.8907 20.465 88.8907 20.515V20.995C88.8907 21.025 88.9007 21.045 88.9207 21.055C88.9407 21.065 88.9557 21.055 88.9657 21.025C89.3757 20.485 89.9957 20.215 90.8257 20.215ZM101.716 23.305C101.756 23.555 101.776 23.835 101.776 24.145L101.761 24.61C101.761 24.73 101.701 24.79 101.581 24.79H96.8863C96.8363 24.79 96.8113 24.815 96.8113 24.865C96.8413 25.195 96.8863 25.42 96.9463 25.54C97.1863 26.26 97.7713 26.625 98.7013 26.635C99.3813 26.635 99.9213 26.355 100.321 25.795C100.361 25.735 100.411 25.705 100.471 25.705C100.511 25.705 100.546 25.72 100.576 25.75L101.506 26.515C101.596 26.585 101.611 26.665 101.551 26.755C101.241 27.195 100.826 27.535 100.306 27.775C99.7963 28.015 99.2263 28.135 98.5963 28.135C97.8163 28.135 97.1513 27.96 96.6013 27.61C96.0613 27.26 95.6663 26.77 95.4163 26.14C95.1863 25.6 95.0713 24.85 95.0713 23.89C95.0713 23.31 95.1313 22.84 95.2513 22.48C95.4513 21.78 95.8263 21.23 96.3763 20.83C96.9363 20.42 97.6063 20.215 98.3863 20.215C100.356 20.215 101.466 21.245 101.716 23.305ZM98.3863 21.715C98.0163 21.715 97.7063 21.81 97.4563 22C97.2163 22.18 97.0463 22.435 96.9463 22.765C96.8863 22.935 96.8463 23.155 96.8263 23.425C96.8063 23.475 96.8263 23.5 96.8863 23.5H99.9313C99.9813 23.5 100.006 23.475 100.006 23.425C99.9863 23.175 99.9563 22.985 99.9163 22.855C99.8263 22.495 99.6463 22.215 99.3763 22.015C99.1163 21.815 98.7863 21.715 98.3863 21.715ZM106.562 28.12C105.792 28.12 105.127 27.925 104.567 27.535C104.007 27.135 103.617 26.6 103.397 25.93C103.237 25.48 103.157 24.88 103.157 24.13C103.157 23.41 103.237 22.82 103.397 22.36C103.607 21.7 103.992 21.18 104.552 20.8C105.122 20.41 105.792 20.215 106.562 20.215C107.342 20.215 108.022 20.41 108.602 20.8C109.182 21.19 109.567 21.68 109.757 22.27C109.807 22.43 109.842 22.59 109.862 22.75V22.78C109.862 22.88 109.807 22.94 109.697 22.96L108.347 23.155H108.317C108.227 23.155 108.167 23.105 108.137 23.005C108.137 22.955 108.132 22.915 108.122 22.885C108.102 22.805 108.082 22.735 108.062 22.675C107.972 22.395 107.792 22.165 107.522 21.985C107.252 21.805 106.932 21.715 106.562 21.715C106.182 21.715 105.857 21.815 105.587 22.015C105.327 22.205 105.152 22.47 105.062 22.81C104.962 23.13 104.912 23.575 104.912 24.145C104.912 24.695 104.957 25.14 105.047 25.48C105.147 25.83 105.327 26.11 105.587 26.32C105.847 26.52 106.172 26.62 106.562 26.62C106.942 26.62 107.267 26.525 107.537 26.335C107.817 26.135 107.997 25.87 108.077 25.54C108.087 25.52 108.092 25.495 108.092 25.465C108.102 25.455 108.107 25.44 108.107 25.42C108.137 25.3 108.207 25.25 108.317 25.27L109.667 25.48C109.717 25.49 109.757 25.515 109.787 25.555C109.827 25.585 109.842 25.63 109.832 25.69C109.802 25.85 109.777 25.965 109.757 26.035C109.567 26.675 109.182 27.185 108.602 27.565C108.022 27.935 107.342 28.12 106.562 28.12ZM117.727 23.305C117.767 23.555 117.787 23.835 117.787 24.145L117.772 24.61C117.772 24.73 117.712 24.79 117.592 24.79H112.897C112.847 24.79 112.822 24.815 112.822 24.865C112.852 25.195 112.897 25.42 112.957 25.54C113.197 26.26 113.782 26.625 114.712 26.635C115.392 26.635 115.932 26.355 116.332 25.795C116.372 25.735 116.422 25.705 116.482 25.705C116.522 25.705 116.557 25.72 116.587 25.75L117.517 26.515C117.607 26.585 117.622 26.665 117.562 26.755C117.252 27.195 116.837 27.535 116.317 27.775C115.807 28.015 115.237 28.135 114.607 28.135C113.827 28.135 113.162 27.96 112.612 27.61C112.072 27.26 111.677 26.77 111.427 26.14C111.197 25.6 111.082 24.85 111.082 23.89C111.082 23.31 111.142 22.84 111.262 22.48C111.462 21.78 111.837 21.23 112.387 20.83C112.947 20.42 113.617 20.215 114.397 20.215C116.367 20.215 117.477 21.245 117.727 23.305ZM114.397 21.715C114.027 21.715 113.717 21.81 113.467 22C113.227 22.18 113.057 22.435 112.957 22.765C112.897 22.935 112.857 23.155 112.837 23.425C112.817 23.475 112.837 23.5 112.897 23.5H115.942C115.992 23.5 116.017 23.475 116.017 23.425C115.997 23.175 115.967 22.985 115.927 22.855C115.837 22.495 115.657 22.215 115.387 22.015C115.127 21.815 114.797 21.715 114.397 21.715ZM122.947 20.245C123.267 20.245 123.547 20.31 123.787 20.44C123.867 20.48 123.897 20.555 123.877 20.665L123.622 22.015C123.612 22.135 123.542 22.17 123.412 22.12C123.262 22.07 123.087 22.045 122.887 22.045C122.757 22.045 122.657 22.05 122.587 22.06C122.167 22.08 121.817 22.23 121.537 22.51C121.257 22.78 121.117 23.135 121.117 23.575V27.82C121.117 27.87 121.097 27.915 121.057 27.955C121.027 27.985 120.987 28 120.937 28H119.557C119.507 28 119.462 27.985 119.422 27.955C119.392 27.915 119.377 27.87 119.377 27.82V20.515C119.377 20.465 119.392 20.425 119.422 20.395C119.462 20.355 119.507 20.335 119.557 20.335H120.937C120.987 20.335 121.027 20.355 121.057 20.395C121.097 20.425 121.117 20.465 121.117 20.515V21.19C121.117 21.23 121.122 21.255 121.132 21.265C121.152 21.265 121.172 21.25 121.192 21.22C121.612 20.57 122.197 20.245 122.947 20.245ZM134.485 23.305C134.525 23.555 134.545 23.835 134.545 24.145L134.53 24.61C134.53 24.73 134.47 24.79 134.35 24.79H129.655C129.605 24.79 129.58 24.815 129.58 24.865C129.61 25.195 129.655 25.42 129.715 25.54C129.955 26.26 130.54 26.625 131.47 26.635C132.15 26.635 132.69 26.355 133.09 25.795C133.13 25.735 133.18 25.705 133.24 25.705C133.28 25.705 133.315 25.72 133.345 25.75L134.275 26.515C134.365 26.585 134.38 26.665 134.32 26.755C134.01 27.195 133.595 27.535 133.075 27.775C132.565 28.015 131.995 28.135 131.365 28.135C130.585 28.135 129.92 27.96 129.37 27.61C128.83 27.26 128.435 26.77 128.185 26.14C127.955 25.6 127.84 24.85 127.84 23.89C127.84 23.31 127.9 22.84 128.02 22.48C128.22 21.78 128.595 21.23 129.145 20.83C129.705 20.42 130.375 20.215 131.155 20.215C133.125 20.215 134.235 21.245 134.485 23.305ZM131.155 21.715C130.785 21.715 130.475 21.81 130.225 22C129.985 22.18 129.815 22.435 129.715 22.765C129.655 22.935 129.615 23.155 129.595 23.425C129.575 23.475 129.595 23.5 129.655 23.5H132.7C132.75 23.5 132.775 23.475 132.775 23.425C132.755 23.175 132.725 22.985 132.685 22.855C132.595 22.495 132.415 22.215 132.145 22.015C131.885 21.815 131.555 21.715 131.155 21.715ZM139.81 20.215C140.62 20.215 141.265 20.455 141.745 20.935C142.235 21.415 142.48 22.07 142.48 22.9V27.82C142.48 27.87 142.46 27.915 142.42 27.955C142.39 27.985 142.35 28 142.3 28H140.92C140.87 28 140.825 27.985 140.785 27.955C140.755 27.915 140.74 27.87 140.74 27.82V23.26C140.74 22.8 140.61 22.43 140.35 22.15C140.09 21.86 139.745 21.715 139.315 21.715C138.885 21.715 138.535 21.855 138.265 22.135C138.005 22.415 137.875 22.785 137.875 23.245V27.82C137.875 27.87 137.855 27.915 137.815 27.955C137.785 27.985 137.745 28 137.695 28H136.315C136.265 28 136.22 27.985 136.18 27.955C136.15 27.915 136.135 27.87 136.135 27.82V20.515C136.135 20.465 136.15 20.425 136.18 20.395C136.22 20.355 136.265 20.335 136.315 20.335H137.695C137.745 20.335 137.785 20.355 137.815 20.395C137.855 20.425 137.875 20.465 137.875 20.515V20.995C137.875 21.025 137.885 21.045 137.905 21.055C137.925 21.065 137.94 21.055 137.95 21.025C138.36 20.485 138.98 20.215 139.81 20.215ZM0.66 45C0.59 45 0.54 44.985 0.51 44.955C0.49 44.915 0.5 44.86 0.54 44.79L3.525 39.795C3.545 39.765 3.545 39.735 3.525 39.705L0.54 34.71C0.52 34.65 0.51 34.615 0.51 34.605C0.51 34.535 0.56 34.5 0.66 34.5H2.16C2.27 34.5 2.345 34.54 2.385 34.62L4.575 38.34C4.605 38.4 4.635 38.4 4.665 38.34L6.87 34.62C6.91 34.54 6.98 34.5 7.08 34.5H8.58C8.65 34.5 8.695 34.52 8.715 34.56C8.745 34.59 8.74 34.64 8.7 34.71L5.715 39.705C5.705 39.735 5.705 39.765 5.715 39.795L8.7 44.79C8.72 44.85 8.73 44.885 8.73 44.895C8.73 44.965 8.68 45 8.58 45H7.08C6.98 45 6.91 44.96 6.87 44.88L4.665 41.175C4.635 41.115 4.605 41.115 4.575 41.175L2.37 44.88C2.33 44.96 2.26 45 2.16 45H0.66ZM12.9887 45.12C12.1987 45.12 11.5187 44.92 10.9487 44.52C10.3887 44.12 9.99371 43.565 9.76371 42.855C9.59371 42.315 9.50871 41.745 9.50871 41.145C9.50871 40.505 9.58871 39.935 9.74871 39.435C9.97871 38.735 10.3787 38.19 10.9487 37.8C11.5187 37.41 12.2037 37.215 13.0037 37.215C13.7637 37.215 14.4187 37.41 14.9687 37.8C15.5287 38.19 15.9237 38.73 16.1537 39.42C16.3337 39.9 16.4237 40.47 16.4237 41.13C16.4237 41.76 16.3387 42.33 16.1687 42.84C15.9387 43.55 15.5437 44.11 14.9837 44.52C14.4237 44.92 13.7587 45.12 12.9887 45.12ZM12.9887 43.62C13.3587 43.62 13.6737 43.515 13.9337 43.305C14.2037 43.095 14.3987 42.8 14.5187 42.42C14.6187 42.09 14.6687 41.67 14.6687 41.16C14.6687 40.62 14.6187 40.2 14.5187 39.9C14.4087 39.52 14.2187 39.23 13.9487 39.03C13.6787 38.82 13.3487 38.715 12.9587 38.715C12.5887 38.715 12.2687 38.82 11.9987 39.03C11.7287 39.23 11.5337 39.52 11.4137 39.9C11.3137 40.25 11.2637 40.67 11.2637 41.16C11.2637 41.65 11.3137 42.07 11.4137 42.42C11.5237 42.8 11.7137 43.095 11.9837 43.305C12.2637 43.515 12.5987 43.62 12.9887 43.62ZM21.2637 45.12C20.4937 45.12 19.8287 44.925 19.2687 44.535C18.7087 44.135 18.3187 43.6 18.0987 42.93C17.9387 42.48 17.8587 41.88 17.8587 41.13C17.8587 40.41 17.9387 39.82 18.0987 39.36C18.3087 38.7 18.6937 38.18 19.2537 37.8C19.8237 37.41 20.4937 37.215 21.2637 37.215C22.0437 37.215 22.7237 37.41 23.3037 37.8C23.8837 38.19 24.2687 38.68 24.4587 39.27C24.5087 39.43 24.5437 39.59 24.5637 39.75V39.78C24.5637 39.88 24.5087 39.94 24.3987 39.96L23.0487 40.155H23.0187C22.9287 40.155 22.8687 40.105 22.8387 40.005C22.8387 39.955 22.8337 39.915 22.8237 39.885C22.8037 39.805 22.7837 39.735 22.7637 39.675C22.6737 39.395 22.4937 39.165 22.2237 38.985C21.9537 38.805 21.6337 38.715 21.2637 38.715C20.8837 38.715 20.5587 38.815 20.2887 39.015C20.0287 39.205 19.8537 39.47 19.7637 39.81C19.6637 40.13 19.6137 40.575 19.6137 41.145C19.6137 41.695 19.6587 42.14 19.7487 42.48C19.8487 42.83 20.0287 43.11 20.2887 43.32C20.5487 43.52 20.8737 43.62 21.2637 43.62C21.6437 43.62 21.9687 43.525 22.2387 43.335C22.5187 43.135 22.6987 42.87 22.7787 42.54C22.7887 42.52 22.7937 42.495 22.7937 42.465C22.8037 42.455 22.8087 42.44 22.8087 42.42C22.8387 42.3 22.9087 42.25 23.0187 42.27L24.3687 42.48C24.4187 42.49 24.4587 42.515 24.4887 42.555C24.5287 42.585 24.5437 42.63 24.5337 42.69C24.5037 42.85 24.4787 42.965 24.4587 43.035C24.2687 43.675 23.8837 44.185 23.3037 44.565C22.7237 44.935 22.0437 45.12 21.2637 45.12ZM29.7124 37.215C30.5224 37.215 31.1674 37.455 31.6474 37.935C32.1374 38.415 32.3824 39.07 32.3824 39.9V44.82C32.3824 44.87 32.3624 44.915 32.3224 44.955C32.2924 44.985 32.2524 45 32.2024 45H30.8224C30.7724 45 30.7274 44.985 30.6874 44.955C30.6574 44.915 30.6424 44.87 30.6424 44.82V40.26C30.6424 39.8 30.5124 39.43 30.2524 39.15C29.9924 38.86 29.6474 38.715 29.2174 38.715C28.7874 38.715 28.4374 38.855 28.1674 39.135C27.9074 39.415 27.7774 39.785 27.7774 40.245V44.82C27.7774 44.87 27.7574 44.915 27.7174 44.955C27.6874 44.985 27.6474 45 27.5974 45H26.2174C26.1674 45 26.1224 44.985 26.0824 44.955C26.0524 44.915 26.0374 44.87 26.0374 44.82V34.68C26.0374 34.63 26.0524 34.59 26.0824 34.56C26.1224 34.52 26.1674 34.5 26.2174 34.5H27.5974C27.6474 34.5 27.6874 34.52 27.7174 34.56C27.7574 34.59 27.7774 34.63 27.7774 34.68V37.995C27.7774 38.025 27.7874 38.045 27.8074 38.055C27.8274 38.065 27.8424 38.055 27.8524 38.025C28.2624 37.485 28.8824 37.215 29.7124 37.215ZM35.1866 36.285C34.8766 36.285 34.6216 36.185 34.4216 35.985C34.2216 35.785 34.1216 35.53 34.1216 35.22C34.1216 34.91 34.2216 34.655 34.4216 34.455C34.6216 34.255 34.8766 34.155 35.1866 34.155C35.4966 34.155 35.7516 34.255 35.9516 34.455C36.1516 34.655 36.2516 34.91 36.2516 35.22C36.2516 35.53 36.1516 35.785 35.9516 35.985C35.7516 36.185 35.4966 36.285 35.1866 36.285ZM34.4666 45C34.4166 45 34.3716 44.985 34.3316 44.955C34.3016 44.915 34.2866 44.87 34.2866 44.82V37.5C34.2866 37.45 34.3016 37.41 34.3316 37.38C34.3716 37.34 34.4166 37.32 34.4666 37.32H35.8466C35.8966 37.32 35.9366 37.34 35.9666 37.38C36.0066 37.41 36.0266 37.45 36.0266 37.5V44.82C36.0266 44.87 36.0066 44.915 35.9666 44.955C35.9366 44.985 35.8966 45 35.8466 45H34.4666ZM46.2248 37.215C46.9948 37.215 47.5948 37.45 48.0248 37.92C48.4648 38.38 48.6848 39.025 48.6848 39.855V44.82C48.6848 44.87 48.6648 44.915 48.6248 44.955C48.5948 44.985 48.5548 45 48.5048 45H47.1398C47.0898 45 47.0448 44.985 47.0048 44.955C46.9748 44.915 46.9598 44.87 46.9598 44.82V40.215C46.9598 39.755 46.8348 39.39 46.5848 39.12C46.3448 38.85 46.0198 38.715 45.6098 38.715C45.1998 38.715 44.8648 38.85 44.6048 39.12C44.3448 39.39 44.2148 39.75 44.2148 40.2V44.82C44.2148 44.87 44.1948 44.915 44.1548 44.955C44.1248 44.985 44.0848 45 44.0348 45H42.6698C42.6198 45 42.5748 44.985 42.5348 44.955C42.5048 44.915 42.4898 44.87 42.4898 44.82V40.215C42.4898 39.755 42.3648 39.39 42.1148 39.12C41.8648 38.85 41.5348 38.715 41.1248 38.715C40.7448 38.715 40.4298 38.825 40.1798 39.045C39.9398 39.265 39.7998 39.565 39.7598 39.945V44.82C39.7598 44.87 39.7398 44.915 39.6998 44.955C39.6698 44.985 39.6298 45 39.5798 45H38.1998C38.1498 45 38.1048 44.985 38.0648 44.955C38.0348 44.915 38.0198 44.87 38.0198 44.82V37.515C38.0198 37.465 38.0348 37.425 38.0648 37.395C38.1048 37.355 38.1498 37.335 38.1998 37.335H39.5798C39.6298 37.335 39.6698 37.355 39.6998 37.395C39.7398 37.425 39.7598 37.465 39.7598 37.515V38.01C39.7598 38.04 39.7698 38.06 39.7898 38.07C39.8098 38.08 39.8298 38.07 39.8498 38.04C40.0698 37.76 40.3398 37.555 40.6598 37.425C40.9898 37.285 41.3548 37.215 41.7548 37.215C42.2448 37.215 42.6748 37.315 43.0448 37.515C43.4148 37.715 43.6998 38.005 43.8998 38.385C43.9298 38.425 43.9648 38.425 44.0048 38.385C44.2248 37.985 44.5298 37.69 44.9198 37.5C45.3098 37.31 45.7448 37.215 46.2248 37.215ZM51.4464 36.285C51.1364 36.285 50.8814 36.185 50.6814 35.985C50.4814 35.785 50.3814 35.53 50.3814 35.22C50.3814 34.91 50.4814 34.655 50.6814 34.455C50.8814 34.255 51.1364 34.155 51.4464 34.155C51.7564 34.155 52.0114 34.255 52.2114 34.455C52.4114 34.655 52.5114 34.91 52.5114 35.22C52.5114 35.53 52.4114 35.785 52.2114 35.985C52.0114 36.185 51.7564 36.285 51.4464 36.285ZM50.7264 45C50.6764 45 50.6314 44.985 50.5914 44.955C50.5614 44.915 50.5464 44.87 50.5464 44.82V37.5C50.5464 37.45 50.5614 37.41 50.5914 37.38C50.6314 37.34 50.6764 37.32 50.7264 37.32H52.1064C52.1564 37.32 52.1964 37.34 52.2264 37.38C52.2664 37.41 52.2864 37.45 52.2864 37.5V44.82C52.2864 44.87 52.2664 44.915 52.2264 44.955C52.1964 44.985 52.1564 45 52.1064 45H50.7264ZM54.4596 45C54.4096 45 54.3646 44.985 54.3246 44.955C54.2946 44.915 54.2796 44.87 54.2796 44.82V34.68C54.2796 34.63 54.2946 34.59 54.3246 34.56C54.3646 34.52 54.4096 34.5 54.4596 34.5H55.8396C55.8896 34.5 55.9296 34.52 55.9596 34.56C55.9996 34.59 56.0196 34.63 56.0196 34.68V44.82C56.0196 44.87 55.9996 44.915 55.9596 44.955C55.9296 44.985 55.8896 45 55.8396 45H54.4596ZM61.0635 45.12C60.2935 45.12 59.6285 44.925 59.0685 44.535C58.5085 44.135 58.1185 43.6 57.8985 42.93C57.7385 42.48 57.6585 41.88 57.6585 41.13C57.6585 40.41 57.7385 39.82 57.8985 39.36C58.1085 38.7 58.4935 38.18 59.0535 37.8C59.6235 37.41 60.2935 37.215 61.0635 37.215C61.8435 37.215 62.5235 37.41 63.1035 37.8C63.6835 38.19 64.0685 38.68 64.2585 39.27C64.3085 39.43 64.3435 39.59 64.3635 39.75V39.78C64.3635 39.88 64.3085 39.94 64.1985 39.96L62.8485 40.155H62.8185C62.7285 40.155 62.6685 40.105 62.6385 40.005C62.6385 39.955 62.6335 39.915 62.6235 39.885C62.6035 39.805 62.5835 39.735 62.5635 39.675C62.4735 39.395 62.2935 39.165 62.0235 38.985C61.7535 38.805 61.4335 38.715 61.0635 38.715C60.6835 38.715 60.3585 38.815 60.0885 39.015C59.8285 39.205 59.6535 39.47 59.5635 39.81C59.4635 40.13 59.4135 40.575 59.4135 41.145C59.4135 41.695 59.4585 42.14 59.5485 42.48C59.6485 42.83 59.8285 43.11 60.0885 43.32C60.3485 43.52 60.6735 43.62 61.0635 43.62C61.4435 43.62 61.7685 43.525 62.0385 43.335C62.3185 43.135 62.4985 42.87 62.5785 42.54C62.5885 42.52 62.5935 42.495 62.5935 42.465C62.6035 42.455 62.6085 42.44 62.6085 42.42C62.6385 42.3 62.7085 42.25 62.8185 42.27L64.1685 42.48C64.2185 42.49 64.2585 42.515 64.2885 42.555C64.3285 42.585 64.3435 42.63 64.3335 42.69C64.3035 42.85 64.2785 42.965 64.2585 43.035C64.0685 43.675 63.6835 44.185 63.1035 44.565C62.5235 44.935 61.8435 45.12 61.0635 45.12ZM69.019 45.12C68.229 45.12 67.549 44.92 66.979 44.52C66.419 44.12 66.024 43.565 65.794 42.855C65.624 42.315 65.539 41.745 65.539 41.145C65.539 40.505 65.619 39.935 65.779 39.435C66.009 38.735 66.409 38.19 66.979 37.8C67.549 37.41 68.234 37.215 69.034 37.215C69.794 37.215 70.449 37.41 70.999 37.8C71.559 38.19 71.954 38.73 72.184 39.42C72.364 39.9 72.454 40.47 72.454 41.13C72.454 41.76 72.369 42.33 72.199 42.84C71.969 43.55 71.574 44.11 71.014 44.52C70.454 44.92 69.789 45.12 69.019 45.12ZM69.019 43.62C69.389 43.62 69.704 43.515 69.964 43.305C70.234 43.095 70.429 42.8 70.549 42.42C70.649 42.09 70.699 41.67 70.699 41.16C70.699 40.62 70.649 40.2 70.549 39.9C70.439 39.52 70.249 39.23 69.979 39.03C69.709 38.82 69.379 38.715 68.989 38.715C68.619 38.715 68.299 38.82 68.029 39.03C67.759 39.23 67.564 39.52 67.444 39.9C67.344 40.25 67.294 40.67 67.294 41.16C67.294 41.65 67.344 42.07 67.444 42.42C67.554 42.8 67.744 43.095 68.014 43.305C68.294 43.515 68.629 43.62 69.019 43.62ZM6.825 52.91C7.725 52.91 8.52 53.095 9.21 53.465C9.91 53.835 10.45 54.35 10.83 55.01C11.21 55.67 11.4 56.42 11.4 57.26C11.4 57.42 11.38 57.68 11.34 58.04C11.22 58.93 10.935 59.63 10.485 60.14C10.045 60.64 9.5 60.89 8.85 60.89C8.5 60.89 8.195 60.82 7.935 60.68C7.675 60.53 7.48 60.32 7.35 60.05C7.33 60 7.305 60 7.275 60.05C7.105 60.32 6.875 60.53 6.585 60.68C6.305 60.82 5.99 60.89 5.64 60.89C5.12 60.89 4.695 60.76 4.365 60.5C4.045 60.23 3.86 59.885 3.81 59.465C3.8 59.405 3.795 59.305 3.795 59.165C3.795 58.895 3.825 58.56 3.885 58.16C3.945 57.58 4.035 57.14 4.155 56.84C4.305 56.41 4.56 56.07 4.92 55.82C5.29 55.56 5.705 55.43 6.165 55.43C6.755 55.43 7.2 55.63 7.5 56.03C7.52 56.05 7.535 56.06 7.545 56.06C7.565 56.06 7.575 56.045 7.575 56.015L7.62 55.64C7.63 55.55 7.68 55.505 7.77 55.505H8.085C8.135 55.505 8.175 55.525 8.205 55.565C8.235 55.595 8.245 55.63 8.235 55.67L7.815 58.88C7.805 58.93 7.8 59.005 7.8 59.105C7.8 59.465 7.9 59.76 8.1 59.99C8.31 60.22 8.585 60.335 8.925 60.335C9.365 60.335 9.745 60.135 10.065 59.735C10.385 59.335 10.6 58.78 10.71 58.07C10.75 57.83 10.77 57.57 10.77 57.29C10.77 56.52 10.6 55.85 10.26 55.28C9.92 54.7 9.445 54.255 8.835 53.945C8.225 53.635 7.535 53.48 6.765 53.48C5.915 53.48 5.1 53.675 4.32 54.065C3.54 54.445 2.9 55.025 2.4 55.805C1.91 56.585 1.665 57.535 1.665 58.655C1.665 59.455 1.815 60.17 2.115 60.8C2.415 61.43 2.86 61.925 3.45 62.285C4.04 62.645 4.745 62.825 5.565 62.825C6.065 62.825 6.55 62.765 7.02 62.645C7.5 62.525 7.865 62.38 8.115 62.21C8.145 62.19 8.18 62.18 8.22 62.18C8.26 62.18 8.295 62.2 8.325 62.24L8.475 62.42C8.495 62.44 8.505 62.47 8.505 62.51C8.505 62.56 8.485 62.6 8.445 62.63C8.135 62.87 7.705 63.06 7.155 63.2C6.605 63.34 6.05 63.41 5.49 63.41C4.57 63.41 3.775 63.2 3.105 62.78C2.435 62.37 1.925 61.8 1.575 61.07C1.225 60.34 1.05 59.505 1.05 58.565C1.05 57.375 1.33 56.355 1.89 55.505C2.45 54.645 3.17 54 4.05 53.57C4.94 53.13 5.865 52.91 6.825 52.91ZM5.67 60.335C6.01 60.335 6.305 60.235 6.555 60.035C6.815 59.825 6.995 59.565 7.095 59.255C7.155 59.105 7.2 58.9 7.23 58.64L7.335 57.815C7.365 57.575 7.38 57.315 7.38 57.035C7.37 56.725 7.26 56.47 7.05 56.27C6.84 56.07 6.56 55.97 6.21 55.97C5.86 55.97 5.55 56.07 5.28 56.27C5.02 56.47 4.83 56.72 4.71 57.02C4.66 57.13 4.62 57.26 4.59 57.41C4.56 57.55 4.525 57.8 4.485 58.16C4.425 58.7 4.4 59.065 4.41 59.255C4.43 59.575 4.55 59.835 4.77 60.035C5 60.235 5.3 60.335 5.67 60.335ZM23.6741 52.055C23.6741 52.155 23.6241 52.205 23.5241 52.205H17.8391C17.7991 52.205 17.7791 52.225 17.7791 52.265V56.315C17.7791 56.355 17.7991 56.375 17.8391 56.375H21.8741C21.9741 56.375 22.0241 56.425 22.0241 56.525V56.93C22.0241 57.03 21.9741 57.08 21.8741 57.08H17.8391C17.7991 57.08 17.7791 57.1 17.7791 57.14V61.235C17.7791 61.275 17.7991 61.295 17.8391 61.295H23.5241C23.6241 61.295 23.6741 61.345 23.6741 61.445V61.85C23.6741 61.95 23.6241 62 23.5241 62H17.1341C17.0341 62 16.9841 61.95 16.9841 61.85V51.65C16.9841 51.55 17.0341 51.5 17.1341 51.5H23.5241C23.6241 51.5 23.6741 51.55 23.6741 51.65V52.055ZM25.209 62C25.149 62 25.109 61.98 25.089 61.94C25.069 61.9 25.079 61.86 25.119 61.82L27.624 58.265C27.644 58.235 27.644 58.205 27.624 58.175L25.119 54.62C25.099 54.6 25.089 54.57 25.089 54.53C25.089 54.51 25.099 54.49 25.119 54.47C25.139 54.45 25.169 54.44 25.209 54.44H25.734C25.814 54.44 25.874 54.47 25.914 54.53L28.029 57.56C28.039 57.57 28.054 57.575 28.074 57.575C28.094 57.575 28.109 57.57 28.119 57.56L30.219 54.53C30.259 54.47 30.319 54.44 30.399 54.44H30.969C31.029 54.44 31.069 54.46 31.089 54.5C31.109 54.54 31.099 54.58 31.059 54.62L28.554 58.175C28.544 58.205 28.544 58.235 28.554 58.265L31.059 61.82C31.079 61.84 31.089 61.87 31.089 61.91C31.089 61.93 31.079 61.95 31.059 61.97C31.039 61.99 31.009 62 30.969 62H30.429C30.349 62 30.289 61.97 30.249 61.91L28.149 58.895C28.139 58.875 28.124 58.865 28.104 58.865C28.084 58.865 28.069 58.875 28.059 58.895L25.944 61.91C25.904 61.97 25.844 62 25.764 62H25.209ZM38.5427 56.315C38.6127 56.545 38.6577 56.805 38.6777 57.095C38.6977 57.375 38.7077 57.745 38.7077 58.205C38.7077 58.665 38.6977 59.04 38.6777 59.33C38.6577 59.61 38.6177 59.865 38.5577 60.095C38.4077 60.715 38.0927 61.21 37.6127 61.58C37.1427 61.94 36.5577 62.12 35.8577 62.12C35.4177 62.12 35.0227 62.035 34.6727 61.865C34.3327 61.685 34.0577 61.43 33.8477 61.1C33.8277 61.08 33.8077 61.075 33.7877 61.085C33.7777 61.085 33.7727 61.1 33.7727 61.13V64.79C33.7727 64.89 33.7227 64.94 33.6227 64.94H33.1277C33.0277 64.94 32.9777 64.89 32.9777 64.79V54.59C32.9777 54.49 33.0277 54.44 33.1277 54.44H33.6227C33.7227 54.44 33.7727 54.49 33.7727 54.59V55.31C33.7727 55.34 33.7777 55.36 33.7877 55.37C33.8077 55.37 33.8277 55.36 33.8477 55.34C34.0577 55.01 34.3327 54.76 34.6727 54.59C35.0227 54.41 35.4177 54.32 35.8577 54.32C36.5377 54.32 37.1127 54.5 37.5827 54.86C38.0527 55.22 38.3727 55.705 38.5427 56.315ZM37.7027 59.975C37.7827 59.795 37.8377 59.585 37.8677 59.345C37.8977 59.105 37.9127 58.73 37.9127 58.22C37.9127 57.7 37.8977 57.325 37.8677 57.095C37.8377 56.855 37.7877 56.635 37.7177 56.435C37.6177 56.015 37.3927 55.675 37.0427 55.415C36.6927 55.155 36.2727 55.025 35.7827 55.025C35.3127 55.025 34.9177 55.16 34.5977 55.43C34.2877 55.69 34.0777 56.025 33.9677 56.435C33.8977 56.615 33.8477 56.825 33.8177 57.065C33.7877 57.305 33.7727 57.69 33.7727 58.22C33.7727 58.75 33.7877 59.135 33.8177 59.375C33.8477 59.615 33.8977 59.835 33.9677 60.035C34.0777 60.445 34.2877 60.78 34.5977 61.04C34.9177 61.29 35.3127 61.415 35.7827 61.415C36.2427 61.415 36.6377 61.3 36.9677 61.07C37.2977 60.83 37.5227 60.52 37.6427 60.14L37.7027 59.975ZM43.5805 54.32C44.4605 54.32 45.1305 54.55 45.5905 55.01C46.0505 55.46 46.2805 56.07 46.2805 56.84V61.85C46.2805 61.95 46.2305 62 46.1305 62H45.6355C45.5355 62 45.4855 61.95 45.4855 61.85V61.145C45.4855 61.125 45.4755 61.11 45.4555 61.1C45.4455 61.09 45.4305 61.095 45.4105 61.115C45.1505 61.445 44.8105 61.695 44.3905 61.865C43.9805 62.035 43.5205 62.12 43.0105 62.12C42.3205 62.12 41.7355 61.945 41.2555 61.595C40.7755 61.245 40.5355 60.71 40.5355 59.99C40.5355 59.25 40.8105 58.665 41.3605 58.235C41.9105 57.805 42.6655 57.59 43.6255 57.59H45.4255C45.4655 57.59 45.4855 57.57 45.4855 57.53V56.855C45.4855 56.295 45.3255 55.85 45.0055 55.52C44.6955 55.19 44.2155 55.025 43.5655 55.025C43.0555 55.025 42.6355 55.13 42.3055 55.34C41.9755 55.55 41.7705 55.83 41.6905 56.18C41.6605 56.28 41.6005 56.325 41.5105 56.315L40.9855 56.24C40.8755 56.22 40.8305 56.18 40.8505 56.12C40.9405 55.58 41.2305 55.145 41.7205 54.815C42.2205 54.485 42.8405 54.32 43.5805 54.32ZM43.1455 61.43C43.7755 61.43 44.3205 61.275 44.7805 60.965C45.2505 60.655 45.4855 60.225 45.4855 59.675V58.31C45.4855 58.27 45.4655 58.25 45.4255 58.25H43.7005C42.9905 58.25 42.4155 58.4 41.9755 58.7C41.5455 59 41.3305 59.415 41.3305 59.945C41.3305 60.435 41.5005 60.805 41.8405 61.055C42.1805 61.305 42.6155 61.43 43.1455 61.43ZM51.6334 54.335C52.4034 54.335 53.0234 54.57 53.4934 55.04C53.9734 55.51 54.2134 56.13 54.2134 56.9V61.85C54.2134 61.95 54.1634 62 54.0634 62H53.5684C53.4684 62 53.4184 61.95 53.4184 61.85V57.05C53.4184 56.46 53.2384 55.98 52.8784 55.61C52.5184 55.23 52.0484 55.04 51.4684 55.04C50.8684 55.04 50.3834 55.225 50.0134 55.595C49.6434 55.955 49.4584 56.43 49.4584 57.02V61.85C49.4584 61.95 49.4084 62 49.3084 62H48.8134C48.7134 62 48.6634 61.95 48.6634 61.85V54.59C48.6634 54.49 48.7134 54.44 48.8134 54.44H49.3084C49.4084 54.44 49.4584 54.49 49.4584 54.59V55.325C49.4584 55.355 49.4634 55.375 49.4734 55.385C49.4934 55.385 49.5084 55.375 49.5184 55.355C49.7384 55.025 50.0284 54.775 50.3884 54.605C50.7484 54.425 51.1634 54.335 51.6334 54.335ZM59.075 62.075C58.535 62.075 58.055 61.99 57.635 61.82C57.225 61.64 56.905 61.4 56.675 61.1C56.445 60.8 56.33 60.47 56.33 60.11V59.915C56.33 59.815 56.38 59.765 56.48 59.765H56.945C57.045 59.765 57.095 59.815 57.095 59.915V60.08C57.095 60.45 57.28 60.77 57.65 61.04C58.02 61.3 58.49 61.43 59.06 61.43C59.62 61.43 60.075 61.295 60.425 61.025C60.775 60.755 60.95 60.42 60.95 60.02C60.95 59.74 60.86 59.51 60.68 59.33C60.5 59.15 60.285 59.015 60.035 58.925C59.795 58.825 59.43 58.7 58.94 58.55C58.38 58.38 57.93 58.22 57.59 58.07C57.25 57.92 56.96 57.71 56.72 57.44C56.49 57.16 56.375 56.81 56.375 56.39C56.375 55.78 56.615 55.295 57.095 54.935C57.585 54.565 58.225 54.38 59.015 54.38C59.545 54.38 60.01 54.47 60.41 54.65C60.82 54.82 61.135 55.055 61.355 55.355C61.585 55.655 61.7 55.995 61.7 56.375V56.42C61.7 56.52 61.65 56.57 61.55 56.57H61.085C60.985 56.57 60.935 56.52 60.935 56.42V56.375C60.935 55.995 60.755 55.68 60.395 55.43C60.045 55.17 59.58 55.04 59 55.04C58.44 55.04 57.99 55.16 57.65 55.4C57.31 55.63 57.14 55.945 57.14 56.345C57.14 56.725 57.295 57.01 57.605 57.2C57.925 57.39 58.42 57.585 59.09 57.785C59.67 57.955 60.13 58.115 60.47 58.265C60.82 58.415 61.12 58.63 61.37 58.91C61.62 59.18 61.745 59.535 61.745 59.975C61.745 60.605 61.5 61.115 61.01 61.505C60.53 61.885 59.885 62.075 59.075 62.075ZM64.4835 52.925C64.2635 52.925 64.0835 52.855 63.9435 52.715C63.8035 52.575 63.7335 52.395 63.7335 52.175C63.7335 51.955 63.8035 51.775 63.9435 51.635C64.0835 51.495 64.2635 51.425 64.4835 51.425C64.7035 51.425 64.8835 51.495 65.0235 51.635C65.1635 51.775 65.2335 51.955 65.2335 52.175C65.2335 52.395 65.1635 52.575 65.0235 52.715C64.8835 52.855 64.7035 52.925 64.4835 52.925ZM64.1985 61.985C64.0985 61.985 64.0485 61.935 64.0485 61.835V54.575C64.0485 54.475 64.0985 54.425 64.1985 54.425H64.6935C64.7935 54.425 64.8435 54.475 64.8435 54.575V61.835C64.8435 61.935 64.7935 61.985 64.6935 61.985H64.1985ZM70.4364 62.12C69.7364 62.12 69.1364 61.935 68.6364 61.565C68.1364 61.195 67.7964 60.7 67.6164 60.08C67.5064 59.68 67.4514 59.055 67.4514 58.205C67.4514 57.355 67.5064 56.735 67.6164 56.345C67.7964 55.725 68.1314 55.235 68.6214 54.875C69.1214 54.505 69.7314 54.32 70.4514 54.32C71.1514 54.32 71.7514 54.505 72.2514 54.875C72.7614 55.245 73.1014 55.735 73.2714 56.345C73.3314 56.575 73.3714 56.835 73.3914 57.125C73.4114 57.405 73.4214 57.765 73.4214 58.205C73.4214 58.665 73.4114 59.035 73.3914 59.315C73.3714 59.595 73.3314 59.85 73.2714 60.08C73.1014 60.7 72.7614 61.195 72.2514 61.565C71.7514 61.935 71.1464 62.12 70.4364 62.12ZM70.4364 61.415C70.9664 61.415 71.4164 61.27 71.7864 60.98C72.1664 60.68 72.4114 60.29 72.5214 59.81C72.5914 59.54 72.6264 59.01 72.6264 58.22C72.6264 57.42 72.5964 56.89 72.5364 56.63C72.4264 56.14 72.1814 55.75 71.8014 55.46C71.4314 55.17 70.9764 55.025 70.4364 55.025C69.8964 55.025 69.4414 55.17 69.0714 55.46C68.7014 55.75 68.4614 56.14 68.3514 56.63C68.2814 56.94 68.2464 57.47 68.2464 58.22C68.2464 58.97 68.2814 59.5 68.3514 59.81C68.4614 60.3 68.7014 60.69 69.0714 60.98C69.4414 61.27 69.8964 61.415 70.4364 61.415ZM70.0014 53.435C69.9414 53.435 69.9014 53.42 69.8814 53.39C69.8614 53.35 69.8664 53.305 69.8964 53.255L70.8114 51.605C70.8414 51.535 70.9014 51.5 70.9914 51.5H71.4264C71.4864 51.5 71.5264 51.52 71.5464 51.56C71.5664 51.59 71.5614 51.63 71.5314 51.68L70.5264 53.33C70.4764 53.4 70.4164 53.435 70.3464 53.435H70.0014ZM78.6744 54.335C79.4444 54.335 80.0644 54.57 80.5344 55.04C81.0144 55.51 81.2544 56.13 81.2544 56.9V61.85C81.2544 61.95 81.2044 62 81.1044 62H80.6094C80.5094 62 80.4594 61.95 80.4594 61.85V57.05C80.4594 56.46 80.2794 55.98 79.9194 55.61C79.5594 55.23 79.0894 55.04 78.5094 55.04C77.9094 55.04 77.4244 55.225 77.0544 55.595C76.6844 55.955 76.4994 56.43 76.4994 57.02V61.85C76.4994 61.95 76.4494 62 76.3494 62H75.8544C75.7544 62 75.7044 61.95 75.7044 61.85V54.59C75.7044 54.49 75.7544 54.44 75.8544 54.44H76.3494C76.4494 54.44 76.4994 54.49 76.4994 54.59V55.325C76.4994 55.355 76.5044 55.375 76.5144 55.385C76.5344 55.385 76.5494 55.375 76.5594 55.355C76.7794 55.025 77.0694 54.775 77.4294 54.605C77.7894 54.425 78.2044 54.335 78.6744 54.335ZM93.814 51.605C93.864 51.535 93.924 51.5 93.994 51.5H94.504C94.604 51.5 94.654 51.55 94.654 51.65V61.85C94.654 61.95 94.604 62 94.504 62H94.009C93.909 62 93.859 61.95 93.859 61.85V53.045C93.859 53.015 93.849 53 93.829 53C93.809 52.99 93.794 53 93.784 53.03L91.144 57.11C91.094 57.18 91.034 57.215 90.964 57.215H90.709C90.639 57.215 90.579 57.18 90.529 57.11L87.859 53.045C87.849 53.015 87.834 53.005 87.814 53.015C87.794 53.025 87.784 53.045 87.784 53.075V61.85C87.784 61.95 87.734 62 87.634 62H87.139C87.039 62 86.989 61.95 86.989 61.85V51.65C86.989 51.55 87.039 51.5 87.139 51.5H87.664C87.734 51.5 87.794 51.535 87.844 51.605L90.784 56.105C90.794 56.115 90.809 56.12 90.829 56.12C90.849 56.12 90.864 56.115 90.874 56.105L93.814 51.605ZM96.9163 62C96.8563 62 96.8163 61.985 96.7963 61.955C96.7863 61.915 96.7963 61.87 96.8263 61.82L100.036 56.795C100.056 56.765 100.056 56.735 100.036 56.705L96.8263 51.68C96.8063 51.64 96.7963 51.61 96.7963 51.59C96.7963 51.53 96.8363 51.5 96.9163 51.5H97.4713C97.5413 51.5 97.6013 51.535 97.6513 51.605L100.486 56.075C100.496 56.085 100.511 56.09 100.531 56.09C100.551 56.09 100.566 56.085 100.576 56.075L103.411 51.605C103.461 51.535 103.521 51.5 103.591 51.5H104.131C104.191 51.5 104.226 51.52 104.236 51.56C104.256 51.59 104.251 51.63 104.221 51.68L101.026 56.72C101.016 56.75 101.016 56.78 101.026 56.81L104.221 61.82C104.241 61.86 104.251 61.89 104.251 61.91C104.251 61.97 104.211 62 104.131 62H103.591C103.521 62 103.461 61.965 103.411 61.895L100.576 57.44C100.566 57.42 100.551 57.41 100.531 57.41C100.511 57.41 100.496 57.42 100.486 57.44L97.6513 61.895C97.6013 61.965 97.5413 62 97.4713 62H96.9163ZM5.1 86C5.04 86 5 85.9733 4.98 85.92L4.55 84.59C4.54333 84.57 4.53 84.56 4.51 84.56H1.39C1.37 84.56 1.35667 84.57 1.35 84.59L0.93 85.92C0.91 85.9733 0.87 86 0.81 86H0.46C0.386667 86 0.36 85.9633 0.38 85.89L2.6 79.08C2.62 79.0267 2.66 79 2.72 79H3.17C3.23 79 3.27 79.0267 3.29 79.08L5.52 85.89L5.53 85.93C5.53 85.9767 5.5 86 5.44 86H5.1ZM1.51 84.07C1.50333 84.0833 1.50333 84.0967 1.51 84.11C1.52333 84.1167 1.53667 84.12 1.55 84.12H4.35C4.36333 84.12 4.37333 84.1167 4.38 84.11C4.39333 84.0967 4.39667 84.0833 4.39 84.07L2.98 79.72C2.97333 79.7067 2.96333 79.7 2.95 79.7C2.93667 79.7 2.92667 79.7067 2.92 79.72L1.51 84.07ZM10.4984 82.23C10.5384 82.3833 10.5651 82.5567 10.5784 82.75C10.5918 82.9433 10.5984 83.19 10.5984 83.49C10.5984 84.05 10.5618 84.47 10.4884 84.75C10.3751 85.1567 10.1618 85.48 9.84844 85.72C9.5351 85.96 9.15177 86.08 8.69844 86.08C8.4051 86.08 8.14177 86.02 7.90844 85.9C7.6751 85.78 7.48844 85.61 7.34844 85.39C7.3351 85.3767 7.32177 85.3733 7.30844 85.38C7.30177 85.38 7.29844 85.39 7.29844 85.41V85.9C7.29844 85.9667 7.2651 86 7.19844 86H6.86844C6.80177 86 6.76844 85.9667 6.76844 85.9V79.1C6.76844 79.0333 6.80177 79 6.86844 79H7.19844C7.2651 79 7.29844 79.0333 7.29844 79.1V81.56C7.29844 81.58 7.3051 81.5933 7.31844 81.6C7.33177 81.6 7.34177 81.59 7.34844 81.57C7.48844 81.35 7.6751 81.18 7.90844 81.06C8.14177 80.94 8.4051 80.88 8.69844 80.88C9.1651 80.88 9.5551 81.0033 9.86844 81.25C10.1818 81.49 10.3918 81.8167 10.4984 82.23ZM9.93844 84.67C9.9851 84.5367 10.0184 84.3933 10.0384 84.24C10.0584 84.08 10.0684 83.8267 10.0684 83.48C10.0684 83.1267 10.0551 82.87 10.0284 82.71C10.0084 82.55 9.96844 82.4 9.90844 82.26C9.82844 81.9933 9.6751 81.7767 9.44844 81.61C9.22177 81.4367 8.95177 81.35 8.63844 81.35C8.33177 81.35 8.07177 81.4367 7.85844 81.61C7.65177 81.7767 7.51177 81.9967 7.43844 82.27C7.39177 82.4033 7.35844 82.5533 7.33844 82.72C7.31844 82.88 7.30844 83.1367 7.30844 83.49C7.30844 83.83 7.3151 84.08 7.32844 84.24C7.34844 84.4 7.38177 84.5433 7.42844 84.67C7.50177 84.95 7.64177 85.1767 7.84844 85.35C8.06177 85.5233 8.32844 85.61 8.64844 85.61C8.96844 85.61 9.2451 85.5233 9.47844 85.35C9.71177 85.1767 9.8651 84.95 9.93844 84.67ZM14.0786 80.92C14.3053 80.92 14.4986 80.96 14.6586 81.04C14.7119 81.06 14.7319 81.1033 14.7186 81.17L14.6286 81.49C14.6086 81.5567 14.5653 81.5767 14.4986 81.55C14.3653 81.4967 14.1986 81.4733 13.9986 81.48C13.6253 81.4867 13.3153 81.63 13.0686 81.91C12.8286 82.1833 12.7086 82.52 12.7086 82.92V85.9C12.7086 85.9667 12.6753 86 12.6086 86H12.2786C12.2119 86 12.1786 85.9667 12.1786 85.9V81.06C12.1786 80.9933 12.2119 80.96 12.2786 80.96H12.6086C12.6753 80.96 12.7086 80.9933 12.7086 81.06V81.74C12.7086 81.76 12.7119 81.7733 12.7186 81.78C12.7319 81.78 12.7419 81.77 12.7486 81.75C12.8886 81.49 13.0686 81.2867 13.2886 81.14C13.5153 80.9933 13.7786 80.92 14.0786 80.92ZM16.1823 79.95C16.0357 79.95 15.9157 79.9033 15.8223 79.81C15.729 79.7167 15.6823 79.5967 15.6823 79.45C15.6823 79.3033 15.729 79.1833 15.8223 79.09C15.9157 78.9967 16.0357 78.95 16.1823 78.95C16.329 78.95 16.449 78.9967 16.5423 79.09C16.6357 79.1833 16.6823 79.3033 16.6823 79.45C16.6823 79.5967 16.6357 79.7167 16.5423 79.81C16.449 79.9033 16.329 79.95 16.1823 79.95ZM15.9923 85.99C15.9257 85.99 15.8923 85.9567 15.8923 85.89V81.05C15.8923 80.9833 15.9257 80.95 15.9923 80.95H16.3223C16.389 80.95 16.4223 80.9833 16.4223 81.05V85.89C16.4223 85.9567 16.389 85.99 16.3223 85.99H15.9923ZM18.4309 86C18.3643 86 18.3309 85.9667 18.3309 85.9V79.1C18.3309 79.0333 18.3643 79 18.4309 79H18.7609C18.8276 79 18.8609 79.0333 18.8609 79.1V85.9C18.8609 85.9667 18.8276 86 18.7609 86H18.4309ZM26.1788 82.97C26.2254 83.2433 26.2488 83.54 26.2488 83.86C26.2488 84.1933 26.2254 84.4633 26.1788 84.67C26.0721 85.1033 25.8521 85.4467 25.5188 85.7C25.1921 85.9533 24.7954 86.08 24.3288 86.08C23.8754 86.08 23.4854 85.96 23.1588 85.72C22.8388 85.48 22.6221 85.16 22.5088 84.76C22.4621 84.6067 22.4354 84.47 22.4288 84.35C22.4288 84.2833 22.4621 84.25 22.5288 84.25H22.8688C22.9354 84.25 22.9688 84.2833 22.9688 84.35L23.0088 84.56C23.0821 84.88 23.2321 85.1333 23.4588 85.32C23.6921 85.5067 23.9821 85.6 24.3288 85.6C24.6821 85.6 24.9754 85.5 25.2088 85.3C25.4488 85.1 25.6021 84.8267 25.6688 84.48C25.7021 84.3467 25.7188 84.14 25.7188 83.86C25.7188 83.6333 25.7021 83.4033 25.6688 83.17C25.6221 82.8367 25.4788 82.58 25.2388 82.4C24.9988 82.22 24.6988 82.13 24.3388 82.13C24.0121 82.13 23.7254 82.2033 23.4788 82.35C23.2388 82.49 23.0788 82.6833 22.9988 82.93C22.9788 82.99 22.9421 83.02 22.8888 83.02H22.5288C22.4621 83.02 22.4288 82.9867 22.4288 82.92V79.1C22.4288 79.0333 22.4621 79 22.5288 79H25.8588C25.9254 79 25.9588 79.0333 25.9588 79.1V79.37C25.9588 79.4367 25.9254 79.47 25.8588 79.47H22.9988C22.9721 79.47 22.9588 79.4833 22.9588 79.51L22.9488 82.19C22.9488 82.2033 22.9521 82.2133 22.9588 82.22C22.9721 82.22 22.9854 82.2133 22.9988 82.2C23.1521 82.0333 23.3521 81.9033 23.5988 81.81C23.8454 81.71 24.1088 81.66 24.3888 81.66C24.8488 81.66 25.2421 81.7733 25.5688 82C25.8954 82.2267 26.0988 82.55 26.1788 82.97ZM27.6269 86.74C27.5935 86.74 27.5669 86.73 27.5469 86.71C27.5335 86.69 27.5302 86.6633 27.5369 86.63L28.0069 84.55C28.0202 84.49 28.0569 84.46 28.1169 84.46H28.3969C28.4302 84.46 28.4535 84.47 28.4669 84.49C28.4869 84.51 28.4935 84.5367 28.4869 84.57L27.9469 86.65C27.9402 86.71 27.9035 86.74 27.8369 86.74H27.6269ZM32.7555 85.48C32.7355 85.5133 32.7422 85.53 32.7755 85.53H36.0155C36.0822 85.53 36.1155 85.5633 36.1155 85.63V85.9C36.1155 85.9667 36.0822 86 36.0155 86H32.1655C32.0989 86 32.0655 85.9667 32.0655 85.9V85.62C32.0655 85.5733 32.0789 85.5333 32.1055 85.5C32.3922 85.1467 32.6489 84.8233 32.8755 84.53C33.1022 84.2367 33.3055 83.9767 33.4855 83.75L34.3955 82.59C35.0222 81.7767 35.3355 81.1333 35.3355 80.66C35.3355 80.28 35.2055 79.9733 34.9455 79.74C34.6922 79.5067 34.3589 79.39 33.9455 79.39C33.5322 79.39 33.1989 79.5067 32.9455 79.74C32.6989 79.9733 32.5789 80.28 32.5855 80.66V80.98C32.5855 81.0467 32.5522 81.08 32.4855 81.08H32.1555C32.0889 81.08 32.0555 81.0467 32.0555 80.98V80.6C32.0622 80.1 32.2389 79.6967 32.5855 79.39C32.9389 79.0767 33.3922 78.92 33.9455 78.92C34.3322 78.92 34.6689 78.9933 34.9555 79.14C35.2489 79.2867 35.4755 79.4933 35.6355 79.76C35.7955 80.02 35.8755 80.3167 35.8755 80.65C35.8755 81.2233 35.5555 81.9267 34.9155 82.76C34.4555 83.36 33.8022 84.1833 32.9555 85.23L32.7555 85.48ZM39.5383 86.1C38.9249 86.1 38.4316 85.9233 38.0583 85.57C37.6916 85.21 37.5083 84.7333 37.5083 84.14V80.86C37.5083 80.2667 37.6916 79.7933 38.0583 79.44C38.4316 79.0867 38.9249 78.91 39.5383 78.91C40.1583 78.91 40.6549 79.09 41.0283 79.45C41.4083 79.8033 41.5983 80.2733 41.5983 80.86V84.14C41.5983 84.7333 41.4083 85.21 41.0283 85.57C40.6549 85.9233 40.1583 86.1 39.5383 86.1ZM39.5383 85.62C40.0049 85.62 40.3749 85.49 40.6483 85.23C40.9283 84.9633 41.0683 84.6133 41.0683 84.18V80.83C41.0683 80.3967 40.9283 80.0467 40.6483 79.78C40.3749 79.5133 40.0049 79.38 39.5383 79.38C39.0849 79.38 38.7216 79.5133 38.4483 79.78C38.1749 80.0467 38.0383 80.3967 38.0383 80.83V84.18C38.0383 84.6133 38.1749 84.9633 38.4483 85.23C38.7216 85.49 39.0849 85.62 39.5383 85.62ZM43.693 85.48C43.673 85.5133 43.6797 85.53 43.713 85.53H46.953C47.0197 85.53 47.053 85.5633 47.053 85.63V85.9C47.053 85.9667 47.0197 86 46.953 86H43.103C43.0364 86 43.003 85.9667 43.003 85.9V85.62C43.003 85.5733 43.0164 85.5333 43.043 85.5C43.3297 85.1467 43.5864 84.8233 43.813 84.53C44.0397 84.2367 44.243 83.9767 44.423 83.75L45.333 82.59C45.9597 81.7767 46.273 81.1333 46.273 80.66C46.273 80.28 46.143 79.9733 45.883 79.74C45.6297 79.5067 45.2964 79.39 44.883 79.39C44.4697 79.39 44.1364 79.5067 43.883 79.74C43.6364 79.9733 43.5164 80.28 43.523 80.66V80.98C43.523 81.0467 43.4897 81.08 43.423 81.08H43.093C43.0264 81.08 42.993 81.0467 42.993 80.98V80.6C42.9997 80.1 43.1764 79.6967 43.523 79.39C43.8764 79.0767 44.3297 78.92 44.883 78.92C45.2697 78.92 45.6064 78.9933 45.893 79.14C46.1864 79.2867 46.413 79.4933 46.573 79.76C46.733 80.02 46.813 80.3167 46.813 80.65C46.813 81.2233 46.493 81.9267 45.853 82.76C45.393 83.36 44.7397 84.1833 43.893 85.23L43.693 85.48ZM51.8167 82.7C51.9501 83.04 52.0167 83.4367 52.0167 83.89C52.0167 84.25 51.9701 84.57 51.8767 84.85C51.7501 85.25 51.5334 85.5567 51.2267 85.77C50.9267 85.9767 50.5501 86.08 50.0967 86.08C49.6367 86.08 49.2467 85.96 48.9267 85.72C48.6134 85.4733 48.3967 85.1467 48.2767 84.74C48.2101 84.54 48.1767 84.2967 48.1767 84.01C48.1767 83.9433 48.2101 83.91 48.2767 83.91H48.6167C48.6834 83.91 48.7167 83.9433 48.7167 84.01C48.7167 84.2367 48.7367 84.42 48.7767 84.56C48.8434 84.88 48.9934 85.1367 49.2267 85.33C49.4601 85.5167 49.7501 85.61 50.0967 85.61C50.7434 85.61 51.1634 85.3167 51.3567 84.73C51.4434 84.4833 51.4867 84.2 51.4867 83.88C51.4867 83.4667 51.4267 83.12 51.3067 82.84C51.0934 82.32 50.6867 82.06 50.0867 82.06C50.0067 82.06 49.9067 82.08 49.7867 82.12L49.7467 82.14C49.7401 82.1467 49.7301 82.15 49.7167 82.15C49.6834 82.15 49.6567 82.1333 49.6367 82.1L49.4667 81.88C49.4534 81.8533 49.4467 81.8333 49.4467 81.82C49.4467 81.7867 49.4567 81.76 49.4767 81.74L51.2667 79.52C51.2801 79.5067 51.2834 79.4967 51.2767 79.49C51.2701 79.4767 51.2601 79.47 51.2467 79.47H48.3167C48.2501 79.47 48.2167 79.4367 48.2167 79.37V79.1C48.2167 79.0333 48.2501 79 48.3167 79H51.8867C51.9534 79 51.9867 79.0333 51.9867 79.1V79.43C51.9867 79.4767 51.9734 79.5167 51.9467 79.55L50.2767 81.65C50.2634 81.6633 50.2601 81.6767 50.2667 81.69C50.2734 81.6967 50.2867 81.7 50.3067 81.7C50.6801 81.7133 50.9934 81.8067 51.2467 81.98C51.5001 82.1467 51.6901 82.3867 51.8167 82.7Z" fill="#010101"/>
</svg>
