<svg width="1024" height="268" viewBox="0 0 1024 268" fill="none" xmlns="http://www.w3.org/2000/svg">
<rect y="11" width="1024" height="257" fill="#C0D6A8"/>
<path d="M1080 23.7348V8.11908C1075.43 8.11908 1071.97 4.35724 1071.95 0H1056.78C1056.78 10.7172 1040.75 10.7172 1040.73 0H1025.56C1025.56 10.7442 1009.48 10.6901 1009.48 0H994.312C994.312 10.7172 978.287 10.7172 978.26 0H963.091C963.091 10.6901 947.067 10.7442 947.04 0H931.845C931.845 10.7172 915.82 10.7172 915.793 0H900.625C900.625 10.6901 884.573 10.7442 884.573 0H869.378C869.378 10.7172 853.353 10.7172 853.326 0H838.157C838.157 10.7172 822.133 10.7172 822.106 0H806.911C806.911 10.7442 790.886 10.6901 790.859 0H775.69C775.69 10.6901 759.666 10.7442 759.639 0H744.443C744.443 10.7442 728.419 10.6901 728.392 0H713.223C713.223 10.6901 697.198 10.7442 697.172 0H681.976C681.976 10.7442 665.952 10.6901 665.925 0H650.756C650.756 10.6901 634.731 10.7442 634.705 0H619.509C619.509 10.7442 603.484 10.6901 603.458 0H588.289C588.289 10.6901 572.264 10.7442 572.238 0H557.042C557.042 6.25169 551.611 8.82273 547.064 7.79432C543.586 6.84709 541.124 3.65359 541.124 0H525.822C525.822 3.7889 523.227 6.95535 519.749 7.84844C515.228 8.79567 509.904 6.19756 509.904 0H494.736C494.736 10.7442 478.657 10.6901 478.657 0H463.489C463.489 10.7172 447.464 10.7172 447.437 0H432.269C432.269 10.6901 416.244 10.7442 416.217 0H401.022C401.022 10.7172 384.997 10.7172 384.97 0H369.801C369.801 10.6901 353.777 10.7442 353.75 0H338.555C338.555 10.7172 322.503 10.7172 322.503 0H307.334C307.334 10.7172 291.31 10.7172 291.283 0H276.087C276.087 10.7442 260.036 10.6901 260.036 0H244.867C244.867 10.6901 228.843 10.7442 228.816 0H213.62C213.62 10.7442 197.596 10.6901 197.569 0H182.4C182.4 10.6901 166.375 10.7442 166.349 0H151.153C151.153 10.7442 135.129 10.6901 135.102 0H119.933C119.933 10.6901 103.908 10.7442 103.882 0H88.6862C88.6862 10.7442 72.6615 10.6901 72.6347 0H57.4661C57.4661 10.6901 41.4413 10.7442 41.4146 0H26.2192C26.2192 10.7442 10.2212 10.6901 10.1944 0H-4.97425C-4.97425 4.46549 -8.58584 8.11908 -13 8.11908V23.7348C-2.40601 23.7348 -2.37926 39.9729 -13 39.9729H549.177C549.177 39.9729 549.016 39.9729 548.936 39.9729H1080C1069.41 39.9729 1069.38 23.7348 1080 23.7348Z" fill="#C0D6A8"/>
<g clip-path="url(#clip0_2001_52)">
<path d="M100.103 186.002C100.59 185.927 101.01 185.946 101.358 186.059C101.707 186.172 102.018 186.342 102.287 186.569C102.557 186.795 102.797 187.067 103.007 187.38C103.22 187.694 103.438 188.011 103.663 188.324C103.786 188.501 103.921 188.713 104.067 188.966C104.21 189.219 104.367 189.46 104.536 189.691C104.704 189.925 104.888 190.121 105.087 190.287C105.285 190.449 105.499 190.54 105.724 190.551C105.96 190.563 106.192 190.487 106.417 190.325C106.642 190.162 106.848 189.959 107.035 189.721C107.222 189.483 107.395 189.238 107.552 188.996C107.71 188.751 107.841 188.547 107.957 188.384C108.107 188.169 108.249 187.95 108.388 187.724C108.526 187.497 108.676 187.278 108.837 187.063C108.999 186.848 109.175 186.655 109.362 186.486C109.549 186.316 109.767 186.18 110.018 186.078C110.28 185.991 110.546 185.934 110.812 185.908C111.082 185.882 111.329 185.889 111.562 185.927C111.794 185.965 111.989 186.036 112.15 186.142C112.311 186.248 112.412 186.376 112.45 186.531C112.487 186.682 112.476 186.852 112.412 187.04C112.349 187.229 112.262 187.414 112.15 187.599C112.038 187.78 111.918 187.954 111.794 188.12C111.67 188.282 111.569 188.422 111.494 188.535C111.258 188.875 111.037 189.188 110.839 189.472C110.64 189.755 110.445 190.034 110.258 190.31C110.07 190.585 109.879 190.865 109.688 191.14C109.493 191.416 109.28 191.718 109.04 192.046C108.954 192.186 108.849 192.329 108.729 192.48C108.609 192.631 108.5 192.79 108.399 192.952C108.298 193.115 108.212 193.284 108.137 193.454C108.062 193.624 108.024 193.798 108.024 193.975C108.024 194.19 108.066 194.398 108.148 194.598C108.23 194.798 108.332 194.991 108.455 195.176C108.579 195.357 108.71 195.531 108.849 195.697C108.987 195.859 109.104 196.01 109.205 196.15C109.654 196.791 110.097 197.437 110.535 198.082C110.973 198.732 111.434 199.392 111.921 200.072C112.008 200.196 112.12 200.347 112.259 200.525C112.397 200.702 112.525 200.887 112.641 201.084C112.761 201.28 112.854 201.469 112.922 201.65C112.989 201.831 113.008 201.997 112.967 202.148C112.903 202.348 112.783 202.507 112.6 202.62C112.42 202.733 112.206 202.809 111.963 202.847C111.719 202.884 111.457 202.884 111.176 202.847C110.895 202.809 110.629 202.733 110.381 202.62C110.119 202.495 109.845 202.265 109.557 201.933C109.268 201.601 108.984 201.231 108.695 200.827C108.407 200.423 108.133 200.015 107.871 199.6C107.608 199.185 107.365 198.826 107.14 198.524C107.065 198.422 106.99 198.309 106.915 198.184C106.84 198.06 106.754 197.939 106.66 197.826C106.567 197.713 106.458 197.614 106.331 197.531C106.207 197.448 106.05 197.403 105.862 197.388C105.6 197.377 105.353 197.463 105.12 197.652C104.888 197.841 104.667 198.071 104.457 198.343C104.243 198.615 104.049 198.898 103.869 199.2C103.689 199.502 103.516 199.766 103.352 199.993C103.153 200.283 102.966 200.566 102.797 200.842C102.628 201.118 102.456 201.378 102.28 201.616C102.104 201.854 101.913 202.065 101.71 202.246C101.504 202.428 101.264 202.571 100.987 202.669C100.751 202.771 100.496 202.828 100.23 202.847C99.9604 202.865 99.7131 202.858 99.4808 202.82C99.2484 202.782 99.0498 202.714 98.8812 202.62C98.7126 202.526 98.6039 202.416 98.5515 202.288C98.4765 202.099 98.484 201.891 98.5702 201.665C98.6564 201.438 98.7688 201.223 98.9074 201.016C99.0461 200.808 99.1885 200.619 99.3384 200.449C99.4883 200.28 99.5932 200.151 99.6569 200.061C99.9192 199.694 100.155 199.355 100.369 199.041C100.582 198.728 100.789 198.418 100.987 198.116C101.186 197.814 101.392 197.509 101.605 197.203C101.819 196.893 102.055 196.557 102.317 196.191C102.419 196.052 102.531 195.908 102.662 195.757C102.793 195.606 102.917 195.444 103.037 195.266C103.157 195.089 103.258 194.908 103.348 194.719C103.434 194.53 103.487 194.33 103.498 194.115C103.509 193.764 103.434 193.409 103.273 193.058C103.112 192.707 102.906 192.367 102.666 192.039C102.422 191.71 102.171 191.401 101.916 191.106C101.662 190.812 101.452 190.551 101.291 190.321C101.066 190.008 100.867 189.706 100.691 189.415C100.515 189.124 100.316 188.83 100.092 188.528C99.9154 188.275 99.7318 188.018 99.537 187.754C99.3421 187.49 99.2072 187.237 99.136 186.999C99.0611 186.761 99.0873 186.554 99.211 186.376C99.3346 186.199 99.6306 186.074 100.092 185.999L100.103 186.002Z" fill="#004346"/>
<path d="M122.136 185.908C122.811 185.859 123.463 185.878 124.096 185.965C124.725 186.051 125.321 186.199 125.883 186.406C126.445 186.614 126.966 186.867 127.45 187.161C127.929 187.456 128.356 187.78 128.731 188.135C129.068 188.449 129.394 188.826 129.713 189.268C130.031 189.709 130.313 190.196 130.556 190.732C130.8 191.268 130.995 191.839 131.148 192.45C131.298 193.062 131.373 193.692 131.373 194.349C131.373 195.595 131.148 196.739 130.698 197.784C130.249 198.83 129.638 199.725 128.87 200.472C128.102 201.219 127.202 201.805 126.172 202.227C125.141 202.65 124.051 202.858 122.904 202.858C121.758 202.858 120.607 202.646 119.569 202.227C118.531 201.805 117.632 201.219 116.864 200.464C116.096 199.709 115.492 198.811 115.054 197.765C114.616 196.72 114.398 195.583 114.398 194.349C114.398 193.114 114.616 192.035 115.046 191.065C115.477 190.094 116.024 189.264 116.688 188.573C117.325 187.894 118.085 187.305 118.974 186.806C119.862 186.308 120.915 186.01 122.14 185.908H122.136ZM117.34 194.779C117.415 195.836 117.722 196.754 118.269 197.535C118.812 198.316 119.476 198.913 120.263 199.328C120.888 199.657 121.533 199.853 122.204 199.921C122.871 199.989 123.523 199.947 124.16 199.789C124.797 199.63 125.392 199.37 125.951 199.004C126.505 198.637 126.981 198.184 127.375 197.645C127.768 197.105 128.057 196.482 128.237 195.776C128.416 195.07 128.458 194.304 128.36 193.473C128.274 192.782 128.049 192.129 127.697 191.518C127.341 190.906 126.888 190.385 126.34 189.951C125.79 189.517 125.168 189.192 124.467 188.977C123.766 188.762 123.035 188.701 122.275 188.788C121.563 188.875 120.896 189.083 120.27 189.4C119.644 189.721 119.105 190.144 118.651 190.664C118.194 191.185 117.849 191.793 117.61 192.488C117.373 193.179 117.284 193.941 117.347 194.772L117.34 194.779Z" fill="#004346"/>
<path d="M142.783 185.927C143.109 185.889 143.465 185.878 143.862 185.889C144.256 185.9 144.657 185.938 145.061 186.002C145.466 186.066 145.875 186.153 146.279 186.266C146.684 186.38 147.07 186.531 147.433 186.719C147.67 186.844 147.943 187.006 148.247 187.203C148.554 187.399 148.839 187.614 149.108 187.852C149.378 188.09 149.603 188.35 149.783 188.626C149.963 188.901 150.056 189.181 150.056 189.456C150.056 189.634 150.015 189.8 149.933 189.958C149.85 190.117 149.745 190.257 149.614 190.381C149.483 190.506 149.333 190.608 149.165 190.683C148.996 190.759 148.824 190.804 148.648 190.815C148.46 190.827 148.284 190.804 148.123 190.74C147.962 190.676 147.812 190.6 147.681 190.513C147.55 190.427 147.43 190.336 147.325 190.242C147.22 190.147 147.126 190.075 147.051 190.023C146.838 189.86 146.613 189.69 146.377 189.513C146.141 189.336 145.897 189.192 145.646 189.079C144.833 188.766 144.046 188.633 143.285 188.682C142.525 188.732 141.82 188.92 141.179 189.249C140.535 189.577 139.973 190.015 139.493 190.57C139.013 191.125 138.643 191.74 138.388 192.42C138.133 193.099 138.009 193.817 138.02 194.572C138.032 195.327 138.215 196.07 138.564 196.799C138.8 197.29 139.137 197.773 139.576 198.245C140.014 198.717 140.535 199.105 141.142 199.415C141.749 199.724 142.423 199.913 143.165 199.981C143.907 200.049 144.705 199.921 145.556 199.592C145.83 199.49 146.099 199.358 146.362 199.196C146.624 199.034 146.856 198.875 147.055 198.724C147.13 198.675 147.212 198.6 147.299 198.498C147.385 198.396 147.49 198.298 147.61 198.203C147.729 198.109 147.861 198.026 148.011 197.958C148.16 197.89 148.34 197.852 148.554 197.852C148.752 197.852 148.944 197.894 149.123 197.977C149.303 198.06 149.464 198.165 149.599 198.298C149.738 198.43 149.847 198.577 149.929 198.739C150.012 198.902 150.053 199.068 150.053 199.23C150.064 199.521 149.993 199.785 149.835 200.03C149.678 200.276 149.483 200.498 149.247 200.698C149.011 200.899 148.756 201.083 148.486 201.246C148.217 201.408 147.984 201.555 147.782 201.68C147.418 201.895 147.059 202.08 146.695 202.235C146.332 202.393 145.961 202.522 145.579 202.624C145.196 202.726 144.788 202.79 144.353 202.82C143.915 202.85 143.443 202.85 142.929 202.812C141.805 202.737 140.771 202.473 139.83 202.02C138.886 201.567 138.069 200.97 137.376 200.227C136.683 199.483 136.139 198.622 135.746 197.641C135.352 196.659 135.15 195.602 135.139 194.47C135.113 193.299 135.3 192.231 135.693 191.261C136.087 190.291 136.638 189.422 137.353 188.656C138.028 187.927 138.796 187.312 139.658 186.814C140.52 186.316 141.562 186.017 142.787 185.915L142.783 185.927Z" fill="#004346"/>
<path d="M154.849 186.059C155.299 185.934 155.659 185.953 155.928 186.116C156.198 186.278 156.404 186.538 156.547 186.889C156.689 187.241 156.779 187.671 156.82 188.173C156.858 188.675 156.876 189.211 156.876 189.777C156.876 190.344 156.865 190.914 156.839 191.487C156.813 192.061 156.809 192.59 156.82 193.081C156.831 193.571 156.876 193.998 156.951 194.364C157.026 194.73 157.165 194.987 157.364 195.138C157.465 195.213 157.675 195.281 158.001 195.338C158.327 195.395 158.705 195.44 159.132 195.47C159.563 195.5 160.024 195.515 160.519 195.515C161.013 195.515 161.474 195.493 161.905 195.451C162.336 195.406 162.715 195.342 163.041 195.251C163.367 195.164 163.576 195.051 163.678 194.911C163.827 194.711 163.921 194.375 163.959 193.904C163.996 193.432 164.007 192.892 163.996 192.288C163.985 191.684 163.962 191.05 163.932 190.381C163.902 189.713 163.895 189.09 163.914 188.513C163.932 187.935 163.989 187.426 164.082 186.991C164.176 186.557 164.341 186.27 164.581 186.134C164.742 186.033 164.918 185.968 165.105 185.934C165.293 185.904 165.469 185.893 165.637 185.904C165.806 185.916 165.96 185.946 166.094 185.991C166.233 186.036 166.346 186.082 166.432 186.134C166.63 186.248 166.776 186.448 166.863 186.738C166.949 187.029 167.005 187.358 167.031 187.728C167.058 188.098 167.061 188.486 167.05 188.89C167.039 189.294 167.031 189.672 167.031 190.023V198.875C167.031 199.241 167.039 199.619 167.05 200.015C167.061 200.412 167.05 200.789 167.024 201.148C166.994 201.506 166.934 201.82 166.844 202.092C166.758 202.363 166.619 202.556 166.432 202.669C166.368 202.707 166.263 202.745 166.113 202.782C165.963 202.82 165.798 202.843 165.619 202.847C165.439 202.854 165.251 202.847 165.064 202.82C164.877 202.794 164.716 202.745 164.577 202.669C164.341 202.529 164.18 202.36 164.097 202.16C164.015 201.959 163.974 201.74 163.966 201.506C163.959 201.272 163.977 201.031 164.011 200.782C164.049 200.529 164.064 200.28 164.056 200.038C164.049 199.793 164.007 199.555 163.925 199.328C163.842 199.102 163.693 198.902 163.464 198.724C163.325 198.622 163.085 198.547 162.745 198.49C162.4 198.434 162.006 198.392 161.564 198.366C161.122 198.339 160.657 198.339 160.17 198.358C159.683 198.377 159.23 198.411 158.814 198.46C158.394 198.509 158.031 198.577 157.716 198.66C157.405 198.743 157.21 198.837 157.135 198.955C156.921 199.257 156.82 199.581 156.824 199.925C156.831 200.272 156.85 200.616 156.88 200.955C156.91 201.295 156.899 201.616 156.843 201.918C156.786 202.22 156.588 202.473 156.251 202.673C156.164 202.722 156.041 202.764 155.883 202.798C155.726 202.828 155.561 202.847 155.389 202.854C155.213 202.862 155.044 202.847 154.883 202.816C154.722 202.786 154.583 202.737 154.471 202.673C154.283 202.571 154.148 202.378 154.066 202.088C153.984 201.797 153.927 201.472 153.897 201.106C153.867 200.74 153.852 200.37 153.86 199.993C153.867 199.615 153.867 199.287 153.867 199.011V190.48C153.867 189.962 153.86 189.46 153.841 188.97C153.822 188.479 153.83 188.033 153.867 187.629C153.905 187.225 153.995 186.886 154.141 186.61C154.283 186.335 154.519 186.15 154.845 186.063L154.849 186.059Z" fill="#004346"/>
<path d="M171.824 185.983C172.397 185.832 172.825 185.847 173.106 186.029C173.387 186.21 173.582 186.501 173.698 186.897C173.81 187.293 173.863 187.773 173.855 188.331C173.848 188.89 173.844 189.46 173.844 190.038V198.928C173.844 199.305 173.851 199.694 173.863 200.091C173.874 200.487 173.87 200.857 173.844 201.204C173.818 201.552 173.761 201.854 173.675 202.118C173.589 202.382 173.443 202.571 173.244 202.684C173.143 202.748 173.012 202.79 172.84 202.816C172.667 202.843 172.499 202.854 172.322 202.854C172.146 202.854 171.978 202.843 171.817 202.816C171.655 202.79 171.528 202.748 171.442 202.684C171.281 202.582 171.157 202.412 171.075 202.163C170.992 201.918 170.936 201.627 170.906 201.284C170.876 200.944 170.861 200.574 170.861 200.181V190.411C170.861 190.045 170.85 189.626 170.824 189.154C170.797 188.682 170.801 188.226 170.835 187.788C170.865 187.346 170.955 186.961 171.097 186.629C171.24 186.297 171.483 186.078 171.82 185.976L171.824 185.983Z" fill="#004346"/>
<path d="M179.075 185.965C179.599 185.915 180.027 186.044 180.356 186.353C180.686 186.663 180.963 187.052 181.188 187.524C181.413 187.996 181.604 188.498 181.762 189.022C181.919 189.551 182.084 190.011 182.26 190.4C182.335 190.578 182.462 190.868 182.642 191.28C182.822 191.691 183.032 192.156 183.268 192.677C183.504 193.198 183.755 193.741 184.017 194.3C184.28 194.859 184.535 195.372 184.786 195.84C185.037 196.304 185.261 196.689 185.468 196.991C185.674 197.293 185.835 197.444 185.947 197.444C186.048 197.444 186.198 197.297 186.397 196.999C186.595 196.705 186.82 196.327 187.071 195.866C187.322 195.406 187.581 194.904 187.851 194.356C188.121 193.809 188.368 193.281 188.6 192.771C188.833 192.261 189.039 191.805 189.219 191.404C189.398 191.004 189.522 190.717 189.586 190.555C189.736 190.189 189.904 189.781 190.092 189.328C190.279 188.875 190.466 188.437 190.654 188.014C190.841 187.592 191.013 187.225 191.171 186.912C191.328 186.599 191.448 186.395 191.538 186.308C191.65 186.195 191.8 186.108 191.988 186.044C192.175 185.98 192.374 185.942 192.58 185.931C192.786 185.919 192.992 185.931 193.198 185.976C193.404 186.021 193.58 186.093 193.73 186.191C193.891 186.316 194.015 186.512 194.094 186.776C194.176 187.04 194.225 187.35 194.244 187.701C194.262 188.052 194.27 188.433 194.262 188.845C194.255 189.253 194.255 189.664 194.255 190.083C194.244 191.453 194.24 192.877 194.244 194.349C194.251 195.821 194.255 197.343 194.255 198.917C194.255 199.207 194.262 199.543 194.273 199.925C194.285 200.31 194.273 200.687 194.244 201.057C194.214 201.427 194.154 201.763 194.067 202.058C193.981 202.352 193.843 202.56 193.655 202.669C193.505 202.756 193.34 202.813 193.157 202.828C192.973 202.843 192.801 202.85 192.632 202.839C192.464 202.828 192.31 202.805 192.171 202.775C192.033 202.745 191.935 202.707 191.872 202.669C191.684 202.556 191.546 202.333 191.459 201.997C191.373 201.665 191.313 201.272 191.279 200.819C191.25 200.366 191.238 199.876 191.253 199.347C191.264 198.819 191.272 198.301 191.272 197.799C191.272 197.524 191.279 197.244 191.302 196.961C191.321 196.678 191.324 196.421 191.309 196.187C191.298 195.953 191.25 195.757 191.167 195.591C191.085 195.429 190.946 195.319 190.747 195.27C190.646 195.244 190.515 195.327 190.354 195.515C190.193 195.704 190.009 195.961 189.803 196.289C189.597 196.618 189.376 196.991 189.136 197.414C188.9 197.837 188.656 198.267 188.417 198.705C188.173 199.147 187.929 199.581 187.686 200.008C187.442 200.434 187.214 200.819 187 201.159C186.787 201.499 186.595 201.771 186.419 201.978C186.243 202.186 186.101 202.292 185.988 202.292C185.827 202.303 185.614 202.133 185.351 201.782C185.089 201.431 184.804 200.997 184.497 200.48C184.19 199.962 183.871 199.404 183.542 198.8C183.212 198.196 182.893 197.637 182.593 197.12C182.294 196.603 182.024 196.184 181.788 195.855C181.552 195.527 181.368 195.383 181.244 195.421C181.031 195.47 180.885 195.58 180.806 195.742C180.724 195.904 180.679 196.104 180.664 196.335C180.652 196.569 180.656 196.818 180.682 197.082C180.709 197.346 180.72 197.611 180.72 197.875C180.72 198.301 180.731 198.77 180.75 199.272C180.769 199.774 180.769 200.257 180.75 200.717C180.731 201.178 180.679 201.586 180.592 201.944C180.506 202.303 180.349 202.545 180.124 202.669C180.049 202.718 179.929 202.76 179.768 202.794C179.607 202.824 179.431 202.839 179.243 202.839C179.056 202.839 178.876 202.828 178.7 202.801C178.524 202.775 178.382 202.733 178.269 202.669C178.093 202.567 177.962 202.39 177.876 202.133C177.79 201.876 177.733 201.574 177.707 201.235C177.681 200.895 177.673 200.532 177.677 200.147C177.681 199.762 177.688 199.381 177.688 199.004V190.453C177.688 189.925 177.677 189.4 177.651 188.875C177.625 188.354 177.643 187.886 177.696 187.471C177.752 187.056 177.88 186.712 178.082 186.444C178.284 186.176 178.614 186.014 179.075 185.961V185.965Z" fill="#004346"/>
<path d="M199.029 185.983C199.602 185.832 200.029 185.847 200.31 186.029C200.591 186.21 200.786 186.501 200.902 186.897C201.015 187.293 201.067 187.773 201.06 188.331C201.052 188.89 201.048 189.46 201.048 190.038V198.928C201.048 199.305 201.056 199.694 201.067 200.091C201.078 200.487 201.075 200.857 201.048 201.204C201.022 201.552 200.966 201.854 200.88 202.118C200.794 202.382 200.647 202.571 200.449 202.684C200.348 202.748 200.217 202.79 200.044 202.816C199.872 202.843 199.703 202.854 199.527 202.854C199.351 202.854 199.182 202.843 199.021 202.816C198.86 202.79 198.733 202.748 198.646 202.684C198.485 202.582 198.362 202.412 198.279 202.163C198.197 201.918 198.141 201.627 198.111 201.284C198.081 200.944 198.066 200.574 198.066 200.181V190.411C198.066 190.045 198.054 189.626 198.028 189.154C198.002 188.682 198.006 188.226 198.039 187.788C198.069 187.346 198.159 186.961 198.302 186.629C198.444 186.297 198.688 186.078 199.025 185.976L199.029 185.983Z" fill="#004346"/>
<path d="M205.848 185.983C206.347 185.844 206.733 185.851 206.999 186.002C207.269 186.153 207.464 186.391 207.591 186.712C207.715 187.033 207.79 187.414 207.808 187.856C207.827 188.297 207.838 188.743 207.838 189.196V196.048C207.838 196.414 207.827 196.772 207.808 197.135C207.79 197.497 207.79 197.826 207.808 198.135C207.827 198.445 207.876 198.724 207.958 198.977C208.041 199.23 208.172 199.422 208.359 199.562C208.558 199.713 208.809 199.815 209.109 199.864C209.408 199.913 209.738 199.94 210.102 199.94C210.465 199.94 210.847 199.925 211.256 199.894C211.66 199.864 212.076 199.849 212.503 199.849C212.755 199.849 213.073 199.849 213.459 199.838C213.845 199.83 214.231 199.838 214.613 199.868C214.995 199.894 215.336 199.947 215.644 200.026C215.951 200.11 216.161 200.245 216.269 200.434C216.318 200.521 216.359 200.634 216.393 200.774C216.423 200.914 216.442 201.065 216.449 201.227C216.457 201.389 216.449 201.555 216.419 201.718C216.393 201.88 216.344 202.027 216.269 202.152C216.12 202.416 215.835 202.597 215.415 202.692C214.995 202.786 214.519 202.835 213.98 202.843C213.444 202.85 212.889 202.835 212.324 202.805C211.758 202.775 211.244 202.76 210.795 202.76C210.469 202.76 210.038 202.778 209.502 202.816C208.966 202.854 208.415 202.873 207.853 202.873C207.291 202.873 206.767 202.835 206.279 202.76C205.792 202.684 205.448 202.533 205.249 202.307C205.136 202.182 205.054 201.971 205.005 201.676C204.957 201.382 204.919 201.05 204.9 200.687C204.882 200.325 204.874 199.943 204.882 199.555C204.889 199.166 204.889 198.818 204.889 198.516V190.325C204.889 189.909 204.878 189.464 204.852 188.992C204.825 188.52 204.833 188.078 204.87 187.663C204.908 187.248 204.994 186.889 205.133 186.587C205.271 186.285 205.507 186.089 205.845 186.002L205.848 185.983Z" fill="#004346"/>
<path d="M225.99 185.927C226.316 185.889 226.672 185.878 227.069 185.889C227.462 185.9 227.863 185.938 228.268 186.002C228.673 186.066 229.081 186.153 229.486 186.266C229.89 186.38 230.276 186.531 230.64 186.719C230.876 186.844 231.15 187.006 231.453 187.203C231.757 187.399 232.045 187.614 232.315 187.852C232.585 188.09 232.81 188.35 232.989 188.626C233.169 188.901 233.259 189.181 233.259 189.456C233.259 189.634 233.218 189.8 233.136 189.958C233.053 190.117 232.948 190.257 232.817 190.381C232.686 190.506 232.536 190.608 232.367 190.683C232.199 190.759 232.026 190.804 231.85 190.815C231.663 190.827 231.487 190.804 231.326 190.74C231.165 190.676 231.015 190.6 230.883 190.513C230.752 190.427 230.632 190.336 230.528 190.242C230.423 190.147 230.329 190.075 230.254 190.023C230.04 189.86 229.816 189.69 229.579 189.513C229.343 189.336 229.1 189.192 228.849 189.079C228.036 188.766 227.249 188.633 226.488 188.682C225.727 188.732 225.023 188.92 224.382 189.249C223.738 189.577 223.176 190.015 222.696 190.57C222.216 191.125 221.845 191.74 221.59 192.42C221.336 193.099 221.212 193.817 221.227 194.572C221.238 195.327 221.422 196.07 221.77 196.799C222.006 197.29 222.344 197.773 222.782 198.245C223.22 198.717 223.741 199.105 224.348 199.415C224.955 199.724 225.63 199.913 226.372 199.981C227.114 200.049 227.912 199.921 228.763 199.592C229.036 199.49 229.306 199.358 229.568 199.196C229.831 199.034 230.063 198.875 230.261 198.724C230.336 198.675 230.419 198.6 230.505 198.498C230.591 198.396 230.696 198.298 230.816 198.203C230.936 198.109 231.067 198.026 231.217 197.958C231.367 197.89 231.547 197.852 231.76 197.852C231.959 197.852 232.15 197.894 232.334 197.977C232.514 198.06 232.675 198.165 232.81 198.298C232.948 198.43 233.057 198.577 233.139 198.739C233.222 198.902 233.263 199.068 233.263 199.23C233.274 199.521 233.203 199.785 233.046 200.03C232.888 200.276 232.693 200.498 232.457 200.698C232.221 200.899 231.966 201.083 231.697 201.246C231.427 201.408 231.195 201.555 230.992 201.68C230.629 201.895 230.269 202.08 229.905 202.235C229.542 202.393 229.171 202.522 228.793 202.624C228.41 202.726 228.002 202.79 227.563 202.82C227.125 202.85 226.653 202.85 226.14 202.812C225.015 202.737 223.981 202.473 223.041 202.02C222.096 201.567 221.279 200.97 220.586 200.227C219.893 199.483 219.35 198.622 218.956 197.641C218.563 196.659 218.36 195.602 218.349 194.47C218.323 193.299 218.507 192.231 218.9 191.261C219.293 190.291 219.848 189.422 220.56 188.656C221.234 187.927 222.003 187.312 222.865 186.814C223.726 186.316 224.768 186.017 225.993 185.915L225.99 185.927Z" fill="#004346"/>
<path d="M244.763 185.908C245.438 185.859 246.09 185.878 246.723 185.965C247.352 186.051 247.948 186.199 248.51 186.406C249.072 186.614 249.593 186.867 250.077 187.161C250.556 187.456 250.983 187.78 251.358 188.135C251.695 188.449 252.021 188.826 252.34 189.268C252.658 189.709 252.939 190.196 253.183 190.732C253.427 191.268 253.621 191.839 253.775 192.45C253.925 193.062 254 193.692 254 194.349C254 195.595 253.775 196.739 253.325 197.784C252.876 198.83 252.265 199.725 251.497 200.472C250.729 201.219 249.829 201.805 248.799 202.227C247.768 202.65 246.678 202.858 245.531 202.858C244.385 202.858 243.234 202.646 242.196 202.227C241.158 201.805 240.259 201.219 239.491 200.464C238.723 199.709 238.119 198.811 237.681 197.765C237.242 196.72 237.025 195.583 237.025 194.349C237.025 193.114 237.242 192.035 237.67 191.065C238.101 190.094 238.648 189.264 239.311 188.573C239.948 187.894 240.709 187.305 241.597 186.806C242.485 186.308 243.538 186.01 244.763 185.908ZM239.967 194.779C240.042 195.836 240.353 196.754 240.896 197.535C241.439 198.316 242.103 198.913 242.89 199.328C243.515 199.657 244.16 199.853 244.831 199.921C245.498 199.989 246.15 199.947 246.787 199.789C247.424 199.63 248.019 199.37 248.578 199.004C249.132 198.637 249.608 198.184 250.002 197.645C250.395 197.105 250.684 196.482 250.864 195.776C251.043 195.07 251.085 194.304 250.987 193.473C250.901 192.782 250.676 192.129 250.32 191.518C249.964 190.906 249.511 190.385 248.964 189.951C248.413 189.517 247.791 189.192 247.09 188.977C246.389 188.762 245.659 188.701 244.898 188.788C244.186 188.875 243.519 189.083 242.893 189.4C242.267 189.717 241.728 190.144 241.274 190.664C240.817 191.185 240.473 191.793 240.233 192.488C239.997 193.179 239.907 193.941 239.97 194.772L239.967 194.779Z" fill="#004346"/>
<path d="M106.248 206.169C106.923 206.12 107.575 206.138 108.208 206.225C108.838 206.312 109.433 206.459 109.995 206.667C110.557 206.875 111.078 207.128 111.562 207.422C112.041 207.716 112.469 208.041 112.843 208.396C113.181 208.709 113.507 209.087 113.825 209.528C114.144 209.97 114.425 210.457 114.668 210.993C114.912 211.529 115.107 212.099 115.26 212.711C115.41 213.322 115.485 213.953 115.485 214.61C115.485 215.855 115.26 216.999 114.811 218.045C114.361 219.091 113.75 219.985 112.982 220.733C112.214 221.48 111.314 222.065 110.284 222.488C109.253 222.911 108.163 223.119 107.016 223.119C105.87 223.119 104.719 222.907 103.681 222.488C102.643 222.065 101.744 221.48 100.976 220.725C100.208 219.97 99.6044 219.072 99.166 218.026C98.7276 216.98 98.5103 215.844 98.5103 214.61C98.5103 213.375 98.7276 212.296 99.1585 211.325C99.5894 210.355 100.137 209.525 100.8 208.834C101.437 208.154 102.197 207.565 103.086 207.067C103.974 206.569 105.027 206.271 106.252 206.169H106.248ZM101.452 215.04C101.527 216.097 101.834 217.014 102.381 217.796C102.924 218.577 103.588 219.174 104.375 219.589C105 219.917 105.645 220.114 106.316 220.182C106.983 220.25 107.635 220.208 108.272 220.049C108.909 219.891 109.505 219.63 110.063 219.264C110.617 218.898 111.093 218.445 111.487 217.905C111.88 217.365 112.169 216.743 112.349 216.037C112.529 215.331 112.57 214.564 112.472 213.734C112.386 213.043 112.161 212.39 111.809 211.778C111.453 211.167 111 210.646 110.453 210.212C109.902 209.778 109.28 209.453 108.579 209.238C107.878 209.023 107.148 208.962 106.387 209.049C105.675 209.136 105.008 209.343 104.382 209.661C103.756 209.981 103.217 210.404 102.763 210.925C102.306 211.446 101.961 212.054 101.722 212.749C101.486 213.439 101.396 214.202 101.459 215.032L101.452 215.04Z" fill="#004346"/>
<path d="M126.895 206.187C127.221 206.15 127.577 206.138 127.974 206.15C128.368 206.161 128.769 206.199 129.174 206.263C129.578 206.327 129.987 206.414 130.391 206.527C130.796 206.64 131.182 206.791 131.545 206.98C131.782 207.105 132.055 207.267 132.359 207.463C132.666 207.66 132.951 207.875 133.22 208.113C133.49 208.351 133.715 208.611 133.895 208.887C134.075 209.162 134.169 209.442 134.169 209.717C134.169 209.895 134.127 210.061 134.045 210.219C133.962 210.378 133.858 210.517 133.726 210.642C133.595 210.767 133.445 210.868 133.277 210.944C133.108 211.019 132.936 211.065 132.76 211.076C132.572 211.087 132.396 211.065 132.235 211.001C132.074 210.936 131.924 210.861 131.793 210.774C131.662 210.687 131.542 210.597 131.437 210.502C131.332 210.408 131.238 210.336 131.163 210.283C130.95 210.121 130.725 209.951 130.489 209.774C130.253 209.596 130.009 209.453 129.758 209.34C128.945 209.026 128.158 208.894 127.397 208.943C126.637 208.992 125.932 209.181 125.291 209.509C124.647 209.838 124.085 210.276 123.605 210.831C123.126 211.386 122.755 212.001 122.5 212.681C122.245 213.36 122.121 214.077 122.133 214.832C122.144 215.587 122.327 216.331 122.676 217.06C122.912 217.55 123.249 218.034 123.688 218.505C124.126 218.977 124.647 219.366 125.254 219.676C125.861 219.985 126.535 220.174 127.277 220.242C128.019 220.31 128.818 220.182 129.668 219.853C129.942 219.751 130.211 219.619 130.474 219.457C130.736 219.294 130.968 219.136 131.167 218.985C131.242 218.936 131.324 218.86 131.411 218.758C131.497 218.656 131.602 218.558 131.722 218.464C131.842 218.369 131.973 218.286 132.123 218.218C132.272 218.151 132.452 218.113 132.666 218.113C132.865 218.113 133.056 218.154 133.235 218.237C133.415 218.32 133.576 218.426 133.711 218.558C133.85 218.69 133.959 218.838 134.041 219C134.124 219.162 134.165 219.328 134.165 219.491C134.176 219.781 134.105 220.046 133.947 220.291C133.79 220.536 133.595 220.759 133.359 220.959C133.123 221.159 132.868 221.344 132.598 221.507C132.329 221.669 132.096 221.816 131.894 221.941C131.531 222.156 131.171 222.341 130.807 222.496C130.444 222.654 130.073 222.783 129.691 222.884C129.308 222.986 128.9 223.051 128.465 223.081C128.027 223.111 127.555 223.111 127.041 223.073C125.917 222.998 124.883 222.733 123.942 222.28C122.998 221.827 122.181 221.231 121.488 220.487C120.795 219.744 120.251 218.883 119.858 217.901C119.465 216.92 119.262 215.863 119.251 214.73C119.225 213.56 119.412 212.492 119.806 211.522C120.199 210.551 120.75 209.683 121.466 208.917C122.14 208.188 122.908 207.573 123.77 207.075C124.632 206.576 125.674 206.278 126.899 206.176L126.895 206.187Z" fill="#004346"/>
<path d="M138.924 206.225C139.385 206.101 139.755 206.108 140.029 206.255C140.303 206.399 140.516 206.629 140.666 206.946C140.816 207.26 140.91 207.645 140.947 208.098C140.985 208.551 141 209.015 140.992 209.494C140.985 209.974 140.966 210.446 140.936 210.918C140.906 211.389 140.891 211.809 140.891 212.175V214.817C140.891 215.674 140.962 216.452 141.108 217.146C141.251 217.845 141.509 218.445 141.876 218.951C142.244 219.453 142.806 219.808 143.555 220.008C144.155 220.17 144.709 220.189 145.223 220.065C145.736 219.94 146.186 219.71 146.572 219.374C146.958 219.041 147.276 218.634 147.52 218.154C147.763 217.675 147.909 217.162 147.958 216.607C148.044 215.727 148.067 214.806 148.022 213.851C147.977 212.896 147.958 211.99 147.958 211.133C147.958 210.653 147.947 210.159 147.921 209.653C147.894 209.143 147.894 208.664 147.913 208.207C147.932 207.75 147.984 207.358 148.071 207.018C148.157 206.678 148.314 206.444 148.539 206.32C148.651 206.255 148.79 206.21 148.951 206.176C149.112 206.146 149.281 206.131 149.457 206.131C149.633 206.131 149.794 206.15 149.944 206.187C150.094 206.225 150.218 206.271 150.319 206.32C150.495 206.422 150.622 206.58 150.705 206.803C150.787 207.022 150.843 207.275 150.873 207.558C150.903 207.841 150.918 208.135 150.911 208.445C150.903 208.755 150.903 209.053 150.903 209.343C150.903 209.872 150.903 210.45 150.911 211.08C150.918 211.71 150.918 212.356 150.918 213.013C150.918 213.67 150.911 214.33 150.892 214.987C150.873 215.64 150.843 216.263 150.798 216.844C150.754 217.43 150.686 217.958 150.592 218.43C150.499 218.902 150.383 219.283 150.248 219.57C150.012 220.061 149.701 220.521 149.318 220.948C148.936 221.374 148.501 221.748 148.007 222.069C147.512 222.39 146.965 222.647 146.358 222.835C145.751 223.024 145.106 223.119 144.417 223.119C143.791 223.119 143.21 223.043 142.667 222.892C142.124 222.741 141.625 222.533 141.168 222.269C140.711 222.005 140.303 221.692 139.943 221.337C139.579 220.978 139.268 220.585 139.006 220.159C138.669 219.63 138.425 218.958 138.275 218.147C138.125 217.335 138.028 216.448 137.987 215.485C137.942 214.523 137.931 213.519 137.949 212.473C137.968 211.427 137.979 210.416 137.979 209.434C137.979 209.083 137.972 208.728 137.961 208.377C137.949 208.026 137.968 207.705 138.017 207.414C138.066 207.124 138.159 206.875 138.287 206.667C138.418 206.459 138.635 206.312 138.935 206.225H138.924Z" fill="#004346"/>
<path d="M155.692 206.244C156.191 206.104 156.577 206.112 156.843 206.263C157.112 206.414 157.307 206.652 157.435 206.973C157.558 207.294 157.63 207.675 157.648 208.117C157.667 208.558 157.678 209.004 157.678 209.457V216.308C157.678 216.675 157.671 217.033 157.648 217.396C157.63 217.754 157.63 218.086 157.648 218.396C157.667 218.705 157.716 218.985 157.798 219.238C157.881 219.491 158.012 219.683 158.199 219.823C158.398 219.974 158.649 220.076 158.949 220.125C159.248 220.174 159.578 220.2 159.942 220.2C160.305 220.2 160.687 220.185 161.096 220.155C161.5 220.125 161.916 220.11 162.344 220.11C162.595 220.11 162.913 220.11 163.299 220.098C163.685 220.091 164.071 220.098 164.453 220.129C164.835 220.155 165.176 220.208 165.484 220.287C165.791 220.37 166.001 220.506 166.109 220.695C166.158 220.782 166.199 220.895 166.233 221.035C166.263 221.174 166.282 221.325 166.289 221.488C166.297 221.65 166.289 221.816 166.259 221.978C166.233 222.141 166.184 222.288 166.109 222.413C165.96 222.677 165.675 222.858 165.255 222.952C164.835 223.047 164.36 223.096 163.82 223.103C163.284 223.111 162.73 223.096 162.164 223.066C161.594 223.035 161.085 223.02 160.635 223.02C160.309 223.02 159.878 223.039 159.342 223.077C158.806 223.115 158.255 223.134 157.693 223.134C157.131 223.134 156.607 223.096 156.119 223.02C155.632 222.945 155.288 222.794 155.089 222.567C154.977 222.443 154.894 222.231 154.845 221.937C154.797 221.642 154.759 221.31 154.741 220.948C154.722 220.582 154.714 220.204 154.722 219.815C154.729 219.427 154.729 219.079 154.729 218.777V210.585C154.729 210.17 154.718 209.725 154.692 209.253C154.666 208.781 154.673 208.339 154.711 207.924C154.748 207.509 154.834 207.15 154.973 206.848C155.111 206.546 155.348 206.35 155.685 206.263L155.692 206.244Z" fill="#004346"/>
<path d="M166.747 206.244C167.384 206.142 168.144 206.108 169.032 206.142C169.92 206.176 170.913 206.187 172.011 206.187C172.386 206.187 172.813 206.176 173.293 206.157C173.773 206.138 174.237 206.142 174.679 206.165C175.122 206.191 175.515 206.248 175.86 206.335C176.204 206.421 176.437 206.569 176.564 206.769C176.628 206.882 176.669 207.022 176.695 207.184C176.722 207.346 176.733 207.516 176.733 207.694C176.733 207.871 176.718 208.037 176.688 208.192C176.658 208.351 176.617 208.479 176.564 208.581C176.414 208.845 176.174 209.004 175.845 209.064C175.515 209.121 175.159 209.155 174.784 209.166C174.41 209.177 174.05 209.211 173.705 209.26C173.36 209.309 173.098 209.457 172.911 209.694C172.81 209.834 172.738 210.03 172.693 210.291C172.648 210.548 172.626 210.831 172.618 211.14C172.611 211.45 172.611 211.767 172.618 212.092C172.626 212.42 172.63 212.722 172.63 212.998V220.944C172.63 221.246 172.615 221.529 172.585 221.793C172.555 222.058 172.495 222.296 172.405 222.503C172.315 222.711 172.187 222.866 172.011 222.964C171.899 223.028 171.757 223.069 171.58 223.088C171.404 223.107 171.232 223.115 171.056 223.107C170.88 223.1 170.719 223.085 170.569 223.062C170.419 223.035 170.314 223.005 170.25 222.967C169.988 222.816 169.812 222.477 169.718 221.948C169.624 221.42 169.576 220.827 169.568 220.174C169.561 219.521 169.576 218.86 169.606 218.2C169.636 217.539 169.651 217.003 169.651 216.588V213.077C169.651 212.726 169.658 212.36 169.669 211.982C169.681 211.605 169.677 211.246 169.651 210.906C169.624 210.566 169.568 210.264 169.482 210C169.396 209.736 169.25 209.54 169.051 209.415C168.778 209.238 168.47 209.14 168.133 209.121C167.796 209.102 167.466 209.09 167.14 209.09C166.814 209.09 166.518 209.068 166.248 209.026C165.978 208.981 165.772 208.834 165.622 208.585C165.446 208.283 165.364 207.999 165.371 207.735C165.379 207.471 165.439 207.233 165.559 207.025C165.679 206.818 165.843 206.644 166.057 206.505C166.271 206.365 166.499 206.278 166.75 206.24L166.747 206.244Z" fill="#004346"/>
<path d="M186.363 206.169C187.038 206.12 187.69 206.138 188.319 206.225C188.949 206.312 189.548 206.459 190.11 206.667C190.672 206.875 191.193 207.128 191.673 207.422C192.152 207.716 192.58 208.041 192.954 208.396C193.292 208.709 193.621 209.087 193.936 209.528C194.255 209.97 194.536 210.457 194.779 210.993C195.023 211.529 195.218 212.099 195.371 212.711C195.521 213.322 195.596 213.953 195.596 214.61C195.596 215.855 195.371 216.999 194.922 218.045C194.472 219.091 193.861 219.985 193.093 220.733C192.325 221.48 191.425 222.065 190.395 222.488C189.365 222.911 188.274 223.119 187.127 223.119C185.981 223.119 184.83 222.907 183.792 222.488C182.754 222.065 181.855 221.48 181.087 220.725C180.319 219.97 179.716 219.072 179.277 218.026C178.839 216.98 178.621 215.844 178.621 214.61C178.621 213.375 178.839 212.296 179.27 211.325C179.701 210.355 180.248 209.525 180.911 208.834C181.548 208.154 182.309 207.565 183.197 207.067C184.085 206.569 185.138 206.271 186.363 206.169ZM181.567 215.04C181.642 216.097 181.949 217.014 182.492 217.796C183.036 218.577 183.699 219.174 184.489 219.589C185.115 219.917 185.76 220.114 186.427 220.182C187.094 220.25 187.749 220.208 188.383 220.049C189.02 219.891 189.616 219.63 190.174 219.264C190.729 218.898 191.204 218.445 191.598 217.905C191.991 217.365 192.28 216.743 192.46 216.037C192.64 215.331 192.681 214.564 192.583 213.734C192.497 213.043 192.272 212.39 191.92 211.778C191.564 211.167 191.111 210.646 190.564 210.212C190.013 209.778 189.391 209.453 188.69 209.238C187.989 209.023 187.259 208.962 186.498 209.049C185.786 209.136 185.119 209.343 184.493 209.661C183.867 209.981 183.328 210.404 182.871 210.925C182.413 211.446 182.069 212.054 181.829 212.749C181.593 213.439 181.503 214.202 181.567 215.032V215.04Z" fill="#004346"/>
<path d="M106.956 218.747C105.574 218.747 104.648 217.12 104.648 214.704C104.648 212.288 105.577 210.661 106.956 210.661C108.335 210.661 109.268 212.288 109.268 214.704C109.268 217.12 108.339 218.747 106.956 218.747ZM106.956 213.855C106.919 214.096 106.897 214.379 106.897 214.7C106.897 215.021 106.919 215.304 106.956 215.546C106.994 215.304 107.02 215.021 107.02 214.7C107.02 214.379 106.998 214.096 106.956 213.855Z" fill="#004346"/>
<path d="M90.7384 183.711C91.0007 183.628 91.1918 183.409 91.1918 183.137V181.759C91.1918 181.487 91.0082 181.265 90.7572 181.166C90.4536 181.046 90.1876 180.774 90.0564 180.438C89.959 180.185 89.7379 180.004 89.4681 180.004H88.0329C87.7557 180.004 87.5271 180.192 87.4334 180.453C87.0737 181.465 85.5073 181.472 85.1514 180.453C85.0577 180.189 84.8291 180.004 84.5518 180.004H83.1316C82.8543 180.004 82.6257 180.192 82.5321 180.453C82.1761 181.468 80.606 181.468 80.25 180.453C80.1563 180.189 79.9278 180.004 79.6505 180.004H78.234C77.9567 180.004 77.7282 180.192 77.6345 180.453C77.2747 181.468 75.7084 181.472 75.3524 180.453C75.2588 180.189 75.0302 180.004 74.7529 180.004H73.3327C73.0554 180.004 72.8268 180.192 72.7332 180.453C72.3772 181.468 70.8071 181.468 70.4511 180.453C70.3574 180.189 70.1289 180.004 69.8516 180.004H68.4351C68.1578 180.004 67.9292 180.192 67.8356 180.453C67.4758 181.468 65.9095 181.472 65.5535 180.453C65.4598 180.189 65.2313 180.004 64.954 180.004H63.5338C63.2565 180.004 63.0279 180.192 62.9342 180.453C62.5783 181.468 61.0082 181.468 60.6522 180.453C60.5585 180.189 60.3299 180.004 60.0526 180.004H58.6362C58.3589 180.004 58.1303 180.192 58.0367 180.453C57.6769 181.468 56.1106 181.472 55.7546 180.453C55.6609 180.189 55.4324 180.004 55.1551 180.004H53.7199C53.4501 180.004 53.2215 180.181 53.1278 180.434C53.0042 180.762 52.7494 181.03 52.4121 181.151C52.1611 181.242 51.9924 181.476 51.9924 181.744V183.152C51.9924 183.431 52.1798 183.662 52.4383 183.756C53.4463 184.115 53.4463 185.696 52.4383 186.055C52.176 186.149 51.9924 186.38 51.9924 186.659V188.056C51.9924 188.335 52.1798 188.565 52.4383 188.66C53.4463 189.018 53.4463 190.6 52.4383 190.959C52.176 191.053 51.9924 191.283 51.9924 191.563V192.96C51.9924 193.239 52.1798 193.469 52.4383 193.564C53.4501 193.922 53.4463 195.504 52.4383 195.863C52.1798 195.957 51.9924 196.187 51.9924 196.467V197.86C51.9924 198.139 52.1798 198.369 52.4383 198.464C53.4463 198.826 53.4501 200.404 52.4383 200.763C52.176 200.857 51.9924 201.087 51.9924 201.367V202.763C51.9924 203.043 52.1798 203.273 52.4383 203.367C53.4463 203.726 53.4463 205.308 52.4383 205.666C52.176 205.761 51.9924 205.991 51.9924 206.27V207.667C51.9924 207.946 52.1798 208.177 52.4383 208.271C53.4501 208.63 53.4463 210.212 52.4383 210.57C52.1798 210.665 51.9924 210.895 51.9924 211.174V212.567C51.9924 212.846 52.1798 213.077 52.4383 213.171C53.4463 213.534 53.4501 215.112 52.4383 215.47C52.176 215.565 51.9924 215.795 51.9924 216.074V217.471C51.9924 217.75 52.1798 217.981 52.4383 218.075C53.4463 218.434 53.4463 220.015 52.4383 220.374C52.176 220.468 51.9924 220.699 51.9924 220.978V222.375C51.9924 222.654 52.1798 222.884 52.4383 222.979C53.4463 223.337 53.4463 224.919 52.4383 225.278C52.176 225.372 51.9924 225.602 51.9924 225.882V227.29C51.9924 227.558 52.1648 227.792 52.4159 227.882C52.7494 228.003 53.0079 228.271 53.1316 228.6C53.2253 228.853 53.4538 229.03 53.7236 229.03H55.1588C55.4361 229.03 55.6647 228.841 55.7584 228.581C56.1143 227.565 57.6844 227.565 58.0404 228.581C58.1341 228.845 58.3627 229.03 58.64 229.03H60.0564C60.3337 229.03 60.5623 228.841 60.6559 228.581C61.0119 227.565 62.582 227.565 62.938 228.581C63.0317 228.845 63.2602 229.03 63.5375 229.03H64.9577C65.235 229.03 65.4636 228.841 65.5573 228.581C65.9133 227.558 67.4833 227.565 67.8393 228.581C67.933 228.845 68.1616 229.03 68.4389 229.03H69.8553C70.1326 229.03 70.3612 228.841 70.4549 228.581C70.8108 227.565 72.3809 227.565 72.7369 228.581C72.8306 228.845 73.0592 229.03 73.3364 229.03H74.7566C75.0339 229.03 75.2625 228.841 75.3562 228.581C75.7122 227.565 77.2822 227.565 77.6382 228.581C77.7319 228.845 77.9605 229.03 78.2378 229.03H79.6542C79.9315 229.03 80.1601 228.841 80.2538 228.581C80.6098 227.565 82.1798 227.565 82.5358 228.581C82.6295 228.845 82.8581 229.03 83.1354 229.03H84.5555C84.8328 229.03 85.0614 228.841 85.1551 228.581C85.5111 227.565 87.0812 227.565 87.4371 228.581C87.5308 228.845 87.7594 229.03 88.0367 229.03H89.4644C89.7342 229.03 89.9627 228.853 90.0564 228.596C90.1763 228.275 90.4274 228.011 90.7684 227.894C91.0195 227.807 91.1918 227.569 91.1918 227.301V225.897C91.1918 225.621 90.997 225.402 90.7347 225.319C89.7529 225.013 89.7567 223.25 90.7347 222.945C90.997 222.862 91.1918 222.643 91.1918 222.367V220.985C91.1918 220.71 91.0082 220.472 90.7497 220.385C89.678 220.023 89.8091 218.328 90.7646 218.041C91.0307 217.962 91.1956 217.694 91.1956 217.414V216.097C91.1956 215.821 91.0007 215.598 90.7384 215.519C89.7529 215.213 89.7641 213.451 90.7422 213.145C91.0045 213.062 91.1956 212.846 91.1956 212.571V211.257C91.1956 210.978 91.0307 210.706 90.7609 210.627C89.7979 210.34 89.678 208.645 90.7497 208.282C91.012 208.196 91.1918 207.958 91.1918 207.682V206.301C91.1918 206.025 90.997 205.806 90.7347 205.723C89.7529 205.417 89.7529 203.654 90.7347 203.348C90.997 203.265 91.1918 203.046 91.1918 202.771V201.389C91.1918 201.114 91.0082 200.876 90.7497 200.789C89.678 200.427 89.8091 198.735 90.7646 198.445C91.0307 198.365 91.1918 198.097 91.1918 197.818V196.55C91.1918 196.27 91.027 196.002 90.7609 195.923C89.8016 195.636 89.6705 193.941 90.7459 193.579C91.0082 193.492 91.1918 193.254 91.1918 192.978V191.601C91.1918 191.325 90.997 191.106 90.7347 191.023C89.7529 190.717 89.7567 188.954 90.7347 188.648C90.997 188.565 91.1881 188.346 91.1881 188.071V186.697C91.1881 186.421 90.9932 186.202 90.7309 186.119C89.7492 185.813 89.7529 184.051 90.7309 183.745L90.7384 183.711ZM56.0469 183.888H87.1449C87.2498 183.888 87.3322 183.971 87.3322 184.077V212.926C77.5183 213.081 73.4564 217.682 71.7964 221.061C70.1139 217.637 65.9657 212.952 55.8558 212.922V184.077C55.8558 183.971 55.9382 183.888 56.0431 183.888H56.0469ZM56.0469 225.112C55.942 225.112 55.8595 225.029 55.8595 224.923V215.191C69.593 215.236 70.6422 224.402 70.6797 224.802C70.6797 224.806 70.6797 224.81 70.6797 224.817C70.6797 224.851 70.6909 224.885 70.6984 224.915C70.7059 224.953 70.7134 224.995 70.7247 225.032C70.7321 225.059 70.7471 225.085 70.7546 225.112H56.0469ZM87.1486 225.112H72.8418C72.8531 225.085 72.8643 225.059 72.8755 225.029C72.8868 224.991 72.8905 224.953 72.898 224.919C72.9055 224.885 72.913 224.851 72.9168 224.813C72.9168 224.81 72.9168 224.802 72.9168 224.798C72.9168 224.776 73.1378 222.454 75.0227 220.087C77.4996 216.976 81.7526 215.296 87.3285 215.198V224.927C87.3285 225.032 87.246 225.115 87.1411 225.115L87.1486 225.112Z" fill="#004346"/>
<path d="M61.4653 210.933C63.0429 210.933 63.9422 210.223 64.4219 209.626C65.4299 208.366 65.4823 206.486 65.1975 205.145C65.0664 204.534 64.4706 204.145 63.8598 204.277C63.2527 204.409 62.8668 205.013 62.9979 205.625C63.1741 206.452 63.1478 207.611 62.6719 208.207C62.5108 208.407 62.2148 208.671 61.4653 208.671C60.7159 208.671 60.195 208.426 59.7604 207.92C59.1646 207.226 58.936 206.18 59.0259 205.546C59.0259 205.523 59.0334 205.5 59.0334 205.478C59.1009 204.636 60.1201 202.639 61.4653 202.639C61.7651 202.639 62.0574 202.514 62.2672 202.303C62.527 202.039 62.6445 200.634 62.6195 198.09C62.612 197.388 62.6045 196.599 62.597 195.753C62.597 195.406 62.7281 195.081 62.968 194.836C63.2115 194.587 63.5375 194.451 63.886 194.451H64.9465C65.5873 194.451 66.1381 194.93 66.2318 195.568L66.8276 199.592C67.0861 201.329 68.5925 202.639 70.3387 202.639H73.254C74.9965 202.639 76.5066 201.329 76.7651 199.592L77.3609 195.568C77.4546 194.93 78.0092 194.451 78.6462 194.451H79.7067C80.0552 194.451 80.3812 194.587 80.6247 194.836C80.8683 195.081 80.9995 195.406 80.9957 195.753C80.9882 196.603 80.9807 197.395 80.9732 198.101C80.9482 200.638 81.0657 202.039 81.3255 202.303C81.5353 202.518 81.8276 202.639 82.1274 202.639C83.4726 202.639 84.4918 204.636 84.5593 205.478C84.5593 205.5 84.563 205.523 84.5668 205.546C84.6567 206.176 84.4319 207.226 83.8323 207.92C83.3977 208.426 82.8393 208.671 82.1274 208.671C81.4154 208.671 81.0819 208.407 80.9208 208.207C80.4449 207.611 80.4186 206.452 80.5948 205.625C80.7259 205.013 80.34 204.409 79.7329 204.277C79.1259 204.145 78.5263 204.534 78.3952 205.145C78.1066 206.486 78.1591 208.369 79.1708 209.626C79.6467 210.223 80.5498 210.933 82.1274 210.933C83.4951 210.933 84.6717 210.404 85.5336 209.4C86.624 208.135 86.9538 206.414 86.7964 205.255C86.654 203.722 85.3762 201.185 83.2066 200.529C83.2066 199.921 83.2141 199.034 83.2215 198.12C83.229 197.41 83.2365 196.618 83.244 195.764C83.2515 194.809 82.888 193.911 82.221 193.235C81.5503 192.556 80.6585 192.182 79.7067 192.182H79.6018C79.9765 191.525 80.1938 190.766 80.1938 189.955C80.1938 187.478 78.1928 185.462 75.7347 185.462C74.0297 185.462 72.542 186.436 71.7964 187.86C71.0469 186.436 69.563 185.462 67.8581 185.462C65.3999 185.462 63.3989 187.478 63.3989 189.955C63.3989 190.766 63.6162 191.525 63.9909 192.182H63.886C62.9342 192.182 62.0424 192.556 61.3717 193.235C60.7047 193.911 60.3412 194.809 60.3449 195.764C60.3524 196.614 60.3599 197.403 60.3674 198.109C60.3749 199.03 60.3861 199.917 60.3861 200.529C58.2128 201.185 56.935 203.722 56.7963 205.255C56.6427 206.414 56.9725 208.135 58.0591 209.4C58.921 210.4 60.0976 210.933 61.4653 210.933ZM75.7384 187.731C76.9562 187.731 77.9492 188.732 77.9492 189.958C77.9492 191.185 76.9562 192.186 75.7384 192.186C74.5206 192.186 73.5276 191.189 73.5276 189.958C73.5276 188.728 74.5206 187.731 75.7384 187.731ZM71.8001 192.05C72.4933 193.367 73.8161 194.292 75.3599 194.424C75.2588 194.677 75.1801 194.945 75.1388 195.225L74.543 199.249C74.4494 199.887 73.8948 200.366 73.2578 200.366H70.3424C69.7017 200.366 69.1508 199.887 69.0572 199.249L68.4614 195.225C68.4201 194.945 68.3414 194.677 68.2403 194.424C69.7841 194.292 71.1069 193.364 71.8001 192.05ZM67.8618 187.731C69.0796 187.731 70.0726 188.732 70.0726 189.958C70.0726 191.185 69.0796 192.186 67.8618 192.186C66.644 192.186 65.651 191.189 65.651 189.958C65.651 188.728 66.644 187.731 67.8618 187.731Z" fill="#004346"/>
<path d="M71.8001 207.063C69.7167 207.063 68.0229 208.77 68.0229 210.868C68.0229 212.967 69.7167 214.674 71.8001 214.674C73.8836 214.674 75.5773 212.967 75.5773 210.868C75.5773 208.77 73.8836 207.063 71.8001 207.063ZM71.8001 212.409C70.957 212.409 70.2713 211.718 70.2713 210.868C70.2713 210.019 70.957 209.328 71.8001 209.328C72.6432 209.328 73.329 210.019 73.329 210.868C73.329 211.718 72.6432 212.409 71.8001 212.409Z" fill="#004346"/>
</g>
<defs>
<clipPath id="clip0_2001_52">
<rect width="202" height="49" fill="white" transform="translate(52 180)"/>
</clipPath>
</defs>
</svg>
