<svg width="247" height="60" viewBox="0 0 247 60" fill="none" xmlns="http://www.w3.org/2000/svg">
<g clip-path="url(#clip0_2001_464)">
<path d="M58.8187 7.34981C59.4144 7.25736 59.9276 7.28047 60.3537 7.41914C60.7798 7.55782 61.1601 7.76583 61.49 8.04318C61.8199 8.32053 62.1132 8.65335 62.3698 9.03702C62.6309 9.42068 62.8967 9.80897 63.1716 10.1926C63.3228 10.4099 63.4878 10.6688 63.6665 10.9785C63.8406 11.2882 64.033 11.584 64.2392 11.866C64.4454 12.1526 64.6699 12.3929 64.9127 12.5963C65.1556 12.7951 65.4168 12.906 65.6917 12.9199C65.9803 12.9338 66.2644 12.8413 66.5393 12.6426C66.8143 12.4438 67.0663 12.1942 67.2954 11.903C67.5245 11.6117 67.7352 11.3113 67.9277 11.0154C68.1201 10.715 68.2805 10.4654 68.4225 10.2666C68.6058 10.0031 68.7799 9.73501 68.9495 9.45766C69.119 9.18031 69.3023 8.91221 69.4993 8.64873C69.6963 8.38525 69.9117 8.1495 70.1408 7.94149C70.3699 7.73347 70.6356 7.56706 70.9426 7.44226C71.2634 7.33594 71.5887 7.2666 71.914 7.23424C72.2439 7.20189 72.5463 7.21113 72.8304 7.25736C73.1145 7.30358 73.3527 7.39141 73.5498 7.52084C73.7468 7.65027 73.8705 7.80743 73.9163 7.99696C73.9621 8.18186 73.9484 8.38987 73.8705 8.62099C73.7926 8.85212 73.6872 9.07862 73.5498 9.30512C73.4123 9.527 73.2657 9.73964 73.1145 9.94303C72.9633 10.1418 72.8396 10.3128 72.7479 10.4515C72.4592 10.8675 72.1889 11.2512 71.9461 11.5979C71.7032 11.9446 71.465 12.2866 71.2359 12.6241C71.0068 12.9615 70.7731 13.3036 70.5394 13.641C70.3011 13.9785 70.04 14.3483 69.7467 14.7504C69.6413 14.9215 69.513 15.0971 69.3664 15.282C69.2198 15.4669 69.0869 15.6611 68.9632 15.8598C68.8395 16.0586 68.7341 16.2666 68.6425 16.4746C68.5508 16.6826 68.505 16.8953 68.505 17.1125C68.505 17.376 68.5554 17.6302 68.6562 17.8752C68.757 18.1202 68.8807 18.356 69.0319 18.5825C69.1831 18.8044 69.3435 19.017 69.513 19.2204C69.6826 19.4191 69.8246 19.604 69.9483 19.7751C70.4982 20.5609 71.0388 21.3513 71.5749 22.1418C72.111 22.9369 72.6746 23.7458 73.2703 24.5778C73.3756 24.7304 73.5131 24.9153 73.6826 25.1325C73.8522 25.3498 74.008 25.5763 74.15 25.8167C74.2966 26.057 74.4112 26.2882 74.4936 26.5101C74.5761 26.7319 74.599 26.9353 74.5486 27.1202C74.4707 27.3652 74.3241 27.5594 74.0996 27.698C73.8797 27.8367 73.6185 27.9292 73.3207 27.9754C73.0228 28.0216 72.7021 28.0216 72.3584 27.9754C72.0148 27.9292 71.6895 27.8367 71.3871 27.698C71.0663 27.5455 70.7318 27.2635 70.379 26.8567C70.0262 26.45 69.678 25.997 69.3252 25.5023C68.9724 25.0077 68.6379 24.5085 68.3172 24C67.9964 23.4916 67.6986 23.0524 67.4237 22.6826C67.332 22.5578 67.2404 22.4191 67.1488 22.2666C67.0571 22.1141 66.9517 21.9661 66.8372 21.8275C66.7226 21.6888 66.5898 21.5686 66.434 21.4669C66.2828 21.3652 66.0903 21.3097 65.8612 21.2913C65.5405 21.2774 65.2381 21.3837 64.954 21.6148C64.6699 21.846 64.3996 22.1279 64.143 22.4607C63.8818 22.7936 63.6435 23.1403 63.4236 23.5101C63.2037 23.8799 62.9929 24.2034 62.7913 24.4808C62.5485 24.8367 62.3194 25.1834 62.1132 25.5208C61.907 25.8583 61.6962 26.1772 61.4809 26.4684C61.2655 26.7597 61.0318 27.0185 60.7844 27.2404C60.5324 27.4623 60.2391 27.6379 59.9001 27.7581C59.6114 27.8829 59.2998 27.9523 58.9745 27.9754C58.6446 27.9985 58.3422 27.9893 58.0581 27.943C57.774 27.8968 57.5312 27.8136 57.325 27.698C57.1188 27.5825 56.986 27.4484 56.9218 27.2913C56.8302 27.0601 56.8393 26.8059 56.9447 26.5285C57.0501 26.2512 57.1876 25.9877 57.3571 25.7335C57.5266 25.4792 57.7007 25.2481 57.884 25.0401C58.0673 24.8321 58.1956 24.6749 58.2735 24.564C58.5942 24.1156 58.8829 23.6996 59.1441 23.3159C59.4052 22.9322 59.6572 22.5532 59.9001 22.1834C60.1429 21.8136 60.3949 21.4392 60.6561 21.0648C60.9173 20.6857 61.2059 20.2743 61.5267 19.8259C61.6504 19.6549 61.7878 19.4792 61.9482 19.2943C62.1086 19.1094 62.2598 18.9107 62.4064 18.6934C62.553 18.4762 62.6768 18.2543 62.7867 18.0232C62.8921 17.792 62.9562 17.547 62.97 17.2836C62.9837 16.8537 62.8921 16.4191 62.6951 15.9893C62.4981 15.5594 62.246 15.1433 61.9528 14.7412C61.655 14.339 61.348 13.96 61.0364 13.5994C60.7248 13.2389 60.4682 12.9199 60.2712 12.6379C59.9963 12.2543 59.7535 11.8845 59.5381 11.5285C59.3228 11.1726 59.0799 10.8121 58.805 10.4423C58.5896 10.1325 58.3651 9.81822 58.1269 9.49465C57.8886 9.17107 57.7236 8.86136 57.6366 8.57015C57.545 8.27893 57.577 8.02469 57.7282 7.80743C57.8794 7.59018 58.2414 7.43763 58.805 7.34518L58.8187 7.34981Z" fill="#004346"/>
<path d="M85.7606 7.23421C86.5853 7.17412 87.3826 7.19723 88.1569 7.30355C88.9267 7.40987 89.6553 7.59014 90.3425 7.84438C91.0298 8.09862 91.6667 8.40832 92.2578 8.76888C92.8443 9.12943 93.3666 9.52697 93.8248 9.96148C94.2372 10.3451 94.6358 10.8074 95.0253 11.3482C95.4148 11.8891 95.7584 12.4854 96.0563 13.1418C96.3541 13.7982 96.5924 14.4962 96.7802 15.245C96.9635 15.9938 97.0551 16.7658 97.0551 17.5701C97.0551 19.0955 96.7802 20.4962 96.2304 21.7766C95.6805 23.057 94.9337 24.1525 93.9944 25.0678C93.0551 25.9831 91.9554 26.6995 90.6954 27.2173C89.4353 27.735 88.102 27.9892 86.6999 27.9892C85.2978 27.9892 83.8911 27.7304 82.6219 27.2173C81.3527 26.6995 80.2531 25.9831 79.3138 25.0586C78.3745 24.1341 77.6368 23.0339 77.1007 21.7535C76.5646 20.473 76.2988 19.0817 76.2988 17.5701C76.2988 16.0586 76.5646 14.7365 77.0915 13.5485C77.6184 12.3606 78.2874 11.3436 79.0984 10.4977C79.8773 9.66564 80.8075 8.94453 81.8934 8.33436C82.9793 7.7242 84.2669 7.35902 85.7652 7.23421H85.7606ZM79.8957 18.0971C79.9873 19.3914 80.363 20.5146 81.032 21.4715C81.6964 22.4284 82.5074 23.1587 83.4696 23.6672C84.2348 24.0693 85.0229 24.3097 85.8431 24.3929C86.6587 24.4761 87.4559 24.4253 88.2348 24.2311C89.0138 24.037 89.7423 23.718 90.425 23.2696C91.1032 22.8213 91.6851 22.2666 92.1662 21.6056C92.6473 20.9445 93.0001 20.1818 93.22 19.3174C93.44 18.453 93.4904 17.5146 93.3712 16.4977C93.2658 15.6518 92.9909 14.8521 92.5602 14.1032C92.1249 13.3544 91.5705 12.7165 90.9015 12.1849C90.228 11.6533 89.4674 11.2558 88.6106 10.9923C87.7537 10.7288 86.8603 10.6549 85.9301 10.7612C85.0595 10.8675 84.244 11.1217 83.4788 11.51C82.7136 11.9029 82.0538 12.4207 81.4994 13.0586C80.9404 13.6965 80.5188 14.4407 80.2256 15.2912C79.9369 16.1371 79.8269 17.0709 79.9048 18.0878L79.8957 18.0971Z" fill="#004346"/>
<path d="M111.007 7.25741C111.406 7.21118 111.841 7.19732 112.327 7.21118C112.808 7.22505 113.298 7.27128 113.793 7.34986C114.288 7.42844 114.787 7.53476 115.282 7.67343C115.777 7.81211 116.249 7.99701 116.693 8.22813C116.982 8.38068 117.317 8.57944 117.688 8.81981C118.064 9.06018 118.412 9.32366 118.742 9.61488C119.072 9.9061 119.346 10.2251 119.566 10.5625C119.786 10.8999 119.901 11.242 119.901 11.5794C119.901 11.7967 119.85 12.0001 119.75 12.1942C119.649 12.3884 119.521 12.5594 119.36 12.712C119.2 12.8645 119.017 12.9893 118.81 13.0818C118.604 13.1742 118.393 13.2297 118.178 13.2435C117.949 13.2574 117.734 13.2297 117.537 13.1511C117.34 13.0725 117.156 12.9801 116.996 12.8737C116.836 12.7674 116.689 12.6565 116.561 12.5409C116.432 12.4254 116.318 12.3375 116.226 12.2728C115.965 12.074 115.69 11.866 115.401 11.6488C115.113 11.4315 114.815 11.2559 114.508 11.1172C113.514 10.7335 112.551 10.5717 111.621 10.6318C110.691 10.6919 109.83 10.923 109.046 11.3252C108.258 11.7274 107.571 12.2636 106.984 12.9431C106.398 13.6226 105.944 14.3761 105.633 15.2081C105.321 16.0402 105.17 16.9184 105.184 17.8429C105.197 18.7674 105.422 19.6781 105.848 20.5702C106.137 21.1711 106.549 21.7628 107.085 22.3406C107.621 22.9184 108.258 23.3945 109 23.7736C109.743 24.1526 110.567 24.3838 111.475 24.467C112.382 24.5502 113.358 24.393 114.398 23.9908C114.732 23.866 115.062 23.7042 115.383 23.5055C115.704 23.3067 115.988 23.1126 116.231 22.9277C116.322 22.8676 116.423 22.7751 116.529 22.6503C116.634 22.5255 116.762 22.4053 116.909 22.2898C117.055 22.1742 117.216 22.0725 117.399 21.9893C117.582 21.9061 117.802 21.8599 118.064 21.8599C118.306 21.8599 118.54 21.9107 118.76 22.0124C118.98 22.1141 119.177 22.2435 119.342 22.4053C119.511 22.5671 119.644 22.7474 119.745 22.9462C119.846 23.1449 119.896 23.3483 119.896 23.5471C119.91 23.903 119.823 24.2266 119.631 24.5271C119.438 24.8275 119.2 25.1002 118.911 25.3452C118.622 25.5902 118.311 25.8167 117.981 26.0155C117.651 26.2143 117.367 26.3945 117.12 26.5471C116.675 26.8106 116.235 27.0371 115.791 27.2266C115.346 27.4207 114.893 27.5779 114.425 27.7027C113.958 27.8275 113.459 27.9061 112.927 27.9431C112.391 27.9801 111.814 27.9801 111.186 27.9338C109.811 27.8414 108.547 27.5178 107.397 26.9631C106.242 26.4084 105.243 25.6781 104.395 24.7674C103.548 23.8568 102.883 22.8029 102.402 21.601C101.921 20.3992 101.674 19.1049 101.66 17.7181C101.628 16.2851 101.857 14.977 102.338 13.789C102.819 12.601 103.493 11.5378 104.368 10.5995C105.193 9.70733 106.132 8.95387 107.186 8.3437C108.24 7.73353 109.514 7.36835 111.012 7.24354L111.007 7.25741Z" fill="#004346"/>
<path d="M125.761 7.41916C126.311 7.26662 126.751 7.28973 127.081 7.4885C127.411 7.68727 127.663 8.00622 127.837 8.43611C128.011 8.866 128.121 9.39297 128.171 10.0078C128.217 10.6226 128.24 11.2789 128.24 11.9723C128.24 12.6657 128.226 13.3637 128.194 14.0663C128.162 14.7689 128.158 15.4161 128.171 16.017C128.185 16.6179 128.24 17.1403 128.332 17.5887C128.423 18.037 128.593 18.3514 128.836 18.5363C128.959 18.6287 129.216 18.7119 129.615 18.7813C130.013 18.8506 130.476 18.9061 130.998 18.943C131.525 18.98 132.089 18.9985 132.694 18.9985C133.299 18.9985 133.862 18.9708 134.389 18.9199C134.916 18.8645 135.379 18.7859 135.777 18.6749C136.176 18.5686 136.433 18.4299 136.556 18.2589C136.74 18.0139 136.854 17.6025 136.9 17.0247C136.946 16.4469 136.96 15.7859 136.946 15.0463C136.932 14.3067 136.905 13.5301 136.868 12.7119C136.831 11.8937 136.822 11.131 136.845 10.4238C136.868 9.71654 136.937 9.09251 137.051 8.56092C137.166 8.02933 137.367 7.67802 137.661 7.51161C137.858 7.3868 138.073 7.30822 138.302 7.26662C138.531 7.22964 138.747 7.21577 138.953 7.22964C139.159 7.24351 139.347 7.28049 139.512 7.33596C139.681 7.39143 139.819 7.4469 139.924 7.51161C140.167 7.65029 140.346 7.89528 140.451 8.25121C140.556 8.60714 140.625 9.0093 140.657 9.46231C140.689 9.91531 140.694 10.3914 140.68 10.886C140.666 11.3806 140.657 11.8429 140.657 12.2728V23.1125C140.657 23.5609 140.666 24.0232 140.68 24.5085C140.694 24.9939 140.68 25.4561 140.648 25.8953C140.611 26.3344 140.538 26.7181 140.428 27.0509C140.323 27.3837 140.153 27.6195 139.924 27.7581C139.846 27.8044 139.718 27.8506 139.535 27.8968C139.351 27.943 139.15 27.9708 138.93 27.9754C138.71 27.9846 138.481 27.9754 138.252 27.943C138.023 27.9107 137.826 27.8506 137.656 27.7581C137.367 27.5871 137.17 27.3791 137.07 27.1341C136.969 26.8891 136.918 26.621 136.909 26.3344C136.9 26.0478 136.923 25.752 136.964 25.4469C137.01 25.1372 137.028 24.8321 137.019 24.5363C137.01 24.2358 136.96 23.9446 136.859 23.6672C136.758 23.3899 136.575 23.1449 136.295 22.9276C136.126 22.8028 135.832 22.7104 135.415 22.641C134.994 22.5717 134.513 22.5209 133.972 22.4885C133.431 22.4561 132.863 22.4561 132.268 22.4793C131.672 22.5024 131.118 22.544 130.609 22.6041C130.096 22.6642 129.651 22.7474 129.266 22.8491C128.886 22.9508 128.648 23.0663 128.556 23.2096C128.295 23.5794 128.171 23.9769 128.176 24.3976C128.185 24.8229 128.208 25.2435 128.245 25.6595C128.281 26.0756 128.268 26.4685 128.199 26.8383C128.13 27.2081 127.887 27.5178 127.475 27.7628C127.369 27.8229 127.218 27.8737 127.026 27.9153C126.833 27.9523 126.632 27.9754 126.421 27.9846C126.206 27.9939 125.999 27.9754 125.802 27.9384C125.605 27.9014 125.436 27.8414 125.298 27.7628C125.069 27.638 124.904 27.4022 124.804 27.0463C124.703 26.6903 124.634 26.2928 124.597 25.8444C124.561 25.396 124.542 24.943 124.552 24.4808C124.561 24.0185 124.561 23.6164 124.561 23.2789V12.8321C124.561 12.1988 124.552 11.584 124.529 10.9831C124.506 10.3822 124.515 9.83673 124.561 9.34212C124.607 8.84751 124.717 8.43149 124.895 8.09405C125.069 7.7566 125.358 7.5301 125.757 7.42378L125.761 7.41916Z" fill="#004346"/>
<path d="M146.517 7.32675C147.219 7.14185 147.741 7.16034 148.085 7.38222C148.428 7.6041 148.666 7.96003 148.808 8.4454C148.946 8.93076 149.01 9.51781 149.001 10.2019C148.992 10.8861 148.987 11.5841 148.987 12.2913V23.1773C148.987 23.6395 148.996 24.1157 149.01 24.601C149.024 25.0864 149.019 25.5394 148.987 25.9647C148.955 26.3899 148.886 26.7597 148.781 27.0833C148.676 27.4069 148.497 27.638 148.254 27.7767C148.13 27.8553 147.97 27.9061 147.759 27.9385C147.548 27.9708 147.342 27.9847 147.127 27.9847C146.912 27.9847 146.705 27.9708 146.508 27.9385C146.311 27.9061 146.156 27.8553 146.05 27.7767C145.853 27.6519 145.702 27.4439 145.601 27.1388C145.5 26.8383 145.432 26.4824 145.395 26.0617C145.358 25.6457 145.34 25.1927 145.34 24.712V12.7489C145.34 12.3006 145.326 11.7875 145.294 11.2096C145.262 10.6318 145.267 10.0725 145.308 9.5363C145.345 8.99547 145.454 8.52398 145.629 8.1172C145.803 7.71042 146.101 7.44231 146.513 7.31751L146.517 7.32675Z" fill="#004346"/>
<path d="M155.384 7.30344C156.025 7.24335 156.547 7.40051 156.951 7.77956C157.354 8.1586 157.693 8.63472 157.968 9.21253C158.243 9.79034 158.476 10.4051 158.669 11.0477C158.861 11.6948 159.063 12.2588 159.278 12.7349C159.37 12.9521 159.526 13.3081 159.746 13.8119C159.966 14.3158 160.222 14.8843 160.511 15.5222C160.799 16.1601 161.106 16.8258 161.427 17.5099C161.748 18.194 162.059 18.8227 162.366 19.3959C162.673 19.9645 162.948 20.436 163.2 20.8058C163.452 21.1756 163.649 21.3605 163.787 21.3605C163.911 21.3605 164.094 21.1802 164.337 20.815C164.58 20.4544 164.854 19.9922 165.161 19.4282C165.468 18.8643 165.785 18.2495 166.115 17.5792C166.444 16.909 166.747 16.2618 167.031 15.6378C167.315 15.0138 167.567 14.4544 167.787 13.9645C168.007 13.4745 168.158 13.1232 168.236 12.9244C168.419 12.476 168.625 11.9768 168.855 11.4221C169.084 10.8674 169.313 10.3312 169.542 9.81346C169.771 9.29574 169.982 8.84735 170.174 8.46369C170.367 8.08002 170.513 7.8304 170.623 7.72409C170.761 7.58541 170.944 7.4791 171.173 7.40051C171.402 7.32193 171.645 7.27571 171.897 7.26184C172.149 7.24797 172.401 7.26184 172.653 7.31731C172.905 7.37278 173.12 7.4606 173.304 7.58079C173.501 7.73333 173.652 7.9737 173.748 8.29728C173.849 8.62085 173.908 8.9999 173.931 9.42979C173.954 9.85968 173.963 10.3266 173.954 10.8304C173.945 11.3296 173.945 11.8335 173.945 12.3466C173.931 14.0245 173.927 15.7672 173.931 17.57C173.941 19.3728 173.945 21.2356 173.945 23.1632C173.945 23.5192 173.954 23.9306 173.968 24.3974C173.982 24.8689 173.968 25.3312 173.931 25.7842C173.895 26.2372 173.821 26.6486 173.716 27.0091C173.611 27.3697 173.441 27.6239 173.212 27.758C173.029 27.8643 172.827 27.9336 172.603 27.9521C172.378 27.9706 172.167 27.9799 171.961 27.966C171.755 27.9521 171.567 27.9244 171.398 27.8874C171.228 27.8504 171.109 27.8042 171.031 27.758C170.802 27.6193 170.632 27.3466 170.527 26.9352C170.422 26.5284 170.348 26.0477 170.307 25.493C170.27 24.9383 170.257 24.3373 170.275 23.6902C170.289 23.043 170.298 22.4098 170.298 21.795C170.298 21.4575 170.307 21.1155 170.335 20.7688C170.357 20.4221 170.362 20.1078 170.344 19.8212C170.33 19.5346 170.27 19.2942 170.17 19.0908C170.069 18.892 169.899 18.758 169.656 18.6979C169.533 18.6655 169.372 18.7672 169.175 18.9984C168.978 19.2295 168.754 19.5438 168.502 19.946C168.25 20.3481 167.979 20.8058 167.686 21.3235C167.397 21.8412 167.1 22.3682 166.806 22.9044C166.509 23.4452 166.211 23.9768 165.913 24.4991C165.615 25.0215 165.336 25.493 165.074 25.909C164.813 26.325 164.58 26.6578 164.364 26.9121C164.149 27.1663 163.975 27.2957 163.837 27.2957C163.64 27.3096 163.379 27.1016 163.058 26.6717C162.738 26.2418 162.389 25.7102 162.014 25.0769C161.638 24.4437 161.249 23.7595 160.845 23.0199C160.442 22.2803 160.053 21.5962 159.686 20.9629C159.319 20.3296 158.99 19.8165 158.701 19.4144C158.412 19.0122 158.188 18.8366 158.037 18.8828C157.775 18.9429 157.597 19.0769 157.5 19.2757C157.4 19.4745 157.345 19.7195 157.326 20.0014C157.313 20.288 157.317 20.5931 157.349 20.9167C157.381 21.2403 157.395 21.5638 157.395 21.8874C157.395 22.4098 157.409 22.9829 157.432 23.5977C157.455 24.2125 157.455 24.8042 157.432 25.3682C157.409 25.9321 157.345 26.4313 157.239 26.8705C157.134 27.3096 156.941 27.6054 156.667 27.758C156.575 27.8181 156.428 27.8689 156.231 27.9105C156.034 27.9475 155.819 27.966 155.59 27.966C155.361 27.966 155.141 27.9521 154.925 27.9198C154.71 27.8874 154.536 27.8366 154.398 27.758C154.183 27.6332 154.023 27.4159 153.917 27.1016C153.812 26.7873 153.743 26.4175 153.711 26.0014C153.679 25.5854 153.67 25.1417 153.675 24.6702C153.679 24.1987 153.688 23.7318 153.688 23.2695V12.7996C153.688 12.1524 153.675 11.5099 153.642 10.8674C153.61 10.2295 153.633 9.65629 153.697 9.14782C153.766 8.63934 153.922 8.21869 154.169 7.8905C154.417 7.5623 154.82 7.36353 155.384 7.29882V7.30344Z" fill="#004346"/>
<path d="M179.783 7.32675C180.484 7.14185 181.006 7.16034 181.35 7.38222C181.693 7.6041 181.931 7.96003 182.073 8.4454C182.211 8.93076 182.275 9.51781 182.266 10.2019C182.257 10.8861 182.252 11.5841 182.252 12.2913V23.1773C182.252 23.6395 182.261 24.1157 182.275 24.601C182.289 25.0864 182.284 25.5394 182.252 25.9647C182.22 26.3899 182.151 26.7597 182.046 27.0833C181.941 27.4069 181.762 27.638 181.519 27.7767C181.395 27.8553 181.235 27.9061 181.024 27.9385C180.813 27.9708 180.607 27.9847 180.392 27.9847C180.177 27.9847 179.97 27.9708 179.773 27.9385C179.576 27.9061 179.421 27.8553 179.315 27.7767C179.118 27.6519 178.967 27.4439 178.866 27.1388C178.765 26.8383 178.697 26.4824 178.66 26.0617C178.623 25.6457 178.605 25.1927 178.605 24.712V12.7489C178.605 12.3006 178.591 11.7875 178.559 11.2096C178.527 10.6318 178.532 10.0725 178.573 9.5363C178.61 8.99547 178.719 8.52398 178.894 8.1172C179.068 7.71042 179.366 7.44231 179.778 7.31751L179.783 7.32675Z" fill="#004346"/>
<path d="M188.122 7.32654C188.731 7.15551 189.203 7.16475 189.528 7.34965C189.858 7.53455 190.097 7.82577 190.252 8.21868C190.404 8.61159 190.495 9.07847 190.518 9.6193C190.541 10.1601 190.555 10.7056 190.555 11.2603V19.6501C190.555 20.0985 190.541 20.5376 190.518 20.9814C190.495 21.4252 190.495 21.8273 190.518 22.2064C190.541 22.5854 190.601 22.9275 190.701 23.2372C190.802 23.5469 190.963 23.7826 191.192 23.9537C191.434 24.1386 191.741 24.2634 192.108 24.3235C192.475 24.3836 192.878 24.4159 193.322 24.4159C193.767 24.4159 194.234 24.3974 194.733 24.3604C195.228 24.3235 195.737 24.305 196.259 24.305C196.566 24.305 196.956 24.305 197.428 24.2911C197.9 24.2819 198.372 24.2911 198.839 24.3281C199.306 24.3604 199.723 24.4252 200.099 24.5222C200.475 24.6239 200.731 24.7903 200.864 25.0215C200.924 25.1278 200.974 25.2664 201.015 25.4375C201.052 25.6085 201.075 25.7934 201.084 25.9922C201.093 26.1909 201.084 26.3943 201.047 26.5931C201.015 26.7919 200.956 26.9721 200.864 27.1247C200.681 27.4483 200.333 27.6701 199.819 27.7857C199.306 27.9013 198.724 27.9614 198.065 27.9706C197.409 27.9799 196.731 27.9614 196.039 27.9244C195.347 27.8874 194.72 27.8689 194.17 27.8689C193.771 27.8689 193.244 27.892 192.589 27.9382C191.934 27.9845 191.26 28.0076 190.573 28.0076C189.886 28.0076 189.244 27.9614 188.649 27.8689C188.053 27.7765 187.631 27.5916 187.389 27.3142C187.251 27.1617 187.15 26.9028 187.091 26.5423C187.031 26.1817 186.985 25.7749 186.962 25.3312C186.94 24.8874 186.93 24.4205 186.94 23.9444C186.949 23.4683 186.949 23.043 186.949 22.6732V12.6424C186.949 12.1339 186.935 11.5885 186.903 11.0107C186.871 10.4329 186.88 9.89202 186.926 9.38355C186.972 8.87508 187.077 8.43594 187.247 8.06614C187.416 7.69634 187.705 7.45597 188.117 7.34965L188.122 7.32654Z" fill="#004346"/>
<path d="M212.75 7.25741C213.148 7.21118 213.584 7.19732 214.069 7.21118C214.551 7.22505 215.041 7.27128 215.536 7.34986C216.031 7.42844 216.53 7.53476 217.025 7.67343C217.52 7.81211 217.992 7.99701 218.436 8.22813C218.725 8.38068 219.059 8.57944 219.43 8.81981C219.801 9.06018 220.154 9.32366 220.484 9.61488C220.814 9.9061 221.089 10.2251 221.309 10.5625C221.529 10.8999 221.639 11.242 221.639 11.5794C221.639 11.7967 221.588 12.0001 221.488 12.1942C221.387 12.3884 221.259 12.5594 221.098 12.712C220.938 12.8645 220.755 12.9893 220.548 13.0818C220.342 13.1742 220.131 13.2297 219.916 13.2435C219.687 13.2574 219.472 13.2297 219.275 13.1511C219.078 13.0725 218.894 12.9801 218.734 12.8737C218.573 12.7674 218.427 12.6565 218.299 12.5409C218.17 12.4254 218.056 12.3375 217.964 12.2728C217.703 12.074 217.428 11.866 217.139 11.6488C216.851 11.4315 216.553 11.2559 216.246 11.1172C215.252 10.7335 214.289 10.5717 213.359 10.6318C212.429 10.6919 211.568 10.923 210.784 11.3252C209.996 11.7274 209.309 12.2636 208.722 12.9431C208.136 13.6226 207.682 14.3761 207.371 15.2081C207.059 16.0402 206.908 16.9184 206.926 17.8429C206.94 18.7674 207.164 19.6781 207.591 20.5702C207.879 21.1711 208.292 21.7628 208.828 22.3406C209.364 22.9184 210.001 23.3945 210.743 23.7736C211.485 24.1526 212.31 24.3838 213.217 24.467C214.124 24.5502 215.1 24.393 216.14 23.9908C216.475 23.866 216.805 23.7042 217.126 23.5055C217.446 23.3067 217.73 23.1126 217.973 22.9277C218.065 22.8676 218.166 22.7751 218.271 22.6503C218.376 22.5255 218.505 22.4053 218.651 22.2898C218.798 22.1742 218.958 22.0725 219.142 21.9893C219.325 21.9061 219.545 21.8599 219.806 21.8599C220.049 21.8599 220.283 21.9107 220.507 22.0124C220.727 22.1141 220.924 22.2435 221.089 22.4053C221.259 22.5671 221.391 22.7474 221.492 22.9462C221.593 23.1449 221.643 23.3483 221.643 23.5471C221.657 23.903 221.57 24.2266 221.378 24.5271C221.185 24.8275 220.947 25.1002 220.658 25.3452C220.37 25.5902 220.058 25.8167 219.728 26.0155C219.398 26.2143 219.114 26.3945 218.867 26.5471C218.422 26.8106 217.982 27.0371 217.538 27.2266C217.094 27.4207 216.64 27.5779 216.177 27.7027C215.71 27.8275 215.21 27.9061 214.674 27.9431C214.138 27.9801 213.561 27.9801 212.933 27.9338C211.559 27.8414 210.294 27.5178 209.144 26.9631C207.989 26.4084 206.99 25.6781 206.143 24.7674C205.295 23.8568 204.631 22.8029 204.149 21.601C203.668 20.3992 203.421 19.1049 203.407 17.7181C203.375 16.2851 203.6 14.977 204.081 13.789C204.562 12.601 205.24 11.5378 206.111 10.5995C206.935 9.70733 207.875 8.95387 208.928 8.3437C209.982 7.73353 211.256 7.36835 212.754 7.24354L212.75 7.25741Z" fill="#004346"/>
<path d="M235.705 7.23421C236.53 7.17412 237.327 7.19723 238.102 7.30355C238.872 7.40987 239.6 7.59014 240.287 7.84438C240.975 8.09862 241.612 8.40832 242.203 8.76888C242.789 9.12943 243.311 9.52697 243.77 9.96148C244.182 10.3451 244.581 10.8074 244.97 11.3482C245.36 11.8891 245.703 12.4854 246.001 13.1418C246.299 13.7982 246.537 14.4962 246.725 15.245C246.908 15.9938 247 16.7658 247 17.5701C247 19.0955 246.725 20.4962 246.175 21.7766C245.625 23.057 244.879 24.1525 243.939 25.0678C243 25.9831 241.9 26.6995 240.64 27.2173C239.38 27.735 238.047 27.9892 236.645 27.9892C235.243 27.9892 233.836 27.7304 232.567 27.2173C231.298 26.6995 230.198 25.9831 229.259 25.0586C228.319 24.1341 227.582 23.0339 227.045 21.7535C226.509 20.473 226.244 19.0817 226.244 17.5701C226.244 16.0586 226.509 14.7365 227.032 13.5485C227.559 12.3606 228.228 11.3436 229.039 10.4977C229.818 9.66564 230.748 8.94453 231.834 8.33436C232.92 7.7242 234.207 7.35902 235.705 7.23421ZM229.84 18.0971C229.932 19.3914 230.312 20.5146 230.977 21.4715C231.641 22.4284 232.452 23.1587 233.414 23.6672C234.18 24.0693 234.968 24.3097 235.788 24.3929C236.603 24.4761 237.401 24.4253 238.18 24.2311C238.959 24.037 239.687 23.718 240.37 23.2696C241.048 22.8213 241.63 22.2666 242.111 21.6056C242.592 20.9445 242.945 20.1818 243.165 19.3174C243.385 18.453 243.435 17.5146 243.316 16.4977C243.211 15.6518 242.936 14.8521 242.5 14.1032C242.065 13.3544 241.511 12.7165 240.842 12.1849C240.168 11.6533 239.408 11.2558 238.551 10.9923C237.694 10.7288 236.801 10.6549 235.87 10.7612C235 10.8675 234.184 11.1217 233.419 11.51C232.654 11.8983 231.994 12.4207 231.44 13.0586C230.881 13.6965 230.459 14.4407 230.166 15.2912C229.877 16.1371 229.767 17.0709 229.845 18.0878L229.84 18.0971Z" fill="#004346"/>
<path d="M66.3331 32.043C67.1579 31.983 67.9551 32.0061 68.7295 32.1124C69.4992 32.2187 70.2278 32.399 70.9151 32.6532C71.6024 32.9075 72.2392 33.2172 72.8303 33.5777C73.4168 33.9383 73.9392 34.3358 74.3974 34.7703C74.8097 35.154 75.2084 35.6162 75.5978 36.1571C75.9873 36.6979 76.3309 37.2942 76.6288 37.9506C76.9266 38.607 77.1649 39.305 77.3527 40.0538C77.536 40.8027 77.6276 41.5746 77.6276 42.379C77.6276 43.9044 77.3527 45.305 76.8029 46.5854C76.253 47.8659 75.5062 48.9614 74.5669 49.8766C73.6276 50.7919 72.5279 51.5084 71.2679 52.0261C70.0078 52.5438 68.6745 52.7981 67.2724 52.7981C65.8703 52.7981 64.4637 52.5392 63.1944 52.0261C61.9252 51.5084 60.8256 50.7919 59.8863 49.8674C58.947 48.9429 58.2093 47.8427 57.6732 46.5623C57.1371 45.2819 56.8713 43.8905 56.8713 42.379C56.8713 40.8674 57.1371 39.5454 57.664 38.3574C58.1909 37.1694 58.8599 36.1524 59.6709 35.3065C60.4498 34.4745 61.38 33.7534 62.4659 33.1432C63.5518 32.533 64.8394 32.1679 66.3377 32.043H66.3331ZM60.4682 42.9059C60.5598 44.2002 60.9355 45.3235 61.6045 46.2803C62.2689 47.2372 63.0799 47.9675 64.0421 48.476C64.8073 48.8782 65.5954 49.1186 66.4156 49.2018C67.2312 49.285 68.0284 49.2341 68.8074 49.04C69.5863 48.8458 70.3148 48.5269 70.9975 48.0785C71.6757 47.6301 72.2576 47.0754 72.7387 46.4144C73.2198 45.7534 73.5726 44.9907 73.7925 44.1263C74.0125 43.2618 74.0629 42.3235 73.9437 41.3065C73.8384 40.4606 73.5634 39.6609 73.1327 38.9121C72.6974 38.1632 72.143 37.5253 71.4741 36.9937C70.8005 36.4622 70.0399 36.0646 69.1831 35.8011C68.3263 35.5377 67.4328 35.4637 66.5026 35.57C65.6321 35.6763 64.8165 35.9306 64.0513 36.3189C63.2861 36.7118 62.6263 37.2295 62.0719 37.8674C61.5129 38.5053 61.0913 39.2495 60.7981 40.1001C60.5094 40.946 60.3995 41.8797 60.4773 42.8967L60.4682 42.9059Z" fill="#004346"/>
<path d="M91.5798 32.0663C91.9784 32.02 92.4137 32.0062 92.8994 32.02C93.3805 32.0339 93.8708 32.0801 94.3656 32.1587C94.8605 32.2373 95.3599 32.3436 95.8547 32.4823C96.3496 32.6209 96.8215 32.8058 97.266 33.037C97.5547 33.1895 97.8891 33.3883 98.2603 33.6287C98.636 33.869 98.9842 34.1325 99.3141 34.4237C99.644 34.7149 99.919 35.0339 100.139 35.3713C100.359 35.7088 100.473 36.0508 100.473 36.3883C100.473 36.6055 100.423 36.8089 100.322 37.0031C100.221 37.1972 100.093 37.3683 99.9327 37.5208C99.7723 37.6733 99.589 37.7981 99.3829 37.8906C99.1767 37.983 98.9659 38.0385 98.7506 38.0524C98.5215 38.0662 98.3061 38.0385 98.1091 37.9599C97.912 37.8814 97.7288 37.7889 97.5684 37.6826C97.408 37.5763 97.2614 37.4653 97.1331 37.3498C97.0048 37.2342 96.8903 37.1464 96.7986 37.0817C96.5375 36.8829 96.2625 36.6749 95.9739 36.4576C95.6852 36.2404 95.3874 36.0647 95.0804 35.926C94.0861 35.5424 93.1239 35.3806 92.1938 35.4407C91.2636 35.5008 90.4022 35.7319 89.6187 36.134C88.8306 36.5362 88.1433 37.0724 87.5568 37.7519C86.9703 38.4314 86.5167 39.1849 86.2051 40.0169C85.8936 40.849 85.7424 41.7273 85.7561 42.6518C85.7698 43.5763 85.9944 44.4869 86.4205 45.379C86.7091 45.98 87.1215 46.5716 87.6576 47.1495C88.1937 47.7273 88.8306 48.2034 89.5729 48.5824C90.3152 48.9615 91.1399 49.1926 92.0471 49.2758C92.9544 49.359 93.9303 49.2018 94.9704 48.7997C95.3049 48.6749 95.6348 48.5131 95.9556 48.3143C96.2763 48.1156 96.5604 47.9214 96.8032 47.7365C96.8949 47.6764 96.9957 47.584 97.101 47.4592C97.2064 47.3344 97.3347 47.2142 97.4813 47.0986C97.628 46.983 97.7883 46.8813 97.9716 46.7981C98.1549 46.7149 98.3748 46.6687 98.636 46.6687C98.8788 46.6687 99.1125 46.7196 99.3325 46.8213C99.5524 46.923 99.7494 47.0524 99.9144 47.2142C100.084 47.376 100.217 47.5562 100.318 47.755C100.418 47.9538 100.469 48.1572 100.469 48.3559C100.483 48.7119 100.395 49.0354 100.203 49.3359C100.011 49.6364 99.7723 49.9091 99.4837 50.1541C99.195 50.3991 98.8834 50.6256 98.5535 50.8243C98.2236 51.0231 97.9395 51.2034 97.6921 51.3559C97.2477 51.6194 96.8078 51.8459 96.3633 52.0354C95.9189 52.2296 95.4653 52.3867 94.9979 52.5115C94.5306 52.6364 94.0311 52.7149 93.4996 52.7519C92.9635 52.7889 92.3862 52.7889 91.7585 52.7427C90.3839 52.6502 89.1193 52.3266 87.9692 51.7719C86.8145 51.2172 85.8157 50.4869 84.968 49.5763C84.1203 48.6656 83.456 47.6117 82.9748 46.4099C82.4937 45.208 82.2463 43.9137 82.2326 42.527C82.2005 41.094 82.4296 39.7858 82.9107 38.5978C83.3918 37.4099 84.0654 36.3467 84.9405 35.4083C85.7653 34.5162 86.7046 33.7627 87.7584 33.1525C88.8123 32.5424 90.0861 32.1772 91.5844 32.0524L91.5798 32.0663Z" fill="#004346"/>
<path d="M106.288 32.1124C106.851 31.9598 107.305 31.9691 107.64 32.1494C107.974 32.325 108.235 32.607 108.418 32.9953C108.602 33.379 108.716 33.8504 108.762 34.4051C108.808 34.9598 108.826 35.5284 108.817 36.1155C108.808 36.7025 108.785 37.2803 108.748 37.8582C108.712 38.436 108.693 38.9491 108.693 39.3974V42.6332C108.693 43.6825 108.78 44.6347 108.959 45.4853C109.133 46.3404 109.449 47.0754 109.898 47.6948C110.347 48.3096 111.035 48.7441 111.951 48.9891C112.684 49.1879 113.362 49.211 113.99 49.0585C114.618 48.9059 115.168 48.6239 115.64 48.2125C116.112 47.8058 116.501 47.3065 116.799 46.7195C117.097 46.1324 117.275 45.5038 117.335 44.8243C117.44 43.7472 117.468 42.6193 117.413 41.4498C117.358 40.2803 117.335 39.1709 117.335 38.1216C117.335 37.5346 117.321 36.929 117.289 36.3096C117.257 35.6856 117.257 35.0985 117.28 34.5392C117.303 33.9799 117.367 33.4991 117.472 33.0831C117.578 32.6671 117.77 32.3805 118.045 32.228C118.183 32.1494 118.352 32.0939 118.549 32.0523C118.746 32.0153 118.952 31.9968 119.168 31.9968C119.383 31.9968 119.58 32.0199 119.763 32.0662C119.947 32.1124 120.098 32.1679 120.222 32.228C120.437 32.3528 120.593 32.5469 120.694 32.8196C120.794 33.0877 120.863 33.3974 120.9 33.7441C120.936 34.0908 120.955 34.4514 120.946 34.8304C120.936 35.2095 120.936 35.5746 120.936 35.9306C120.936 36.5777 120.936 37.285 120.946 38.0569C120.955 38.8289 120.955 39.6193 120.955 40.4236C120.955 41.2279 120.946 42.0369 120.923 42.8412C120.9 43.6409 120.863 44.4036 120.808 45.1155C120.753 45.832 120.671 46.4791 120.556 47.0569C120.442 47.6347 120.3 48.1016 120.135 48.4529C119.846 49.0538 119.466 49.6178 118.998 50.1401C118.531 50.6625 117.999 51.1201 117.395 51.513C116.79 51.9059 116.121 52.2202 115.378 52.4514C114.636 52.6825 113.848 52.7981 113.005 52.7981C112.24 52.7981 111.53 52.7056 110.865 52.5207C110.201 52.3358 109.591 52.0816 109.032 51.758C108.473 51.4344 107.974 51.0508 107.534 50.6162C107.09 50.1771 106.709 49.6964 106.389 49.174C105.976 48.5269 105.678 47.7041 105.495 46.7102C105.312 45.7164 105.193 44.6301 105.142 43.4514C105.087 42.2726 105.074 41.043 105.097 39.7626C105.119 38.4822 105.133 37.2434 105.133 36.0415C105.133 35.6116 105.124 35.1771 105.11 34.7472C105.097 34.3173 105.119 33.9244 105.179 33.5685C105.239 33.2125 105.353 32.9075 105.509 32.6532C105.669 32.399 105.935 32.2187 106.302 32.1124H106.288Z" fill="#004346"/>
<path d="M126.792 32.1356C127.402 31.9646 127.874 31.9738 128.199 32.1587C128.529 32.3436 128.767 32.6349 128.923 33.0278C129.074 33.4207 129.161 33.8876 129.184 34.4284C129.207 34.9692 129.221 35.5147 129.221 36.0694V44.4592C129.221 44.9076 129.211 45.3467 129.184 45.7905C129.161 46.2296 129.161 46.6364 129.184 47.0154C129.207 47.3945 129.266 47.7365 129.367 48.0463C129.468 48.356 129.628 48.5917 129.858 48.7627C130.1 48.9476 130.407 49.0724 130.774 49.1325C131.14 49.1926 131.544 49.225 131.988 49.225C132.433 49.225 132.9 49.2065 133.399 49.1695C133.894 49.1325 134.403 49.114 134.925 49.114C135.232 49.114 135.622 49.114 136.094 49.1002C136.566 49.0909 137.037 49.1002 137.505 49.1372C137.972 49.1695 138.389 49.2342 138.765 49.3313C139.141 49.433 139.397 49.5994 139.53 49.8305C139.59 49.9369 139.64 50.0755 139.681 50.2466C139.718 50.4176 139.741 50.6025 139.75 50.8013C139.759 51 139.75 51.2034 139.713 51.4022C139.681 51.601 139.622 51.7812 139.53 51.9338C139.347 52.2573 138.999 52.4792 138.485 52.5948C137.972 52.7104 137.39 52.7704 136.73 52.7797C136.075 52.7889 135.397 52.7704 134.705 52.7335C134.009 52.6965 133.386 52.678 132.836 52.678C132.437 52.678 131.91 52.7011 131.255 52.7473C130.6 52.7936 129.926 52.8167 129.239 52.8167C128.552 52.8167 127.91 52.7704 127.315 52.678C126.719 52.5855 126.297 52.4006 126.054 52.1233C125.917 51.9708 125.816 51.7119 125.757 51.3513C125.697 50.9908 125.651 50.584 125.628 50.1402C125.605 49.6919 125.596 49.2296 125.605 48.7535C125.615 48.2774 125.615 47.8521 125.615 47.4823V37.4515C125.615 36.943 125.601 36.3976 125.569 35.8198C125.537 35.2419 125.546 34.7011 125.592 34.1926C125.638 33.6842 125.743 33.245 125.912 32.8752C126.082 32.5054 126.371 32.2651 126.783 32.1587L126.792 32.1356Z" fill="#004346"/>
<path d="M140.309 32.1355C141.088 32.0107 142.018 31.9691 143.104 32.0107C144.19 32.0523 145.404 32.0662 146.747 32.0662C147.205 32.0662 147.727 32.0523 148.314 32.0292C148.9 32.0061 149.468 32.0107 150.009 32.0385C150.55 32.0708 151.031 32.1401 151.452 32.2465C151.874 32.3528 152.158 32.5331 152.314 32.7781C152.392 32.9167 152.442 33.0878 152.474 33.2865C152.506 33.4853 152.52 33.6933 152.52 33.9106C152.52 34.1278 152.502 34.3312 152.465 34.5207C152.428 34.7149 152.378 34.872 152.314 34.9969C152.13 35.3204 151.837 35.5146 151.434 35.5885C151.031 35.6579 150.595 35.6995 150.137 35.7133C149.679 35.7272 149.239 35.7688 148.818 35.8289C148.396 35.889 148.075 36.0693 147.846 36.3605C147.723 36.5315 147.636 36.7719 147.581 37.0908C147.526 37.4052 147.498 37.7519 147.489 38.1309C147.48 38.5099 147.48 38.8982 147.489 39.2958C147.498 39.6979 147.503 40.0677 147.503 40.4052V50.1355C147.503 50.5053 147.484 50.852 147.448 51.1756C147.411 51.4992 147.338 51.7904 147.228 52.0446C147.118 52.2989 146.962 52.4884 146.747 52.6086C146.609 52.6871 146.435 52.738 146.22 52.7611C146.004 52.7842 145.794 52.7935 145.578 52.7842C145.363 52.775 145.166 52.7565 144.983 52.7287C144.799 52.6964 144.671 52.6594 144.593 52.6132C144.272 52.4283 144.057 52.0123 143.942 51.3651C143.828 50.718 143.768 49.9922 143.759 49.1925C143.75 48.3928 143.768 47.5839 143.805 46.775C143.842 45.966 143.86 45.3096 143.86 44.8012V40.5022C143.86 40.0724 143.869 39.624 143.883 39.1617C143.897 38.6995 143.892 38.2603 143.86 37.8443C143.828 37.4283 143.759 37.0585 143.654 36.7349C143.548 36.4113 143.37 36.171 143.127 36.0184C142.792 35.8012 142.417 35.681 142.004 35.6579C141.592 35.6348 141.189 35.6209 140.79 35.6209C140.391 35.6209 140.029 35.5932 139.7 35.5423C139.37 35.4868 139.118 35.3066 138.934 35.0015C138.719 34.6317 138.618 34.285 138.627 33.9614C138.637 33.6378 138.71 33.3466 138.857 33.0924C139.003 32.8381 139.205 32.6255 139.466 32.4545C139.727 32.2834 140.007 32.1771 140.314 32.1309L140.309 32.1355Z" fill="#004346"/>
<path d="M164.296 32.043C165.12 31.983 165.918 32.0061 166.687 32.1124C167.457 32.2187 168.19 32.399 168.878 32.6532C169.565 32.9075 170.202 33.2172 170.788 33.5777C171.375 33.9383 171.897 34.3358 172.355 34.7703C172.768 35.154 173.171 35.6162 173.556 36.1571C173.945 36.6979 174.289 37.2942 174.587 37.9506C174.884 38.607 175.123 39.305 175.311 40.0538C175.494 40.8027 175.586 41.5746 175.586 42.379C175.586 43.9044 175.311 45.305 174.761 46.5854C174.211 47.8659 173.464 48.9614 172.525 49.8766C171.585 50.7919 170.486 51.5084 169.226 52.0261C167.966 52.5438 166.632 52.7981 165.23 52.7981C163.828 52.7981 162.422 52.5392 161.152 52.0261C159.883 51.5084 158.783 50.7919 157.844 49.8674C156.905 48.9429 156.167 47.8427 155.631 46.5623C155.095 45.2819 154.829 43.8905 154.829 42.379C154.829 40.8674 155.095 39.5454 155.622 38.3574C156.149 37.1694 156.818 36.1524 157.629 35.3065C158.408 34.4745 159.338 33.7534 160.424 33.1432C161.51 32.533 162.797 32.1679 164.296 32.043ZM158.431 42.9059C158.522 44.2002 158.898 45.3235 159.562 46.2803C160.227 47.2372 161.038 47.9675 162.005 48.476C162.77 48.8782 163.558 49.1186 164.373 49.2018C165.189 49.285 165.991 49.2341 166.765 49.04C167.544 48.8458 168.273 48.5269 168.955 48.0785C169.634 47.6301 170.215 47.0754 170.697 46.4144C171.178 45.7534 171.53 44.9907 171.75 44.1263C171.97 43.2618 172.021 42.3235 171.902 41.3065C171.796 40.4606 171.521 39.6609 171.091 38.9121C170.655 38.1632 170.101 37.5253 169.432 36.9937C168.758 36.4622 167.998 36.0646 167.141 35.8011C166.284 35.5377 165.391 35.4637 164.461 35.57C163.59 35.6763 162.774 35.9306 162.009 36.3189C161.244 36.7118 160.584 37.2295 160.025 37.8674C159.466 38.5053 159.045 39.2495 158.751 40.1001C158.463 40.946 158.353 41.8797 158.431 42.8967V42.9059Z" fill="#004346"/>
<path d="M67.1991 47.4453C65.5083 47.4453 64.3766 45.453 64.3766 42.4946C64.3766 39.5362 65.5129 37.5439 67.1991 37.5439C68.8852 37.5439 70.0262 39.5362 70.0262 42.4946C70.0262 45.453 68.8898 47.4453 67.1991 47.4453ZM67.1991 41.4546C67.1533 41.7504 67.1258 42.0971 67.1258 42.49C67.1258 42.8829 67.1533 43.2296 67.1991 43.5255C67.2449 43.2296 67.277 42.8829 67.277 42.49C67.277 42.0971 67.2495 41.7504 67.1991 41.4546Z" fill="#004346"/>
<path d="M47.3684 4.54393C47.6891 4.44223 47.9228 4.17413 47.9228 3.84131V2.1541C47.9228 1.82128 47.6983 1.54855 47.3913 1.42837C47.0201 1.28045 46.6948 0.947628 46.5344 0.536226C46.4153 0.226518 46.145 0.00463867 45.8151 0.00463867H44.0602C43.7211 0.00463867 43.4416 0.235764 43.3271 0.554716C42.8872 1.79354 40.9719 1.80279 40.5367 0.554716C40.4221 0.231141 40.1426 0.00463867 39.8035 0.00463867H38.067C37.7279 0.00463867 37.4484 0.235764 37.3339 0.554716C36.8986 1.79817 34.9787 1.79817 34.5434 0.554716C34.4289 0.231141 34.1494 0.00463867 33.8103 0.00463867H32.0783C31.7393 0.00463867 31.4598 0.235764 31.3452 0.554716C30.9054 1.79817 28.9901 1.80279 28.5548 0.554716C28.4403 0.231141 28.1608 0.00463867 27.8217 0.00463867H26.0851C25.7461 0.00463867 25.4666 0.235764 25.352 0.554716C24.9167 1.79817 22.9969 1.79817 22.5616 0.554716C22.4471 0.231141 22.1676 0.00463867 21.8285 0.00463867H20.0965C19.7574 0.00463867 19.4779 0.235764 19.3634 0.554716C18.9235 1.79817 17.0083 1.80279 16.573 0.554716C16.4584 0.231141 16.1789 0.00463867 15.8399 0.00463867H14.1033C13.7642 0.00463867 13.4847 0.235764 13.3702 0.554716C12.9349 1.79817 11.0151 1.79817 10.5798 0.554716C10.4652 0.231141 10.1857 0.00463867 9.84665 0.00463867H8.11467C7.7756 0.00463867 7.4961 0.235764 7.38155 0.554716C6.94169 1.79817 5.02642 1.80279 4.59114 0.554716C4.47659 0.231141 4.19709 0.00463867 3.85802 0.00463867H2.10313C1.77323 0.00463867 1.49373 0.221896 1.37918 0.531603C1.22798 0.93376 0.916402 1.26196 0.504025 1.40988C0.197033 1.52082 -0.00915527 1.80741 -0.00915527 2.13561V3.8598C-0.00915527 4.20187 0.219943 4.48384 0.536099 4.5994C1.76865 5.03854 1.76865 6.97536 0.536099 7.4145C0.215361 7.53006 -0.00915527 7.81203 -0.00915527 8.1541V9.86442C-0.00915527 10.2065 0.219943 10.4885 0.536099 10.604C1.76865 11.0432 1.76865 12.98 0.536099 13.4191C0.215361 13.5347 -0.00915527 13.8167 -0.00915527 14.1587V15.869C-0.00915527 16.2111 0.219943 16.4931 0.536099 16.6086C1.77323 17.0478 1.76865 18.9846 0.536099 19.4237C0.219943 19.5393 -0.00915527 19.8213 -0.00915527 20.1633V21.869C-0.00915527 22.2111 0.219943 22.4931 0.536099 22.6086C1.76865 23.0524 1.77323 24.9846 0.536099 25.4237C0.215361 25.5393 -0.00915527 25.8213 -0.00915527 26.1633V27.8737C-0.00915527 28.2157 0.219943 28.4977 0.536099 28.6133C1.76865 29.0524 1.76865 30.9892 0.536099 31.4284C0.215361 31.5439 -0.00915527 31.8259 -0.00915527 32.168V33.8783C-0.00915527 34.2204 0.219943 34.5023 0.536099 34.6179C1.77323 35.057 1.76865 36.9939 0.536099 37.433C0.219943 37.5486 -0.00915527 37.8305 -0.00915527 38.1726V39.8783C-0.00915527 40.2204 0.219943 40.5023 0.536099 40.6179C1.76865 41.0616 1.77323 42.9939 0.536099 43.433C0.215361 43.5485 -0.00915527 43.8305 -0.00915527 44.1726V45.8829C-0.00915527 46.225 0.219943 46.5069 0.536099 46.6225C1.76865 47.0616 1.76865 48.9985 0.536099 49.4376C0.215361 49.5532 -0.00915527 49.8351 -0.00915527 50.1772V51.8875C-0.00915527 52.2296 0.219943 52.5116 0.536099 52.6271C1.76865 53.0663 1.76865 55.0031 0.536099 55.4422C0.215361 55.5578 -0.00915527 55.8398 -0.00915527 56.1818V57.906C-0.00915527 58.2342 0.201615 58.5208 0.508607 58.6318C0.916402 58.7797 1.23256 59.1079 1.38376 59.51C1.49831 59.8197 1.77781 60.037 2.10771 60.037H3.86261C4.20167 60.037 4.48117 59.8059 4.59572 59.4869C5.03101 58.2435 6.95085 58.2435 7.38614 59.4869C7.50069 59.8105 7.78018 60.037 8.11925 60.037H9.85123C10.1903 60.037 10.4698 59.8059 10.5843 59.4869C11.0196 58.2435 12.9395 58.2435 13.3748 59.4869C13.4893 59.8105 13.7688 60.037 14.1079 60.037H15.8444C16.1835 60.037 16.463 59.8059 16.5776 59.4869C17.0128 58.2342 18.9327 58.2435 19.368 59.4869C19.4825 59.8105 19.762 60.037 20.1011 60.037H21.8331C22.1721 60.037 22.4516 59.8059 22.5662 59.4869C23.0015 58.2435 24.9213 58.2435 25.3566 59.4869C25.4712 59.8105 25.7507 60.037 26.0897 60.037H27.8263C28.1653 60.037 28.4448 59.8059 28.5594 59.4869C28.9947 58.2435 30.9145 58.2435 31.3498 59.4869C31.4644 59.8105 31.7439 60.037 32.0829 60.037H33.8149C34.154 60.037 34.4335 59.8059 34.548 59.4869C34.9833 58.2435 36.9032 58.2435 37.3384 59.4869C37.453 59.8105 37.7325 60.037 38.0716 60.037H39.8081C40.1472 60.037 40.4267 59.8059 40.5412 59.4869C40.9765 58.2435 42.8964 58.2435 43.3316 59.4869C43.4462 59.8105 43.7257 60.037 44.0648 60.037H45.8105C46.1404 60.037 46.4199 59.8197 46.5344 59.5054C46.6811 59.1125 46.9881 58.7889 47.405 58.6456C47.712 58.5393 47.9228 58.2481 47.9228 57.9199V56.2003C47.9228 55.8629 47.6845 55.5948 47.3638 55.4931C46.1633 55.1187 46.1679 52.96 47.3638 52.5855C47.6845 52.4838 47.9228 52.2157 47.9228 51.8783V50.1865C47.9228 49.849 47.6983 49.5578 47.3821 49.4515C46.0717 49.0077 46.232 46.9322 47.4004 46.5809C47.7258 46.4838 47.9274 46.1556 47.9274 45.8136V44.2003C47.9274 43.8629 47.6891 43.5902 47.3684 43.4931C46.1633 43.1187 46.177 40.96 47.3729 40.5855C47.6937 40.4838 47.9274 40.2204 47.9274 39.8829V38.2743C47.9274 37.9322 47.7258 37.5994 47.3959 37.5023C46.2183 37.151 46.0717 35.0755 47.3821 34.6318C47.7028 34.5254 47.9228 34.2342 47.9228 33.8968V32.2049C47.9228 31.8675 47.6845 31.5994 47.3638 31.4977C46.1633 31.1233 46.1633 28.9646 47.3638 28.5902C47.6845 28.4885 47.9228 28.2204 47.9228 27.8829V26.1911C47.9228 25.8536 47.6983 25.5624 47.3821 25.4561C46.0717 25.0123 46.232 22.9415 47.4004 22.5855C47.7258 22.4885 47.9228 22.1603 47.9228 21.8182V20.265C47.9228 19.923 47.7212 19.5948 47.3959 19.4977C46.2229 19.1464 46.0625 17.0709 47.3775 16.6271C47.6983 16.5208 47.9228 16.2296 47.9228 15.8922V14.2049C47.9228 13.8675 47.6845 13.5994 47.3638 13.4977C46.1633 13.1233 46.1679 10.9646 47.3638 10.5902C47.6845 10.4885 47.9182 10.2204 47.9182 9.88291V8.20032C47.9182 7.86288 47.6799 7.59478 47.3592 7.49308C46.1587 7.11866 46.1633 4.95995 47.3592 4.58553L47.3684 4.54393ZM4.94853 4.76119H42.9743C43.1026 4.76119 43.2034 4.86288 43.2034 4.99231V40.3174C31.2032 40.507 26.2363 46.1418 24.2065 50.2789C22.1492 46.0863 17.077 40.3498 4.71485 40.3128V4.99231C4.71485 4.86288 4.81565 4.76119 4.94395 4.76119H4.94853ZM4.94853 55.2388C4.82024 55.2388 4.71943 55.1371 4.71943 55.0077V43.0909C21.5123 43.1464 22.7953 54.3698 22.8411 54.8598C22.8411 54.8644 22.8411 54.869 22.8411 54.8783C22.8411 54.9199 22.8549 54.9615 22.864 54.9985C22.8732 55.0447 22.8823 55.0955 22.8961 55.1418C22.9053 55.1741 22.9236 55.2065 22.9327 55.2388H4.94853ZM42.9788 55.2388H25.4849C25.4986 55.2065 25.5124 55.1741 25.5261 55.1371C25.5399 55.0909 25.5445 55.0447 25.5536 55.0031C25.5628 54.9615 25.572 54.9199 25.5765 54.8737C25.5765 54.869 25.5765 54.8598 25.5765 54.8552C25.5765 54.8274 25.8469 51.9846 28.1516 49.0863C31.1803 45.2774 36.3808 43.2204 43.1988 43.1002V55.0123C43.1988 55.1418 43.098 55.2435 42.9697 55.2435L42.9788 55.2388Z" fill="#004346"/>
<path d="M11.5741 37.8767C13.5031 37.8767 14.6027 37.0077 15.1892 36.2773C16.4218 34.7334 16.4859 32.4314 16.1377 30.7904C15.9773 30.0416 15.2488 29.5655 14.5019 29.7272C13.7597 29.889 13.2877 30.6286 13.4481 31.3775C13.6634 32.3898 13.6314 33.8089 13.0495 34.5393C12.8524 34.7843 12.4905 35.1078 11.5741 35.1078C10.6577 35.1078 10.0208 34.8074 9.48927 34.188C8.76073 33.3374 8.48123 32.057 8.5912 31.2804C8.5912 31.2527 8.60037 31.2249 8.60037 31.1972C8.68284 30.1664 9.92914 27.7211 11.5741 27.7211C11.9406 27.7211 12.298 27.5685 12.5546 27.3097C12.8723 26.9861 13.0159 25.2665 12.9853 22.151C12.9761 21.2912 12.967 20.3251 12.9578 19.2896C12.9578 18.8644 13.1182 18.4668 13.4114 18.1664C13.7093 17.8613 14.1079 17.6949 14.534 17.6949H15.8307C16.6142 17.6949 17.2878 18.2819 17.4023 19.0631L18.1309 23.9907C18.447 26.1171 20.289 27.7211 22.4242 27.7211H25.9889C28.1195 27.7211 29.9661 26.1171 30.2822 23.9907L31.0108 19.0631C31.1253 18.2819 31.8034 17.6949 32.5824 17.6949H33.8791C34.3052 17.6949 34.7038 17.8613 35.0016 18.1664C35.2995 18.4668 35.4598 18.8644 35.4553 19.2896C35.4461 20.3297 35.4369 21.3004 35.4278 22.1648C35.3972 25.2712 35.5408 26.9861 35.8585 27.3097C36.1151 27.5732 36.4725 27.7211 36.839 27.7211C38.4839 27.7211 39.7302 30.1664 39.8127 31.1972C39.8127 31.2249 39.8173 31.2527 39.8219 31.2804C39.9318 32.0524 39.6569 33.3374 38.9238 34.188C38.3923 34.8074 37.7096 35.1078 36.839 35.1078C35.9684 35.1078 35.5606 34.7843 35.3636 34.5393C34.7817 33.8089 34.7496 32.3898 34.965 31.3775C35.1254 30.6286 34.6534 29.889 33.9111 29.7272C33.1689 29.5655 32.4357 30.0416 32.2754 30.7904C31.9226 32.4314 31.9867 34.738 33.2238 36.2773C33.8058 37.0077 34.91 37.8767 36.839 37.8767C38.5114 37.8767 39.9502 37.2296 41.004 36C42.3374 34.4514 42.7406 32.3436 42.5481 30.9245C42.374 29.0477 40.8116 25.9414 38.1586 25.1371C38.1586 24.3929 38.1678 23.3066 38.1769 22.188C38.1861 21.3189 38.1953 20.3482 38.2044 19.3035C38.2136 18.134 37.7692 17.0339 36.9536 16.2064C36.1334 15.3744 35.0429 14.9168 33.8791 14.9168H33.7508C34.209 14.1124 34.4747 13.1833 34.4747 12.1895C34.4747 9.15713 32.028 6.68872 29.0222 6.68872C26.9374 6.68872 25.1183 7.88132 24.2065 9.62401C23.2901 7.88132 21.4757 6.68872 19.3909 6.68872C16.3851 6.68872 13.9384 9.15713 13.9384 12.1895C13.9384 13.1833 14.2041 14.1124 14.6623 14.9168H14.534C13.3702 14.9168 12.2797 15.3744 11.4595 16.2064C10.6439 17.0339 10.1995 18.134 10.2041 19.3035C10.2132 20.3436 10.2224 21.3097 10.2315 22.1741C10.2407 23.302 10.2545 24.3883 10.2545 25.1371C7.59691 25.9414 6.03447 29.0477 5.86493 30.9245C5.67707 32.3436 6.08028 34.4514 7.40905 36C8.46291 37.2249 9.90164 37.8767 11.5741 37.8767ZM29.0268 9.46684C30.5159 9.46684 31.7301 10.6918 31.7301 12.1941C31.7301 13.6964 30.5159 14.9214 29.0268 14.9214C27.5376 14.9214 26.3234 13.701 26.3234 12.1941C26.3234 10.6872 27.5376 9.46684 29.0268 9.46684ZM24.2111 14.755C25.0588 16.3682 26.6762 17.5007 28.564 17.6625C28.4403 17.9722 28.3441 18.3004 28.2936 18.6425L27.5651 23.5701C27.4506 24.3513 26.7724 24.9383 25.9935 24.9383H22.4287C21.6452 24.9383 20.9717 24.3513 20.8571 23.5701L20.1286 18.6425C20.0782 18.3004 19.982 17.9722 19.8583 17.6625C21.746 17.5007 23.3635 16.3636 24.2111 14.755ZM19.3955 9.46684C20.8846 9.46684 22.0988 10.6918 22.0988 12.1941C22.0988 13.6964 20.8846 14.9214 19.3955 14.9214C17.9063 14.9214 16.6921 13.701 16.6921 12.1941C16.6921 10.6872 17.9063 9.46684 19.3955 9.46684Z" fill="#004346"/>
<path d="M24.2112 33.1387C21.6636 33.1387 19.5925 35.228 19.5925 37.7981C19.5925 40.3683 21.6636 42.4576 24.2112 42.4576C26.7587 42.4576 28.8298 40.3683 28.8298 37.7981C28.8298 35.228 26.7587 33.1387 24.2112 33.1387ZM24.2112 39.6841C23.1802 39.6841 22.3417 38.8382 22.3417 37.7981C22.3417 36.7581 23.1802 35.9122 24.2112 35.9122C25.2421 35.9122 26.0806 36.7581 26.0806 37.7981C26.0806 38.8382 25.2421 39.6841 24.2112 39.6841Z" fill="#004346"/>
</g>
<defs>
<clipPath id="clip0_2001_464">
<rect width="247" height="60" fill="white"/>
</clipPath>
</defs>
</svg>
