<svg width="52" height="64" viewBox="0 0 52 64" fill="none" xmlns="http://www.w3.org/2000/svg">
<g clip-path="url(#clip0_2001_313)">
<path d="M51.2388 4.82944C51.5841 4.72135 51.8358 4.4364 51.8358 4.08266V2.28942C51.8358 1.93569 51.594 1.64582 51.2634 1.51808C50.8638 1.36087 50.5135 1.00713 50.3408 0.569877C50.2125 0.240706 49.9214 0.00488281 49.5661 0.00488281H47.6763C47.3112 0.00488281 47.0102 0.250532 46.8869 0.589529C46.4132 1.90621 44.3508 1.91604 43.882 0.589529C43.7587 0.245619 43.4577 0.00488281 43.0926 0.00488281H41.2225C40.8574 0.00488281 40.5564 0.250532 40.4331 0.589529C39.9644 1.91112 37.897 1.91112 37.4282 0.589529C37.3049 0.245619 37.0039 0.00488281 36.6388 0.00488281H34.7737C34.4086 0.00488281 34.1076 0.250532 33.9842 0.589529C33.5106 1.91112 31.4481 1.91604 30.9794 0.589529C30.856 0.245619 30.555 0.00488281 30.1899 0.00488281H28.3199C27.9548 0.00488281 27.6538 0.250532 27.5304 0.589529C27.0617 1.91112 24.9943 1.91112 24.5256 0.589529C24.4022 0.245619 24.1012 0.00488281 23.7361 0.00488281H21.871C21.5059 0.00488281 21.2049 0.250532 21.0816 0.589529C20.6079 1.91112 18.5454 1.91604 18.0767 0.589529C17.9534 0.245619 17.6524 0.00488281 17.2873 0.00488281H15.4172C15.0521 0.00488281 14.7511 0.250532 14.6278 0.589529C14.159 1.91112 12.0916 1.91112 11.6229 0.589529C11.4996 0.245619 11.1986 0.00488281 10.8335 0.00488281H8.96837C8.60324 0.00488281 8.30226 0.250532 8.17891 0.589529C7.70524 1.91112 5.64279 1.91604 5.17405 0.589529C5.05069 0.245619 4.74971 0.00488281 4.38459 0.00488281H2.49483C2.13958 0.00488281 1.8386 0.235793 1.71525 0.564964C1.55242 0.992394 1.2169 1.34122 0.772834 1.49843C0.442249 1.61634 0.220215 1.92095 0.220215 2.26977V4.10232C0.220215 4.46588 0.46692 4.76557 0.807372 4.88839C2.13464 5.35513 2.13464 7.41367 0.807372 7.88041C0.461986 8.00323 0.220215 8.30292 0.220215 8.66648V10.4843C0.220215 10.8479 0.46692 11.1475 0.807372 11.2704C2.13464 11.7371 2.13464 13.7956 0.807372 14.2624C0.461986 14.3852 0.220215 14.6849 0.220215 15.0485V16.8663C0.220215 17.2298 0.46692 17.5295 0.807372 17.6523C2.13958 18.1191 2.13464 20.1776 0.807372 20.6444C0.46692 20.7672 0.220215 21.0669 0.220215 21.4304V23.2433C0.220215 23.6069 0.46692 23.9066 0.807372 24.0294C2.13464 24.501 2.13958 26.5547 0.807372 27.0214C0.461986 27.1442 0.220215 27.4439 0.220215 27.8075V29.6253C0.220215 29.9889 0.46692 30.2886 0.807372 30.4114C2.13464 30.8781 2.13464 32.9366 0.807372 33.4034C0.461986 33.5262 0.220215 33.8259 0.220215 34.1895V36.0073C0.220215 36.3708 0.46692 36.6705 0.807372 36.7933C2.13958 37.2601 2.13464 39.3186 0.807372 39.7854C0.46692 39.9082 0.220215 40.2079 0.220215 40.5714V42.3843C0.220215 42.7479 0.46692 43.0476 0.807372 43.1704C2.13464 43.6421 2.13958 45.6957 0.807372 46.1624C0.461986 46.2852 0.220215 46.5849 0.220215 46.9485V48.7663C0.220215 49.1299 0.46692 49.4296 0.807372 49.5524C2.13464 50.0191 2.13464 52.0777 0.807372 52.5444C0.461986 52.6672 0.220215 52.9669 0.220215 53.3305V55.1483C0.220215 55.5118 0.46692 55.8115 0.807372 55.9344C2.13464 56.4011 2.13464 58.4596 0.807372 58.9264C0.461986 59.0492 0.220215 59.3489 0.220215 59.7124V61.545C0.220215 61.8938 0.447183 62.1984 0.777768 62.3163C1.2169 62.4735 1.55735 62.8224 1.72018 63.2498C1.84353 63.579 2.14451 63.8099 2.49977 63.8099H4.38953C4.75465 63.8099 5.05563 63.5642 5.17898 63.2252C5.64772 61.9036 7.71511 61.9036 8.18385 63.2252C8.3072 63.5691 8.60818 63.8099 8.9733 63.8099H10.8384C11.2035 63.8099 11.5045 63.5642 11.6278 63.2252C12.0966 61.9036 14.164 61.9036 14.6327 63.2252C14.7561 63.5691 15.057 63.8099 15.4222 63.8099H17.2922C17.6573 63.8099 17.9583 63.5642 18.0816 63.2252C18.5504 61.8938 20.6178 61.9036 21.0865 63.2252C21.2099 63.5691 21.5108 63.8099 21.876 63.8099H23.7411C24.1062 63.8099 24.4072 63.5642 24.5305 63.2252C24.9992 61.9036 27.0666 61.9036 27.5354 63.2252C27.6587 63.5691 27.9597 63.8099 28.3248 63.8099H30.1948C30.56 63.8099 30.861 63.5642 30.9843 63.2252C31.453 61.9036 33.5204 61.9036 33.9892 63.2252C34.1125 63.5691 34.4135 63.8099 34.7786 63.8099H36.6437C37.0088 63.8099 37.3098 63.5642 37.4332 63.2252C37.9019 61.9036 39.9693 61.9036 40.438 63.2252C40.5614 63.5691 40.8624 63.8099 41.2275 63.8099H43.0975C43.4626 63.8099 43.7636 63.5642 43.887 63.2252C44.3557 61.9036 46.4231 61.9036 46.8918 63.2252C47.0152 63.5691 47.3162 63.8099 47.6813 63.8099H49.5612C49.9164 63.8099 50.2174 63.579 50.3408 63.2449C50.4986 62.8273 50.8292 62.4834 51.2782 62.3311C51.6088 62.2181 51.8358 61.9086 51.8358 61.5597V59.7321C51.8358 59.3734 51.5792 59.0885 51.2338 58.9804C49.9411 58.5825 49.946 56.2881 51.2338 55.8901C51.5792 55.7821 51.8358 55.4971 51.8358 55.1385V53.3403C51.8358 52.9816 51.594 52.6721 51.2536 52.5591C49.8424 52.0875 50.0151 49.8815 51.2733 49.5082C51.6236 49.405 51.8407 49.0562 51.8407 48.6926V46.978C51.8407 46.6193 51.5841 46.3295 51.2388 46.2263C49.9411 45.8283 49.9559 43.534 51.2437 43.136C51.5891 43.0279 51.8407 42.7479 51.8407 42.3892V40.6795C51.8407 40.316 51.6236 39.9622 51.2684 39.8591C50.0003 39.4857 49.8424 37.2797 51.2536 36.8081C51.599 36.6951 51.8358 36.3856 51.8358 36.0269V34.2288C51.8358 33.8701 51.5792 33.5852 51.2338 33.4771C49.9411 33.0791 49.9411 30.7848 51.2338 30.3868C51.5792 30.2787 51.8358 29.9938 51.8358 29.6351V27.837C51.8358 27.4783 51.594 27.1688 51.2536 27.0558C49.8424 26.5842 50.0151 24.3831 51.2733 24.0048C51.6236 23.9017 51.8358 23.5528 51.8358 23.1893V21.5385C51.8358 21.175 51.6187 20.8261 51.2684 20.723C50.0052 20.3496 49.8325 18.1436 51.2486 17.672C51.594 17.559 51.8358 17.2495 51.8358 16.8908V15.0976C51.8358 14.7389 51.5792 14.454 51.2338 14.3459C49.9411 13.9479 49.946 11.6536 51.2338 11.2556C51.5792 11.1475 51.8309 10.8626 51.8309 10.5039V8.71561C51.8309 8.35697 51.5743 8.07201 51.2289 7.96393C49.9362 7.56597 49.9411 5.27161 51.2289 4.87366L51.2388 4.82944ZM5.55891 5.06035H46.507C46.6451 5.06035 46.7537 5.16843 46.7537 5.306V42.8511C33.8313 43.0525 28.4827 49.0414 26.2969 53.4386C24.0815 48.9825 18.6195 42.8855 5.30727 42.8461V5.306C5.30727 5.16843 5.41582 5.06035 5.55397 5.06035H5.55891ZM5.55891 58.7102C5.42075 58.7102 5.3122 58.6021 5.3122 58.4645V45.7989C23.3957 45.8578 24.7772 57.7866 24.8265 58.3073C24.8265 58.3122 24.8265 58.3172 24.8265 58.327C24.8265 58.3712 24.8414 58.4154 24.8512 58.4547C24.8611 58.5038 24.871 58.5579 24.8858 58.607C24.8956 58.6414 24.9154 58.6758 24.9252 58.7102H5.55891ZM46.5119 58.7102H27.6735C27.6883 58.6758 27.7031 58.6414 27.7179 58.6021C27.7327 58.553 27.7377 58.5038 27.7475 58.4596C27.7574 58.4154 27.7673 58.3712 27.7722 58.3221C27.7722 58.3172 27.7722 58.3073 27.7722 58.3024C27.7722 58.2729 28.0633 55.2514 30.5452 52.171C33.8066 48.1227 39.4068 45.9364 46.7487 45.8087V58.4695C46.7487 58.607 46.6402 58.7151 46.502 58.7151L46.5119 58.7102Z" fill="#EB6540" fill-opacity="0.2"/>
<path d="M12.6937 40.2571C14.7709 40.2571 15.9551 39.3334 16.5867 38.5572C17.9139 36.9162 17.983 34.4696 17.608 32.7255C17.4353 31.9296 16.6508 31.4235 15.8465 31.5955C15.0472 31.7674 14.539 32.5535 14.7117 33.3494C14.9436 34.4254 14.9091 35.9336 14.2824 36.7099C14.0703 36.9703 13.6805 37.3142 12.6937 37.3142C11.7068 37.3142 11.021 36.9949 10.4486 36.3365C9.66412 35.4325 9.36314 34.0716 9.48155 33.2462C9.48155 33.2168 9.49142 33.1873 9.49142 33.1578C9.58024 32.0622 10.9223 29.4632 12.6937 29.4632C13.0884 29.4632 13.4732 29.3011 13.7495 29.026C14.0916 28.6821 14.2462 26.8544 14.2134 23.5431C14.2035 22.6293 14.1936 21.6025 14.1837 20.5019C14.1837 20.0499 14.3564 19.6274 14.6722 19.3081C14.9929 18.9838 15.4222 18.807 15.8811 18.807H17.2774C18.1212 18.807 18.8465 19.4309 18.9698 20.2612L19.7543 25.4985C20.0948 27.7584 22.0783 29.4632 24.3776 29.4632H28.2163C30.5107 29.4632 32.4991 27.7584 32.8396 25.4985L33.6241 20.2612C33.7474 19.4309 34.4777 18.807 35.3165 18.807H36.7128C37.1717 18.807 37.601 18.9838 37.9217 19.3081C38.2424 19.6274 38.4151 20.0499 38.4102 20.5019C38.4003 21.6074 38.3904 22.6391 38.3806 23.5578C38.3477 26.8594 38.5023 28.6821 38.8444 29.026C39.1207 29.306 39.5055 29.4632 39.9003 29.4632C41.6716 29.4632 43.0137 32.0622 43.1025 33.1578C43.1025 33.1873 43.1074 33.2168 43.1124 33.2462C43.2308 34.0667 42.9347 35.4325 42.1453 36.3365C41.5729 36.9949 40.8377 37.3142 39.9003 37.3142C38.9628 37.3142 38.5236 36.9703 38.3115 36.7099C37.6848 35.9336 37.6503 34.4254 37.8822 33.3494C38.0549 32.5535 37.5467 31.7674 36.7474 31.5955C35.948 31.4235 35.1586 31.9296 34.9859 32.7255C34.606 34.4696 34.675 36.9212 36.0073 38.5572C36.6339 39.3334 37.823 40.2571 39.9003 40.2571C41.7012 40.2571 43.2505 39.5693 44.3853 38.2624C45.8212 36.6165 46.2554 34.3762 46.0481 32.8679C45.8606 30.8733 44.1781 27.5717 41.3213 26.7169C41.3213 25.9259 41.3311 24.7713 41.341 23.5824C41.3509 22.6587 41.3607 21.627 41.3706 20.5167C41.3805 19.2737 40.9019 18.1044 40.0236 17.225C39.1404 16.3406 37.9661 15.8543 36.7128 15.8543H36.5747C37.0681 14.9994 37.3543 14.0119 37.3543 12.9556C37.3543 9.73267 34.7195 7.10913 31.4827 7.10913C29.2377 7.10913 27.2788 8.37668 26.297 10.2289C25.3101 8.37668 23.3562 7.10913 21.1112 7.10913C17.8745 7.10913 15.2396 9.73267 15.2396 12.9556C15.2396 14.0119 15.5258 14.9994 16.0192 15.8543H15.8811C14.6278 15.8543 13.4535 16.3406 12.5703 17.225C11.692 18.1044 11.2134 19.2737 11.2184 20.5167C11.2282 21.6221 11.2381 22.6489 11.248 23.5676C11.2578 24.7664 11.2726 25.921 11.2726 26.7169C8.41086 27.5717 6.72833 30.8733 6.54577 32.8679C6.34347 34.3762 6.77767 36.6165 8.20856 38.2624C9.3434 39.5643 10.8927 40.2571 12.6937 40.2571ZM31.4876 10.0618C33.0912 10.0618 34.3987 11.3638 34.3987 12.9605C34.3987 14.5572 33.0912 15.8592 31.4876 15.8592C29.884 15.8592 28.5765 14.5621 28.5765 12.9605C28.5765 11.3589 29.884 10.0618 31.4876 10.0618ZM26.3019 15.6823C27.2147 17.3969 28.9564 18.6006 30.9893 18.7726C30.8561 19.1017 30.7524 19.4506 30.6982 19.8141L29.9136 25.0514C29.7903 25.8817 29.06 26.5056 28.2213 26.5056H24.3825C23.5388 26.5056 22.8135 25.8817 22.6901 25.0514L21.9056 19.8141C21.8513 19.4506 21.7477 19.1017 21.6145 18.7726C23.6473 18.6006 25.3891 17.392 26.3019 15.6823ZM21.1162 10.0618C22.7197 10.0618 24.0273 11.3638 24.0273 12.9605C24.0273 14.5572 22.7197 15.8592 21.1162 15.8592C19.5126 15.8592 18.205 14.5621 18.205 12.9605C18.205 11.3589 19.5126 10.0618 21.1162 10.0618Z" fill="#EB6540" fill-opacity="0.2"/>
<path d="M26.3018 35.2212C23.5585 35.2212 21.3282 37.4419 21.3282 40.1735C21.3282 42.9051 23.5585 45.1258 26.3018 45.1258C29.0452 45.1258 31.2754 42.9051 31.2754 40.1735C31.2754 37.4419 29.0452 35.2212 26.3018 35.2212ZM26.3018 42.178C25.1916 42.178 24.2887 41.2789 24.2887 40.1735C24.2887 39.0681 25.1916 38.169 26.3018 38.169C27.412 38.169 28.3149 39.0681 28.3149 40.1735C28.3149 41.2789 27.412 42.178 26.3018 42.178Z" fill="#EB6540" fill-opacity="0.2"/>
</g>
<defs>
<clipPath id="clip0_2001_313">
<rect width="52" height="64" fill="white"/>
</clipPath>
</defs>
</svg>
