<svg width="1024" height="40" viewBox="0 0 1024 40" fill="none" xmlns="http://www.w3.org/2000/svg">
<path d="M1058 23.7348V8.11908C1053.43 8.11908 1049.97 4.35724 1049.95 0H1034.78C1034.78 10.7172 1018.75 10.7172 1018.73 0H1003.56C1003.56 10.7442 987.48 10.6901 987.48 0H972.312C972.312 10.7172 956.287 10.7172 956.26 0H941.091C941.091 10.6901 925.067 10.7442 925.04 0H909.845C909.845 10.7172 893.82 10.7172 893.793 0H878.625C878.625 10.6901 862.573 10.7442 862.573 0H847.378C847.378 10.7172 831.353 10.7172 831.326 0H816.157C816.157 10.7172 800.133 10.7172 800.106 0H784.911C784.911 10.7442 768.886 10.6901 768.859 0H753.69C753.69 10.6901 737.666 10.7442 737.639 0H722.443C722.443 10.7442 706.419 10.6901 706.392 0H691.223C691.223 10.6901 675.198 10.7442 675.172 0H659.976C659.976 10.7442 643.952 10.6901 643.925 0H628.756C628.756 10.6901 612.731 10.7442 612.705 0H597.509C597.509 10.7442 581.484 10.6901 581.458 0H566.289C566.289 10.6901 550.264 10.7442 550.238 0H535.042C535.042 6.25169 529.611 8.82273 525.064 7.79432C521.586 6.84709 519.124 3.65359 519.124 0H503.822C503.822 3.7889 501.227 6.95535 497.749 7.84844C493.228 8.79567 487.904 6.19756 487.904 0H472.736C472.736 10.7442 456.657 10.6901 456.657 0H441.489C441.489 10.7172 425.464 10.7172 425.437 0H410.269C410.269 10.6901 394.244 10.7442 394.217 0H379.022C379.022 10.7172 362.997 10.7172 362.97 0H347.801C347.801 10.6901 331.777 10.7442 331.75 0H316.555C316.555 10.7172 300.503 10.7172 300.503 0H285.334C285.334 10.7172 269.31 10.7172 269.283 0H254.087C254.087 10.7442 238.036 10.6901 238.036 0H222.867C222.867 10.6901 206.843 10.7442 206.816 0H191.62C191.62 10.7442 175.596 10.6901 175.569 0H160.4C160.4 10.6901 144.375 10.7442 144.349 0H129.153C129.153 10.7442 113.129 10.6901 113.102 0H97.9332C97.9332 10.6901 81.9084 10.7442 81.8817 0H66.6862C66.6862 10.7442 50.6615 10.6901 50.6347 0H35.4661C35.4661 10.6901 19.4413 10.7442 19.4146 0H4.21916C4.21916 10.7442 -11.7788 10.6901 -11.8056 0H-26.9743C-26.9743 4.46549 -30.5858 8.11908 -35 8.11908V23.7348C-24.406 23.7348 -24.3793 39.9729 -35 39.9729H527.177C527.177 39.9729 527.016 39.9729 526.936 39.9729H1058C1047.41 39.9729 1047.38 23.7348 1058 23.7348Z" fill="#C0D6A8"/>
</svg>
