<svg width="566" height="75" viewBox="0 0 566 75" fill="none" xmlns="http://www.w3.org/2000/svg">
<rect width="566" height="75" rx="2" fill="#C64191"/>
<path d="M44.302 29C44.2153 29 44.159 28.9567 44.133 28.87L41.403 20.082L41.39 20.03C41.39 19.9433 41.4377 19.9 41.533 19.9H42.82C42.9153 19.9 42.976 19.9433 43.002 20.03L44.952 26.816C44.9607 26.842 44.9737 26.855 44.991 26.855C45.0083 26.855 45.0213 26.842 45.03 26.816L46.967 20.03C46.993 19.9433 47.0537 19.9 47.149 19.9H48.41C48.462 19.9 48.501 19.9173 48.527 19.952C48.553 19.9867 48.5573 20.03 48.54 20.082L45.771 28.87C45.745 28.9567 45.6887 29 45.602 29H44.302ZM50.5986 21.447C50.3299 21.447 50.1089 21.3603 49.9356 21.187C49.7622 21.0137 49.6756 20.7927 49.6756 20.524C49.6756 20.2553 49.7622 20.0343 49.9356 19.861C50.1089 19.6877 50.3299 19.601 50.5986 19.601C50.8672 19.601 51.0882 19.6877 51.2616 19.861C51.4349 20.0343 51.5216 20.2553 51.5216 20.524C51.5216 20.7927 51.4349 21.0137 51.2616 21.187C51.0882 21.3603 50.8672 21.447 50.5986 21.447ZM49.9746 29C49.9312 29 49.8922 28.987 49.8576 28.961C49.8316 28.9263 49.8186 28.8873 49.8186 28.844V22.5C49.8186 22.4567 49.8316 22.422 49.8576 22.396C49.8922 22.3613 49.9312 22.344 49.9746 22.344H51.1706C51.2139 22.344 51.2486 22.3613 51.2746 22.396C51.3092 22.422 51.3266 22.4567 51.3266 22.5V28.844C51.3266 28.8873 51.3092 28.9263 51.2746 28.961C51.2486 28.987 51.2139 29 51.1706 29H49.9746ZM58.657 24.931C58.6917 25.1477 58.709 25.3903 58.709 25.659L58.696 26.062C58.696 26.166 58.644 26.218 58.54 26.218H54.471C54.4277 26.218 54.406 26.2397 54.406 26.283C54.432 26.569 54.471 26.764 54.523 26.868C54.731 27.492 55.238 27.8083 56.044 27.817C56.6334 27.817 57.1014 27.5743 57.448 27.089C57.4827 27.037 57.526 27.011 57.578 27.011C57.6127 27.011 57.643 27.024 57.669 27.05L58.475 27.713C58.553 27.7737 58.566 27.843 58.514 27.921C58.2454 28.3023 57.8857 28.597 57.435 28.805C56.993 29.013 56.499 29.117 55.953 29.117C55.277 29.117 54.7007 28.9653 54.224 28.662C53.756 28.3587 53.4137 27.934 53.197 27.388C52.9977 26.92 52.898 26.27 52.898 25.438C52.898 24.9353 52.95 24.528 53.054 24.216C53.2274 23.6093 53.5524 23.1327 54.029 22.786C54.5144 22.4307 55.095 22.253 55.771 22.253C57.4784 22.253 58.4404 23.1457 58.657 24.931ZM55.771 23.553C55.4504 23.553 55.1817 23.6353 54.965 23.8C54.757 23.956 54.6097 24.177 54.523 24.463C54.471 24.6103 54.4364 24.801 54.419 25.035C54.4017 25.0783 54.419 25.1 54.471 25.1H57.11C57.1534 25.1 57.175 25.0783 57.175 25.035C57.1577 24.8183 57.1317 24.6537 57.097 24.541C57.019 24.229 56.863 23.9863 56.629 23.813C56.4037 23.6397 56.1177 23.553 55.771 23.553ZM63.1813 22.279C63.4586 22.279 63.7013 22.3353 63.9093 22.448C63.9786 22.4827 64.0046 22.5477 63.9873 22.643L63.7663 23.813C63.7576 23.917 63.6969 23.9473 63.5843 23.904C63.4543 23.8607 63.3026 23.839 63.1293 23.839C63.0166 23.839 62.9299 23.8433 62.8693 23.852C62.5053 23.8693 62.2019 23.9993 61.9593 24.242C61.7166 24.476 61.5953 24.7837 61.5953 25.165V28.844C61.5953 28.8873 61.5779 28.9263 61.5433 28.961C61.5173 28.987 61.4826 29 61.4393 29H60.2433C60.1999 29 60.1609 28.987 60.1263 28.961C60.1003 28.9263 60.0873 28.8873 60.0873 28.844V22.513C60.0873 22.4697 60.1003 22.435 60.1263 22.409C60.1609 22.3743 60.1999 22.357 60.2433 22.357H61.4393C61.4826 22.357 61.5173 22.3743 61.5433 22.409C61.5779 22.435 61.5953 22.4697 61.5953 22.513V23.098C61.5953 23.1327 61.5996 23.1543 61.6083 23.163C61.6256 23.163 61.6429 23.15 61.6603 23.124C62.0243 22.5607 62.5313 22.279 63.1813 22.279ZM68.1599 22.253C68.8619 22.253 69.4209 22.461 69.8369 22.877C70.2616 23.293 70.4739 23.8607 70.4739 24.58V28.844C70.4739 28.8873 70.4566 28.9263 70.4219 28.961C70.3959 28.987 70.3613 29 70.3179 29H69.1219C69.0786 29 69.0396 28.987 69.0049 28.961C68.9789 28.9263 68.9659 28.8873 68.9659 28.844V24.892C68.9659 24.4933 68.8533 24.1727 68.6279 23.93C68.4026 23.6787 68.1036 23.553 67.7309 23.553C67.3583 23.553 67.0549 23.6743 66.8209 23.917C66.5956 24.1597 66.4829 24.4803 66.4829 24.879V28.844C66.4829 28.8873 66.4656 28.9263 66.4309 28.961C66.4049 28.987 66.3703 29 66.3269 29H65.1309C65.0876 29 65.0486 28.987 65.0139 28.961C64.9879 28.9263 64.9749 28.8873 64.9749 28.844V22.513C64.9749 22.4697 64.9879 22.435 65.0139 22.409C65.0486 22.3743 65.0876 22.357 65.1309 22.357H66.3269C66.3703 22.357 66.4049 22.3743 66.4309 22.409C66.4656 22.435 66.4829 22.4697 66.4829 22.513V22.929C66.4829 22.955 66.4916 22.9723 66.5089 22.981C66.5263 22.9897 66.5393 22.981 66.5479 22.955C66.9033 22.487 67.4406 22.253 68.1599 22.253ZM77.5985 24.931C77.6331 25.1477 77.6505 25.3903 77.6505 25.659L77.6375 26.062C77.6375 26.166 77.5855 26.218 77.4815 26.218H73.4125C73.3691 26.218 73.3475 26.2397 73.3475 26.283C73.3735 26.569 73.4125 26.764 73.4645 26.868C73.6725 27.492 74.1795 27.8083 74.9855 27.817C75.5748 27.817 76.0428 27.5743 76.3895 27.089C76.4241 27.037 76.4675 27.011 76.5195 27.011C76.5541 27.011 76.5845 27.024 76.6105 27.05L77.4165 27.713C77.4945 27.7737 77.5075 27.843 77.4555 27.921C77.1868 28.3023 76.8271 28.597 76.3765 28.805C75.9345 29.013 75.4405 29.117 74.8945 29.117C74.2185 29.117 73.6421 28.9653 73.1655 28.662C72.6975 28.3587 72.3551 27.934 72.1385 27.388C71.9391 26.92 71.8395 26.27 71.8395 25.438C71.8395 24.9353 71.8915 24.528 71.9955 24.216C72.1688 23.6093 72.4938 23.1327 72.9705 22.786C73.4558 22.4307 74.0365 22.253 74.7125 22.253C76.4198 22.253 77.3818 23.1457 77.5985 24.931ZM74.7125 23.553C74.3918 23.553 74.1231 23.6353 73.9065 23.8C73.6985 23.956 73.5511 24.177 73.4645 24.463C73.4125 24.6103 73.3778 24.801 73.3605 25.035C73.3431 25.0783 73.3605 25.1 73.4125 25.1H76.0515C76.0948 25.1 76.1165 25.0783 76.1165 25.035C76.0991 24.8183 76.0731 24.6537 76.0385 24.541C75.9605 24.229 75.8045 23.9863 75.5705 23.813C75.3451 23.6397 75.0591 23.553 74.7125 23.553ZM81.3971 29.078C80.8511 29.078 80.3701 29 79.9541 28.844C79.5468 28.6793 79.2304 28.4583 79.0051 28.181C78.7798 27.895 78.6671 27.5787 78.6671 27.232V27.115C78.6671 27.0717 78.6801 27.037 78.7061 27.011C78.7408 26.9763 78.7798 26.959 78.8231 26.959H79.9671C80.0104 26.959 80.0451 26.9763 80.0711 27.011C80.1058 27.037 80.1231 27.0717 80.1231 27.115V27.141C80.1231 27.3577 80.2401 27.5483 80.4741 27.713C80.7168 27.869 81.0201 27.947 81.3841 27.947C81.7308 27.947 82.0124 27.8777 82.2291 27.739C82.4458 27.5917 82.5541 27.4097 82.5541 27.193C82.5541 26.9937 82.4631 26.8463 82.2811 26.751C82.1078 26.647 81.8218 26.5387 81.4231 26.426L80.9291 26.27C80.4871 26.14 80.1144 26.0013 79.8111 25.854C79.5078 25.7067 79.2521 25.5073 79.0441 25.256C78.8361 24.996 78.7321 24.6667 78.7321 24.268C78.7321 23.6613 78.9704 23.1803 79.4471 22.825C79.9238 22.461 80.5521 22.279 81.3321 22.279C81.8608 22.279 82.3244 22.3657 82.7231 22.539C83.1218 22.7037 83.4294 22.9377 83.6461 23.241C83.8628 23.5357 83.9711 23.8737 83.9711 24.255C83.9711 24.2983 83.9538 24.3373 83.9191 24.372C83.8931 24.398 83.8584 24.411 83.8151 24.411H82.7101C82.6668 24.411 82.6278 24.398 82.5931 24.372C82.5671 24.3373 82.5541 24.2983 82.5541 24.255C82.5541 24.0297 82.4414 23.8433 82.2161 23.696C81.9994 23.54 81.7004 23.462 81.3191 23.462C80.9811 23.462 80.7038 23.527 80.4871 23.657C80.2791 23.7783 80.1751 23.9517 80.1751 24.177C80.1751 24.385 80.2748 24.5453 80.4741 24.658C80.6821 24.762 81.0244 24.879 81.5011 25.009L81.7871 25.087C82.2464 25.2257 82.6321 25.3687 82.9441 25.516C83.2561 25.6547 83.5204 25.854 83.7371 26.114C83.9538 26.3653 84.0621 26.6947 84.0621 27.102C84.0621 27.7173 83.8194 28.2027 83.3341 28.558C82.8488 28.9047 82.2031 29.078 81.3971 29.078ZM44.887 42.104C44.211 42.104 43.6217 41.9957 43.119 41.779C42.6163 41.5623 42.2263 41.259 41.949 40.869C41.6803 40.479 41.546 40.0197 41.546 39.491V39.166C41.546 39.1227 41.559 39.088 41.585 39.062C41.6197 39.0273 41.6587 39.01 41.702 39.01H42.859C42.9023 39.01 42.937 39.0273 42.963 39.062C42.9977 39.088 43.015 39.1227 43.015 39.166V39.413C43.015 39.8117 43.1927 40.1453 43.548 40.414C43.9033 40.674 44.3887 40.804 45.004 40.804C45.5327 40.804 45.9313 40.6913 46.2 40.466C46.4687 40.2407 46.603 39.9503 46.603 39.595C46.603 39.3523 46.5293 39.1487 46.382 38.984C46.2347 38.8107 46.0223 38.6547 45.745 38.516C45.4763 38.3773 45.069 38.204 44.523 37.996C43.9077 37.7707 43.4093 37.5583 43.028 37.359C42.6467 37.1597 42.326 36.891 42.066 36.553C41.8147 36.2063 41.689 35.7773 41.689 35.266C41.689 34.5033 41.9663 33.901 42.521 33.459C43.0757 33.017 43.8167 32.796 44.744 32.796C45.394 32.796 45.966 32.9087 46.46 33.134C46.9627 33.3593 47.3527 33.6757 47.63 34.083C47.9073 34.4817 48.046 34.9453 48.046 35.474V35.695C48.046 35.7383 48.0287 35.7773 47.994 35.812C47.968 35.838 47.9333 35.851 47.89 35.851H46.72C46.6767 35.851 46.6377 35.838 46.603 35.812C46.577 35.7773 46.564 35.7383 46.564 35.695V35.552C46.564 35.1447 46.395 34.8023 46.057 34.525C45.7277 34.239 45.2683 34.096 44.679 34.096C44.2023 34.096 43.8297 34.1957 43.561 34.395C43.301 34.5943 43.171 34.876 43.171 35.24C43.171 35.5 43.2403 35.7123 43.379 35.877C43.5177 36.0417 43.7257 36.1933 44.003 36.332C44.2803 36.462 44.7093 36.631 45.29 36.839C45.9053 37.073 46.395 37.2853 46.759 37.476C47.1317 37.6667 47.448 37.9353 47.708 38.282C47.9767 38.62 48.111 39.0447 48.111 39.556C48.111 40.336 47.8207 40.9557 47.24 41.415C46.668 41.8743 45.8837 42.104 44.887 42.104ZM51.9582 35.253C52.5042 35.253 52.9852 35.3483 53.4012 35.539C53.8172 35.7297 54.1379 35.994 54.3632 36.332C54.5885 36.6613 54.7012 37.0383 54.7012 37.463V41.844C54.7012 41.8873 54.6839 41.9263 54.6492 41.961C54.6232 41.987 54.5885 42 54.5452 42H53.3492C53.3059 42 53.2669 41.987 53.2322 41.961C53.2062 41.9263 53.1932 41.8873 53.1932 41.844V41.428C53.1932 41.402 53.1845 41.389 53.1672 41.389C53.1499 41.3803 53.1325 41.3847 53.1152 41.402C52.6905 41.87 52.0752 42.104 51.2692 42.104C50.6192 42.104 50.0819 41.9393 49.6572 41.61C49.2412 41.2807 49.0332 40.791 49.0332 40.141C49.0332 39.465 49.2672 38.9407 49.7352 38.568C50.2119 38.1867 50.8792 37.996 51.7372 37.996H53.1282C53.1715 37.996 53.1932 37.9743 53.1932 37.931V37.619C53.1932 37.281 53.0935 37.021 52.8942 36.839C52.6949 36.6483 52.3959 36.553 51.9972 36.553C51.6679 36.553 51.3992 36.6137 51.1912 36.735C50.9919 36.8477 50.8662 37.008 50.8142 37.216C50.7882 37.32 50.7275 37.3633 50.6322 37.346L49.3712 37.19C49.3279 37.1813 49.2889 37.1683 49.2542 37.151C49.2282 37.125 49.2195 37.0947 49.2282 37.06C49.2975 36.5313 49.5792 36.098 50.0732 35.76C50.5759 35.422 51.2042 35.253 51.9582 35.253ZM51.6462 40.908C52.0709 40.908 52.4349 40.7953 52.7382 40.57C53.0415 40.3447 53.1932 40.0587 53.1932 39.712V39.101C53.1932 39.0577 53.1715 39.036 53.1282 39.036H52.0362C51.5769 39.036 51.2129 39.1227 50.9442 39.296C50.6842 39.4693 50.5542 39.7163 50.5542 40.037C50.5542 40.3143 50.6539 40.531 50.8532 40.687C51.0612 40.8343 51.3255 40.908 51.6462 40.908ZM51.3992 34.525C51.3385 34.525 51.2995 34.5077 51.2822 34.473C51.2649 34.4383 51.2692 34.395 51.2952 34.343L52.0102 33.004C52.0449 32.9347 52.1099 32.9 52.2052 32.9H53.2322C53.2929 32.9 53.3319 32.9217 53.3492 32.965C53.3752 32.9997 53.3709 33.043 53.3362 33.095L52.4392 34.421C52.3959 34.4903 52.3352 34.525 52.2572 34.525H51.3992ZM61.8055 37.073C61.9528 37.5583 62.0265 38.087 62.0265 38.659C62.0265 39.2743 61.9442 39.816 61.7795 40.284C61.5888 40.856 61.2812 41.3023 60.8565 41.623C60.4318 41.9437 59.9118 42.104 59.2965 42.104C58.6898 42.104 58.1915 41.8743 57.8015 41.415C57.7842 41.389 57.7668 41.3803 57.7495 41.389C57.7322 41.3977 57.7235 41.415 57.7235 41.441V41.844C57.7235 41.8873 57.7062 41.9263 57.6715 41.961C57.6455 41.987 57.6108 42 57.5675 42H56.3715C56.3282 42 56.2892 41.987 56.2545 41.961C56.2285 41.9263 56.2155 41.8873 56.2155 41.844V33.056C56.2155 33.0127 56.2285 32.978 56.2545 32.952C56.2892 32.9173 56.3282 32.9 56.3715 32.9H57.5675C57.6108 32.9 57.6455 32.9173 57.6715 32.952C57.7062 32.978 57.7235 33.0127 57.7235 33.056V35.877C57.7235 35.903 57.7322 35.9203 57.7495 35.929C57.7668 35.9377 57.7842 35.9333 57.8015 35.916C58.1742 35.474 58.6682 35.253 59.2835 35.253C59.9248 35.253 60.4535 35.4133 60.8695 35.734C61.2942 36.0547 61.6062 36.501 61.8055 37.073ZM60.1675 40.18C60.3755 39.816 60.4795 39.3177 60.4795 38.685C60.4795 38.009 60.3495 37.4803 60.0895 37.099C59.8555 36.735 59.5088 36.553 59.0495 36.553C58.6248 36.553 58.2998 36.7437 58.0745 37.125C57.8578 37.4803 57.7495 37.996 57.7495 38.672C57.7495 39.3393 57.8492 39.842 58.0485 40.18C58.2738 40.596 58.6118 40.804 59.0625 40.804C59.3052 40.804 59.5218 40.752 59.7125 40.648C59.9032 40.5353 60.0548 40.3793 60.1675 40.18ZM65.9992 35.253C66.5452 35.253 67.0262 35.3483 67.4422 35.539C67.8582 35.7297 68.1789 35.994 68.4042 36.332C68.6295 36.6613 68.7422 37.0383 68.7422 37.463V41.844C68.7422 41.8873 68.7249 41.9263 68.6902 41.961C68.6642 41.987 68.6295 42 68.5862 42H67.3902C67.3469 42 67.3079 41.987 67.2732 41.961C67.2472 41.9263 67.2342 41.8873 67.2342 41.844V41.428C67.2342 41.402 67.2255 41.389 67.2082 41.389C67.1909 41.3803 67.1735 41.3847 67.1562 41.402C66.7315 41.87 66.1162 42.104 65.3102 42.104C64.6602 42.104 64.1229 41.9393 63.6982 41.61C63.2822 41.2807 63.0742 40.791 63.0742 40.141C63.0742 39.465 63.3082 38.9407 63.7762 38.568C64.2529 38.1867 64.9202 37.996 65.7782 37.996H67.1692C67.2125 37.996 67.2342 37.9743 67.2342 37.931V37.619C67.2342 37.281 67.1345 37.021 66.9352 36.839C66.7359 36.6483 66.4369 36.553 66.0382 36.553C65.7089 36.553 65.4402 36.6137 65.2322 36.735C65.0329 36.8477 64.9072 37.008 64.8552 37.216C64.8292 37.32 64.7685 37.3633 64.6732 37.346L63.4122 37.19C63.3689 37.1813 63.3299 37.1683 63.2952 37.151C63.2692 37.125 63.2605 37.0947 63.2692 37.06C63.3385 36.5313 63.6202 36.098 64.1142 35.76C64.6169 35.422 65.2452 35.253 65.9992 35.253ZM65.6872 40.908C66.1119 40.908 66.4759 40.7953 66.7792 40.57C67.0825 40.3447 67.2342 40.0587 67.2342 39.712V39.101C67.2342 39.0577 67.2125 39.036 67.1692 39.036H66.0772C65.6179 39.036 65.2539 39.1227 64.9852 39.296C64.7252 39.4693 64.5952 39.7163 64.5952 40.037C64.5952 40.3143 64.6949 40.531 64.8942 40.687C65.1022 40.8343 65.3665 40.908 65.6872 40.908ZM74.3772 33.056C74.3772 33.0127 74.3902 32.978 74.4162 32.952C74.4509 32.9173 74.4899 32.9 74.5332 32.9H75.7292C75.7725 32.9 75.8072 32.9173 75.8332 32.952C75.8679 32.978 75.8852 33.0127 75.8852 33.056V41.844C75.8852 41.8873 75.8679 41.9263 75.8332 41.961C75.8072 41.987 75.7725 42 75.7292 42H74.5332C74.4899 42 74.4509 41.987 74.4162 41.961C74.3902 41.9263 74.3772 41.8873 74.3772 41.844V41.454C74.3772 41.428 74.3685 41.4107 74.3512 41.402C74.3339 41.3933 74.3165 41.402 74.2992 41.428C73.9179 41.8787 73.4195 42.104 72.8042 42.104C72.1889 42.104 71.6689 41.9437 71.2442 41.623C70.8195 41.3023 70.5119 40.856 70.3212 40.284C70.1652 39.7987 70.0872 39.257 70.0872 38.659C70.0872 38.0437 70.1609 37.515 70.3082 37.073C70.4989 36.501 70.8065 36.0547 71.2312 35.734C71.6559 35.4133 72.1889 35.253 72.8302 35.253C73.4282 35.253 73.9179 35.4697 74.2992 35.903C74.3165 35.9203 74.3339 35.929 74.3512 35.929C74.3685 35.9203 74.3772 35.903 74.3772 35.877V33.056ZM74.0652 40.18C74.2645 39.8247 74.3642 39.322 74.3642 38.672C74.3642 37.996 74.2559 37.4803 74.0392 37.125C73.8052 36.7437 73.4759 36.553 73.0512 36.553C72.6092 36.553 72.2625 36.735 72.0112 37.099C71.7512 37.4803 71.6212 38.009 71.6212 38.685C71.6212 39.2917 71.7252 39.79 71.9332 40.18C72.1759 40.596 72.5442 40.804 73.0382 40.804C73.4802 40.804 73.8225 40.596 74.0652 40.18ZM80.3389 42.104C79.6542 42.104 79.0649 41.9307 78.5709 41.584C78.0856 41.2373 77.7432 40.7563 77.5439 40.141C77.3966 39.673 77.3229 39.179 77.3229 38.659C77.3229 38.1043 77.3922 37.6103 77.5309 37.177C77.7302 36.5703 78.0769 36.098 78.5709 35.76C79.0649 35.422 79.6586 35.253 80.3519 35.253C81.0106 35.253 81.5782 35.422 82.0549 35.76C82.5402 36.098 82.8826 36.566 83.0819 37.164C83.2379 37.58 83.3159 38.074 83.3159 38.646C83.3159 39.192 83.2422 39.686 83.0949 40.128C82.8956 40.7433 82.5532 41.2287 82.0679 41.584C81.5826 41.9307 81.0062 42.104 80.3389 42.104ZM80.3389 40.804C80.6596 40.804 80.9326 40.713 81.1579 40.531C81.3919 40.349 81.5609 40.0933 81.6649 39.764C81.7516 39.478 81.7949 39.114 81.7949 38.672C81.7949 38.204 81.7516 37.84 81.6649 37.58C81.5696 37.2507 81.4049 36.9993 81.1709 36.826C80.9369 36.644 80.6509 36.553 80.3129 36.553C79.9922 36.553 79.7149 36.644 79.4809 36.826C79.2469 36.9993 79.0779 37.2507 78.9739 37.58C78.8872 37.8833 78.8439 38.2473 78.8439 38.672C78.8439 39.0967 78.8872 39.4607 78.9739 39.764C79.0692 40.0933 79.2339 40.349 79.4679 40.531C79.7106 40.713 80.0009 40.804 80.3389 40.804ZM42.105 55C42.0617 55 42.0227 54.987 41.988 54.961C41.962 54.9263 41.949 54.8873 41.949 54.844V46.056C41.949 46.0127 41.962 45.978 41.988 45.952C42.0227 45.9173 42.0617 45.9 42.105 45.9H45.277C45.8923 45.9 46.434 46.0083 46.902 46.225C47.37 46.4417 47.7297 46.7537 47.981 47.161C48.241 47.5597 48.371 48.0277 48.371 48.565V52.335C48.371 52.8723 48.241 53.3447 47.981 53.752C47.7297 54.1507 47.37 54.4583 46.902 54.675C46.434 54.8917 45.8923 55 45.277 55H42.105ZM43.457 53.635C43.457 53.6783 43.4787 53.7 43.522 53.7H45.342C45.8013 53.7 46.1653 53.557 46.434 53.271C46.7113 52.9763 46.8543 52.5863 46.863 52.101V48.812C46.863 48.318 46.7243 47.928 46.447 47.642C46.1697 47.3473 45.797 47.2 45.329 47.2H43.522C43.4787 47.2 43.457 47.2217 43.457 47.265V53.635ZM52.6631 55.104C51.9785 55.104 51.3891 54.9307 50.8951 54.584C50.4098 54.2373 50.0675 53.7563 49.8681 53.141C49.7208 52.673 49.6471 52.179 49.6471 51.659C49.6471 51.1043 49.7165 50.6103 49.8551 50.177C50.0545 49.5703 50.4011 49.098 50.8951 48.76C51.3891 48.422 51.9828 48.253 52.6761 48.253C53.3348 48.253 53.9025 48.422 54.3791 48.76C54.8645 49.098 55.2068 49.566 55.4061 50.164C55.5621 50.58 55.6401 51.074 55.6401 51.646C55.6401 52.192 55.5665 52.686 55.4191 53.128C55.2198 53.7433 54.8775 54.2287 54.3921 54.584C53.9068 54.9307 53.3305 55.104 52.6631 55.104ZM52.6631 53.804C52.9838 53.804 53.2568 53.713 53.4821 53.531C53.7161 53.349 53.8851 53.0933 53.9891 52.764C54.0758 52.478 54.1191 52.114 54.1191 51.672C54.1191 51.204 54.0758 50.84 53.9891 50.58C53.8938 50.2507 53.7291 49.9993 53.4951 49.826C53.2611 49.644 52.9751 49.553 52.6371 49.553C52.3165 49.553 52.0391 49.644 51.8051 49.826C51.5711 49.9993 51.4021 50.2507 51.2981 50.58C51.2115 50.8833 51.1681 51.2473 51.1681 51.672C51.1681 52.0967 51.2115 52.4607 51.2981 52.764C51.3935 53.0933 51.5581 53.349 51.7921 53.531C52.0348 53.713 52.3251 53.804 52.6631 53.804ZM64.1768 48.253C64.8441 48.253 65.3641 48.4567 65.7368 48.864C66.1181 49.2627 66.3088 49.8217 66.3088 50.541V54.844C66.3088 54.8873 66.2914 54.9263 66.2568 54.961C66.2308 54.987 66.1961 55 66.1528 55H64.9698C64.9264 55 64.8874 54.987 64.8528 54.961C64.8268 54.9263 64.8138 54.8873 64.8138 54.844V50.853C64.8138 50.4543 64.7054 50.138 64.4888 49.904C64.2808 49.67 63.9991 49.553 63.6438 49.553C63.2884 49.553 62.9981 49.67 62.7728 49.904C62.5474 50.138 62.4348 50.45 62.4348 50.84V54.844C62.4348 54.8873 62.4174 54.9263 62.3828 54.961C62.3568 54.987 62.3221 55 62.2788 55H61.0958C61.0524 55 61.0134 54.987 60.9788 54.961C60.9528 54.9263 60.9398 54.8873 60.9398 54.844V50.853C60.9398 50.4543 60.8314 50.138 60.6148 49.904C60.3981 49.67 60.1121 49.553 59.7568 49.553C59.4274 49.553 59.1544 49.6483 58.9378 49.839C58.7298 50.0297 58.6084 50.2897 58.5738 50.619V54.844C58.5738 54.8873 58.5564 54.9263 58.5218 54.961C58.4958 54.987 58.4611 55 58.4178 55H57.2218C57.1784 55 57.1394 54.987 57.1048 54.961C57.0788 54.9263 57.0658 54.8873 57.0658 54.844V48.513C57.0658 48.4697 57.0788 48.435 57.1048 48.409C57.1394 48.3743 57.1784 48.357 57.2218 48.357H58.4178C58.4611 48.357 58.4958 48.3743 58.5218 48.409C58.5564 48.435 58.5738 48.4697 58.5738 48.513V48.942C58.5738 48.968 58.5824 48.9853 58.5998 48.994C58.6171 49.0027 58.6344 48.994 58.6518 48.968C58.8424 48.7253 59.0764 48.5477 59.3538 48.435C59.6398 48.3137 59.9561 48.253 60.3028 48.253C60.7274 48.253 61.1001 48.3397 61.4208 48.513C61.7414 48.6863 61.9884 48.9377 62.1618 49.267C62.1878 49.3017 62.2181 49.3017 62.2528 49.267C62.4434 48.9203 62.7078 48.6647 63.0458 48.5C63.3838 48.3353 63.7608 48.253 64.1768 48.253ZM68.7021 47.447C68.4334 47.447 68.2124 47.3603 68.0391 47.187C67.8658 47.0137 67.7791 46.7927 67.7791 46.524C67.7791 46.2553 67.8658 46.0343 68.0391 45.861C68.2124 45.6877 68.4334 45.601 68.7021 45.601C68.9708 45.601 69.1918 45.6877 69.3651 45.861C69.5384 46.0343 69.6251 46.2553 69.6251 46.524C69.6251 46.7927 69.5384 47.0137 69.3651 47.187C69.1918 47.3603 68.9708 47.447 68.7021 47.447ZM68.0781 55C68.0348 55 67.9958 54.987 67.9611 54.961C67.9351 54.9263 67.9221 54.8873 67.9221 54.844V48.5C67.9221 48.4567 67.9351 48.422 67.9611 48.396C67.9958 48.3613 68.0348 48.344 68.0781 48.344H69.2741C69.3174 48.344 69.3521 48.3613 69.3781 48.396C69.4128 48.422 69.4301 48.4567 69.4301 48.5V54.844C69.4301 54.8873 69.4128 54.9263 69.3781 54.961C69.3521 54.987 69.3174 55 69.2741 55H68.0781ZM74.3426 48.253C75.0446 48.253 75.6036 48.461 76.0196 48.877C76.4442 49.293 76.6566 49.8607 76.6566 50.58V54.844C76.6566 54.8873 76.6392 54.9263 76.6046 54.961C76.5786 54.987 76.5439 55 76.5006 55H75.3046C75.2612 55 75.2222 54.987 75.1876 54.961C75.1616 54.9263 75.1486 54.8873 75.1486 54.844V50.892C75.1486 50.4933 75.0359 50.1727 74.8106 49.93C74.5852 49.6787 74.2862 49.553 73.9136 49.553C73.5409 49.553 73.2376 49.6743 73.0036 49.917C72.7782 50.1597 72.6656 50.4803 72.6656 50.879V54.844C72.6656 54.8873 72.6482 54.9263 72.6136 54.961C72.5876 54.987 72.5529 55 72.5096 55H71.3136C71.2702 55 71.2312 54.987 71.1966 54.961C71.1706 54.9263 71.1576 54.8873 71.1576 54.844V48.513C71.1576 48.4697 71.1706 48.435 71.1966 48.409C71.2312 48.3743 71.2702 48.357 71.3136 48.357H72.5096C72.5529 48.357 72.5876 48.3743 72.6136 48.409C72.6482 48.435 72.6656 48.4697 72.6656 48.513V48.929C72.6656 48.955 72.6742 48.9723 72.6916 48.981C72.7089 48.9897 72.7219 48.981 72.7306 48.955C73.0859 48.487 73.6232 48.253 74.3426 48.253ZM82.2979 48.513C82.2979 48.4697 82.3109 48.435 82.3369 48.409C82.3715 48.3743 82.4105 48.357 82.4539 48.357H83.6499C83.6932 48.357 83.7279 48.3743 83.7539 48.409C83.7885 48.435 83.8059 48.4697 83.8059 48.513V54.558C83.8059 55.6413 83.4939 56.4127 82.8699 56.872C82.2545 57.34 81.4442 57.574 80.4389 57.574C80.1702 57.574 79.9059 57.561 79.6459 57.535C79.5505 57.5263 79.5029 57.47 79.5029 57.366L79.5419 56.3C79.5419 56.2047 79.6025 56.157 79.7239 56.157C79.9752 56.183 80.2005 56.196 80.3999 56.196C81.0499 56.196 81.5265 56.066 81.8299 55.806C82.1419 55.5547 82.2979 55.1257 82.2979 54.519V54.415C82.2979 54.389 82.2892 54.376 82.2719 54.376C82.2545 54.3673 82.2372 54.3717 82.2199 54.389C81.8645 54.7703 81.3619 54.961 80.7119 54.961C80.1485 54.961 79.6329 54.818 79.1649 54.532C78.6969 54.246 78.3719 53.8083 78.1899 53.219C78.0772 52.8117 78.0209 52.2873 78.0209 51.646C78.0209 50.9267 78.0902 50.3763 78.2289 49.995C78.4022 49.4663 78.7012 49.046 79.1259 48.734C79.5505 48.4133 80.0489 48.253 80.6209 48.253C81.3055 48.253 81.8385 48.4523 82.2199 48.851C82.2372 48.877 82.2545 48.8857 82.2719 48.877C82.2892 48.8683 82.2979 48.851 82.2979 48.825V48.513ZM82.2069 52.79C82.2415 52.66 82.2632 52.5213 82.2719 52.374C82.2892 52.218 82.2979 51.971 82.2979 51.633C82.2979 51.3037 82.2892 51.0697 82.2719 50.931C82.2632 50.7837 82.2372 50.6407 82.1939 50.502C82.1245 50.216 81.9815 49.9863 81.7649 49.813C81.5569 49.6397 81.2882 49.553 80.9589 49.553C80.6469 49.553 80.3825 49.6397 80.1659 49.813C79.9492 49.9863 79.7932 50.216 79.6979 50.502C79.5939 50.7447 79.5419 51.126 79.5419 51.646C79.5419 52.1833 79.5852 52.5603 79.6719 52.777C79.7585 53.0543 79.9145 53.284 80.1399 53.466C80.3739 53.6393 80.6512 53.726 80.9719 53.726C81.3099 53.726 81.5829 53.6393 81.7909 53.466C81.9989 53.2927 82.1375 53.0673 82.2069 52.79ZM88.1846 55.104C87.5 55.104 86.9106 54.9307 86.4166 54.584C85.9313 54.2373 85.589 53.7563 85.3896 53.141C85.2423 52.673 85.1686 52.179 85.1686 51.659C85.1686 51.1043 85.238 50.6103 85.3766 50.177C85.576 49.5703 85.9226 49.098 86.4166 48.76C86.9106 48.422 87.5043 48.253 88.1976 48.253C88.8563 48.253 89.424 48.422 89.9006 48.76C90.386 49.098 90.7283 49.566 90.9276 50.164C91.0836 50.58 91.1616 51.074 91.1616 51.646C91.1616 52.192 91.088 52.686 90.9406 53.128C90.7413 53.7433 90.399 54.2287 89.9136 54.584C89.4283 54.9307 88.852 55.104 88.1846 55.104ZM88.1846 53.804C88.5053 53.804 88.7783 53.713 89.0036 53.531C89.2376 53.349 89.4066 53.0933 89.5106 52.764C89.5973 52.478 89.6406 52.114 89.6406 51.672C89.6406 51.204 89.5973 50.84 89.5106 50.58C89.4153 50.2507 89.2506 49.9993 89.0166 49.826C88.7826 49.644 88.4966 49.553 88.1586 49.553C87.838 49.553 87.5606 49.644 87.3266 49.826C87.0926 49.9993 86.9236 50.2507 86.8196 50.58C86.733 50.8833 86.6896 51.2473 86.6896 51.672C86.6896 52.0967 86.733 52.4607 86.8196 52.764C86.915 53.0933 87.0796 53.349 87.3136 53.531C87.5563 53.713 87.8466 53.804 88.1846 53.804Z" fill="#010101"/>
<path fill-rule="evenodd" clip-rule="evenodd" d="M25.7989 18.6783H31.2011C31.8719 18.6783 32.4255 18.6783 32.8765 18.7154C33.3449 18.754 33.7755 18.8367 34.18 19.0442C34.8072 19.3661 35.3171 19.8796 35.6367 20.5112C35.8428 20.9185 35.9249 21.3522 35.9632 21.8239C36 22.2781 36 22.8356 36 23.5112V27.2731C36 27.9486 36 28.5062 35.9632 28.9604C35.9249 29.4321 35.8428 29.8657 35.6367 30.273C35.3171 30.9047 34.8072 31.4182 34.18 31.74C33.7755 31.9476 33.3449 32.0303 32.8765 32.0688C32.4255 32.1059 31.8719 32.1059 31.2011 32.1059H25.7989C25.1281 32.1059 24.5745 32.1059 24.1235 32.0688C23.6551 32.0303 23.2245 31.9476 22.82 31.74C22.1928 31.4182 21.6829 30.9047 21.3633 30.273C21.1572 29.8657 21.0751 29.4321 21.0368 28.9604C21 28.5062 21 27.9486 21 27.2731V23.5112C21 22.8356 21 22.2781 21.0368 21.8239C21.0751 21.3522 21.1572 20.9185 21.3633 20.5112C21.6829 19.8796 22.1928 19.3661 22.82 19.0442C23.2245 18.8367 23.6551 18.754 24.1235 18.7154C24.5745 18.6783 25.1281 18.6783 25.7989 18.6783ZM24.2592 20.3883C23.8939 20.4184 23.707 20.4729 23.5767 20.5397C23.2631 20.7006 23.0081 20.9574 22.8483 21.2732C22.7819 21.4045 22.7278 21.5926 22.698 21.9606C22.6673 22.3383 22.6667 22.827 22.6667 23.5458V27.2384C22.6667 27.9573 22.6673 28.446 22.698 28.8237C22.7278 29.1916 22.7819 29.3798 22.8483 29.511C23.0081 29.8268 23.2631 30.0836 23.5767 30.2445C23.707 30.3114 23.8939 30.3659 24.2592 30.3959C24.6343 30.4268 25.1195 30.4275 25.8333 30.4275H31.1667C31.8805 30.4275 32.3657 30.4268 32.7408 30.3959C33.1061 30.3659 33.293 30.3114 33.4233 30.2445C33.7369 30.0836 33.9919 29.8268 34.1517 29.511C34.2181 29.3798 34.2722 29.1916 34.302 28.8237C34.3327 28.446 34.3333 27.9573 34.3333 27.2384V23.5458C34.3333 22.827 34.3327 22.3383 34.302 21.9606C34.2722 21.5926 34.2181 21.4045 34.1517 21.2732C33.9919 20.9574 33.7369 20.7006 33.4233 20.5397C33.293 20.4729 33.1061 20.4184 32.7408 20.3883C32.3657 20.3574 31.8805 20.3568 31.1667 20.3568H25.8333C25.1195 20.3568 24.6343 20.3574 24.2592 20.3883Z" fill="#010101"/>
<path d="M25.9996 17.8392C25.9996 17.3757 25.6265 17 25.1663 17C24.706 17 24.3329 17.3757 24.3329 17.8392V19.5177C24.3329 19.9812 24.706 20.3569 25.1663 20.3569C25.6265 20.3569 25.9996 19.9812 25.9996 19.5177V17.8392Z" fill="#010101"/>
<path d="M32.6663 17.8392C32.6663 17.3757 32.2932 17 31.8329 17C31.3727 17 30.9996 17.3757 30.9996 17.8392V19.5177C30.9996 19.9812 31.3727 20.3569 31.8329 20.3569C32.2932 20.3569 32.6663 19.9812 32.6663 19.5177V17.8392Z" fill="#010101"/>
<path fill-rule="evenodd" clip-rule="evenodd" d="M25.1663 24.5531C25.6265 24.5531 25.9996 24.1773 25.9996 23.7139C25.9996 23.2504 25.6265 22.8746 25.1663 22.8746C24.706 22.8746 24.3329 23.2504 24.3329 23.7139C24.3329 24.1773 24.706 24.5531 25.1663 24.5531ZM29.3329 23.7139C29.3329 24.1773 28.9599 24.5531 28.4996 24.5531C28.0394 24.5531 27.6663 24.1773 27.6663 23.7139C27.6663 23.2504 28.0394 22.8746 28.4996 22.8746C28.9599 22.8746 29.3329 23.2504 29.3329 23.7139ZM32.6663 23.7139C32.6663 24.1773 32.2932 24.5531 31.8329 24.5531C31.3727 24.5531 30.9996 24.1773 30.9996 23.7139C30.9996 23.2504 31.3727 22.8746 31.8329 22.8746C32.2932 22.8746 32.6663 23.2504 32.6663 23.7139ZM29.3329 27.0707C29.3329 27.5342 28.9599 27.91 28.4996 27.91C28.0394 27.91 27.6663 27.5342 27.6663 27.0707C27.6663 26.6073 28.0394 26.2315 28.4996 26.2315C28.9599 26.2315 29.3329 26.6073 29.3329 27.0707ZM25.1663 27.91C25.6265 27.91 25.9996 27.5342 25.9996 27.0707C25.9996 26.6073 25.6265 26.2315 25.1663 26.2315C24.706 26.2315 24.3329 26.6073 24.3329 27.0707C24.3329 27.5342 24.706 27.91 25.1663 27.91Z" fill="#010101"/>
<path fill-rule="evenodd" clip-rule="evenodd" d="M126.901 19.25C126.901 18.0074 127.902 17 129.136 17H136.583C137.817 17 138.817 18.0074 138.817 19.25V19.9781C138.817 20.7047 138.469 21.3866 137.882 21.809L134.141 24.5L137.882 27.191C138.469 27.6134 138.817 28.2953 138.817 29.0219V29.75C138.817 30.9926 137.817 32 136.583 32H129.136C127.902 32 126.901 30.9926 126.901 29.75V29.0219C126.901 28.2953 127.25 27.6134 127.837 27.191L131.578 24.5L127.837 21.809C127.25 21.3866 126.901 20.7047 126.901 19.9781V19.25ZM132.859 23.5783L137.016 20.5884C137.212 20.4476 137.328 20.2203 137.328 19.9781V19.25C137.328 18.8358 136.994 18.5 136.583 18.5H129.136C128.724 18.5 128.391 18.8358 128.391 19.25V19.9781C128.391 20.2203 128.507 20.4476 128.703 20.5884L132.859 23.5783ZM132.859 25.4217L128.703 28.4116C128.507 28.5524 128.391 28.7797 128.391 29.0219V29.75C128.391 30.1642 128.724 30.5 129.136 30.5H136.583C136.994 30.5 137.328 30.1642 137.328 29.75V29.0219C137.328 28.7797 137.212 28.5524 137.016 28.4116L132.859 25.4217Z" fill="#010101"/>
<path d="M135.838 30.4997H129.88V30.1827C129.88 29.9147 130.022 29.6672 130.252 29.5332L132.114 28.4503C132.575 28.1822 133.143 28.1822 133.604 28.4503L135.466 29.5332C135.696 29.6672 135.838 29.9147 135.838 30.1827V30.4997Z" fill="#010101"/>
<path d="M145.169 29C145.083 29 145.039 28.9567 145.039 28.87V20.03C145.039 19.9433 145.083 19.9 145.169 19.9H148.237C149.095 19.9 149.776 20.1253 150.278 20.576C150.79 21.0267 151.045 21.6377 151.045 22.409V26.491C151.045 27.2623 150.79 27.8733 150.278 28.324C149.776 28.7747 149.095 29 148.237 29H145.169ZM145.962 28.142C145.962 28.1767 145.98 28.194 146.014 28.194H148.276C148.84 28.194 149.286 28.0293 149.615 27.7C149.953 27.3707 150.122 26.9287 150.122 26.374V22.539C150.122 21.9757 149.958 21.5293 149.628 21.2C149.299 20.8707 148.848 20.706 148.276 20.706H146.014C145.98 20.706 145.962 20.7233 145.962 20.758V28.142ZM156.694 22.552C156.694 22.4653 156.737 22.422 156.824 22.422H157.487C157.573 22.422 157.617 22.4653 157.617 22.552V28.87C157.617 28.9567 157.573 29 157.487 29H156.824C156.737 29 156.694 28.9567 156.694 28.87V28.311C156.694 28.2937 156.685 28.2807 156.668 28.272C156.65 28.2633 156.637 28.2677 156.629 28.285C156.265 28.8223 155.688 29.091 154.9 29.091C154.484 29.091 154.098 29.0087 153.743 28.844C153.396 28.6707 153.119 28.4237 152.911 28.103C152.711 27.7823 152.612 27.3967 152.612 26.946V22.552C152.612 22.4653 152.655 22.422 152.742 22.422H153.405C153.491 22.422 153.535 22.4653 153.535 22.552V26.673C153.535 27.167 153.673 27.5613 153.951 27.856C154.228 28.142 154.605 28.285 155.082 28.285C155.576 28.285 155.966 28.1377 156.252 27.843C156.546 27.5483 156.694 27.1583 156.694 26.673V22.552ZM162.338 22.357C162.624 22.357 162.871 22.4133 163.079 22.526C163.148 22.5607 163.174 22.617 163.157 22.695L163.014 23.332C162.988 23.4187 162.931 23.4447 162.845 23.41C162.697 23.3493 162.528 23.319 162.338 23.319L162.169 23.332C161.718 23.3493 161.345 23.5183 161.051 23.839C160.756 24.151 160.609 24.5497 160.609 25.035V28.87C160.609 28.9567 160.565 29 160.479 29H159.816C159.729 29 159.686 28.9567 159.686 28.87V22.552C159.686 22.4653 159.729 22.422 159.816 22.422H160.479C160.565 22.422 160.609 22.4653 160.609 22.552V23.345C160.609 23.371 160.613 23.3883 160.622 23.397C160.639 23.397 160.652 23.3883 160.661 23.371C160.843 23.0503 161.072 22.8033 161.35 22.63C161.636 22.448 161.965 22.357 162.338 22.357ZM166.67 22.318C167.45 22.318 168.053 22.5173 168.477 22.916C168.902 23.3147 169.114 23.8433 169.114 24.502V28.87C169.114 28.9567 169.071 29 168.984 29H168.321C168.235 29 168.191 28.9567 168.191 28.87V28.337C168.191 28.3197 168.183 28.3067 168.165 28.298C168.157 28.2893 168.144 28.2937 168.126 28.311C167.91 28.571 167.628 28.7703 167.281 28.909C166.935 29.039 166.549 29.104 166.124 29.104C165.509 29.104 164.993 28.948 164.577 28.636C164.161 28.324 163.953 27.8473 163.953 27.206C163.953 26.556 164.187 26.0447 164.655 25.672C165.132 25.2907 165.791 25.1 166.631 25.1H168.139C168.174 25.1 168.191 25.0827 168.191 25.048V24.554C168.191 24.112 168.066 23.7653 167.814 23.514C167.572 23.254 167.19 23.124 166.67 23.124C166.254 23.124 165.916 23.2063 165.656 23.371C165.396 23.527 165.236 23.748 165.175 24.034C165.149 24.1207 165.097 24.1597 165.019 24.151L164.317 24.06C164.222 24.0427 164.183 24.008 164.2 23.956C164.27 23.4707 164.53 23.0763 164.98 22.773C165.431 22.4697 165.994 22.318 166.67 22.318ZM166.306 28.311C166.818 28.311 167.26 28.1853 167.632 27.934C168.005 27.674 168.191 27.3273 168.191 26.894V25.88C168.191 25.8453 168.174 25.828 168.139 25.828H166.774C166.202 25.828 165.743 25.945 165.396 26.179C165.05 26.413 164.876 26.738 164.876 27.154C164.876 27.5353 165.006 27.8257 165.266 28.025C165.535 28.2157 165.882 28.311 166.306 28.311ZM173.518 29.104C172.894 29.104 172.357 28.9437 171.906 28.623C171.464 28.2937 171.161 27.8517 170.996 27.297C170.883 26.9157 170.827 26.3783 170.827 25.685C170.827 25.061 170.883 24.5323 170.996 24.099C171.152 23.5617 171.455 23.1327 171.906 22.812C172.357 22.4827 172.894 22.318 173.518 22.318C174.151 22.318 174.697 22.4783 175.156 22.799C175.624 23.1197 175.927 23.5183 176.066 23.995C176.109 24.151 176.135 24.281 176.144 24.385V24.411C176.144 24.4717 176.105 24.5107 176.027 24.528L175.377 24.619H175.351C175.29 24.619 175.251 24.58 175.234 24.502L175.195 24.307C175.117 23.9777 174.926 23.7003 174.623 23.475C174.32 23.241 173.951 23.124 173.518 23.124C173.085 23.124 172.721 23.241 172.426 23.475C172.14 23.7003 171.954 24.0037 171.867 24.385C171.789 24.7143 171.75 25.152 171.75 25.698C171.75 26.27 171.789 26.712 171.867 27.024C171.954 27.414 172.14 27.726 172.426 27.96C172.721 28.1853 173.085 28.298 173.518 28.298C173.943 28.298 174.307 28.1897 174.61 27.973C174.922 27.7477 175.117 27.4617 175.195 27.115V27.063L175.208 27.011C175.217 26.9243 175.269 26.8897 175.364 26.907L176.001 27.011C176.088 27.0283 176.127 27.076 176.118 27.154L176.066 27.414C175.936 27.9167 175.637 28.324 175.169 28.636C174.701 28.948 174.151 29.104 173.518 29.104ZM178.413 21.226C178.205 21.226 178.032 21.1567 177.893 21.018C177.754 20.8793 177.685 20.706 177.685 20.498C177.685 20.2813 177.754 20.108 177.893 19.978C178.032 19.8393 178.205 19.77 178.413 19.77C178.621 19.77 178.794 19.8393 178.933 19.978C179.072 20.108 179.141 20.2813 179.141 20.498C179.141 20.706 179.072 20.8793 178.933 21.018C178.794 21.1567 178.621 21.226 178.413 21.226ZM178.049 28.987C177.962 28.987 177.919 28.9437 177.919 28.857V22.539C177.919 22.4523 177.962 22.409 178.049 22.409H178.712C178.799 22.409 178.842 22.4523 178.842 22.539V28.857C178.842 28.9437 178.799 28.987 178.712 28.987H178.049ZM183.612 29.104C182.988 29.104 182.45 28.9437 182 28.623C181.549 28.3023 181.237 27.8603 181.064 27.297C180.942 26.8983 180.882 26.3653 180.882 25.698C180.882 25.0307 180.942 24.502 181.064 24.112C181.228 23.5573 181.536 23.1197 181.987 22.799C182.437 22.4783 182.983 22.318 183.625 22.318C184.24 22.318 184.769 22.4783 185.211 22.799C185.661 23.1197 185.969 23.553 186.134 24.099C186.255 24.4717 186.316 25.0047 186.316 25.698C186.316 26.4 186.255 26.933 186.134 27.297C185.969 27.8603 185.661 28.3023 185.211 28.623C184.769 28.9437 184.236 29.104 183.612 29.104ZM183.612 28.298C184.028 28.298 184.383 28.1853 184.678 27.96C184.972 27.726 185.172 27.414 185.276 27.024C185.354 26.712 185.393 26.2743 185.393 25.711C185.393 25.139 185.358 24.7013 185.289 24.398C185.185 24.008 184.981 23.7003 184.678 23.475C184.383 23.241 184.023 23.124 183.599 23.124C183.174 23.124 182.814 23.241 182.52 23.475C182.225 23.7003 182.026 24.008 181.922 24.398C181.852 24.7013 181.818 25.139 181.818 25.711C181.818 26.283 181.852 26.7207 181.922 27.024C182.017 27.414 182.212 27.726 182.507 27.96C182.81 28.1853 183.178 28.298 183.612 28.298ZM183.118 21.564C183.066 21.564 183.031 21.551 183.014 21.525C182.996 21.4903 183.001 21.4513 183.027 21.408L183.807 19.991C183.833 19.9303 183.885 19.9 183.963 19.9H184.548C184.6 19.9 184.63 19.9173 184.639 19.952C184.656 19.978 184.652 20.0127 184.626 20.056L183.742 21.473C183.698 21.5337 183.646 21.564 183.586 21.564H183.118ZM190.802 22.331C191.496 22.331 192.046 22.5347 192.453 22.942C192.869 23.3493 193.077 23.8953 193.077 24.58V28.87C193.077 28.9567 193.034 29 192.947 29H192.284C192.198 29 192.154 28.9567 192.154 28.87V24.762C192.154 24.2853 192.007 23.8953 191.712 23.592C191.426 23.2887 191.054 23.137 190.594 23.137C190.118 23.137 189.732 23.2843 189.437 23.579C189.143 23.8737 188.995 24.2593 188.995 24.736V28.87C188.995 28.9567 188.952 29 188.865 29H188.202C188.116 29 188.072 28.9567 188.072 28.87V22.552C188.072 22.4653 188.116 22.422 188.202 22.422H188.865C188.952 22.422 188.995 22.4653 188.995 22.552V23.111C188.995 23.1283 189 23.1413 189.008 23.15C189.026 23.1587 189.039 23.1543 189.047 23.137C189.429 22.5997 190.014 22.331 190.802 22.331ZM196.237 24.45C196.02 24.45 195.843 24.3807 195.704 24.242C195.574 24.1033 195.509 23.93 195.509 23.722C195.509 23.5053 195.574 23.332 195.704 23.202C195.843 23.0633 196.02 22.994 196.237 22.994C196.445 22.994 196.618 23.0633 196.757 23.202C196.896 23.332 196.965 23.5053 196.965 23.722C196.965 23.93 196.896 24.1033 196.757 24.242C196.618 24.3807 196.445 24.45 196.237 24.45ZM196.237 28.831C196.02 28.831 195.843 28.7617 195.704 28.623C195.574 28.4843 195.509 28.311 195.509 28.103C195.509 27.8863 195.574 27.713 195.704 27.583C195.843 27.4443 196.02 27.375 196.237 27.375C196.445 27.375 196.618 27.4443 196.757 27.583C196.896 27.713 196.965 27.8863 196.965 28.103C196.965 28.311 196.896 28.4843 196.757 28.623C196.618 28.7617 196.445 28.831 196.237 28.831ZM149.797 37.671C149.971 38.087 150.057 38.5637 150.057 39.101C150.057 39.5863 149.984 40.0153 149.836 40.388C149.637 40.934 149.308 41.3587 148.848 41.662C148.389 41.9567 147.834 42.104 147.184 42.104C146.543 42.104 145.984 41.9437 145.507 41.623C145.039 41.2937 144.706 40.8517 144.506 40.297C144.402 40.0283 144.342 39.6773 144.324 39.244C144.324 39.14 144.376 39.088 144.48 39.088H145.689C145.793 39.088 145.845 39.14 145.845 39.244C145.863 39.5213 145.906 39.7423 145.975 39.907C146.053 40.1843 146.196 40.4053 146.404 40.57C146.621 40.726 146.881 40.804 147.184 40.804C147.756 40.804 148.151 40.544 148.367 40.024C148.48 39.7727 148.536 39.4477 148.536 39.049C148.536 38.607 148.471 38.243 148.341 37.957C148.116 37.4717 147.726 37.229 147.171 37.229C147.024 37.229 146.825 37.3157 146.573 37.489C146.539 37.5063 146.508 37.515 146.482 37.515C146.439 37.515 146.396 37.489 146.352 37.437L145.754 36.605C145.728 36.5617 145.715 36.527 145.715 36.501C145.715 36.4577 145.733 36.4187 145.767 36.384L147.912 34.278C147.93 34.2607 147.934 34.2433 147.925 34.226C147.917 34.2087 147.899 34.2 147.873 34.2H144.623C144.58 34.2 144.541 34.187 144.506 34.161C144.48 34.1263 144.467 34.0873 144.467 34.044V33.056C144.467 33.0127 144.48 32.978 144.506 32.952C144.541 32.9173 144.58 32.9 144.623 32.9H149.81C149.854 32.9 149.888 32.9173 149.914 32.952C149.949 32.978 149.966 33.0127 149.966 33.056V34.187C149.966 34.265 149.94 34.33 149.888 34.382L148.029 36.254C147.995 36.2887 148.012 36.3147 148.081 36.332C148.887 36.4447 149.459 36.891 149.797 37.671ZM157.317 35.253C158.019 35.253 158.578 35.461 158.994 35.877C159.419 36.293 159.631 36.8607 159.631 37.58V41.844C159.631 41.8873 159.614 41.9263 159.579 41.961C159.553 41.987 159.519 42 159.475 42H158.279C158.236 42 158.197 41.987 158.162 41.961C158.136 41.9263 158.123 41.8873 158.123 41.844V37.892C158.123 37.4933 158.011 37.1727 157.785 36.93C157.56 36.6787 157.261 36.553 156.888 36.553C156.516 36.553 156.212 36.6743 155.978 36.917C155.753 37.1597 155.64 37.4803 155.64 37.879V41.844C155.64 41.8873 155.623 41.9263 155.588 41.961C155.562 41.987 155.528 42 155.484 42H154.288C154.245 42 154.206 41.987 154.171 41.961C154.145 41.9263 154.132 41.8873 154.132 41.844V33.056C154.132 33.0127 154.145 32.978 154.171 32.952C154.206 32.9173 154.245 32.9 154.288 32.9H155.484C155.528 32.9 155.562 32.9173 155.588 32.952C155.623 32.978 155.64 33.0127 155.64 33.056V35.929C155.64 35.955 155.649 35.9723 155.666 35.981C155.684 35.9897 155.697 35.981 155.705 35.955C156.061 35.487 156.598 35.253 157.317 35.253ZM163.974 42.104C163.289 42.104 162.7 41.9307 162.206 41.584C161.72 41.2373 161.378 40.7563 161.179 40.141C161.031 39.673 160.958 39.179 160.958 38.659C160.958 38.1043 161.027 37.6103 161.166 37.177C161.365 36.5703 161.712 36.098 162.206 35.76C162.7 35.422 163.293 35.253 163.987 35.253C164.645 35.253 165.213 35.422 165.69 35.76C166.175 36.098 166.517 36.566 166.717 37.164C166.873 37.58 166.951 38.074 166.951 38.646C166.951 39.192 166.877 39.686 166.73 40.128C166.53 40.7433 166.188 41.2287 165.703 41.584C165.217 41.9307 164.641 42.104 163.974 42.104ZM163.974 40.804C164.294 40.804 164.567 40.713 164.793 40.531C165.027 40.349 165.196 40.0933 165.3 39.764C165.386 39.478 165.43 39.114 165.43 38.672C165.43 38.204 165.386 37.84 165.3 37.58C165.204 37.2507 165.04 36.9993 164.806 36.826C164.572 36.644 164.286 36.553 163.948 36.553C163.627 36.553 163.35 36.644 163.116 36.826C162.882 36.9993 162.713 37.2507 162.609 37.58C162.522 37.8833 162.479 38.2473 162.479 38.672C162.479 39.0967 162.522 39.4607 162.609 39.764C162.704 40.0933 162.869 40.349 163.103 40.531C163.345 40.713 163.636 40.804 163.974 40.804ZM171.47 35.279C171.748 35.279 171.99 35.3353 172.198 35.448C172.268 35.4827 172.294 35.5477 172.276 35.643L172.055 36.813C172.047 36.917 171.986 36.9473 171.873 36.904C171.743 36.8607 171.592 36.839 171.418 36.839C171.306 36.839 171.219 36.8433 171.158 36.852C170.794 36.8693 170.491 36.9993 170.248 37.242C170.006 37.476 169.884 37.7837 169.884 38.165V41.844C169.884 41.8873 169.867 41.9263 169.832 41.961C169.806 41.987 169.772 42 169.728 42H168.532C168.489 42 168.45 41.987 168.415 41.961C168.389 41.9263 168.376 41.8873 168.376 41.844V35.513C168.376 35.4697 168.389 35.435 168.415 35.409C168.45 35.3743 168.489 35.357 168.532 35.357H169.728C169.772 35.357 169.806 35.3743 169.832 35.409C169.867 35.435 169.884 35.4697 169.884 35.513V36.098C169.884 36.1327 169.889 36.1543 169.897 36.163C169.915 36.163 169.932 36.15 169.949 36.124C170.313 35.5607 170.82 35.279 171.47 35.279ZM175.736 35.253C176.282 35.253 176.763 35.3483 177.179 35.539C177.595 35.7297 177.915 35.994 178.141 36.332C178.366 36.6613 178.479 37.0383 178.479 37.463V41.844C178.479 41.8873 178.461 41.9263 178.427 41.961C178.401 41.987 178.366 42 178.323 42H177.127C177.083 42 177.044 41.987 177.01 41.961C176.984 41.9263 176.971 41.8873 176.971 41.844V41.428C176.971 41.402 176.962 41.389 176.945 41.389C176.927 41.3803 176.91 41.3847 176.893 41.402C176.468 41.87 175.853 42.104 175.047 42.104C174.397 42.104 173.859 41.9393 173.435 41.61C173.019 41.2807 172.811 40.791 172.811 40.141C172.811 39.465 173.045 38.9407 173.513 38.568C173.989 38.1867 174.657 37.996 175.515 37.996H176.906C176.949 37.996 176.971 37.9743 176.971 37.931V37.619C176.971 37.281 176.871 37.021 176.672 36.839C176.472 36.6483 176.173 36.553 175.775 36.553C175.445 36.553 175.177 36.6137 174.969 36.735C174.769 36.8477 174.644 37.008 174.592 37.216C174.566 37.32 174.505 37.3633 174.41 37.346L173.149 37.19C173.105 37.1813 173.066 37.1683 173.032 37.151C173.006 37.125 172.997 37.0947 173.006 37.06C173.075 36.5313 173.357 36.098 173.851 35.76C174.353 35.422 174.982 35.253 175.736 35.253ZM175.424 40.908C175.848 40.908 176.212 40.7953 176.516 40.57C176.819 40.3447 176.971 40.0587 176.971 39.712V39.101C176.971 39.0577 176.949 39.036 176.906 39.036H175.814C175.354 39.036 174.99 39.1227 174.722 39.296C174.462 39.4693 174.332 39.7163 174.332 40.037C174.332 40.3143 174.431 40.531 174.631 40.687C174.839 40.8343 175.103 40.908 175.424 40.908ZM182.463 42.078C181.917 42.078 181.436 42 181.02 41.844C180.612 41.6793 180.296 41.4583 180.071 41.181C179.845 40.895 179.733 40.5787 179.733 40.232V40.115C179.733 40.0717 179.746 40.037 179.772 40.011C179.806 39.9763 179.845 39.959 179.889 39.959H181.033C181.076 39.959 181.111 39.9763 181.137 40.011C181.171 40.037 181.189 40.0717 181.189 40.115V40.141C181.189 40.3577 181.306 40.5483 181.54 40.713C181.782 40.869 182.086 40.947 182.45 40.947C182.796 40.947 183.078 40.8777 183.295 40.739C183.511 40.5917 183.62 40.4097 183.62 40.193C183.62 39.9937 183.529 39.8463 183.347 39.751C183.173 39.647 182.887 39.5387 182.489 39.426L181.995 39.27C181.553 39.14 181.18 39.0013 180.877 38.854C180.573 38.7067 180.318 38.5073 180.11 38.256C179.902 37.996 179.798 37.6667 179.798 37.268C179.798 36.6613 180.036 36.1803 180.513 35.825C180.989 35.461 181.618 35.279 182.398 35.279C182.926 35.279 183.39 35.3657 183.789 35.539C184.187 35.7037 184.495 35.9377 184.712 36.241C184.928 36.5357 185.037 36.8737 185.037 37.255C185.037 37.2983 185.019 37.3373 184.985 37.372C184.959 37.398 184.924 37.411 184.881 37.411H183.776C183.732 37.411 183.693 37.398 183.659 37.372C183.633 37.3373 183.62 37.2983 183.62 37.255C183.62 37.0297 183.507 36.8433 183.282 36.696C183.065 36.54 182.766 36.462 182.385 36.462C182.047 36.462 181.769 36.527 181.553 36.657C181.345 36.7783 181.241 36.9517 181.241 37.177C181.241 37.385 181.34 37.5453 181.54 37.658C181.748 37.762 182.09 37.879 182.567 38.009L182.853 38.087C183.312 38.2257 183.698 38.3687 184.01 38.516C184.322 38.6547 184.586 38.854 184.803 39.114C185.019 39.3653 185.128 39.6947 185.128 40.102C185.128 40.7173 184.885 41.2027 184.4 41.558C183.914 41.9047 183.269 42.078 182.463 42.078Z" fill="#010101"/>
<path d="M251.019 29C250.932 29 250.889 28.9567 250.889 28.87V20.03C250.889 19.9433 250.932 19.9 251.019 19.9H251.682C251.769 19.9 251.812 19.9433 251.812 20.03V28.87C251.812 28.9567 251.769 29 251.682 29H251.019ZM256.801 22.331C257.495 22.331 258.045 22.5347 258.452 22.942C258.868 23.3493 259.076 23.8953 259.076 24.58V28.87C259.076 28.9567 259.033 29 258.946 29H258.283C258.197 29 258.153 28.9567 258.153 28.87V24.762C258.153 24.2853 258.006 23.8953 257.711 23.592C257.425 23.2887 257.053 23.137 256.593 23.137C256.117 23.137 255.731 23.2843 255.436 23.579C255.142 23.8737 254.994 24.2593 254.994 24.736V28.87C254.994 28.9567 254.951 29 254.864 29H254.201C254.115 29 254.071 28.9567 254.071 28.87V22.552C254.071 22.4653 254.115 22.422 254.201 22.422H254.864C254.951 22.422 254.994 22.4653 254.994 22.552V23.111C254.994 23.1283 254.999 23.1413 255.007 23.15C255.025 23.1587 255.038 23.1543 255.046 23.137C255.428 22.5997 256.013 22.331 256.801 22.331ZM261.703 21.226C261.495 21.226 261.322 21.1567 261.183 21.018C261.044 20.8793 260.975 20.706 260.975 20.498C260.975 20.2813 261.044 20.108 261.183 19.978C261.322 19.8393 261.495 19.77 261.703 19.77C261.911 19.77 262.084 19.8393 262.223 19.978C262.362 20.108 262.431 20.2813 262.431 20.498C262.431 20.706 262.362 20.8793 262.223 21.018C262.084 21.1567 261.911 21.226 261.703 21.226ZM261.339 28.987C261.252 28.987 261.209 28.9437 261.209 28.857V22.539C261.209 22.4523 261.252 22.409 261.339 22.409H262.002C262.089 22.409 262.132 22.4523 262.132 22.539V28.857C262.132 28.9437 262.089 28.987 262.002 28.987H261.339ZM266.876 29.104C266.252 29.104 265.714 28.9437 265.264 28.623C264.822 28.2937 264.518 27.8517 264.354 27.297C264.241 26.9157 264.185 26.3783 264.185 25.685C264.185 25.061 264.241 24.5323 264.354 24.099C264.51 23.5617 264.813 23.1327 265.264 22.812C265.714 22.4827 266.252 22.318 266.876 22.318C267.508 22.318 268.054 22.4783 268.514 22.799C268.982 23.1197 269.285 23.5183 269.424 23.995C269.467 24.151 269.493 24.281 269.502 24.385V24.411C269.502 24.4717 269.463 24.5107 269.385 24.528L268.735 24.619H268.709C268.648 24.619 268.609 24.58 268.592 24.502L268.553 24.307C268.475 23.9777 268.284 23.7003 267.981 23.475C267.677 23.241 267.309 23.124 266.876 23.124C266.442 23.124 266.078 23.241 265.784 23.475C265.498 23.7003 265.311 24.0037 265.225 24.385C265.147 24.7143 265.108 25.152 265.108 25.698C265.108 26.27 265.147 26.712 265.225 27.024C265.311 27.414 265.498 27.726 265.784 27.96C266.078 28.1853 266.442 28.298 266.876 28.298C267.3 28.298 267.664 28.1897 267.968 27.973C268.28 27.7477 268.475 27.4617 268.553 27.115V27.063L268.566 27.011C268.574 26.9243 268.626 26.8897 268.722 26.907L269.359 27.011C269.445 27.0283 269.484 27.076 269.476 27.154L269.424 27.414C269.294 27.9167 268.995 28.324 268.527 28.636C268.059 28.948 267.508 29.104 266.876 29.104ZM271.77 21.226C271.562 21.226 271.389 21.1567 271.25 21.018C271.112 20.8793 271.042 20.706 271.042 20.498C271.042 20.2813 271.112 20.108 271.25 19.978C271.389 19.8393 271.562 19.77 271.77 19.77C271.978 19.77 272.152 19.8393 272.29 19.978C272.429 20.108 272.498 20.2813 272.498 20.498C272.498 20.706 272.429 20.8793 272.29 21.018C272.152 21.1567 271.978 21.226 271.77 21.226ZM271.406 28.987C271.32 28.987 271.276 28.9437 271.276 28.857V22.539C271.276 22.4523 271.32 22.409 271.406 22.409H272.069C272.156 22.409 272.199 22.4523 272.199 22.539V28.857C272.199 28.9437 272.156 28.987 272.069 28.987H271.406ZM276.735 22.318C277.515 22.318 278.117 22.5173 278.542 22.916C278.967 23.3147 279.179 23.8433 279.179 24.502V28.87C279.179 28.9567 279.136 29 279.049 29H278.386C278.299 29 278.256 28.9567 278.256 28.87V28.337C278.256 28.3197 278.247 28.3067 278.23 28.298C278.221 28.2893 278.208 28.2937 278.191 28.311C277.974 28.571 277.693 28.7703 277.346 28.909C276.999 29.039 276.614 29.104 276.189 29.104C275.574 29.104 275.058 28.948 274.642 28.636C274.226 28.324 274.018 27.8473 274.018 27.206C274.018 26.556 274.252 26.0447 274.72 25.672C275.197 25.2907 275.855 25.1 276.696 25.1H278.204C278.239 25.1 278.256 25.0827 278.256 25.048V24.554C278.256 24.112 278.13 23.7653 277.879 23.514C277.636 23.254 277.255 23.124 276.735 23.124C276.319 23.124 275.981 23.2063 275.721 23.371C275.461 23.527 275.301 23.748 275.24 24.034C275.214 24.1207 275.162 24.1597 275.084 24.151L274.382 24.06C274.287 24.0427 274.248 24.008 274.265 23.956C274.334 23.4707 274.594 23.0763 275.045 22.773C275.496 22.4697 276.059 22.318 276.735 22.318ZM276.371 28.311C276.882 28.311 277.324 28.1853 277.697 27.934C278.07 27.674 278.256 27.3273 278.256 26.894V25.88C278.256 25.8453 278.239 25.828 278.204 25.828H276.839C276.267 25.828 275.808 25.945 275.461 26.179C275.114 26.413 274.941 26.738 274.941 27.154C274.941 27.5353 275.071 27.8257 275.331 28.025C275.6 28.2157 275.946 28.311 276.371 28.311ZM282.257 24.45C282.04 24.45 281.862 24.3807 281.724 24.242C281.594 24.1033 281.529 23.93 281.529 23.722C281.529 23.5053 281.594 23.332 281.724 23.202C281.862 23.0633 282.04 22.994 282.257 22.994C282.465 22.994 282.638 23.0633 282.777 23.202C282.915 23.332 282.985 23.5053 282.985 23.722C282.985 23.93 282.915 24.1033 282.777 24.242C282.638 24.3807 282.465 24.45 282.257 24.45ZM282.257 28.831C282.04 28.831 281.862 28.7617 281.724 28.623C281.594 28.4843 281.529 28.311 281.529 28.103C281.529 27.8863 281.594 27.713 281.724 27.583C281.862 27.4443 282.04 27.375 282.257 27.375C282.465 27.375 282.638 27.4443 282.777 27.583C282.915 27.713 282.985 27.8863 282.985 28.103C282.985 28.311 282.915 28.4843 282.777 28.623C282.638 28.7617 282.465 28.831 282.257 28.831ZM253.346 42.143C252.436 42.143 251.712 41.8873 251.175 41.376C250.646 40.856 250.382 40.1583 250.382 39.283V35.617C250.382 34.7503 250.646 34.0657 251.175 33.563C251.712 33.0517 252.436 32.796 253.346 32.796C254.256 32.796 254.98 33.0517 255.517 33.563C256.063 34.0657 256.336 34.7503 256.336 35.617V39.283C256.336 40.1583 256.063 40.856 255.517 41.376C254.98 41.8873 254.256 42.143 253.346 42.143ZM253.346 40.83C253.797 40.83 254.156 40.7 254.425 40.44C254.694 40.1713 254.828 39.8117 254.828 39.361V35.565C254.828 35.1143 254.694 34.759 254.425 34.499C254.156 34.2303 253.797 34.096 253.346 34.096C252.904 34.096 252.549 34.2303 252.28 34.499C252.02 34.759 251.89 35.1143 251.89 35.565V39.361C251.89 39.8117 252.02 40.1713 252.28 40.44C252.549 40.7 252.904 40.83 253.346 40.83ZM263.049 34.512C263.187 34.876 263.257 35.3007 263.257 35.786V39.751C263.257 40.219 263.14 40.6307 262.906 40.986C262.672 41.3413 262.342 41.6187 261.918 41.818C261.502 42.0087 261.021 42.104 260.475 42.104C259.946 42.104 259.474 42.0087 259.058 41.818C258.65 41.6273 258.33 41.3587 258.096 41.012C257.87 40.6653 257.758 40.2667 257.758 39.816V39.53C257.758 39.4867 257.771 39.452 257.797 39.426C257.831 39.3913 257.87 39.374 257.914 39.374H259.11C259.153 39.374 259.188 39.3913 259.214 39.426C259.248 39.452 259.266 39.4867 259.266 39.53V39.621C259.266 39.9677 259.378 40.2537 259.604 40.479C259.829 40.6957 260.119 40.804 260.475 40.804C260.847 40.804 261.151 40.6913 261.385 40.466C261.627 40.232 261.749 39.933 261.749 39.569V38.139C261.749 38.113 261.74 38.0957 261.723 38.087C261.705 38.0783 261.688 38.0827 261.671 38.1C261.298 38.464 260.791 38.646 260.15 38.646C259.638 38.646 259.188 38.5377 258.798 38.321C258.416 38.1043 258.117 37.7923 257.901 37.385C257.658 36.9517 257.537 36.4143 257.537 35.773C257.537 35.2443 257.623 34.7807 257.797 34.382C258.005 33.888 258.334 33.5023 258.785 33.225C259.235 32.9477 259.768 32.809 260.384 32.809C261.034 32.809 261.588 32.9607 262.048 33.264C262.516 33.5587 262.849 33.9747 263.049 34.512ZM261.541 36.722C261.679 36.4447 261.749 36.1067 261.749 35.708C261.749 35.3787 261.692 35.0883 261.58 34.837C261.372 34.3603 260.982 34.122 260.41 34.122C259.855 34.122 259.465 34.356 259.24 34.824C259.11 35.11 259.045 35.4177 259.045 35.747C259.045 36.137 259.123 36.4707 259.279 36.748C259.521 37.164 259.894 37.372 260.397 37.372C260.934 37.372 261.315 37.1553 261.541 36.722ZM266.199 37.606C265.93 37.606 265.709 37.5193 265.536 37.346C265.363 37.1727 265.276 36.9517 265.276 36.683C265.276 36.4143 265.363 36.1933 265.536 36.02C265.709 35.8467 265.93 35.76 266.199 35.76C266.468 35.76 266.684 35.8467 266.849 36.02C267.022 36.1933 267.109 36.4143 267.109 36.683C267.109 36.9517 267.022 37.1727 266.849 37.346C266.676 37.5193 266.459 37.606 266.199 37.606ZM266.199 41.896C265.93 41.896 265.709 41.8093 265.536 41.636C265.363 41.4627 265.276 41.2417 265.276 40.973C265.276 40.7043 265.363 40.4833 265.536 40.31C265.709 40.1367 265.93 40.05 266.199 40.05C266.468 40.05 266.684 40.1367 266.849 40.31C267.022 40.4833 267.109 40.7043 267.109 40.973C267.109 41.2417 267.022 41.4627 266.849 41.636C266.676 41.8093 266.459 41.896 266.199 41.896ZM272.211 42.143C271.301 42.143 270.578 41.8873 270.04 41.376C269.512 40.856 269.247 40.1583 269.247 39.283V35.617C269.247 34.7503 269.512 34.0657 270.04 33.563C270.578 33.0517 271.301 32.796 272.211 32.796C273.121 32.796 273.845 33.0517 274.382 33.563C274.928 34.0657 275.201 34.7503 275.201 35.617V39.283C275.201 40.1583 274.928 40.856 274.382 41.376C273.845 41.8873 273.121 42.143 272.211 42.143ZM272.211 40.83C272.662 40.83 273.022 40.7 273.29 40.44C273.559 40.1713 273.693 39.8117 273.693 39.361V35.565C273.693 35.1143 273.559 34.759 273.29 34.499C273.022 34.2303 272.662 34.096 272.211 34.096C271.769 34.096 271.414 34.2303 271.145 34.499C270.885 34.759 270.755 35.1143 270.755 35.565V39.361C270.755 39.8117 270.885 40.1713 271.145 40.44C271.414 40.7 271.769 40.83 272.211 40.83ZM279.6 42.143C278.69 42.143 277.966 41.8873 277.429 41.376C276.9 40.856 276.636 40.1583 276.636 39.283V35.617C276.636 34.7503 276.9 34.0657 277.429 33.563C277.966 33.0517 278.69 32.796 279.6 32.796C280.51 32.796 281.234 33.0517 281.771 33.563C282.317 34.0657 282.59 34.7503 282.59 35.617V39.283C282.59 40.1583 282.317 40.856 281.771 41.376C281.234 41.8873 280.51 42.143 279.6 42.143ZM279.6 40.83C280.051 40.83 280.41 40.7 280.679 40.44C280.948 40.1713 281.082 39.8117 281.082 39.361V35.565C281.082 35.1143 280.948 34.759 280.679 34.499C280.41 34.2303 280.051 34.096 279.6 34.096C279.158 34.096 278.803 34.2303 278.534 34.499C278.274 34.759 278.144 35.1143 278.144 35.565V39.361C278.144 39.8117 278.274 40.1713 278.534 40.44C278.803 40.7 279.158 40.83 279.6 40.83ZM292.503 42C292.416 42 292.36 41.9567 292.334 41.87L291.905 40.479C291.888 40.4443 291.866 40.427 291.84 40.427H288.408C288.382 40.427 288.36 40.4443 288.343 40.479L287.914 41.87C287.888 41.9567 287.832 42 287.745 42H286.445C286.393 42 286.354 41.987 286.328 41.961C286.302 41.9263 286.298 41.8787 286.315 41.818L289.136 33.03C289.162 32.9433 289.218 32.9 289.305 32.9H290.93C291.017 32.9 291.073 32.9433 291.099 33.03L293.933 41.818C293.942 41.8353 293.946 41.857 293.946 41.883C293.946 41.961 293.898 42 293.803 42H292.503ZM288.746 39.166C288.737 39.218 288.755 39.244 288.798 39.244H291.437C291.489 39.244 291.506 39.218 291.489 39.166L290.15 34.811C290.141 34.7763 290.128 34.759 290.111 34.759C290.094 34.759 290.081 34.7763 290.072 34.811L288.746 39.166ZM301.154 33.004C301.197 32.9347 301.258 32.9 301.336 32.9H302.532C302.575 32.9 302.61 32.9173 302.636 32.952C302.67 32.978 302.688 33.0127 302.688 33.056V41.844C302.688 41.8873 302.67 41.9263 302.636 41.961C302.61 41.987 302.575 42 302.532 42H301.336C301.292 42 301.253 41.987 301.219 41.961C301.193 41.9263 301.18 41.8873 301.18 41.844V35.643C301.18 35.617 301.167 35.5997 301.141 35.591C301.123 35.5823 301.11 35.591 301.102 35.617L299.477 38.113C299.433 38.1823 299.373 38.217 299.295 38.217H298.697C298.619 38.217 298.558 38.1823 298.515 38.113L296.877 35.63C296.868 35.604 296.851 35.5953 296.825 35.604C296.807 35.6127 296.799 35.63 296.799 35.656V41.844C296.799 41.8873 296.781 41.9263 296.747 41.961C296.721 41.987 296.686 42 296.643 42H295.447C295.403 42 295.364 41.987 295.33 41.961C295.304 41.9263 295.291 41.8873 295.291 41.844V33.056C295.291 33.0127 295.304 32.978 295.33 32.952C295.364 32.9173 295.403 32.9 295.447 32.9H296.643C296.721 32.9 296.781 32.9347 296.825 33.004L298.944 36.215C298.961 36.2323 298.978 36.241 298.996 36.241C299.013 36.241 299.026 36.2323 299.035 36.215L301.154 33.004Z" fill="#010101"/>
<path fill-rule="evenodd" clip-rule="evenodd" d="M237.703 20C234.823 20 232.489 22.3505 232.489 25.25C232.489 28.1495 234.823 30.5 237.703 30.5C240.582 30.5 242.916 28.1495 242.916 25.25C242.916 22.3505 240.582 20 237.703 20ZM231 25.25C231 21.5221 234.001 18.5 237.703 18.5C241.404 18.5 244.405 21.5221 244.405 25.25C244.405 28.9779 241.404 32 237.703 32C234.001 32 231 28.9779 231 25.25Z" fill="#010101"/>
<path fill-rule="evenodd" clip-rule="evenodd" d="M237.703 21.5C238.114 21.5 238.448 21.8358 238.448 22.25V24.9393L239.719 26.2197C240.01 26.5126 240.01 26.9874 239.719 27.2803C239.428 27.5732 238.957 27.5732 238.666 27.2803L237.176 25.7803C237.037 25.6397 236.958 25.4489 236.958 25.25V22.25C236.958 21.8358 237.292 21.5 237.703 21.5Z" fill="#010101"/>
<path d="M232.192 19.475C231.863 19.7236 231.396 19.6564 231.149 19.325C230.902 18.9937 230.969 18.5236 231.298 18.275L232.787 17.15C233.116 16.9015 233.583 16.9687 233.83 17.3C234.077 17.6314 234.01 18.1015 233.681 18.35L232.192 19.475Z" fill="#010101"/>
<path d="M242.618 17.1501C242.289 16.9016 241.822 16.9688 241.575 17.3001C241.329 17.6315 241.395 18.1016 241.724 18.3501L243.214 19.4751C243.543 19.7237 244.01 19.6565 244.256 19.3251C244.503 18.9938 244.436 18.5237 244.107 18.2751L242.618 17.1501Z" fill="#010101"/>
<path fill-rule="evenodd" clip-rule="evenodd" d="M341.966 27.5C340.658 27.5 339.597 28.5074 339.597 29.75C339.597 30.1642 339.951 30.5 340.387 30.5H345.124C345.56 30.5 345.913 30.8358 345.913 31.25C345.913 31.6642 345.56 32 345.124 32H340.387C339.079 32 338.019 30.9926 338.019 29.75C338.019 27.6789 339.786 26 341.966 26H347.492C347.928 26 348.281 26.3358 348.281 26.75C348.281 27.1642 347.928 27.5 347.492 27.5H341.966Z" fill="#010101"/>
<path fill-rule="evenodd" clip-rule="evenodd" d="M344.334 18.5C343.026 18.5 341.966 19.5074 341.966 20.75C341.966 21.9926 343.026 23 344.334 23C345.642 23 346.702 21.9926 346.702 20.75C346.702 19.5074 345.642 18.5 344.334 18.5ZM340.387 20.75C340.387 18.6789 342.154 17 344.334 17C346.514 17 348.281 18.6789 348.281 20.75C348.281 22.8211 346.514 24.5 344.334 24.5C342.154 24.5 340.387 22.8211 340.387 20.75Z" fill="#010101"/>
<path fill-rule="evenodd" clip-rule="evenodd" d="M352.787 27.7197C353.096 28.0126 353.096 28.4874 352.787 28.7803L349.63 31.7803C349.321 32.0732 348.822 32.0732 348.513 31.7803L346.934 30.2803C346.626 29.9874 346.626 29.5126 346.934 29.2197C347.243 28.9268 347.742 28.9268 348.051 29.2197L349.071 30.1893L351.671 27.7197C351.979 27.4268 352.479 27.4268 352.787 27.7197Z" fill="#010101"/>
<path d="M365.111 20.576C365.111 20.6627 365.068 20.706 364.981 20.706H360.197C360.162 20.706 360.145 20.7233 360.145 20.758V23.969C360.145 24.0037 360.162 24.021 360.197 24.021H363.551C363.638 24.021 363.681 24.0643 363.681 24.151V24.697C363.681 24.7837 363.638 24.827 363.551 24.827H360.197C360.162 24.827 360.145 24.8443 360.145 24.879V28.142C360.145 28.1767 360.162 28.194 360.197 28.194H364.981C365.068 28.194 365.111 28.2373 365.111 28.324V28.87C365.111 28.9567 365.068 29 364.981 29H359.352C359.265 29 359.222 28.9567 359.222 28.87V20.03C359.222 19.9433 359.265 19.9 359.352 19.9H364.981C365.068 19.9 365.111 19.9433 365.111 20.03V20.576ZM370.993 20.03C370.993 19.9433 371.036 19.9 371.123 19.9H371.786C371.873 19.9 371.916 19.9433 371.916 20.03V28.87C371.916 28.9567 371.873 29 371.786 29H371.123C371.036 29 370.993 28.9567 370.993 28.87V28.324C370.993 28.3067 370.984 28.298 370.967 28.298C370.958 28.2893 370.945 28.2937 370.928 28.311C370.737 28.5623 370.499 28.7573 370.213 28.896C369.936 29.0347 369.624 29.104 369.277 29.104C368.67 29.104 368.159 28.948 367.743 28.636C367.336 28.324 367.054 27.8993 366.898 27.362C366.777 26.972 366.716 26.4217 366.716 25.711C366.716 24.9917 366.768 24.4543 366.872 24.099C367.028 23.5443 367.314 23.111 367.73 22.799C368.146 22.4783 368.662 22.318 369.277 22.318C369.615 22.318 369.927 22.3873 370.213 22.526C370.499 22.656 370.737 22.8467 370.928 23.098C370.945 23.1153 370.958 23.124 370.967 23.124C370.984 23.1153 370.993 23.1023 370.993 23.085V20.03ZM370.759 27.297C370.837 27.1237 370.893 26.92 370.928 26.686C370.963 26.452 370.98 26.127 370.98 25.711C370.98 25.295 370.963 24.97 370.928 24.736C370.893 24.4933 370.833 24.281 370.746 24.099C370.642 23.8043 370.469 23.5703 370.226 23.397C369.992 23.215 369.71 23.124 369.381 23.124C369.034 23.124 368.735 23.2107 368.484 23.384C368.233 23.5573 368.051 23.787 367.938 24.073C367.834 24.2637 367.756 24.4803 367.704 24.723C367.661 24.957 367.639 25.2863 367.639 25.711C367.639 26.1183 367.656 26.439 367.691 26.673C367.726 26.8983 367.786 27.102 367.873 27.284C367.977 27.596 368.159 27.843 368.419 28.025C368.688 28.207 369.004 28.298 369.368 28.298C369.715 28.298 370.005 28.207 370.239 28.025C370.473 27.843 370.646 27.6003 370.759 27.297ZM376.283 22.318C377.063 22.318 377.665 22.5173 378.09 22.916C378.514 23.3147 378.727 23.8433 378.727 24.502V28.87C378.727 28.9567 378.683 29 378.597 29H377.934C377.847 29 377.804 28.9567 377.804 28.87V28.337C377.804 28.3197 377.795 28.3067 377.778 28.298C377.769 28.2893 377.756 28.2937 377.739 28.311C377.522 28.571 377.24 28.7703 376.894 28.909C376.547 29.039 376.161 29.104 375.737 29.104C375.121 29.104 374.606 28.948 374.19 28.636C373.774 28.324 373.566 27.8473 373.566 27.206C373.566 26.556 373.8 26.0447 374.268 25.672C374.744 25.2907 375.403 25.1 376.244 25.1H377.752C377.786 25.1 377.804 25.0827 377.804 25.048V24.554C377.804 24.112 377.678 23.7653 377.427 23.514C377.184 23.254 376.803 23.124 376.283 23.124C375.867 23.124 375.529 23.2063 375.269 23.371C375.009 23.527 374.848 23.748 374.788 24.034C374.762 24.1207 374.71 24.1597 374.632 24.151L373.93 24.06C373.834 24.0427 373.795 24.008 373.813 23.956C373.882 23.4707 374.142 23.0763 374.593 22.773C375.043 22.4697 375.607 22.318 376.283 22.318ZM375.919 28.311C376.43 28.311 376.872 28.1853 377.245 27.934C377.617 27.674 377.804 27.3273 377.804 26.894V25.88C377.804 25.8453 377.786 25.828 377.752 25.828H376.387C375.815 25.828 375.355 25.945 375.009 26.179C374.662 26.413 374.489 26.738 374.489 27.154C374.489 27.5353 374.619 27.8257 374.879 28.025C375.147 28.2157 375.494 28.311 375.919 28.311ZM384.729 20.03C384.729 19.9433 384.773 19.9 384.859 19.9H385.522C385.609 19.9 385.652 19.9433 385.652 20.03V28.87C385.652 28.9567 385.609 29 385.522 29H384.859C384.773 29 384.729 28.9567 384.729 28.87V28.324C384.729 28.3067 384.721 28.298 384.703 28.298C384.695 28.2893 384.682 28.2937 384.664 28.311C384.474 28.5623 384.235 28.7573 383.949 28.896C383.672 29.0347 383.36 29.104 383.013 29.104C382.407 29.104 381.895 28.948 381.479 28.636C381.072 28.324 380.79 27.8993 380.634 27.362C380.513 26.972 380.452 26.4217 380.452 25.711C380.452 24.9917 380.504 24.4543 380.608 24.099C380.764 23.5443 381.05 23.111 381.466 22.799C381.882 22.4783 382.398 22.318 383.013 22.318C383.351 22.318 383.663 22.3873 383.949 22.526C384.235 22.656 384.474 22.8467 384.664 23.098C384.682 23.1153 384.695 23.124 384.703 23.124C384.721 23.1153 384.729 23.1023 384.729 23.085V20.03ZM384.495 27.297C384.573 27.1237 384.63 26.92 384.664 26.686C384.699 26.452 384.716 26.127 384.716 25.711C384.716 25.295 384.699 24.97 384.664 24.736C384.63 24.4933 384.569 24.281 384.482 24.099C384.378 23.8043 384.205 23.5703 383.962 23.397C383.728 23.215 383.447 23.124 383.117 23.124C382.771 23.124 382.472 23.2107 382.22 23.384C381.969 23.5573 381.787 23.787 381.674 24.073C381.57 24.2637 381.492 24.4803 381.44 24.723C381.397 24.957 381.375 25.2863 381.375 25.711C381.375 26.1183 381.393 26.439 381.427 26.673C381.462 26.8983 381.523 27.102 381.609 27.284C381.713 27.596 381.895 27.843 382.155 28.025C382.424 28.207 382.74 28.298 383.104 28.298C383.451 28.298 383.741 28.207 383.975 28.025C384.209 27.843 384.383 27.6003 384.495 27.297ZM397.003 22.331C397.653 22.331 398.164 22.526 398.537 22.916C398.918 23.306 399.109 23.839 399.109 24.515V28.87C399.109 28.9567 399.065 29 398.979 29H398.329C398.242 29 398.199 28.9567 398.199 28.87V24.697C398.199 24.2203 398.06 23.8433 397.783 23.566C397.514 23.28 397.159 23.137 396.717 23.137C396.257 23.137 395.885 23.2757 395.599 23.553C395.321 23.8303 395.183 24.203 395.183 24.671V28.87C395.183 28.9567 395.139 29 395.053 29H394.39C394.303 29 394.26 28.9567 394.26 28.87V24.697C394.26 24.2203 394.125 23.8433 393.857 23.566C393.588 23.28 393.228 23.137 392.778 23.137C392.318 23.137 391.95 23.2757 391.673 23.553C391.404 23.8303 391.27 24.203 391.27 24.671V28.87C391.27 28.9567 391.226 29 391.14 29H390.477C390.39 29 390.347 28.9567 390.347 28.87V22.552C390.347 22.4653 390.39 22.422 390.477 22.422H391.14C391.226 22.422 391.27 22.4653 391.27 22.552V23.072C391.27 23.0893 391.274 23.1023 391.283 23.111C391.3 23.111 391.317 23.1023 391.335 23.085C391.525 22.8337 391.768 22.6473 392.063 22.526C392.366 22.396 392.7 22.331 393.064 22.331C393.514 22.331 393.9 22.422 394.221 22.604C394.541 22.786 394.784 23.0503 394.949 23.397C394.966 23.4403 394.988 23.4403 395.014 23.397C395.204 23.0417 395.473 22.7773 395.82 22.604C396.166 22.422 396.561 22.331 397.003 22.331ZM401.1 29C401.013 29 400.97 28.9567 400.97 28.87V22.552C400.97 22.4653 401.013 22.422 401.1 22.422H401.763C401.849 22.422 401.893 22.4653 401.893 22.552V28.87C401.893 28.9567 401.849 29 401.763 29H401.1ZM401.009 21.564C400.957 21.564 400.922 21.551 400.905 21.525C400.887 21.4903 400.892 21.4513 400.918 21.408L401.698 19.991C401.724 19.9303 401.776 19.9 401.854 19.9H402.439C402.491 19.9 402.521 19.9173 402.53 19.952C402.547 19.978 402.543 20.0127 402.517 20.056L401.633 21.473C401.589 21.5337 401.537 21.564 401.477 21.564H401.009ZM406.584 22.331C407.278 22.331 407.828 22.5347 408.235 22.942C408.651 23.3493 408.859 23.8953 408.859 24.58V28.87C408.859 28.9567 408.816 29 408.729 29H408.066C407.98 29 407.936 28.9567 407.936 28.87V24.762C407.936 24.2853 407.789 23.8953 407.494 23.592C407.208 23.2887 406.836 23.137 406.376 23.137C405.9 23.137 405.514 23.2843 405.219 23.579C404.925 23.8737 404.777 24.2593 404.777 24.736V28.87C404.777 28.9567 404.734 29 404.647 29H403.984C403.898 29 403.854 28.9567 403.854 28.87V22.552C403.854 22.4653 403.898 22.422 403.984 22.422H404.647C404.734 22.422 404.777 22.4653 404.777 22.552V23.111C404.777 23.1283 404.782 23.1413 404.79 23.15C404.808 23.1587 404.821 23.1543 404.829 23.137C405.211 22.5997 405.796 22.331 406.584 22.331ZM411.486 21.226C411.278 21.226 411.105 21.1567 410.966 21.018C410.828 20.8793 410.758 20.706 410.758 20.498C410.758 20.2813 410.828 20.108 410.966 19.978C411.105 19.8393 411.278 19.77 411.486 19.77C411.694 19.77 411.868 19.8393 412.006 19.978C412.145 20.108 412.214 20.2813 412.214 20.498C412.214 20.706 412.145 20.8793 412.006 21.018C411.868 21.1567 411.694 21.226 411.486 21.226ZM411.122 28.987C411.036 28.987 410.992 28.9437 410.992 28.857V22.539C410.992 22.4523 411.036 22.409 411.122 22.409H411.785C411.872 22.409 411.915 22.4523 411.915 22.539V28.857C411.915 28.9437 411.872 28.987 411.785 28.987H411.122ZM420.832 22.331C421.482 22.331 421.993 22.526 422.366 22.916C422.747 23.306 422.938 23.839 422.938 24.515V28.87C422.938 28.9567 422.894 29 422.808 29H422.158C422.071 29 422.028 28.9567 422.028 28.87V24.697C422.028 24.2203 421.889 23.8433 421.612 23.566C421.343 23.28 420.988 23.137 420.546 23.137C420.086 23.137 419.714 23.2757 419.428 23.553C419.15 23.8303 419.012 24.203 419.012 24.671V28.87C419.012 28.9567 418.968 29 418.882 29H418.219C418.132 29 418.089 28.9567 418.089 28.87V24.697C418.089 24.2203 417.954 23.8433 417.686 23.566C417.417 23.28 417.057 23.137 416.607 23.137C416.147 23.137 415.779 23.2757 415.502 23.553C415.233 23.8303 415.099 24.203 415.099 24.671V28.87C415.099 28.9567 415.055 29 414.969 29H414.306C414.219 29 414.176 28.9567 414.176 28.87V22.552C414.176 22.4653 414.219 22.422 414.306 22.422H414.969C415.055 22.422 415.099 22.4653 415.099 22.552V23.072C415.099 23.0893 415.103 23.1023 415.112 23.111C415.129 23.111 415.146 23.1023 415.164 23.085C415.354 22.8337 415.597 22.6473 415.892 22.526C416.195 22.396 416.529 22.331 416.893 22.331C417.343 22.331 417.729 22.422 418.05 22.604C418.37 22.786 418.613 23.0503 418.778 23.397C418.795 23.4403 418.817 23.4403 418.843 23.397C419.033 23.0417 419.302 22.7773 419.649 22.604C419.995 22.422 420.39 22.331 420.832 22.331ZM427.204 22.318C427.984 22.318 428.586 22.5173 429.011 22.916C429.435 23.3147 429.648 23.8433 429.648 24.502V28.87C429.648 28.9567 429.604 29 429.518 29H428.855C428.768 29 428.725 28.9567 428.725 28.87V28.337C428.725 28.3197 428.716 28.3067 428.699 28.298C428.69 28.2893 428.677 28.2937 428.66 28.311C428.443 28.571 428.161 28.7703 427.815 28.909C427.468 29.039 427.082 29.104 426.658 29.104C426.042 29.104 425.527 28.948 425.111 28.636C424.695 28.324 424.487 27.8473 424.487 27.206C424.487 26.556 424.721 26.0447 425.189 25.672C425.665 25.2907 426.324 25.1 427.165 25.1H428.673C428.707 25.1 428.725 25.0827 428.725 25.048V24.554C428.725 24.112 428.599 23.7653 428.348 23.514C428.105 23.254 427.724 23.124 427.204 23.124C426.788 23.124 426.45 23.2063 426.19 23.371C425.93 23.527 425.769 23.748 425.709 24.034C425.683 24.1207 425.631 24.1597 425.553 24.151L424.851 24.06C424.755 24.0427 424.716 24.008 424.734 23.956C424.803 23.4707 425.063 23.0763 425.514 22.773C425.964 22.4697 426.528 22.318 427.204 22.318ZM426.84 28.311C427.351 28.311 427.793 28.1853 428.166 27.934C428.538 27.674 428.725 27.3273 428.725 26.894V25.88C428.725 25.8453 428.707 25.828 428.673 25.828H427.308C426.736 25.828 426.276 25.945 425.93 26.179C425.583 26.413 425.41 26.738 425.41 27.154C425.41 27.5353 425.54 27.8257 425.8 28.025C426.068 28.2157 426.415 28.311 426.84 28.311ZM432.725 24.45C432.509 24.45 432.331 24.3807 432.192 24.242C432.062 24.1033 431.997 23.93 431.997 23.722C431.997 23.5053 432.062 23.332 432.192 23.202C432.331 23.0633 432.509 22.994 432.725 22.994C432.933 22.994 433.107 23.0633 433.245 23.202C433.384 23.332 433.453 23.5053 433.453 23.722C433.453 23.93 433.384 24.1033 433.245 24.242C433.107 24.3807 432.933 24.45 432.725 24.45ZM432.725 28.831C432.509 28.831 432.331 28.7617 432.192 28.623C432.062 28.4843 431.997 28.311 431.997 28.103C431.997 27.8863 432.062 27.713 432.192 27.583C432.331 27.4443 432.509 27.375 432.725 27.375C432.933 27.375 433.107 27.4443 433.245 27.583C433.384 27.713 433.453 27.8863 433.453 28.103C433.453 28.311 433.384 28.4843 433.245 28.623C433.107 28.7617 432.933 28.831 432.725 28.831ZM360.08 32.939C360.149 32.913 360.214 32.9 360.275 32.9H361.523C361.566 32.9 361.601 32.9173 361.627 32.952C361.662 32.978 361.679 33.0127 361.679 33.056V41.844C361.679 41.8873 361.662 41.9263 361.627 41.961C361.601 41.987 361.566 42 361.523 42H360.327C360.284 42 360.245 41.987 360.21 41.961C360.184 41.9263 360.171 41.8873 360.171 41.844V34.46C360.171 34.4427 360.162 34.4297 360.145 34.421C360.128 34.4037 360.11 34.3993 360.093 34.408L358.793 34.811C358.776 34.8197 358.754 34.824 358.728 34.824C358.693 34.824 358.663 34.811 358.637 34.785C358.62 34.759 358.611 34.7243 358.611 34.681L358.572 33.823C358.572 33.7363 358.607 33.6757 358.676 33.641L360.08 32.939ZM366.262 42.143C365.352 42.143 364.628 41.8873 364.091 41.376C363.562 40.856 363.298 40.1583 363.298 39.283V35.617C363.298 34.7503 363.562 34.0657 364.091 33.563C364.628 33.0517 365.352 32.796 366.262 32.796C367.172 32.796 367.896 33.0517 368.433 33.563C368.979 34.0657 369.252 34.7503 369.252 35.617V39.283C369.252 40.1583 368.979 40.856 368.433 41.376C367.896 41.8873 367.172 42.143 366.262 42.143ZM366.262 40.83C366.713 40.83 367.072 40.7 367.341 40.44C367.61 40.1713 367.744 39.8117 367.744 39.361V35.565C367.744 35.1143 367.61 34.759 367.341 34.499C367.072 34.2303 366.713 34.096 366.262 34.096C365.82 34.096 365.465 34.2303 365.196 34.499C364.936 34.759 364.806 35.1143 364.806 35.565V39.361C364.806 39.8117 364.936 40.1713 365.196 40.44C365.465 40.7 365.82 40.83 366.262 40.83ZM375.915 35.253C376.461 35.253 376.942 35.3483 377.358 35.539C377.774 35.7297 378.095 35.994 378.32 36.332C378.546 36.6613 378.658 37.0383 378.658 37.463V41.844C378.658 41.8873 378.641 41.9263 378.606 41.961C378.58 41.987 378.546 42 378.502 42H377.306C377.263 42 377.224 41.987 377.189 41.961C377.163 41.9263 377.15 41.8873 377.15 41.844V41.428C377.15 41.402 377.142 41.389 377.124 41.389C377.107 41.3803 377.09 41.3847 377.072 41.402C376.648 41.87 376.032 42.104 375.226 42.104C374.576 42.104 374.039 41.9393 373.614 41.61C373.198 41.2807 372.99 40.791 372.99 40.141C372.99 39.465 373.224 38.9407 373.692 38.568C374.169 38.1867 374.836 37.996 375.694 37.996H377.085C377.129 37.996 377.15 37.9743 377.15 37.931V37.619C377.15 37.281 377.051 37.021 376.851 36.839C376.652 36.6483 376.353 36.553 375.954 36.553C375.625 36.553 375.356 36.6137 375.148 36.735C374.949 36.8477 374.823 37.008 374.771 37.216C374.745 37.32 374.685 37.3633 374.589 37.346L373.328 37.19C373.285 37.1813 373.246 37.1683 373.211 37.151C373.185 37.125 373.177 37.0947 373.185 37.06C373.255 36.5313 373.536 36.098 374.03 35.76C374.533 35.422 375.161 35.253 375.915 35.253ZM375.603 40.908C376.028 40.908 376.392 40.7953 376.695 40.57C376.999 40.3447 377.15 40.0587 377.15 39.712V39.101C377.15 39.0577 377.129 39.036 377.085 39.036H375.993C375.534 39.036 375.17 39.1227 374.901 39.296C374.641 39.4693 374.511 39.7163 374.511 40.037C374.511 40.3143 374.611 40.531 374.81 40.687C375.018 40.8343 375.283 40.908 375.603 40.908ZM383.357 35.253C384.059 35.253 384.618 35.461 385.034 35.877C385.459 36.293 385.671 36.8607 385.671 37.58V41.844C385.671 41.8873 385.654 41.9263 385.619 41.961C385.593 41.987 385.559 42 385.515 42H384.319C384.276 42 384.237 41.987 384.202 41.961C384.176 41.9263 384.163 41.8873 384.163 41.844V37.892C384.163 37.4933 384.051 37.1727 383.825 36.93C383.6 36.6787 383.301 36.553 382.928 36.553C382.556 36.553 382.252 36.6743 382.018 36.917C381.793 37.1597 381.68 37.4803 381.68 37.879V41.844C381.68 41.8873 381.663 41.9263 381.628 41.961C381.602 41.987 381.568 42 381.524 42H380.328C380.285 42 380.246 41.987 380.211 41.961C380.185 41.9263 380.172 41.8873 380.172 41.844V35.513C380.172 35.4697 380.185 35.435 380.211 35.409C380.246 35.3743 380.285 35.357 380.328 35.357H381.524C381.568 35.357 381.602 35.3743 381.628 35.409C381.663 35.435 381.68 35.4697 381.68 35.513V35.929C381.68 35.955 381.689 35.9723 381.706 35.981C381.724 35.9897 381.737 35.981 381.745 35.955C382.101 35.487 382.638 35.253 383.357 35.253ZM383.773 34.408C383.609 34.408 383.47 34.3907 383.357 34.356C383.245 34.3127 383.102 34.2477 382.928 34.161C382.902 34.1437 382.837 34.1133 382.733 34.07C382.638 34.018 382.556 33.9833 382.486 33.966C382.417 33.94 382.348 33.927 382.278 33.927C382.131 33.927 382.001 33.953 381.888 34.005C381.784 34.0483 381.685 34.122 381.589 34.226C381.546 34.2693 381.503 34.291 381.459 34.291C381.425 34.291 381.394 34.2737 381.368 34.239L380.952 33.797C380.883 33.7277 380.874 33.6583 380.926 33.589C381.065 33.355 381.243 33.173 381.459 33.043C381.685 32.913 381.932 32.848 382.2 32.848C382.374 32.848 382.521 32.874 382.642 32.926C382.764 32.9693 382.924 33.043 383.123 33.147C383.288 33.2337 383.414 33.2943 383.5 33.329C383.587 33.3637 383.678 33.381 383.773 33.381C384.033 33.381 384.25 33.2727 384.423 33.056C384.467 33.0127 384.506 32.991 384.54 32.991C384.584 32.991 384.618 33.0083 384.644 33.043L385.021 33.485C385.073 33.5457 385.086 33.6107 385.06 33.68C384.948 33.9053 384.774 34.083 384.54 34.213C384.315 34.343 384.059 34.408 383.773 34.408ZM390.065 42.104C389.38 42.104 388.791 41.9307 388.297 41.584C387.811 41.2373 387.469 40.7563 387.27 40.141C387.122 39.673 387.049 39.179 387.049 38.659C387.049 38.1043 387.118 37.6103 387.257 37.177C387.456 36.5703 387.803 36.098 388.297 35.76C388.791 35.422 389.384 35.253 390.078 35.253C390.736 35.253 391.304 35.422 391.781 35.76C392.266 36.098 392.608 36.566 392.808 37.164C392.964 37.58 393.042 38.074 393.042 38.646C393.042 39.192 392.968 39.686 392.821 40.128C392.621 40.7433 392.279 41.2287 391.794 41.584C391.308 41.9307 390.732 42.104 390.065 42.104ZM390.065 40.804C390.385 40.804 390.658 40.713 390.884 40.531C391.118 40.349 391.287 40.0933 391.391 39.764C391.477 39.478 391.521 39.114 391.521 38.672C391.521 38.204 391.477 37.84 391.391 37.58C391.295 37.2507 391.131 36.9993 390.897 36.826C390.663 36.644 390.377 36.553 390.039 36.553C389.718 36.553 389.441 36.644 389.207 36.826C388.973 36.9993 388.804 37.2507 388.7 37.58C388.613 37.8833 388.57 38.2473 388.57 38.672C388.57 39.0967 388.613 39.4607 388.7 39.764C388.795 40.0933 388.96 40.349 389.194 40.531C389.436 40.713 389.727 40.804 390.065 40.804ZM396.937 42.078C396.391 42.078 395.91 42 395.494 41.844C395.087 41.6793 394.77 41.4583 394.545 41.181C394.32 40.895 394.207 40.5787 394.207 40.232V40.115C394.207 40.0717 394.22 40.037 394.246 40.011C394.281 39.9763 394.32 39.959 394.363 39.959H395.507C395.55 39.959 395.585 39.9763 395.611 40.011C395.646 40.037 395.663 40.0717 395.663 40.115V40.141C395.663 40.3577 395.78 40.5483 396.014 40.713C396.257 40.869 396.56 40.947 396.924 40.947C397.271 40.947 397.552 40.8777 397.769 40.739C397.986 40.5917 398.094 40.4097 398.094 40.193C398.094 39.9937 398.003 39.8463 397.821 39.751C397.648 39.647 397.362 39.5387 396.963 39.426L396.469 39.27C396.027 39.14 395.654 39.0013 395.351 38.854C395.048 38.7067 394.792 38.5073 394.584 38.256C394.376 37.996 394.272 37.6667 394.272 37.268C394.272 36.6613 394.51 36.1803 394.987 35.825C395.464 35.461 396.092 35.279 396.872 35.279C397.401 35.279 397.864 35.3657 398.263 35.539C398.662 35.7037 398.969 35.9377 399.186 36.241C399.403 36.5357 399.511 36.8737 399.511 37.255C399.511 37.2983 399.494 37.3373 399.459 37.372C399.433 37.398 399.398 37.411 399.355 37.411H398.25C398.207 37.411 398.168 37.398 398.133 37.372C398.107 37.3373 398.094 37.2983 398.094 37.255C398.094 37.0297 397.981 36.8433 397.756 36.696C397.539 36.54 397.24 36.462 396.859 36.462C396.521 36.462 396.244 36.527 396.027 36.657C395.819 36.7783 395.715 36.9517 395.715 37.177C395.715 37.385 395.815 37.5453 396.014 37.658C396.222 37.762 396.564 37.879 397.041 38.009L397.327 38.087C397.786 38.2257 398.172 38.3687 398.484 38.516C398.796 38.6547 399.06 38.854 399.277 39.114C399.494 39.3653 399.602 39.6947 399.602 40.102C399.602 40.7173 399.359 41.2027 398.874 41.558C398.389 41.9047 397.743 42.078 396.937 42.078Z" fill="#010101"/>
</svg>
