<svg width="566" height="75" viewBox="0 0 566 75" fill="none" xmlns="http://www.w3.org/2000/svg">
<rect width="566" height="75" rx="2" fill="#5998C5"/>
<path d="M45.732 22.513C45.732 22.4697 45.745 22.435 45.771 22.409C45.8057 22.3743 45.8447 22.357 45.888 22.357H47.071C47.1143 22.357 47.149 22.3743 47.175 22.409C47.2097 22.435 47.227 22.4697 47.227 22.513V28.844C47.227 28.8873 47.2097 28.9263 47.175 28.961C47.149 28.987 47.1143 29 47.071 29H45.888C45.8447 29 45.8057 28.987 45.771 28.961C45.745 28.9263 45.732 28.8873 45.732 28.844V28.428C45.732 28.402 45.7233 28.3847 45.706 28.376C45.6887 28.3673 45.6713 28.376 45.654 28.402C45.2987 28.8613 44.7657 29.091 44.055 29.091C43.3963 29.091 42.8417 28.9003 42.391 28.519C41.949 28.1377 41.728 27.596 41.728 26.894V22.513C41.728 22.4697 41.741 22.435 41.767 22.409C41.8017 22.3743 41.8407 22.357 41.884 22.357H43.08C43.1233 22.357 43.158 22.3743 43.184 22.409C43.2187 22.435 43.236 22.4697 43.236 22.513V26.465C43.236 26.8723 43.34 27.1973 43.548 27.44C43.7647 27.6827 44.0637 27.804 44.445 27.804C44.835 27.804 45.147 27.6827 45.381 27.44C45.615 27.1973 45.732 26.8723 45.732 26.465V22.513ZM43.912 21.525C43.8513 21.525 43.8123 21.5077 43.795 21.473C43.7777 21.4383 43.782 21.395 43.808 21.343L44.523 20.004C44.5577 19.9347 44.6227 19.9 44.718 19.9H45.745C45.8057 19.9 45.8447 19.9217 45.862 19.965C45.888 19.9997 45.8837 20.043 45.849 20.095L44.952 21.421C44.9087 21.4903 44.848 21.525 44.77 21.525H43.912ZM49.0333 29C48.99 29 48.951 28.987 48.9163 28.961C48.8903 28.9263 48.8773 28.8873 48.8773 28.844V20.056C48.8773 20.0127 48.8903 19.978 48.9163 19.952C48.951 19.9173 48.99 19.9 49.0333 19.9H50.2293C50.2726 19.9 50.3073 19.9173 50.3333 19.952C50.368 19.978 50.3853 20.0127 50.3853 20.056V28.844C50.3853 28.8873 50.368 28.9263 50.3333 28.961C50.3073 28.987 50.2726 29 50.2293 29H49.0333ZM55.5106 23.423C55.5106 23.4663 55.4933 23.5053 55.4586 23.54C55.4326 23.566 55.398 23.579 55.3546 23.579H54.0286C53.9853 23.579 53.9636 23.6007 53.9636 23.644V26.777C53.9636 27.1063 54.033 27.3447 54.1716 27.492C54.319 27.6393 54.5486 27.713 54.8606 27.713H55.2506C55.294 27.713 55.3286 27.7303 55.3546 27.765C55.3893 27.791 55.4066 27.8257 55.4066 27.869V28.844C55.4066 28.9393 55.3546 28.9957 55.2506 29.013L54.5746 29.026C53.89 29.026 53.3786 28.909 53.0406 28.675C52.7026 28.441 52.5293 27.999 52.5206 27.349V23.644C52.5206 23.6007 52.499 23.579 52.4556 23.579H51.7146C51.6713 23.579 51.6323 23.566 51.5976 23.54C51.5716 23.5053 51.5586 23.4663 51.5586 23.423V22.513C51.5586 22.4697 51.5716 22.435 51.5976 22.409C51.6323 22.3743 51.6713 22.357 51.7146 22.357H52.4556C52.499 22.357 52.5206 22.3353 52.5206 22.292V20.771C52.5206 20.7277 52.5336 20.693 52.5596 20.667C52.5943 20.6323 52.6333 20.615 52.6766 20.615H53.8076C53.851 20.615 53.8856 20.6323 53.9116 20.667C53.9463 20.693 53.9636 20.7277 53.9636 20.771V22.292C53.9636 22.3353 53.9853 22.357 54.0286 22.357H55.3546C55.398 22.357 55.4326 22.3743 55.4586 22.409C55.4933 22.435 55.5106 22.4697 55.5106 22.513V23.423ZM57.7079 21.447C57.4393 21.447 57.2183 21.3603 57.0449 21.187C56.8716 21.0137 56.7849 20.7927 56.7849 20.524C56.7849 20.2553 56.8716 20.0343 57.0449 19.861C57.2183 19.6877 57.4393 19.601 57.7079 19.601C57.9766 19.601 58.1976 19.6877 58.3709 19.861C58.5443 20.0343 58.6309 20.2553 58.6309 20.524C58.6309 20.7927 58.5443 21.0137 58.3709 21.187C58.1976 21.3603 57.9766 21.447 57.7079 21.447ZM57.0839 29C57.0406 29 57.0016 28.987 56.9669 28.961C56.9409 28.9263 56.9279 28.8873 56.9279 28.844V22.5C56.9279 22.4567 56.9409 22.422 56.9669 22.396C57.0016 22.3613 57.0406 22.344 57.0839 22.344H58.2799C58.3233 22.344 58.3579 22.3613 58.3839 22.396C58.4186 22.422 58.4359 22.4567 58.4359 22.5V28.844C58.4359 28.8873 58.4186 28.9263 58.3839 28.961C58.3579 28.987 58.3233 29 58.2799 29H57.0839ZM67.2744 22.253C67.9418 22.253 68.4618 22.4567 68.8344 22.864C69.2158 23.2627 69.4064 23.8217 69.4064 24.541V28.844C69.4064 28.8873 69.3891 28.9263 69.3544 28.961C69.3284 28.987 69.2938 29 69.2504 29H68.0674C68.0241 29 67.9851 28.987 67.9504 28.961C67.9244 28.9263 67.9114 28.8873 67.9114 28.844V24.853C67.9114 24.4543 67.8031 24.138 67.5864 23.904C67.3784 23.67 67.0968 23.553 66.7414 23.553C66.3861 23.553 66.0958 23.67 65.8704 23.904C65.6451 24.138 65.5324 24.45 65.5324 24.84V28.844C65.5324 28.8873 65.5151 28.9263 65.4804 28.961C65.4544 28.987 65.4198 29 65.3764 29H64.1934C64.1501 29 64.1111 28.987 64.0764 28.961C64.0504 28.9263 64.0374 28.8873 64.0374 28.844V24.853C64.0374 24.4543 63.9291 24.138 63.7124 23.904C63.4958 23.67 63.2098 23.553 62.8544 23.553C62.5251 23.553 62.2521 23.6483 62.0354 23.839C61.8274 24.0297 61.7061 24.2897 61.6714 24.619V28.844C61.6714 28.8873 61.6541 28.9263 61.6194 28.961C61.5934 28.987 61.5588 29 61.5154 29H60.3194C60.2761 29 60.2371 28.987 60.2024 28.961C60.1764 28.9263 60.1634 28.8873 60.1634 28.844V22.513C60.1634 22.4697 60.1764 22.435 60.2024 22.409C60.2371 22.3743 60.2761 22.357 60.3194 22.357H61.5154C61.5588 22.357 61.5934 22.3743 61.6194 22.409C61.6541 22.435 61.6714 22.4697 61.6714 22.513V22.942C61.6714 22.968 61.6801 22.9853 61.6974 22.994C61.7148 23.0027 61.7321 22.994 61.7494 22.968C61.9401 22.7253 62.1741 22.5477 62.4514 22.435C62.7374 22.3137 63.0538 22.253 63.4004 22.253C63.8251 22.253 64.1978 22.3397 64.5184 22.513C64.8391 22.6863 65.0861 22.9377 65.2594 23.267C65.2854 23.3017 65.3158 23.3017 65.3504 23.267C65.5411 22.9203 65.8054 22.6647 66.1434 22.5C66.4814 22.3353 66.8584 22.253 67.2744 22.253ZM73.712 29.104C73.0273 29.104 72.438 28.9307 71.944 28.584C71.4586 28.2373 71.1163 27.7563 70.917 27.141C70.7696 26.673 70.696 26.179 70.696 25.659C70.696 25.1043 70.7653 24.6103 70.904 24.177C71.1033 23.5703 71.45 23.098 71.944 22.76C72.438 22.422 73.0316 22.253 73.725 22.253C74.3836 22.253 74.9513 22.422 75.428 22.76C75.9133 23.098 76.2556 23.566 76.455 24.164C76.611 24.58 76.689 25.074 76.689 25.646C76.689 26.192 76.6153 26.686 76.468 27.128C76.2686 27.7433 75.9263 28.2287 75.441 28.584C74.9556 28.9307 74.3793 29.104 73.712 29.104ZM73.712 27.804C74.0326 27.804 74.3056 27.713 74.531 27.531C74.765 27.349 74.934 27.0933 75.038 26.764C75.1246 26.478 75.168 26.114 75.168 25.672C75.168 25.204 75.1246 24.84 75.038 24.58C74.9426 24.2507 74.778 23.9993 74.544 23.826C74.31 23.644 74.024 23.553 73.686 23.553C73.3653 23.553 73.088 23.644 72.854 23.826C72.62 23.9993 72.451 24.2507 72.347 24.58C72.2603 24.8833 72.217 25.2473 72.217 25.672C72.217 26.0967 72.2603 26.4607 72.347 26.764C72.4423 27.0933 72.607 27.349 72.841 27.531C73.0836 27.713 73.374 27.804 73.712 27.804ZM80.5846 29.078C80.0386 29.078 79.5576 29 79.1416 28.844C78.7343 28.6793 78.4179 28.4583 78.1926 28.181C77.9673 27.895 77.8546 27.5787 77.8546 27.232V27.115C77.8546 27.0717 77.8676 27.037 77.8936 27.011C77.9283 26.9763 77.9673 26.959 78.0106 26.959H79.1546C79.1979 26.959 79.2326 26.9763 79.2586 27.011C79.2933 27.037 79.3106 27.0717 79.3106 27.115V27.141C79.3106 27.3577 79.4276 27.5483 79.6616 27.713C79.9043 27.869 80.2076 27.947 80.5716 27.947C80.9183 27.947 81.1999 27.8777 81.4166 27.739C81.6333 27.5917 81.7416 27.4097 81.7416 27.193C81.7416 26.9937 81.6506 26.8463 81.4686 26.751C81.2953 26.647 81.0093 26.5387 80.6106 26.426L80.1166 26.27C79.6746 26.14 79.3019 26.0013 78.9986 25.854C78.6953 25.7067 78.4396 25.5073 78.2316 25.256C78.0236 24.996 77.9196 24.6667 77.9196 24.268C77.9196 23.6613 78.1579 23.1803 78.6346 22.825C79.1113 22.461 79.7396 22.279 80.5196 22.279C81.0483 22.279 81.5119 22.3657 81.9106 22.539C82.3093 22.7037 82.6169 22.9377 82.8336 23.241C83.0503 23.5357 83.1586 23.8737 83.1586 24.255C83.1586 24.2983 83.1413 24.3373 83.1066 24.372C83.0806 24.398 83.0459 24.411 83.0026 24.411H81.8976C81.8543 24.411 81.8153 24.398 81.7806 24.372C81.7546 24.3373 81.7416 24.2983 81.7416 24.255C81.7416 24.0297 81.6289 23.8433 81.4036 23.696C81.1869 23.54 80.8879 23.462 80.5066 23.462C80.1686 23.462 79.8913 23.527 79.6746 23.657C79.4666 23.7783 79.3626 23.9517 79.3626 24.177C79.3626 24.385 79.4623 24.5453 79.6616 24.658C79.8696 24.762 80.2119 24.879 80.6886 25.009L80.9746 25.087C81.4339 25.2257 81.8196 25.3687 82.1316 25.516C82.4436 25.6547 82.7079 25.854 82.9246 26.114C83.1413 26.3653 83.2496 26.6947 83.2496 27.102C83.2496 27.7173 83.0069 28.2027 82.5216 28.558C82.0363 28.9047 81.3906 29.078 80.5846 29.078ZM44.887 42.104C44.211 42.104 43.6217 41.9957 43.119 41.779C42.6163 41.5623 42.2263 41.259 41.949 40.869C41.6803 40.479 41.546 40.0197 41.546 39.491V39.166C41.546 39.1227 41.559 39.088 41.585 39.062C41.6197 39.0273 41.6587 39.01 41.702 39.01H42.859C42.9023 39.01 42.937 39.0273 42.963 39.062C42.9977 39.088 43.015 39.1227 43.015 39.166V39.413C43.015 39.8117 43.1927 40.1453 43.548 40.414C43.9033 40.674 44.3887 40.804 45.004 40.804C45.5327 40.804 45.9313 40.6913 46.2 40.466C46.4687 40.2407 46.603 39.9503 46.603 39.595C46.603 39.3523 46.5293 39.1487 46.382 38.984C46.2347 38.8107 46.0223 38.6547 45.745 38.516C45.4763 38.3773 45.069 38.204 44.523 37.996C43.9077 37.7707 43.4093 37.5583 43.028 37.359C42.6467 37.1597 42.326 36.891 42.066 36.553C41.8147 36.2063 41.689 35.7773 41.689 35.266C41.689 34.5033 41.9663 33.901 42.521 33.459C43.0757 33.017 43.8167 32.796 44.744 32.796C45.394 32.796 45.966 32.9087 46.46 33.134C46.9627 33.3593 47.3527 33.6757 47.63 34.083C47.9073 34.4817 48.046 34.9453 48.046 35.474V35.695C48.046 35.7383 48.0287 35.7773 47.994 35.812C47.968 35.838 47.9333 35.851 47.89 35.851H46.72C46.6767 35.851 46.6377 35.838 46.603 35.812C46.577 35.7773 46.564 35.7383 46.564 35.695V35.552C46.564 35.1447 46.395 34.8023 46.057 34.525C45.7277 34.239 45.2683 34.096 44.679 34.096C44.2023 34.096 43.8297 34.1957 43.561 34.395C43.301 34.5943 43.171 34.876 43.171 35.24C43.171 35.5 43.2403 35.7123 43.379 35.877C43.5177 36.0417 43.7257 36.1933 44.003 36.332C44.2803 36.462 44.7093 36.631 45.29 36.839C45.9053 37.073 46.395 37.2853 46.759 37.476C47.1317 37.6667 47.448 37.9353 47.708 38.282C47.9767 38.62 48.111 39.0447 48.111 39.556C48.111 40.336 47.8207 40.9557 47.24 41.415C46.668 41.8743 45.8837 42.104 44.887 42.104ZM51.9582 35.253C52.5042 35.253 52.9852 35.3483 53.4012 35.539C53.8172 35.7297 54.1379 35.994 54.3632 36.332C54.5885 36.6613 54.7012 37.0383 54.7012 37.463V41.844C54.7012 41.8873 54.6839 41.9263 54.6492 41.961C54.6232 41.987 54.5885 42 54.5452 42H53.3492C53.3059 42 53.2669 41.987 53.2322 41.961C53.2062 41.9263 53.1932 41.8873 53.1932 41.844V41.428C53.1932 41.402 53.1845 41.389 53.1672 41.389C53.1499 41.3803 53.1325 41.3847 53.1152 41.402C52.6905 41.87 52.0752 42.104 51.2692 42.104C50.6192 42.104 50.0819 41.9393 49.6572 41.61C49.2412 41.2807 49.0332 40.791 49.0332 40.141C49.0332 39.465 49.2672 38.9407 49.7352 38.568C50.2119 38.1867 50.8792 37.996 51.7372 37.996H53.1282C53.1715 37.996 53.1932 37.9743 53.1932 37.931V37.619C53.1932 37.281 53.0935 37.021 52.8942 36.839C52.6949 36.6483 52.3959 36.553 51.9972 36.553C51.6679 36.553 51.3992 36.6137 51.1912 36.735C50.9919 36.8477 50.8662 37.008 50.8142 37.216C50.7882 37.32 50.7275 37.3633 50.6322 37.346L49.3712 37.19C49.3279 37.1813 49.2889 37.1683 49.2542 37.151C49.2282 37.125 49.2195 37.0947 49.2282 37.06C49.2975 36.5313 49.5792 36.098 50.0732 35.76C50.5759 35.422 51.2042 35.253 51.9582 35.253ZM51.6462 40.908C52.0709 40.908 52.4349 40.7953 52.7382 40.57C53.0415 40.3447 53.1932 40.0587 53.1932 39.712V39.101C53.1932 39.0577 53.1715 39.036 53.1282 39.036H52.0362C51.5769 39.036 51.2129 39.1227 50.9442 39.296C50.6842 39.4693 50.5542 39.7163 50.5542 40.037C50.5542 40.3143 50.6539 40.531 50.8532 40.687C51.0612 40.8343 51.3255 40.908 51.6462 40.908ZM51.3992 34.525C51.3385 34.525 51.2995 34.5077 51.2822 34.473C51.2649 34.4383 51.2692 34.395 51.2952 34.343L52.0102 33.004C52.0449 32.9347 52.1099 32.9 52.2052 32.9H53.2322C53.2929 32.9 53.3319 32.9217 53.3492 32.965C53.3752 32.9997 53.3709 33.043 53.3362 33.095L52.4392 34.421C52.3959 34.4903 52.3352 34.525 52.2572 34.525H51.3992ZM61.8055 37.073C61.9528 37.5583 62.0265 38.087 62.0265 38.659C62.0265 39.2743 61.9442 39.816 61.7795 40.284C61.5888 40.856 61.2812 41.3023 60.8565 41.623C60.4318 41.9437 59.9118 42.104 59.2965 42.104C58.6898 42.104 58.1915 41.8743 57.8015 41.415C57.7842 41.389 57.7668 41.3803 57.7495 41.389C57.7322 41.3977 57.7235 41.415 57.7235 41.441V41.844C57.7235 41.8873 57.7062 41.9263 57.6715 41.961C57.6455 41.987 57.6108 42 57.5675 42H56.3715C56.3282 42 56.2892 41.987 56.2545 41.961C56.2285 41.9263 56.2155 41.8873 56.2155 41.844V33.056C56.2155 33.0127 56.2285 32.978 56.2545 32.952C56.2892 32.9173 56.3282 32.9 56.3715 32.9H57.5675C57.6108 32.9 57.6455 32.9173 57.6715 32.952C57.7062 32.978 57.7235 33.0127 57.7235 33.056V35.877C57.7235 35.903 57.7322 35.9203 57.7495 35.929C57.7668 35.9377 57.7842 35.9333 57.8015 35.916C58.1742 35.474 58.6682 35.253 59.2835 35.253C59.9248 35.253 60.4535 35.4133 60.8695 35.734C61.2942 36.0547 61.6062 36.501 61.8055 37.073ZM60.1675 40.18C60.3755 39.816 60.4795 39.3177 60.4795 38.685C60.4795 38.009 60.3495 37.4803 60.0895 37.099C59.8555 36.735 59.5088 36.553 59.0495 36.553C58.6248 36.553 58.2998 36.7437 58.0745 37.125C57.8578 37.4803 57.7495 37.996 57.7495 38.672C57.7495 39.3393 57.8492 39.842 58.0485 40.18C58.2738 40.596 58.6118 40.804 59.0625 40.804C59.3052 40.804 59.5218 40.752 59.7125 40.648C59.9032 40.5353 60.0548 40.3793 60.1675 40.18ZM65.9992 35.253C66.5452 35.253 67.0262 35.3483 67.4422 35.539C67.8582 35.7297 68.1789 35.994 68.4042 36.332C68.6295 36.6613 68.7422 37.0383 68.7422 37.463V41.844C68.7422 41.8873 68.7249 41.9263 68.6902 41.961C68.6642 41.987 68.6295 42 68.5862 42H67.3902C67.3469 42 67.3079 41.987 67.2732 41.961C67.2472 41.9263 67.2342 41.8873 67.2342 41.844V41.428C67.2342 41.402 67.2255 41.389 67.2082 41.389C67.1909 41.3803 67.1735 41.3847 67.1562 41.402C66.7315 41.87 66.1162 42.104 65.3102 42.104C64.6602 42.104 64.1229 41.9393 63.6982 41.61C63.2822 41.2807 63.0742 40.791 63.0742 40.141C63.0742 39.465 63.3082 38.9407 63.7762 38.568C64.2529 38.1867 64.9202 37.996 65.7782 37.996H67.1692C67.2125 37.996 67.2342 37.9743 67.2342 37.931V37.619C67.2342 37.281 67.1345 37.021 66.9352 36.839C66.7359 36.6483 66.4369 36.553 66.0382 36.553C65.7089 36.553 65.4402 36.6137 65.2322 36.735C65.0329 36.8477 64.9072 37.008 64.8552 37.216C64.8292 37.32 64.7685 37.3633 64.6732 37.346L63.4122 37.19C63.3689 37.1813 63.3299 37.1683 63.2952 37.151C63.2692 37.125 63.2605 37.0947 63.2692 37.06C63.3385 36.5313 63.6202 36.098 64.1142 35.76C64.6169 35.422 65.2452 35.253 65.9992 35.253ZM65.6872 40.908C66.1119 40.908 66.4759 40.7953 66.7792 40.57C67.0825 40.3447 67.2342 40.0587 67.2342 39.712V39.101C67.2342 39.0577 67.2125 39.036 67.1692 39.036H66.0772C65.6179 39.036 65.2539 39.1227 64.9852 39.296C64.7252 39.4693 64.5952 39.7163 64.5952 40.037C64.5952 40.3143 64.6949 40.531 64.8942 40.687C65.1022 40.8343 65.3665 40.908 65.6872 40.908ZM74.3772 33.056C74.3772 33.0127 74.3902 32.978 74.4162 32.952C74.4509 32.9173 74.4899 32.9 74.5332 32.9H75.7292C75.7725 32.9 75.8072 32.9173 75.8332 32.952C75.8679 32.978 75.8852 33.0127 75.8852 33.056V41.844C75.8852 41.8873 75.8679 41.9263 75.8332 41.961C75.8072 41.987 75.7725 42 75.7292 42H74.5332C74.4899 42 74.4509 41.987 74.4162 41.961C74.3902 41.9263 74.3772 41.8873 74.3772 41.844V41.454C74.3772 41.428 74.3685 41.4107 74.3512 41.402C74.3339 41.3933 74.3165 41.402 74.2992 41.428C73.9179 41.8787 73.4195 42.104 72.8042 42.104C72.1889 42.104 71.6689 41.9437 71.2442 41.623C70.8195 41.3023 70.5119 40.856 70.3212 40.284C70.1652 39.7987 70.0872 39.257 70.0872 38.659C70.0872 38.0437 70.1609 37.515 70.3082 37.073C70.4989 36.501 70.8065 36.0547 71.2312 35.734C71.6559 35.4133 72.1889 35.253 72.8302 35.253C73.4282 35.253 73.9179 35.4697 74.2992 35.903C74.3165 35.9203 74.3339 35.929 74.3512 35.929C74.3685 35.9203 74.3772 35.903 74.3772 35.877V33.056ZM74.0652 40.18C74.2645 39.8247 74.3642 39.322 74.3642 38.672C74.3642 37.996 74.2559 37.4803 74.0392 37.125C73.8052 36.7437 73.4759 36.553 73.0512 36.553C72.6092 36.553 72.2625 36.735 72.0112 37.099C71.7512 37.4803 71.6212 38.009 71.6212 38.685C71.6212 39.2917 71.7252 39.79 71.9332 40.18C72.1759 40.596 72.5442 40.804 73.0382 40.804C73.4802 40.804 73.8225 40.596 74.0652 40.18ZM80.3389 42.104C79.6542 42.104 79.0649 41.9307 78.5709 41.584C78.0856 41.2373 77.7432 40.7563 77.5439 40.141C77.3966 39.673 77.3229 39.179 77.3229 38.659C77.3229 38.1043 77.3922 37.6103 77.5309 37.177C77.7302 36.5703 78.0769 36.098 78.5709 35.76C79.0649 35.422 79.6586 35.253 80.3519 35.253C81.0106 35.253 81.5782 35.422 82.0549 35.76C82.5402 36.098 82.8826 36.566 83.0819 37.164C83.2379 37.58 83.3159 38.074 83.3159 38.646C83.3159 39.192 83.2422 39.686 83.0949 40.128C82.8956 40.7433 82.5532 41.2287 82.0679 41.584C81.5826 41.9307 81.0062 42.104 80.3389 42.104ZM80.3389 40.804C80.6596 40.804 80.9326 40.713 81.1579 40.531C81.3919 40.349 81.5609 40.0933 81.6649 39.764C81.7516 39.478 81.7949 39.114 81.7949 38.672C81.7949 38.204 81.7516 37.84 81.6649 37.58C81.5696 37.2507 81.4049 36.9993 81.1709 36.826C80.9369 36.644 80.6509 36.553 80.3129 36.553C79.9922 36.553 79.7149 36.644 79.4809 36.826C79.2469 36.9993 79.0779 37.2507 78.9739 37.58C78.8872 37.8833 78.8439 38.2473 78.8439 38.672C78.8439 39.0967 78.8872 39.4607 78.9739 39.764C79.0692 40.0933 79.2339 40.349 79.4679 40.531C79.7106 40.713 80.0009 40.804 80.3389 40.804ZM87.2115 42.078C86.6655 42.078 86.1845 42 85.7685 41.844C85.3612 41.6793 85.0449 41.4583 84.8195 41.181C84.5942 40.895 84.4815 40.5787 84.4815 40.232V40.115C84.4815 40.0717 84.4945 40.037 84.5205 40.011C84.5552 39.9763 84.5942 39.959 84.6375 39.959H85.7815C85.8249 39.959 85.8595 39.9763 85.8855 40.011C85.9202 40.037 85.9375 40.0717 85.9375 40.115V40.141C85.9375 40.3577 86.0545 40.5483 86.2885 40.713C86.5312 40.869 86.8345 40.947 87.1985 40.947C87.5452 40.947 87.8269 40.8777 88.0435 40.739C88.2602 40.5917 88.3685 40.4097 88.3685 40.193C88.3685 39.9937 88.2775 39.8463 88.0955 39.751C87.9222 39.647 87.6362 39.5387 87.2375 39.426L86.7435 39.27C86.3015 39.14 85.9289 39.0013 85.6255 38.854C85.3222 38.7067 85.0665 38.5073 84.8585 38.256C84.6505 37.996 84.5465 37.6667 84.5465 37.268C84.5465 36.6613 84.7849 36.1803 85.2615 35.825C85.7382 35.461 86.3665 35.279 87.1465 35.279C87.6752 35.279 88.1389 35.3657 88.5375 35.539C88.9362 35.7037 89.2439 35.9377 89.4605 36.241C89.6772 36.5357 89.7855 36.8737 89.7855 37.255C89.7855 37.2983 89.7682 37.3373 89.7335 37.372C89.7075 37.398 89.6729 37.411 89.6295 37.411H88.5245C88.4812 37.411 88.4422 37.398 88.4075 37.372C88.3815 37.3373 88.3685 37.2983 88.3685 37.255C88.3685 37.0297 88.2559 36.8433 88.0305 36.696C87.8139 36.54 87.5149 36.462 87.1335 36.462C86.7955 36.462 86.5182 36.527 86.3015 36.657C86.0935 36.7783 85.9895 36.9517 85.9895 37.177C85.9895 37.385 86.0892 37.5453 86.2885 37.658C86.4965 37.762 86.8389 37.879 87.3155 38.009L87.6015 38.087C88.0609 38.2257 88.4465 38.3687 88.7585 38.516C89.0705 38.6547 89.3349 38.854 89.5515 39.114C89.7682 39.3653 89.8765 39.6947 89.8765 40.102C89.8765 40.7173 89.6339 41.2027 89.1485 41.558C88.6632 41.9047 88.0175 42.078 87.2115 42.078ZM45.927 46.056C45.927 46.0127 45.94 45.978 45.966 45.952C46.0007 45.9173 46.0397 45.9 46.083 45.9H47.279C47.3223 45.9 47.357 45.9173 47.383 45.952C47.4177 45.978 47.435 46.0127 47.435 46.056V54.844C47.435 54.8873 47.4177 54.9263 47.383 54.961C47.357 54.987 47.3223 55 47.279 55H46.083C46.0397 55 46.0007 54.987 45.966 54.961C45.94 54.9263 45.927 54.8873 45.927 54.844V54.454C45.927 54.428 45.9183 54.4107 45.901 54.402C45.8837 54.3933 45.8663 54.402 45.849 54.428C45.4677 54.8787 44.9693 55.104 44.354 55.104C43.7387 55.104 43.2187 54.9437 42.794 54.623C42.3693 54.3023 42.0617 53.856 41.871 53.284C41.715 52.7987 41.637 52.257 41.637 51.659C41.637 51.0437 41.7107 50.515 41.858 50.073C42.0487 49.501 42.3563 49.0547 42.781 48.734C43.2057 48.4133 43.7387 48.253 44.38 48.253C44.978 48.253 45.4677 48.4697 45.849 48.903C45.8663 48.9203 45.8837 48.929 45.901 48.929C45.9183 48.9203 45.927 48.903 45.927 48.877V46.056ZM45.615 53.18C45.8143 52.8247 45.914 52.322 45.914 51.672C45.914 50.996 45.8057 50.4803 45.589 50.125C45.355 49.7437 45.0257 49.553 44.601 49.553C44.159 49.553 43.8123 49.735 43.561 50.099C43.301 50.4803 43.171 51.009 43.171 51.685C43.171 52.2917 43.275 52.79 43.483 53.18C43.7257 53.596 44.094 53.804 44.588 53.804C45.03 53.804 45.3723 53.596 45.615 53.18ZM54.6707 50.931C54.7054 51.1477 54.7227 51.3903 54.7227 51.659L54.7097 52.062C54.7097 52.166 54.6577 52.218 54.5537 52.218H50.4847C50.4414 52.218 50.4197 52.2397 50.4197 52.283C50.4457 52.569 50.4847 52.764 50.5367 52.868C50.7447 53.492 51.2517 53.8083 52.0577 53.817C52.6471 53.817 53.1151 53.5743 53.4617 53.089C53.4964 53.037 53.5397 53.011 53.5917 53.011C53.6264 53.011 53.6567 53.024 53.6827 53.05L54.4887 53.713C54.5667 53.7737 54.5797 53.843 54.5277 53.921C54.2591 54.3023 53.8994 54.597 53.4487 54.805C53.0067 55.013 52.5127 55.117 51.9667 55.117C51.2907 55.117 50.7144 54.9653 50.2377 54.662C49.7697 54.3587 49.4274 53.934 49.2107 53.388C49.0114 52.92 48.9117 52.27 48.9117 51.438C48.9117 50.9353 48.9637 50.528 49.0677 50.216C49.2411 49.6093 49.5661 49.1327 50.0427 48.786C50.5281 48.4307 51.1087 48.253 51.7847 48.253C53.4921 48.253 54.4541 49.1457 54.6707 50.931ZM51.7847 49.553C51.4641 49.553 51.1954 49.6353 50.9787 49.8C50.7707 49.956 50.6234 50.177 50.5367 50.463C50.4847 50.6103 50.4501 50.801 50.4327 51.035C50.4154 51.0783 50.4327 51.1 50.4847 51.1H53.1237C53.1671 51.1 53.1887 51.0783 53.1887 51.035C53.1714 50.8183 53.1454 50.6537 53.1107 50.541C53.0327 50.229 52.8767 49.9863 52.6427 49.813C52.4174 49.6397 52.1314 49.553 51.7847 49.553ZM56.2569 55C56.2136 55 56.1746 54.987 56.1399 54.961C56.1139 54.9263 56.1009 54.8873 56.1009 54.844V46.056C56.1009 46.0127 56.1139 45.978 56.1399 45.952C56.1746 45.9173 56.2136 45.9 56.2569 45.9H57.4529C57.4963 45.9 57.5309 45.9173 57.5569 45.952C57.5916 45.978 57.6089 46.0127 57.6089 46.056V54.844C57.6089 54.8873 57.5916 54.9263 57.5569 54.961C57.5309 54.987 57.4963 55 57.4529 55H56.2569ZM68.9248 48.253C69.5921 48.253 70.1121 48.4567 70.4848 48.864C70.8661 49.2627 71.0568 49.8217 71.0568 50.541V54.844C71.0568 54.8873 71.0395 54.9263 71.0048 54.961C70.9788 54.987 70.9441 55 70.9008 55H69.7178C69.6745 55 69.6355 54.987 69.6008 54.961C69.5748 54.9263 69.5618 54.8873 69.5618 54.844V50.853C69.5618 50.4543 69.4535 50.138 69.2368 49.904C69.0288 49.67 68.7471 49.553 68.3918 49.553C68.0365 49.553 67.7461 49.67 67.5208 49.904C67.2955 50.138 67.1828 50.45 67.1828 50.84V54.844C67.1828 54.8873 67.1655 54.9263 67.1308 54.961C67.1048 54.987 67.0701 55 67.0268 55H65.8438C65.8005 55 65.7615 54.987 65.7268 54.961C65.7008 54.9263 65.6878 54.8873 65.6878 54.844V50.853C65.6878 50.4543 65.5795 50.138 65.3628 49.904C65.1461 49.67 64.8601 49.553 64.5048 49.553C64.1755 49.553 63.9025 49.6483 63.6858 49.839C63.4778 50.0297 63.3565 50.2897 63.3218 50.619V54.844C63.3218 54.8873 63.3045 54.9263 63.2698 54.961C63.2438 54.987 63.2091 55 63.1658 55H61.9698C61.9265 55 61.8875 54.987 61.8528 54.961C61.8268 54.9263 61.8138 54.8873 61.8138 54.844V48.513C61.8138 48.4697 61.8268 48.435 61.8528 48.409C61.8875 48.3743 61.9265 48.357 61.9698 48.357H63.1658C63.2091 48.357 63.2438 48.3743 63.2698 48.409C63.3045 48.435 63.3218 48.4697 63.3218 48.513V48.942C63.3218 48.968 63.3305 48.9853 63.3478 48.994C63.3651 49.0027 63.3825 48.994 63.3998 48.968C63.5905 48.7253 63.8245 48.5477 64.1018 48.435C64.3878 48.3137 64.7041 48.253 65.0508 48.253C65.4755 48.253 65.8481 48.3397 66.1688 48.513C66.4895 48.6863 66.7365 48.9377 66.9098 49.267C66.9358 49.3017 66.9661 49.3017 67.0008 49.267C67.1915 48.9203 67.4558 48.6647 67.7938 48.5C68.1318 48.3353 68.5088 48.253 68.9248 48.253ZM78.1444 50.931C78.179 51.1477 78.1964 51.3903 78.1964 51.659L78.1834 52.062C78.1834 52.166 78.1314 52.218 78.0274 52.218H73.9584C73.915 52.218 73.8934 52.2397 73.8934 52.283C73.9194 52.569 73.9584 52.764 74.0104 52.868C74.2184 53.492 74.7254 53.8083 75.5314 53.817C76.1207 53.817 76.5887 53.5743 76.9354 53.089C76.97 53.037 77.0134 53.011 77.0654 53.011C77.1 53.011 77.1304 53.024 77.1564 53.05L77.9624 53.713C78.0404 53.7737 78.0534 53.843 78.0014 53.921C77.7327 54.3023 77.373 54.597 76.9224 54.805C76.4804 55.013 75.9864 55.117 75.4404 55.117C74.7644 55.117 74.188 54.9653 73.7114 54.662C73.2434 54.3587 72.901 53.934 72.6844 53.388C72.485 52.92 72.3854 52.27 72.3854 51.438C72.3854 50.9353 72.4374 50.528 72.5414 50.216C72.7147 49.6093 73.0397 49.1327 73.5164 48.786C74.0017 48.4307 74.5824 48.253 75.2584 48.253C76.9657 48.253 77.9277 49.1457 78.1444 50.931ZM75.2584 49.553C74.9377 49.553 74.669 49.6353 74.4524 49.8C74.2444 49.956 74.097 50.177 74.0104 50.463C73.9584 50.6103 73.9237 50.801 73.9064 51.035C73.889 51.0783 73.9064 51.1 73.9584 51.1H76.5974C76.6407 51.1 76.6624 51.0783 76.6624 51.035C76.645 50.8183 76.619 50.6537 76.5844 50.541C76.5064 50.229 76.3504 49.9863 76.1164 49.813C75.891 49.6397 75.605 49.553 75.2584 49.553ZM81.943 55.078C81.397 55.078 80.916 55 80.5 54.844C80.0927 54.6793 79.7763 54.4583 79.551 54.181C79.3257 53.895 79.213 53.5787 79.213 53.232V53.115C79.213 53.0717 79.226 53.037 79.252 53.011C79.2867 52.9763 79.3257 52.959 79.369 52.959H80.513C80.5563 52.959 80.591 52.9763 80.617 53.011C80.6517 53.037 80.669 53.0717 80.669 53.115V53.141C80.669 53.3577 80.786 53.5483 81.02 53.713C81.2627 53.869 81.566 53.947 81.93 53.947C82.2767 53.947 82.5583 53.8777 82.775 53.739C82.9917 53.5917 83.1 53.4097 83.1 53.193C83.1 52.9937 83.009 52.8463 82.827 52.751C82.6537 52.647 82.3677 52.5387 81.969 52.426L81.475 52.27C81.033 52.14 80.6603 52.0013 80.357 51.854C80.0537 51.7067 79.798 51.5073 79.59 51.256C79.382 50.996 79.278 50.6667 79.278 50.268C79.278 49.6613 79.5163 49.1803 79.993 48.825C80.4697 48.461 81.098 48.279 81.878 48.279C82.4067 48.279 82.8703 48.3657 83.269 48.539C83.6677 48.7037 83.9753 48.9377 84.192 49.241C84.4087 49.5357 84.517 49.8737 84.517 50.255C84.517 50.2983 84.4997 50.3373 84.465 50.372C84.439 50.398 84.4043 50.411 84.361 50.411H83.256C83.2127 50.411 83.1737 50.398 83.139 50.372C83.113 50.3373 83.1 50.2983 83.1 50.255C83.1 50.0297 82.9873 49.8433 82.762 49.696C82.5453 49.54 82.2463 49.462 81.865 49.462C81.527 49.462 81.2497 49.527 81.033 49.657C80.825 49.7783 80.721 49.9517 80.721 50.177C80.721 50.385 80.8207 50.5453 81.02 50.658C81.228 50.762 81.5703 50.879 82.047 51.009L82.333 51.087C82.7923 51.2257 83.178 51.3687 83.49 51.516C83.802 51.6547 84.0663 51.854 84.283 52.114C84.4997 52.3653 84.608 52.6947 84.608 53.102C84.608 53.7173 84.3653 54.2027 83.88 54.558C83.3947 54.9047 82.749 55.078 81.943 55.078Z" fill="#010101"/>
<path fill-rule="evenodd" clip-rule="evenodd" d="M25.7989 18.6782H31.2011C31.8719 18.6782 32.4255 18.6782 32.8765 18.7153C33.3449 18.7539 33.7755 18.8366 34.18 19.0441C34.8072 19.3659 35.3171 19.8795 35.6367 20.5111C35.8428 20.9184 35.9249 21.3521 35.9632 21.8238C36 22.278 36 22.8355 36 23.511V27.273C36 27.9485 36 28.5061 35.9632 28.9602C35.9249 29.432 35.8428 29.8656 35.6367 30.2729C35.3171 30.9045 34.8072 31.4181 34.18 31.7399C33.7755 31.9474 33.3449 32.0302 32.8765 32.0687C32.4255 32.1058 31.8719 32.1058 31.2011 32.1058H25.7989C25.1281 32.1058 24.5745 32.1058 24.1235 32.0687C23.6551 32.0302 23.2245 31.9474 22.82 31.7399C22.1928 31.4181 21.6829 30.9045 21.3633 30.2729C21.1572 29.8656 21.0751 29.432 21.0368 28.9602C21 28.506 21 27.9485 21 27.273V23.5111C21 22.8355 21 22.278 21.0368 21.8238C21.0751 21.3521 21.1572 20.9184 21.3633 20.5111C21.6829 19.8795 22.1928 19.3659 22.82 19.0441C23.2245 18.8366 23.6551 18.7539 24.1235 18.7153C24.5745 18.6782 25.1281 18.6782 25.7989 18.6782ZM24.2592 20.3882C23.8939 20.4182 23.707 20.4727 23.5767 20.5396C23.2631 20.7005 23.0081 20.9573 22.8483 21.2731C22.7819 21.4044 22.7278 21.5925 22.698 21.9605C22.6673 22.3382 22.6667 22.8269 22.6667 23.5457V27.2383C22.6667 27.9572 22.6673 28.4458 22.698 28.8236C22.7278 29.1915 22.7819 29.3796 22.8483 29.5109C23.0081 29.8267 23.2631 30.0835 23.5767 30.2444C23.707 30.3113 23.8939 30.3658 24.2592 30.3958C24.6343 30.4267 25.1195 30.4273 25.8333 30.4273H31.1667C31.8805 30.4273 32.3657 30.4267 32.7408 30.3958C33.1061 30.3658 33.293 30.3113 33.4233 30.2444C33.7369 30.0835 33.9919 29.8267 34.1517 29.5109C34.2181 29.3796 34.2722 29.1915 34.302 28.8236C34.3327 28.4458 34.3333 27.9572 34.3333 27.2383V23.5457C34.3333 22.8269 34.3327 22.3382 34.302 21.9605C34.2722 21.5925 34.2181 21.4044 34.1517 21.2731C33.9919 20.9573 33.7369 20.7005 33.4233 20.5396C33.293 20.4727 33.1061 20.4182 32.7408 20.3882C32.3657 20.3573 31.8805 20.3567 31.1667 20.3567H25.8333C25.1195 20.3567 24.6343 20.3573 24.2592 20.3882Z" fill="#010101"/>
<path d="M25.9996 17.8392C25.9996 17.3757 25.6265 17 25.1663 17C24.706 17 24.3329 17.3757 24.3329 17.8392V19.5177C24.3329 19.9812 24.706 20.3569 25.1663 20.3569C25.6265 20.3569 25.9996 19.9812 25.9996 19.5177V17.8392Z" fill="#010101"/>
<path d="M32.6663 17.8392C32.6663 17.3757 32.2932 17 31.8329 17C31.3727 17 30.9996 17.3757 30.9996 17.8392V19.5177C30.9996 19.9812 31.3727 20.3569 31.8329 20.3569C32.2932 20.3569 32.6663 19.9812 32.6663 19.5177V17.8392Z" fill="#010101"/>
<path fill-rule="evenodd" clip-rule="evenodd" d="M25.1663 24.553C25.6265 24.553 25.9996 24.1772 25.9996 23.7137C25.9996 23.2502 25.6265 22.8745 25.1663 22.8745C24.706 22.8745 24.3329 23.2502 24.3329 23.7137C24.3329 24.1772 24.706 24.553 25.1663 24.553ZM29.3329 23.7137C29.3329 24.1772 28.9599 24.553 28.4996 24.553C28.0394 24.553 27.6663 24.1772 27.6663 23.7137C27.6663 23.2502 28.0394 22.8745 28.4996 22.8745C28.9599 22.8745 29.3329 23.2502 29.3329 23.7137ZM32.6663 23.7137C32.6663 24.1772 32.2932 24.553 31.8329 24.553C31.3727 24.553 30.9996 24.1772 30.9996 23.7137C30.9996 23.2502 31.3727 22.8745 31.8329 22.8745C32.2932 22.8745 32.6663 23.2502 32.6663 23.7137ZM29.3329 27.0706C29.3329 27.5341 28.9599 27.9098 28.4996 27.9098C28.0394 27.9098 27.6663 27.5341 27.6663 27.0706C27.6663 26.6071 28.0394 26.2314 28.4996 26.2314C28.9599 26.2314 29.3329 26.6071 29.3329 27.0706ZM25.1663 27.9098C25.6265 27.9098 25.9996 27.5341 25.9996 27.0706C25.9996 26.6071 25.6265 26.2314 25.1663 26.2314C24.706 26.2314 24.3329 26.6071 24.3329 27.0706C24.3329 27.5341 24.706 27.9098 25.1663 27.9098Z" fill="#010101"/>
<path fill-rule="evenodd" clip-rule="evenodd" d="M126.901 19.25C126.901 18.0074 127.902 17 129.136 17H136.583C137.817 17 138.817 18.0074 138.817 19.25V19.9781C138.817 20.7047 138.469 21.3866 137.882 21.809L134.141 24.5L137.882 27.191C138.469 27.6134 138.817 28.2953 138.817 29.0219V29.75C138.817 30.9926 137.817 32 136.583 32H129.136C127.902 32 126.901 30.9926 126.901 29.75V29.0219C126.901 28.2953 127.25 27.6134 127.837 27.191L131.578 24.5L127.837 21.809C127.25 21.3866 126.901 20.7047 126.901 19.9781V19.25ZM132.859 23.5783L137.016 20.5884C137.212 20.4476 137.328 20.2203 137.328 19.9781V19.25C137.328 18.8358 136.994 18.5 136.583 18.5H129.136C128.724 18.5 128.391 18.8358 128.391 19.25V19.9781C128.391 20.2203 128.507 20.4476 128.703 20.5884L132.859 23.5783ZM132.859 25.4217L128.703 28.4116C128.507 28.5524 128.391 28.7797 128.391 29.0219V29.75C128.391 30.1642 128.724 30.5 129.136 30.5H136.583C136.994 30.5 137.328 30.1642 137.328 29.75V29.0219C137.328 28.7797 137.212 28.5524 137.016 28.4116L132.859 25.4217Z" fill="#010101"/>
<path d="M135.838 30.4995H129.88V30.1824C129.88 29.9145 130.022 29.6669 130.252 29.5329L132.114 28.4501C132.575 28.182 133.143 28.182 133.604 28.4501L135.466 29.5329C135.696 29.6669 135.838 29.9145 135.838 30.1824V30.4995Z" fill="#010101"/>
<path d="M145.169 29C145.083 29 145.039 28.9567 145.039 28.87V20.03C145.039 19.9433 145.083 19.9 145.169 19.9H148.237C149.095 19.9 149.776 20.1253 150.278 20.576C150.79 21.0267 151.045 21.6377 151.045 22.409V26.491C151.045 27.2623 150.79 27.8733 150.278 28.324C149.776 28.7747 149.095 29 148.237 29H145.169ZM145.962 28.142C145.962 28.1767 145.98 28.194 146.014 28.194H148.276C148.84 28.194 149.286 28.0293 149.615 27.7C149.953 27.3707 150.122 26.9287 150.122 26.374V22.539C150.122 21.9757 149.958 21.5293 149.628 21.2C149.299 20.8707 148.848 20.706 148.276 20.706H146.014C145.98 20.706 145.962 20.7233 145.962 20.758V28.142ZM156.694 22.552C156.694 22.4653 156.737 22.422 156.824 22.422H157.487C157.573 22.422 157.617 22.4653 157.617 22.552V28.87C157.617 28.9567 157.573 29 157.487 29H156.824C156.737 29 156.694 28.9567 156.694 28.87V28.311C156.694 28.2937 156.685 28.2807 156.668 28.272C156.65 28.2633 156.637 28.2677 156.629 28.285C156.265 28.8223 155.688 29.091 154.9 29.091C154.484 29.091 154.098 29.0087 153.743 28.844C153.396 28.6707 153.119 28.4237 152.911 28.103C152.711 27.7823 152.612 27.3967 152.612 26.946V22.552C152.612 22.4653 152.655 22.422 152.742 22.422H153.405C153.491 22.422 153.535 22.4653 153.535 22.552V26.673C153.535 27.167 153.673 27.5613 153.951 27.856C154.228 28.142 154.605 28.285 155.082 28.285C155.576 28.285 155.966 28.1377 156.252 27.843C156.546 27.5483 156.694 27.1583 156.694 26.673V22.552ZM162.338 22.357C162.624 22.357 162.871 22.4133 163.079 22.526C163.148 22.5607 163.174 22.617 163.157 22.695L163.014 23.332C162.988 23.4187 162.931 23.4447 162.845 23.41C162.697 23.3493 162.528 23.319 162.338 23.319L162.169 23.332C161.718 23.3493 161.345 23.5183 161.051 23.839C160.756 24.151 160.609 24.5497 160.609 25.035V28.87C160.609 28.9567 160.565 29 160.479 29H159.816C159.729 29 159.686 28.9567 159.686 28.87V22.552C159.686 22.4653 159.729 22.422 159.816 22.422H160.479C160.565 22.422 160.609 22.4653 160.609 22.552V23.345C160.609 23.371 160.613 23.3883 160.622 23.397C160.639 23.397 160.652 23.3883 160.661 23.371C160.843 23.0503 161.072 22.8033 161.35 22.63C161.636 22.448 161.965 22.357 162.338 22.357ZM166.67 22.318C167.45 22.318 168.053 22.5173 168.477 22.916C168.902 23.3147 169.114 23.8433 169.114 24.502V28.87C169.114 28.9567 169.071 29 168.984 29H168.321C168.235 29 168.191 28.9567 168.191 28.87V28.337C168.191 28.3197 168.183 28.3067 168.165 28.298C168.157 28.2893 168.144 28.2937 168.126 28.311C167.91 28.571 167.628 28.7703 167.281 28.909C166.935 29.039 166.549 29.104 166.124 29.104C165.509 29.104 164.993 28.948 164.577 28.636C164.161 28.324 163.953 27.8473 163.953 27.206C163.953 26.556 164.187 26.0447 164.655 25.672C165.132 25.2907 165.791 25.1 166.631 25.1H168.139C168.174 25.1 168.191 25.0827 168.191 25.048V24.554C168.191 24.112 168.066 23.7653 167.814 23.514C167.572 23.254 167.19 23.124 166.67 23.124C166.254 23.124 165.916 23.2063 165.656 23.371C165.396 23.527 165.236 23.748 165.175 24.034C165.149 24.1207 165.097 24.1597 165.019 24.151L164.317 24.06C164.222 24.0427 164.183 24.008 164.2 23.956C164.27 23.4707 164.53 23.0763 164.98 22.773C165.431 22.4697 165.994 22.318 166.67 22.318ZM166.306 28.311C166.818 28.311 167.26 28.1853 167.632 27.934C168.005 27.674 168.191 27.3273 168.191 26.894V25.88C168.191 25.8453 168.174 25.828 168.139 25.828H166.774C166.202 25.828 165.743 25.945 165.396 26.179C165.05 26.413 164.876 26.738 164.876 27.154C164.876 27.5353 165.006 27.8257 165.266 28.025C165.535 28.2157 165.882 28.311 166.306 28.311ZM173.518 29.104C172.894 29.104 172.357 28.9437 171.906 28.623C171.464 28.2937 171.161 27.8517 170.996 27.297C170.883 26.9157 170.827 26.3783 170.827 25.685C170.827 25.061 170.883 24.5323 170.996 24.099C171.152 23.5617 171.455 23.1327 171.906 22.812C172.357 22.4827 172.894 22.318 173.518 22.318C174.151 22.318 174.697 22.4783 175.156 22.799C175.624 23.1197 175.927 23.5183 176.066 23.995C176.109 24.151 176.135 24.281 176.144 24.385V24.411C176.144 24.4717 176.105 24.5107 176.027 24.528L175.377 24.619H175.351C175.29 24.619 175.251 24.58 175.234 24.502L175.195 24.307C175.117 23.9777 174.926 23.7003 174.623 23.475C174.32 23.241 173.951 23.124 173.518 23.124C173.085 23.124 172.721 23.241 172.426 23.475C172.14 23.7003 171.954 24.0037 171.867 24.385C171.789 24.7143 171.75 25.152 171.75 25.698C171.75 26.27 171.789 26.712 171.867 27.024C171.954 27.414 172.14 27.726 172.426 27.96C172.721 28.1853 173.085 28.298 173.518 28.298C173.943 28.298 174.307 28.1897 174.61 27.973C174.922 27.7477 175.117 27.4617 175.195 27.115V27.063L175.208 27.011C175.217 26.9243 175.269 26.8897 175.364 26.907L176.001 27.011C176.088 27.0283 176.127 27.076 176.118 27.154L176.066 27.414C175.936 27.9167 175.637 28.324 175.169 28.636C174.701 28.948 174.151 29.104 173.518 29.104ZM178.413 21.226C178.205 21.226 178.032 21.1567 177.893 21.018C177.754 20.8793 177.685 20.706 177.685 20.498C177.685 20.2813 177.754 20.108 177.893 19.978C178.032 19.8393 178.205 19.77 178.413 19.77C178.621 19.77 178.794 19.8393 178.933 19.978C179.072 20.108 179.141 20.2813 179.141 20.498C179.141 20.706 179.072 20.8793 178.933 21.018C178.794 21.1567 178.621 21.226 178.413 21.226ZM178.049 28.987C177.962 28.987 177.919 28.9437 177.919 28.857V22.539C177.919 22.4523 177.962 22.409 178.049 22.409H178.712C178.799 22.409 178.842 22.4523 178.842 22.539V28.857C178.842 28.9437 178.799 28.987 178.712 28.987H178.049ZM183.612 29.104C182.988 29.104 182.45 28.9437 182 28.623C181.549 28.3023 181.237 27.8603 181.064 27.297C180.942 26.8983 180.882 26.3653 180.882 25.698C180.882 25.0307 180.942 24.502 181.064 24.112C181.228 23.5573 181.536 23.1197 181.987 22.799C182.437 22.4783 182.983 22.318 183.625 22.318C184.24 22.318 184.769 22.4783 185.211 22.799C185.661 23.1197 185.969 23.553 186.134 24.099C186.255 24.4717 186.316 25.0047 186.316 25.698C186.316 26.4 186.255 26.933 186.134 27.297C185.969 27.8603 185.661 28.3023 185.211 28.623C184.769 28.9437 184.236 29.104 183.612 29.104ZM183.612 28.298C184.028 28.298 184.383 28.1853 184.678 27.96C184.972 27.726 185.172 27.414 185.276 27.024C185.354 26.712 185.393 26.2743 185.393 25.711C185.393 25.139 185.358 24.7013 185.289 24.398C185.185 24.008 184.981 23.7003 184.678 23.475C184.383 23.241 184.023 23.124 183.599 23.124C183.174 23.124 182.814 23.241 182.52 23.475C182.225 23.7003 182.026 24.008 181.922 24.398C181.852 24.7013 181.818 25.139 181.818 25.711C181.818 26.283 181.852 26.7207 181.922 27.024C182.017 27.414 182.212 27.726 182.507 27.96C182.81 28.1853 183.178 28.298 183.612 28.298ZM183.118 21.564C183.066 21.564 183.031 21.551 183.014 21.525C182.996 21.4903 183.001 21.4513 183.027 21.408L183.807 19.991C183.833 19.9303 183.885 19.9 183.963 19.9H184.548C184.6 19.9 184.63 19.9173 184.639 19.952C184.656 19.978 184.652 20.0127 184.626 20.056L183.742 21.473C183.698 21.5337 183.646 21.564 183.586 21.564H183.118ZM190.802 22.331C191.496 22.331 192.046 22.5347 192.453 22.942C192.869 23.3493 193.077 23.8953 193.077 24.58V28.87C193.077 28.9567 193.034 29 192.947 29H192.284C192.198 29 192.154 28.9567 192.154 28.87V24.762C192.154 24.2853 192.007 23.8953 191.712 23.592C191.426 23.2887 191.054 23.137 190.594 23.137C190.118 23.137 189.732 23.2843 189.437 23.579C189.143 23.8737 188.995 24.2593 188.995 24.736V28.87C188.995 28.9567 188.952 29 188.865 29H188.202C188.116 29 188.072 28.9567 188.072 28.87V22.552C188.072 22.4653 188.116 22.422 188.202 22.422H188.865C188.952 22.422 188.995 22.4653 188.995 22.552V23.111C188.995 23.1283 189 23.1413 189.008 23.15C189.026 23.1587 189.039 23.1543 189.047 23.137C189.429 22.5997 190.014 22.331 190.802 22.331ZM196.237 24.45C196.02 24.45 195.843 24.3807 195.704 24.242C195.574 24.1033 195.509 23.93 195.509 23.722C195.509 23.5053 195.574 23.332 195.704 23.202C195.843 23.0633 196.02 22.994 196.237 22.994C196.445 22.994 196.618 23.0633 196.757 23.202C196.896 23.332 196.965 23.5053 196.965 23.722C196.965 23.93 196.896 24.1033 196.757 24.242C196.618 24.3807 196.445 24.45 196.237 24.45ZM196.237 28.831C196.02 28.831 195.843 28.7617 195.704 28.623C195.574 28.4843 195.509 28.311 195.509 28.103C195.509 27.8863 195.574 27.713 195.704 27.583C195.843 27.4443 196.02 27.375 196.237 27.375C196.445 27.375 196.618 27.4443 196.757 27.583C196.896 27.713 196.965 27.8863 196.965 28.103C196.965 28.311 196.896 28.4843 196.757 28.623C196.618 28.7617 196.445 28.831 196.237 28.831ZM150.603 38.256C150.647 38.256 150.681 38.2733 150.707 38.308C150.742 38.334 150.759 38.3687 150.759 38.412V39.452C150.759 39.4953 150.742 39.5343 150.707 39.569C150.681 39.595 150.647 39.608 150.603 39.608H150.057C150.014 39.608 149.992 39.6297 149.992 39.673V41.844C149.992 41.8873 149.975 41.9263 149.94 41.961C149.914 41.987 149.88 42 149.836 42H148.64C148.597 42 148.558 41.987 148.523 41.961C148.497 41.9263 148.484 41.8873 148.484 41.844V39.673C148.484 39.6297 148.463 39.608 148.419 39.608H144.467C144.424 39.608 144.385 39.595 144.35 39.569C144.324 39.5343 144.311 39.4953 144.311 39.452V38.62C144.311 38.568 144.324 38.503 144.35 38.425L146.807 33.017C146.842 32.939 146.903 32.9 146.989 32.9H148.263C148.324 32.9 148.363 32.9173 148.38 32.952C148.406 32.978 148.406 33.0213 148.38 33.082L146.066 38.178C146.058 38.1953 146.058 38.2127 146.066 38.23C146.075 38.2473 146.088 38.256 146.105 38.256H148.419C148.463 38.256 148.484 38.2343 148.484 38.191V36.423C148.484 36.3797 148.497 36.345 148.523 36.319C148.558 36.2843 148.597 36.267 148.64 36.267H149.836C149.88 36.267 149.914 36.2843 149.94 36.319C149.975 36.345 149.992 36.3797 149.992 36.423V38.191C149.992 38.2343 150.014 38.256 150.057 38.256H150.603ZM158.015 35.253C158.717 35.253 159.276 35.461 159.692 35.877C160.117 36.293 160.329 36.8607 160.329 37.58V41.844C160.329 41.8873 160.312 41.9263 160.277 41.961C160.251 41.987 160.217 42 160.173 42H158.977C158.934 42 158.895 41.987 158.86 41.961C158.834 41.9263 158.821 41.8873 158.821 41.844V37.892C158.821 37.4933 158.709 37.1727 158.483 36.93C158.258 36.6787 157.959 36.553 157.586 36.553C157.214 36.553 156.91 36.6743 156.676 36.917C156.451 37.1597 156.338 37.4803 156.338 37.879V41.844C156.338 41.8873 156.321 41.9263 156.286 41.961C156.26 41.987 156.226 42 156.182 42H154.986C154.943 42 154.904 41.987 154.869 41.961C154.843 41.9263 154.83 41.8873 154.83 41.844V33.056C154.83 33.0127 154.843 32.978 154.869 32.952C154.904 32.9173 154.943 32.9 154.986 32.9H156.182C156.226 32.9 156.26 32.9173 156.286 32.952C156.321 32.978 156.338 33.0127 156.338 33.056V35.929C156.338 35.955 156.347 35.9723 156.364 35.981C156.382 35.9897 156.395 35.981 156.403 35.955C156.759 35.487 157.296 35.253 158.015 35.253ZM164.672 42.104C163.987 42.104 163.398 41.9307 162.904 41.584C162.419 41.2373 162.076 40.7563 161.877 40.141C161.73 39.673 161.656 39.179 161.656 38.659C161.656 38.1043 161.725 37.6103 161.864 37.177C162.063 36.5703 162.41 36.098 162.904 35.76C163.398 35.422 163.992 35.253 164.685 35.253C165.344 35.253 165.911 35.422 166.388 35.76C166.873 36.098 167.216 36.566 167.415 37.164C167.571 37.58 167.649 38.074 167.649 38.646C167.649 39.192 167.575 39.686 167.428 40.128C167.229 40.7433 166.886 41.2287 166.401 41.584C165.916 41.9307 165.339 42.104 164.672 42.104ZM164.672 40.804C164.993 40.804 165.266 40.713 165.491 40.531C165.725 40.349 165.894 40.0933 165.998 39.764C166.085 39.478 166.128 39.114 166.128 38.672C166.128 38.204 166.085 37.84 165.998 37.58C165.903 37.2507 165.738 36.9993 165.504 36.826C165.27 36.644 164.984 36.553 164.646 36.553C164.325 36.553 164.048 36.644 163.814 36.826C163.58 36.9993 163.411 37.2507 163.307 37.58C163.22 37.8833 163.177 38.2473 163.177 38.672C163.177 39.0967 163.22 39.4607 163.307 39.764C163.402 40.0933 163.567 40.349 163.801 40.531C164.044 40.713 164.334 40.804 164.672 40.804ZM172.169 35.279C172.446 35.279 172.689 35.3353 172.897 35.448C172.966 35.4827 172.992 35.5477 172.975 35.643L172.754 36.813C172.745 36.917 172.684 36.9473 172.572 36.904C172.442 36.8607 172.29 36.839 172.117 36.839C172.004 36.839 171.917 36.8433 171.857 36.852C171.493 36.8693 171.189 36.9993 170.947 37.242C170.704 37.476 170.583 37.7837 170.583 38.165V41.844C170.583 41.8873 170.565 41.9263 170.531 41.961C170.505 41.987 170.47 42 170.427 42H169.231C169.187 42 169.148 41.987 169.114 41.961C169.088 41.9263 169.075 41.8873 169.075 41.844V35.513C169.075 35.4697 169.088 35.435 169.114 35.409C169.148 35.3743 169.187 35.357 169.231 35.357H170.427C170.47 35.357 170.505 35.3743 170.531 35.409C170.565 35.435 170.583 35.4697 170.583 35.513V36.098C170.583 36.1327 170.587 36.1543 170.596 36.163C170.613 36.163 170.63 36.15 170.648 36.124C171.012 35.5607 171.519 35.279 172.169 35.279ZM176.434 35.253C176.98 35.253 177.461 35.3483 177.877 35.539C178.293 35.7297 178.613 35.994 178.839 36.332C179.064 36.6613 179.177 37.0383 179.177 37.463V41.844C179.177 41.8873 179.159 41.9263 179.125 41.961C179.099 41.987 179.064 42 179.021 42H177.825C177.781 42 177.742 41.987 177.708 41.961C177.682 41.9263 177.669 41.8873 177.669 41.844V41.428C177.669 41.402 177.66 41.389 177.643 41.389C177.625 41.3803 177.608 41.3847 177.591 41.402C177.166 41.87 176.551 42.104 175.745 42.104C175.095 42.104 174.557 41.9393 174.133 41.61C173.717 41.2807 173.509 40.791 173.509 40.141C173.509 39.465 173.743 38.9407 174.211 38.568C174.687 38.1867 175.355 37.996 176.213 37.996H177.604C177.647 37.996 177.669 37.9743 177.669 37.931V37.619C177.669 37.281 177.569 37.021 177.37 36.839C177.17 36.6483 176.871 36.553 176.473 36.553C176.143 36.553 175.875 36.6137 175.667 36.735C175.467 36.8477 175.342 37.008 175.29 37.216C175.264 37.32 175.203 37.3633 175.108 37.346L173.847 37.19C173.803 37.1813 173.764 37.1683 173.73 37.151C173.704 37.125 173.695 37.0947 173.704 37.06C173.773 36.5313 174.055 36.098 174.549 35.76C175.051 35.422 175.68 35.253 176.434 35.253ZM176.122 40.908C176.546 40.908 176.91 40.7953 177.214 40.57C177.517 40.3447 177.669 40.0587 177.669 39.712V39.101C177.669 39.0577 177.647 39.036 177.604 39.036H176.512C176.052 39.036 175.688 39.1227 175.42 39.296C175.16 39.4693 175.03 39.7163 175.03 40.037C175.03 40.3143 175.129 40.531 175.329 40.687C175.537 40.8343 175.801 40.908 176.122 40.908ZM183.161 42.078C182.615 42.078 182.134 42 181.718 41.844C181.31 41.6793 180.994 41.4583 180.769 41.181C180.543 40.895 180.431 40.5787 180.431 40.232V40.115C180.431 40.0717 180.444 40.037 180.47 40.011C180.504 39.9763 180.543 39.959 180.587 39.959H181.731C181.774 39.959 181.809 39.9763 181.835 40.011C181.869 40.037 181.887 40.0717 181.887 40.115V40.141C181.887 40.3577 182.004 40.5483 182.238 40.713C182.48 40.869 182.784 40.947 183.148 40.947C183.494 40.947 183.776 40.8777 183.993 40.739C184.209 40.5917 184.318 40.4097 184.318 40.193C184.318 39.9937 184.227 39.8463 184.045 39.751C183.871 39.647 183.585 39.5387 183.187 39.426L182.693 39.27C182.251 39.14 181.878 39.0013 181.575 38.854C181.271 38.7067 181.016 38.5073 180.808 38.256C180.6 37.996 180.496 37.6667 180.496 37.268C180.496 36.6613 180.734 36.1803 181.211 35.825C181.687 35.461 182.316 35.279 183.096 35.279C183.624 35.279 184.088 35.3657 184.487 35.539C184.885 35.7037 185.193 35.9377 185.41 36.241C185.626 36.5357 185.735 36.8737 185.735 37.255C185.735 37.2983 185.717 37.3373 185.683 37.372C185.657 37.398 185.622 37.411 185.579 37.411H184.474C184.43 37.411 184.391 37.398 184.357 37.372C184.331 37.3373 184.318 37.2983 184.318 37.255C184.318 37.0297 184.205 36.8433 183.98 36.696C183.763 36.54 183.464 36.462 183.083 36.462C182.745 36.462 182.467 36.527 182.251 36.657C182.043 36.7783 181.939 36.9517 181.939 37.177C181.939 37.385 182.038 37.5453 182.238 37.658C182.446 37.762 182.788 37.879 183.265 38.009L183.551 38.087C184.01 38.2257 184.396 38.3687 184.708 38.516C185.02 38.6547 185.284 38.854 185.501 39.114C185.717 39.3653 185.826 39.6947 185.826 40.102C185.826 40.7173 185.583 41.2027 185.098 41.558C184.612 41.9047 183.967 42.078 183.161 42.078Z" fill="#010101"/>
<path d="M251.019 29C250.932 29 250.889 28.9567 250.889 28.87V20.03C250.889 19.9433 250.932 19.9 251.019 19.9H251.682C251.769 19.9 251.812 19.9433 251.812 20.03V28.87C251.812 28.9567 251.769 29 251.682 29H251.019ZM256.801 22.331C257.495 22.331 258.045 22.5347 258.452 22.942C258.868 23.3493 259.076 23.8953 259.076 24.58V28.87C259.076 28.9567 259.033 29 258.946 29H258.283C258.197 29 258.153 28.9567 258.153 28.87V24.762C258.153 24.2853 258.006 23.8953 257.711 23.592C257.425 23.2887 257.053 23.137 256.593 23.137C256.117 23.137 255.731 23.2843 255.436 23.579C255.142 23.8737 254.994 24.2593 254.994 24.736V28.87C254.994 28.9567 254.951 29 254.864 29H254.201C254.115 29 254.071 28.9567 254.071 28.87V22.552C254.071 22.4653 254.115 22.422 254.201 22.422H254.864C254.951 22.422 254.994 22.4653 254.994 22.552V23.111C254.994 23.1283 254.999 23.1413 255.007 23.15C255.025 23.1587 255.038 23.1543 255.046 23.137C255.428 22.5997 256.013 22.331 256.801 22.331ZM261.703 21.226C261.495 21.226 261.322 21.1567 261.183 21.018C261.044 20.8793 260.975 20.706 260.975 20.498C260.975 20.2813 261.044 20.108 261.183 19.978C261.322 19.8393 261.495 19.77 261.703 19.77C261.911 19.77 262.084 19.8393 262.223 19.978C262.362 20.108 262.431 20.2813 262.431 20.498C262.431 20.706 262.362 20.8793 262.223 21.018C262.084 21.1567 261.911 21.226 261.703 21.226ZM261.339 28.987C261.252 28.987 261.209 28.9437 261.209 28.857V22.539C261.209 22.4523 261.252 22.409 261.339 22.409H262.002C262.089 22.409 262.132 22.4523 262.132 22.539V28.857C262.132 28.9437 262.089 28.987 262.002 28.987H261.339ZM266.876 29.104C266.252 29.104 265.714 28.9437 265.264 28.623C264.822 28.2937 264.518 27.8517 264.354 27.297C264.241 26.9157 264.185 26.3783 264.185 25.685C264.185 25.061 264.241 24.5323 264.354 24.099C264.51 23.5617 264.813 23.1327 265.264 22.812C265.714 22.4827 266.252 22.318 266.876 22.318C267.508 22.318 268.054 22.4783 268.514 22.799C268.982 23.1197 269.285 23.5183 269.424 23.995C269.467 24.151 269.493 24.281 269.502 24.385V24.411C269.502 24.4717 269.463 24.5107 269.385 24.528L268.735 24.619H268.709C268.648 24.619 268.609 24.58 268.592 24.502L268.553 24.307C268.475 23.9777 268.284 23.7003 267.981 23.475C267.677 23.241 267.309 23.124 266.876 23.124C266.442 23.124 266.078 23.241 265.784 23.475C265.498 23.7003 265.311 24.0037 265.225 24.385C265.147 24.7143 265.108 25.152 265.108 25.698C265.108 26.27 265.147 26.712 265.225 27.024C265.311 27.414 265.498 27.726 265.784 27.96C266.078 28.1853 266.442 28.298 266.876 28.298C267.3 28.298 267.664 28.1897 267.968 27.973C268.28 27.7477 268.475 27.4617 268.553 27.115V27.063L268.566 27.011C268.574 26.9243 268.626 26.8897 268.722 26.907L269.359 27.011C269.445 27.0283 269.484 27.076 269.476 27.154L269.424 27.414C269.294 27.9167 268.995 28.324 268.527 28.636C268.059 28.948 267.508 29.104 266.876 29.104ZM271.77 21.226C271.562 21.226 271.389 21.1567 271.25 21.018C271.112 20.8793 271.042 20.706 271.042 20.498C271.042 20.2813 271.112 20.108 271.25 19.978C271.389 19.8393 271.562 19.77 271.77 19.77C271.978 19.77 272.152 19.8393 272.29 19.978C272.429 20.108 272.498 20.2813 272.498 20.498C272.498 20.706 272.429 20.8793 272.29 21.018C272.152 21.1567 271.978 21.226 271.77 21.226ZM271.406 28.987C271.32 28.987 271.276 28.9437 271.276 28.857V22.539C271.276 22.4523 271.32 22.409 271.406 22.409H272.069C272.156 22.409 272.199 22.4523 272.199 22.539V28.857C272.199 28.9437 272.156 28.987 272.069 28.987H271.406ZM276.735 22.318C277.515 22.318 278.117 22.5173 278.542 22.916C278.967 23.3147 279.179 23.8433 279.179 24.502V28.87C279.179 28.9567 279.136 29 279.049 29H278.386C278.299 29 278.256 28.9567 278.256 28.87V28.337C278.256 28.3197 278.247 28.3067 278.23 28.298C278.221 28.2893 278.208 28.2937 278.191 28.311C277.974 28.571 277.693 28.7703 277.346 28.909C276.999 29.039 276.614 29.104 276.189 29.104C275.574 29.104 275.058 28.948 274.642 28.636C274.226 28.324 274.018 27.8473 274.018 27.206C274.018 26.556 274.252 26.0447 274.72 25.672C275.197 25.2907 275.855 25.1 276.696 25.1H278.204C278.239 25.1 278.256 25.0827 278.256 25.048V24.554C278.256 24.112 278.13 23.7653 277.879 23.514C277.636 23.254 277.255 23.124 276.735 23.124C276.319 23.124 275.981 23.2063 275.721 23.371C275.461 23.527 275.301 23.748 275.24 24.034C275.214 24.1207 275.162 24.1597 275.084 24.151L274.382 24.06C274.287 24.0427 274.248 24.008 274.265 23.956C274.334 23.4707 274.594 23.0763 275.045 22.773C275.496 22.4697 276.059 22.318 276.735 22.318ZM276.371 28.311C276.882 28.311 277.324 28.1853 277.697 27.934C278.07 27.674 278.256 27.3273 278.256 26.894V25.88C278.256 25.8453 278.239 25.828 278.204 25.828H276.839C276.267 25.828 275.808 25.945 275.461 26.179C275.114 26.413 274.941 26.738 274.941 27.154C274.941 27.5353 275.071 27.8257 275.331 28.025C275.6 28.2157 275.946 28.311 276.371 28.311ZM282.257 24.45C282.04 24.45 281.862 24.3807 281.724 24.242C281.594 24.1033 281.529 23.93 281.529 23.722C281.529 23.5053 281.594 23.332 281.724 23.202C281.862 23.0633 282.04 22.994 282.257 22.994C282.465 22.994 282.638 23.0633 282.777 23.202C282.915 23.332 282.985 23.5053 282.985 23.722C282.985 23.93 282.915 24.1033 282.777 24.242C282.638 24.3807 282.465 24.45 282.257 24.45ZM282.257 28.831C282.04 28.831 281.862 28.7617 281.724 28.623C281.594 28.4843 281.529 28.311 281.529 28.103C281.529 27.8863 281.594 27.713 281.724 27.583C281.862 27.4443 282.04 27.375 282.257 27.375C282.465 27.375 282.638 27.4443 282.777 27.583C282.915 27.713 282.985 27.8863 282.985 28.103C282.985 28.311 282.915 28.4843 282.777 28.623C282.638 28.7617 282.465 28.831 282.257 28.831ZM253.346 42.143C252.436 42.143 251.712 41.8873 251.175 41.376C250.646 40.856 250.382 40.1583 250.382 39.283V35.617C250.382 34.7503 250.646 34.0657 251.175 33.563C251.712 33.0517 252.436 32.796 253.346 32.796C254.256 32.796 254.98 33.0517 255.517 33.563C256.063 34.0657 256.336 34.7503 256.336 35.617V39.283C256.336 40.1583 256.063 40.856 255.517 41.376C254.98 41.8873 254.256 42.143 253.346 42.143ZM253.346 40.83C253.797 40.83 254.156 40.7 254.425 40.44C254.694 40.1713 254.828 39.8117 254.828 39.361V35.565C254.828 35.1143 254.694 34.759 254.425 34.499C254.156 34.2303 253.797 34.096 253.346 34.096C252.904 34.096 252.549 34.2303 252.28 34.499C252.02 34.759 251.89 35.1143 251.89 35.565V39.361C251.89 39.8117 252.02 40.1713 252.28 40.44C252.549 40.7 252.904 40.83 253.346 40.83ZM263.049 34.512C263.187 34.876 263.257 35.3007 263.257 35.786V39.751C263.257 40.219 263.14 40.6307 262.906 40.986C262.672 41.3413 262.342 41.6187 261.918 41.818C261.502 42.0087 261.021 42.104 260.475 42.104C259.946 42.104 259.474 42.0087 259.058 41.818C258.65 41.6273 258.33 41.3587 258.096 41.012C257.87 40.6653 257.758 40.2667 257.758 39.816V39.53C257.758 39.4867 257.771 39.452 257.797 39.426C257.831 39.3913 257.87 39.374 257.914 39.374H259.11C259.153 39.374 259.188 39.3913 259.214 39.426C259.248 39.452 259.266 39.4867 259.266 39.53V39.621C259.266 39.9677 259.378 40.2537 259.604 40.479C259.829 40.6957 260.119 40.804 260.475 40.804C260.847 40.804 261.151 40.6913 261.385 40.466C261.627 40.232 261.749 39.933 261.749 39.569V38.139C261.749 38.113 261.74 38.0957 261.723 38.087C261.705 38.0783 261.688 38.0827 261.671 38.1C261.298 38.464 260.791 38.646 260.15 38.646C259.638 38.646 259.188 38.5377 258.798 38.321C258.416 38.1043 258.117 37.7923 257.901 37.385C257.658 36.9517 257.537 36.4143 257.537 35.773C257.537 35.2443 257.623 34.7807 257.797 34.382C258.005 33.888 258.334 33.5023 258.785 33.225C259.235 32.9477 259.768 32.809 260.384 32.809C261.034 32.809 261.588 32.9607 262.048 33.264C262.516 33.5587 262.849 33.9747 263.049 34.512ZM261.541 36.722C261.679 36.4447 261.749 36.1067 261.749 35.708C261.749 35.3787 261.692 35.0883 261.58 34.837C261.372 34.3603 260.982 34.122 260.41 34.122C259.855 34.122 259.465 34.356 259.24 34.824C259.11 35.11 259.045 35.4177 259.045 35.747C259.045 36.137 259.123 36.4707 259.279 36.748C259.521 37.164 259.894 37.372 260.397 37.372C260.934 37.372 261.315 37.1553 261.541 36.722ZM266.199 37.606C265.93 37.606 265.709 37.5193 265.536 37.346C265.363 37.1727 265.276 36.9517 265.276 36.683C265.276 36.4143 265.363 36.1933 265.536 36.02C265.709 35.8467 265.93 35.76 266.199 35.76C266.468 35.76 266.684 35.8467 266.849 36.02C267.022 36.1933 267.109 36.4143 267.109 36.683C267.109 36.9517 267.022 37.1727 266.849 37.346C266.676 37.5193 266.459 37.606 266.199 37.606ZM266.199 41.896C265.93 41.896 265.709 41.8093 265.536 41.636C265.363 41.4627 265.276 41.2417 265.276 40.973C265.276 40.7043 265.363 40.4833 265.536 40.31C265.709 40.1367 265.93 40.05 266.199 40.05C266.468 40.05 266.684 40.1367 266.849 40.31C267.022 40.4833 267.109 40.7043 267.109 40.973C267.109 41.2417 267.022 41.4627 266.849 41.636C266.676 41.8093 266.459 41.896 266.199 41.896ZM272.211 42.143C271.301 42.143 270.578 41.8873 270.04 41.376C269.512 40.856 269.247 40.1583 269.247 39.283V35.617C269.247 34.7503 269.512 34.0657 270.04 33.563C270.578 33.0517 271.301 32.796 272.211 32.796C273.121 32.796 273.845 33.0517 274.382 33.563C274.928 34.0657 275.201 34.7503 275.201 35.617V39.283C275.201 40.1583 274.928 40.856 274.382 41.376C273.845 41.8873 273.121 42.143 272.211 42.143ZM272.211 40.83C272.662 40.83 273.022 40.7 273.29 40.44C273.559 40.1713 273.693 39.8117 273.693 39.361V35.565C273.693 35.1143 273.559 34.759 273.29 34.499C273.022 34.2303 272.662 34.096 272.211 34.096C271.769 34.096 271.414 34.2303 271.145 34.499C270.885 34.759 270.755 35.1143 270.755 35.565V39.361C270.755 39.8117 270.885 40.1713 271.145 40.44C271.414 40.7 271.769 40.83 272.211 40.83ZM279.6 42.143C278.69 42.143 277.966 41.8873 277.429 41.376C276.9 40.856 276.636 40.1583 276.636 39.283V35.617C276.636 34.7503 276.9 34.0657 277.429 33.563C277.966 33.0517 278.69 32.796 279.6 32.796C280.51 32.796 281.234 33.0517 281.771 33.563C282.317 34.0657 282.59 34.7503 282.59 35.617V39.283C282.59 40.1583 282.317 40.856 281.771 41.376C281.234 41.8873 280.51 42.143 279.6 42.143ZM279.6 40.83C280.051 40.83 280.41 40.7 280.679 40.44C280.948 40.1713 281.082 39.8117 281.082 39.361V35.565C281.082 35.1143 280.948 34.759 280.679 34.499C280.41 34.2303 280.051 34.096 279.6 34.096C279.158 34.096 278.803 34.2303 278.534 34.499C278.274 34.759 278.144 35.1143 278.144 35.565V39.361C278.144 39.8117 278.274 40.1713 278.534 40.44C278.803 40.7 279.158 40.83 279.6 40.83ZM292.503 42C292.416 42 292.36 41.9567 292.334 41.87L291.905 40.479C291.888 40.4443 291.866 40.427 291.84 40.427H288.408C288.382 40.427 288.36 40.4443 288.343 40.479L287.914 41.87C287.888 41.9567 287.832 42 287.745 42H286.445C286.393 42 286.354 41.987 286.328 41.961C286.302 41.9263 286.298 41.8787 286.315 41.818L289.136 33.03C289.162 32.9433 289.218 32.9 289.305 32.9H290.93C291.017 32.9 291.073 32.9433 291.099 33.03L293.933 41.818C293.942 41.8353 293.946 41.857 293.946 41.883C293.946 41.961 293.898 42 293.803 42H292.503ZM288.746 39.166C288.737 39.218 288.755 39.244 288.798 39.244H291.437C291.489 39.244 291.506 39.218 291.489 39.166L290.15 34.811C290.141 34.7763 290.128 34.759 290.111 34.759C290.094 34.759 290.081 34.7763 290.072 34.811L288.746 39.166ZM301.154 33.004C301.197 32.9347 301.258 32.9 301.336 32.9H302.532C302.575 32.9 302.61 32.9173 302.636 32.952C302.67 32.978 302.688 33.0127 302.688 33.056V41.844C302.688 41.8873 302.67 41.9263 302.636 41.961C302.61 41.987 302.575 42 302.532 42H301.336C301.292 42 301.253 41.987 301.219 41.961C301.193 41.9263 301.18 41.8873 301.18 41.844V35.643C301.18 35.617 301.167 35.5997 301.141 35.591C301.123 35.5823 301.11 35.591 301.102 35.617L299.477 38.113C299.433 38.1823 299.373 38.217 299.295 38.217H298.697C298.619 38.217 298.558 38.1823 298.515 38.113L296.877 35.63C296.868 35.604 296.851 35.5953 296.825 35.604C296.807 35.6127 296.799 35.63 296.799 35.656V41.844C296.799 41.8873 296.781 41.9263 296.747 41.961C296.721 41.987 296.686 42 296.643 42H295.447C295.403 42 295.364 41.987 295.33 41.961C295.304 41.9263 295.291 41.8873 295.291 41.844V33.056C295.291 33.0127 295.304 32.978 295.33 32.952C295.364 32.9173 295.403 32.9 295.447 32.9H296.643C296.721 32.9 296.781 32.9347 296.825 33.004L298.944 36.215C298.961 36.2323 298.978 36.241 298.996 36.241C299.013 36.241 299.026 36.2323 299.035 36.215L301.154 33.004Z" fill="#010101"/>
<path fill-rule="evenodd" clip-rule="evenodd" d="M237.703 20C234.823 20 232.489 22.3505 232.489 25.25C232.489 28.1495 234.823 30.5 237.703 30.5C240.582 30.5 242.916 28.1495 242.916 25.25C242.916 22.3505 240.582 20 237.703 20ZM231 25.25C231 21.5221 234.001 18.5 237.703 18.5C241.404 18.5 244.405 21.5221 244.405 25.25C244.405 28.9779 241.404 32 237.703 32C234.001 32 231 28.9779 231 25.25Z" fill="#010101"/>
<path fill-rule="evenodd" clip-rule="evenodd" d="M237.703 21.5C238.114 21.5 238.448 21.8358 238.448 22.25V24.9393L239.719 26.2197C240.01 26.5126 240.01 26.9874 239.719 27.2803C239.428 27.5732 238.957 27.5732 238.666 27.2803L237.176 25.7803C237.037 25.6397 236.958 25.4489 236.958 25.25V22.25C236.958 21.8358 237.292 21.5 237.703 21.5Z" fill="#010101"/>
<path d="M232.192 19.475C231.863 19.7236 231.396 19.6564 231.149 19.325C230.902 18.9937 230.969 18.5236 231.298 18.275L232.787 17.15C233.116 16.9015 233.583 16.9687 233.83 17.3C234.077 17.6314 234.01 18.1015 233.681 18.35L232.192 19.475Z" fill="#010101"/>
<path d="M242.618 17.1501C242.289 16.9016 241.822 16.9688 241.575 17.3001C241.329 17.6315 241.395 18.1016 241.724 18.3501L243.214 19.4751C243.543 19.7237 244.01 19.6565 244.256 19.3251C244.503 18.9938 244.436 18.5237 244.107 18.2751L242.618 17.1501Z" fill="#010101"/>
<path fill-rule="evenodd" clip-rule="evenodd" d="M341.966 27.5C340.658 27.5 339.597 28.5074 339.597 29.75C339.597 30.1642 339.951 30.5 340.387 30.5H345.124C345.56 30.5 345.913 30.8358 345.913 31.25C345.913 31.6642 345.56 32 345.124 32H340.387C339.079 32 338.019 30.9926 338.019 29.75C338.019 27.6789 339.786 26 341.966 26H347.492C347.928 26 348.281 26.3358 348.281 26.75C348.281 27.1642 347.928 27.5 347.492 27.5H341.966Z" fill="#010101"/>
<path fill-rule="evenodd" clip-rule="evenodd" d="M344.334 18.5C343.026 18.5 341.966 19.5074 341.966 20.75C341.966 21.9926 343.026 23 344.334 23C345.642 23 346.702 21.9926 346.702 20.75C346.702 19.5074 345.642 18.5 344.334 18.5ZM340.387 20.75C340.387 18.6789 342.154 17 344.334 17C346.514 17 348.281 18.6789 348.281 20.75C348.281 22.8211 346.514 24.5 344.334 24.5C342.154 24.5 340.387 22.8211 340.387 20.75Z" fill="#010101"/>
<path fill-rule="evenodd" clip-rule="evenodd" d="M352.787 27.7197C353.096 28.0126 353.096 28.4874 352.787 28.7803L349.63 31.7803C349.321 32.0732 348.822 32.0732 348.513 31.7803L346.934 30.2803C346.626 29.9874 346.626 29.5126 346.934 29.2197C347.243 28.9268 347.742 28.9268 348.051 29.2197L349.071 30.1893L351.671 27.7197C351.979 27.4268 352.479 27.4268 352.787 27.7197Z" fill="#010101"/>
<path d="M365.111 20.576C365.111 20.6627 365.068 20.706 364.981 20.706H360.197C360.162 20.706 360.145 20.7233 360.145 20.758V23.969C360.145 24.0037 360.162 24.021 360.197 24.021H363.551C363.638 24.021 363.681 24.0643 363.681 24.151V24.697C363.681 24.7837 363.638 24.827 363.551 24.827H360.197C360.162 24.827 360.145 24.8443 360.145 24.879V28.142C360.145 28.1767 360.162 28.194 360.197 28.194H364.981C365.068 28.194 365.111 28.2373 365.111 28.324V28.87C365.111 28.9567 365.068 29 364.981 29H359.352C359.265 29 359.222 28.9567 359.222 28.87V20.03C359.222 19.9433 359.265 19.9 359.352 19.9H364.981C365.068 19.9 365.111 19.9433 365.111 20.03V20.576ZM370.993 20.03C370.993 19.9433 371.036 19.9 371.123 19.9H371.786C371.873 19.9 371.916 19.9433 371.916 20.03V28.87C371.916 28.9567 371.873 29 371.786 29H371.123C371.036 29 370.993 28.9567 370.993 28.87V28.324C370.993 28.3067 370.984 28.298 370.967 28.298C370.958 28.2893 370.945 28.2937 370.928 28.311C370.737 28.5623 370.499 28.7573 370.213 28.896C369.936 29.0347 369.624 29.104 369.277 29.104C368.67 29.104 368.159 28.948 367.743 28.636C367.336 28.324 367.054 27.8993 366.898 27.362C366.777 26.972 366.716 26.4217 366.716 25.711C366.716 24.9917 366.768 24.4543 366.872 24.099C367.028 23.5443 367.314 23.111 367.73 22.799C368.146 22.4783 368.662 22.318 369.277 22.318C369.615 22.318 369.927 22.3873 370.213 22.526C370.499 22.656 370.737 22.8467 370.928 23.098C370.945 23.1153 370.958 23.124 370.967 23.124C370.984 23.1153 370.993 23.1023 370.993 23.085V20.03ZM370.759 27.297C370.837 27.1237 370.893 26.92 370.928 26.686C370.963 26.452 370.98 26.127 370.98 25.711C370.98 25.295 370.963 24.97 370.928 24.736C370.893 24.4933 370.833 24.281 370.746 24.099C370.642 23.8043 370.469 23.5703 370.226 23.397C369.992 23.215 369.71 23.124 369.381 23.124C369.034 23.124 368.735 23.2107 368.484 23.384C368.233 23.5573 368.051 23.787 367.938 24.073C367.834 24.2637 367.756 24.4803 367.704 24.723C367.661 24.957 367.639 25.2863 367.639 25.711C367.639 26.1183 367.656 26.439 367.691 26.673C367.726 26.8983 367.786 27.102 367.873 27.284C367.977 27.596 368.159 27.843 368.419 28.025C368.688 28.207 369.004 28.298 369.368 28.298C369.715 28.298 370.005 28.207 370.239 28.025C370.473 27.843 370.646 27.6003 370.759 27.297ZM376.283 22.318C377.063 22.318 377.665 22.5173 378.09 22.916C378.514 23.3147 378.727 23.8433 378.727 24.502V28.87C378.727 28.9567 378.683 29 378.597 29H377.934C377.847 29 377.804 28.9567 377.804 28.87V28.337C377.804 28.3197 377.795 28.3067 377.778 28.298C377.769 28.2893 377.756 28.2937 377.739 28.311C377.522 28.571 377.24 28.7703 376.894 28.909C376.547 29.039 376.161 29.104 375.737 29.104C375.121 29.104 374.606 28.948 374.19 28.636C373.774 28.324 373.566 27.8473 373.566 27.206C373.566 26.556 373.8 26.0447 374.268 25.672C374.744 25.2907 375.403 25.1 376.244 25.1H377.752C377.786 25.1 377.804 25.0827 377.804 25.048V24.554C377.804 24.112 377.678 23.7653 377.427 23.514C377.184 23.254 376.803 23.124 376.283 23.124C375.867 23.124 375.529 23.2063 375.269 23.371C375.009 23.527 374.848 23.748 374.788 24.034C374.762 24.1207 374.71 24.1597 374.632 24.151L373.93 24.06C373.834 24.0427 373.795 24.008 373.813 23.956C373.882 23.4707 374.142 23.0763 374.593 22.773C375.043 22.4697 375.607 22.318 376.283 22.318ZM375.919 28.311C376.43 28.311 376.872 28.1853 377.245 27.934C377.617 27.674 377.804 27.3273 377.804 26.894V25.88C377.804 25.8453 377.786 25.828 377.752 25.828H376.387C375.815 25.828 375.355 25.945 375.009 26.179C374.662 26.413 374.489 26.738 374.489 27.154C374.489 27.5353 374.619 27.8257 374.879 28.025C375.147 28.2157 375.494 28.311 375.919 28.311ZM384.729 20.03C384.729 19.9433 384.773 19.9 384.859 19.9H385.522C385.609 19.9 385.652 19.9433 385.652 20.03V28.87C385.652 28.9567 385.609 29 385.522 29H384.859C384.773 29 384.729 28.9567 384.729 28.87V28.324C384.729 28.3067 384.721 28.298 384.703 28.298C384.695 28.2893 384.682 28.2937 384.664 28.311C384.474 28.5623 384.235 28.7573 383.949 28.896C383.672 29.0347 383.36 29.104 383.013 29.104C382.407 29.104 381.895 28.948 381.479 28.636C381.072 28.324 380.79 27.8993 380.634 27.362C380.513 26.972 380.452 26.4217 380.452 25.711C380.452 24.9917 380.504 24.4543 380.608 24.099C380.764 23.5443 381.05 23.111 381.466 22.799C381.882 22.4783 382.398 22.318 383.013 22.318C383.351 22.318 383.663 22.3873 383.949 22.526C384.235 22.656 384.474 22.8467 384.664 23.098C384.682 23.1153 384.695 23.124 384.703 23.124C384.721 23.1153 384.729 23.1023 384.729 23.085V20.03ZM384.495 27.297C384.573 27.1237 384.63 26.92 384.664 26.686C384.699 26.452 384.716 26.127 384.716 25.711C384.716 25.295 384.699 24.97 384.664 24.736C384.63 24.4933 384.569 24.281 384.482 24.099C384.378 23.8043 384.205 23.5703 383.962 23.397C383.728 23.215 383.447 23.124 383.117 23.124C382.771 23.124 382.472 23.2107 382.22 23.384C381.969 23.5573 381.787 23.787 381.674 24.073C381.57 24.2637 381.492 24.4803 381.44 24.723C381.397 24.957 381.375 25.2863 381.375 25.711C381.375 26.1183 381.393 26.439 381.427 26.673C381.462 26.8983 381.523 27.102 381.609 27.284C381.713 27.596 381.895 27.843 382.155 28.025C382.424 28.207 382.74 28.298 383.104 28.298C383.451 28.298 383.741 28.207 383.975 28.025C384.209 27.843 384.383 27.6003 384.495 27.297ZM397.003 22.331C397.653 22.331 398.164 22.526 398.537 22.916C398.918 23.306 399.109 23.839 399.109 24.515V28.87C399.109 28.9567 399.065 29 398.979 29H398.329C398.242 29 398.199 28.9567 398.199 28.87V24.697C398.199 24.2203 398.06 23.8433 397.783 23.566C397.514 23.28 397.159 23.137 396.717 23.137C396.257 23.137 395.885 23.2757 395.599 23.553C395.321 23.8303 395.183 24.203 395.183 24.671V28.87C395.183 28.9567 395.139 29 395.053 29H394.39C394.303 29 394.26 28.9567 394.26 28.87V24.697C394.26 24.2203 394.125 23.8433 393.857 23.566C393.588 23.28 393.228 23.137 392.778 23.137C392.318 23.137 391.95 23.2757 391.673 23.553C391.404 23.8303 391.27 24.203 391.27 24.671V28.87C391.27 28.9567 391.226 29 391.14 29H390.477C390.39 29 390.347 28.9567 390.347 28.87V22.552C390.347 22.4653 390.39 22.422 390.477 22.422H391.14C391.226 22.422 391.27 22.4653 391.27 22.552V23.072C391.27 23.0893 391.274 23.1023 391.283 23.111C391.3 23.111 391.317 23.1023 391.335 23.085C391.525 22.8337 391.768 22.6473 392.063 22.526C392.366 22.396 392.7 22.331 393.064 22.331C393.514 22.331 393.9 22.422 394.221 22.604C394.541 22.786 394.784 23.0503 394.949 23.397C394.966 23.4403 394.988 23.4403 395.014 23.397C395.204 23.0417 395.473 22.7773 395.82 22.604C396.166 22.422 396.561 22.331 397.003 22.331ZM401.1 29C401.013 29 400.97 28.9567 400.97 28.87V22.552C400.97 22.4653 401.013 22.422 401.1 22.422H401.763C401.849 22.422 401.893 22.4653 401.893 22.552V28.87C401.893 28.9567 401.849 29 401.763 29H401.1ZM401.009 21.564C400.957 21.564 400.922 21.551 400.905 21.525C400.887 21.4903 400.892 21.4513 400.918 21.408L401.698 19.991C401.724 19.9303 401.776 19.9 401.854 19.9H402.439C402.491 19.9 402.521 19.9173 402.53 19.952C402.547 19.978 402.543 20.0127 402.517 20.056L401.633 21.473C401.589 21.5337 401.537 21.564 401.477 21.564H401.009ZM406.584 22.331C407.278 22.331 407.828 22.5347 408.235 22.942C408.651 23.3493 408.859 23.8953 408.859 24.58V28.87C408.859 28.9567 408.816 29 408.729 29H408.066C407.98 29 407.936 28.9567 407.936 28.87V24.762C407.936 24.2853 407.789 23.8953 407.494 23.592C407.208 23.2887 406.836 23.137 406.376 23.137C405.9 23.137 405.514 23.2843 405.219 23.579C404.925 23.8737 404.777 24.2593 404.777 24.736V28.87C404.777 28.9567 404.734 29 404.647 29H403.984C403.898 29 403.854 28.9567 403.854 28.87V22.552C403.854 22.4653 403.898 22.422 403.984 22.422H404.647C404.734 22.422 404.777 22.4653 404.777 22.552V23.111C404.777 23.1283 404.782 23.1413 404.79 23.15C404.808 23.1587 404.821 23.1543 404.829 23.137C405.211 22.5997 405.796 22.331 406.584 22.331ZM411.486 21.226C411.278 21.226 411.105 21.1567 410.966 21.018C410.828 20.8793 410.758 20.706 410.758 20.498C410.758 20.2813 410.828 20.108 410.966 19.978C411.105 19.8393 411.278 19.77 411.486 19.77C411.694 19.77 411.868 19.8393 412.006 19.978C412.145 20.108 412.214 20.2813 412.214 20.498C412.214 20.706 412.145 20.8793 412.006 21.018C411.868 21.1567 411.694 21.226 411.486 21.226ZM411.122 28.987C411.036 28.987 410.992 28.9437 410.992 28.857V22.539C410.992 22.4523 411.036 22.409 411.122 22.409H411.785C411.872 22.409 411.915 22.4523 411.915 22.539V28.857C411.915 28.9437 411.872 28.987 411.785 28.987H411.122ZM420.832 22.331C421.482 22.331 421.993 22.526 422.366 22.916C422.747 23.306 422.938 23.839 422.938 24.515V28.87C422.938 28.9567 422.894 29 422.808 29H422.158C422.071 29 422.028 28.9567 422.028 28.87V24.697C422.028 24.2203 421.889 23.8433 421.612 23.566C421.343 23.28 420.988 23.137 420.546 23.137C420.086 23.137 419.714 23.2757 419.428 23.553C419.15 23.8303 419.012 24.203 419.012 24.671V28.87C419.012 28.9567 418.968 29 418.882 29H418.219C418.132 29 418.089 28.9567 418.089 28.87V24.697C418.089 24.2203 417.954 23.8433 417.686 23.566C417.417 23.28 417.057 23.137 416.607 23.137C416.147 23.137 415.779 23.2757 415.502 23.553C415.233 23.8303 415.099 24.203 415.099 24.671V28.87C415.099 28.9567 415.055 29 414.969 29H414.306C414.219 29 414.176 28.9567 414.176 28.87V22.552C414.176 22.4653 414.219 22.422 414.306 22.422H414.969C415.055 22.422 415.099 22.4653 415.099 22.552V23.072C415.099 23.0893 415.103 23.1023 415.112 23.111C415.129 23.111 415.146 23.1023 415.164 23.085C415.354 22.8337 415.597 22.6473 415.892 22.526C416.195 22.396 416.529 22.331 416.893 22.331C417.343 22.331 417.729 22.422 418.05 22.604C418.37 22.786 418.613 23.0503 418.778 23.397C418.795 23.4403 418.817 23.4403 418.843 23.397C419.033 23.0417 419.302 22.7773 419.649 22.604C419.995 22.422 420.39 22.331 420.832 22.331ZM427.204 22.318C427.984 22.318 428.586 22.5173 429.011 22.916C429.435 23.3147 429.648 23.8433 429.648 24.502V28.87C429.648 28.9567 429.604 29 429.518 29H428.855C428.768 29 428.725 28.9567 428.725 28.87V28.337C428.725 28.3197 428.716 28.3067 428.699 28.298C428.69 28.2893 428.677 28.2937 428.66 28.311C428.443 28.571 428.161 28.7703 427.815 28.909C427.468 29.039 427.082 29.104 426.658 29.104C426.042 29.104 425.527 28.948 425.111 28.636C424.695 28.324 424.487 27.8473 424.487 27.206C424.487 26.556 424.721 26.0447 425.189 25.672C425.665 25.2907 426.324 25.1 427.165 25.1H428.673C428.707 25.1 428.725 25.0827 428.725 25.048V24.554C428.725 24.112 428.599 23.7653 428.348 23.514C428.105 23.254 427.724 23.124 427.204 23.124C426.788 23.124 426.45 23.2063 426.19 23.371C425.93 23.527 425.769 23.748 425.709 24.034C425.683 24.1207 425.631 24.1597 425.553 24.151L424.851 24.06C424.755 24.0427 424.716 24.008 424.734 23.956C424.803 23.4707 425.063 23.0763 425.514 22.773C425.964 22.4697 426.528 22.318 427.204 22.318ZM426.84 28.311C427.351 28.311 427.793 28.1853 428.166 27.934C428.538 27.674 428.725 27.3273 428.725 26.894V25.88C428.725 25.8453 428.707 25.828 428.673 25.828H427.308C426.736 25.828 426.276 25.945 425.93 26.179C425.583 26.413 425.41 26.738 425.41 27.154C425.41 27.5353 425.54 27.8257 425.8 28.025C426.068 28.2157 426.415 28.311 426.84 28.311ZM432.725 24.45C432.509 24.45 432.331 24.3807 432.192 24.242C432.062 24.1033 431.997 23.93 431.997 23.722C431.997 23.5053 432.062 23.332 432.192 23.202C432.331 23.0633 432.509 22.994 432.725 22.994C432.933 22.994 433.107 23.0633 433.245 23.202C433.384 23.332 433.453 23.5053 433.453 23.722C433.453 23.93 433.384 24.1033 433.245 24.242C433.107 24.3807 432.933 24.45 432.725 24.45ZM432.725 28.831C432.509 28.831 432.331 28.7617 432.192 28.623C432.062 28.4843 431.997 28.311 431.997 28.103C431.997 27.8863 432.062 27.713 432.192 27.583C432.331 27.4443 432.509 27.375 432.725 27.375C432.933 27.375 433.107 27.4443 433.245 27.583C433.384 27.713 433.453 27.8863 433.453 28.103C433.453 28.311 433.384 28.4843 433.245 28.623C433.107 28.7617 432.933 28.831 432.725 28.831ZM360.08 32.939C360.149 32.913 360.214 32.9 360.275 32.9H361.523C361.566 32.9 361.601 32.9173 361.627 32.952C361.662 32.978 361.679 33.0127 361.679 33.056V41.844C361.679 41.8873 361.662 41.9263 361.627 41.961C361.601 41.987 361.566 42 361.523 42H360.327C360.284 42 360.245 41.987 360.21 41.961C360.184 41.9263 360.171 41.8873 360.171 41.844V34.46C360.171 34.4427 360.162 34.4297 360.145 34.421C360.128 34.4037 360.11 34.3993 360.093 34.408L358.793 34.811C358.776 34.8197 358.754 34.824 358.728 34.824C358.693 34.824 358.663 34.811 358.637 34.785C358.62 34.759 358.611 34.7243 358.611 34.681L358.572 33.823C358.572 33.7363 358.607 33.6757 358.676 33.641L360.08 32.939ZM366.262 42.143C365.352 42.143 364.628 41.8873 364.091 41.376C363.562 40.856 363.298 40.1583 363.298 39.283V35.617C363.298 34.7503 363.562 34.0657 364.091 33.563C364.628 33.0517 365.352 32.796 366.262 32.796C367.172 32.796 367.896 33.0517 368.433 33.563C368.979 34.0657 369.252 34.7503 369.252 35.617V39.283C369.252 40.1583 368.979 40.856 368.433 41.376C367.896 41.8873 367.172 42.143 366.262 42.143ZM366.262 40.83C366.713 40.83 367.072 40.7 367.341 40.44C367.61 40.1713 367.744 39.8117 367.744 39.361V35.565C367.744 35.1143 367.61 34.759 367.341 34.499C367.072 34.2303 366.713 34.096 366.262 34.096C365.82 34.096 365.465 34.2303 365.196 34.499C364.936 34.759 364.806 35.1143 364.806 35.565V39.361C364.806 39.8117 364.936 40.1713 365.196 40.44C365.465 40.7 365.82 40.83 366.262 40.83ZM375.915 35.253C376.461 35.253 376.942 35.3483 377.358 35.539C377.774 35.7297 378.095 35.994 378.32 36.332C378.546 36.6613 378.658 37.0383 378.658 37.463V41.844C378.658 41.8873 378.641 41.9263 378.606 41.961C378.58 41.987 378.546 42 378.502 42H377.306C377.263 42 377.224 41.987 377.189 41.961C377.163 41.9263 377.15 41.8873 377.15 41.844V41.428C377.15 41.402 377.142 41.389 377.124 41.389C377.107 41.3803 377.09 41.3847 377.072 41.402C376.648 41.87 376.032 42.104 375.226 42.104C374.576 42.104 374.039 41.9393 373.614 41.61C373.198 41.2807 372.99 40.791 372.99 40.141C372.99 39.465 373.224 38.9407 373.692 38.568C374.169 38.1867 374.836 37.996 375.694 37.996H377.085C377.129 37.996 377.15 37.9743 377.15 37.931V37.619C377.15 37.281 377.051 37.021 376.851 36.839C376.652 36.6483 376.353 36.553 375.954 36.553C375.625 36.553 375.356 36.6137 375.148 36.735C374.949 36.8477 374.823 37.008 374.771 37.216C374.745 37.32 374.685 37.3633 374.589 37.346L373.328 37.19C373.285 37.1813 373.246 37.1683 373.211 37.151C373.185 37.125 373.177 37.0947 373.185 37.06C373.255 36.5313 373.536 36.098 374.03 35.76C374.533 35.422 375.161 35.253 375.915 35.253ZM375.603 40.908C376.028 40.908 376.392 40.7953 376.695 40.57C376.999 40.3447 377.15 40.0587 377.15 39.712V39.101C377.15 39.0577 377.129 39.036 377.085 39.036H375.993C375.534 39.036 375.17 39.1227 374.901 39.296C374.641 39.4693 374.511 39.7163 374.511 40.037C374.511 40.3143 374.611 40.531 374.81 40.687C375.018 40.8343 375.283 40.908 375.603 40.908ZM383.357 35.253C384.059 35.253 384.618 35.461 385.034 35.877C385.459 36.293 385.671 36.8607 385.671 37.58V41.844C385.671 41.8873 385.654 41.9263 385.619 41.961C385.593 41.987 385.559 42 385.515 42H384.319C384.276 42 384.237 41.987 384.202 41.961C384.176 41.9263 384.163 41.8873 384.163 41.844V37.892C384.163 37.4933 384.051 37.1727 383.825 36.93C383.6 36.6787 383.301 36.553 382.928 36.553C382.556 36.553 382.252 36.6743 382.018 36.917C381.793 37.1597 381.68 37.4803 381.68 37.879V41.844C381.68 41.8873 381.663 41.9263 381.628 41.961C381.602 41.987 381.568 42 381.524 42H380.328C380.285 42 380.246 41.987 380.211 41.961C380.185 41.9263 380.172 41.8873 380.172 41.844V35.513C380.172 35.4697 380.185 35.435 380.211 35.409C380.246 35.3743 380.285 35.357 380.328 35.357H381.524C381.568 35.357 381.602 35.3743 381.628 35.409C381.663 35.435 381.68 35.4697 381.68 35.513V35.929C381.68 35.955 381.689 35.9723 381.706 35.981C381.724 35.9897 381.737 35.981 381.745 35.955C382.101 35.487 382.638 35.253 383.357 35.253ZM383.773 34.408C383.609 34.408 383.47 34.3907 383.357 34.356C383.245 34.3127 383.102 34.2477 382.928 34.161C382.902 34.1437 382.837 34.1133 382.733 34.07C382.638 34.018 382.556 33.9833 382.486 33.966C382.417 33.94 382.348 33.927 382.278 33.927C382.131 33.927 382.001 33.953 381.888 34.005C381.784 34.0483 381.685 34.122 381.589 34.226C381.546 34.2693 381.503 34.291 381.459 34.291C381.425 34.291 381.394 34.2737 381.368 34.239L380.952 33.797C380.883 33.7277 380.874 33.6583 380.926 33.589C381.065 33.355 381.243 33.173 381.459 33.043C381.685 32.913 381.932 32.848 382.2 32.848C382.374 32.848 382.521 32.874 382.642 32.926C382.764 32.9693 382.924 33.043 383.123 33.147C383.288 33.2337 383.414 33.2943 383.5 33.329C383.587 33.3637 383.678 33.381 383.773 33.381C384.033 33.381 384.25 33.2727 384.423 33.056C384.467 33.0127 384.506 32.991 384.54 32.991C384.584 32.991 384.618 33.0083 384.644 33.043L385.021 33.485C385.073 33.5457 385.086 33.6107 385.06 33.68C384.948 33.9053 384.774 34.083 384.54 34.213C384.315 34.343 384.059 34.408 383.773 34.408ZM390.065 42.104C389.38 42.104 388.791 41.9307 388.297 41.584C387.811 41.2373 387.469 40.7563 387.27 40.141C387.122 39.673 387.049 39.179 387.049 38.659C387.049 38.1043 387.118 37.6103 387.257 37.177C387.456 36.5703 387.803 36.098 388.297 35.76C388.791 35.422 389.384 35.253 390.078 35.253C390.736 35.253 391.304 35.422 391.781 35.76C392.266 36.098 392.608 36.566 392.808 37.164C392.964 37.58 393.042 38.074 393.042 38.646C393.042 39.192 392.968 39.686 392.821 40.128C392.621 40.7433 392.279 41.2287 391.794 41.584C391.308 41.9307 390.732 42.104 390.065 42.104ZM390.065 40.804C390.385 40.804 390.658 40.713 390.884 40.531C391.118 40.349 391.287 40.0933 391.391 39.764C391.477 39.478 391.521 39.114 391.521 38.672C391.521 38.204 391.477 37.84 391.391 37.58C391.295 37.2507 391.131 36.9993 390.897 36.826C390.663 36.644 390.377 36.553 390.039 36.553C389.718 36.553 389.441 36.644 389.207 36.826C388.973 36.9993 388.804 37.2507 388.7 37.58C388.613 37.8833 388.57 38.2473 388.57 38.672C388.57 39.0967 388.613 39.4607 388.7 39.764C388.795 40.0933 388.96 40.349 389.194 40.531C389.436 40.713 389.727 40.804 390.065 40.804ZM396.937 42.078C396.391 42.078 395.91 42 395.494 41.844C395.087 41.6793 394.77 41.4583 394.545 41.181C394.32 40.895 394.207 40.5787 394.207 40.232V40.115C394.207 40.0717 394.22 40.037 394.246 40.011C394.281 39.9763 394.32 39.959 394.363 39.959H395.507C395.55 39.959 395.585 39.9763 395.611 40.011C395.646 40.037 395.663 40.0717 395.663 40.115V40.141C395.663 40.3577 395.78 40.5483 396.014 40.713C396.257 40.869 396.56 40.947 396.924 40.947C397.271 40.947 397.552 40.8777 397.769 40.739C397.986 40.5917 398.094 40.4097 398.094 40.193C398.094 39.9937 398.003 39.8463 397.821 39.751C397.648 39.647 397.362 39.5387 396.963 39.426L396.469 39.27C396.027 39.14 395.654 39.0013 395.351 38.854C395.048 38.7067 394.792 38.5073 394.584 38.256C394.376 37.996 394.272 37.6667 394.272 37.268C394.272 36.6613 394.51 36.1803 394.987 35.825C395.464 35.461 396.092 35.279 396.872 35.279C397.401 35.279 397.864 35.3657 398.263 35.539C398.662 35.7037 398.969 35.9377 399.186 36.241C399.403 36.5357 399.511 36.8737 399.511 37.255C399.511 37.2983 399.494 37.3373 399.459 37.372C399.433 37.398 399.398 37.411 399.355 37.411H398.25C398.207 37.411 398.168 37.398 398.133 37.372C398.107 37.3373 398.094 37.2983 398.094 37.255C398.094 37.0297 397.981 36.8433 397.756 36.696C397.539 36.54 397.24 36.462 396.859 36.462C396.521 36.462 396.244 36.527 396.027 36.657C395.819 36.7783 395.715 36.9517 395.715 37.177C395.715 37.385 395.815 37.5453 396.014 37.658C396.222 37.762 396.564 37.879 397.041 38.009L397.327 38.087C397.786 38.2257 398.172 38.3687 398.484 38.516C398.796 38.6547 399.06 38.854 399.277 39.114C399.494 39.3653 399.602 39.6947 399.602 40.102C399.602 40.7173 399.359 41.2027 398.874 41.558C398.389 41.9047 397.743 42.078 396.937 42.078Z" fill="#010101"/>
</svg>
