<svg width="15" height="15" viewBox="0 0 15 15" fill="none" xmlns="http://www.w3.org/2000/svg">
<path fill-rule="evenodd" clip-rule="evenodd" d="M4.79892 1.66675H10.2011C10.8719 1.66674 11.4255 1.66673 11.8765 1.70358C12.3449 1.74185 12.7755 1.82398 13.18 2.03006C13.8072 2.34964 14.3171 2.85957 14.6367 3.48678C14.8428 3.89123 14.9249 4.32181 14.9632 4.79023C15 5.24122 15 5.79485 15 6.46565V10.2012C15 10.872 15 11.4256 14.9632 11.8766C14.9249 12.345 14.8428 12.7756 14.6367 13.18C14.3171 13.8073 13.8072 14.3172 13.18 14.6368C12.7755 14.8428 12.3449 14.925 11.8765 14.9633C11.4255 15.0001 10.8719 15.0001 10.2011 15.0001H4.79894C4.12812 15.0001 3.57448 15.0001 3.12348 14.9633C2.65506 14.925 2.22448 14.8428 1.82003 14.6368C1.19283 14.3172 0.68289 13.8073 0.363312 13.18C0.157237 12.7756 0.0750998 12.345 0.0368288 11.8766C-1.90114e-05 11.4256 -1.02701e-05 10.872 3.59409e-07 10.2012V6.46567C-1.02701e-05 5.79486 -1.90114e-05 5.24122 0.0368288 4.79023C0.0750998 4.32181 0.157237 3.89123 0.363312 3.48678C0.68289 2.85957 1.19283 2.34964 1.82003 2.03006C2.22448 1.82398 2.65506 1.74185 3.12348 1.70358C3.57448 1.66673 4.12811 1.66674 4.79892 1.66675ZM3.2592 3.36471C2.89385 3.39456 2.70702 3.44866 2.57668 3.51507C2.26308 3.67486 2.00811 3.92983 1.84832 4.24343C1.78191 4.37376 1.72781 4.5606 1.69796 4.92595C1.66732 5.30102 1.66667 5.78627 1.66667 6.50008V10.1667C1.66667 10.8806 1.66732 11.3658 1.69796 11.7409C1.72781 12.1062 1.78191 12.2931 1.84832 12.4234C2.00811 12.737 2.26308 12.992 2.57668 13.1518C2.70702 13.2182 2.89385 13.2723 3.2592 13.3021C3.63427 13.3328 4.11952 13.3334 4.83333 13.3334H10.1667C10.8805 13.3334 11.3657 13.3328 11.7408 13.3021C12.1061 13.2723 12.293 13.2182 12.4233 13.1518C12.7369 12.992 12.9919 12.737 13.1517 12.4234C13.2181 12.2931 13.2722 12.1062 13.302 11.7409C13.3327 11.3658 13.3333 10.8806 13.3333 10.1667V6.50008C13.3333 5.78627 13.3327 5.30102 13.302 4.92595C13.2722 4.5606 13.2181 4.37376 13.1517 4.24343C12.9919 3.92983 12.7369 3.67486 12.4233 3.51507C12.293 3.44866 12.1061 3.39456 11.7408 3.36471C11.3657 3.33406 10.8805 3.33342 10.1667 3.33342H4.83333C4.11952 3.33342 3.63427 3.33406 3.2592 3.36471Z" fill="#EB6540"/>
<path d="M5.00004 0.833333C5.00004 0.373096 4.62694 0 4.16671 0C3.70647 0 3.33337 0.373096 3.33337 0.833333V2.5C3.33337 2.96024 3.70647 3.33333 4.16671 3.33333C4.62694 3.33333 5.00004 2.96024 5.00004 2.5V0.833333Z" fill="#EB6540"/>
<path d="M11.6667 0.833333C11.6667 0.373096 11.2936 0 10.8334 0C10.3731 0 10 0.373096 10 0.833333V2.5C10 2.96024 10.3731 3.33333 10.8334 3.33333C11.2936 3.33333 11.6667 2.96024 11.6667 2.5V0.833333Z" fill="#EB6540"/>
<path fill-rule="evenodd" clip-rule="evenodd" d="M4.16671 7.49992C4.62694 7.49992 5.00004 7.12682 5.00004 6.66659C5.00004 6.20635 4.62694 5.83325 4.16671 5.83325C3.70647 5.83325 3.33337 6.20635 3.33337 6.66659C3.33337 7.12682 3.70647 7.49992 4.16671 7.49992ZM8.33337 6.66659C8.33337 7.12682 7.96028 7.49992 7.50004 7.49992C7.0398 7.49992 6.66671 7.12682 6.66671 6.66659C6.66671 6.20635 7.0398 5.83325 7.50004 5.83325C7.96028 5.83325 8.33337 6.20635 8.33337 6.66659ZM11.6667 6.66659C11.6667 7.12682 11.2936 7.49992 10.8334 7.49992C10.3731 7.49992 10 7.12682 10 6.66659C10 6.20635 10.3731 5.83325 10.8334 5.83325C11.2936 5.83325 11.6667 6.20635 11.6667 6.66659ZM8.33337 9.99992C8.33337 10.4602 7.96028 10.8333 7.50004 10.8333C7.0398 10.8333 6.66671 10.4602 6.66671 9.99992C6.66671 9.53968 7.0398 9.16659 7.50004 9.16659C7.96028 9.16659 8.33337 9.53968 8.33337 9.99992ZM4.16671 10.8333C4.62694 10.8333 5.00004 10.4602 5.00004 9.99992C5.00004 9.53968 4.62694 9.16659 4.16671 9.16659C3.70647 9.16659 3.33337 9.53968 3.33337 9.99992C3.33337 10.4602 3.70647 10.8333 4.16671 10.8333Z" fill="#EB6540"/>
</svg>
