<svg width="15" height="15" viewBox="0 0 15 15" fill="none" xmlns="http://www.w3.org/2000/svg">
<path fill-rule="evenodd" clip-rule="evenodd" d="M7.49994 3.75C5.84309 3.75 4.49994 5.09315 4.49994 6.75C4.49994 7.5154 4.78658 8.21386 5.25837 8.74388C4.46375 9.12321 3.85485 9.67132 3.40815 10.2074C3.01073 10.6843 2.73471 11.1581 2.55764 11.5122C2.46868 11.6902 2.40353 11.8402 2.35966 11.9486C2.3377 12.0028 2.321 12.0468 2.30924 12.0789C2.30245 12.0974 2.2959 12.116 2.28948 12.1347C2.15909 12.5234 2.37307 12.9566 2.76277 13.0865C3.15553 13.2174 3.58005 13.0053 3.71126 12.6128L3.71756 12.5953C3.72393 12.5779 3.73469 12.5494 3.75008 12.5114C3.78093 12.4352 3.83003 12.3216 3.89928 12.1831C4.03861 11.9044 4.25478 11.5345 4.56048 11.1676C5.16727 10.4395 6.09826 9.75 7.49994 9.75C8.90162 9.75 9.83262 10.4395 10.4394 11.1676C10.7451 11.5345 10.9613 11.9044 11.1006 12.1831C11.1699 12.3216 11.219 12.4352 11.2498 12.5114C11.2652 12.5494 11.276 12.5779 11.2823 12.5953L11.2886 12.6127L11.2892 12.6144C11.4211 13.0059 11.8449 13.2172 12.2371 13.0865C12.6301 12.9555 12.8422 12.5301 12.7112 12.1372C12.6899 12.0735 12.6654 12.0108 12.6402 11.9486C12.5964 11.8402 12.5312 11.6902 12.4422 11.5122C12.2652 11.1581 11.9892 10.6843 11.5917 10.2074C11.145 9.67132 10.5361 9.12321 9.74151 8.74388C10.2133 8.21386 10.4999 7.5154 10.4999 6.75C10.4999 5.09315 9.15679 3.75 7.49994 3.75ZM5.99994 6.75C5.99994 5.92157 6.67151 5.25 7.49994 5.25C8.32837 5.25 8.99994 5.92157 8.99994 6.75C8.99994 7.57843 8.32837 8.25 7.49994 8.25C6.67151 8.25 5.99994 7.57843 5.99994 6.75Z" fill="#EB6540"/>
<path fill-rule="evenodd" clip-rule="evenodd" d="M7.5 13.5C10.8137 13.5 13.5 10.8137 13.5 7.5C13.5 4.18629 10.8137 1.5 7.5 1.5C4.18629 1.5 1.5 4.18629 1.5 7.5C1.5 10.8137 4.18629 13.5 7.5 13.5ZM7.5 15C11.6421 15 15 11.6421 15 7.5C15 3.35786 11.6421 0 7.5 0C3.35786 0 0 3.35786 0 7.5C0 11.6421 3.35786 15 7.5 15Z" fill="#EB6540"/>
</svg>
