<svg width="14" height="15" viewBox="0 0 14 15" fill="none" xmlns="http://www.w3.org/2000/svg">
<path fill-rule="evenodd" clip-rule="evenodd" d="M3.57143 10.0001C2.38796 10.0001 1.42857 10.9595 1.42857 12.143C1.42857 12.5375 1.74837 12.8572 2.14286 12.8572H5.71428C6.10877 12.8572 6.42857 13.177 6.42857 13.5715C6.42857 13.966 6.10877 14.2858 5.71428 14.2858H2.14286C0.95939 14.2858 0 13.3264 0 12.143C0 10.1705 1.59898 8.57153 3.57143 8.57153H7.85714C8.25163 8.57153 8.57143 8.89133 8.57143 9.28582C8.57143 9.68031 8.25163 10.0001 7.85714 10.0001H3.57143Z" fill="#EB6540"/>
<path fill-rule="evenodd" clip-rule="evenodd" d="M5.71425 1.42857C4.53078 1.42857 3.57139 2.38796 3.57139 3.57143C3.57139 4.7549 4.53078 5.71429 5.71425 5.71429C6.89772 5.71429 7.85711 4.7549 7.85711 3.57143C7.85711 2.38796 6.89772 1.42857 5.71425 1.42857ZM2.14282 3.57143C2.14282 1.59898 3.74181 0 5.71425 0C7.6867 0 9.28568 1.59898 9.28568 3.57143C9.28568 5.54387 7.6867 7.14286 5.71425 7.14286C3.74181 7.14286 2.14282 5.54387 2.14282 3.57143Z" fill="#EB6540"/>
<path fill-rule="evenodd" clip-rule="evenodd" d="M10.7143 9.28564C11.1088 9.28564 11.4286 9.60544 11.4286 9.99993V11.4285H12.8572C13.2517 11.4285 13.5715 11.7483 13.5715 12.1428C13.5715 12.5373 13.2517 12.8571 12.8572 12.8571H11.4286V14.2856C11.4286 14.6801 11.1088 14.9999 10.7143 14.9999C10.3198 14.9999 10 14.6801 10 14.2856V12.8571H8.57146C8.17697 12.8571 7.85718 12.5373 7.85718 12.1428C7.85718 11.7483 8.17697 11.4285 8.57146 11.4285H10V9.99993C10 9.60544 10.3198 9.28564 10.7143 9.28564Z" fill="#EB6540"/>
</svg>
