<svg width="396" height="37" viewBox="0 0 396 37" fill="none" xmlns="http://www.w3.org/2000/svg">
<path d="M18.88 3.92C18.88 4.18667 18.7467 4.32 18.48 4.32H4.28C4.17333 4.32 4.12 4.37333 4.12 4.48V13.08C4.12 13.1867 4.17333 13.24 4.28 13.24H14.04C14.3067 13.24 14.44 13.3733 14.44 13.64V16.16C14.44 16.4267 14.3067 16.56 14.04 16.56H4.28C4.17333 16.56 4.12 16.6133 4.12 16.72V25.52C4.12 25.6267 4.17333 25.68 4.28 25.68H18.48C18.7467 25.68 18.88 25.8133 18.88 26.08V28.6C18.88 28.8667 18.7467 29 18.48 29H0.68C0.413333 29 0.28 28.8667 0.28 28.6V1.4C0.28 1.13333 0.413333 0.999998 0.68 0.999998H18.48C18.7467 0.999998 18.88 1.13333 18.88 1.4V3.92ZM22.2663 29C22.1063 29 21.9996 28.96 21.9463 28.88C21.8929 28.7733 21.9063 28.6533 21.9863 28.52L28.6263 18.96C28.6796 18.88 28.6796 18.8 28.6263 18.72L21.9863 9.12L21.9063 8.92C21.9063 8.73333 22.0263 8.64 22.2663 8.64H25.5063C25.7196 8.64 25.8796 8.72 25.9863 8.88L30.6663 15.72C30.6929 15.7467 30.7329 15.76 30.7863 15.76C30.8396 15.76 30.8796 15.7467 30.9062 15.72L35.5463 8.88C35.6529 8.72 35.8129 8.64 36.0263 8.64H39.5063C39.6663 8.64 39.7729 8.69333 39.8263 8.8C39.8796 8.88 39.8663 8.98667 39.7863 9.12L33.1463 18.72C33.1196 18.8 33.1196 18.88 33.1463 18.96L39.7863 28.52L39.8663 28.72C39.8663 28.9067 39.7463 29 39.5063 29H36.2263C36.0129 29 35.8529 28.92 35.7463 28.76L31.1063 21.92C31.0796 21.8667 31.0396 21.84 30.9863 21.84C30.9329 21.84 30.8929 21.8667 30.8663 21.92L26.1862 28.76C26.0796 28.92 25.9196 29 25.7063 29H22.2663ZM60.1872 13.76C60.6939 15.2 60.9472 16.9067 60.9472 18.88C60.9472 20.7467 60.7339 22.36 60.3072 23.72C59.7472 25.5067 58.8272 26.8933 57.5472 27.88C56.2672 28.84 54.6272 29.32 52.6272 29.32C51.7205 29.32 50.8539 29.1467 50.0272 28.8C49.2272 28.4267 48.5339 27.9067 47.9472 27.24C47.8939 27.1867 47.8405 27.1733 47.7872 27.2C47.7605 27.2267 47.7472 27.2667 47.7472 27.32V36.24C47.7472 36.5067 47.6139 36.64 47.3472 36.64H44.3072C44.0405 36.64 43.9072 36.5067 43.9072 36.24V9.04C43.9072 8.77333 44.0405 8.64 44.3072 8.64H47.3472C47.6139 8.64 47.7472 8.77333 47.7472 9.04V10.36C47.7472 10.4133 47.7605 10.4533 47.7872 10.48C47.8405 10.5067 47.8939 10.4933 47.9472 10.44C48.5339 9.77333 49.2272 9.25333 50.0272 8.88C50.8272 8.50667 51.6939 8.32 52.6272 8.32C54.5472 8.32 56.1339 8.8 57.3872 9.76C58.6672 10.6933 59.6005 12.0267 60.1872 13.76ZM55.7872 24.08C56.6405 22.8 57.0672 21.04 57.0672 18.8C57.0672 16.7467 56.7339 15.0933 56.0672 13.84C55.2939 12.3733 54.0272 11.64 52.2672 11.64C50.7205 11.64 49.5472 12.36 48.7472 13.8C48.1072 14.9467 47.7872 16.6267 47.7872 18.84C47.7872 21.08 48.1339 22.7867 48.8272 23.96C49.6005 25.32 50.7339 26 52.2272 26C53.8272 26 55.0139 25.36 55.7872 24.08ZM82.2175 16.28C82.3242 17.3733 82.3642 18.6 82.3375 19.96C82.3375 20.2267 82.2042 20.36 81.9375 20.36H69.1775C69.0708 20.36 69.0175 20.4133 69.0175 20.52C69.0175 21.4267 69.0975 22.12 69.2575 22.6C69.5508 23.6667 70.1375 24.5067 71.0175 25.12C71.9242 25.7067 73.0575 26 74.4175 26C76.3908 26 77.9108 25.1867 78.9775 23.56C79.1108 23.2933 79.2842 23.2533 79.4975 23.44L81.7775 24.96C81.9642 25.12 82.0042 25.2933 81.8975 25.48C81.1508 26.68 80.0842 27.6267 78.6975 28.32C77.3375 29.0133 75.7908 29.36 74.0575 29.36C72.1108 29.36 70.4708 28.9333 69.1375 28.08C67.8042 27.2267 66.8042 26.0133 66.1375 24.44C65.4975 22.8667 65.1775 20.96 65.1775 18.72C65.1775 16.7733 65.3242 15.2933 65.6175 14.28C66.0975 12.44 67.0575 10.9867 68.4975 9.92C69.9375 8.85333 71.6842 8.32 73.7375 8.32C76.4308 8.32 78.4442 9 79.7775 10.36C81.1108 11.6933 81.9242 13.6667 82.2175 16.28ZM73.7375 11.64C72.5908 11.64 71.6442 11.9333 70.8975 12.52C70.1508 13.08 69.6442 13.84 69.3775 14.8C69.1908 15.3867 69.0708 16.1333 69.0175 17.04C69.0175 17.1467 69.0708 17.2 69.1775 17.2H78.3375C78.4442 17.2 78.4975 17.1467 78.4975 17.04C78.4442 16.16 78.3642 15.5067 78.2575 15.08C77.9908 14.04 77.4575 13.2133 76.6575 12.6C75.8842 11.96 74.9108 11.64 73.7375 11.64ZM96.1028 8.44C96.9561 8.44 97.7295 8.61333 98.4228 8.96C98.6095 9.04 98.6761 9.2 98.6228 9.44L97.9828 12.44C97.9561 12.68 97.7961 12.76 97.5028 12.68C97.0495 12.4933 96.5161 12.4 95.9028 12.4L95.3428 12.44C94.0895 12.4933 93.0495 12.9333 92.2228 13.76C91.4228 14.56 91.0228 15.6133 91.0228 16.92V28.6C91.0228 28.8667 90.8895 29 90.6228 29H87.5828C87.3161 29 87.1828 28.8667 87.1828 28.6V9.04C87.1828 8.77333 87.3161 8.64 87.5828 8.64H90.6228C90.8895 8.64 91.0228 8.77333 91.0228 9.04V11.16C91.0228 11.24 91.0361 11.2933 91.0628 11.32C91.1161 11.32 91.1561 11.2933 91.1828 11.24C92.3828 9.37333 94.0228 8.44 96.1028 8.44ZM104.347 5.44C103.6 5.44 102.987 5.2 102.507 4.72C102.027 4.24 101.787 3.62667 101.787 2.88C101.787 2.13333 102.027 1.52 102.507 1.04C102.987 0.559999 103.6 0.32 104.347 0.32C105.093 0.32 105.707 0.559999 106.187 1.04C106.667 1.52 106.907 2.13333 106.907 2.88C106.907 3.62667 106.667 4.24 106.187 4.72C105.707 5.2 105.093 5.44 104.347 5.44ZM102.747 28.96C102.48 28.96 102.347 28.8267 102.347 28.56V9.04C102.347 8.77333 102.48 8.64 102.747 8.64H105.787C106.053 8.64 106.187 8.77333 106.187 9.04V28.56C106.187 28.8267 106.053 28.96 105.787 28.96H102.747ZM128.702 16.28C128.809 17.3733 128.849 18.6 128.822 19.96C128.822 20.2267 128.689 20.36 128.422 20.36H115.662C115.555 20.36 115.502 20.4133 115.502 20.52C115.502 21.4267 115.582 22.12 115.742 22.6C116.035 23.6667 116.622 24.5067 117.502 25.12C118.409 25.7067 119.542 26 120.902 26C122.875 26 124.395 25.1867 125.462 23.56C125.595 23.2933 125.769 23.2533 125.982 23.44L128.262 24.96C128.449 25.12 128.489 25.2933 128.382 25.48C127.635 26.68 126.569 27.6267 125.182 28.32C123.822 29.0133 122.275 29.36 120.542 29.36C118.595 29.36 116.955 28.9333 115.622 28.08C114.289 27.2267 113.289 26.0133 112.622 24.44C111.982 22.8667 111.662 20.96 111.662 18.72C111.662 16.7733 111.809 15.2933 112.102 14.28C112.582 12.44 113.542 10.9867 114.982 9.92C116.422 8.85333 118.169 8.32 120.222 8.32C122.915 8.32 124.929 9 126.262 10.36C127.595 11.6933 128.409 13.6667 128.702 16.28ZM120.222 11.64C119.075 11.64 118.129 11.9333 117.382 12.52C116.635 13.08 116.129 13.84 115.862 14.8C115.675 15.3867 115.555 16.1333 115.502 17.04C115.502 17.1467 115.555 17.2 115.662 17.2H124.822C124.929 17.2 124.982 17.1467 124.982 17.04C124.929 16.16 124.849 15.5067 124.742 15.08C124.475 14.04 123.942 13.2133 123.142 12.6C122.369 11.96 121.395 11.64 120.222 11.64ZM142.747 8.36C144.934 8.36 146.667 9 147.947 10.28C149.227 11.5333 149.867 13.24 149.867 15.4V28.6C149.867 28.8667 149.734 29 149.467 29H146.427C146.161 29 146.027 28.8667 146.027 28.6V16.16C146.027 14.8267 145.641 13.7467 144.867 12.92C144.094 12.0933 143.067 11.68 141.787 11.68C140.534 11.68 139.507 12.0933 138.707 12.92C137.907 13.7467 137.507 14.8133 137.507 16.12V28.6C137.507 28.8667 137.374 29 137.107 29H134.067C133.801 29 133.667 28.8667 133.667 28.6V9.04C133.667 8.77333 133.801 8.64 134.067 8.64H137.107C137.374 8.64 137.507 8.77333 137.507 9.04V10.48C137.507 10.5333 137.521 10.5733 137.547 10.6C137.601 10.6267 137.641 10.6133 137.667 10.56C138.814 9.09333 140.507 8.36 142.747 8.36ZM163.273 29.32C161.246 29.32 159.513 28.8133 158.073 27.8C156.633 26.76 155.646 25.36 155.113 23.6C154.713 22.3733 154.513 20.76 154.513 18.76C154.513 16.92 154.713 15.3067 155.113 13.92C155.646 12.2133 156.633 10.8533 158.073 9.84C159.539 8.82667 161.273 8.32 163.273 8.32C165.273 8.32 167.019 8.82667 168.513 9.84C170.006 10.8533 170.979 12.1333 171.433 13.68C171.593 14.1067 171.699 14.5467 171.753 15C171.753 15.2133 171.633 15.3467 171.393 15.4L168.393 15.84H168.313C168.126 15.84 167.993 15.72 167.913 15.48L167.793 14.84C167.579 13.9333 167.059 13.1733 166.233 12.56C165.406 11.9467 164.406 11.64 163.233 11.64C162.086 11.64 161.113 11.9467 160.313 12.56C159.513 13.1733 158.993 13.9867 158.753 15C158.513 15.96 158.393 17.2267 158.393 18.8C158.393 20.3467 158.513 21.6 158.753 22.56C159.019 23.6267 159.539 24.4667 160.313 25.08C161.113 25.6933 162.086 26 163.233 26C164.406 26 165.406 25.6933 166.233 25.08C167.086 24.4667 167.619 23.6667 167.833 22.68C167.859 22.6533 167.859 22.6267 167.833 22.6C167.833 22.5467 167.846 22.5067 167.873 22.48V22.32C167.953 22.1067 168.099 22.0267 168.313 22.08L171.313 22.56C171.526 22.6133 171.633 22.72 171.633 22.88V23.04C171.633 23.28 171.566 23.5733 171.433 23.92C170.979 25.5467 170.006 26.8533 168.513 27.84C167.019 28.8267 165.273 29.32 163.273 29.32ZM178.487 5.44C177.741 5.44 177.127 5.2 176.647 4.72C176.167 4.24 175.927 3.62667 175.927 2.88C175.927 2.13333 176.167 1.52 176.647 1.04C177.127 0.559999 177.741 0.32 178.487 0.32C179.234 0.32 179.847 0.559999 180.327 1.04C180.807 1.52 181.047 2.13333 181.047 2.88C181.047 3.62667 180.807 4.24 180.327 4.72C179.847 5.2 179.234 5.44 178.487 5.44ZM176.887 28.96C176.621 28.96 176.487 28.8267 176.487 28.56V9.04C176.487 8.77333 176.621 8.64 176.887 8.64H179.927C180.194 8.64 180.327 8.77333 180.327 9.04V28.56C180.327 28.8267 180.194 28.96 179.927 28.96H176.887ZM193.803 8.32C195.429 8.32 196.843 8.61333 198.043 9.2C199.269 9.76 200.203 10.56 200.843 11.6C201.509 12.6133 201.843 13.7733 201.843 15.08V28.6C201.843 28.8667 201.709 29 201.443 29H198.403C198.136 29 198.003 28.8667 198.003 28.6V27.16C198.003 27.0267 197.936 27 197.803 27.08C197.109 27.8 196.256 28.36 195.243 28.76C194.256 29.1333 193.149 29.32 191.923 29.32C189.949 29.32 188.309 28.8267 187.003 27.84C185.723 26.8267 185.083 25.3067 185.083 23.28C185.083 21.2 185.803 19.5733 187.243 18.4C188.709 17.2 190.749 16.6 193.363 16.6H197.843C197.949 16.6 198.003 16.5467 198.003 16.44V15.36C198.003 14.1867 197.656 13.28 196.963 12.64C196.296 11.9733 195.269 11.64 193.883 11.64C192.763 11.64 191.843 11.8667 191.123 12.32C190.429 12.7467 190.003 13.3333 189.843 14.08C189.763 14.3467 189.603 14.4667 189.363 14.44L186.123 14C185.856 13.9467 185.736 13.84 185.763 13.68C185.976 12.1067 186.816 10.8267 188.283 9.84C189.749 8.82667 191.589 8.32 193.803 8.32ZM192.763 26.08C194.176 26.08 195.403 25.7067 196.443 24.96C197.483 24.2133 198.003 23.2667 198.003 22.12V19.76C198.003 19.6533 197.949 19.6 197.843 19.6H194.083C192.509 19.6 191.256 19.9067 190.323 20.52C189.389 21.1333 188.923 21.9867 188.923 23.08C188.923 24.0667 189.269 24.8133 189.963 25.32C190.683 25.8267 191.616 26.08 192.763 26.08ZM232.474 29C232.208 29 232.034 28.8667 231.954 28.6L230.754 24.68C230.701 24.5733 230.634 24.52 230.554 24.52H220.714C220.634 24.52 220.568 24.5733 220.514 24.68L219.354 28.6C219.274 28.8667 219.101 29 218.834 29H213.754C213.594 29 213.474 28.96 213.394 28.88C213.314 28.7733 213.301 28.6267 213.354 28.44L221.994 1.4C222.074 1.13333 222.248 0.999998 222.514 0.999998H228.794C229.061 0.999998 229.234 1.13333 229.314 1.4L237.954 28.44C237.981 28.4933 237.994 28.56 237.994 28.64C237.994 28.88 237.848 29 237.554 29H232.474ZM221.954 19.92C221.928 20.08 221.981 20.16 222.114 20.16H229.154C229.314 20.16 229.368 20.08 229.314 19.92L225.714 8.04C225.688 7.93333 225.648 7.89333 225.594 7.92C225.541 7.92 225.501 7.96 225.474 8.04L221.954 19.92ZM263.95 8.12C266.03 8.12 267.657 8.74667 268.83 10C270.004 11.2533 270.59 13.0133 270.59 15.28V28.52C270.59 28.6533 270.537 28.7733 270.43 28.88C270.35 28.96 270.244 29 270.11 29H265.43C265.297 29 265.177 28.96 265.07 28.88C264.99 28.7733 264.95 28.6533 264.95 28.52V16.52C264.95 15.4267 264.67 14.56 264.11 13.92C263.55 13.28 262.804 12.96 261.87 12.96C260.937 12.96 260.177 13.28 259.59 13.92C259.004 14.56 258.71 15.4133 258.71 16.48V28.52C258.71 28.6533 258.657 28.7733 258.55 28.88C258.47 28.96 258.364 29 258.23 29H253.59C253.457 29 253.337 28.96 253.23 28.88C253.15 28.7733 253.11 28.6533 253.11 28.52V16.52C253.11 15.4533 252.817 14.6 252.23 13.96C251.644 13.2933 250.884 12.96 249.95 12.96C249.097 12.96 248.377 13.2133 247.79 13.72C247.23 14.2267 246.897 14.9333 246.79 15.84V28.52C246.79 28.6533 246.737 28.7733 246.63 28.88C246.55 28.96 246.444 29 246.31 29H241.63C241.497 29 241.377 28.96 241.27 28.88C241.19 28.7733 241.15 28.6533 241.15 28.52V8.92C241.15 8.78667 241.19 8.68 241.27 8.6C241.377 8.49333 241.497 8.44 241.63 8.44H246.31C246.444 8.44 246.55 8.49333 246.63 8.6C246.737 8.68 246.79 8.78667 246.79 8.92V10.48C246.79 10.56 246.817 10.6133 246.87 10.64C246.924 10.6667 246.977 10.64 247.03 10.56C248.124 8.93333 249.817 8.12 252.11 8.12C253.444 8.12 254.604 8.4 255.59 8.96C256.604 9.52 257.377 10.32 257.91 11.36C257.99 11.52 258.084 11.52 258.19 11.36C258.777 10.2667 259.564 9.45333 260.55 8.92C261.564 8.38667 262.697 8.12 263.95 8.12ZM282.749 8.12C284.482 8.12 286.029 8.42667 287.389 9.04C288.749 9.62667 289.802 10.44 290.549 11.48C291.322 12.52 291.709 13.68 291.709 14.96V28.52C291.709 28.6533 291.655 28.7733 291.549 28.88C291.469 28.96 291.362 29 291.229 29H286.549C286.415 29 286.295 28.96 286.189 28.88C286.109 28.7733 286.069 28.6533 286.069 28.52V27.2C286.069 27.12 286.042 27.0667 285.989 27.04C285.935 27.0133 285.882 27.04 285.829 27.12C284.709 28.5867 282.909 29.32 280.429 29.32C278.349 29.32 276.669 28.8133 275.389 27.8C274.109 26.7867 273.469 25.2933 273.469 23.32C273.469 21.2667 274.189 19.68 275.629 18.56C277.069 17.4133 279.122 16.84 281.789 16.84H285.869C286.002 16.84 286.069 16.7733 286.069 16.64V15.76C286.069 14.88 285.802 14.2 285.269 13.72C284.735 13.2133 283.935 12.96 282.869 12.96C282.042 12.96 281.349 13.1067 280.789 13.4C280.255 13.6933 279.909 14.1067 279.749 14.64C279.669 14.9333 279.495 15.0667 279.229 15.04L274.389 14.4C274.069 14.3467 273.922 14.2267 273.949 14.04C274.055 12.92 274.495 11.9067 275.269 11C276.069 10.0933 277.109 9.38667 278.389 8.88C279.695 8.37333 281.149 8.12 282.749 8.12ZM281.949 25.12C283.095 25.12 284.069 24.8133 284.869 24.2C285.669 23.5867 286.069 22.8 286.069 21.84V20.4C286.069 20.2667 286.002 20.2 285.869 20.2H282.989C281.789 20.2 280.842 20.4267 280.149 20.88C279.482 21.3333 279.149 21.9733 279.149 22.8C279.149 23.52 279.402 24.0933 279.909 24.52C280.415 24.92 281.095 25.12 281.949 25.12ZM306.402 8.12C308.535 8.12 310.255 8.77333 311.562 10.08C312.868 11.3867 313.522 13.16 313.522 15.4V28.52C313.522 28.6533 313.468 28.7733 313.362 28.88C313.282 28.96 313.175 29 313.042 29H308.362C308.228 29 308.108 28.96 308.002 28.88C307.922 28.7733 307.882 28.6533 307.882 28.52V16.56C307.882 15.4933 307.575 14.6267 306.962 13.96C306.375 13.2933 305.588 12.96 304.602 12.96C303.615 12.96 302.815 13.2933 302.202 13.96C301.615 14.6267 301.322 15.4933 301.322 16.56V28.52C301.322 28.6533 301.268 28.7733 301.162 28.88C301.082 28.96 300.975 29 300.842 29H296.162C296.028 29 295.908 28.96 295.802 28.88C295.722 28.7733 295.682 28.6533 295.682 28.52V8.92C295.682 8.78667 295.722 8.68 295.802 8.6C295.908 8.49333 296.028 8.44 296.162 8.44H300.842C300.975 8.44 301.082 8.49333 301.162 8.6C301.268 8.68 301.322 8.78667 301.322 8.92V10.32C301.322 10.4 301.348 10.4533 301.402 10.48C301.455 10.5067 301.495 10.4933 301.522 10.44C302.615 8.89333 304.242 8.12 306.402 8.12ZM335.639 16.6C335.799 17.6133 335.853 18.7467 335.799 20C335.773 20.32 335.599 20.48 335.279 20.48H322.919C322.759 20.48 322.706 20.5467 322.759 20.68C322.839 21.2133 322.986 21.7467 323.199 22.28C323.893 23.7733 325.306 24.52 327.439 24.52C329.146 24.4933 330.493 23.8 331.479 22.44C331.586 22.28 331.706 22.2 331.839 22.2C331.919 22.2 332.013 22.2533 332.119 22.36L334.999 25.2C335.133 25.3333 335.199 25.4533 335.199 25.56C335.199 25.6133 335.146 25.72 335.039 25.88C334.159 26.9733 333.026 27.8267 331.639 28.44C330.253 29.0267 328.733 29.32 327.079 29.32C324.786 29.32 322.839 28.8 321.239 27.76C319.666 26.72 318.533 25.2667 317.839 23.4C317.279 22.0667 316.999 20.32 316.999 18.16C316.999 16.6933 317.199 15.4 317.599 14.28C318.213 12.3867 319.279 10.88 320.799 9.76C322.346 8.64 324.173 8.08 326.279 8.08C328.946 8.08 331.079 8.85333 332.679 10.4C334.306 11.9467 335.293 14.0133 335.639 16.6ZM326.319 12.96C324.639 12.96 323.533 13.7467 322.999 15.32C322.893 15.6667 322.799 16.0933 322.719 16.6C322.719 16.7333 322.786 16.8 322.919 16.8H329.839C329.999 16.8 330.053 16.7333 329.999 16.6C329.866 15.8267 329.799 15.4533 329.799 15.48C329.559 14.68 329.133 14.0667 328.519 13.64C327.933 13.1867 327.199 12.96 326.319 12.96ZM348.315 29.32C346.182 29.32 344.329 28.7867 342.755 27.72C341.209 26.6533 340.102 25.1867 339.435 23.32C338.982 21.9867 338.755 20.4133 338.755 18.6C338.755 16.8133 338.982 15.2667 339.435 13.96C340.075 12.1467 341.182 10.72 342.755 9.68C344.329 8.64 346.182 8.12 348.315 8.12C350.449 8.12 352.315 8.65333 353.915 9.72C355.542 10.7867 356.622 12.1333 357.155 13.76C357.369 14.4 357.475 14.88 357.475 15.2V15.28C357.475 15.52 357.342 15.6667 357.075 15.72L352.475 16.4H352.395C352.155 16.4 351.995 16.2667 351.915 16L351.795 15.36C351.609 14.6667 351.195 14.0933 350.555 13.64C349.915 13.1867 349.155 12.96 348.275 12.96C347.422 12.96 346.702 13.1733 346.115 13.6C345.529 14.0267 345.115 14.6133 344.875 15.36C344.582 16.16 344.435 17.2533 344.435 18.64C344.435 20.0267 344.569 21.12 344.835 21.92C345.075 22.72 345.489 23.3467 346.075 23.8C346.689 24.2533 347.422 24.48 348.275 24.48C349.102 24.48 349.822 24.2667 350.435 23.84C351.075 23.3867 351.515 22.7733 351.755 22C351.782 21.9467 351.795 21.8667 351.795 21.76C351.822 21.7333 351.835 21.6933 351.835 21.64C351.862 21.32 352.049 21.1867 352.395 21.24L356.995 21.96C357.262 22.0133 357.395 22.16 357.395 22.4C357.395 22.6133 357.315 23.0133 357.155 23.6C356.595 25.3867 355.502 26.7867 353.875 27.8C352.275 28.8133 350.422 29.32 348.315 29.32ZM378.725 16.6C378.885 17.6133 378.939 18.7467 378.885 20C378.859 20.32 378.685 20.48 378.365 20.48H366.005C365.845 20.48 365.792 20.5467 365.845 20.68C365.925 21.2133 366.072 21.7467 366.285 22.28C366.979 23.7733 368.392 24.52 370.525 24.52C372.232 24.4933 373.579 23.8 374.565 22.44C374.672 22.28 374.792 22.2 374.925 22.2C375.005 22.2 375.099 22.2533 375.205 22.36L378.085 25.2C378.219 25.3333 378.285 25.4533 378.285 25.56C378.285 25.6133 378.232 25.72 378.125 25.88C377.245 26.9733 376.112 27.8267 374.725 28.44C373.339 29.0267 371.819 29.32 370.165 29.32C367.872 29.32 365.925 28.8 364.325 27.76C362.752 26.72 361.619 25.2667 360.925 23.4C360.365 22.0667 360.085 20.32 360.085 18.16C360.085 16.6933 360.285 15.4 360.685 14.28C361.299 12.3867 362.365 10.88 363.885 9.76C365.432 8.64 367.259 8.08 369.365 8.08C372.032 8.08 374.165 8.85333 375.765 10.4C377.392 11.9467 378.379 14.0133 378.725 16.6ZM369.405 12.96C367.725 12.96 366.619 13.7467 366.085 15.32C365.979 15.6667 365.885 16.0933 365.805 16.6C365.805 16.7333 365.872 16.8 366.005 16.8H372.925C373.085 16.8 373.139 16.7333 373.085 16.6C372.952 15.8267 372.885 15.4533 372.885 15.48C372.645 14.68 372.219 14.0667 371.605 13.64C371.019 13.1867 370.285 12.96 369.405 12.96ZM392.601 8.16C393.561 8.16 394.321 8.34667 394.881 8.72C395.095 8.82667 395.175 9.02667 395.121 9.32L394.281 13.88C394.255 14.2 394.068 14.2933 393.721 14.16C393.321 14.0267 392.855 13.96 392.321 13.96C392.108 13.96 391.815 13.9867 391.441 14.04C390.481 14.12 389.668 14.48 389.001 15.12C388.335 15.7333 388.001 16.56 388.001 17.6V28.52C388.001 28.6533 387.948 28.7733 387.841 28.88C387.761 28.96 387.655 29 387.521 29H382.841C382.708 29 382.588 28.96 382.481 28.88C382.401 28.7733 382.361 28.6533 382.361 28.52V8.92C382.361 8.78667 382.401 8.68 382.481 8.6C382.588 8.49333 382.708 8.44 382.841 8.44H387.521C387.655 8.44 387.761 8.49333 387.841 8.6C387.948 8.68 388.001 8.78667 388.001 8.92V10.44C388.001 10.52 388.028 10.5733 388.081 10.6C388.135 10.6267 388.175 10.6133 388.201 10.56C389.295 8.96 390.761 8.16 392.601 8.16Z" fill="#EB6540"/>
</svg>
