<svg width="386" height="39" viewBox="0 0 386 39" fill="none" xmlns="http://www.w3.org/2000/svg">
<path d="M18.88 4.92C18.88 5.18667 18.7467 5.32 18.48 5.32H4.28C4.17333 5.32 4.12 5.37333 4.12 5.48V14.08C4.12 14.1867 4.17333 14.24 4.28 14.24H14.04C14.3067 14.24 14.44 14.3733 14.44 14.64V17.16C14.44 17.4267 14.3067 17.56 14.04 17.56H4.28C4.17333 17.56 4.12 17.6133 4.12 17.72V26.52C4.12 26.6267 4.17333 26.68 4.28 26.68H18.48C18.7467 26.68 18.88 26.8133 18.88 27.08V29.6C18.88 29.8667 18.7467 30 18.48 30H0.68C0.413333 30 0.28 29.8667 0.28 29.6V2.4C0.28 2.13333 0.413333 2 0.68 2H18.48C18.7467 2 18.88 2.13333 18.88 2.4V4.92ZM22.2663 30C22.1063 30 21.9996 29.96 21.9463 29.88C21.8929 29.7733 21.9063 29.6533 21.9863 29.52L28.6263 19.96C28.6796 19.88 28.6796 19.8 28.6263 19.72L21.9863 10.12L21.9063 9.92C21.9063 9.73333 22.0263 9.64 22.2663 9.64H25.5063C25.7196 9.64 25.8796 9.72 25.9863 9.88L30.6663 16.72C30.6929 16.7467 30.7329 16.76 30.7863 16.76C30.8396 16.76 30.8796 16.7467 30.9062 16.72L35.5463 9.88C35.6529 9.72 35.8129 9.64 36.0263 9.64H39.5063C39.6663 9.64 39.7729 9.69333 39.8263 9.8C39.8796 9.88 39.8663 9.98667 39.7863 10.12L33.1463 19.72C33.1196 19.8 33.1196 19.88 33.1463 19.96L39.7863 29.52L39.8663 29.72C39.8663 29.9067 39.7463 30 39.5063 30H36.2263C36.0129 30 35.8529 29.92 35.7463 29.76L31.1063 22.92C31.0796 22.8667 31.0396 22.84 30.9863 22.84C30.9329 22.84 30.8929 22.8667 30.8663 22.92L26.1862 29.76C26.0796 29.92 25.9196 30 25.7063 30H22.2663ZM60.1872 14.76C60.6939 16.2 60.9472 17.9067 60.9472 19.88C60.9472 21.7467 60.7339 23.36 60.3072 24.72C59.7472 26.5067 58.8272 27.8933 57.5472 28.88C56.2672 29.84 54.6272 30.32 52.6272 30.32C51.7205 30.32 50.8539 30.1467 50.0272 29.8C49.2272 29.4267 48.5339 28.9067 47.9472 28.24C47.8939 28.1867 47.8405 28.1733 47.7872 28.2C47.7605 28.2267 47.7472 28.2667 47.7472 28.32V37.24C47.7472 37.5067 47.6139 37.64 47.3472 37.64H44.3072C44.0405 37.64 43.9072 37.5067 43.9072 37.24V10.04C43.9072 9.77333 44.0405 9.64 44.3072 9.64H47.3472C47.6139 9.64 47.7472 9.77333 47.7472 10.04V11.36C47.7472 11.4133 47.7605 11.4533 47.7872 11.48C47.8405 11.5067 47.8939 11.4933 47.9472 11.44C48.5339 10.7733 49.2272 10.2533 50.0272 9.88C50.8272 9.50667 51.6939 9.32 52.6272 9.32C54.5472 9.32 56.1339 9.8 57.3872 10.76C58.6672 11.6933 59.6005 13.0267 60.1872 14.76ZM55.7872 25.08C56.6405 23.8 57.0672 22.04 57.0672 19.8C57.0672 17.7467 56.7339 16.0933 56.0672 14.84C55.2939 13.3733 54.0272 12.64 52.2672 12.64C50.7205 12.64 49.5472 13.36 48.7472 14.8C48.1072 15.9467 47.7872 17.6267 47.7872 19.84C47.7872 22.08 48.1339 23.7867 48.8272 24.96C49.6005 26.32 50.7339 27 52.2272 27C53.8272 27 55.0139 26.36 55.7872 25.08ZM82.2175 17.28C82.3242 18.3733 82.3642 19.6 82.3375 20.96C82.3375 21.2267 82.2042 21.36 81.9375 21.36H69.1775C69.0708 21.36 69.0175 21.4133 69.0175 21.52C69.0175 22.4267 69.0975 23.12 69.2575 23.6C69.5508 24.6667 70.1375 25.5067 71.0175 26.12C71.9242 26.7067 73.0575 27 74.4175 27C76.3908 27 77.9108 26.1867 78.9775 24.56C79.1108 24.2933 79.2842 24.2533 79.4975 24.44L81.7775 25.96C81.9642 26.12 82.0042 26.2933 81.8975 26.48C81.1508 27.68 80.0842 28.6267 78.6975 29.32C77.3375 30.0133 75.7908 30.36 74.0575 30.36C72.1108 30.36 70.4708 29.9333 69.1375 29.08C67.8042 28.2267 66.8042 27.0133 66.1375 25.44C65.4975 23.8667 65.1775 21.96 65.1775 19.72C65.1775 17.7733 65.3242 16.2933 65.6175 15.28C66.0975 13.44 67.0575 11.9867 68.4975 10.92C69.9375 9.85333 71.6842 9.32 73.7375 9.32C76.4308 9.32 78.4442 10 79.7775 11.36C81.1108 12.6933 81.9242 14.6667 82.2175 17.28ZM73.7375 12.64C72.5908 12.64 71.6442 12.9333 70.8975 13.52C70.1508 14.08 69.6442 14.84 69.3775 15.8C69.1908 16.3867 69.0708 17.1333 69.0175 18.04C69.0175 18.1467 69.0708 18.2 69.1775 18.2H78.3375C78.4442 18.2 78.4975 18.1467 78.4975 18.04C78.4442 17.16 78.3642 16.5067 78.2575 16.08C77.9908 15.04 77.4575 14.2133 76.6575 13.6C75.8842 12.96 74.9108 12.64 73.7375 12.64ZM96.1028 9.44C96.9561 9.44 97.7295 9.61333 98.4228 9.96C98.6095 10.04 98.6761 10.2 98.6228 10.44L97.9828 13.44C97.9561 13.68 97.7961 13.76 97.5028 13.68C97.0495 13.4933 96.5161 13.4 95.9028 13.4L95.3428 13.44C94.0895 13.4933 93.0495 13.9333 92.2228 14.76C91.4228 15.56 91.0228 16.6133 91.0228 17.92V29.6C91.0228 29.8667 90.8895 30 90.6228 30H87.5828C87.3161 30 87.1828 29.8667 87.1828 29.6V10.04C87.1828 9.77333 87.3161 9.64 87.5828 9.64H90.6228C90.8895 9.64 91.0228 9.77333 91.0228 10.04V12.16C91.0228 12.24 91.0361 12.2933 91.0628 12.32C91.1161 12.32 91.1561 12.2933 91.1828 12.24C92.3828 10.3733 94.0228 9.44 96.1028 9.44ZM104.347 6.44C103.6 6.44 102.987 6.2 102.507 5.72C102.027 5.24 101.787 4.62667 101.787 3.88C101.787 3.13333 102.027 2.52 102.507 2.04C102.987 1.56 103.6 1.32 104.347 1.32C105.093 1.32 105.707 1.56 106.187 2.04C106.667 2.52 106.907 3.13333 106.907 3.88C106.907 4.62667 106.667 5.24 106.187 5.72C105.707 6.2 105.093 6.44 104.347 6.44ZM102.747 29.96C102.48 29.96 102.347 29.8267 102.347 29.56V10.04C102.347 9.77333 102.48 9.64 102.747 9.64H105.787C106.053 9.64 106.187 9.77333 106.187 10.04V29.56C106.187 29.8267 106.053 29.96 105.787 29.96H102.747ZM128.702 17.28C128.809 18.3733 128.849 19.6 128.822 20.96C128.822 21.2267 128.689 21.36 128.422 21.36H115.662C115.555 21.36 115.502 21.4133 115.502 21.52C115.502 22.4267 115.582 23.12 115.742 23.6C116.035 24.6667 116.622 25.5067 117.502 26.12C118.409 26.7067 119.542 27 120.902 27C122.875 27 124.395 26.1867 125.462 24.56C125.595 24.2933 125.769 24.2533 125.982 24.44L128.262 25.96C128.449 26.12 128.489 26.2933 128.382 26.48C127.635 27.68 126.569 28.6267 125.182 29.32C123.822 30.0133 122.275 30.36 120.542 30.36C118.595 30.36 116.955 29.9333 115.622 29.08C114.289 28.2267 113.289 27.0133 112.622 25.44C111.982 23.8667 111.662 21.96 111.662 19.72C111.662 17.7733 111.809 16.2933 112.102 15.28C112.582 13.44 113.542 11.9867 114.982 10.92C116.422 9.85333 118.169 9.32 120.222 9.32C122.915 9.32 124.929 10 126.262 11.36C127.595 12.6933 128.409 14.6667 128.702 17.28ZM120.222 12.64C119.075 12.64 118.129 12.9333 117.382 13.52C116.635 14.08 116.129 14.84 115.862 15.8C115.675 16.3867 115.555 17.1333 115.502 18.04C115.502 18.1467 115.555 18.2 115.662 18.2H124.822C124.929 18.2 124.982 18.1467 124.982 18.04C124.929 17.16 124.849 16.5067 124.742 16.08C124.475 15.04 123.942 14.2133 123.142 13.6C122.369 12.96 121.395 12.64 120.222 12.64ZM142.747 9.36C144.934 9.36 146.667 10 147.947 11.28C149.227 12.5333 149.867 14.24 149.867 16.4V29.6C149.867 29.8667 149.734 30 149.467 30H146.427C146.161 30 146.027 29.8667 146.027 29.6V17.16C146.027 15.8267 145.641 14.7467 144.867 13.92C144.094 13.0933 143.067 12.68 141.787 12.68C140.534 12.68 139.507 13.0933 138.707 13.92C137.907 14.7467 137.507 15.8133 137.507 17.12V29.6C137.507 29.8667 137.374 30 137.107 30H134.067C133.801 30 133.667 29.8667 133.667 29.6V10.04C133.667 9.77333 133.801 9.64 134.067 9.64H137.107C137.374 9.64 137.507 9.77333 137.507 10.04V11.48C137.507 11.5333 137.521 11.5733 137.547 11.6C137.601 11.6267 137.641 11.6133 137.667 11.56C138.814 10.0933 140.507 9.36 142.747 9.36ZM163.273 30.32C161.246 30.32 159.513 29.8133 158.073 28.8C156.633 27.76 155.646 26.36 155.113 24.6C154.713 23.3733 154.513 21.76 154.513 19.76C154.513 17.92 154.713 16.3067 155.113 14.92C155.646 13.2133 156.633 11.8533 158.073 10.84C159.539 9.82667 161.273 9.32 163.273 9.32C165.273 9.32 167.019 9.82667 168.513 10.84C170.006 11.8533 170.979 13.1333 171.433 14.68C171.593 15.1067 171.699 15.5467 171.753 16C171.753 16.2133 171.633 16.3467 171.393 16.4L168.393 16.84H168.313C168.126 16.84 167.993 16.72 167.913 16.48L167.793 15.84C167.579 14.9333 167.059 14.1733 166.233 13.56C165.406 12.9467 164.406 12.64 163.233 12.64C162.086 12.64 161.113 12.9467 160.313 13.56C159.513 14.1733 158.993 14.9867 158.753 16C158.513 16.96 158.393 18.2267 158.393 19.8C158.393 21.3467 158.513 22.6 158.753 23.56C159.019 24.6267 159.539 25.4667 160.313 26.08C161.113 26.6933 162.086 27 163.233 27C164.406 27 165.406 26.6933 166.233 26.08C167.086 25.4667 167.619 24.6667 167.833 23.68C167.859 23.6533 167.859 23.6267 167.833 23.6C167.833 23.5467 167.846 23.5067 167.873 23.48V23.32C167.953 23.1067 168.099 23.0267 168.313 23.08L171.313 23.56C171.526 23.6133 171.633 23.72 171.633 23.88V24.04C171.633 24.28 171.566 24.5733 171.433 24.92C170.979 26.5467 170.006 27.8533 168.513 28.84C167.019 29.8267 165.273 30.32 163.273 30.32ZM178.487 6.44C177.741 6.44 177.127 6.2 176.647 5.72C176.167 5.24 175.927 4.62667 175.927 3.88C175.927 3.13333 176.167 2.52 176.647 2.04C177.127 1.56 177.741 1.32 178.487 1.32C179.234 1.32 179.847 1.56 180.327 2.04C180.807 2.52 181.047 3.13333 181.047 3.88C181.047 4.62667 180.807 5.24 180.327 5.72C179.847 6.2 179.234 6.44 178.487 6.44ZM176.887 29.96C176.621 29.96 176.487 29.8267 176.487 29.56V10.04C176.487 9.77333 176.621 9.64 176.887 9.64H179.927C180.194 9.64 180.327 9.77333 180.327 10.04V29.56C180.327 29.8267 180.194 29.96 179.927 29.96H176.887ZM193.803 9.32C195.429 9.32 196.843 9.61333 198.043 10.2C199.269 10.76 200.203 11.56 200.843 12.6C201.509 13.6133 201.843 14.7733 201.843 16.08V29.6C201.843 29.8667 201.709 30 201.443 30H198.403C198.136 30 198.003 29.8667 198.003 29.6V28.16C198.003 28.0267 197.936 28 197.803 28.08C197.109 28.8 196.256 29.36 195.243 29.76C194.256 30.1333 193.149 30.32 191.923 30.32C189.949 30.32 188.309 29.8267 187.003 28.84C185.723 27.8267 185.083 26.3067 185.083 24.28C185.083 22.2 185.803 20.5733 187.243 19.4C188.709 18.2 190.749 17.6 193.363 17.6H197.843C197.949 17.6 198.003 17.5467 198.003 17.44V16.36C198.003 15.1867 197.656 14.28 196.963 13.64C196.296 12.9733 195.269 12.64 193.883 12.64C192.763 12.64 191.843 12.8667 191.123 13.32C190.429 13.7467 190.003 14.3333 189.843 15.08C189.763 15.3467 189.603 15.4667 189.363 15.44L186.123 15C185.856 14.9467 185.736 14.84 185.763 14.68C185.976 13.1067 186.816 11.8267 188.283 10.84C189.749 9.82667 191.589 9.32 193.803 9.32ZM192.763 27.08C194.176 27.08 195.403 26.7067 196.443 25.96C197.483 25.2133 198.003 24.2667 198.003 23.12V20.76C198.003 20.6533 197.949 20.6 197.843 20.6H194.083C192.509 20.6 191.256 20.9067 190.323 21.52C189.389 22.1333 188.923 22.9867 188.923 24.08C188.923 25.0667 189.269 25.8133 189.963 26.32C190.683 26.8267 191.616 27.08 192.763 27.08ZM232.474 30C232.208 30 232.034 29.8667 231.954 29.6L230.754 25.68C230.701 25.5733 230.634 25.52 230.554 25.52H220.714C220.634 25.52 220.568 25.5733 220.514 25.68L219.354 29.6C219.274 29.8667 219.101 30 218.834 30H213.754C213.594 30 213.474 29.96 213.394 29.88C213.314 29.7733 213.301 29.6267 213.354 29.44L221.994 2.4C222.074 2.13333 222.248 2 222.514 2H228.794C229.061 2 229.234 2.13333 229.314 2.4L237.954 29.44C237.981 29.4933 237.994 29.56 237.994 29.64C237.994 29.88 237.848 30 237.554 30H232.474ZM221.954 20.92C221.928 21.08 221.981 21.16 222.114 21.16H229.154C229.314 21.16 229.368 21.08 229.314 20.92L225.714 9.04C225.688 8.93333 225.648 8.89333 225.594 8.92C225.541 8.92 225.501 8.96 225.474 9.04L221.954 20.92ZM244.15 7.12C243.244 7.12 242.497 6.82667 241.91 6.24C241.324 5.62666 241.03 4.86667 241.03 3.96C241.03 3.02667 241.324 2.26667 241.91 1.68C242.497 1.09333 243.244 0.799999 244.15 0.799999C245.084 0.799999 245.844 1.09333 246.43 1.68C247.017 2.26667 247.31 3.02667 247.31 3.96C247.31 4.86667 247.004 5.62666 246.39 6.24C245.804 6.82667 245.057 7.12 244.15 7.12ZM237.15 38.16C236.83 38.16 236.67 38 236.67 37.68V33.88C236.67 33.5333 236.844 33.3867 237.19 33.44C238.764 33.4933 239.857 33.2667 240.47 32.76C241.11 32.2533 241.43 31.36 241.43 30.08L241.35 9.92C241.35 9.78667 241.39 9.68 241.47 9.6C241.577 9.49333 241.697 9.44 241.83 9.44H246.51C246.644 9.44 246.75 9.49333 246.83 9.6C246.937 9.68 246.99 9.78667 246.99 9.92V30C246.99 32.16 246.697 33.8267 246.11 35C245.524 36.2 244.524 37.04 243.11 37.52C241.724 38 239.737 38.2133 237.15 38.16ZM260.387 30.32C258.147 30.32 256.227 29.7333 254.627 28.56C253.027 27.3867 251.933 25.7867 251.347 23.76C250.973 22.5067 250.787 21.1467 250.787 19.68C250.787 18.1067 250.973 16.6933 251.347 15.44C251.96 13.4667 253.067 11.92 254.667 10.8C256.267 9.68 258.187 9.12 260.427 9.12C262.613 9.12 264.48 9.68 266.027 10.8C267.573 11.8933 268.667 13.4267 269.307 15.4C269.733 16.7333 269.947 18.1333 269.947 19.6C269.947 21.04 269.76 22.3867 269.387 23.64C268.8 25.72 267.707 27.36 266.107 28.56C264.533 29.7333 262.627 30.32 260.387 30.32ZM260.387 25.48C261.267 25.48 262.013 25.2133 262.627 24.68C263.24 24.1467 263.68 23.4133 263.947 22.48C264.16 21.6267 264.267 20.6933 264.267 19.68C264.267 18.56 264.16 17.6133 263.947 16.84C263.653 15.9333 263.2 15.2267 262.587 14.72C261.973 14.2133 261.227 13.96 260.347 13.96C259.44 13.96 258.68 14.2133 258.067 14.72C257.48 15.2267 257.053 15.9333 256.787 16.84C256.573 17.48 256.467 18.4267 256.467 19.68C256.467 20.88 256.56 21.8133 256.747 22.48C257.013 23.4133 257.453 24.1467 258.067 24.68C258.707 25.2133 259.48 25.48 260.387 25.48ZM274.052 30C273.919 30 273.799 29.96 273.692 29.88C273.612 29.7733 273.572 29.6533 273.572 29.52V2.48C273.572 2.34667 273.612 2.24 273.692 2.16C273.799 2.05333 273.919 2 274.052 2H278.732C278.866 2 278.972 2.05333 279.052 2.16C279.159 2.24 279.212 2.34667 279.212 2.48V29.52C279.212 29.6533 279.159 29.7733 279.052 29.88C278.972 29.96 278.866 30 278.732 30H274.052ZM292.418 30.32C290.178 30.32 288.258 29.7333 286.658 28.56C285.058 27.3867 283.964 25.7867 283.378 23.76C283.004 22.5067 282.818 21.1467 282.818 19.68C282.818 18.1067 283.004 16.6933 283.378 15.44C283.991 13.4667 285.098 11.92 286.698 10.8C288.298 9.68 290.218 9.12 292.458 9.12C294.644 9.12 296.511 9.68 298.058 10.8C299.604 11.8933 300.698 13.4267 301.338 15.4C301.764 16.7333 301.978 18.1333 301.978 19.6C301.978 21.04 301.791 22.3867 301.418 23.64C300.831 25.72 299.738 27.36 298.138 28.56C296.564 29.7333 294.658 30.32 292.418 30.32ZM292.418 25.48C293.298 25.48 294.044 25.2133 294.658 24.68C295.271 24.1467 295.711 23.4133 295.978 22.48C296.191 21.6267 296.298 20.6933 296.298 19.68C296.298 18.56 296.191 17.6133 295.978 16.84C295.684 15.9333 295.231 15.2267 294.618 14.72C294.004 14.2133 293.258 13.96 292.378 13.96C291.471 13.96 290.711 14.2133 290.098 14.72C289.511 15.2267 289.084 15.9333 288.818 16.84C288.604 17.48 288.498 18.4267 288.498 19.68C288.498 20.88 288.591 21.8133 288.778 22.48C289.044 23.4133 289.484 24.1467 290.098 24.68C290.738 25.2133 291.511 25.48 292.418 25.48ZM316.857 13.48C316.857 13.6133 316.803 13.7333 316.697 13.84C316.617 13.92 316.51 13.96 316.377 13.96H312.537C312.403 13.96 312.337 14.0267 312.337 14.16V22.64C312.337 23.52 312.51 24.1733 312.857 24.6C313.23 25.0267 313.817 25.24 314.617 25.24H315.937C316.07 25.24 316.177 25.2933 316.257 25.4C316.363 25.48 316.417 25.5867 316.417 25.72V29.52C316.417 29.8133 316.257 29.9867 315.937 30.04C314.817 30.0933 314.017 30.12 313.537 30.12C311.323 30.12 309.67 29.76 308.577 29.04C307.483 28.2933 306.923 26.9067 306.897 24.88V14.16C306.897 14.0267 306.83 13.96 306.697 13.96H304.417C304.283 13.96 304.163 13.92 304.057 13.84C303.977 13.7333 303.937 13.6133 303.937 13.48V9.92C303.937 9.78667 303.977 9.68 304.057 9.6C304.163 9.49333 304.283 9.44 304.417 9.44H306.697C306.83 9.44 306.897 9.37333 306.897 9.24V4.48C306.897 4.34667 306.937 4.24 307.017 4.16C307.123 4.05333 307.243 4 307.377 4H311.857C311.99 4 312.097 4.05333 312.177 4.16C312.283 4.24 312.337 4.34667 312.337 4.48V9.24C312.337 9.37333 312.403 9.44 312.537 9.44H316.377C316.51 9.44 316.617 9.49333 316.697 9.6C316.803 9.68 316.857 9.78667 316.857 9.92V13.48ZM328.452 9.12C330.185 9.12 331.732 9.42667 333.092 10.04C334.452 10.6267 335.505 11.44 336.252 12.48C337.025 13.52 337.412 14.68 337.412 15.96V29.52C337.412 29.6533 337.359 29.7733 337.252 29.88C337.172 29.96 337.065 30 336.932 30H332.252C332.119 30 331.999 29.96 331.892 29.88C331.812 29.7733 331.772 29.6533 331.772 29.52V28.2C331.772 28.12 331.745 28.0667 331.692 28.04C331.639 28.0133 331.585 28.04 331.532 28.12C330.412 29.5867 328.612 30.32 326.132 30.32C324.052 30.32 322.372 29.8133 321.092 28.8C319.812 27.7867 319.172 26.2933 319.172 24.32C319.172 22.2667 319.892 20.68 321.332 19.56C322.772 18.4133 324.825 17.84 327.492 17.84H331.572C331.705 17.84 331.772 17.7733 331.772 17.64V16.76C331.772 15.88 331.505 15.2 330.972 14.72C330.439 14.2133 329.639 13.96 328.572 13.96C327.745 13.96 327.052 14.1067 326.492 14.4C325.959 14.6933 325.612 15.1067 325.452 15.64C325.372 15.9333 325.199 16.0667 324.932 16.04L320.092 15.4C319.772 15.3467 319.625 15.2267 319.652 15.04C319.759 13.92 320.199 12.9067 320.972 12C321.772 11.0933 322.812 10.3867 324.092 9.88C325.399 9.37333 326.852 9.12 328.452 9.12ZM327.652 26.12C328.799 26.12 329.772 25.8133 330.572 25.2C331.372 24.5867 331.772 23.8 331.772 22.84V21.4C331.772 21.2667 331.705 21.2 331.572 21.2H328.692C327.492 21.2 326.545 21.4267 325.852 21.88C325.185 22.3333 324.852 22.9733 324.852 23.8C324.852 24.52 325.105 25.0933 325.612 25.52C326.119 25.92 326.799 26.12 327.652 26.12ZM351.625 9.16C352.585 9.16 353.345 9.34667 353.905 9.72C354.118 9.82667 354.198 10.0267 354.145 10.32L353.305 14.88C353.278 15.2 353.091 15.2933 352.745 15.16C352.345 15.0267 351.878 14.96 351.345 14.96C351.131 14.96 350.838 14.9867 350.465 15.04C349.505 15.12 348.691 15.48 348.025 16.12C347.358 16.7333 347.025 17.56 347.025 18.6V29.52C347.025 29.6533 346.971 29.7733 346.865 29.88C346.785 29.96 346.678 30 346.545 30H341.865C341.731 30 341.611 29.96 341.505 29.88C341.425 29.7733 341.385 29.6533 341.385 29.52V9.92C341.385 9.78667 341.425 9.68 341.505 9.6C341.611 9.49333 341.731 9.44 341.865 9.44H346.545C346.678 9.44 346.785 9.49333 346.865 9.6C346.971 9.68 347.025 9.78667 347.025 9.92V11.44C347.025 11.52 347.051 11.5733 347.105 11.6C347.158 11.6267 347.198 11.6133 347.225 11.56C348.318 9.96 349.785 9.16 351.625 9.16ZM359.737 7.12C358.831 7.12 358.071 6.82667 357.457 6.24C356.871 5.62666 356.577 4.86667 356.577 3.96C356.577 3.02667 356.871 2.26667 357.457 1.68C358.044 1.09333 358.804 0.799999 359.737 0.799999C360.671 0.799999 361.431 1.09333 362.017 1.68C362.604 2.26667 362.897 3.02667 362.897 3.96C362.897 4.86667 362.591 5.62666 361.977 6.24C361.391 6.82667 360.644 7.12 359.737 7.12ZM357.337 30C357.204 30 357.084 29.96 356.977 29.88C356.897 29.7733 356.857 29.6533 356.857 29.52V9.88C356.857 9.74667 356.897 9.64 356.977 9.56C357.084 9.45333 357.204 9.4 357.337 9.4H362.017C362.151 9.4 362.257 9.45333 362.337 9.56C362.444 9.64 362.497 9.74667 362.497 9.88V29.52C362.497 29.6533 362.444 29.7733 362.337 29.88C362.257 29.96 362.151 30 362.017 30H357.337ZM375.973 30.32C373.733 30.32 371.813 29.7333 370.213 28.56C368.613 27.3867 367.519 25.7867 366.933 23.76C366.559 22.5067 366.373 21.1467 366.373 19.68C366.373 18.1067 366.559 16.6933 366.933 15.44C367.546 13.4667 368.653 11.92 370.253 10.8C371.853 9.68 373.773 9.12 376.013 9.12C378.199 9.12 380.066 9.68 381.613 10.8C383.159 11.8933 384.253 13.4267 384.893 15.4C385.319 16.7333 385.533 18.1333 385.533 19.6C385.533 21.04 385.346 22.3867 384.973 23.64C384.386 25.72 383.293 27.36 381.693 28.56C380.119 29.7333 378.213 30.32 375.973 30.32ZM375.973 25.48C376.853 25.48 377.599 25.2133 378.213 24.68C378.826 24.1467 379.266 23.4133 379.533 22.48C379.746 21.6267 379.853 20.6933 379.853 19.68C379.853 18.56 379.746 17.6133 379.533 16.84C379.239 15.9333 378.786 15.2267 378.173 14.72C377.559 14.2133 376.813 13.96 375.933 13.96C375.026 13.96 374.266 14.2133 373.653 14.72C373.066 15.2267 372.639 15.9333 372.373 16.84C372.159 17.48 372.053 18.4267 372.053 19.68C372.053 20.88 372.146 21.8133 372.333 22.48C372.599 23.4133 373.039 24.1467 373.653 24.68C374.293 25.2133 375.066 25.48 375.973 25.48Z" fill="#C64191"/>
</svg>
