<svg width="392" height="37" viewBox="0 0 392 37" fill="none" xmlns="http://www.w3.org/2000/svg">
<path d="M18.88 3.92C18.88 4.18667 18.7467 4.32 18.48 4.32H4.28C4.17333 4.32 4.12 4.37333 4.12 4.48V13.08C4.12 13.1867 4.17333 13.24 4.28 13.24H14.04C14.3067 13.24 14.44 13.3733 14.44 13.64V16.16C14.44 16.4267 14.3067 16.56 14.04 16.56H4.28C4.17333 16.56 4.12 16.6133 4.12 16.72V25.52C4.12 25.6267 4.17333 25.68 4.28 25.68H18.48C18.7467 25.68 18.88 25.8133 18.88 26.08V28.6C18.88 28.8667 18.7467 29 18.48 29H0.68C0.413333 29 0.28 28.8667 0.28 28.6V1.4C0.28 1.13333 0.413333 0.999998 0.68 0.999998H18.48C18.7467 0.999998 18.88 1.13333 18.88 1.4V3.92ZM22.2663 29C22.1063 29 21.9996 28.96 21.9463 28.88C21.8929 28.7733 21.9063 28.6533 21.9863 28.52L28.6263 18.96C28.6796 18.88 28.6796 18.8 28.6263 18.72L21.9863 9.12L21.9063 8.92C21.9063 8.73333 22.0263 8.64 22.2663 8.64H25.5063C25.7196 8.64 25.8796 8.72 25.9863 8.88L30.6663 15.72C30.6929 15.7467 30.7329 15.76 30.7863 15.76C30.8396 15.76 30.8796 15.7467 30.9062 15.72L35.5463 8.88C35.6529 8.72 35.8129 8.64 36.0263 8.64H39.5063C39.6663 8.64 39.7729 8.69333 39.8263 8.8C39.8796 8.88 39.8663 8.98667 39.7863 9.12L33.1463 18.72C33.1196 18.8 33.1196 18.88 33.1463 18.96L39.7863 28.52L39.8663 28.72C39.8663 28.9067 39.7463 29 39.5063 29H36.2263C36.0129 29 35.8529 28.92 35.7463 28.76L31.1063 21.92C31.0796 21.8667 31.0396 21.84 30.9863 21.84C30.9329 21.84 30.8929 21.8667 30.8663 21.92L26.1862 28.76C26.0796 28.92 25.9196 29 25.7063 29H22.2663ZM60.1872 13.76C60.6939 15.2 60.9472 16.9067 60.9472 18.88C60.9472 20.7467 60.7339 22.36 60.3072 23.72C59.7472 25.5067 58.8272 26.8933 57.5472 27.88C56.2672 28.84 54.6272 29.32 52.6272 29.32C51.7205 29.32 50.8539 29.1467 50.0272 28.8C49.2272 28.4267 48.5339 27.9067 47.9472 27.24C47.8939 27.1867 47.8405 27.1733 47.7872 27.2C47.7605 27.2267 47.7472 27.2667 47.7472 27.32V36.24C47.7472 36.5067 47.6139 36.64 47.3472 36.64H44.3072C44.0405 36.64 43.9072 36.5067 43.9072 36.24V9.04C43.9072 8.77333 44.0405 8.64 44.3072 8.64H47.3472C47.6139 8.64 47.7472 8.77333 47.7472 9.04V10.36C47.7472 10.4133 47.7605 10.4533 47.7872 10.48C47.8405 10.5067 47.8939 10.4933 47.9472 10.44C48.5339 9.77333 49.2272 9.25333 50.0272 8.88C50.8272 8.50667 51.6939 8.32 52.6272 8.32C54.5472 8.32 56.1339 8.8 57.3872 9.76C58.6672 10.6933 59.6005 12.0267 60.1872 13.76ZM55.7872 24.08C56.6405 22.8 57.0672 21.04 57.0672 18.8C57.0672 16.7467 56.7339 15.0933 56.0672 13.84C55.2939 12.3733 54.0272 11.64 52.2672 11.64C50.7205 11.64 49.5472 12.36 48.7472 13.8C48.1072 14.9467 47.7872 16.6267 47.7872 18.84C47.7872 21.08 48.1339 22.7867 48.8272 23.96C49.6005 25.32 50.7339 26 52.2272 26C53.8272 26 55.0139 25.36 55.7872 24.08ZM82.2175 16.28C82.3242 17.3733 82.3642 18.6 82.3375 19.96C82.3375 20.2267 82.2042 20.36 81.9375 20.36H69.1775C69.0708 20.36 69.0175 20.4133 69.0175 20.52C69.0175 21.4267 69.0975 22.12 69.2575 22.6C69.5508 23.6667 70.1375 24.5067 71.0175 25.12C71.9242 25.7067 73.0575 26 74.4175 26C76.3908 26 77.9108 25.1867 78.9775 23.56C79.1108 23.2933 79.2842 23.2533 79.4975 23.44L81.7775 24.96C81.9642 25.12 82.0042 25.2933 81.8975 25.48C81.1508 26.68 80.0842 27.6267 78.6975 28.32C77.3375 29.0133 75.7908 29.36 74.0575 29.36C72.1108 29.36 70.4708 28.9333 69.1375 28.08C67.8042 27.2267 66.8042 26.0133 66.1375 24.44C65.4975 22.8667 65.1775 20.96 65.1775 18.72C65.1775 16.7733 65.3242 15.2933 65.6175 14.28C66.0975 12.44 67.0575 10.9867 68.4975 9.92C69.9375 8.85333 71.6842 8.32 73.7375 8.32C76.4308 8.32 78.4442 9 79.7775 10.36C81.1108 11.6933 81.9242 13.6667 82.2175 16.28ZM73.7375 11.64C72.5908 11.64 71.6442 11.9333 70.8975 12.52C70.1508 13.08 69.6442 13.84 69.3775 14.8C69.1908 15.3867 69.0708 16.1333 69.0175 17.04C69.0175 17.1467 69.0708 17.2 69.1775 17.2H78.3375C78.4442 17.2 78.4975 17.1467 78.4975 17.04C78.4442 16.16 78.3642 15.5067 78.2575 15.08C77.9908 14.04 77.4575 13.2133 76.6575 12.6C75.8842 11.96 74.9108 11.64 73.7375 11.64ZM96.1028 8.44C96.9561 8.44 97.7295 8.61333 98.4228 8.96C98.6095 9.04 98.6761 9.2 98.6228 9.44L97.9828 12.44C97.9561 12.68 97.7961 12.76 97.5028 12.68C97.0495 12.4933 96.5161 12.4 95.9028 12.4L95.3428 12.44C94.0895 12.4933 93.0495 12.9333 92.2228 13.76C91.4228 14.56 91.0228 15.6133 91.0228 16.92V28.6C91.0228 28.8667 90.8895 29 90.6228 29H87.5828C87.3161 29 87.1828 28.8667 87.1828 28.6V9.04C87.1828 8.77333 87.3161 8.64 87.5828 8.64H90.6228C90.8895 8.64 91.0228 8.77333 91.0228 9.04V11.16C91.0228 11.24 91.0361 11.2933 91.0628 11.32C91.1161 11.32 91.1561 11.2933 91.1828 11.24C92.3828 9.37333 94.0228 8.44 96.1028 8.44ZM104.347 5.44C103.6 5.44 102.987 5.2 102.507 4.72C102.027 4.24 101.787 3.62667 101.787 2.88C101.787 2.13333 102.027 1.52 102.507 1.04C102.987 0.559999 103.6 0.32 104.347 0.32C105.093 0.32 105.707 0.559999 106.187 1.04C106.667 1.52 106.907 2.13333 106.907 2.88C106.907 3.62667 106.667 4.24 106.187 4.72C105.707 5.2 105.093 5.44 104.347 5.44ZM102.747 28.96C102.48 28.96 102.347 28.8267 102.347 28.56V9.04C102.347 8.77333 102.48 8.64 102.747 8.64H105.787C106.053 8.64 106.187 8.77333 106.187 9.04V28.56C106.187 28.8267 106.053 28.96 105.787 28.96H102.747ZM128.702 16.28C128.809 17.3733 128.849 18.6 128.822 19.96C128.822 20.2267 128.689 20.36 128.422 20.36H115.662C115.555 20.36 115.502 20.4133 115.502 20.52C115.502 21.4267 115.582 22.12 115.742 22.6C116.035 23.6667 116.622 24.5067 117.502 25.12C118.409 25.7067 119.542 26 120.902 26C122.875 26 124.395 25.1867 125.462 23.56C125.595 23.2933 125.769 23.2533 125.982 23.44L128.262 24.96C128.449 25.12 128.489 25.2933 128.382 25.48C127.635 26.68 126.569 27.6267 125.182 28.32C123.822 29.0133 122.275 29.36 120.542 29.36C118.595 29.36 116.955 28.9333 115.622 28.08C114.289 27.2267 113.289 26.0133 112.622 24.44C111.982 22.8667 111.662 20.96 111.662 18.72C111.662 16.7733 111.809 15.2933 112.102 14.28C112.582 12.44 113.542 10.9867 114.982 9.92C116.422 8.85333 118.169 8.32 120.222 8.32C122.915 8.32 124.929 9 126.262 10.36C127.595 11.6933 128.409 13.6667 128.702 16.28ZM120.222 11.64C119.075 11.64 118.129 11.9333 117.382 12.52C116.635 13.08 116.129 13.84 115.862 14.8C115.675 15.3867 115.555 16.1333 115.502 17.04C115.502 17.1467 115.555 17.2 115.662 17.2H124.822C124.929 17.2 124.982 17.1467 124.982 17.04C124.929 16.16 124.849 15.5067 124.742 15.08C124.475 14.04 123.942 13.2133 123.142 12.6C122.369 11.96 121.395 11.64 120.222 11.64ZM142.747 8.36C144.934 8.36 146.667 9 147.947 10.28C149.227 11.5333 149.867 13.24 149.867 15.4V28.6C149.867 28.8667 149.734 29 149.467 29H146.427C146.161 29 146.027 28.8667 146.027 28.6V16.16C146.027 14.8267 145.641 13.7467 144.867 12.92C144.094 12.0933 143.067 11.68 141.787 11.68C140.534 11.68 139.507 12.0933 138.707 12.92C137.907 13.7467 137.507 14.8133 137.507 16.12V28.6C137.507 28.8667 137.374 29 137.107 29H134.067C133.801 29 133.667 28.8667 133.667 28.6V9.04C133.667 8.77333 133.801 8.64 134.067 8.64H137.107C137.374 8.64 137.507 8.77333 137.507 9.04V10.48C137.507 10.5333 137.521 10.5733 137.547 10.6C137.601 10.6267 137.641 10.6133 137.667 10.56C138.814 9.09333 140.507 8.36 142.747 8.36ZM163.273 29.32C161.246 29.32 159.513 28.8133 158.073 27.8C156.633 26.76 155.646 25.36 155.113 23.6C154.713 22.3733 154.513 20.76 154.513 18.76C154.513 16.92 154.713 15.3067 155.113 13.92C155.646 12.2133 156.633 10.8533 158.073 9.84C159.539 8.82667 161.273 8.32 163.273 8.32C165.273 8.32 167.019 8.82667 168.513 9.84C170.006 10.8533 170.979 12.1333 171.433 13.68C171.593 14.1067 171.699 14.5467 171.753 15C171.753 15.2133 171.633 15.3467 171.393 15.4L168.393 15.84H168.313C168.126 15.84 167.993 15.72 167.913 15.48L167.793 14.84C167.579 13.9333 167.059 13.1733 166.233 12.56C165.406 11.9467 164.406 11.64 163.233 11.64C162.086 11.64 161.113 11.9467 160.313 12.56C159.513 13.1733 158.993 13.9867 158.753 15C158.513 15.96 158.393 17.2267 158.393 18.8C158.393 20.3467 158.513 21.6 158.753 22.56C159.019 23.6267 159.539 24.4667 160.313 25.08C161.113 25.6933 162.086 26 163.233 26C164.406 26 165.406 25.6933 166.233 25.08C167.086 24.4667 167.619 23.6667 167.833 22.68C167.859 22.6533 167.859 22.6267 167.833 22.6C167.833 22.5467 167.846 22.5067 167.873 22.48V22.32C167.953 22.1067 168.099 22.0267 168.313 22.08L171.313 22.56C171.526 22.6133 171.633 22.72 171.633 22.88V23.04C171.633 23.28 171.566 23.5733 171.433 23.92C170.979 25.5467 170.006 26.8533 168.513 27.84C167.019 28.8267 165.273 29.32 163.273 29.32ZM178.487 5.44C177.741 5.44 177.127 5.2 176.647 4.72C176.167 4.24 175.927 3.62667 175.927 2.88C175.927 2.13333 176.167 1.52 176.647 1.04C177.127 0.559999 177.741 0.32 178.487 0.32C179.234 0.32 179.847 0.559999 180.327 1.04C180.807 1.52 181.047 2.13333 181.047 2.88C181.047 3.62667 180.807 4.24 180.327 4.72C179.847 5.2 179.234 5.44 178.487 5.44ZM176.887 28.96C176.621 28.96 176.487 28.8267 176.487 28.56V9.04C176.487 8.77333 176.621 8.64 176.887 8.64H179.927C180.194 8.64 180.327 8.77333 180.327 9.04V28.56C180.327 28.8267 180.194 28.96 179.927 28.96H176.887ZM193.803 8.32C195.429 8.32 196.843 8.61333 198.043 9.2C199.269 9.76 200.203 10.56 200.843 11.6C201.509 12.6133 201.843 13.7733 201.843 15.08V28.6C201.843 28.8667 201.709 29 201.443 29H198.403C198.136 29 198.003 28.8667 198.003 28.6V27.16C198.003 27.0267 197.936 27 197.803 27.08C197.109 27.8 196.256 28.36 195.243 28.76C194.256 29.1333 193.149 29.32 191.923 29.32C189.949 29.32 188.309 28.8267 187.003 27.84C185.723 26.8267 185.083 25.3067 185.083 23.28C185.083 21.2 185.803 19.5733 187.243 18.4C188.709 17.2 190.749 16.6 193.363 16.6H197.843C197.949 16.6 198.003 16.5467 198.003 16.44V15.36C198.003 14.1867 197.656 13.28 196.963 12.64C196.296 11.9733 195.269 11.64 193.883 11.64C192.763 11.64 191.843 11.8667 191.123 12.32C190.429 12.7467 190.003 13.3333 189.843 14.08C189.763 14.3467 189.603 14.4667 189.363 14.44L186.123 14C185.856 13.9467 185.736 13.84 185.763 13.68C185.976 12.1067 186.816 10.8267 188.283 9.84C189.749 8.82667 191.589 8.32 193.803 8.32ZM192.763 26.08C194.176 26.08 195.403 25.7067 196.443 24.96C197.483 24.2133 198.003 23.2667 198.003 22.12V19.76C198.003 19.6533 197.949 19.6 197.843 19.6H194.083C192.509 19.6 191.256 19.9067 190.323 20.52C189.389 21.1333 188.923 21.9867 188.923 23.08C188.923 24.0667 189.269 24.8133 189.963 25.32C190.683 25.8267 191.616 26.08 192.763 26.08ZM232.474 29C232.208 29 232.034 28.8667 231.954 28.6L230.754 24.68C230.701 24.5733 230.634 24.52 230.554 24.52H220.714C220.634 24.52 220.568 24.5733 220.514 24.68L219.354 28.6C219.274 28.8667 219.101 29 218.834 29H213.754C213.594 29 213.474 28.96 213.394 28.88C213.314 28.7733 213.301 28.6267 213.354 28.44L221.994 1.4C222.074 1.13333 222.248 0.999998 222.514 0.999998H228.794C229.061 0.999998 229.234 1.13333 229.314 1.4L237.954 28.44C237.981 28.4933 237.994 28.56 237.994 28.64C237.994 28.88 237.848 29 237.554 29H232.474ZM221.954 19.92C221.928 20.08 221.981 20.16 222.114 20.16H229.154C229.314 20.16 229.368 20.08 229.314 19.92L225.714 8.04C225.688 7.93333 225.648 7.89333 225.594 7.92C225.541 7.92 225.501 7.96 225.474 8.04L221.954 19.92ZM251.778 12.48C251.778 12.6133 251.725 12.7333 251.618 12.84C251.538 12.92 251.432 12.96 251.298 12.96H247.458C247.325 12.96 247.258 13.0267 247.258 13.16V21.64C247.258 22.52 247.432 23.1733 247.778 23.6C248.152 24.0267 248.738 24.24 249.538 24.24H250.858C250.992 24.24 251.098 24.2933 251.178 24.4C251.285 24.48 251.338 24.5867 251.338 24.72V28.52C251.338 28.8133 251.178 28.9867 250.858 29.04C249.738 29.0933 248.938 29.12 248.458 29.12C246.245 29.12 244.592 28.76 243.498 28.04C242.405 27.2933 241.845 25.9067 241.818 23.88V13.16C241.818 13.0267 241.752 12.96 241.618 12.96H239.338C239.205 12.96 239.085 12.92 238.978 12.84C238.898 12.7333 238.858 12.6133 238.858 12.48V8.92C238.858 8.78667 238.898 8.68 238.978 8.6C239.085 8.49333 239.205 8.44 239.338 8.44H241.618C241.752 8.44 241.818 8.37333 241.818 8.24V3.48C241.818 3.34667 241.858 3.24 241.938 3.16C242.045 3.05333 242.165 3 242.298 3H246.778C246.912 3 247.018 3.05333 247.098 3.16C247.205 3.24 247.258 3.34667 247.258 3.48V8.24C247.258 8.37333 247.325 8.44 247.458 8.44H251.298C251.432 8.44 251.538 8.49333 251.618 8.6C251.725 8.68 251.778 8.78667 251.778 8.92V12.48ZM263.374 8.12C265.107 8.12 266.654 8.42667 268.014 9.04C269.374 9.62667 270.427 10.44 271.174 11.48C271.947 12.52 272.334 13.68 272.334 14.96V28.52C272.334 28.6533 272.28 28.7733 272.174 28.88C272.094 28.96 271.987 29 271.854 29H267.174C267.04 29 266.92 28.96 266.814 28.88C266.734 28.7733 266.694 28.6533 266.694 28.52V27.2C266.694 27.12 266.667 27.0667 266.614 27.04C266.56 27.0133 266.507 27.04 266.454 27.12C265.334 28.5867 263.534 29.32 261.054 29.32C258.974 29.32 257.294 28.8133 256.014 27.8C254.734 26.7867 254.094 25.2933 254.094 23.32C254.094 21.2667 254.814 19.68 256.254 18.56C257.694 17.4133 259.747 16.84 262.414 16.84H266.494C266.627 16.84 266.694 16.7733 266.694 16.64V15.76C266.694 14.88 266.427 14.2 265.894 13.72C265.36 13.2133 264.56 12.96 263.494 12.96C262.667 12.96 261.974 13.1067 261.414 13.4C260.88 13.6933 260.534 14.1067 260.374 14.64C260.294 14.9333 260.12 15.0667 259.854 15.04L255.014 14.4C254.694 14.3467 254.547 14.2267 254.574 14.04C254.68 12.92 255.12 11.9067 255.894 11C256.694 10.0933 257.734 9.38667 259.014 8.88C260.32 8.37333 261.774 8.12 263.374 8.12ZM262.574 25.12C263.72 25.12 264.694 24.8133 265.494 24.2C266.294 23.5867 266.694 22.8 266.694 21.84V20.4C266.694 20.2667 266.627 20.2 266.494 20.2H263.614C262.414 20.2 261.467 20.4267 260.774 20.88C260.107 21.3333 259.774 21.9733 259.774 22.8C259.774 23.52 260.027 24.0933 260.534 24.52C261.04 24.92 261.72 25.12 262.574 25.12ZM286.547 8.16C287.507 8.16 288.267 8.34667 288.827 8.72C289.04 8.82667 289.12 9.02667 289.067 9.32L288.227 13.88C288.2 14.2 288.013 14.2933 287.667 14.16C287.267 14.0267 286.8 13.96 286.267 13.96C286.053 13.96 285.76 13.9867 285.387 14.04C284.427 14.12 283.613 14.48 282.947 15.12C282.28 15.7333 281.947 16.56 281.947 17.6V28.52C281.947 28.6533 281.893 28.7733 281.787 28.88C281.707 28.96 281.6 29 281.467 29H276.787C276.653 29 276.533 28.96 276.427 28.88C276.347 28.7733 276.307 28.6533 276.307 28.52V8.92C276.307 8.78667 276.347 8.68 276.427 8.6C276.533 8.49333 276.653 8.44 276.787 8.44H281.467C281.6 8.44 281.707 8.49333 281.787 8.6C281.893 8.68 281.947 8.78667 281.947 8.92V10.44C281.947 10.52 281.973 10.5733 282.027 10.6C282.08 10.6267 282.12 10.6133 282.147 10.56C283.24 8.96 284.707 8.16 286.547 8.16ZM303.871 1.48C303.871 1.34667 303.911 1.24 303.991 1.16C304.098 1.05333 304.218 0.999998 304.351 0.999998H309.031C309.165 0.999998 309.271 1.05333 309.351 1.16C309.458 1.24 309.511 1.34667 309.511 1.48V28.52C309.511 28.6533 309.458 28.7733 309.351 28.88C309.271 28.96 309.165 29 309.031 29H304.351C304.218 29 304.098 28.96 303.991 28.88C303.911 28.7733 303.871 28.6533 303.871 28.52V27.2C303.871 27.12 303.845 27.08 303.791 27.08C303.738 27.0533 303.685 27.0667 303.631 27.12C302.511 28.5867 300.978 29.32 299.031 29.32C297.165 29.32 295.551 28.8 294.191 27.76C292.858 26.72 291.898 25.2933 291.311 23.48C290.858 22.0933 290.631 20.48 290.631 18.64C290.631 16.7467 290.871 15.0933 291.351 13.68C291.965 11.9733 292.925 10.6267 294.231 9.64C295.565 8.62667 297.205 8.12 299.151 8.12C301.071 8.12 302.565 8.78667 303.631 10.12C303.685 10.2 303.738 10.2267 303.791 10.2C303.845 10.1733 303.871 10.12 303.871 10.04V1.48ZM303.031 22.76C303.565 21.7733 303.831 20.4267 303.831 18.72C303.831 16.9333 303.538 15.5333 302.951 14.52C302.338 13.48 301.445 12.96 300.271 12.96C299.018 12.96 298.071 13.48 297.431 14.52C296.765 15.56 296.431 16.9733 296.431 18.76C296.431 20.36 296.711 21.6933 297.271 22.76C297.938 23.9067 298.925 24.48 300.231 24.48C301.431 24.48 302.365 23.9067 303.031 22.76ZM331.968 16.6C332.128 17.6133 332.181 18.7467 332.128 20C332.101 20.32 331.928 20.48 331.608 20.48H319.248C319.088 20.48 319.034 20.5467 319.088 20.68C319.168 21.2133 319.314 21.7467 319.528 22.28C320.221 23.7733 321.634 24.52 323.768 24.52C325.474 24.4933 326.821 23.8 327.808 22.44C327.914 22.28 328.034 22.2 328.168 22.2C328.248 22.2 328.341 22.2533 328.448 22.36L331.328 25.2C331.461 25.3333 331.528 25.4533 331.528 25.56C331.528 25.6133 331.474 25.72 331.368 25.88C330.488 26.9733 329.354 27.8267 327.968 28.44C326.581 29.0267 325.061 29.32 323.408 29.32C321.114 29.32 319.168 28.8 317.567 27.76C315.994 26.72 314.861 25.2667 314.168 23.4C313.608 22.0667 313.328 20.32 313.328 18.16C313.328 16.6933 313.528 15.4 313.928 14.28C314.541 12.3867 315.608 10.88 317.128 9.76C318.674 8.64 320.501 8.08 322.608 8.08C325.274 8.08 327.408 8.85333 329.008 10.4C330.634 11.9467 331.621 14.0133 331.968 16.6ZM322.648 12.96C320.968 12.96 319.861 13.7467 319.328 15.32C319.221 15.6667 319.128 16.0933 319.048 16.6C319.048 16.7333 319.114 16.8 319.248 16.8H326.168C326.328 16.8 326.381 16.7333 326.328 16.6C326.194 15.8267 326.128 15.4533 326.128 15.48C325.888 14.68 325.461 14.0667 324.848 13.64C324.261 13.1867 323.528 12.96 322.648 12.96ZM344.643 29.32C342.51 29.32 340.657 28.7867 339.083 27.72C337.537 26.6533 336.43 25.1867 335.763 23.32C335.31 21.9867 335.083 20.4133 335.083 18.6C335.083 16.8133 335.31 15.2667 335.763 13.96C336.403 12.1467 337.51 10.72 339.083 9.68C340.657 8.64 342.51 8.12 344.643 8.12C346.777 8.12 348.643 8.65333 350.243 9.72C351.87 10.7867 352.95 12.1333 353.483 13.76C353.697 14.4 353.803 14.88 353.803 15.2V15.28C353.803 15.52 353.67 15.6667 353.403 15.72L348.803 16.4H348.723C348.483 16.4 348.323 16.2667 348.243 16L348.123 15.36C347.937 14.6667 347.523 14.0933 346.883 13.64C346.243 13.1867 345.483 12.96 344.603 12.96C343.75 12.96 343.03 13.1733 342.443 13.6C341.857 14.0267 341.443 14.6133 341.203 15.36C340.91 16.16 340.763 17.2533 340.763 18.64C340.763 20.0267 340.897 21.12 341.163 21.92C341.403 22.72 341.817 23.3467 342.403 23.8C343.017 24.2533 343.75 24.48 344.603 24.48C345.43 24.48 346.15 24.2667 346.763 23.84C347.403 23.3867 347.843 22.7733 348.083 22C348.11 21.9467 348.123 21.8667 348.123 21.76C348.15 21.7333 348.163 21.6933 348.163 21.64C348.19 21.32 348.377 21.1867 348.723 21.24L353.323 21.96C353.59 22.0133 353.723 22.16 353.723 22.4C353.723 22.6133 353.643 23.0133 353.483 23.6C352.923 25.3867 351.83 26.7867 350.203 27.8C348.603 28.8133 346.75 29.32 344.643 29.32ZM375.053 16.6C375.213 17.6133 375.267 18.7467 375.213 20C375.187 20.32 375.013 20.48 374.693 20.48H362.333C362.173 20.48 362.12 20.5467 362.173 20.68C362.253 21.2133 362.4 21.7467 362.613 22.28C363.307 23.7733 364.72 24.52 366.853 24.52C368.56 24.4933 369.907 23.8 370.893 22.44C371 22.28 371.12 22.2 371.253 22.2C371.333 22.2 371.427 22.2533 371.533 22.36L374.413 25.2C374.547 25.3333 374.613 25.4533 374.613 25.56C374.613 25.6133 374.56 25.72 374.453 25.88C373.573 26.9733 372.44 27.8267 371.053 28.44C369.667 29.0267 368.147 29.32 366.493 29.32C364.2 29.32 362.253 28.8 360.653 27.76C359.08 26.72 357.947 25.2667 357.253 23.4C356.693 22.0667 356.413 20.32 356.413 18.16C356.413 16.6933 356.613 15.4 357.013 14.28C357.627 12.3867 358.693 10.88 360.213 9.76C361.76 8.64 363.587 8.08 365.693 8.08C368.36 8.08 370.493 8.85333 372.093 10.4C373.72 11.9467 374.707 14.0133 375.053 16.6ZM365.733 12.96C364.053 12.96 362.947 13.7467 362.413 15.32C362.307 15.6667 362.213 16.0933 362.133 16.6C362.133 16.7333 362.2 16.8 362.333 16.8H369.253C369.413 16.8 369.467 16.7333 369.413 16.6C369.28 15.8267 369.213 15.4533 369.213 15.48C368.973 14.68 368.547 14.0667 367.933 13.64C367.347 13.1867 366.613 12.96 365.733 12.96ZM388.929 8.16C389.889 8.16 390.649 8.34667 391.209 8.72C391.423 8.82667 391.503 9.02667 391.449 9.32L390.609 13.88C390.583 14.2 390.396 14.2933 390.049 14.16C389.649 14.0267 389.183 13.96 388.649 13.96C388.436 13.96 388.143 13.9867 387.769 14.04C386.809 14.12 385.996 14.48 385.329 15.12C384.663 15.7333 384.329 16.56 384.329 17.6V28.52C384.329 28.6533 384.276 28.7733 384.169 28.88C384.089 28.96 383.983 29 383.849 29H379.169C379.036 29 378.916 28.96 378.809 28.88C378.729 28.7733 378.689 28.6533 378.689 28.52V8.92C378.689 8.78667 378.729 8.68 378.809 8.6C378.916 8.49333 379.036 8.44 379.169 8.44H383.849C383.983 8.44 384.089 8.49333 384.169 8.6C384.276 8.68 384.329 8.78667 384.329 8.92V10.44C384.329 10.52 384.356 10.5733 384.409 10.6C384.463 10.6267 384.503 10.6133 384.529 10.56C385.623 8.96 387.089 8.16 388.929 8.16Z" fill="#EB6540"/>
</svg>
