<svg width="389" height="37" viewBox="0 0 389 37" fill="none" xmlns="http://www.w3.org/2000/svg">
<path d="M18.88 3.92C18.88 4.18667 18.7467 4.32 18.48 4.32H4.28C4.17333 4.32 4.12 4.37333 4.12 4.48V13.08C4.12 13.1867 4.17333 13.24 4.28 13.24H14.04C14.3067 13.24 14.44 13.3733 14.44 13.64V16.16C14.44 16.4267 14.3067 16.56 14.04 16.56H4.28C4.17333 16.56 4.12 16.6133 4.12 16.72V25.52C4.12 25.6267 4.17333 25.68 4.28 25.68H18.48C18.7467 25.68 18.88 25.8133 18.88 26.08V28.6C18.88 28.8667 18.7467 29 18.48 29H0.68C0.413333 29 0.28 28.8667 0.28 28.6V1.4C0.28 1.13333 0.413333 0.999998 0.68 0.999998H18.48C18.7467 0.999998 18.88 1.13333 18.88 1.4V3.92ZM22.2663 29C22.1063 29 21.9996 28.96 21.9463 28.88C21.8929 28.7733 21.9063 28.6533 21.9863 28.52L28.6263 18.96C28.6796 18.88 28.6796 18.8 28.6263 18.72L21.9863 9.12L21.9063 8.92C21.9063 8.73333 22.0263 8.64 22.2663 8.64H25.5063C25.7196 8.64 25.8796 8.72 25.9863 8.88L30.6663 15.72C30.6929 15.7467 30.7329 15.76 30.7863 15.76C30.8396 15.76 30.8796 15.7467 30.9062 15.72L35.5463 8.88C35.6529 8.72 35.8129 8.64 36.0263 8.64H39.5063C39.6663 8.64 39.7729 8.69333 39.8263 8.8C39.8796 8.88 39.8663 8.98667 39.7863 9.12L33.1463 18.72C33.1196 18.8 33.1196 18.88 33.1463 18.96L39.7863 28.52L39.8663 28.72C39.8663 28.9067 39.7463 29 39.5063 29H36.2263C36.0129 29 35.8529 28.92 35.7463 28.76L31.1063 21.92C31.0796 21.8667 31.0396 21.84 30.9863 21.84C30.9329 21.84 30.8929 21.8667 30.8663 21.92L26.1862 28.76C26.0796 28.92 25.9196 29 25.7063 29H22.2663ZM60.1872 13.76C60.6939 15.2 60.9472 16.9067 60.9472 18.88C60.9472 20.7467 60.7339 22.36 60.3072 23.72C59.7472 25.5067 58.8272 26.8933 57.5472 27.88C56.2672 28.84 54.6272 29.32 52.6272 29.32C51.7205 29.32 50.8539 29.1467 50.0272 28.8C49.2272 28.4267 48.5339 27.9067 47.9472 27.24C47.8939 27.1867 47.8405 27.1733 47.7872 27.2C47.7605 27.2267 47.7472 27.2667 47.7472 27.32V36.24C47.7472 36.5067 47.6139 36.64 47.3472 36.64H44.3072C44.0405 36.64 43.9072 36.5067 43.9072 36.24V9.04C43.9072 8.77333 44.0405 8.64 44.3072 8.64H47.3472C47.6139 8.64 47.7472 8.77333 47.7472 9.04V10.36C47.7472 10.4133 47.7605 10.4533 47.7872 10.48C47.8405 10.5067 47.8939 10.4933 47.9472 10.44C48.5339 9.77333 49.2272 9.25333 50.0272 8.88C50.8272 8.50667 51.6939 8.32 52.6272 8.32C54.5472 8.32 56.1339 8.8 57.3872 9.76C58.6672 10.6933 59.6005 12.0267 60.1872 13.76ZM55.7872 24.08C56.6405 22.8 57.0672 21.04 57.0672 18.8C57.0672 16.7467 56.7339 15.0933 56.0672 13.84C55.2939 12.3733 54.0272 11.64 52.2672 11.64C50.7205 11.64 49.5472 12.36 48.7472 13.8C48.1072 14.9467 47.7872 16.6267 47.7872 18.84C47.7872 21.08 48.1339 22.7867 48.8272 23.96C49.6005 25.32 50.7339 26 52.2272 26C53.8272 26 55.0139 25.36 55.7872 24.08ZM82.2175 16.28C82.3242 17.3733 82.3642 18.6 82.3375 19.96C82.3375 20.2267 82.2042 20.36 81.9375 20.36H69.1775C69.0708 20.36 69.0175 20.4133 69.0175 20.52C69.0175 21.4267 69.0975 22.12 69.2575 22.6C69.5508 23.6667 70.1375 24.5067 71.0175 25.12C71.9242 25.7067 73.0575 26 74.4175 26C76.3908 26 77.9108 25.1867 78.9775 23.56C79.1108 23.2933 79.2842 23.2533 79.4975 23.44L81.7775 24.96C81.9642 25.12 82.0042 25.2933 81.8975 25.48C81.1508 26.68 80.0842 27.6267 78.6975 28.32C77.3375 29.0133 75.7908 29.36 74.0575 29.36C72.1108 29.36 70.4708 28.9333 69.1375 28.08C67.8042 27.2267 66.8042 26.0133 66.1375 24.44C65.4975 22.8667 65.1775 20.96 65.1775 18.72C65.1775 16.7733 65.3242 15.2933 65.6175 14.28C66.0975 12.44 67.0575 10.9867 68.4975 9.92C69.9375 8.85333 71.6842 8.32 73.7375 8.32C76.4308 8.32 78.4442 9 79.7775 10.36C81.1108 11.6933 81.9242 13.6667 82.2175 16.28ZM73.7375 11.64C72.5908 11.64 71.6442 11.9333 70.8975 12.52C70.1508 13.08 69.6442 13.84 69.3775 14.8C69.1908 15.3867 69.0708 16.1333 69.0175 17.04C69.0175 17.1467 69.0708 17.2 69.1775 17.2H78.3375C78.4442 17.2 78.4975 17.1467 78.4975 17.04C78.4442 16.16 78.3642 15.5067 78.2575 15.08C77.9908 14.04 77.4575 13.2133 76.6575 12.6C75.8842 11.96 74.9108 11.64 73.7375 11.64ZM96.1028 8.44C96.9561 8.44 97.7295 8.61333 98.4228 8.96C98.6095 9.04 98.6761 9.2 98.6228 9.44L97.9828 12.44C97.9561 12.68 97.7961 12.76 97.5028 12.68C97.0495 12.4933 96.5161 12.4 95.9028 12.4L95.3428 12.44C94.0895 12.4933 93.0495 12.9333 92.2228 13.76C91.4228 14.56 91.0228 15.6133 91.0228 16.92V28.6C91.0228 28.8667 90.8895 29 90.6228 29H87.5828C87.3161 29 87.1828 28.8667 87.1828 28.6V9.04C87.1828 8.77333 87.3161 8.64 87.5828 8.64H90.6228C90.8895 8.64 91.0228 8.77333 91.0228 9.04V11.16C91.0228 11.24 91.0361 11.2933 91.0628 11.32C91.1161 11.32 91.1561 11.2933 91.1828 11.24C92.3828 9.37333 94.0228 8.44 96.1028 8.44ZM104.347 5.44C103.6 5.44 102.987 5.2 102.507 4.72C102.027 4.24 101.787 3.62667 101.787 2.88C101.787 2.13333 102.027 1.52 102.507 1.04C102.987 0.559999 103.6 0.32 104.347 0.32C105.093 0.32 105.707 0.559999 106.187 1.04C106.667 1.52 106.907 2.13333 106.907 2.88C106.907 3.62667 106.667 4.24 106.187 4.72C105.707 5.2 105.093 5.44 104.347 5.44ZM102.747 28.96C102.48 28.96 102.347 28.8267 102.347 28.56V9.04C102.347 8.77333 102.48 8.64 102.747 8.64H105.787C106.053 8.64 106.187 8.77333 106.187 9.04V28.56C106.187 28.8267 106.053 28.96 105.787 28.96H102.747ZM128.702 16.28C128.809 17.3733 128.849 18.6 128.822 19.96C128.822 20.2267 128.689 20.36 128.422 20.36H115.662C115.555 20.36 115.502 20.4133 115.502 20.52C115.502 21.4267 115.582 22.12 115.742 22.6C116.035 23.6667 116.622 24.5067 117.502 25.12C118.409 25.7067 119.542 26 120.902 26C122.875 26 124.395 25.1867 125.462 23.56C125.595 23.2933 125.769 23.2533 125.982 23.44L128.262 24.96C128.449 25.12 128.489 25.2933 128.382 25.48C127.635 26.68 126.569 27.6267 125.182 28.32C123.822 29.0133 122.275 29.36 120.542 29.36C118.595 29.36 116.955 28.9333 115.622 28.08C114.289 27.2267 113.289 26.0133 112.622 24.44C111.982 22.8667 111.662 20.96 111.662 18.72C111.662 16.7733 111.809 15.2933 112.102 14.28C112.582 12.44 113.542 10.9867 114.982 9.92C116.422 8.85333 118.169 8.32 120.222 8.32C122.915 8.32 124.929 9 126.262 10.36C127.595 11.6933 128.409 13.6667 128.702 16.28ZM120.222 11.64C119.075 11.64 118.129 11.9333 117.382 12.52C116.635 13.08 116.129 13.84 115.862 14.8C115.675 15.3867 115.555 16.1333 115.502 17.04C115.502 17.1467 115.555 17.2 115.662 17.2H124.822C124.929 17.2 124.982 17.1467 124.982 17.04C124.929 16.16 124.849 15.5067 124.742 15.08C124.475 14.04 123.942 13.2133 123.142 12.6C122.369 11.96 121.395 11.64 120.222 11.64ZM142.747 8.36C144.934 8.36 146.667 9 147.947 10.28C149.227 11.5333 149.867 13.24 149.867 15.4V28.6C149.867 28.8667 149.734 29 149.467 29H146.427C146.161 29 146.027 28.8667 146.027 28.6V16.16C146.027 14.8267 145.641 13.7467 144.867 12.92C144.094 12.0933 143.067 11.68 141.787 11.68C140.534 11.68 139.507 12.0933 138.707 12.92C137.907 13.7467 137.507 14.8133 137.507 16.12V28.6C137.507 28.8667 137.374 29 137.107 29H134.067C133.801 29 133.667 28.8667 133.667 28.6V9.04C133.667 8.77333 133.801 8.64 134.067 8.64H137.107C137.374 8.64 137.507 8.77333 137.507 9.04V10.48C137.507 10.5333 137.521 10.5733 137.547 10.6C137.601 10.6267 137.641 10.6133 137.667 10.56C138.814 9.09333 140.507 8.36 142.747 8.36ZM163.273 29.32C161.246 29.32 159.513 28.8133 158.073 27.8C156.633 26.76 155.646 25.36 155.113 23.6C154.713 22.3733 154.513 20.76 154.513 18.76C154.513 16.92 154.713 15.3067 155.113 13.92C155.646 12.2133 156.633 10.8533 158.073 9.84C159.539 8.82667 161.273 8.32 163.273 8.32C165.273 8.32 167.019 8.82667 168.513 9.84C170.006 10.8533 170.979 12.1333 171.433 13.68C171.593 14.1067 171.699 14.5467 171.753 15C171.753 15.2133 171.633 15.3467 171.393 15.4L168.393 15.84H168.313C168.126 15.84 167.993 15.72 167.913 15.48L167.793 14.84C167.579 13.9333 167.059 13.1733 166.233 12.56C165.406 11.9467 164.406 11.64 163.233 11.64C162.086 11.64 161.113 11.9467 160.313 12.56C159.513 13.1733 158.993 13.9867 158.753 15C158.513 15.96 158.393 17.2267 158.393 18.8C158.393 20.3467 158.513 21.6 158.753 22.56C159.019 23.6267 159.539 24.4667 160.313 25.08C161.113 25.6933 162.086 26 163.233 26C164.406 26 165.406 25.6933 166.233 25.08C167.086 24.4667 167.619 23.6667 167.833 22.68C167.859 22.6533 167.859 22.6267 167.833 22.6C167.833 22.5467 167.846 22.5067 167.873 22.48V22.32C167.953 22.1067 168.099 22.0267 168.313 22.08L171.313 22.56C171.526 22.6133 171.633 22.72 171.633 22.88V23.04C171.633 23.28 171.566 23.5733 171.433 23.92C170.979 25.5467 170.006 26.8533 168.513 27.84C167.019 28.8267 165.273 29.32 163.273 29.32ZM178.487 5.44C177.741 5.44 177.127 5.2 176.647 4.72C176.167 4.24 175.927 3.62667 175.927 2.88C175.927 2.13333 176.167 1.52 176.647 1.04C177.127 0.559999 177.741 0.32 178.487 0.32C179.234 0.32 179.847 0.559999 180.327 1.04C180.807 1.52 181.047 2.13333 181.047 2.88C181.047 3.62667 180.807 4.24 180.327 4.72C179.847 5.2 179.234 5.44 178.487 5.44ZM176.887 28.96C176.621 28.96 176.487 28.8267 176.487 28.56V9.04C176.487 8.77333 176.621 8.64 176.887 8.64H179.927C180.194 8.64 180.327 8.77333 180.327 9.04V28.56C180.327 28.8267 180.194 28.96 179.927 28.96H176.887ZM193.803 8.32C195.429 8.32 196.843 8.61333 198.043 9.2C199.269 9.76 200.203 10.56 200.843 11.6C201.509 12.6133 201.843 13.7733 201.843 15.08V28.6C201.843 28.8667 201.709 29 201.443 29H198.403C198.136 29 198.003 28.8667 198.003 28.6V27.16C198.003 27.0267 197.936 27 197.803 27.08C197.109 27.8 196.256 28.36 195.243 28.76C194.256 29.1333 193.149 29.32 191.923 29.32C189.949 29.32 188.309 28.8267 187.003 27.84C185.723 26.8267 185.083 25.3067 185.083 23.28C185.083 21.2 185.803 19.5733 187.243 18.4C188.709 17.2 190.749 16.6 193.363 16.6H197.843C197.949 16.6 198.003 16.5467 198.003 16.44V15.36C198.003 14.1867 197.656 13.28 196.963 12.64C196.296 11.9733 195.269 11.64 193.883 11.64C192.763 11.64 191.843 11.8667 191.123 12.32C190.429 12.7467 190.003 13.3333 189.843 14.08C189.763 14.3467 189.603 14.4667 189.363 14.44L186.123 14C185.856 13.9467 185.736 13.84 185.763 13.68C185.976 12.1067 186.816 10.8267 188.283 9.84C189.749 8.82667 191.589 8.32 193.803 8.32ZM192.763 26.08C194.176 26.08 195.403 25.7067 196.443 24.96C197.483 24.2133 198.003 23.2667 198.003 22.12V19.76C198.003 19.6533 197.949 19.6 197.843 19.6H194.083C192.509 19.6 191.256 19.9067 190.323 20.52C189.389 21.1333 188.923 21.9867 188.923 23.08C188.923 24.0667 189.269 24.8133 189.963 25.32C190.683 25.8267 191.616 26.08 192.763 26.08ZM224.514 29.32C222.434 29.32 220.608 28.92 219.034 28.12C217.461 27.2933 216.248 26.1467 215.394 24.68C214.541 23.2133 214.114 21.52 214.114 19.6V10.36C214.114 8.44 214.541 6.74666 215.394 5.28C216.248 3.81333 217.461 2.68 219.034 1.88C220.608 1.08 222.434 0.68 224.514 0.68C226.568 0.68 228.368 1.06667 229.914 1.84C231.488 2.58667 232.701 3.66667 233.554 5.08C234.434 6.46667 234.874 8.08 234.874 9.92C234.874 10.16 234.714 10.3067 234.394 10.36L229.714 10.64H229.634C229.368 10.64 229.234 10.4933 229.234 10.2C229.234 8.78667 228.794 7.65333 227.914 6.8C227.061 5.94667 225.928 5.52 224.514 5.52C223.074 5.52 221.914 5.94667 221.034 6.8C220.181 7.65333 219.754 8.78667 219.754 10.2V19.84C219.754 21.2267 220.181 22.3467 221.034 23.2C221.914 24.0533 223.074 24.48 224.514 24.48C225.928 24.48 227.061 24.0533 227.914 23.2C228.794 22.3467 229.234 21.2267 229.234 19.84C229.234 19.5467 229.394 19.4 229.714 19.4L234.394 19.6C234.528 19.6 234.634 19.64 234.714 19.72C234.821 19.8 234.874 19.8933 234.874 20C234.874 21.84 234.434 23.4667 233.554 24.88C232.701 26.2933 231.488 27.3867 229.914 28.16C228.368 28.9333 226.568 29.32 224.514 29.32ZM246.733 8.12C248.466 8.12 250.013 8.42667 251.373 9.04C252.733 9.62667 253.786 10.44 254.533 11.48C255.306 12.52 255.693 13.68 255.693 14.96V28.52C255.693 28.6533 255.64 28.7733 255.533 28.88C255.453 28.96 255.346 29 255.213 29H250.533C250.4 29 250.28 28.96 250.173 28.88C250.093 28.7733 250.053 28.6533 250.053 28.52V27.2C250.053 27.12 250.026 27.0667 249.973 27.04C249.92 27.0133 249.866 27.04 249.813 27.12C248.693 28.5867 246.893 29.32 244.413 29.32C242.333 29.32 240.653 28.8133 239.373 27.8C238.093 26.7867 237.453 25.2933 237.453 23.32C237.453 21.2667 238.173 19.68 239.613 18.56C241.053 17.4133 243.106 16.84 245.773 16.84H249.853C249.986 16.84 250.053 16.7733 250.053 16.64V15.76C250.053 14.88 249.786 14.2 249.253 13.72C248.72 13.2133 247.92 12.96 246.853 12.96C246.026 12.96 245.333 13.1067 244.773 13.4C244.24 13.6933 243.893 14.1067 243.733 14.64C243.653 14.9333 243.48 15.0667 243.213 15.04L238.373 14.4C238.053 14.3467 237.906 14.2267 237.933 14.04C238.04 12.92 238.48 11.9067 239.253 11C240.053 10.0933 241.093 9.38667 242.373 8.88C243.68 8.37333 245.133 8.12 246.733 8.12ZM245.933 25.12C247.08 25.12 248.053 24.8133 248.853 24.2C249.653 23.5867 250.053 22.8 250.053 21.84V20.4C250.053 20.2667 249.986 20.2 249.853 20.2H246.973C245.773 20.2 244.826 20.4267 244.133 20.88C243.466 21.3333 243.133 21.9733 243.133 22.8C243.133 23.52 243.386 24.0933 243.893 24.52C244.4 24.92 245.08 25.12 245.933 25.12ZM277.866 13.68C278.373 15.0667 278.626 16.72 278.626 18.64C278.626 20.48 278.399 22.0933 277.946 23.48C277.333 25.2933 276.346 26.72 274.986 27.76C273.653 28.8 272.066 29.32 270.226 29.32C268.279 29.32 266.746 28.5867 265.626 27.12C265.573 27.0667 265.519 27.0533 265.466 27.08C265.413 27.08 265.386 27.12 265.386 27.2V28.52C265.386 28.6533 265.333 28.7733 265.226 28.88C265.146 28.96 265.039 29 264.906 29H260.226C260.093 29 259.973 28.96 259.866 28.88C259.786 28.7733 259.746 28.6533 259.746 28.52V1.48C259.746 1.34667 259.786 1.24 259.866 1.16C259.973 1.05333 260.093 0.999998 260.226 0.999998H264.906C265.039 0.999998 265.146 1.05333 265.226 1.16C265.333 1.24 265.386 1.34667 265.386 1.48V10.04C265.386 10.12 265.413 10.1733 265.466 10.2C265.519 10.2267 265.573 10.2 265.626 10.12C266.666 8.78667 268.146 8.12 270.066 8.12C272.013 8.12 273.639 8.62667 274.946 9.64C276.279 10.6267 277.253 11.9733 277.866 13.68ZM271.946 22.76C272.506 21.7467 272.786 20.4133 272.786 18.76C272.786 16.92 272.466 15.5067 271.826 14.52C271.186 13.48 270.239 12.96 268.986 12.96C267.813 12.96 266.919 13.48 266.306 14.52C265.719 15.5333 265.426 16.9333 265.426 18.72C265.426 20.5067 265.693 21.8533 266.226 22.76C266.866 23.9067 267.799 24.48 269.026 24.48C270.333 24.48 271.306 23.9067 271.946 22.76ZM290.522 8.12C292.256 8.12 293.802 8.42667 295.162 9.04C296.522 9.62667 297.576 10.44 298.322 11.48C299.096 12.52 299.482 13.68 299.482 14.96V28.52C299.482 28.6533 299.429 28.7733 299.322 28.88C299.242 28.96 299.136 29 299.002 29H294.322C294.189 29 294.069 28.96 293.962 28.88C293.882 28.7733 293.842 28.6533 293.842 28.52V27.2C293.842 27.12 293.816 27.0667 293.762 27.04C293.709 27.0133 293.656 27.04 293.602 27.12C292.482 28.5867 290.682 29.32 288.202 29.32C286.122 29.32 284.442 28.8133 283.162 27.8C281.882 26.7867 281.242 25.2933 281.242 23.32C281.242 21.2667 281.962 19.68 283.402 18.56C284.842 17.4133 286.896 16.84 289.562 16.84H293.642C293.776 16.84 293.842 16.7733 293.842 16.64V15.76C293.842 14.88 293.576 14.2 293.042 13.72C292.509 13.2133 291.709 12.96 290.642 12.96C289.816 12.96 289.122 13.1067 288.562 13.4C288.029 13.6933 287.682 14.1067 287.522 14.64C287.442 14.9333 287.269 15.0667 287.002 15.04L282.162 14.4C281.842 14.3467 281.696 14.2267 281.722 14.04C281.829 12.92 282.269 11.9067 283.042 11C283.842 10.0933 284.882 9.38667 286.162 8.88C287.469 8.37333 288.922 8.12 290.522 8.12ZM289.722 25.12C290.869 25.12 291.842 24.8133 292.642 24.2C293.442 23.5867 293.842 22.8 293.842 21.84V20.4C293.842 20.2667 293.776 20.2 293.642 20.2H290.762C289.562 20.2 288.616 20.4267 287.922 20.88C287.256 21.3333 286.922 21.9733 286.922 22.8C286.922 23.52 287.176 24.0933 287.682 24.52C288.189 24.92 288.869 25.12 289.722 25.12ZM303.935 29C303.802 29 303.682 28.96 303.575 28.88C303.495 28.7733 303.455 28.6533 303.455 28.52V1.48C303.455 1.34667 303.495 1.24 303.575 1.16C303.682 1.05333 303.802 0.999998 303.935 0.999998H308.615C308.748 0.999998 308.855 1.05333 308.935 1.16C309.042 1.24 309.095 1.34667 309.095 1.48V28.52C309.095 28.6533 309.042 28.7733 308.935 28.88C308.855 28.96 308.748 29 308.615 29H303.935ZM325.781 8.92C325.781 8.78667 325.821 8.68 325.901 8.6C326.007 8.49333 326.127 8.44 326.261 8.44H330.941C331.074 8.44 331.181 8.49333 331.261 8.6C331.367 8.68 331.421 8.78667 331.421 8.92V27.16C331.421 30.6533 330.407 33.1467 328.381 34.64C326.381 36.1333 323.794 36.88 320.621 36.88C319.687 36.88 318.647 36.8133 317.501 36.68C317.234 36.6533 317.101 36.48 317.101 36.16L317.261 32.04C317.261 31.6933 317.447 31.5467 317.821 31.6C318.781 31.76 319.661 31.84 320.461 31.84C322.167 31.84 323.474 31.4667 324.381 30.72C325.314 29.9733 325.781 28.7733 325.781 27.12C325.781 27.04 325.754 27 325.701 27C325.647 26.9733 325.594 26.9867 325.541 27.04C324.527 28.1333 323.047 28.68 321.101 28.68C319.367 28.68 317.767 28.2667 316.301 27.44C314.861 26.5867 313.834 25.2267 313.221 23.36C312.821 22.1333 312.621 20.5467 312.621 18.6C312.621 16.52 312.861 14.8267 313.341 13.52C313.901 11.8933 314.847 10.5867 316.181 9.6C317.514 8.61333 319.061 8.12 320.821 8.12C322.874 8.12 324.447 8.73333 325.541 9.96C325.594 10.0133 325.647 10.04 325.701 10.04C325.754 10.0133 325.781 9.96 325.781 9.88V8.92ZM325.461 21.84C325.674 21.04 325.781 19.9467 325.781 18.56C325.781 17.7333 325.754 17.0933 325.701 16.64C325.647 16.1867 325.554 15.76 325.421 15.36C325.181 14.64 324.781 14.0667 324.221 13.64C323.661 13.1867 322.967 12.96 322.141 12.96C321.341 12.96 320.661 13.1867 320.101 13.64C319.541 14.0667 319.127 14.64 318.861 15.36C318.487 16.16 318.301 17.24 318.301 18.6C318.301 20.0933 318.461 21.16 318.781 21.8C319.021 22.52 319.434 23.1067 320.021 23.56C320.634 23.9867 321.354 24.2 322.181 24.2C323.034 24.2 323.741 23.9867 324.301 23.56C324.861 23.1067 325.247 22.5333 325.461 21.84ZM343.647 8.12C345.381 8.12 346.927 8.42667 348.287 9.04C349.647 9.62667 350.701 10.44 351.447 11.48C352.221 12.52 352.607 13.68 352.607 14.96V28.52C352.607 28.6533 352.554 28.7733 352.447 28.88C352.367 28.96 352.261 29 352.127 29H347.447C347.314 29 347.194 28.96 347.087 28.88C347.007 28.7733 346.967 28.6533 346.967 28.52V27.2C346.967 27.12 346.941 27.0667 346.887 27.04C346.834 27.0133 346.781 27.04 346.727 27.12C345.607 28.5867 343.807 29.32 341.327 29.32C339.247 29.32 337.567 28.8133 336.287 27.8C335.007 26.7867 334.367 25.2933 334.367 23.32C334.367 21.2667 335.087 19.68 336.527 18.56C337.967 17.4133 340.021 16.84 342.687 16.84H346.767C346.901 16.84 346.967 16.7733 346.967 16.64V15.76C346.967 14.88 346.701 14.2 346.167 13.72C345.634 13.2133 344.834 12.96 343.767 12.96C342.941 12.96 342.247 13.1067 341.687 13.4C341.154 13.6933 340.807 14.1067 340.647 14.64C340.567 14.9333 340.394 15.0667 340.127 15.04L335.287 14.4C334.967 14.3467 334.821 14.2267 334.847 14.04C334.954 12.92 335.394 11.9067 336.167 11C336.967 10.0933 338.007 9.38667 339.287 8.88C340.594 8.37333 342.047 8.12 343.647 8.12ZM342.847 25.12C343.994 25.12 344.967 24.8133 345.767 24.2C346.567 23.5867 346.967 22.8 346.967 21.84V20.4C346.967 20.2667 346.901 20.2 346.767 20.2H343.887C342.687 20.2 341.741 20.4267 341.047 20.88C340.381 21.3333 340.047 21.9733 340.047 22.8C340.047 23.52 340.301 24.0933 340.807 24.52C341.314 24.92 341.994 25.12 342.847 25.12ZM367.95 12.48C367.95 12.6133 367.897 12.7333 367.79 12.84C367.71 12.92 367.604 12.96 367.47 12.96H363.63C363.497 12.96 363.43 13.0267 363.43 13.16V21.64C363.43 22.52 363.604 23.1733 363.95 23.6C364.324 24.0267 364.91 24.24 365.71 24.24H367.03C367.164 24.24 367.27 24.2933 367.35 24.4C367.457 24.48 367.51 24.5867 367.51 24.72V28.52C367.51 28.8133 367.35 28.9867 367.03 29.04C365.91 29.0933 365.11 29.12 364.63 29.12C362.417 29.12 360.764 28.76 359.67 28.04C358.577 27.2933 358.017 25.9067 357.99 23.88V13.16C357.99 13.0267 357.924 12.96 357.79 12.96H355.51C355.377 12.96 355.257 12.92 355.15 12.84C355.07 12.7333 355.03 12.6133 355.03 12.48V8.92C355.03 8.78667 355.07 8.68 355.15 8.6C355.257 8.49333 355.377 8.44 355.51 8.44H357.79C357.924 8.44 357.99 8.37333 357.99 8.24V3.48C357.99 3.34667 358.03 3.24 358.11 3.16C358.217 3.05333 358.337 3 358.47 3H362.95C363.084 3 363.19 3.05333 363.27 3.16C363.377 3.24 363.43 3.34667 363.43 3.48V8.24C363.43 8.37333 363.497 8.44 363.63 8.44H367.47C367.604 8.44 367.71 8.49333 367.79 8.6C367.897 8.68 367.95 8.78667 367.95 8.92V12.48ZM379.546 8.12C381.279 8.12 382.826 8.42667 384.186 9.04C385.546 9.62667 386.599 10.44 387.346 11.48C388.119 12.52 388.506 13.68 388.506 14.96V28.52C388.506 28.6533 388.452 28.7733 388.346 28.88C388.266 28.96 388.159 29 388.026 29H383.346C383.212 29 383.092 28.96 382.986 28.88C382.906 28.7733 382.866 28.6533 382.866 28.52V27.2C382.866 27.12 382.839 27.0667 382.786 27.04C382.732 27.0133 382.679 27.04 382.626 27.12C381.506 28.5867 379.706 29.32 377.226 29.32C375.146 29.32 373.466 28.8133 372.186 27.8C370.906 26.7867 370.266 25.2933 370.266 23.32C370.266 21.2667 370.986 19.68 372.426 18.56C373.866 17.4133 375.919 16.84 378.586 16.84H382.666C382.799 16.84 382.866 16.7733 382.866 16.64V15.76C382.866 14.88 382.599 14.2 382.066 13.72C381.532 13.2133 380.732 12.96 379.666 12.96C378.839 12.96 378.146 13.1067 377.586 13.4C377.052 13.6933 376.706 14.1067 376.546 14.64C376.466 14.9333 376.292 15.0667 376.026 15.04L371.186 14.4C370.866 14.3467 370.719 14.2267 370.746 14.04C370.852 12.92 371.292 11.9067 372.066 11C372.866 10.0933 373.906 9.38667 375.186 8.88C376.492 8.37333 377.946 8.12 379.546 8.12ZM378.746 25.12C379.892 25.12 380.866 24.8133 381.666 24.2C382.466 23.5867 382.866 22.8 382.866 21.84V20.4C382.866 20.2667 382.799 20.2 382.666 20.2H379.786C378.586 20.2 377.639 20.4267 376.946 20.88C376.279 21.3333 375.946 21.9733 375.946 22.8C375.946 23.52 376.199 24.0933 376.706 24.52C377.212 24.92 377.892 25.12 378.746 25.12Z" fill="#C64191"/>
</svg>
