<svg width="437" height="37" viewBox="0 0 437 37" fill="none" xmlns="http://www.w3.org/2000/svg">
<path d="M18.88 3.92C18.88 4.18667 18.7467 4.32 18.48 4.32H4.28C4.17333 4.32 4.12 4.37333 4.12 4.48V13.08C4.12 13.1867 4.17333 13.24 4.28 13.24H14.04C14.3067 13.24 14.44 13.3733 14.44 13.64V16.16C14.44 16.4267 14.3067 16.56 14.04 16.56H4.28C4.17333 16.56 4.12 16.6133 4.12 16.72V25.52C4.12 25.6267 4.17333 25.68 4.28 25.68H18.48C18.7467 25.68 18.88 25.8133 18.88 26.08V28.6C18.88 28.8667 18.7467 29 18.48 29H0.68C0.413333 29 0.28 28.8667 0.28 28.6V1.4C0.28 1.13333 0.413333 0.999998 0.68 0.999998H18.48C18.7467 0.999998 18.88 1.13333 18.88 1.4V3.92ZM22.2663 29C22.1063 29 21.9996 28.96 21.9463 28.88C21.8929 28.7733 21.9063 28.6533 21.9863 28.52L28.6263 18.96C28.6796 18.88 28.6796 18.8 28.6263 18.72L21.9863 9.12L21.9063 8.92C21.9063 8.73333 22.0263 8.64 22.2663 8.64H25.5063C25.7196 8.64 25.8796 8.72 25.9863 8.88L30.6663 15.72C30.6929 15.7467 30.7329 15.76 30.7863 15.76C30.8396 15.76 30.8796 15.7467 30.9062 15.72L35.5463 8.88C35.6529 8.72 35.8129 8.64 36.0263 8.64H39.5063C39.6663 8.64 39.7729 8.69333 39.8263 8.8C39.8796 8.88 39.8663 8.98667 39.7863 9.12L33.1463 18.72C33.1196 18.8 33.1196 18.88 33.1463 18.96L39.7863 28.52L39.8663 28.72C39.8663 28.9067 39.7463 29 39.5063 29H36.2263C36.0129 29 35.8529 28.92 35.7463 28.76L31.1063 21.92C31.0796 21.8667 31.0396 21.84 30.9863 21.84C30.9329 21.84 30.8929 21.8667 30.8663 21.92L26.1862 28.76C26.0796 28.92 25.9196 29 25.7063 29H22.2663ZM60.1872 13.76C60.6939 15.2 60.9472 16.9067 60.9472 18.88C60.9472 20.7467 60.7339 22.36 60.3072 23.72C59.7472 25.5067 58.8272 26.8933 57.5472 27.88C56.2672 28.84 54.6272 29.32 52.6272 29.32C51.7205 29.32 50.8539 29.1467 50.0272 28.8C49.2272 28.4267 48.5339 27.9067 47.9472 27.24C47.8939 27.1867 47.8405 27.1733 47.7872 27.2C47.7605 27.2267 47.7472 27.2667 47.7472 27.32V36.24C47.7472 36.5067 47.6139 36.64 47.3472 36.64H44.3072C44.0405 36.64 43.9072 36.5067 43.9072 36.24V9.04C43.9072 8.77333 44.0405 8.64 44.3072 8.64H47.3472C47.6139 8.64 47.7472 8.77333 47.7472 9.04V10.36C47.7472 10.4133 47.7605 10.4533 47.7872 10.48C47.8405 10.5067 47.8939 10.4933 47.9472 10.44C48.5339 9.77333 49.2272 9.25333 50.0272 8.88C50.8272 8.50667 51.6939 8.32 52.6272 8.32C54.5472 8.32 56.1339 8.8 57.3872 9.76C58.6672 10.6933 59.6005 12.0267 60.1872 13.76ZM55.7872 24.08C56.6405 22.8 57.0672 21.04 57.0672 18.8C57.0672 16.7467 56.7339 15.0933 56.0672 13.84C55.2939 12.3733 54.0272 11.64 52.2672 11.64C50.7205 11.64 49.5472 12.36 48.7472 13.8C48.1072 14.9467 47.7872 16.6267 47.7872 18.84C47.7872 21.08 48.1339 22.7867 48.8272 23.96C49.6005 25.32 50.7339 26 52.2272 26C53.8272 26 55.0139 25.36 55.7872 24.08ZM82.2175 16.28C82.3242 17.3733 82.3642 18.6 82.3375 19.96C82.3375 20.2267 82.2042 20.36 81.9375 20.36H69.1775C69.0708 20.36 69.0175 20.4133 69.0175 20.52C69.0175 21.4267 69.0975 22.12 69.2575 22.6C69.5508 23.6667 70.1375 24.5067 71.0175 25.12C71.9242 25.7067 73.0575 26 74.4175 26C76.3908 26 77.9108 25.1867 78.9775 23.56C79.1108 23.2933 79.2842 23.2533 79.4975 23.44L81.7775 24.96C81.9642 25.12 82.0042 25.2933 81.8975 25.48C81.1508 26.68 80.0842 27.6267 78.6975 28.32C77.3375 29.0133 75.7908 29.36 74.0575 29.36C72.1108 29.36 70.4708 28.9333 69.1375 28.08C67.8042 27.2267 66.8042 26.0133 66.1375 24.44C65.4975 22.8667 65.1775 20.96 65.1775 18.72C65.1775 16.7733 65.3242 15.2933 65.6175 14.28C66.0975 12.44 67.0575 10.9867 68.4975 9.92C69.9375 8.85333 71.6842 8.32 73.7375 8.32C76.4308 8.32 78.4442 9 79.7775 10.36C81.1108 11.6933 81.9242 13.6667 82.2175 16.28ZM73.7375 11.64C72.5908 11.64 71.6442 11.9333 70.8975 12.52C70.1508 13.08 69.6442 13.84 69.3775 14.8C69.1908 15.3867 69.0708 16.1333 69.0175 17.04C69.0175 17.1467 69.0708 17.2 69.1775 17.2H78.3375C78.4442 17.2 78.4975 17.1467 78.4975 17.04C78.4442 16.16 78.3642 15.5067 78.2575 15.08C77.9908 14.04 77.4575 13.2133 76.6575 12.6C75.8842 11.96 74.9108 11.64 73.7375 11.64ZM96.1028 8.44C96.9561 8.44 97.7295 8.61333 98.4228 8.96C98.6095 9.04 98.6761 9.2 98.6228 9.44L97.9828 12.44C97.9561 12.68 97.7961 12.76 97.5028 12.68C97.0495 12.4933 96.5161 12.4 95.9028 12.4L95.3428 12.44C94.0895 12.4933 93.0495 12.9333 92.2228 13.76C91.4228 14.56 91.0228 15.6133 91.0228 16.92V28.6C91.0228 28.8667 90.8895 29 90.6228 29H87.5828C87.3161 29 87.1828 28.8667 87.1828 28.6V9.04C87.1828 8.77333 87.3161 8.64 87.5828 8.64H90.6228C90.8895 8.64 91.0228 8.77333 91.0228 9.04V11.16C91.0228 11.24 91.0361 11.2933 91.0628 11.32C91.1161 11.32 91.1561 11.2933 91.1828 11.24C92.3828 9.37333 94.0228 8.44 96.1028 8.44ZM104.347 5.44C103.6 5.44 102.987 5.2 102.507 4.72C102.027 4.24 101.787 3.62667 101.787 2.88C101.787 2.13333 102.027 1.52 102.507 1.04C102.987 0.559999 103.6 0.32 104.347 0.32C105.093 0.32 105.707 0.559999 106.187 1.04C106.667 1.52 106.907 2.13333 106.907 2.88C106.907 3.62667 106.667 4.24 106.187 4.72C105.707 5.2 105.093 5.44 104.347 5.44ZM102.747 28.96C102.48 28.96 102.347 28.8267 102.347 28.56V9.04C102.347 8.77333 102.48 8.64 102.747 8.64H105.787C106.053 8.64 106.187 8.77333 106.187 9.04V28.56C106.187 28.8267 106.053 28.96 105.787 28.96H102.747ZM128.702 16.28C128.809 17.3733 128.849 18.6 128.822 19.96C128.822 20.2267 128.689 20.36 128.422 20.36H115.662C115.555 20.36 115.502 20.4133 115.502 20.52C115.502 21.4267 115.582 22.12 115.742 22.6C116.035 23.6667 116.622 24.5067 117.502 25.12C118.409 25.7067 119.542 26 120.902 26C122.875 26 124.395 25.1867 125.462 23.56C125.595 23.2933 125.769 23.2533 125.982 23.44L128.262 24.96C128.449 25.12 128.489 25.2933 128.382 25.48C127.635 26.68 126.569 27.6267 125.182 28.32C123.822 29.0133 122.275 29.36 120.542 29.36C118.595 29.36 116.955 28.9333 115.622 28.08C114.289 27.2267 113.289 26.0133 112.622 24.44C111.982 22.8667 111.662 20.96 111.662 18.72C111.662 16.7733 111.809 15.2933 112.102 14.28C112.582 12.44 113.542 10.9867 114.982 9.92C116.422 8.85333 118.169 8.32 120.222 8.32C122.915 8.32 124.929 9 126.262 10.36C127.595 11.6933 128.409 13.6667 128.702 16.28ZM120.222 11.64C119.075 11.64 118.129 11.9333 117.382 12.52C116.635 13.08 116.129 13.84 115.862 14.8C115.675 15.3867 115.555 16.1333 115.502 17.04C115.502 17.1467 115.555 17.2 115.662 17.2H124.822C124.929 17.2 124.982 17.1467 124.982 17.04C124.929 16.16 124.849 15.5067 124.742 15.08C124.475 14.04 123.942 13.2133 123.142 12.6C122.369 11.96 121.395 11.64 120.222 11.64ZM142.747 8.36C144.934 8.36 146.667 9 147.947 10.28C149.227 11.5333 149.867 13.24 149.867 15.4V28.6C149.867 28.8667 149.734 29 149.467 29H146.427C146.161 29 146.027 28.8667 146.027 28.6V16.16C146.027 14.8267 145.641 13.7467 144.867 12.92C144.094 12.0933 143.067 11.68 141.787 11.68C140.534 11.68 139.507 12.0933 138.707 12.92C137.907 13.7467 137.507 14.8133 137.507 16.12V28.6C137.507 28.8667 137.374 29 137.107 29H134.067C133.801 29 133.667 28.8667 133.667 28.6V9.04C133.667 8.77333 133.801 8.64 134.067 8.64H137.107C137.374 8.64 137.507 8.77333 137.507 9.04V10.48C137.507 10.5333 137.521 10.5733 137.547 10.6C137.601 10.6267 137.641 10.6133 137.667 10.56C138.814 9.09333 140.507 8.36 142.747 8.36ZM163.273 29.32C161.246 29.32 159.513 28.8133 158.073 27.8C156.633 26.76 155.646 25.36 155.113 23.6C154.713 22.3733 154.513 20.76 154.513 18.76C154.513 16.92 154.713 15.3067 155.113 13.92C155.646 12.2133 156.633 10.8533 158.073 9.84C159.539 8.82667 161.273 8.32 163.273 8.32C165.273 8.32 167.019 8.82667 168.513 9.84C170.006 10.8533 170.979 12.1333 171.433 13.68C171.593 14.1067 171.699 14.5467 171.753 15C171.753 15.2133 171.633 15.3467 171.393 15.4L168.393 15.84H168.313C168.126 15.84 167.993 15.72 167.913 15.48L167.793 14.84C167.579 13.9333 167.059 13.1733 166.233 12.56C165.406 11.9467 164.406 11.64 163.233 11.64C162.086 11.64 161.113 11.9467 160.313 12.56C159.513 13.1733 158.993 13.9867 158.753 15C158.513 15.96 158.393 17.2267 158.393 18.8C158.393 20.3467 158.513 21.6 158.753 22.56C159.019 23.6267 159.539 24.4667 160.313 25.08C161.113 25.6933 162.086 26 163.233 26C164.406 26 165.406 25.6933 166.233 25.08C167.086 24.4667 167.619 23.6667 167.833 22.68C167.859 22.6533 167.859 22.6267 167.833 22.6C167.833 22.5467 167.846 22.5067 167.873 22.48V22.32C167.953 22.1067 168.099 22.0267 168.313 22.08L171.313 22.56C171.526 22.6133 171.633 22.72 171.633 22.88V23.04C171.633 23.28 171.566 23.5733 171.433 23.92C170.979 25.5467 170.006 26.8533 168.513 27.84C167.019 28.8267 165.273 29.32 163.273 29.32ZM178.487 5.44C177.741 5.44 177.127 5.2 176.647 4.72C176.167 4.24 175.927 3.62667 175.927 2.88C175.927 2.13333 176.167 1.52 176.647 1.04C177.127 0.559999 177.741 0.32 178.487 0.32C179.234 0.32 179.847 0.559999 180.327 1.04C180.807 1.52 181.047 2.13333 181.047 2.88C181.047 3.62667 180.807 4.24 180.327 4.72C179.847 5.2 179.234 5.44 178.487 5.44ZM176.887 28.96C176.621 28.96 176.487 28.8267 176.487 28.56V9.04C176.487 8.77333 176.621 8.64 176.887 8.64H179.927C180.194 8.64 180.327 8.77333 180.327 9.04V28.56C180.327 28.8267 180.194 28.96 179.927 28.96H176.887ZM193.803 8.32C195.429 8.32 196.843 8.61333 198.043 9.2C199.269 9.76 200.203 10.56 200.843 11.6C201.509 12.6133 201.843 13.7733 201.843 15.08V28.6C201.843 28.8667 201.709 29 201.443 29H198.403C198.136 29 198.003 28.8667 198.003 28.6V27.16C198.003 27.0267 197.936 27 197.803 27.08C197.109 27.8 196.256 28.36 195.243 28.76C194.256 29.1333 193.149 29.32 191.923 29.32C189.949 29.32 188.309 28.8267 187.003 27.84C185.723 26.8267 185.083 25.3067 185.083 23.28C185.083 21.2 185.803 19.5733 187.243 18.4C188.709 17.2 190.749 16.6 193.363 16.6H197.843C197.949 16.6 198.003 16.5467 198.003 16.44V15.36C198.003 14.1867 197.656 13.28 196.963 12.64C196.296 11.9733 195.269 11.64 193.883 11.64C192.763 11.64 191.843 11.8667 191.123 12.32C190.429 12.7467 190.003 13.3333 189.843 14.08C189.763 14.3467 189.603 14.4667 189.363 14.44L186.123 14C185.856 13.9467 185.736 13.84 185.763 13.68C185.976 12.1067 186.816 10.8267 188.283 9.84C189.749 8.82667 191.589 8.32 193.803 8.32ZM192.763 26.08C194.176 26.08 195.403 25.7067 196.443 24.96C197.483 24.2133 198.003 23.2667 198.003 22.12V19.76C198.003 19.6533 197.949 19.6 197.843 19.6H194.083C192.509 19.6 191.256 19.9067 190.323 20.52C189.389 21.1333 188.923 21.9867 188.923 23.08C188.923 24.0667 189.269 24.8133 189.963 25.32C190.683 25.8267 191.616 26.08 192.763 26.08ZM224.514 29.32C222.461 29.32 220.648 28.9067 219.074 28.08C217.501 27.2533 216.274 26.1067 215.394 24.64C214.541 23.1467 214.114 21.4267 214.114 19.48V10.52C214.114 8.57333 214.541 6.85333 215.394 5.36C216.274 3.86667 217.501 2.72 219.074 1.92C220.648 1.09333 222.461 0.68 224.514 0.68C226.541 0.68 228.328 1.08 229.874 1.88C231.448 2.68 232.661 3.77333 233.514 5.16C234.394 6.52 234.834 8.04 234.834 9.72V10C234.834 10.1333 234.781 10.2533 234.674 10.36C234.594 10.44 234.488 10.48 234.354 10.48H229.674C229.541 10.48 229.421 10.44 229.314 10.36C229.234 10.2533 229.194 10.1333 229.194 10V9.88C229.194 8.65333 228.768 7.62667 227.914 6.8C227.061 5.94667 225.928 5.52 224.514 5.52C223.074 5.52 221.914 5.97333 221.034 6.88C220.181 7.76 219.754 8.92 219.754 10.36V19.64C219.754 21.08 220.221 22.2533 221.154 23.16C222.088 24.04 223.274 24.48 224.714 24.48C226.101 24.48 227.208 24.12 228.034 23.4C228.861 22.6533 229.274 21.6267 229.274 20.32V18.52C229.274 18.3867 229.208 18.32 229.074 18.32H224.594C224.461 18.32 224.341 18.28 224.234 18.2C224.154 18.0933 224.114 17.9733 224.114 17.84V14.16C224.114 14.0267 224.154 13.92 224.234 13.84C224.341 13.7333 224.461 13.68 224.594 13.68H234.354C234.488 13.68 234.594 13.7333 234.674 13.84C234.781 13.92 234.834 14.0267 234.834 14.16V19.44C234.834 21.4667 234.408 23.2267 233.554 24.72C232.701 26.2133 231.488 27.36 229.914 28.16C228.368 28.9333 226.568 29.32 224.514 29.32ZM246.889 8.12C248.623 8.12 250.169 8.42667 251.529 9.04C252.889 9.62667 253.943 10.44 254.689 11.48C255.463 12.52 255.849 13.68 255.849 14.96V28.52C255.849 28.6533 255.796 28.7733 255.689 28.88C255.609 28.96 255.503 29 255.369 29H250.689C250.556 29 250.436 28.96 250.329 28.88C250.249 28.7733 250.209 28.6533 250.209 28.52V27.2C250.209 27.12 250.183 27.0667 250.129 27.04C250.076 27.0133 250.023 27.04 249.969 27.12C248.849 28.5867 247.049 29.32 244.569 29.32C242.489 29.32 240.809 28.8133 239.529 27.8C238.249 26.7867 237.609 25.2933 237.609 23.32C237.609 21.2667 238.329 19.68 239.769 18.56C241.209 17.4133 243.263 16.84 245.929 16.84H250.009C250.143 16.84 250.209 16.7733 250.209 16.64V15.76C250.209 14.88 249.943 14.2 249.409 13.72C248.876 13.2133 248.076 12.96 247.009 12.96C246.183 12.96 245.489 13.1067 244.929 13.4C244.396 13.6933 244.049 14.1067 243.889 14.64C243.809 14.9333 243.636 15.0667 243.369 15.04L238.529 14.4C238.209 14.3467 238.063 14.2267 238.089 14.04C238.196 12.92 238.636 11.9067 239.409 11C240.209 10.0933 241.249 9.38667 242.529 8.88C243.836 8.37333 245.289 8.12 246.889 8.12ZM246.089 25.12C247.236 25.12 248.209 24.8133 249.009 24.2C249.809 23.5867 250.209 22.8 250.209 21.84V20.4C250.209 20.2667 250.143 20.2 250.009 20.2H247.129C245.929 20.2 244.983 20.4267 244.289 20.88C243.623 21.3333 243.289 21.9733 243.289 22.8C243.289 23.52 243.543 24.0933 244.049 24.52C244.556 24.92 245.236 25.12 246.089 25.12ZM268.022 29.28C266.236 29.28 264.676 29.0267 263.342 28.52C262.009 28.0133 260.969 27.3067 260.222 26.4C259.502 25.4933 259.142 24.4667 259.142 23.32V22.92C259.142 22.7867 259.182 22.68 259.262 22.6C259.369 22.4933 259.489 22.44 259.622 22.44H264.062C264.196 22.44 264.302 22.4933 264.382 22.6C264.489 22.68 264.542 22.7867 264.542 22.92V22.96C264.542 23.5467 264.862 24.0533 265.502 24.48C266.169 24.88 266.996 25.08 267.982 25.08C268.889 25.08 269.622 24.9067 270.182 24.56C270.742 24.1867 271.022 23.7333 271.022 23.2C271.022 22.72 270.782 22.36 270.302 22.12C269.822 21.88 269.036 21.6267 267.942 21.36C266.689 21.04 265.702 20.7333 264.982 20.44C263.276 19.8533 261.916 19.1333 260.902 18.28C259.889 17.4267 259.382 16.2 259.382 14.6C259.382 12.6267 260.142 11.0667 261.662 9.92C263.209 8.74667 265.249 8.16 267.782 8.16C269.489 8.16 270.982 8.44 272.262 9C273.542 9.53333 274.529 10.2933 275.222 11.28C275.942 12.2667 276.302 13.3867 276.302 14.64C276.302 14.7733 276.249 14.8933 276.142 15C276.062 15.08 275.956 15.12 275.822 15.12H271.542C271.409 15.12 271.289 15.08 271.182 15C271.102 14.8933 271.062 14.7733 271.062 14.64C271.062 14.0533 270.756 13.56 270.142 13.16C269.556 12.76 268.769 12.56 267.782 12.56C266.902 12.56 266.182 12.72 265.622 13.04C265.062 13.36 264.782 13.8 264.782 14.36C264.782 14.8933 265.049 15.2933 265.582 15.56C266.142 15.8267 267.062 16.1067 268.342 16.4C268.636 16.48 268.969 16.5733 269.342 16.68C269.716 16.76 270.116 16.8667 270.542 17C272.436 17.56 273.929 18.28 275.022 19.16C276.116 20.04 276.662 21.32 276.662 23C276.662 24.9733 275.876 26.52 274.302 27.64C272.756 28.7333 270.662 29.28 268.022 29.28ZM291.661 12.48C291.661 12.6133 291.608 12.7333 291.501 12.84C291.421 12.92 291.315 12.96 291.181 12.96H287.341C287.208 12.96 287.141 13.0267 287.141 13.16V21.64C287.141 22.52 287.315 23.1733 287.661 23.6C288.035 24.0267 288.621 24.24 289.421 24.24H290.741C290.875 24.24 290.981 24.2933 291.061 24.4C291.168 24.48 291.221 24.5867 291.221 24.72V28.52C291.221 28.8133 291.061 28.9867 290.741 29.04C289.621 29.0933 288.821 29.12 288.341 29.12C286.128 29.12 284.475 28.76 283.381 28.04C282.288 27.2933 281.728 25.9067 281.701 23.88V13.16C281.701 13.0267 281.635 12.96 281.501 12.96H279.221C279.088 12.96 278.968 12.92 278.861 12.84C278.781 12.7333 278.741 12.6133 278.741 12.48V8.92C278.741 8.78667 278.781 8.68 278.861 8.6C278.968 8.49333 279.088 8.44 279.221 8.44H281.501C281.635 8.44 281.701 8.37333 281.701 8.24V3.48C281.701 3.34667 281.741 3.24 281.821 3.16C281.928 3.05333 282.048 3 282.181 3H286.661C286.795 3 286.901 3.05333 286.981 3.16C287.088 3.24 287.141 3.34667 287.141 3.48V8.24C287.141 8.37333 287.208 8.44 287.341 8.44H291.181C291.315 8.44 291.421 8.49333 291.501 8.6C291.608 8.68 291.661 8.78667 291.661 8.92V12.48ZM305.297 8.16C306.257 8.16 307.017 8.34667 307.577 8.72C307.79 8.82667 307.87 9.02667 307.817 9.32L306.977 13.88C306.95 14.2 306.763 14.2933 306.417 14.16C306.017 14.0267 305.55 13.96 305.017 13.96C304.803 13.96 304.51 13.9867 304.137 14.04C303.177 14.12 302.363 14.48 301.697 15.12C301.03 15.7333 300.697 16.56 300.697 17.6V28.52C300.697 28.6533 300.643 28.7733 300.537 28.88C300.457 28.96 300.35 29 300.217 29H295.537C295.403 29 295.283 28.96 295.177 28.88C295.097 28.7733 295.057 28.6533 295.057 28.52V8.92C295.057 8.78667 295.097 8.68 295.177 8.6C295.283 8.49333 295.403 8.44 295.537 8.44H300.217C300.35 8.44 300.457 8.49333 300.537 8.6C300.643 8.68 300.697 8.78667 300.697 8.92V10.44C300.697 10.52 300.723 10.5733 300.777 10.6C300.83 10.6267 300.87 10.6133 300.897 10.56C301.99 8.96 303.457 8.16 305.297 8.16ZM318.941 29.32C316.701 29.32 314.781 28.7333 313.181 27.56C311.581 26.3867 310.488 24.7867 309.901 22.76C309.528 21.5067 309.341 20.1467 309.341 18.68C309.341 17.1067 309.528 15.6933 309.901 14.44C310.515 12.4667 311.621 10.92 313.221 9.8C314.821 8.68 316.741 8.12 318.981 8.12C321.168 8.12 323.035 8.68 324.581 9.8C326.128 10.8933 327.221 12.4267 327.861 14.4C328.288 15.7333 328.501 17.1333 328.501 18.6C328.501 20.04 328.315 21.3867 327.941 22.64C327.355 24.72 326.261 26.36 324.661 27.56C323.088 28.7333 321.181 29.32 318.941 29.32ZM318.941 24.48C319.821 24.48 320.568 24.2133 321.181 23.68C321.795 23.1467 322.235 22.4133 322.501 21.48C322.715 20.6267 322.821 19.6933 322.821 18.68C322.821 17.56 322.715 16.6133 322.501 15.84C322.208 14.9333 321.755 14.2267 321.141 13.72C320.528 13.2133 319.781 12.96 318.901 12.96C317.995 12.96 317.235 13.2133 316.621 13.72C316.035 14.2267 315.608 14.9333 315.341 15.84C315.128 16.48 315.021 17.4267 315.021 18.68C315.021 19.88 315.115 20.8133 315.301 21.48C315.568 22.4133 316.008 23.1467 316.621 23.68C317.261 24.2133 318.035 24.48 318.941 24.48ZM342.847 8.12C344.98 8.12 346.7 8.77333 348.007 10.08C349.314 11.3867 349.967 13.16 349.967 15.4V28.52C349.967 28.6533 349.914 28.7733 349.807 28.88C349.727 28.96 349.62 29 349.487 29H344.807C344.674 29 344.554 28.96 344.447 28.88C344.367 28.7733 344.327 28.6533 344.327 28.52V16.56C344.327 15.4933 344.02 14.6267 343.407 13.96C342.82 13.2933 342.034 12.96 341.047 12.96C340.06 12.96 339.26 13.2933 338.647 13.96C338.06 14.6267 337.767 15.4933 337.767 16.56V28.52C337.767 28.6533 337.714 28.7733 337.607 28.88C337.527 28.96 337.42 29 337.287 29H332.607C332.474 29 332.354 28.96 332.247 28.88C332.167 28.7733 332.127 28.6533 332.127 28.52V8.92C332.127 8.78667 332.167 8.68 332.247 8.6C332.354 8.49333 332.474 8.44 332.607 8.44H337.287C337.42 8.44 337.527 8.49333 337.607 8.6C337.714 8.68 337.767 8.78667 337.767 8.92V10.32C337.767 10.4 337.794 10.4533 337.847 10.48C337.9 10.5067 337.94 10.4933 337.967 10.44C339.06 8.89333 340.687 8.12 342.847 8.12ZM362.965 29.32C360.725 29.32 358.805 28.7333 357.205 27.56C355.605 26.3867 354.511 24.7867 353.925 22.76C353.551 21.5067 353.365 20.1467 353.365 18.68C353.365 17.1067 353.551 15.6933 353.925 14.44C354.538 12.4667 355.645 10.92 357.245 9.8C358.845 8.68 360.765 8.12 363.005 8.12C365.191 8.12 367.058 8.68 368.605 9.8C370.151 10.8933 371.245 12.4267 371.885 14.4C372.311 15.7333 372.525 17.1333 372.525 18.6C372.525 20.04 372.338 21.3867 371.965 22.64C371.378 24.72 370.285 26.36 368.685 27.56C367.111 28.7333 365.205 29.32 362.965 29.32ZM362.965 24.48C363.845 24.48 364.591 24.2133 365.205 23.68C365.818 23.1467 366.258 22.4133 366.525 21.48C366.738 20.6267 366.845 19.6933 366.845 18.68C366.845 17.56 366.738 16.6133 366.525 15.84C366.231 14.9333 365.778 14.2267 365.165 13.72C364.551 13.2133 363.805 12.96 362.925 12.96C362.018 12.96 361.258 13.2133 360.645 13.72C360.058 14.2267 359.631 14.9333 359.365 15.84C359.151 16.48 359.045 17.4267 359.045 18.68C359.045 19.88 359.138 20.8133 359.325 21.48C359.591 22.4133 360.031 23.1467 360.645 23.68C361.285 24.2133 362.058 24.48 362.965 24.48ZM398.95 8.12C401.03 8.12 402.657 8.74667 403.83 10C405.004 11.2533 405.59 13.0133 405.59 15.28V28.52C405.59 28.6533 405.537 28.7733 405.43 28.88C405.35 28.96 405.244 29 405.11 29H400.43C400.297 29 400.177 28.96 400.07 28.88C399.99 28.7733 399.95 28.6533 399.95 28.52V16.52C399.95 15.4267 399.67 14.56 399.11 13.92C398.55 13.28 397.804 12.96 396.87 12.96C395.937 12.96 395.177 13.28 394.59 13.92C394.004 14.56 393.71 15.4133 393.71 16.48V28.52C393.71 28.6533 393.657 28.7733 393.55 28.88C393.47 28.96 393.364 29 393.23 29H388.59C388.457 29 388.337 28.96 388.23 28.88C388.15 28.7733 388.11 28.6533 388.11 28.52V16.52C388.11 15.4533 387.817 14.6 387.23 13.96C386.644 13.2933 385.884 12.96 384.95 12.96C384.097 12.96 383.377 13.2133 382.79 13.72C382.23 14.2267 381.897 14.9333 381.79 15.84V28.52C381.79 28.6533 381.737 28.7733 381.63 28.88C381.55 28.96 381.444 29 381.31 29H376.63C376.497 29 376.377 28.96 376.27 28.88C376.19 28.7733 376.15 28.6533 376.15 28.52V8.92C376.15 8.78667 376.19 8.68 376.27 8.6C376.377 8.49333 376.497 8.44 376.63 8.44H381.31C381.444 8.44 381.55 8.49333 381.63 8.6C381.737 8.68 381.79 8.78667 381.79 8.92V10.48C381.79 10.56 381.817 10.6133 381.87 10.64C381.924 10.6667 381.977 10.64 382.03 10.56C383.124 8.93333 384.817 8.12 387.11 8.12C388.444 8.12 389.604 8.4 390.59 8.96C391.604 9.52 392.377 10.32 392.91 11.36C392.99 11.52 393.084 11.52 393.19 11.36C393.777 10.2667 394.564 9.45333 395.55 8.92C396.564 8.38667 397.697 8.12 398.95 8.12ZM409.869 29C409.735 29 409.615 28.96 409.509 28.88C409.429 28.7733 409.389 28.6533 409.389 28.52V8.92C409.389 8.78667 409.429 8.68 409.509 8.6C409.615 8.49333 409.735 8.44 409.869 8.44H414.549C414.682 8.44 414.789 8.49333 414.869 8.6C414.975 8.68 415.029 8.78667 415.029 8.92V28.52C415.029 28.6533 414.975 28.7733 414.869 28.88C414.789 28.96 414.682 29 414.549 29H409.869ZM409.989 5.96C409.802 5.96 409.682 5.90667 409.629 5.8C409.575 5.69333 409.589 5.56 409.669 5.4L411.789 1.36C411.895 1.12 412.095 0.999998 412.389 0.999998H416.429C416.615 0.999998 416.735 1.06666 416.789 1.2C416.869 1.30666 416.855 1.44 416.749 1.6L413.909 5.64C413.775 5.85333 413.589 5.96 413.349 5.96H409.989ZM427.241 8.12C428.974 8.12 430.521 8.42667 431.881 9.04C433.241 9.62667 434.294 10.44 435.041 11.48C435.814 12.52 436.201 13.68 436.201 14.96V28.52C436.201 28.6533 436.148 28.7733 436.041 28.88C435.961 28.96 435.854 29 435.721 29H431.041C430.908 29 430.788 28.96 430.681 28.88C430.601 28.7733 430.561 28.6533 430.561 28.52V27.2C430.561 27.12 430.534 27.0667 430.481 27.04C430.428 27.0133 430.374 27.04 430.321 27.12C429.201 28.5867 427.401 29.32 424.921 29.32C422.841 29.32 421.161 28.8133 419.881 27.8C418.601 26.7867 417.961 25.2933 417.961 23.32C417.961 21.2667 418.681 19.68 420.121 18.56C421.561 17.4133 423.614 16.84 426.281 16.84H430.361C430.494 16.84 430.561 16.7733 430.561 16.64V15.76C430.561 14.88 430.294 14.2 429.761 13.72C429.228 13.2133 428.428 12.96 427.361 12.96C426.534 12.96 425.841 13.1067 425.281 13.4C424.748 13.6933 424.401 14.1067 424.241 14.64C424.161 14.9333 423.988 15.0667 423.721 15.04L418.881 14.4C418.561 14.3467 418.414 14.2267 418.441 14.04C418.548 12.92 418.988 11.9067 419.761 11C420.561 10.0933 421.601 9.38667 422.881 8.88C424.188 8.37333 425.641 8.12 427.241 8.12ZM426.441 25.12C427.588 25.12 428.561 24.8133 429.361 24.2C430.161 23.5867 430.561 22.8 430.561 21.84V20.4C430.561 20.2667 430.494 20.2 430.361 20.2H427.481C426.281 20.2 425.334 20.4267 424.641 20.88C423.974 21.3333 423.641 21.9733 423.641 22.8C423.641 23.52 423.894 24.0933 424.401 24.52C424.908 24.92 425.588 25.12 426.441 25.12Z" fill="#5998C5"/>
</svg>
