<svg width="404" height="37" viewBox="0 0 404 37" fill="none" xmlns="http://www.w3.org/2000/svg">
<path d="M18.88 3.92C18.88 4.18667 18.7467 4.32 18.48 4.32H4.28C4.17333 4.32 4.12 4.37333 4.12 4.48V13.08C4.12 13.1867 4.17333 13.24 4.28 13.24H14.04C14.3067 13.24 14.44 13.3733 14.44 13.64V16.16C14.44 16.4267 14.3067 16.56 14.04 16.56H4.28C4.17333 16.56 4.12 16.6133 4.12 16.72V25.52C4.12 25.6267 4.17333 25.68 4.28 25.68H18.48C18.7467 25.68 18.88 25.8133 18.88 26.08V28.6C18.88 28.8667 18.7467 29 18.48 29H0.68C0.413333 29 0.28 28.8667 0.28 28.6V1.4C0.28 1.13333 0.413333 0.999998 0.68 0.999998H18.48C18.7467 0.999998 18.88 1.13333 18.88 1.4V3.92ZM22.2663 29C22.1063 29 21.9996 28.96 21.9463 28.88C21.8929 28.7733 21.9063 28.6533 21.9863 28.52L28.6263 18.96C28.6796 18.88 28.6796 18.8 28.6263 18.72L21.9863 9.12L21.9063 8.92C21.9063 8.73333 22.0263 8.64 22.2663 8.64H25.5063C25.7196 8.64 25.8796 8.72 25.9863 8.88L30.6663 15.72C30.6929 15.7467 30.7329 15.76 30.7863 15.76C30.8396 15.76 30.8796 15.7467 30.9062 15.72L35.5463 8.88C35.6529 8.72 35.8129 8.64 36.0263 8.64H39.5063C39.6663 8.64 39.7729 8.69333 39.8263 8.8C39.8796 8.88 39.8663 8.98667 39.7863 9.12L33.1463 18.72C33.1196 18.8 33.1196 18.88 33.1463 18.96L39.7863 28.52L39.8663 28.72C39.8663 28.9067 39.7463 29 39.5063 29H36.2263C36.0129 29 35.8529 28.92 35.7463 28.76L31.1063 21.92C31.0796 21.8667 31.0396 21.84 30.9863 21.84C30.9329 21.84 30.8929 21.8667 30.8663 21.92L26.1862 28.76C26.0796 28.92 25.9196 29 25.7063 29H22.2663ZM60.1872 13.76C60.6939 15.2 60.9472 16.9067 60.9472 18.88C60.9472 20.7467 60.7339 22.36 60.3072 23.72C59.7472 25.5067 58.8272 26.8933 57.5472 27.88C56.2672 28.84 54.6272 29.32 52.6272 29.32C51.7205 29.32 50.8539 29.1467 50.0272 28.8C49.2272 28.4267 48.5339 27.9067 47.9472 27.24C47.8939 27.1867 47.8405 27.1733 47.7872 27.2C47.7605 27.2267 47.7472 27.2667 47.7472 27.32V36.24C47.7472 36.5067 47.6139 36.64 47.3472 36.64H44.3072C44.0405 36.64 43.9072 36.5067 43.9072 36.24V9.04C43.9072 8.77333 44.0405 8.64 44.3072 8.64H47.3472C47.6139 8.64 47.7472 8.77333 47.7472 9.04V10.36C47.7472 10.4133 47.7605 10.4533 47.7872 10.48C47.8405 10.5067 47.8939 10.4933 47.9472 10.44C48.5339 9.77333 49.2272 9.25333 50.0272 8.88C50.8272 8.50667 51.6939 8.32 52.6272 8.32C54.5472 8.32 56.1339 8.8 57.3872 9.76C58.6672 10.6933 59.6005 12.0267 60.1872 13.76ZM55.7872 24.08C56.6405 22.8 57.0672 21.04 57.0672 18.8C57.0672 16.7467 56.7339 15.0933 56.0672 13.84C55.2939 12.3733 54.0272 11.64 52.2672 11.64C50.7205 11.64 49.5472 12.36 48.7472 13.8C48.1072 14.9467 47.7872 16.6267 47.7872 18.84C47.7872 21.08 48.1339 22.7867 48.8272 23.96C49.6005 25.32 50.7339 26 52.2272 26C53.8272 26 55.0139 25.36 55.7872 24.08ZM82.2175 16.28C82.3242 17.3733 82.3642 18.6 82.3375 19.96C82.3375 20.2267 82.2042 20.36 81.9375 20.36H69.1775C69.0708 20.36 69.0175 20.4133 69.0175 20.52C69.0175 21.4267 69.0975 22.12 69.2575 22.6C69.5508 23.6667 70.1375 24.5067 71.0175 25.12C71.9242 25.7067 73.0575 26 74.4175 26C76.3908 26 77.9108 25.1867 78.9775 23.56C79.1108 23.2933 79.2842 23.2533 79.4975 23.44L81.7775 24.96C81.9642 25.12 82.0042 25.2933 81.8975 25.48C81.1508 26.68 80.0842 27.6267 78.6975 28.32C77.3375 29.0133 75.7908 29.36 74.0575 29.36C72.1108 29.36 70.4708 28.9333 69.1375 28.08C67.8042 27.2267 66.8042 26.0133 66.1375 24.44C65.4975 22.8667 65.1775 20.96 65.1775 18.72C65.1775 16.7733 65.3242 15.2933 65.6175 14.28C66.0975 12.44 67.0575 10.9867 68.4975 9.92C69.9375 8.85333 71.6842 8.32 73.7375 8.32C76.4308 8.32 78.4442 9 79.7775 10.36C81.1108 11.6933 81.9242 13.6667 82.2175 16.28ZM73.7375 11.64C72.5908 11.64 71.6442 11.9333 70.8975 12.52C70.1508 13.08 69.6442 13.84 69.3775 14.8C69.1908 15.3867 69.0708 16.1333 69.0175 17.04C69.0175 17.1467 69.0708 17.2 69.1775 17.2H78.3375C78.4442 17.2 78.4975 17.1467 78.4975 17.04C78.4442 16.16 78.3642 15.5067 78.2575 15.08C77.9908 14.04 77.4575 13.2133 76.6575 12.6C75.8842 11.96 74.9108 11.64 73.7375 11.64ZM96.1028 8.44C96.9561 8.44 97.7295 8.61333 98.4228 8.96C98.6095 9.04 98.6761 9.2 98.6228 9.44L97.9828 12.44C97.9561 12.68 97.7961 12.76 97.5028 12.68C97.0495 12.4933 96.5161 12.4 95.9028 12.4L95.3428 12.44C94.0895 12.4933 93.0495 12.9333 92.2228 13.76C91.4228 14.56 91.0228 15.6133 91.0228 16.92V28.6C91.0228 28.8667 90.8895 29 90.6228 29H87.5828C87.3161 29 87.1828 28.8667 87.1828 28.6V9.04C87.1828 8.77333 87.3161 8.64 87.5828 8.64H90.6228C90.8895 8.64 91.0228 8.77333 91.0228 9.04V11.16C91.0228 11.24 91.0361 11.2933 91.0628 11.32C91.1161 11.32 91.1561 11.2933 91.1828 11.24C92.3828 9.37333 94.0228 8.44 96.1028 8.44ZM104.347 5.44C103.6 5.44 102.987 5.2 102.507 4.72C102.027 4.24 101.787 3.62667 101.787 2.88C101.787 2.13333 102.027 1.52 102.507 1.04C102.987 0.559999 103.6 0.32 104.347 0.32C105.093 0.32 105.707 0.559999 106.187 1.04C106.667 1.52 106.907 2.13333 106.907 2.88C106.907 3.62667 106.667 4.24 106.187 4.72C105.707 5.2 105.093 5.44 104.347 5.44ZM102.747 28.96C102.48 28.96 102.347 28.8267 102.347 28.56V9.04C102.347 8.77333 102.48 8.64 102.747 8.64H105.787C106.053 8.64 106.187 8.77333 106.187 9.04V28.56C106.187 28.8267 106.053 28.96 105.787 28.96H102.747ZM128.702 16.28C128.809 17.3733 128.849 18.6 128.822 19.96C128.822 20.2267 128.689 20.36 128.422 20.36H115.662C115.555 20.36 115.502 20.4133 115.502 20.52C115.502 21.4267 115.582 22.12 115.742 22.6C116.035 23.6667 116.622 24.5067 117.502 25.12C118.409 25.7067 119.542 26 120.902 26C122.875 26 124.395 25.1867 125.462 23.56C125.595 23.2933 125.769 23.2533 125.982 23.44L128.262 24.96C128.449 25.12 128.489 25.2933 128.382 25.48C127.635 26.68 126.569 27.6267 125.182 28.32C123.822 29.0133 122.275 29.36 120.542 29.36C118.595 29.36 116.955 28.9333 115.622 28.08C114.289 27.2267 113.289 26.0133 112.622 24.44C111.982 22.8667 111.662 20.96 111.662 18.72C111.662 16.7733 111.809 15.2933 112.102 14.28C112.582 12.44 113.542 10.9867 114.982 9.92C116.422 8.85333 118.169 8.32 120.222 8.32C122.915 8.32 124.929 9 126.262 10.36C127.595 11.6933 128.409 13.6667 128.702 16.28ZM120.222 11.64C119.075 11.64 118.129 11.9333 117.382 12.52C116.635 13.08 116.129 13.84 115.862 14.8C115.675 15.3867 115.555 16.1333 115.502 17.04C115.502 17.1467 115.555 17.2 115.662 17.2H124.822C124.929 17.2 124.982 17.1467 124.982 17.04C124.929 16.16 124.849 15.5067 124.742 15.08C124.475 14.04 123.942 13.2133 123.142 12.6C122.369 11.96 121.395 11.64 120.222 11.64ZM142.747 8.36C144.934 8.36 146.667 9 147.947 10.28C149.227 11.5333 149.867 13.24 149.867 15.4V28.6C149.867 28.8667 149.734 29 149.467 29H146.427C146.161 29 146.027 28.8667 146.027 28.6V16.16C146.027 14.8267 145.641 13.7467 144.867 12.92C144.094 12.0933 143.067 11.68 141.787 11.68C140.534 11.68 139.507 12.0933 138.707 12.92C137.907 13.7467 137.507 14.8133 137.507 16.12V28.6C137.507 28.8667 137.374 29 137.107 29H134.067C133.801 29 133.667 28.8667 133.667 28.6V9.04C133.667 8.77333 133.801 8.64 134.067 8.64H137.107C137.374 8.64 137.507 8.77333 137.507 9.04V10.48C137.507 10.5333 137.521 10.5733 137.547 10.6C137.601 10.6267 137.641 10.6133 137.667 10.56C138.814 9.09333 140.507 8.36 142.747 8.36ZM163.273 29.32C161.246 29.32 159.513 28.8133 158.073 27.8C156.633 26.76 155.646 25.36 155.113 23.6C154.713 22.3733 154.513 20.76 154.513 18.76C154.513 16.92 154.713 15.3067 155.113 13.92C155.646 12.2133 156.633 10.8533 158.073 9.84C159.539 8.82667 161.273 8.32 163.273 8.32C165.273 8.32 167.019 8.82667 168.513 9.84C170.006 10.8533 170.979 12.1333 171.433 13.68C171.593 14.1067 171.699 14.5467 171.753 15C171.753 15.2133 171.633 15.3467 171.393 15.4L168.393 15.84H168.313C168.126 15.84 167.993 15.72 167.913 15.48L167.793 14.84C167.579 13.9333 167.059 13.1733 166.233 12.56C165.406 11.9467 164.406 11.64 163.233 11.64C162.086 11.64 161.113 11.9467 160.313 12.56C159.513 13.1733 158.993 13.9867 158.753 15C158.513 15.96 158.393 17.2267 158.393 18.8C158.393 20.3467 158.513 21.6 158.753 22.56C159.019 23.6267 159.539 24.4667 160.313 25.08C161.113 25.6933 162.086 26 163.233 26C164.406 26 165.406 25.6933 166.233 25.08C167.086 24.4667 167.619 23.6667 167.833 22.68C167.859 22.6533 167.859 22.6267 167.833 22.6C167.833 22.5467 167.846 22.5067 167.873 22.48V22.32C167.953 22.1067 168.099 22.0267 168.313 22.08L171.313 22.56C171.526 22.6133 171.633 22.72 171.633 22.88V23.04C171.633 23.28 171.566 23.5733 171.433 23.92C170.979 25.5467 170.006 26.8533 168.513 27.84C167.019 28.8267 165.273 29.32 163.273 29.32ZM178.487 5.44C177.741 5.44 177.127 5.2 176.647 4.72C176.167 4.24 175.927 3.62667 175.927 2.88C175.927 2.13333 176.167 1.52 176.647 1.04C177.127 0.559999 177.741 0.32 178.487 0.32C179.234 0.32 179.847 0.559999 180.327 1.04C180.807 1.52 181.047 2.13333 181.047 2.88C181.047 3.62667 180.807 4.24 180.327 4.72C179.847 5.2 179.234 5.44 178.487 5.44ZM176.887 28.96C176.621 28.96 176.487 28.8267 176.487 28.56V9.04C176.487 8.77333 176.621 8.64 176.887 8.64H179.927C180.194 8.64 180.327 8.77333 180.327 9.04V28.56C180.327 28.8267 180.194 28.96 179.927 28.96H176.887ZM193.803 8.32C195.429 8.32 196.843 8.61333 198.043 9.2C199.269 9.76 200.203 10.56 200.843 11.6C201.509 12.6133 201.843 13.7733 201.843 15.08V28.6C201.843 28.8667 201.709 29 201.443 29H198.403C198.136 29 198.003 28.8667 198.003 28.6V27.16C198.003 27.0267 197.936 27 197.803 27.08C197.109 27.8 196.256 28.36 195.243 28.76C194.256 29.1333 193.149 29.32 191.923 29.32C189.949 29.32 188.309 28.8267 187.003 27.84C185.723 26.8267 185.083 25.3067 185.083 23.28C185.083 21.2 185.803 19.5733 187.243 18.4C188.709 17.2 190.749 16.6 193.363 16.6H197.843C197.949 16.6 198.003 16.5467 198.003 16.44V15.36C198.003 14.1867 197.656 13.28 196.963 12.64C196.296 11.9733 195.269 11.64 193.883 11.64C192.763 11.64 191.843 11.8667 191.123 12.32C190.429 12.7467 190.003 13.3333 189.843 14.08C189.763 14.3467 189.603 14.4667 189.363 14.44L186.123 14C185.856 13.9467 185.736 13.84 185.763 13.68C185.976 12.1067 186.816 10.8267 188.283 9.84C189.749 8.82667 191.589 8.32 193.803 8.32ZM192.763 26.08C194.176 26.08 195.403 25.7067 196.443 24.96C197.483 24.2133 198.003 23.2667 198.003 22.12V19.76C198.003 19.6533 197.949 19.6 197.843 19.6H194.083C192.509 19.6 191.256 19.9067 190.323 20.52C189.389 21.1333 188.923 21.9867 188.923 23.08C188.923 24.0667 189.269 24.8133 189.963 25.32C190.683 25.8267 191.616 26.08 192.763 26.08ZM215.154 29C215.021 29 214.901 28.96 214.794 28.88C214.714 28.7733 214.674 28.6533 214.674 28.52V1.48C214.674 1.34667 214.714 1.24 214.794 1.16C214.901 1.05333 215.021 0.999998 215.154 0.999998H219.834C219.968 0.999998 220.074 1.05333 220.154 1.16C220.261 1.24 220.314 1.34667 220.314 1.48V23.96C220.314 24.0933 220.381 24.16 220.514 24.16H233.594C233.728 24.16 233.834 24.2133 233.914 24.32C234.021 24.4 234.074 24.5067 234.074 24.64V28.52C234.074 28.6533 234.021 28.7733 233.914 28.88C233.834 28.96 233.728 29 233.594 29H215.154ZM249.205 8.92C249.205 8.78667 249.245 8.68 249.325 8.6C249.432 8.49333 249.552 8.44 249.685 8.44H254.365C254.498 8.44 254.605 8.49333 254.685 8.6C254.792 8.68 254.845 8.78667 254.845 8.92V28.52C254.845 28.6533 254.792 28.7733 254.685 28.88C254.605 28.96 254.498 29 254.365 29H249.685C249.552 29 249.432 28.96 249.325 28.88C249.245 28.7733 249.205 28.6533 249.205 28.52V27.16C249.205 27.08 249.178 27.04 249.125 27.04C249.072 27.0133 249.018 27.04 248.965 27.12C247.898 28.56 246.245 29.28 244.005 29.28C241.978 29.28 240.312 28.6667 239.005 27.44C237.698 26.2133 237.045 24.4933 237.045 22.28V8.92C237.045 8.78667 237.085 8.68 237.165 8.6C237.272 8.49333 237.392 8.44 237.525 8.44H242.165C242.298 8.44 242.405 8.49333 242.485 8.6C242.592 8.68 242.645 8.78667 242.645 8.92V20.88C242.645 21.9467 242.925 22.8133 243.485 23.48C244.072 24.1467 244.872 24.48 245.885 24.48C246.792 24.48 247.538 24.2133 248.125 23.68C248.712 23.12 249.072 22.4 249.205 21.52V8.92ZM269.722 8.12C271.855 8.12 273.575 8.77333 274.882 10.08C276.189 11.3867 276.842 13.16 276.842 15.4V28.52C276.842 28.6533 276.789 28.7733 276.682 28.88C276.602 28.96 276.495 29 276.362 29H271.682C271.549 29 271.429 28.96 271.322 28.88C271.242 28.7733 271.202 28.6533 271.202 28.52V16.56C271.202 15.4933 270.895 14.6267 270.282 13.96C269.695 13.2933 268.909 12.96 267.922 12.96C266.935 12.96 266.135 13.2933 265.522 13.96C264.935 14.6267 264.642 15.4933 264.642 16.56V28.52C264.642 28.6533 264.589 28.7733 264.482 28.88C264.402 28.96 264.295 29 264.162 29H259.482C259.349 29 259.229 28.96 259.122 28.88C259.042 28.7733 259.002 28.6533 259.002 28.52V8.92C259.002 8.78667 259.042 8.68 259.122 8.6C259.229 8.49333 259.349 8.44 259.482 8.44H264.162C264.295 8.44 264.402 8.49333 264.482 8.6C264.589 8.68 264.642 8.78667 264.642 8.92V10.32C264.642 10.4 264.669 10.4533 264.722 10.48C264.775 10.5067 264.815 10.4933 264.842 10.44C265.935 8.89333 267.562 8.12 269.722 8.12ZM289.077 8.12C290.81 8.12 292.357 8.42667 293.717 9.04C295.077 9.62667 296.13 10.44 296.877 11.48C297.65 12.52 298.037 13.68 298.037 14.96V28.52C298.037 28.6533 297.984 28.7733 297.877 28.88C297.797 28.96 297.69 29 297.557 29H292.877C292.744 29 292.624 28.96 292.517 28.88C292.437 28.7733 292.397 28.6533 292.397 28.52V27.2C292.397 27.12 292.37 27.0667 292.317 27.04C292.264 27.0133 292.21 27.04 292.157 27.12C291.037 28.5867 289.237 29.32 286.757 29.32C284.677 29.32 282.997 28.8133 281.717 27.8C280.437 26.7867 279.797 25.2933 279.797 23.32C279.797 21.2667 280.517 19.68 281.957 18.56C283.397 17.4133 285.45 16.84 288.117 16.84H292.197C292.33 16.84 292.397 16.7733 292.397 16.64V15.76C292.397 14.88 292.13 14.2 291.597 13.72C291.064 13.2133 290.264 12.96 289.197 12.96C288.37 12.96 287.677 13.1067 287.117 13.4C286.584 13.6933 286.237 14.1067 286.077 14.64C285.997 14.9333 285.824 15.0667 285.557 15.04L280.717 14.4C280.397 14.3467 280.25 14.2267 280.277 14.04C280.384 12.92 280.824 11.9067 281.597 11C282.397 10.0933 283.437 9.38667 284.717 8.88C286.024 8.37333 287.477 8.12 289.077 8.12ZM288.277 25.12C289.424 25.12 290.397 24.8133 291.197 24.2C291.997 23.5867 292.397 22.8 292.397 21.84V20.4C292.397 20.2667 292.33 20.2 292.197 20.2H289.317C288.117 20.2 287.17 20.4267 286.477 20.88C285.81 21.3333 285.477 21.9733 285.477 22.8C285.477 23.52 285.73 24.0933 286.237 24.52C286.744 24.92 287.424 25.12 288.277 25.12ZM310.858 29C310.724 29 310.604 28.96 310.498 28.88C310.418 28.7733 310.378 28.6533 310.378 28.52V1.48C310.378 1.34667 310.418 1.24 310.498 1.16C310.604 1.05333 310.724 0.999998 310.858 0.999998H315.538C315.671 0.999998 315.778 1.05333 315.858 1.16C315.964 1.24 316.018 1.34667 316.018 1.48V23.96C316.018 24.0933 316.084 24.16 316.218 24.16H329.298C329.431 24.16 329.538 24.2133 329.618 24.32C329.724 24.4 329.778 24.5067 329.778 24.64V28.52C329.778 28.6533 329.724 28.7733 329.618 28.88C329.538 28.96 329.431 29 329.298 29H310.858ZM333.388 29C333.255 29 333.135 28.96 333.028 28.88C332.948 28.7733 332.908 28.6533 332.908 28.52V1.48C332.908 1.34667 332.948 1.24 333.028 1.16C333.135 1.05333 333.255 0.999998 333.388 0.999998H338.068C338.201 0.999998 338.308 1.05333 338.388 1.16C338.495 1.24 338.548 1.34667 338.548 1.48V28.52C338.548 28.6533 338.495 28.7733 338.388 28.88C338.308 28.96 338.201 29 338.068 29H333.388ZM360.874 16.6C361.034 17.6133 361.087 18.7467 361.034 20C361.007 20.32 360.834 20.48 360.514 20.48H348.154C347.994 20.48 347.94 20.5467 347.994 20.68C348.074 21.2133 348.22 21.7467 348.434 22.28C349.127 23.7733 350.54 24.52 352.674 24.52C354.38 24.4933 355.727 23.8 356.714 22.44C356.82 22.28 356.94 22.2 357.074 22.2C357.154 22.2 357.247 22.2533 357.354 22.36L360.234 25.2C360.367 25.3333 360.434 25.4533 360.434 25.56C360.434 25.6133 360.38 25.72 360.274 25.88C359.394 26.9733 358.26 27.8267 356.874 28.44C355.487 29.0267 353.967 29.32 352.314 29.32C350.02 29.32 348.074 28.8 346.474 27.76C344.9 26.72 343.767 25.2667 343.074 23.4C342.514 22.0667 342.234 20.32 342.234 18.16C342.234 16.6933 342.434 15.4 342.834 14.28C343.447 12.3867 344.514 10.88 346.034 9.76C347.58 8.64 349.407 8.08 351.514 8.08C354.18 8.08 356.314 8.85333 357.914 10.4C359.54 11.9467 360.527 14.0133 360.874 16.6ZM351.554 12.96C349.874 12.96 348.767 13.7467 348.234 15.32C348.127 15.6667 348.034 16.0933 347.954 16.6C347.954 16.7333 348.02 16.8 348.154 16.8H355.074C355.234 16.8 355.287 16.7333 355.234 16.6C355.1 15.8267 355.034 15.4533 355.034 15.48C354.794 14.68 354.367 14.0667 353.754 13.64C353.167 13.1867 352.434 12.96 351.554 12.96ZM375.23 8.12C377.363 8.12 379.083 8.77333 380.39 10.08C381.696 11.3867 382.35 13.16 382.35 15.4V28.52C382.35 28.6533 382.296 28.7733 382.19 28.88C382.11 28.96 382.003 29 381.87 29H377.19C377.056 29 376.936 28.96 376.83 28.88C376.75 28.7733 376.71 28.6533 376.71 28.52V16.56C376.71 15.4933 376.403 14.6267 375.79 13.96C375.203 13.2933 374.416 12.96 373.43 12.96C372.443 12.96 371.643 13.2933 371.03 13.96C370.443 14.6267 370.15 15.4933 370.15 16.56V28.52C370.15 28.6533 370.096 28.7733 369.99 28.88C369.91 28.96 369.803 29 369.67 29H364.99C364.856 29 364.736 28.96 364.63 28.88C364.55 28.7733 364.51 28.6533 364.51 28.52V8.92C364.51 8.78667 364.55 8.68 364.63 8.6C364.736 8.49333 364.856 8.44 364.99 8.44H369.67C369.803 8.44 369.91 8.49333 369.99 8.6C370.096 8.68 370.15 8.78667 370.15 8.92V10.32C370.15 10.4 370.176 10.4533 370.23 10.48C370.283 10.5067 370.323 10.4933 370.35 10.44C371.443 8.89333 373.07 8.12 375.23 8.12ZM394.585 8.12C396.318 8.12 397.865 8.42667 399.225 9.04C400.585 9.62667 401.638 10.44 402.385 11.48C403.158 12.52 403.545 13.68 403.545 14.96V28.52C403.545 28.6533 403.491 28.7733 403.385 28.88C403.305 28.96 403.198 29 403.065 29H398.385C398.251 29 398.131 28.96 398.025 28.88C397.945 28.7733 397.905 28.6533 397.905 28.52V27.2C397.905 27.12 397.878 27.0667 397.825 27.04C397.771 27.0133 397.718 27.04 397.665 27.12C396.545 28.5867 394.745 29.32 392.265 29.32C390.185 29.32 388.505 28.8133 387.225 27.8C385.945 26.7867 385.305 25.2933 385.305 23.32C385.305 21.2667 386.025 19.68 387.465 18.56C388.905 17.4133 390.958 16.84 393.625 16.84H397.705C397.838 16.84 397.905 16.7733 397.905 16.64V15.76C397.905 14.88 397.638 14.2 397.105 13.72C396.571 13.2133 395.771 12.96 394.705 12.96C393.878 12.96 393.185 13.1067 392.625 13.4C392.091 13.6933 391.745 14.1067 391.585 14.64C391.505 14.9333 391.331 15.0667 391.065 15.04L386.225 14.4C385.905 14.3467 385.758 14.2267 385.785 14.04C385.891 12.92 386.331 11.9067 387.105 11C387.905 10.0933 388.945 9.38667 390.225 8.88C391.531 8.37333 392.985 8.12 394.585 8.12ZM393.785 25.12C394.931 25.12 395.905 24.8133 396.705 24.2C397.505 23.5867 397.905 22.8 397.905 21.84V20.4C397.905 20.2667 397.838 20.2 397.705 20.2H394.825C393.625 20.2 392.678 20.4267 391.985 20.88C391.318 21.3333 390.985 21.9733 390.985 22.8C390.985 23.52 391.238 24.0933 391.745 24.52C392.251 24.92 392.931 25.12 393.785 25.12Z" fill="#EB6540"/>
</svg>
