<svg width="378" height="37" viewBox="0 0 378 37" fill="none" xmlns="http://www.w3.org/2000/svg">
<path d="M18.88 3.92C18.88 4.18667 18.7467 4.32 18.48 4.32H4.28C4.17333 4.32 4.12 4.37333 4.12 4.48V13.08C4.12 13.1867 4.17333 13.24 4.28 13.24H14.04C14.3067 13.24 14.44 13.3733 14.44 13.64V16.16C14.44 16.4267 14.3067 16.56 14.04 16.56H4.28C4.17333 16.56 4.12 16.6133 4.12 16.72V25.52C4.12 25.6267 4.17333 25.68 4.28 25.68H18.48C18.7467 25.68 18.88 25.8133 18.88 26.08V28.6C18.88 28.8667 18.7467 29 18.48 29H0.68C0.413333 29 0.28 28.8667 0.28 28.6V1.4C0.28 1.13333 0.413333 0.999998 0.68 0.999998H18.48C18.7467 0.999998 18.88 1.13333 18.88 1.4V3.92ZM22.2663 29C22.1063 29 21.9996 28.96 21.9463 28.88C21.8929 28.7733 21.9063 28.6533 21.9863 28.52L28.6263 18.96C28.6796 18.88 28.6796 18.8 28.6263 18.72L21.9863 9.12L21.9063 8.92C21.9063 8.73333 22.0263 8.64 22.2663 8.64H25.5063C25.7196 8.64 25.8796 8.72 25.9863 8.88L30.6663 15.72C30.6929 15.7467 30.7329 15.76 30.7863 15.76C30.8396 15.76 30.8796 15.7467 30.9062 15.72L35.5463 8.88C35.6529 8.72 35.8129 8.64 36.0263 8.64H39.5063C39.6663 8.64 39.7729 8.69333 39.8263 8.8C39.8796 8.88 39.8663 8.98667 39.7863 9.12L33.1463 18.72C33.1196 18.8 33.1196 18.88 33.1463 18.96L39.7863 28.52L39.8663 28.72C39.8663 28.9067 39.7463 29 39.5063 29H36.2263C36.0129 29 35.8529 28.92 35.7463 28.76L31.1063 21.92C31.0796 21.8667 31.0396 21.84 30.9863 21.84C30.9329 21.84 30.8929 21.8667 30.8663 21.92L26.1862 28.76C26.0796 28.92 25.9196 29 25.7063 29H22.2663ZM60.1872 13.76C60.6939 15.2 60.9472 16.9067 60.9472 18.88C60.9472 20.7467 60.7339 22.36 60.3072 23.72C59.7472 25.5067 58.8272 26.8933 57.5472 27.88C56.2672 28.84 54.6272 29.32 52.6272 29.32C51.7205 29.32 50.8539 29.1467 50.0272 28.8C49.2272 28.4267 48.5339 27.9067 47.9472 27.24C47.8939 27.1867 47.8405 27.1733 47.7872 27.2C47.7605 27.2267 47.7472 27.2667 47.7472 27.32V36.24C47.7472 36.5067 47.6139 36.64 47.3472 36.64H44.3072C44.0405 36.64 43.9072 36.5067 43.9072 36.24V9.04C43.9072 8.77333 44.0405 8.64 44.3072 8.64H47.3472C47.6139 8.64 47.7472 8.77333 47.7472 9.04V10.36C47.7472 10.4133 47.7605 10.4533 47.7872 10.48C47.8405 10.5067 47.8939 10.4933 47.9472 10.44C48.5339 9.77333 49.2272 9.25333 50.0272 8.88C50.8272 8.50667 51.6939 8.32 52.6272 8.32C54.5472 8.32 56.1339 8.8 57.3872 9.76C58.6672 10.6933 59.6005 12.0267 60.1872 13.76ZM55.7872 24.08C56.6405 22.8 57.0672 21.04 57.0672 18.8C57.0672 16.7467 56.7339 15.0933 56.0672 13.84C55.2939 12.3733 54.0272 11.64 52.2672 11.64C50.7205 11.64 49.5472 12.36 48.7472 13.8C48.1072 14.9467 47.7872 16.6267 47.7872 18.84C47.7872 21.08 48.1339 22.7867 48.8272 23.96C49.6005 25.32 50.7339 26 52.2272 26C53.8272 26 55.0139 25.36 55.7872 24.08ZM82.2175 16.28C82.3242 17.3733 82.3642 18.6 82.3375 19.96C82.3375 20.2267 82.2042 20.36 81.9375 20.36H69.1775C69.0708 20.36 69.0175 20.4133 69.0175 20.52C69.0175 21.4267 69.0975 22.12 69.2575 22.6C69.5508 23.6667 70.1375 24.5067 71.0175 25.12C71.9242 25.7067 73.0575 26 74.4175 26C76.3908 26 77.9108 25.1867 78.9775 23.56C79.1108 23.2933 79.2842 23.2533 79.4975 23.44L81.7775 24.96C81.9642 25.12 82.0042 25.2933 81.8975 25.48C81.1508 26.68 80.0842 27.6267 78.6975 28.32C77.3375 29.0133 75.7908 29.36 74.0575 29.36C72.1108 29.36 70.4708 28.9333 69.1375 28.08C67.8042 27.2267 66.8042 26.0133 66.1375 24.44C65.4975 22.8667 65.1775 20.96 65.1775 18.72C65.1775 16.7733 65.3242 15.2933 65.6175 14.28C66.0975 12.44 67.0575 10.9867 68.4975 9.92C69.9375 8.85333 71.6842 8.32 73.7375 8.32C76.4308 8.32 78.4442 9 79.7775 10.36C81.1108 11.6933 81.9242 13.6667 82.2175 16.28ZM73.7375 11.64C72.5908 11.64 71.6442 11.9333 70.8975 12.52C70.1508 13.08 69.6442 13.84 69.3775 14.8C69.1908 15.3867 69.0708 16.1333 69.0175 17.04C69.0175 17.1467 69.0708 17.2 69.1775 17.2H78.3375C78.4442 17.2 78.4975 17.1467 78.4975 17.04C78.4442 16.16 78.3642 15.5067 78.2575 15.08C77.9908 14.04 77.4575 13.2133 76.6575 12.6C75.8842 11.96 74.9108 11.64 73.7375 11.64ZM96.1028 8.44C96.9561 8.44 97.7295 8.61333 98.4228 8.96C98.6095 9.04 98.6761 9.2 98.6228 9.44L97.9828 12.44C97.9561 12.68 97.7961 12.76 97.5028 12.68C97.0495 12.4933 96.5161 12.4 95.9028 12.4L95.3428 12.44C94.0895 12.4933 93.0495 12.9333 92.2228 13.76C91.4228 14.56 91.0228 15.6133 91.0228 16.92V28.6C91.0228 28.8667 90.8895 29 90.6228 29H87.5828C87.3161 29 87.1828 28.8667 87.1828 28.6V9.04C87.1828 8.77333 87.3161 8.64 87.5828 8.64H90.6228C90.8895 8.64 91.0228 8.77333 91.0228 9.04V11.16C91.0228 11.24 91.0361 11.2933 91.0628 11.32C91.1161 11.32 91.1561 11.2933 91.1828 11.24C92.3828 9.37333 94.0228 8.44 96.1028 8.44ZM104.347 5.44C103.6 5.44 102.987 5.2 102.507 4.72C102.027 4.24 101.787 3.62667 101.787 2.88C101.787 2.13333 102.027 1.52 102.507 1.04C102.987 0.559999 103.6 0.32 104.347 0.32C105.093 0.32 105.707 0.559999 106.187 1.04C106.667 1.52 106.907 2.13333 106.907 2.88C106.907 3.62667 106.667 4.24 106.187 4.72C105.707 5.2 105.093 5.44 104.347 5.44ZM102.747 28.96C102.48 28.96 102.347 28.8267 102.347 28.56V9.04C102.347 8.77333 102.48 8.64 102.747 8.64H105.787C106.053 8.64 106.187 8.77333 106.187 9.04V28.56C106.187 28.8267 106.053 28.96 105.787 28.96H102.747ZM128.702 16.28C128.809 17.3733 128.849 18.6 128.822 19.96C128.822 20.2267 128.689 20.36 128.422 20.36H115.662C115.555 20.36 115.502 20.4133 115.502 20.52C115.502 21.4267 115.582 22.12 115.742 22.6C116.035 23.6667 116.622 24.5067 117.502 25.12C118.409 25.7067 119.542 26 120.902 26C122.875 26 124.395 25.1867 125.462 23.56C125.595 23.2933 125.769 23.2533 125.982 23.44L128.262 24.96C128.449 25.12 128.489 25.2933 128.382 25.48C127.635 26.68 126.569 27.6267 125.182 28.32C123.822 29.0133 122.275 29.36 120.542 29.36C118.595 29.36 116.955 28.9333 115.622 28.08C114.289 27.2267 113.289 26.0133 112.622 24.44C111.982 22.8667 111.662 20.96 111.662 18.72C111.662 16.7733 111.809 15.2933 112.102 14.28C112.582 12.44 113.542 10.9867 114.982 9.92C116.422 8.85333 118.169 8.32 120.222 8.32C122.915 8.32 124.929 9 126.262 10.36C127.595 11.6933 128.409 13.6667 128.702 16.28ZM120.222 11.64C119.075 11.64 118.129 11.9333 117.382 12.52C116.635 13.08 116.129 13.84 115.862 14.8C115.675 15.3867 115.555 16.1333 115.502 17.04C115.502 17.1467 115.555 17.2 115.662 17.2H124.822C124.929 17.2 124.982 17.1467 124.982 17.04C124.929 16.16 124.849 15.5067 124.742 15.08C124.475 14.04 123.942 13.2133 123.142 12.6C122.369 11.96 121.395 11.64 120.222 11.64ZM142.747 8.36C144.934 8.36 146.667 9 147.947 10.28C149.227 11.5333 149.867 13.24 149.867 15.4V28.6C149.867 28.8667 149.734 29 149.467 29H146.427C146.161 29 146.027 28.8667 146.027 28.6V16.16C146.027 14.8267 145.641 13.7467 144.867 12.92C144.094 12.0933 143.067 11.68 141.787 11.68C140.534 11.68 139.507 12.0933 138.707 12.92C137.907 13.7467 137.507 14.8133 137.507 16.12V28.6C137.507 28.8667 137.374 29 137.107 29H134.067C133.801 29 133.667 28.8667 133.667 28.6V9.04C133.667 8.77333 133.801 8.64 134.067 8.64H137.107C137.374 8.64 137.507 8.77333 137.507 9.04V10.48C137.507 10.5333 137.521 10.5733 137.547 10.6C137.601 10.6267 137.641 10.6133 137.667 10.56C138.814 9.09333 140.507 8.36 142.747 8.36ZM163.273 29.32C161.246 29.32 159.513 28.8133 158.073 27.8C156.633 26.76 155.646 25.36 155.113 23.6C154.713 22.3733 154.513 20.76 154.513 18.76C154.513 16.92 154.713 15.3067 155.113 13.92C155.646 12.2133 156.633 10.8533 158.073 9.84C159.539 8.82667 161.273 8.32 163.273 8.32C165.273 8.32 167.019 8.82667 168.513 9.84C170.006 10.8533 170.979 12.1333 171.433 13.68C171.593 14.1067 171.699 14.5467 171.753 15C171.753 15.2133 171.633 15.3467 171.393 15.4L168.393 15.84H168.313C168.126 15.84 167.993 15.72 167.913 15.48L167.793 14.84C167.579 13.9333 167.059 13.1733 166.233 12.56C165.406 11.9467 164.406 11.64 163.233 11.64C162.086 11.64 161.113 11.9467 160.313 12.56C159.513 13.1733 158.993 13.9867 158.753 15C158.513 15.96 158.393 17.2267 158.393 18.8C158.393 20.3467 158.513 21.6 158.753 22.56C159.019 23.6267 159.539 24.4667 160.313 25.08C161.113 25.6933 162.086 26 163.233 26C164.406 26 165.406 25.6933 166.233 25.08C167.086 24.4667 167.619 23.6667 167.833 22.68C167.859 22.6533 167.859 22.6267 167.833 22.6C167.833 22.5467 167.846 22.5067 167.873 22.48V22.32C167.953 22.1067 168.099 22.0267 168.313 22.08L171.313 22.56C171.526 22.6133 171.633 22.72 171.633 22.88V23.04C171.633 23.28 171.566 23.5733 171.433 23.92C170.979 25.5467 170.006 26.8533 168.513 27.84C167.019 28.8267 165.273 29.32 163.273 29.32ZM178.487 5.44C177.741 5.44 177.127 5.2 176.647 4.72C176.167 4.24 175.927 3.62667 175.927 2.88C175.927 2.13333 176.167 1.52 176.647 1.04C177.127 0.559999 177.741 0.32 178.487 0.32C179.234 0.32 179.847 0.559999 180.327 1.04C180.807 1.52 181.047 2.13333 181.047 2.88C181.047 3.62667 180.807 4.24 180.327 4.72C179.847 5.2 179.234 5.44 178.487 5.44ZM176.887 28.96C176.621 28.96 176.487 28.8267 176.487 28.56V9.04C176.487 8.77333 176.621 8.64 176.887 8.64H179.927C180.194 8.64 180.327 8.77333 180.327 9.04V28.56C180.327 28.8267 180.194 28.96 179.927 28.96H176.887ZM193.803 8.32C195.429 8.32 196.843 8.61333 198.043 9.2C199.269 9.76 200.203 10.56 200.843 11.6C201.509 12.6133 201.843 13.7733 201.843 15.08V28.6C201.843 28.8667 201.709 29 201.443 29H198.403C198.136 29 198.003 28.8667 198.003 28.6V27.16C198.003 27.0267 197.936 27 197.803 27.08C197.109 27.8 196.256 28.36 195.243 28.76C194.256 29.1333 193.149 29.32 191.923 29.32C189.949 29.32 188.309 28.8267 187.003 27.84C185.723 26.8267 185.083 25.3067 185.083 23.28C185.083 21.2 185.803 19.5733 187.243 18.4C188.709 17.2 190.749 16.6 193.363 16.6H197.843C197.949 16.6 198.003 16.5467 198.003 16.44V15.36C198.003 14.1867 197.656 13.28 196.963 12.64C196.296 11.9733 195.269 11.64 193.883 11.64C192.763 11.64 191.843 11.8667 191.123 12.32C190.429 12.7467 190.003 13.3333 189.843 14.08C189.763 14.3467 189.603 14.4667 189.363 14.44L186.123 14C185.856 13.9467 185.736 13.84 185.763 13.68C185.976 12.1067 186.816 10.8267 188.283 9.84C189.749 8.82667 191.589 8.32 193.803 8.32ZM192.763 26.08C194.176 26.08 195.403 25.7067 196.443 24.96C197.483 24.2133 198.003 23.2667 198.003 22.12V19.76C198.003 19.6533 197.949 19.6 197.843 19.6H194.083C192.509 19.6 191.256 19.9067 190.323 20.52C189.389 21.1333 188.923 21.9867 188.923 23.08C188.923 24.0667 189.269 24.8133 189.963 25.32C190.683 25.8267 191.616 26.08 192.763 26.08ZM233.994 0.999998C234.128 0.999998 234.234 1.05333 234.314 1.16C234.421 1.24 234.474 1.34667 234.474 1.48V5.4C234.474 5.53333 234.421 5.65333 234.314 5.76C234.234 5.84 234.128 5.88 233.994 5.88H226.834C226.701 5.88 226.634 5.94667 226.634 6.08V28.52C226.634 28.6533 226.581 28.7733 226.474 28.88C226.394 28.96 226.288 29 226.154 29H221.474C221.341 29 221.221 28.96 221.114 28.88C221.034 28.7733 220.994 28.6533 220.994 28.52V6.08C220.994 5.94667 220.928 5.88 220.794 5.88H213.834C213.701 5.88 213.581 5.84 213.474 5.76C213.394 5.65333 213.354 5.53333 213.354 5.4V1.48C213.354 1.34667 213.394 1.24 213.474 1.16C213.581 1.05333 213.701 0.999998 213.834 0.999998H233.994ZM252.553 16.6C252.713 17.6133 252.767 18.7467 252.713 20C252.687 20.32 252.513 20.48 252.193 20.48H239.833C239.673 20.48 239.62 20.5467 239.673 20.68C239.753 21.2133 239.9 21.7467 240.113 22.28C240.807 23.7733 242.22 24.52 244.353 24.52C246.06 24.4933 247.407 23.8 248.393 22.44C248.5 22.28 248.62 22.2 248.753 22.2C248.833 22.2 248.927 22.2533 249.033 22.36L251.913 25.2C252.047 25.3333 252.113 25.4533 252.113 25.56C252.113 25.6133 252.06 25.72 251.953 25.88C251.073 26.9733 249.94 27.8267 248.553 28.44C247.167 29.0267 245.647 29.32 243.993 29.32C241.7 29.32 239.753 28.8 238.153 27.76C236.58 26.72 235.447 25.2667 234.753 23.4C234.193 22.0667 233.913 20.32 233.913 18.16C233.913 16.6933 234.113 15.4 234.513 14.28C235.127 12.3867 236.193 10.88 237.713 9.76C239.26 8.64 241.087 8.08 243.193 8.08C245.86 8.08 247.993 8.85333 249.593 10.4C251.22 11.9467 252.207 14.0133 252.553 16.6ZM243.233 12.96C241.553 12.96 240.447 13.7467 239.913 15.32C239.807 15.6667 239.713 16.0933 239.633 16.6C239.633 16.7333 239.7 16.8 239.833 16.8H246.753C246.913 16.8 246.967 16.7333 246.913 16.6C246.78 15.8267 246.713 15.4533 246.713 15.48C246.473 14.68 246.047 14.0667 245.433 13.64C244.847 13.1867 244.113 12.96 243.233 12.96ZM278.989 8.12C281.069 8.12 282.696 8.74667 283.869 10C285.043 11.2533 285.629 13.0133 285.629 15.28V28.52C285.629 28.6533 285.576 28.7733 285.469 28.88C285.389 28.96 285.283 29 285.149 29H280.469C280.336 29 280.216 28.96 280.109 28.88C280.029 28.7733 279.989 28.6533 279.989 28.52V16.52C279.989 15.4267 279.709 14.56 279.149 13.92C278.589 13.28 277.843 12.96 276.909 12.96C275.976 12.96 275.216 13.28 274.629 13.92C274.043 14.56 273.749 15.4133 273.749 16.48V28.52C273.749 28.6533 273.696 28.7733 273.589 28.88C273.509 28.96 273.403 29 273.269 29H268.629C268.496 29 268.376 28.96 268.269 28.88C268.189 28.7733 268.149 28.6533 268.149 28.52V16.52C268.149 15.4533 267.856 14.6 267.269 13.96C266.683 13.2933 265.923 12.96 264.989 12.96C264.136 12.96 263.416 13.2133 262.829 13.72C262.269 14.2267 261.936 14.9333 261.829 15.84V28.52C261.829 28.6533 261.776 28.7733 261.669 28.88C261.589 28.96 261.483 29 261.349 29H256.669C256.536 29 256.416 28.96 256.309 28.88C256.229 28.7733 256.189 28.6533 256.189 28.52V8.92C256.189 8.78667 256.229 8.68 256.309 8.6C256.416 8.49333 256.536 8.44 256.669 8.44H261.349C261.483 8.44 261.589 8.49333 261.669 8.6C261.776 8.68 261.829 8.78667 261.829 8.92V10.48C261.829 10.56 261.856 10.6133 261.909 10.64C261.963 10.6667 262.016 10.64 262.069 10.56C263.163 8.93333 264.856 8.12 267.149 8.12C268.483 8.12 269.643 8.4 270.629 8.96C271.643 9.52 272.416 10.32 272.949 11.36C273.029 11.52 273.123 11.52 273.229 11.36C273.816 10.2667 274.603 9.45333 275.589 8.92C276.603 8.38667 277.736 8.12 278.989 8.12ZM297.788 8.12C299.521 8.12 301.068 8.42667 302.428 9.04C303.788 9.62667 304.841 10.44 305.588 11.48C306.361 12.52 306.748 13.68 306.748 14.96V28.52C306.748 28.6533 306.694 28.7733 306.588 28.88C306.508 28.96 306.401 29 306.268 29H301.588C301.454 29 301.334 28.96 301.228 28.88C301.148 28.7733 301.108 28.6533 301.108 28.52V27.2C301.108 27.12 301.081 27.0667 301.028 27.04C300.974 27.0133 300.921 27.04 300.868 27.12C299.748 28.5867 297.948 29.32 295.468 29.32C293.388 29.32 291.708 28.8133 290.428 27.8C289.148 26.7867 288.508 25.2933 288.508 23.32C288.508 21.2667 289.228 19.68 290.668 18.56C292.108 17.4133 294.161 16.84 296.828 16.84H300.908C301.041 16.84 301.108 16.7733 301.108 16.64V15.76C301.108 14.88 300.841 14.2 300.308 13.72C299.774 13.2133 298.974 12.96 297.908 12.96C297.081 12.96 296.388 13.1067 295.828 13.4C295.294 13.6933 294.948 14.1067 294.788 14.64C294.708 14.9333 294.534 15.0667 294.268 15.04L289.428 14.4C289.108 14.3467 288.961 14.2267 288.988 14.04C289.094 12.92 289.534 11.9067 290.308 11C291.108 10.0933 292.148 9.38667 293.428 8.88C294.734 8.37333 296.188 8.12 297.788 8.12ZM296.988 25.12C298.134 25.12 299.108 24.8133 299.908 24.2C300.708 23.5867 301.108 22.8 301.108 21.84V20.4C301.108 20.2667 301.041 20.2 300.908 20.2H298.028C296.828 20.2 295.881 20.4267 295.188 20.88C294.521 21.3333 294.188 21.9733 294.188 22.8C294.188 23.52 294.441 24.0933 294.948 24.52C295.454 24.92 296.134 25.12 296.988 25.12ZM310.081 29C309.947 29 309.827 28.96 309.721 28.88C309.641 28.7733 309.601 28.6533 309.601 28.52V24.24C309.601 24.0267 309.681 23.8267 309.841 23.64L318.841 13.76C318.974 13.6 318.947 13.52 318.761 13.52H310.321C310.187 13.52 310.067 13.48 309.961 13.4C309.881 13.2933 309.841 13.1733 309.841 13.04V8.92C309.841 8.78667 309.881 8.68 309.961 8.6C310.067 8.49333 310.187 8.44 310.321 8.44H325.281C325.414 8.44 325.521 8.49333 325.601 8.6C325.707 8.68 325.761 8.78667 325.761 8.92V13.16C325.761 13.3467 325.681 13.5467 325.521 13.76L316.241 23.64C316.134 23.8 316.161 23.88 316.321 23.88H325.481C325.614 23.88 325.721 23.9333 325.801 24.04C325.907 24.12 325.961 24.2267 325.961 24.36V28.52C325.961 28.6533 325.907 28.7733 325.801 28.88C325.721 28.96 325.614 29 325.481 29H310.081ZM338.159 29.32C336.026 29.32 334.172 28.7867 332.599 27.72C331.052 26.6533 329.946 25.1867 329.279 23.32C328.826 21.9867 328.599 20.4133 328.599 18.6C328.599 16.8133 328.826 15.2667 329.279 13.96C329.919 12.1467 331.026 10.72 332.599 9.68C334.172 8.64 336.026 8.12 338.159 8.12C340.292 8.12 342.159 8.65333 343.759 9.72C345.386 10.7867 346.466 12.1333 346.999 13.76C347.212 14.4 347.319 14.88 347.319 15.2V15.28C347.319 15.52 347.186 15.6667 346.919 15.72L342.319 16.4H342.239C341.999 16.4 341.839 16.2667 341.759 16L341.639 15.36C341.452 14.6667 341.039 14.0933 340.399 13.64C339.759 13.1867 338.999 12.96 338.119 12.96C337.266 12.96 336.546 13.1733 335.959 13.6C335.372 14.0267 334.959 14.6133 334.719 15.36C334.426 16.16 334.279 17.2533 334.279 18.64C334.279 20.0267 334.412 21.12 334.679 21.92C334.919 22.72 335.332 23.3467 335.919 23.8C336.532 24.2533 337.266 24.48 338.119 24.48C338.946 24.48 339.666 24.2667 340.279 23.84C340.919 23.3867 341.359 22.7733 341.599 22C341.626 21.9467 341.639 21.8667 341.639 21.76C341.666 21.7333 341.679 21.6933 341.679 21.64C341.706 21.32 341.892 21.1867 342.239 21.24L346.839 21.96C347.106 22.0133 347.239 22.16 347.239 22.4C347.239 22.6133 347.159 23.0133 346.999 23.6C346.439 25.3867 345.346 26.7867 343.719 27.8C342.119 28.8133 340.266 29.32 338.159 29.32ZM358.803 8.12C360.537 8.12 362.083 8.42667 363.443 9.04C364.803 9.62667 365.857 10.44 366.603 11.48C367.377 12.52 367.763 13.68 367.763 14.96V28.52C367.763 28.6533 367.71 28.7733 367.603 28.88C367.523 28.96 367.417 29 367.283 29H362.603C362.47 29 362.35 28.96 362.243 28.88C362.163 28.7733 362.123 28.6533 362.123 28.52V27.2C362.123 27.12 362.097 27.0667 362.043 27.04C361.99 27.0133 361.937 27.04 361.883 27.12C360.763 28.5867 358.963 29.32 356.483 29.32C354.403 29.32 352.723 28.8133 351.443 27.8C350.163 26.7867 349.523 25.2933 349.523 23.32C349.523 21.2667 350.243 19.68 351.683 18.56C353.123 17.4133 355.177 16.84 357.843 16.84H361.923C362.057 16.84 362.123 16.7733 362.123 16.64V15.76C362.123 14.88 361.857 14.2 361.323 13.72C360.79 13.2133 359.99 12.96 358.923 12.96C358.097 12.96 357.403 13.1067 356.843 13.4C356.31 13.6933 355.963 14.1067 355.803 14.64C355.723 14.9333 355.55 15.0667 355.283 15.04L350.443 14.4C350.123 14.3467 349.977 14.2267 350.003 14.04C350.11 12.92 350.55 11.9067 351.323 11C352.123 10.0933 353.163 9.38667 354.443 8.88C355.75 8.37333 357.203 8.12 358.803 8.12ZM358.003 25.12C359.15 25.12 360.123 24.8133 360.923 24.2C361.723 23.5867 362.123 22.8 362.123 21.84V20.4C362.123 20.2667 362.057 20.2 361.923 20.2H359.043C357.843 20.2 356.897 20.4267 356.203 20.88C355.537 21.3333 355.203 21.9733 355.203 22.8C355.203 23.52 355.457 24.0933 355.963 24.52C356.47 24.92 357.15 25.12 358.003 25.12ZM372.216 29C372.083 29 371.963 28.96 371.856 28.88C371.776 28.7733 371.736 28.6533 371.736 28.52V1.48C371.736 1.34667 371.776 1.24 371.856 1.16C371.963 1.05333 372.083 0.999998 372.216 0.999998H376.896C377.03 0.999998 377.136 1.05333 377.216 1.16C377.323 1.24 377.376 1.34667 377.376 1.48V28.52C377.376 28.6533 377.323 28.7733 377.216 28.88C377.136 28.96 377.03 29 376.896 29H372.216Z" fill="#5998C5"/>
</svg>
