<svg width="281" height="44" viewBox="0 0 281 44" fill="none" xmlns="http://www.w3.org/2000/svg">
<path d="M0.752 18C0.672 18 0.6 17.976 0.536 17.928C0.488 17.864 0.464 17.792 0.464 17.712V1.488C0.464 1.408 0.488 1.344 0.536 1.296C0.6 1.232 0.672 1.2 0.752 1.2H3.56C3.64 1.2 3.704 1.232 3.752 1.296C3.816 1.344 3.848 1.408 3.848 1.488V14.976C3.848 15.056 3.888 15.096 3.968 15.096H11.816C11.896 15.096 11.96 15.128 12.008 15.192C12.072 15.24 12.104 15.304 12.104 15.384V17.712C12.104 17.792 12.072 17.864 12.008 17.928C11.96 17.976 11.896 18 11.816 18H0.752ZM19.4304 18.192C18.0864 18.192 16.9344 17.84 15.9744 17.136C15.0144 16.432 14.3584 15.472 14.0064 14.256C13.7824 13.504 13.6704 12.688 13.6704 11.808C13.6704 10.864 13.7824 10.016 14.0064 9.264C14.3744 8.08 15.0384 7.152 15.9984 6.48C16.9584 5.808 18.1104 5.472 19.4544 5.472C20.7664 5.472 21.8864 5.808 22.8144 6.48C23.7424 7.136 24.3984 8.056 24.7824 9.24C25.0384 10.04 25.1664 10.88 25.1664 11.76C25.1664 12.624 25.0544 13.432 24.8304 14.184C24.4784 15.432 23.8224 16.416 22.8624 17.136C21.9184 17.84 20.7744 18.192 19.4304 18.192ZM19.4304 15.288C19.9584 15.288 20.4064 15.128 20.7744 14.808C21.1424 14.488 21.4064 14.048 21.5664 13.488C21.6944 12.976 21.7584 12.416 21.7584 11.808C21.7584 11.136 21.6944 10.568 21.5664 10.104C21.3904 9.56 21.1184 9.136 20.7504 8.832C20.3824 8.528 19.9344 8.376 19.4064 8.376C18.8624 8.376 18.4064 8.528 18.0384 8.832C17.6864 9.136 17.4304 9.56 17.2704 10.104C17.1424 10.488 17.0784 11.056 17.0784 11.808C17.0784 12.528 17.1344 13.088 17.2464 13.488C17.4064 14.048 17.6704 14.488 18.0384 14.808C18.4224 15.128 18.8864 15.288 19.4304 15.288ZM32.2617 18.168C31.1898 18.168 30.2538 18.016 29.4538 17.712C28.6538 17.408 28.0298 16.984 27.5818 16.44C27.1498 15.896 26.9338 15.28 26.9338 14.592V14.352C26.9338 14.272 26.9578 14.208 27.0058 14.16C27.0698 14.096 27.1418 14.064 27.2218 14.064H29.8858C29.9658 14.064 30.0298 14.096 30.0778 14.16C30.1418 14.208 30.1738 14.272 30.1738 14.352V14.376C30.1738 14.728 30.3658 15.032 30.7498 15.288C31.1498 15.528 31.6458 15.648 32.2378 15.648C32.7818 15.648 33.2218 15.544 33.5578 15.336C33.8938 15.112 34.0618 14.84 34.0618 14.52C34.0618 14.232 33.9178 14.016 33.6298 13.872C33.3418 13.728 32.8698 13.576 32.2138 13.416C31.4618 13.224 30.8698 13.04 30.4378 12.864C29.4138 12.512 28.5978 12.08 27.9898 11.568C27.3818 11.056 27.0778 10.32 27.0778 9.36C27.0778 8.176 27.5338 7.24 28.4458 6.552C29.3738 5.848 30.5978 5.496 32.1178 5.496C33.1418 5.496 34.0378 5.664 34.8058 6C35.5738 6.32 36.1658 6.776 36.5818 7.368C37.0138 7.96 37.2298 8.632 37.2298 9.384C37.2298 9.464 37.1978 9.536 37.1338 9.6C37.0858 9.648 37.0218 9.672 36.9418 9.672H34.3738C34.2938 9.672 34.2218 9.648 34.1578 9.6C34.1098 9.536 34.0858 9.464 34.0858 9.384C34.0858 9.032 33.9018 8.736 33.5338 8.496C33.1818 8.256 32.7098 8.136 32.1178 8.136C31.5898 8.136 31.1578 8.232 30.8218 8.424C30.4858 8.616 30.3178 8.88 30.3178 9.216C30.3178 9.536 30.4778 9.776 30.7978 9.936C31.1338 10.096 31.6858 10.264 32.4538 10.44C32.6298 10.488 32.8298 10.544 33.0538 10.608C33.2778 10.656 33.5178 10.72 33.7738 10.8C34.9098 11.136 35.8058 11.568 36.4618 12.096C37.1178 12.624 37.4458 13.392 37.4458 14.4C37.4458 15.584 36.9738 16.512 36.0298 17.184C35.1018 17.84 33.8458 18.168 32.2617 18.168ZM50.3133 18.192C49.0653 18.192 47.9693 17.952 47.0253 17.472C46.0813 16.976 45.3533 16.288 44.8413 15.408C44.3293 14.528 44.0733 13.512 44.0733 12.36V6.816C44.0733 5.664 44.3293 4.648 44.8413 3.768C45.3533 2.888 46.0813 2.208 47.0253 1.728C47.9693 1.248 49.0653 1.008 50.3133 1.008C51.5453 1.008 52.6253 1.24 53.5533 1.704C54.4973 2.152 55.2253 2.8 55.7373 3.648C56.2653 4.48 56.5293 5.448 56.5293 6.552C56.5293 6.696 56.4333 6.784 56.2413 6.816L53.4333 6.984H53.3853C53.2253 6.984 53.1453 6.896 53.1453 6.72C53.1453 5.872 52.8813 5.192 52.3533 4.68C51.8413 4.168 51.1613 3.912 50.3133 3.912C49.4493 3.912 48.7533 4.168 48.2253 4.68C47.7133 5.192 47.4573 5.872 47.4573 6.72V12.504C47.4573 13.336 47.7133 14.008 48.2253 14.52C48.7533 15.032 49.4493 15.288 50.3133 15.288C51.1613 15.288 51.8413 15.032 52.3533 14.52C52.8813 14.008 53.1453 13.336 53.1453 12.504C53.1453 12.328 53.2413 12.24 53.4333 12.24L56.2413 12.36C56.3213 12.36 56.3853 12.384 56.4333 12.432C56.4973 12.48 56.5293 12.536 56.5293 12.6C56.5293 13.704 56.2653 14.68 55.7373 15.528C55.2253 16.376 54.4973 17.032 53.5533 17.496C52.6253 17.96 51.5453 18.192 50.3133 18.192ZM63.6446 5.472C64.6846 5.472 65.6126 5.656 66.4286 6.024C67.2446 6.376 67.8766 6.864 68.3246 7.488C68.7886 8.112 69.0206 8.808 69.0206 9.576V17.712C69.0206 17.792 68.9886 17.864 68.9246 17.928C68.8766 17.976 68.8126 18 68.7326 18H65.9246C65.8446 18 65.7726 17.976 65.7086 17.928C65.6606 17.864 65.6366 17.792 65.6366 17.712V16.92C65.6366 16.872 65.6206 16.84 65.5886 16.824C65.5566 16.808 65.5246 16.824 65.4926 16.872C64.8206 17.752 63.7406 18.192 62.2526 18.192C61.0046 18.192 59.9966 17.888 59.2286 17.28C58.4606 16.672 58.0766 15.776 58.0766 14.592C58.0766 13.36 58.5086 12.408 59.3726 11.736C60.2366 11.048 61.4686 10.704 63.0686 10.704H65.5166C65.5966 10.704 65.6366 10.664 65.6366 10.584V10.056C65.6366 9.528 65.4766 9.12 65.1566 8.832C64.8366 8.528 64.3566 8.376 63.7166 8.376C63.2206 8.376 62.8046 8.464 62.4686 8.64C62.1486 8.816 61.9406 9.064 61.8446 9.384C61.7966 9.56 61.6926 9.64 61.5326 9.624L58.6286 9.24C58.4366 9.208 58.3486 9.136 58.3646 9.024C58.4286 8.352 58.6926 7.744 59.1566 7.2C59.6366 6.656 60.2606 6.232 61.0286 5.928C61.8126 5.624 62.6846 5.472 63.6446 5.472ZM63.1646 15.672C63.8526 15.672 64.4366 15.488 64.9166 15.12C65.3966 14.752 65.6366 14.28 65.6366 13.704V12.84C65.6366 12.76 65.5966 12.72 65.5166 12.72H63.7886C63.0686 12.72 62.5006 12.856 62.0846 13.128C61.6846 13.4 61.4846 13.784 61.4846 14.28C61.4846 14.712 61.6366 15.056 61.9406 15.312C62.2446 15.552 62.6526 15.672 63.1646 15.672ZM77.8363 5.472C79.1163 5.472 80.1483 5.864 80.9323 6.648C81.7163 7.432 82.1083 8.496 82.1083 9.84V17.712C82.1083 17.792 82.0763 17.864 82.0123 17.928C81.9643 17.976 81.9003 18 81.8203 18H79.0123C78.9323 18 78.8603 17.976 78.7963 17.928C78.7483 17.864 78.7243 17.792 78.7243 17.712V10.536C78.7243 9.896 78.5403 9.376 78.1723 8.976C77.8203 8.576 77.3483 8.376 76.7563 8.376C76.1643 8.376 75.6843 8.576 75.3163 8.976C74.9643 9.376 74.7883 9.896 74.7883 10.536V17.712C74.7883 17.792 74.7563 17.864 74.6923 17.928C74.6443 17.976 74.5803 18 74.5003 18H71.6923C71.6123 18 71.5403 17.976 71.4763 17.928C71.4283 17.864 71.4043 17.792 71.4043 17.712V5.952C71.4043 5.872 71.4283 5.808 71.4763 5.76C71.5403 5.696 71.6123 5.664 71.6923 5.664H74.5003C74.5803 5.664 74.6443 5.696 74.6923 5.76C74.7563 5.808 74.7883 5.872 74.7883 5.952V6.792C74.7883 6.84 74.8043 6.872 74.8363 6.888C74.8683 6.904 74.8923 6.896 74.9083 6.864C75.5643 5.936 76.5403 5.472 77.8363 5.472ZM89.4492 5.472C90.4893 5.472 91.4173 5.656 92.2333 6.024C93.0493 6.376 93.6813 6.864 94.1293 7.488C94.5933 8.112 94.8253 8.808 94.8253 9.576V17.712C94.8253 17.792 94.7933 17.864 94.7293 17.928C94.6813 17.976 94.6173 18 94.5373 18H91.7293C91.6493 18 91.5773 17.976 91.5133 17.928C91.4653 17.864 91.4413 17.792 91.4413 17.712V16.92C91.4413 16.872 91.4253 16.84 91.3933 16.824C91.3613 16.808 91.3293 16.824 91.2973 16.872C90.6253 17.752 89.5453 18.192 88.0573 18.192C86.8093 18.192 85.8013 17.888 85.0333 17.28C84.2653 16.672 83.8813 15.776 83.8813 14.592C83.8813 13.36 84.3133 12.408 85.1773 11.736C86.0413 11.048 87.2733 10.704 88.8733 10.704H91.3213C91.4013 10.704 91.4413 10.664 91.4413 10.584V10.056C91.4413 9.528 91.2813 9.12 90.9613 8.832C90.6413 8.528 90.1613 8.376 89.5213 8.376C89.0253 8.376 88.6093 8.464 88.2733 8.64C87.9533 8.816 87.7453 9.064 87.6493 9.384C87.6013 9.56 87.4973 9.64 87.3373 9.624L84.4333 9.24C84.2413 9.208 84.1533 9.136 84.1693 9.024C84.2333 8.352 84.4973 7.744 84.9613 7.2C85.4413 6.656 86.0653 6.232 86.8333 5.928C87.6173 5.624 88.4893 5.472 89.4492 5.472ZM88.9693 15.672C89.6573 15.672 90.2413 15.488 90.7213 15.12C91.2013 14.752 91.4413 14.28 91.4413 13.704V12.84C91.4413 12.76 91.4013 12.72 91.3213 12.72H89.5933C88.8733 12.72 88.3053 12.856 87.8893 13.128C87.4893 13.4 87.2893 13.784 87.2893 14.28C87.2893 14.712 87.4413 15.056 87.7453 15.312C88.0493 15.552 88.4573 15.672 88.9693 15.672ZM97.4969 18C97.4169 18 97.3449 17.976 97.2809 17.928C97.2329 17.864 97.2089 17.792 97.2089 17.712V1.488C97.2089 1.408 97.2329 1.344 97.2809 1.296C97.3449 1.232 97.4169 1.2 97.4969 1.2H100.305C100.385 1.2 100.449 1.232 100.497 1.296C100.561 1.344 100.593 1.408 100.593 1.488V17.712C100.593 17.792 100.561 17.864 100.497 17.928C100.449 17.976 100.385 18 100.305 18H97.4969ZM113.988 10.56C114.084 11.168 114.116 11.848 114.084 12.6C114.068 12.792 113.964 12.888 113.772 12.888H106.356C106.26 12.888 106.228 12.928 106.26 13.008C106.308 13.328 106.396 13.648 106.524 13.968C106.94 14.864 107.788 15.312 109.068 15.312C110.092 15.296 110.9 14.88 111.492 14.064C111.556 13.968 111.628 13.92 111.708 13.92C111.756 13.92 111.812 13.952 111.876 14.016L113.604 15.72C113.684 15.8 113.724 15.872 113.724 15.936C113.724 15.968 113.692 16.032 113.628 16.128C113.1 16.784 112.42 17.296 111.588 17.664C110.756 18.016 109.844 18.192 108.852 18.192C107.476 18.192 106.308 17.88 105.348 17.256C104.404 16.632 103.724 15.76 103.308 14.64C102.972 13.84 102.804 12.792 102.804 11.496C102.804 10.616 102.924 9.84 103.164 9.168C103.532 8.032 104.172 7.128 105.084 6.456C106.012 5.784 107.108 5.448 108.372 5.448C109.972 5.448 111.252 5.912 112.212 6.84C113.188 7.768 113.78 9.008 113.988 10.56ZM108.396 8.376C107.388 8.376 106.724 8.848 106.404 9.792C106.34 10 106.284 10.256 106.236 10.56C106.236 10.64 106.276 10.68 106.356 10.68H110.508C110.604 10.68 110.636 10.64 110.604 10.56C110.524 10.096 110.484 9.872 110.484 9.888C110.34 9.408 110.084 9.04 109.716 8.784C109.364 8.512 108.924 8.376 108.396 8.376ZM120.926 18.168C119.854 18.168 118.918 18.016 118.118 17.712C117.318 17.408 116.694 16.984 116.246 16.44C115.814 15.896 115.598 15.28 115.598 14.592V14.352C115.598 14.272 115.622 14.208 115.67 14.16C115.734 14.096 115.806 14.064 115.886 14.064H118.55C118.63 14.064 118.694 14.096 118.742 14.16C118.806 14.208 118.838 14.272 118.838 14.352V14.376C118.838 14.728 119.03 15.032 119.414 15.288C119.814 15.528 120.31 15.648 120.902 15.648C121.446 15.648 121.886 15.544 122.222 15.336C122.558 15.112 122.726 14.84 122.726 14.52C122.726 14.232 122.582 14.016 122.294 13.872C122.006 13.728 121.534 13.576 120.878 13.416C120.126 13.224 119.534 13.04 119.102 12.864C118.078 12.512 117.262 12.08 116.654 11.568C116.046 11.056 115.742 10.32 115.742 9.36C115.742 8.176 116.198 7.24 117.11 6.552C118.038 5.848 119.262 5.496 120.782 5.496C121.806 5.496 122.702 5.664 123.47 6C124.238 6.32 124.83 6.776 125.246 7.368C125.678 7.96 125.894 8.632 125.894 9.384C125.894 9.464 125.862 9.536 125.798 9.6C125.75 9.648 125.686 9.672 125.606 9.672H123.038C122.958 9.672 122.886 9.648 122.822 9.6C122.774 9.536 122.75 9.464 122.75 9.384C122.75 9.032 122.566 8.736 122.198 8.496C121.846 8.256 121.374 8.136 120.782 8.136C120.254 8.136 119.822 8.232 119.486 8.424C119.15 8.616 118.982 8.88 118.982 9.216C118.982 9.536 119.142 9.776 119.462 9.936C119.798 10.096 120.35 10.264 121.118 10.44C121.294 10.488 121.494 10.544 121.718 10.608C121.942 10.656 122.182 10.72 122.438 10.8C123.574 11.136 124.47 11.568 125.126 12.096C125.782 12.624 126.11 13.392 126.11 14.4C126.11 15.584 125.638 16.512 124.694 17.184C123.766 17.84 122.51 18.168 120.926 18.168ZM140.513 1.488C140.513 1.408 140.537 1.344 140.585 1.296C140.649 1.232 140.721 1.2 140.801 1.2H143.609C143.689 1.2 143.753 1.232 143.801 1.296C143.865 1.344 143.897 1.408 143.897 1.488V17.712C143.897 17.792 143.865 17.864 143.801 17.928C143.753 17.976 143.689 18 143.609 18H140.801C140.721 18 140.649 17.976 140.585 17.928C140.537 17.864 140.513 17.792 140.513 17.712V16.92C140.513 16.872 140.497 16.848 140.465 16.848C140.433 16.832 140.401 16.84 140.369 16.872C139.697 17.752 138.777 18.192 137.609 18.192C136.489 18.192 135.521 17.88 134.705 17.256C133.905 16.632 133.329 15.776 132.977 14.688C132.705 13.856 132.569 12.888 132.569 11.784C132.569 10.648 132.713 9.656 133.001 8.808C133.369 7.784 133.945 6.976 134.729 6.384C135.529 5.776 136.513 5.472 137.681 5.472C138.833 5.472 139.729 5.872 140.369 6.672C140.401 6.72 140.433 6.736 140.465 6.72C140.497 6.704 140.513 6.672 140.513 6.624V1.488ZM140.009 14.256C140.329 13.664 140.489 12.856 140.489 11.832C140.489 10.76 140.313 9.92 139.961 9.312C139.593 8.688 139.057 8.376 138.353 8.376C137.601 8.376 137.033 8.688 136.649 9.312C136.249 9.936 136.049 10.784 136.049 11.856C136.049 12.816 136.217 13.616 136.553 14.256C136.953 14.944 137.545 15.288 138.329 15.288C139.049 15.288 139.609 14.944 140.009 14.256ZM157.371 10.56C157.467 11.168 157.499 11.848 157.467 12.6C157.451 12.792 157.347 12.888 157.155 12.888H149.739C149.643 12.888 149.611 12.928 149.643 13.008C149.691 13.328 149.779 13.648 149.907 13.968C150.323 14.864 151.171 15.312 152.451 15.312C153.475 15.296 154.283 14.88 154.875 14.064C154.939 13.968 155.011 13.92 155.091 13.92C155.139 13.92 155.195 13.952 155.259 14.016L156.987 15.72C157.067 15.8 157.107 15.872 157.107 15.936C157.107 15.968 157.075 16.032 157.011 16.128C156.483 16.784 155.803 17.296 154.971 17.664C154.139 18.016 153.227 18.192 152.235 18.192C150.859 18.192 149.691 17.88 148.731 17.256C147.787 16.632 147.107 15.76 146.691 14.64C146.355 13.84 146.187 12.792 146.187 11.496C146.187 10.616 146.307 9.84 146.547 9.168C146.915 8.032 147.555 7.128 148.467 6.456C149.395 5.784 150.491 5.448 151.755 5.448C153.355 5.448 154.635 5.912 155.595 6.84C156.571 7.768 157.163 9.008 157.371 10.56ZM151.779 8.376C150.771 8.376 150.107 8.848 149.787 9.792C149.723 10 149.667 10.256 149.619 10.56C149.619 10.64 149.659 10.68 149.739 10.68H153.891C153.987 10.68 154.019 10.64 153.987 10.56C153.907 10.096 153.867 9.872 153.867 9.888C153.723 9.408 153.467 9.04 153.099 8.784C152.747 8.512 152.307 8.376 151.779 8.376ZM164.093 18C163.981 18 163.901 17.968 163.853 17.904C163.805 17.84 163.813 17.76 163.877 17.664L168.533 9.672C168.565 9.624 168.565 9.576 168.533 9.528L163.877 1.536L163.829 1.392C163.829 1.264 163.917 1.2 164.093 1.2H167.141C167.301 1.2 167.421 1.264 167.501 1.392L170.621 6.888C170.669 6.984 170.717 6.984 170.765 6.888L173.885 1.392C173.965 1.264 174.085 1.2 174.245 1.2H177.269C177.381 1.2 177.461 1.232 177.509 1.296C177.557 1.36 177.549 1.44 177.485 1.536L172.829 9.528C172.813 9.576 172.813 9.624 172.829 9.672L177.485 17.664L177.533 17.808C177.533 17.936 177.445 18 177.269 18H174.245C174.085 18 173.965 17.936 173.885 17.808L170.765 12.336C170.717 12.24 170.669 12.24 170.621 12.336L167.477 17.808C167.397 17.936 167.277 18 167.117 18H164.093ZM184.126 18.192C182.782 18.192 181.63 17.84 180.67 17.136C179.71 16.432 179.054 15.472 178.702 14.256C178.478 13.504 178.366 12.688 178.366 11.808C178.366 10.864 178.478 10.016 178.702 9.264C179.07 8.08 179.734 7.152 180.694 6.48C181.654 5.808 182.806 5.472 184.15 5.472C185.462 5.472 186.582 5.808 187.51 6.48C188.438 7.136 189.094 8.056 189.478 9.24C189.734 10.04 189.862 10.88 189.862 11.76C189.862 12.624 189.75 13.432 189.526 14.184C189.174 15.432 188.518 16.416 187.558 17.136C186.614 17.84 185.47 18.192 184.126 18.192ZM184.126 15.288C184.654 15.288 185.102 15.128 185.47 14.808C185.838 14.488 186.102 14.048 186.262 13.488C186.39 12.976 186.454 12.416 186.454 11.808C186.454 11.136 186.39 10.568 186.262 10.104C186.086 9.56 185.814 9.136 185.446 8.832C185.078 8.528 184.63 8.376 184.102 8.376C183.558 8.376 183.102 8.528 182.734 8.832C182.382 9.136 182.126 9.56 181.966 10.104C181.838 10.488 181.774 11.056 181.774 11.808C181.774 12.528 181.83 13.088 181.942 13.488C182.102 14.048 182.366 14.488 182.734 14.808C183.118 15.128 183.582 15.288 184.126 15.288ZM197.461 18.192C196.181 18.192 195.069 17.872 194.125 17.232C193.197 16.592 192.533 15.712 192.133 14.592C191.861 13.792 191.725 12.848 191.725 11.76C191.725 10.688 191.861 9.76 192.133 8.976C192.517 7.888 193.181 7.032 194.125 6.408C195.069 5.784 196.181 5.472 197.461 5.472C198.741 5.472 199.861 5.792 200.821 6.432C201.797 7.072 202.445 7.88 202.765 8.856C202.893 9.24 202.957 9.528 202.957 9.72V9.768C202.957 9.912 202.877 10 202.717 10.032L199.957 10.44H199.909C199.765 10.44 199.669 10.36 199.621 10.2L199.549 9.816C199.437 9.4 199.189 9.056 198.805 8.784C198.421 8.512 197.965 8.376 197.437 8.376C196.925 8.376 196.493 8.504 196.141 8.76C195.789 9.016 195.541 9.368 195.397 9.816C195.221 10.296 195.133 10.952 195.133 11.784C195.133 12.616 195.213 13.272 195.373 13.752C195.517 14.232 195.765 14.608 196.117 14.88C196.485 15.152 196.925 15.288 197.437 15.288C197.933 15.288 198.365 15.16 198.733 14.904C199.117 14.632 199.381 14.264 199.525 13.8C199.541 13.768 199.549 13.72 199.549 13.656C199.565 13.64 199.573 13.616 199.573 13.584C199.589 13.392 199.701 13.312 199.909 13.344L202.669 13.776C202.829 13.808 202.909 13.896 202.909 14.04C202.909 14.168 202.861 14.408 202.765 14.76C202.429 15.832 201.773 16.672 200.797 17.28C199.837 17.888 198.725 18.192 197.461 18.192ZM211.36 5.472C212.64 5.472 213.672 5.864 214.456 6.648C215.24 7.432 215.632 8.496 215.632 9.84V17.712C215.632 17.792 215.6 17.864 215.536 17.928C215.488 17.976 215.424 18 215.344 18H212.536C212.456 18 212.384 17.976 212.32 17.928C212.272 17.864 212.248 17.792 212.248 17.712V10.536C212.248 9.896 212.064 9.376 211.696 8.976C211.344 8.576 210.872 8.376 210.28 8.376C209.688 8.376 209.208 8.576 208.84 8.976C208.488 9.376 208.312 9.896 208.312 10.536V17.712C208.312 17.792 208.28 17.864 208.216 17.928C208.168 17.976 208.104 18 208.024 18H205.216C205.136 18 205.064 17.976 205 17.928C204.952 17.864 204.928 17.792 204.928 17.712V1.488C204.928 1.408 204.952 1.344 205 1.296C205.064 1.232 205.136 1.2 205.216 1.2H208.024C208.104 1.2 208.168 1.232 208.216 1.296C208.28 1.344 208.312 1.408 208.312 1.488V6.792C208.312 6.84 208.328 6.872 208.36 6.888C208.392 6.904 208.416 6.896 208.432 6.864C209.088 5.936 210.064 5.472 211.36 5.472ZM219.877 4.272C219.333 4.272 218.877 4.096 218.509 3.744C218.157 3.376 217.981 2.92 217.981 2.376C217.981 1.816 218.157 1.36 218.509 1.008C218.861 0.656 219.317 0.48 219.877 0.48C220.437 0.48 220.893 0.656 221.245 1.008C221.597 1.36 221.773 1.816 221.773 2.376C221.773 2.92 221.589 3.376 221.221 3.744C220.869 4.096 220.421 4.272 219.877 4.272ZM218.437 18C218.357 18 218.285 17.976 218.221 17.928C218.173 17.864 218.149 17.792 218.149 17.712V5.928C218.149 5.848 218.173 5.784 218.221 5.736C218.285 5.672 218.357 5.64 218.437 5.64H221.245C221.325 5.64 221.389 5.672 221.437 5.736C221.501 5.784 221.533 5.848 221.533 5.928V17.712C221.533 17.792 221.501 17.864 221.437 17.928C221.389 17.976 221.325 18 221.245 18H218.437ZM237.85 5.472C239.098 5.472 240.074 5.848 240.778 6.6C241.482 7.352 241.834 8.408 241.834 9.768V17.712C241.834 17.792 241.802 17.864 241.738 17.928C241.69 17.976 241.626 18 241.546 18H238.738C238.658 18 238.586 17.976 238.522 17.928C238.474 17.864 238.45 17.792 238.45 17.712V10.512C238.45 9.856 238.282 9.336 237.946 8.952C237.61 8.568 237.162 8.376 236.602 8.376C236.042 8.376 235.586 8.568 235.234 8.952C234.882 9.336 234.706 9.848 234.706 10.488V17.712C234.706 17.792 234.674 17.864 234.61 17.928C234.562 17.976 234.498 18 234.418 18H231.634C231.554 18 231.482 17.976 231.418 17.928C231.37 17.864 231.346 17.792 231.346 17.712V10.512C231.346 9.872 231.17 9.36 230.818 8.976C230.466 8.576 230.01 8.376 229.45 8.376C228.938 8.376 228.506 8.528 228.154 8.832C227.818 9.136 227.618 9.56 227.554 10.104V17.712C227.554 17.792 227.522 17.864 227.458 17.928C227.41 17.976 227.346 18 227.266 18H224.458C224.378 18 224.306 17.976 224.242 17.928C224.194 17.864 224.17 17.792 224.17 17.712V5.952C224.17 5.872 224.194 5.808 224.242 5.76C224.306 5.696 224.378 5.664 224.458 5.664H227.266C227.346 5.664 227.41 5.696 227.458 5.76C227.522 5.808 227.554 5.872 227.554 5.952V6.888C227.554 6.936 227.57 6.968 227.602 6.984C227.634 7 227.666 6.984 227.698 6.936C228.354 5.96 229.37 5.472 230.746 5.472C231.546 5.472 232.242 5.64 232.834 5.976C233.442 6.312 233.906 6.792 234.226 7.416C234.274 7.512 234.33 7.512 234.394 7.416C234.746 6.76 235.218 6.272 235.81 5.952C236.418 5.632 237.098 5.472 237.85 5.472ZM246.033 4.272C245.489 4.272 245.033 4.096 244.665 3.744C244.313 3.376 244.137 2.92 244.137 2.376C244.137 1.816 244.313 1.36 244.665 1.008C245.017 0.656 245.473 0.48 246.033 0.48C246.593 0.48 247.049 0.656 247.401 1.008C247.753 1.36 247.929 1.816 247.929 2.376C247.929 2.92 247.745 3.376 247.377 3.744C247.025 4.096 246.577 4.272 246.033 4.272ZM244.593 18C244.513 18 244.441 17.976 244.377 17.928C244.329 17.864 244.305 17.792 244.305 17.712V5.928C244.305 5.848 244.329 5.784 244.377 5.736C244.441 5.672 244.513 5.64 244.593 5.64H247.401C247.481 5.64 247.545 5.672 247.593 5.736C247.657 5.784 247.689 5.848 247.689 5.928V17.712C247.689 17.792 247.657 17.864 247.593 17.928C247.545 17.976 247.481 18 247.401 18H244.593ZM250.614 18C250.534 18 250.462 17.976 250.398 17.928C250.35 17.864 250.326 17.792 250.326 17.712V1.488C250.326 1.408 250.35 1.344 250.398 1.296C250.462 1.232 250.534 1.2 250.614 1.2H253.422C253.502 1.2 253.566 1.232 253.614 1.296C253.678 1.344 253.71 1.408 253.71 1.488V17.712C253.71 17.792 253.678 17.864 253.614 17.928C253.566 17.976 253.502 18 253.422 18H250.614ZM261.61 18.192C260.33 18.192 259.218 17.872 258.274 17.232C257.346 16.592 256.682 15.712 256.282 14.592C256.01 13.792 255.874 12.848 255.874 11.76C255.874 10.688 256.01 9.76 256.282 8.976C256.666 7.888 257.33 7.032 258.274 6.408C259.218 5.784 260.33 5.472 261.61 5.472C262.89 5.472 264.01 5.792 264.97 6.432C265.946 7.072 266.594 7.88 266.914 8.856C267.042 9.24 267.106 9.528 267.106 9.72V9.768C267.106 9.912 267.026 10 266.866 10.032L264.106 10.44H264.058C263.914 10.44 263.818 10.36 263.77 10.2L263.698 9.816C263.586 9.4 263.338 9.056 262.954 8.784C262.57 8.512 262.114 8.376 261.586 8.376C261.074 8.376 260.642 8.504 260.29 8.76C259.938 9.016 259.69 9.368 259.546 9.816C259.37 10.296 259.282 10.952 259.282 11.784C259.282 12.616 259.362 13.272 259.522 13.752C259.666 14.232 259.914 14.608 260.266 14.88C260.634 15.152 261.074 15.288 261.586 15.288C262.082 15.288 262.514 15.16 262.882 14.904C263.266 14.632 263.53 14.264 263.674 13.8C263.69 13.768 263.698 13.72 263.698 13.656C263.714 13.64 263.722 13.616 263.722 13.584C263.738 13.392 263.85 13.312 264.058 13.344L266.818 13.776C266.978 13.808 267.057 13.896 267.057 14.04C267.057 14.168 267.01 14.408 266.914 14.76C266.578 15.832 265.922 16.672 264.946 17.28C263.986 17.888 262.874 18.192 261.61 18.192ZM274.384 18.192C273.04 18.192 271.888 17.84 270.928 17.136C269.968 16.432 269.312 15.472 268.96 14.256C268.736 13.504 268.624 12.688 268.624 11.808C268.624 10.864 268.736 10.016 268.96 9.264C269.328 8.08 269.992 7.152 270.952 6.48C271.912 5.808 273.064 5.472 274.408 5.472C275.72 5.472 276.84 5.808 277.768 6.48C278.696 7.136 279.352 8.056 279.736 9.24C279.992 10.04 280.12 10.88 280.12 11.76C280.12 12.624 280.008 13.432 279.784 14.184C279.432 15.432 278.776 16.416 277.816 17.136C276.872 17.84 275.728 18.192 274.384 18.192ZM274.384 15.288C274.912 15.288 275.36 15.128 275.728 14.808C276.096 14.488 276.36 14.048 276.52 13.488C276.648 12.976 276.712 12.416 276.712 11.808C276.712 11.136 276.648 10.568 276.52 10.104C276.344 9.56 276.072 9.136 275.704 8.832C275.336 8.528 274.888 8.376 274.36 8.376C273.816 8.376 273.36 8.528 272.992 8.832C272.64 9.136 272.384 9.56 272.224 10.104C272.096 10.488 272.032 11.056 272.032 11.808C272.032 12.528 272.088 13.088 272.2 13.488C272.36 14.048 272.624 14.488 272.992 14.808C273.376 15.128 273.84 15.288 274.384 15.288ZM5.576 43.192C4.36 43.192 3.32 42.888 2.456 42.28C1.592 41.656 1 40.816 0.68 39.76C0.44 39.024 0.32 38.056 0.32 36.856C0.32 35.752 0.44 34.784 0.68 33.952C1 32.928 1.592 32.112 2.456 31.504C3.336 30.896 4.376 30.592 5.576 30.592C6.776 30.592 7.824 30.896 8.72 31.504C9.616 32.112 10.2 32.88 10.472 33.808C10.568 34.064 10.632 34.328 10.664 34.6C10.664 34.728 10.592 34.808 10.448 34.84L8.648 35.104H8.6C8.488 35.104 8.408 35.032 8.36 34.888L8.288 34.504C8.16 33.96 7.848 33.504 7.352 33.136C6.856 32.768 6.256 32.584 5.552 32.584C4.864 32.584 4.28 32.768 3.8 33.136C3.32 33.504 3.008 33.992 2.864 34.6C2.72 35.176 2.648 35.936 2.648 36.88C2.648 37.808 2.72 38.56 2.864 39.136C3.024 39.776 3.336 40.28 3.8 40.648C4.28 41.016 4.864 41.2 5.552 41.2C6.256 41.2 6.856 41.016 7.352 40.648C7.864 40.28 8.184 39.8 8.312 39.208C8.328 39.192 8.328 39.176 8.312 39.16C8.312 39.128 8.32 39.104 8.336 39.088V38.992C8.384 38.864 8.472 38.816 8.6 38.848L10.4 39.136C10.528 39.168 10.592 39.232 10.592 39.328V39.424C10.592 39.568 10.552 39.744 10.472 39.952C10.2 40.928 9.616 41.712 8.72 42.304C7.824 42.896 6.776 43.192 5.576 43.192ZM18.2111 43.192C17.0271 43.192 15.9951 42.896 15.1151 42.304C14.2351 41.696 13.6191 40.856 13.2671 39.784C12.9791 38.92 12.8351 37.944 12.8351 36.856C12.8351 35.72 12.9711 34.76 13.2431 33.976C13.5951 32.92 14.2111 32.096 15.0911 31.504C15.9711 30.896 17.0191 30.592 18.2351 30.592C19.3871 30.592 20.3871 30.896 21.2351 31.504C22.0991 32.096 22.7151 32.912 23.0831 33.952C23.3711 34.768 23.5151 35.728 23.5151 36.832C23.5151 37.952 23.3711 38.936 23.0831 39.784C22.7311 40.856 22.1231 41.696 21.2591 42.304C20.3951 42.896 19.3791 43.192 18.2111 43.192ZM18.2111 41.2C18.8511 41.2 19.4111 41.024 19.8911 40.672C20.3711 40.304 20.7151 39.792 20.9231 39.136C21.0991 38.528 21.1871 37.776 21.1871 36.88C21.1871 35.984 21.1071 35.24 20.9471 34.648C20.7391 33.992 20.3951 33.488 19.9151 33.136C19.4351 32.768 18.8511 32.584 18.1631 32.584C17.5071 32.584 16.9391 32.768 16.4591 33.136C15.9791 33.488 15.6351 33.992 15.4271 34.648C15.2511 35.208 15.1631 35.952 15.1631 36.88C15.1631 37.808 15.2511 38.56 15.4271 39.136C15.6191 39.792 15.9551 40.304 16.4351 40.672C16.9311 41.024 17.5231 41.2 18.2111 41.2ZM39.2276 30.616C40.4436 30.616 41.4036 30.984 42.1076 31.72C42.8116 32.44 43.1636 33.448 43.1636 34.744V42.76C43.1636 42.92 43.0836 43 42.9236 43H41.1236C40.9636 43 40.8836 42.92 40.8836 42.76V35.224C40.8836 34.424 40.6596 33.792 40.2116 33.328C39.7796 32.848 39.1956 32.608 38.4596 32.608C37.7236 32.608 37.1236 32.84 36.6596 33.304C36.1956 33.768 35.9636 34.392 35.9636 35.176V42.76C35.9636 42.92 35.8836 43 35.7236 43H33.9236C33.7636 43 33.6836 42.92 33.6836 42.76V35.224C33.6836 34.424 33.4596 33.792 33.0116 33.328C32.5796 32.848 31.9956 32.608 31.2596 32.608C30.5236 32.608 29.9316 32.84 29.4836 33.304C29.0516 33.768 28.8356 34.392 28.8356 35.176V42.76C28.8356 42.92 28.7556 43 28.5956 43H26.7716C26.6116 43 26.5316 42.92 26.5316 42.76V31.024C26.5316 30.864 26.6116 30.784 26.7716 30.784H28.5956C28.7556 30.784 28.8356 30.864 28.8356 31.024V31.84C28.8356 31.872 28.8436 31.896 28.8596 31.912C28.8916 31.928 28.9236 31.92 28.9556 31.888C29.6596 31.04 30.6836 30.616 32.0276 30.616C32.8436 30.616 33.5396 30.776 34.1156 31.096C34.6916 31.4 35.1396 31.856 35.4596 32.464C35.5076 32.528 35.5556 32.528 35.6036 32.464C35.9876 31.84 36.4916 31.376 37.1156 31.072C37.7556 30.768 38.4596 30.616 39.2276 30.616ZM51.2111 43.192C50.0271 43.192 48.9951 42.896 48.1151 42.304C47.2351 41.696 46.6191 40.856 46.2671 39.784C45.9791 38.92 45.8351 37.944 45.8351 36.856C45.8351 35.72 45.9711 34.76 46.2431 33.976C46.5951 32.92 47.2111 32.096 48.0911 31.504C48.9711 30.896 50.0191 30.592 51.2351 30.592C52.3871 30.592 53.3871 30.896 54.2351 31.504C55.0991 32.096 55.7151 32.912 56.0831 33.952C56.3711 34.768 56.5151 35.728 56.5151 36.832C56.5151 37.952 56.3711 38.936 56.0831 39.784C55.7311 40.856 55.1231 41.696 54.2591 42.304C53.3951 42.896 52.3791 43.192 51.2111 43.192ZM51.2111 41.2C51.8511 41.2 52.4111 41.024 52.8911 40.672C53.3711 40.304 53.7151 39.792 53.9231 39.136C54.0991 38.528 54.1871 37.776 54.1871 36.88C54.1871 35.984 54.1071 35.24 53.9471 34.648C53.7391 33.992 53.3951 33.488 52.9151 33.136C52.4351 32.768 51.8511 32.584 51.1631 32.584C50.5071 32.584 49.9391 32.768 49.4591 33.136C48.9791 33.488 48.6351 33.992 48.4271 34.648C48.2511 35.208 48.1631 35.952 48.1631 36.88C48.1631 37.808 48.2511 38.56 48.4271 39.136C48.6191 39.792 48.9551 40.304 49.4351 40.672C49.9311 41.024 50.5231 41.2 51.2111 41.2ZM69.7843 30.616C71.0963 30.616 72.1363 31 72.9043 31.768C73.6723 32.52 74.0563 33.544 74.0563 34.84V42.76C74.0563 42.92 73.9763 43 73.8163 43H71.9923C71.8323 43 71.7523 42.92 71.7523 42.76V35.296C71.7523 34.496 71.5203 33.848 71.0563 33.352C70.5923 32.856 69.9763 32.608 69.2083 32.608C68.4563 32.608 67.8403 32.856 67.3603 33.352C66.8803 33.848 66.6403 34.488 66.6403 35.272V42.76C66.6403 42.92 66.5603 43 66.4003 43H64.5763C64.4163 43 64.3363 42.92 64.3363 42.76V31.024C64.3363 30.864 64.4163 30.784 64.5763 30.784H66.4003C66.5603 30.784 66.6403 30.864 66.6403 31.024V31.888C66.6403 31.92 66.6483 31.944 66.6643 31.96C66.6963 31.976 66.7203 31.968 66.7363 31.936C67.4243 31.056 68.4403 30.616 69.7843 30.616ZM84.6161 31.024C84.6161 30.864 84.6961 30.784 84.8561 30.784H86.6561C86.8161 30.784 86.8961 30.864 86.8961 31.024V42.76C86.8961 42.92 86.8161 43 86.6561 43H84.8561C84.6961 43 84.6161 42.92 84.6161 42.76V41.872C84.6161 41.84 84.6001 41.824 84.5681 41.824C84.5521 41.808 84.5281 41.816 84.4961 41.848C83.8561 42.728 82.8721 43.168 81.5441 43.168C80.7601 43.168 80.0321 43.016 79.3601 42.712C78.7041 42.408 78.1761 41.96 77.7761 41.368C77.3761 40.776 77.1761 40.056 77.1761 39.208V31.024C77.1761 30.864 77.2561 30.784 77.4161 30.784H79.2161C79.3761 30.784 79.4561 30.864 79.4561 31.024V38.488C79.4561 39.32 79.6721 39.976 80.1041 40.456C80.5521 40.936 81.1761 41.176 81.9761 41.176C82.7761 41.176 83.4161 40.936 83.8961 40.456C84.3761 39.96 84.6161 39.304 84.6161 38.488V31.024ZM95.7061 30.616C97.0181 30.616 98.0581 31 98.8261 31.768C99.5941 32.52 99.9781 33.544 99.9781 34.84V42.76C99.9781 42.92 99.8981 43 99.7381 43H97.9141C97.7541 43 97.6741 42.92 97.6741 42.76V35.296C97.6741 34.496 97.4421 33.848 96.9781 33.352C96.5141 32.856 95.8981 32.608 95.1301 32.608C94.3781 32.608 93.7621 32.856 93.2821 33.352C92.8021 33.848 92.5621 34.488 92.5621 35.272V42.76C92.5621 42.92 92.4821 43 92.3221 43H90.4981C90.3381 43 90.2581 42.92 90.2581 42.76V31.024C90.2581 30.864 90.3381 30.784 90.4981 30.784H92.3221C92.4821 30.784 92.5621 30.864 92.5621 31.024V31.888C92.5621 31.92 92.5701 31.944 92.5861 31.96C92.6181 31.976 92.6421 31.968 92.6581 31.936C93.3461 31.056 94.3621 30.616 95.7061 30.616ZM108.021 43.192C106.805 43.192 105.765 42.888 104.901 42.28C104.037 41.656 103.445 40.816 103.125 39.76C102.885 39.024 102.765 38.056 102.765 36.856C102.765 35.752 102.885 34.784 103.125 33.952C103.445 32.928 104.037 32.112 104.901 31.504C105.781 30.896 106.821 30.592 108.021 30.592C109.221 30.592 110.269 30.896 111.165 31.504C112.061 32.112 112.645 32.88 112.917 33.808C113.013 34.064 113.077 34.328 113.109 34.6C113.109 34.728 113.037 34.808 112.893 34.84L111.093 35.104H111.045C110.933 35.104 110.853 35.032 110.805 34.888L110.733 34.504C110.605 33.96 110.293 33.504 109.797 33.136C109.301 32.768 108.701 32.584 107.997 32.584C107.309 32.584 106.725 32.768 106.245 33.136C105.765 33.504 105.453 33.992 105.309 34.6C105.165 35.176 105.093 35.936 105.093 36.88C105.093 37.808 105.165 38.56 105.309 39.136C105.469 39.776 105.781 40.28 106.245 40.648C106.725 41.016 107.309 41.2 107.997 41.2C108.701 41.2 109.301 41.016 109.797 40.648C110.309 40.28 110.629 39.8 110.757 39.208C110.773 39.192 110.773 39.176 110.757 39.16C110.757 39.128 110.765 39.104 110.781 39.088V38.992C110.829 38.864 110.917 38.816 111.045 38.848L112.845 39.136C112.973 39.168 113.037 39.232 113.037 39.328V39.424C113.037 39.568 112.997 39.744 112.917 39.952C112.645 40.928 112.061 41.712 111.165 42.304C110.269 42.896 109.221 43.192 108.021 43.192ZM120.222 30.592C121.198 30.592 122.046 30.768 122.766 31.12C123.502 31.456 124.062 31.936 124.446 32.56C124.846 33.168 125.046 33.864 125.046 34.648V42.76C125.046 42.92 124.966 43 124.806 43H122.982C122.822 43 122.742 42.92 122.742 42.76V41.896C122.742 41.816 122.702 41.8 122.622 41.848C122.206 42.28 121.694 42.616 121.086 42.856C120.494 43.08 119.83 43.192 119.094 43.192C117.91 43.192 116.926 42.896 116.142 42.304C115.374 41.696 114.99 40.784 114.99 39.568C114.99 38.32 115.422 37.344 116.286 36.64C117.166 35.92 118.39 35.56 119.958 35.56H122.646C122.71 35.56 122.742 35.528 122.742 35.464V34.816C122.742 34.112 122.534 33.568 122.118 33.184C121.718 32.784 121.102 32.584 120.27 32.584C119.598 32.584 119.046 32.72 118.614 32.992C118.198 33.248 117.942 33.6 117.846 34.048C117.798 34.208 117.702 34.28 117.558 34.264L115.614 34C115.454 33.968 115.382 33.904 115.398 33.808C115.526 32.864 116.03 32.096 116.91 31.504C117.79 30.896 118.894 30.592 120.222 30.592ZM119.598 41.248C120.446 41.248 121.182 41.024 121.806 40.576C122.43 40.128 122.742 39.56 122.742 38.872V37.456C122.742 37.392 122.71 37.36 122.646 37.36H120.39C119.446 37.36 118.694 37.544 118.134 37.912C117.574 38.28 117.294 38.792 117.294 39.448C117.294 40.04 117.502 40.488 117.918 40.792C118.35 41.096 118.91 41.248 119.598 41.248ZM133.201 43C133.041 43 132.961 42.92 132.961 42.76V26.44C132.961 26.28 133.041 26.2 133.201 26.2H135.025C135.185 26.2 135.265 26.28 135.265 26.44V42.76C135.265 42.92 135.185 43 135.025 43H133.201ZM143.602 43.192C142.418 43.192 141.386 42.896 140.506 42.304C139.626 41.696 139.01 40.856 138.658 39.784C138.37 38.92 138.226 37.944 138.226 36.856C138.226 35.72 138.362 34.76 138.634 33.976C138.986 32.92 139.602 32.096 140.482 31.504C141.362 30.896 142.41 30.592 143.626 30.592C144.778 30.592 145.778 30.896 146.626 31.504C147.49 32.096 148.106 32.912 148.474 33.952C148.762 34.768 148.906 35.728 148.906 36.832C148.906 37.952 148.762 38.936 148.474 39.784C148.122 40.856 147.514 41.696 146.65 42.304C145.786 42.896 144.77 43.192 143.602 43.192ZM143.602 41.2C144.242 41.2 144.802 41.024 145.282 40.672C145.762 40.304 146.106 39.792 146.314 39.136C146.49 38.528 146.578 37.776 146.578 36.88C146.578 35.984 146.498 35.24 146.338 34.648C146.13 33.992 145.786 33.488 145.306 33.136C144.826 32.768 144.242 32.584 143.554 32.584C142.898 32.584 142.33 32.768 141.85 33.136C141.37 33.488 141.026 33.992 140.818 34.648C140.642 35.208 140.554 35.952 140.554 36.88C140.554 37.808 140.642 38.56 140.818 39.136C141.01 39.792 141.346 40.304 141.826 40.672C142.322 41.024 142.914 41.2 143.602 41.2ZM156.218 43.144C155.258 43.144 154.41 43 153.674 42.712C152.954 42.424 152.394 42.032 151.994 41.536C151.594 41.024 151.394 40.464 151.394 39.856V39.592C151.394 39.432 151.474 39.352 151.634 39.352H153.362C153.522 39.352 153.602 39.432 153.602 39.592V39.712C153.602 40.16 153.842 40.552 154.322 40.888C154.818 41.224 155.442 41.392 156.194 41.392C156.914 41.392 157.498 41.24 157.946 40.936C158.394 40.616 158.618 40.216 158.618 39.736C158.618 39.272 158.41 38.928 157.994 38.704C157.578 38.464 156.906 38.216 155.978 37.96C155.066 37.704 154.298 37.448 153.674 37.192C153.066 36.92 152.546 36.544 152.114 36.064C151.698 35.568 151.49 34.936 151.49 34.168C151.49 33.096 151.906 32.248 152.738 31.624C153.586 30.984 154.706 30.664 156.098 30.664C157.026 30.664 157.842 30.816 158.546 31.12C159.266 31.408 159.818 31.816 160.202 32.344C160.586 32.872 160.778 33.464 160.778 34.12V34.192C160.778 34.352 160.698 34.432 160.538 34.432H158.858C158.698 34.432 158.618 34.352 158.618 34.192V34.12C158.618 33.656 158.386 33.272 157.922 32.968C157.474 32.648 156.858 32.488 156.074 32.488C155.37 32.488 154.794 32.624 154.346 32.896C153.914 33.168 153.698 33.536 153.698 34C153.698 34.464 153.906 34.816 154.322 35.056C154.754 35.296 155.442 35.552 156.386 35.824C157.314 36.08 158.082 36.336 158.69 36.592C159.314 36.832 159.842 37.2 160.274 37.696C160.706 38.176 160.922 38.808 160.922 39.592C160.922 40.68 160.49 41.544 159.626 42.184C158.778 42.824 157.642 43.144 156.218 43.144ZM173.87 30.616C175.182 30.616 176.222 31 176.99 31.768C177.758 32.52 178.142 33.544 178.142 34.84V42.76C178.142 42.92 178.062 43 177.902 43H176.078C175.918 43 175.838 42.92 175.838 42.76V35.296C175.838 34.496 175.606 33.848 175.142 33.352C174.678 32.856 174.062 32.608 173.294 32.608C172.542 32.608 171.926 32.856 171.446 33.352C170.966 33.848 170.726 34.488 170.726 35.272V42.76C170.726 42.92 170.646 43 170.486 43H168.662C168.502 43 168.422 42.92 168.422 42.76V26.44C168.422 26.28 168.502 26.2 168.662 26.2H170.486C170.646 26.2 170.726 26.28 170.726 26.44V31.888C170.726 31.92 170.734 31.944 170.75 31.96C170.782 31.976 170.806 31.968 170.822 31.936C171.51 31.056 172.526 30.616 173.87 30.616ZM185.894 30.592C186.87 30.592 187.718 30.768 188.438 31.12C189.174 31.456 189.734 31.936 190.118 32.56C190.518 33.168 190.718 33.864 190.718 34.648V42.76C190.718 42.92 190.638 43 190.478 43H188.654C188.494 43 188.414 42.92 188.414 42.76V41.896C188.414 41.816 188.374 41.8 188.294 41.848C187.878 42.28 187.366 42.616 186.758 42.856C186.166 43.08 185.502 43.192 184.766 43.192C183.582 43.192 182.598 42.896 181.814 42.304C181.046 41.696 180.662 40.784 180.662 39.568C180.662 38.32 181.094 37.344 181.958 36.64C182.838 35.92 184.062 35.56 185.63 35.56H188.318C188.382 35.56 188.414 35.528 188.414 35.464V34.816C188.414 34.112 188.206 33.568 187.79 33.184C187.39 32.784 186.774 32.584 185.942 32.584C185.27 32.584 184.718 32.72 184.286 32.992C183.87 33.248 183.614 33.6 183.518 34.048C183.47 34.208 183.374 34.28 183.23 34.264L181.286 34C181.126 33.968 181.054 33.904 181.07 33.808C181.198 32.864 181.702 32.096 182.582 31.504C183.462 30.896 184.566 30.592 185.894 30.592ZM185.27 41.248C186.118 41.248 186.854 41.024 187.478 40.576C188.102 40.128 188.414 39.56 188.414 38.872V37.456C188.414 37.392 188.382 37.36 188.318 37.36H186.062C185.118 37.36 184.366 37.544 183.806 37.912C183.246 38.28 182.966 38.792 182.966 39.448C182.966 40.04 183.174 40.488 183.59 40.792C184.022 41.096 184.582 41.248 185.27 41.248ZM198.124 43.144C197.164 43.144 196.316 43 195.58 42.712C194.86 42.424 194.3 42.032 193.9 41.536C193.5 41.024 193.3 40.464 193.3 39.856V39.592C193.3 39.432 193.38 39.352 193.54 39.352H195.268C195.428 39.352 195.508 39.432 195.508 39.592V39.712C195.508 40.16 195.748 40.552 196.228 40.888C196.724 41.224 197.348 41.392 198.1 41.392C198.82 41.392 199.404 41.24 199.852 40.936C200.3 40.616 200.524 40.216 200.524 39.736C200.524 39.272 200.316 38.928 199.9 38.704C199.484 38.464 198.812 38.216 197.884 37.96C196.972 37.704 196.204 37.448 195.58 37.192C194.972 36.92 194.452 36.544 194.02 36.064C193.604 35.568 193.396 34.936 193.396 34.168C193.396 33.096 193.812 32.248 194.644 31.624C195.492 30.984 196.612 30.664 198.004 30.664C198.932 30.664 199.748 30.816 200.452 31.12C201.172 31.408 201.724 31.816 202.108 32.344C202.492 32.872 202.684 33.464 202.684 34.12V34.192C202.684 34.352 202.604 34.432 202.444 34.432H200.764C200.604 34.432 200.524 34.352 200.524 34.192V34.12C200.524 33.656 200.292 33.272 199.828 32.968C199.38 32.648 198.764 32.488 197.98 32.488C197.276 32.488 196.7 32.624 196.252 32.896C195.82 33.168 195.604 33.536 195.604 34C195.604 34.464 195.812 34.816 196.228 35.056C196.66 35.296 197.348 35.552 198.292 35.824C199.22 36.08 199.988 36.336 200.596 36.592C201.22 36.832 201.748 37.2 202.18 37.696C202.612 38.176 202.828 38.808 202.828 39.592C202.828 40.68 202.396 41.544 201.532 42.184C200.684 42.824 199.548 43.144 198.124 43.144ZM213.544 43C213.4 43 213.304 42.936 213.256 42.808L209.344 31.048L209.32 30.952C209.32 30.84 209.392 30.784 209.536 30.784H211.552C211.696 30.784 211.792 30.848 211.84 30.976L214.48 39.664C214.496 39.696 214.52 39.712 214.552 39.712C214.584 39.712 214.608 39.696 214.624 39.664L217.24 30.976C217.288 30.848 217.384 30.784 217.528 30.784L219.544 30.808C219.72 30.808 219.784 30.896 219.736 31.072L215.848 42.808C215.8 42.936 215.704 43 215.56 43H213.544ZM223.51 28.864C223.062 28.864 222.694 28.72 222.406 28.432C222.118 28.144 221.974 27.776 221.974 27.328C221.974 26.88 222.118 26.512 222.406 26.224C222.694 25.936 223.062 25.792 223.51 25.792C223.958 25.792 224.326 25.936 224.614 26.224C224.902 26.512 225.046 26.88 225.046 27.328C225.046 27.776 224.902 28.144 224.614 28.432C224.326 28.72 223.958 28.864 223.51 28.864ZM222.55 42.976C222.39 42.976 222.31 42.896 222.31 42.736V31.024C222.31 30.864 222.39 30.784 222.55 30.784H224.374C224.534 30.784 224.614 30.864 224.614 31.024V42.736C224.614 42.896 224.534 42.976 224.374 42.976H222.55ZM232.531 43.144C231.571 43.144 230.723 43 229.987 42.712C229.267 42.424 228.707 42.032 228.307 41.536C227.907 41.024 227.707 40.464 227.707 39.856V39.592C227.707 39.432 227.787 39.352 227.947 39.352H229.675C229.835 39.352 229.915 39.432 229.915 39.592V39.712C229.915 40.16 230.155 40.552 230.635 40.888C231.131 41.224 231.755 41.392 232.507 41.392C233.227 41.392 233.811 41.24 234.259 40.936C234.707 40.616 234.931 40.216 234.931 39.736C234.931 39.272 234.723 38.928 234.307 38.704C233.891 38.464 233.219 38.216 232.291 37.96C231.379 37.704 230.611 37.448 229.987 37.192C229.379 36.92 228.859 36.544 228.427 36.064C228.011 35.568 227.803 34.936 227.803 34.168C227.803 33.096 228.219 32.248 229.051 31.624C229.899 30.984 231.019 30.664 232.411 30.664C233.339 30.664 234.155 30.816 234.859 31.12C235.579 31.408 236.131 31.816 236.515 32.344C236.899 32.872 237.091 33.464 237.091 34.12V34.192C237.091 34.352 237.011 34.432 236.851 34.432H235.171C235.011 34.432 234.931 34.352 234.931 34.192V34.12C234.931 33.656 234.699 33.272 234.235 32.968C233.787 32.648 233.171 32.488 232.387 32.488C231.683 32.488 231.107 32.624 230.659 32.896C230.227 33.168 230.011 33.536 230.011 34C230.011 34.464 230.219 34.816 230.635 35.056C231.067 35.296 231.755 35.552 232.699 35.824C233.627 36.08 234.395 36.336 235.003 36.592C235.627 36.832 236.155 37.2 236.587 37.696C237.019 38.176 237.235 38.808 237.235 39.592C237.235 40.68 236.803 41.544 235.939 42.184C235.091 42.824 233.955 43.144 232.531 43.144ZM245.931 32.44C245.931 32.6 245.851 32.68 245.691 32.68H243.099C243.035 32.68 243.003 32.712 243.003 32.776V39.136C243.003 39.808 243.155 40.296 243.459 40.6C243.763 40.888 244.235 41.032 244.875 41.032H245.571C245.731 41.032 245.811 41.112 245.811 41.272V42.76C245.811 42.92 245.731 43 245.571 43C245.059 43.032 244.691 43.048 244.467 43.048C243.251 43.048 242.331 42.832 241.707 42.4C241.099 41.952 240.795 41.136 240.795 39.952V32.776C240.795 32.712 240.763 32.68 240.699 32.68H239.235C239.075 32.68 238.995 32.6 238.995 32.44V31.024C238.995 30.864 239.075 30.784 239.235 30.784H240.699C240.763 30.784 240.795 30.752 240.795 30.688V27.856C240.795 27.696 240.875 27.616 241.035 27.616H242.763C242.923 27.616 243.003 27.696 243.003 27.856V30.688C243.003 30.752 243.035 30.784 243.099 30.784H245.691C245.851 30.784 245.931 30.864 245.931 31.024V32.44ZM253.477 43.192C252.293 43.192 251.261 42.896 250.381 42.304C249.501 41.696 248.885 40.856 248.533 39.784C248.245 38.92 248.101 37.944 248.101 36.856C248.101 35.72 248.237 34.76 248.509 33.976C248.861 32.92 249.477 32.096 250.357 31.504C251.237 30.896 252.285 30.592 253.501 30.592C254.653 30.592 255.653 30.896 256.501 31.504C257.365 32.096 257.981 32.912 258.349 33.952C258.637 34.768 258.781 35.728 258.781 36.832C258.781 37.952 258.637 38.936 258.349 39.784C257.997 40.856 257.389 41.696 256.525 42.304C255.661 42.896 254.645 43.192 253.477 43.192ZM253.477 41.2C254.117 41.2 254.677 41.024 255.157 40.672C255.637 40.304 255.981 39.792 256.189 39.136C256.365 38.528 256.453 37.776 256.453 36.88C256.453 35.984 256.373 35.24 256.213 34.648C256.005 33.992 255.661 33.488 255.181 33.136C254.701 32.768 254.117 32.584 253.429 32.584C252.773 32.584 252.205 32.768 251.725 33.136C251.245 33.488 250.901 33.992 250.693 34.648C250.517 35.208 250.429 35.952 250.429 36.88C250.429 37.808 250.517 38.56 250.693 39.136C250.885 39.792 251.221 40.304 251.701 40.672C252.197 41.024 252.789 41.2 253.477 41.2Z" fill="#EB6540"/>
</svg>
