<svg width="60" height="58" viewBox="0 0 60 58" fill="none" xmlns="http://www.w3.org/2000/svg">
<path d="M9.09531 7.78C9.16198 7.78 9.21531 7.80667 9.25531 7.86C9.30865 7.9 9.33531 7.95333 9.33531 8.02V9.96C9.33531 10.0267 9.30865 10.0867 9.25531 10.14C9.21531 10.18 9.16198 10.2 9.09531 10.2H6.35531C6.28865 10.2 6.25531 10.2333 6.25531 10.3V13C6.25531 13.0667 6.22865 13.1267 6.17531 13.18C6.13531 13.22 6.08198 13.24 6.01531 13.24H4.09531C4.02865 13.24 3.96865 13.22 3.91531 13.18C3.87531 13.1267 3.85531 13.0667 3.85531 13V10.3C3.85531 10.2333 3.82198 10.2 3.75531 10.2H1.01531C0.948646 10.2 0.888646 10.18 0.835313 10.14C0.795313 10.0867 0.775313 10.0267 0.775313 9.96V8.02C0.775313 7.95333 0.795313 7.9 0.835313 7.86C0.888646 7.80667 0.948646 7.78 1.01531 7.78H3.75531C3.82198 7.78 3.85531 7.74667 3.85531 7.68V4.92C3.85531 4.85333 3.87531 4.8 3.91531 4.76C3.96865 4.70667 4.02865 4.68 4.09531 4.68H6.01531C6.08198 4.68 6.13531 4.70667 6.17531 4.76C6.22865 4.8 6.25531 4.85333 6.25531 4.92V7.68C6.25531 7.74667 6.28865 7.78 6.35531 7.78H9.09531ZM14.5819 12.46C14.5552 12.4867 14.5485 12.5133 14.5619 12.54C14.5752 12.5667 14.6019 12.58 14.6419 12.58H20.0619C20.1285 12.58 20.1819 12.6067 20.2219 12.66C20.2752 12.7 20.3019 12.7533 20.3019 12.82V14.76C20.3019 14.8267 20.2752 14.8867 20.2219 14.94C20.1819 14.98 20.1285 15 20.0619 15H11.0619C10.9952 15 10.9352 14.98 10.8819 14.94C10.8419 14.8867 10.8219 14.8267 10.8219 14.76V12.92C10.8219 12.8 10.8619 12.7 10.9419 12.62C11.5952 11.98 12.2619 11.2867 12.9419 10.54C13.6219 9.78 14.0485 9.30667 14.2219 9.12C14.5952 8.68 14.9752 8.26 15.3619 7.86C16.5752 6.51333 17.1819 5.51333 17.1819 4.86C17.1819 4.39333 17.0152 4.01333 16.6819 3.72C16.3485 3.41333 15.9152 3.26 15.3819 3.26C14.8485 3.26 14.4152 3.41333 14.0819 3.72C13.7485 4.01333 13.5819 4.40667 13.5819 4.9V5.4C13.5819 5.46667 13.5552 5.52667 13.5019 5.58C13.4619 5.62 13.4085 5.64 13.3419 5.64H10.9819C10.9152 5.64 10.8552 5.62 10.8019 5.58C10.7619 5.52667 10.7419 5.46667 10.7419 5.4V4.46C10.7819 3.74 11.0085 3.10667 11.4219 2.56C11.8352 2 12.3819 1.57333 13.0619 1.28C13.7552 0.986666 14.5285 0.84 15.3819 0.84C16.3285 0.84 17.1485 1.02 17.8419 1.38C18.5485 1.72667 19.0885 2.2 19.4619 2.8C19.8485 3.4 20.0419 4.06667 20.0419 4.8C20.0419 5.36 19.9019 5.93333 19.6219 6.52C19.3419 7.10667 18.9219 7.74 18.3619 8.42C17.9485 8.94 17.5019 9.45333 17.0219 9.96C16.5419 10.4667 15.8285 11.2 14.8819 12.16L14.5819 12.46ZM22.1533 16.96C21.9933 16.96 21.9199 16.8733 21.9333 16.7L22.5933 12.06C22.6066 11.9133 22.6933 11.84 22.8533 11.84H24.8933C25.0666 11.84 25.1333 11.9267 25.0933 12.1L23.8533 16.76C23.8133 16.8933 23.7199 16.96 23.5733 16.96H22.1533ZM36.2263 8.62C36.4263 9.27333 36.5263 9.90667 36.5263 10.52C36.5263 11.2 36.4196 11.8133 36.2063 12.36C35.8996 13.2133 35.3596 13.8933 34.5863 14.4C33.8129 14.8933 32.9063 15.14 31.8663 15.14C30.8529 15.14 29.9596 14.9 29.1863 14.42C28.4263 13.9267 27.8863 13.26 27.5663 12.42C27.4329 12.0733 27.3329 11.7067 27.2663 11.32V11.28C27.2663 11.1333 27.3463 11.06 27.5063 11.06H29.9263C30.0596 11.06 30.1463 11.1333 30.1863 11.28C30.1996 11.36 30.2196 11.4267 30.2463 11.48C30.2729 11.5333 30.2929 11.58 30.3063 11.62C30.4396 11.9667 30.6396 12.2333 30.9063 12.42C31.1729 12.6067 31.4863 12.7 31.8463 12.7C32.2196 12.7 32.5463 12.6 32.8263 12.4C33.1063 12.2 33.3129 11.92 33.4463 11.56C33.5796 11.2933 33.6463 10.9467 33.6463 10.52C33.6463 10.1333 33.5863 9.78667 33.4663 9.48C33.3729 9.13333 33.1863 8.86667 32.9063 8.68C32.6263 8.49333 32.2996 8.4 31.9263 8.4C31.5529 8.4 31.2063 8.48667 30.8863 8.66C30.5663 8.83333 30.3529 9.06 30.2463 9.34C30.2063 9.47333 30.1196 9.54 29.9863 9.54H27.5263C27.4596 9.54 27.3996 9.52 27.3463 9.48C27.3063 9.42667 27.2863 9.36667 27.2863 9.3V1.24C27.2863 1.17333 27.3063 1.12 27.3463 1.08C27.3996 1.02667 27.4596 0.999999 27.5263 0.999999H35.7863C35.8529 0.999999 35.9063 1.02667 35.9463 1.08C35.9996 1.12 36.0263 1.17333 36.0263 1.24V3.18C36.0263 3.24667 35.9996 3.30667 35.9463 3.36C35.9063 3.4 35.8529 3.42 35.7863 3.42H30.2063C30.1396 3.42 30.1063 3.45333 30.1063 3.52L30.0863 6.48C30.0863 6.57333 30.1263 6.59333 30.2063 6.54C30.8063 6.15333 31.4996 5.96 32.2862 5.96C33.2196 5.96 34.0329 6.2 34.7263 6.68C35.4329 7.14667 35.9329 7.79333 36.2263 8.62ZM42.8675 15.22C41.4008 15.22 40.2408 14.8133 39.3875 14C38.5342 13.1733 38.1075 12.0533 38.1075 10.64V5.36C38.1075 3.97333 38.5342 2.87333 39.3875 2.06C40.2408 1.24667 41.4008 0.84 42.8675 0.84C44.3342 0.84 45.4942 1.24667 46.3475 2.06C47.2142 2.87333 47.6475 3.97333 47.6475 5.36V10.64C47.6475 12.0533 47.2142 13.1733 46.3475 14C45.4942 14.8133 44.3342 15.22 42.8675 15.22ZM42.8675 12.8C43.4675 12.8 43.9408 12.62 44.2875 12.26C44.6475 11.8867 44.8275 11.3933 44.8275 10.78V5.28C44.8275 4.66667 44.6475 4.18 44.2875 3.82C43.9408 3.44667 43.4675 3.26 42.8675 3.26C42.2808 3.26 41.8075 3.44667 41.4475 3.82C41.1008 4.18 40.9275 4.66667 40.9275 5.28V10.78C40.9275 11.3933 41.1008 11.8867 41.4475 12.26C41.8075 12.62 42.2808 12.8 42.8675 12.8ZM54.2738 15.22C52.8071 15.22 51.6471 14.8133 50.7938 14C49.9404 13.1733 49.5138 12.0533 49.5138 10.64V5.36C49.5138 3.97333 49.9404 2.87333 50.7938 2.06C51.6471 1.24667 52.8071 0.84 54.2738 0.84C55.7404 0.84 56.9004 1.24667 57.7538 2.06C58.6204 2.87333 59.0538 3.97333 59.0538 5.36V10.64C59.0538 12.0533 58.6204 13.1733 57.7538 14C56.9004 14.8133 55.7404 15.22 54.2738 15.22ZM54.2738 12.8C54.8738 12.8 55.3471 12.62 55.6938 12.26C56.0538 11.8867 56.2338 11.3933 56.2338 10.78V5.28C56.2338 4.66667 56.0538 4.18 55.6938 3.82C55.3471 3.44667 54.8738 3.26 54.2738 3.26C53.6871 3.26 53.2138 3.44667 52.8538 3.82C52.5071 4.18 52.3338 4.66667 52.3338 5.28V10.78C52.3338 11.3933 52.5071 11.8867 52.8538 12.26C53.2138 12.62 53.6871 12.8 54.2738 12.8ZM33.7422 43.06C33.8089 43.02 33.9089 43 34.0422 43H36.4622C36.5289 43 36.5822 43.0267 36.6222 43.08C36.6755 43.12 36.7022 43.1733 36.7022 43.24V56.76C36.7022 56.8267 36.6755 56.8867 36.6222 56.94C36.5822 56.98 36.5289 57 36.4622 57H34.1222C34.0555 57 33.9955 56.98 33.9422 56.94C33.9022 56.8867 33.8822 56.8267 33.8822 56.76V45.8C33.8822 45.7733 33.8689 45.7467 33.8422 45.72C33.8155 45.6933 33.7889 45.6867 33.7622 45.7L31.7822 46.24L31.7022 46.26C31.5822 46.26 31.5222 46.1867 31.5222 46.04L31.4622 44.32C31.4622 44.1867 31.5222 44.0933 31.6422 44.04L33.7422 43.06ZM47.6325 50.62C47.8325 51.2733 47.9325 51.9067 47.9325 52.52C47.9325 53.2 47.8258 53.8133 47.6125 54.36C47.3058 55.2133 46.7658 55.8933 45.9925 56.4C45.2192 56.8933 44.3125 57.14 43.2725 57.14C42.2592 57.14 41.3658 56.9 40.5925 56.42C39.8325 55.9267 39.2925 55.26 38.9725 54.42C38.8392 54.0733 38.7392 53.7067 38.6725 53.32V53.28C38.6725 53.1333 38.7525 53.06 38.9125 53.06H41.3325C41.4658 53.06 41.5525 53.1333 41.5925 53.28C41.6058 53.36 41.6258 53.4267 41.6525 53.48C41.6792 53.5333 41.6992 53.58 41.7125 53.62C41.8458 53.9667 42.0458 54.2333 42.3125 54.42C42.5792 54.6067 42.8925 54.7 43.2525 54.7C43.6258 54.7 43.9525 54.6 44.2325 54.4C44.5125 54.2 44.7192 53.92 44.8525 53.56C44.9858 53.2933 45.0525 52.9467 45.0525 52.52C45.0525 52.1333 44.9925 51.7867 44.8725 51.48C44.7792 51.1333 44.5925 50.8667 44.3125 50.68C44.0325 50.4933 43.7058 50.4 43.3325 50.4C42.9592 50.4 42.6125 50.4867 42.2925 50.66C41.9725 50.8333 41.7592 51.06 41.6525 51.34C41.6125 51.4733 41.5258 51.54 41.3925 51.54H38.9325C38.8658 51.54 38.8058 51.52 38.7525 51.48C38.7125 51.4267 38.6925 51.3667 38.6925 51.3V43.24C38.6925 43.1733 38.7125 43.12 38.7525 43.08C38.8058 43.0267 38.8658 43 38.9325 43H47.1925C47.2592 43 47.3125 43.0267 47.3525 43.08C47.4058 43.12 47.4325 43.1733 47.4325 43.24V45.18C47.4325 45.2467 47.4058 45.3067 47.3525 45.36C47.3125 45.4 47.2592 45.42 47.1925 45.42H41.6125C41.5458 45.42 41.5125 45.4533 41.5125 45.52L41.4925 48.48C41.4925 48.5733 41.5325 48.5933 41.6125 48.54C42.2125 48.1533 42.9058 47.96 43.6925 47.96C44.6258 47.96 45.4392 48.2 46.1325 48.68C46.8392 49.1467 47.3392 49.7933 47.6325 50.62ZM54.2738 57.22C52.8071 57.22 51.6471 56.8133 50.7938 56C49.9404 55.1733 49.5138 54.0533 49.5138 52.64V47.36C49.5138 45.9733 49.9404 44.8733 50.7938 44.06C51.6471 43.2467 52.8071 42.84 54.2738 42.84C55.7404 42.84 56.9004 43.2467 57.7538 44.06C58.6204 44.8733 59.0538 45.9733 59.0538 47.36V52.64C59.0538 54.0533 58.6204 55.1733 57.7538 56C56.9004 56.8133 55.7404 57.22 54.2738 57.22ZM54.2738 54.8C54.8738 54.8 55.3471 54.62 55.6938 54.26C56.0538 53.8867 56.2338 53.3933 56.2338 52.78V47.28C56.2338 46.6667 56.0538 46.18 55.6938 45.82C55.3471 45.4467 54.8738 45.26 54.2738 45.26C53.6871 45.26 53.2138 45.4467 52.8538 45.82C52.5071 46.18 52.3338 46.6667 52.3338 47.28V52.78C52.3338 53.3933 52.5071 53.8867 52.8538 54.26C53.2138 54.62 53.6871 54.8 54.2738 54.8Z" fill="#EB6540"/>
</svg>
