<svg width="364" height="44" viewBox="0 0 364 44" fill="none" xmlns="http://www.w3.org/2000/svg">
<path d="M12.128 2.952C12.128 3.112 12.048 3.192 11.888 3.192H3.368C3.304 3.192 3.272 3.224 3.272 3.288V8.448C3.272 8.512 3.304 8.544 3.368 8.544H9.224C9.384 8.544 9.464 8.624 9.464 8.784V10.296C9.464 10.456 9.384 10.536 9.224 10.536H3.368C3.304 10.536 3.272 10.568 3.272 10.632V15.912C3.272 15.976 3.304 16.008 3.368 16.008H11.888C12.048 16.008 12.128 16.088 12.128 16.248V17.76C12.128 17.92 12.048 18 11.888 18H1.208C1.048 18 0.968 17.92 0.968 17.76V1.44C0.968 1.28 1.048 1.2 1.208 1.2H11.888C12.048 1.2 12.128 1.28 12.128 1.44V2.952ZM14.1598 18C14.0638 18 13.9998 17.976 13.9678 17.928C13.9358 17.864 13.9438 17.792 13.9918 17.712L17.9758 11.976C18.0078 11.928 18.0078 11.88 17.9758 11.832L13.9918 6.072L13.9438 5.952C13.9438 5.84 14.0158 5.784 14.1598 5.784H16.1038C16.2318 5.784 16.3278 5.832 16.3918 5.928L19.1998 10.032C19.2158 10.048 19.2398 10.056 19.2718 10.056C19.3038 10.056 19.3278 10.048 19.3438 10.032L22.1278 5.928C22.1918 5.832 22.2878 5.784 22.4158 5.784H24.5038C24.5998 5.784 24.6638 5.816 24.6958 5.88C24.7278 5.928 24.7198 5.992 24.6718 6.072L20.6878 11.832C20.6718 11.88 20.6718 11.928 20.6878 11.976L24.6718 17.712L24.7198 17.832C24.7198 17.944 24.6478 18 24.5038 18H22.5358C22.4078 18 22.3118 17.952 22.2478 17.856L19.4638 13.752C19.4478 13.72 19.4238 13.704 19.3918 13.704C19.3598 13.704 19.3358 13.72 19.3198 13.752L16.5117 17.856C16.4478 17.952 16.3518 18 16.2238 18H14.1598ZM36.9123 8.856C37.2163 9.72 37.3683 10.744 37.3683 11.928C37.3683 13.048 37.2403 14.016 36.9843 14.832C36.6483 15.904 36.0963 16.736 35.3283 17.328C34.5603 17.904 33.5763 18.192 32.3763 18.192C31.8323 18.192 31.3123 18.088 30.8163 17.88C30.3363 17.656 29.9203 17.344 29.5683 16.944C29.5363 16.912 29.5043 16.904 29.4723 16.92C29.4563 16.936 29.4483 16.96 29.4483 16.992V22.344C29.4483 22.504 29.3683 22.584 29.2083 22.584H27.3843C27.2243 22.584 27.1443 22.504 27.1443 22.344V6.024C27.1443 5.864 27.2243 5.784 27.3843 5.784H29.2083C29.3683 5.784 29.4483 5.864 29.4483 6.024V6.816C29.4483 6.848 29.4563 6.872 29.4723 6.888C29.5043 6.904 29.5363 6.896 29.5683 6.864C29.9203 6.464 30.3363 6.152 30.8163 5.928C31.2963 5.704 31.8163 5.592 32.3763 5.592C33.5283 5.592 34.4803 5.88 35.2323 6.456C36.0003 7.016 36.5603 7.816 36.9123 8.856ZM34.2723 15.048C34.7843 14.28 35.0403 13.224 35.0403 11.88C35.0403 10.648 34.8403 9.656 34.4403 8.904C33.9763 8.024 33.2163 7.584 32.1603 7.584C31.2323 7.584 30.5283 8.016 30.0483 8.88C29.6643 9.568 29.4723 10.576 29.4723 11.904C29.4723 13.248 29.6803 14.272 30.0963 14.976C30.5603 15.792 31.2403 16.2 32.1363 16.2C33.0963 16.2 33.8083 15.816 34.2723 15.048ZM50.1305 10.368C50.1945 11.024 50.2185 11.76 50.2025 12.576C50.2025 12.736 50.1225 12.816 49.9625 12.816H42.3065C42.2425 12.816 42.2105 12.848 42.2105 12.912C42.2105 13.456 42.2585 13.872 42.3545 14.16C42.5305 14.8 42.8825 15.304 43.4105 15.672C43.9545 16.024 44.6345 16.2 45.4505 16.2C46.6345 16.2 47.5465 15.712 48.1865 14.736C48.2665 14.576 48.3705 14.552 48.4985 14.664L49.8665 15.576C49.9785 15.672 50.0025 15.776 49.9385 15.888C49.4905 16.608 48.8505 17.176 48.0185 17.592C47.2025 18.008 46.2745 18.216 45.2345 18.216C44.0665 18.216 43.0825 17.96 42.2825 17.448C41.4825 16.936 40.8825 16.208 40.4825 15.264C40.0985 14.32 39.9065 13.176 39.9065 11.832C39.9065 10.664 39.9945 9.776 40.1705 9.168C40.4585 8.064 41.0345 7.192 41.8985 6.552C42.7625 5.912 43.8105 5.592 45.0425 5.592C46.6585 5.592 47.8665 6 48.6665 6.816C49.4665 7.616 49.9545 8.8 50.1305 10.368ZM45.0425 7.584C44.3545 7.584 43.7865 7.76 43.3385 8.112C42.8905 8.448 42.5865 8.904 42.4265 9.48C42.3145 9.832 42.2425 10.28 42.2105 10.824C42.2105 10.888 42.2425 10.92 42.3065 10.92H47.8025C47.8665 10.92 47.8985 10.888 47.8985 10.824C47.8665 10.296 47.8185 9.904 47.7545 9.648C47.5945 9.024 47.2745 8.528 46.7945 8.16C46.3305 7.776 45.7465 7.584 45.0425 7.584ZM58.4617 5.664C58.9737 5.664 59.4377 5.768 59.8537 5.976C59.9657 6.024 60.0057 6.12 59.9737 6.264L59.5897 8.064C59.5737 8.208 59.4777 8.256 59.3017 8.208C59.0297 8.096 58.7097 8.04 58.3417 8.04L58.0057 8.064C57.2537 8.096 56.6297 8.36 56.1337 8.856C55.6537 9.336 55.4137 9.968 55.4137 10.752V17.76C55.4137 17.92 55.3337 18 55.1737 18H53.3497C53.1897 18 53.1097 17.92 53.1097 17.76V6.024C53.1097 5.864 53.1897 5.784 53.3497 5.784H55.1737C55.3337 5.784 55.4137 5.864 55.4137 6.024V7.296C55.4137 7.344 55.4217 7.376 55.4377 7.392C55.4697 7.392 55.4937 7.376 55.5097 7.344C56.2297 6.224 57.2137 5.664 58.4617 5.664ZM63.4079 3.864C62.9599 3.864 62.5919 3.72 62.3039 3.432C62.0159 3.144 61.8719 2.776 61.8719 2.328C61.8719 1.88 62.0159 1.512 62.3039 1.224C62.5919 0.935999 62.9599 0.792 63.4079 0.792C63.8559 0.792 64.2239 0.935999 64.5119 1.224C64.7999 1.512 64.9439 1.88 64.9439 2.328C64.9439 2.776 64.7999 3.144 64.5119 3.432C64.2239 3.72 63.8559 3.864 63.4079 3.864ZM62.4479 17.976C62.2879 17.976 62.2079 17.896 62.2079 17.736V6.024C62.2079 5.864 62.2879 5.784 62.4479 5.784H64.2719C64.4319 5.784 64.5119 5.864 64.5119 6.024V17.736C64.5119 17.896 64.4319 17.976 64.2719 17.976H62.4479ZM78.0211 10.368C78.0851 11.024 78.1091 11.76 78.0931 12.576C78.0931 12.736 78.0131 12.816 77.8531 12.816H70.1971C70.1331 12.816 70.1011 12.848 70.1011 12.912C70.1011 13.456 70.1491 13.872 70.2451 14.16C70.4211 14.8 70.7731 15.304 71.3011 15.672C71.8451 16.024 72.5251 16.2 73.3411 16.2C74.5251 16.2 75.4371 15.712 76.0771 14.736C76.1571 14.576 76.2611 14.552 76.3891 14.664L77.7571 15.576C77.8691 15.672 77.8931 15.776 77.8291 15.888C77.3811 16.608 76.7411 17.176 75.9091 17.592C75.0931 18.008 74.1651 18.216 73.1251 18.216C71.9571 18.216 70.9731 17.96 70.1731 17.448C69.3731 16.936 68.7731 16.208 68.3731 15.264C67.9891 14.32 67.7971 13.176 67.7971 11.832C67.7971 10.664 67.8851 9.776 68.0611 9.168C68.3491 8.064 68.9251 7.192 69.7891 6.552C70.6531 5.912 71.7011 5.592 72.9331 5.592C74.5491 5.592 75.7571 6 76.5571 6.816C77.3571 7.616 77.8451 8.8 78.0211 10.368ZM72.9331 7.584C72.2451 7.584 71.6771 7.76 71.2291 8.112C70.7811 8.448 70.4771 8.904 70.3171 9.48C70.2051 9.832 70.1331 10.28 70.1011 10.824C70.1011 10.888 70.1331 10.92 70.1971 10.92H75.6931C75.7571 10.92 75.7891 10.888 75.7891 10.824C75.7571 10.296 75.7091 9.904 75.6451 9.648C75.4851 9.024 75.1651 8.528 74.6851 8.16C74.2211 7.776 73.6371 7.584 72.9331 7.584ZM86.4483 5.616C87.7603 5.616 88.8003 6 89.5683 6.768C90.3363 7.52 90.7203 8.544 90.7203 9.84V17.76C90.7203 17.92 90.6403 18 90.4803 18H88.6563C88.4963 18 88.4163 17.92 88.4163 17.76V10.296C88.4163 9.496 88.1843 8.848 87.7203 8.352C87.2563 7.856 86.6403 7.608 85.8723 7.608C85.1203 7.608 84.5043 7.856 84.0243 8.352C83.5443 8.848 83.3043 9.488 83.3043 10.272V17.76C83.3043 17.92 83.2243 18 83.0643 18H81.2403C81.0803 18 81.0003 17.92 81.0003 17.76V6.024C81.0003 5.864 81.0803 5.784 81.2403 5.784H83.0643C83.2243 5.784 83.3043 5.864 83.3043 6.024V6.888C83.3043 6.92 83.3123 6.944 83.3283 6.96C83.3603 6.976 83.3843 6.968 83.4003 6.936C84.0883 6.056 85.1043 5.616 86.4483 5.616ZM98.7635 18.192C97.5475 18.192 96.5075 17.888 95.6435 17.28C94.7795 16.656 94.1875 15.816 93.8675 14.76C93.6275 14.024 93.5075 13.056 93.5075 11.856C93.5075 10.752 93.6275 9.784 93.8675 8.952C94.1875 7.928 94.7795 7.112 95.6435 6.504C96.5235 5.896 97.5635 5.592 98.7635 5.592C99.9635 5.592 101.012 5.896 101.908 6.504C102.804 7.112 103.388 7.88 103.66 8.808C103.756 9.064 103.82 9.328 103.852 9.6C103.852 9.728 103.78 9.808 103.636 9.84L101.836 10.104H101.788C101.676 10.104 101.596 10.032 101.548 9.888L101.476 9.504C101.348 8.96 101.036 8.504 100.54 8.136C100.044 7.768 99.4435 7.584 98.7395 7.584C98.0515 7.584 97.4675 7.768 96.9875 8.136C96.5075 8.504 96.1955 8.992 96.0515 9.6C95.9075 10.176 95.8355 10.936 95.8355 11.88C95.8355 12.808 95.9075 13.56 96.0515 14.136C96.2115 14.776 96.5235 15.28 96.9875 15.648C97.4675 16.016 98.0515 16.2 98.7395 16.2C99.4435 16.2 100.044 16.016 100.54 15.648C101.052 15.28 101.372 14.8 101.5 14.208C101.516 14.192 101.516 14.176 101.5 14.16C101.5 14.128 101.508 14.104 101.524 14.088V13.992C101.572 13.864 101.66 13.816 101.788 13.848L103.588 14.136C103.716 14.168 103.78 14.232 103.78 14.328V14.424C103.78 14.568 103.74 14.744 103.66 14.952C103.388 15.928 102.804 16.712 101.908 17.304C101.012 17.896 99.9635 18.192 98.7635 18.192ZM107.892 3.864C107.444 3.864 107.076 3.72 106.788 3.432C106.5 3.144 106.356 2.776 106.356 2.328C106.356 1.88 106.5 1.512 106.788 1.224C107.076 0.935999 107.444 0.792 107.892 0.792C108.34 0.792 108.708 0.935999 108.996 1.224C109.284 1.512 109.428 1.88 109.428 2.328C109.428 2.776 109.284 3.144 108.996 3.432C108.708 3.72 108.34 3.864 107.892 3.864ZM106.932 17.976C106.772 17.976 106.692 17.896 106.692 17.736V6.024C106.692 5.864 106.772 5.784 106.932 5.784H108.756C108.916 5.784 108.996 5.864 108.996 6.024V17.736C108.996 17.896 108.916 17.976 108.756 17.976H106.932ZM117.082 5.592C118.058 5.592 118.906 5.768 119.626 6.12C120.362 6.456 120.922 6.936 121.306 7.56C121.706 8.168 121.906 8.864 121.906 9.648V17.76C121.906 17.92 121.826 18 121.666 18H119.842C119.682 18 119.602 17.92 119.602 17.76V16.896C119.602 16.816 119.562 16.8 119.482 16.848C119.066 17.28 118.554 17.616 117.946 17.856C117.354 18.08 116.69 18.192 115.954 18.192C114.77 18.192 113.786 17.896 113.002 17.304C112.234 16.696 111.85 15.784 111.85 14.568C111.85 13.32 112.282 12.344 113.146 11.64C114.026 10.92 115.25 10.56 116.818 10.56H119.506C119.57 10.56 119.602 10.528 119.602 10.464V9.816C119.602 9.112 119.394 8.568 118.978 8.184C118.578 7.784 117.962 7.584 117.13 7.584C116.458 7.584 115.906 7.72 115.474 7.992C115.058 8.248 114.802 8.6 114.706 9.048C114.658 9.208 114.562 9.28 114.418 9.264L112.474 9C112.314 8.968 112.242 8.904 112.258 8.808C112.386 7.864 112.89 7.096 113.77 6.504C114.65 5.896 115.754 5.592 117.082 5.592ZM116.458 16.248C117.306 16.248 118.042 16.024 118.666 15.576C119.29 15.128 119.602 14.56 119.602 13.872V12.456C119.602 12.392 119.57 12.36 119.506 12.36H117.25C116.306 12.36 115.554 12.544 114.994 12.912C114.434 13.28 114.154 13.792 114.154 14.448C114.154 15.04 114.362 15.488 114.778 15.792C115.21 16.096 115.77 16.248 116.458 16.248ZM129.312 18.144C128.352 18.144 127.504 18 126.768 17.712C126.048 17.424 125.488 17.032 125.088 16.536C124.688 16.024 124.488 15.464 124.488 14.856V14.592C124.488 14.432 124.568 14.352 124.728 14.352H126.456C126.616 14.352 126.696 14.432 126.696 14.592V14.712C126.696 15.16 126.936 15.552 127.416 15.888C127.912 16.224 128.536 16.392 129.288 16.392C130.008 16.392 130.592 16.24 131.04 15.936C131.488 15.616 131.712 15.216 131.712 14.736C131.712 14.272 131.504 13.928 131.088 13.704C130.672 13.464 130 13.216 129.072 12.96C128.16 12.704 127.392 12.448 126.768 12.192C126.16 11.92 125.64 11.544 125.208 11.064C124.792 10.568 124.584 9.936 124.584 9.168C124.584 8.096 125 7.248 125.832 6.624C126.68 5.984 127.8 5.664 129.192 5.664C130.12 5.664 130.936 5.816 131.64 6.12C132.36 6.408 132.912 6.816 133.296 7.344C133.68 7.872 133.872 8.464 133.872 9.12V9.192C133.872 9.352 133.792 9.432 133.632 9.432H131.952C131.792 9.432 131.712 9.352 131.712 9.192V9.12C131.712 8.656 131.48 8.272 131.016 7.968C130.568 7.648 129.952 7.488 129.168 7.488C128.464 7.488 127.888 7.624 127.44 7.896C127.008 8.168 126.792 8.536 126.792 9C126.792 9.464 127 9.816 127.416 10.056C127.848 10.296 128.536 10.552 129.48 10.824C130.408 11.08 131.176 11.336 131.784 11.592C132.408 11.832 132.936 12.2 133.368 12.696C133.8 13.176 134.016 13.808 134.016 14.592C134.016 15.68 133.584 16.544 132.72 17.184C131.872 17.824 130.736 18.144 129.312 18.144ZM149.1 6.024C149.1 5.864 149.18 5.784 149.34 5.784H151.164C151.324 5.784 151.404 5.864 151.404 6.024V22.344C151.404 22.504 151.324 22.584 151.164 22.584H149.34C149.18 22.584 149.1 22.504 149.1 22.344V16.992C149.1 16.96 149.084 16.936 149.052 16.92C149.036 16.904 149.012 16.912 148.98 16.944C148.628 17.344 148.204 17.656 147.708 17.88C147.228 18.088 146.716 18.192 146.172 18.192C144.972 18.192 143.988 17.904 143.22 17.328C142.452 16.736 141.9 15.904 141.564 14.832C141.308 14.016 141.18 13.048 141.18 11.928C141.18 10.744 141.332 9.72 141.636 8.856C141.988 7.816 142.54 7.016 143.292 6.456C144.06 5.88 145.02 5.592 146.172 5.592C146.732 5.592 147.252 5.704 147.732 5.928C148.212 6.152 148.628 6.464 148.98 6.864C149.012 6.896 149.036 6.904 149.052 6.888C149.084 6.872 149.1 6.848 149.1 6.816V6.024ZM148.452 14.976C148.852 14.288 149.052 13.264 149.052 11.904C149.052 10.56 148.868 9.552 148.5 8.88C148.02 8.016 147.316 7.584 146.388 7.584C145.332 7.584 144.572 8.024 144.108 8.904C143.708 9.656 143.508 10.648 143.508 11.88C143.508 13.224 143.764 14.28 144.276 15.048C144.74 15.816 145.452 16.2 146.412 16.2C147.308 16.2 147.988 15.792 148.452 14.976ZM162.171 6.024C162.171 5.864 162.251 5.784 162.411 5.784H164.211C164.371 5.784 164.451 5.864 164.451 6.024V17.76C164.451 17.92 164.371 18 164.211 18H162.411C162.251 18 162.171 17.92 162.171 17.76V16.872C162.171 16.84 162.155 16.824 162.123 16.824C162.107 16.808 162.083 16.816 162.051 16.848C161.411 17.728 160.427 18.168 159.099 18.168C158.315 18.168 157.587 18.016 156.915 17.712C156.259 17.408 155.731 16.96 155.331 16.368C154.931 15.776 154.731 15.056 154.731 14.208V6.024C154.731 5.864 154.811 5.784 154.971 5.784H156.771C156.931 5.784 157.011 5.864 157.011 6.024V13.488C157.011 14.32 157.227 14.976 157.659 15.456C158.107 15.936 158.731 16.176 159.531 16.176C160.331 16.176 160.971 15.936 161.451 15.456C161.931 14.96 162.171 14.304 162.171 13.488V6.024ZM177.701 10.368C177.765 11.024 177.789 11.76 177.773 12.576C177.773 12.736 177.693 12.816 177.533 12.816H169.877C169.813 12.816 169.781 12.848 169.781 12.912C169.781 13.456 169.829 13.872 169.925 14.16C170.101 14.8 170.453 15.304 170.981 15.672C171.525 16.024 172.205 16.2 173.021 16.2C174.205 16.2 175.117 15.712 175.757 14.736C175.837 14.576 175.941 14.552 176.069 14.664L177.437 15.576C177.549 15.672 177.573 15.776 177.509 15.888C177.061 16.608 176.421 17.176 175.589 17.592C174.773 18.008 173.845 18.216 172.805 18.216C171.637 18.216 170.653 17.96 169.853 17.448C169.053 16.936 168.453 16.208 168.053 15.264C167.669 14.32 167.477 13.176 167.477 11.832C167.477 10.664 167.565 9.776 167.741 9.168C168.029 8.064 168.605 7.192 169.469 6.552C170.333 5.912 171.381 5.592 172.613 5.592C174.229 5.592 175.437 6 176.237 6.816C177.037 7.616 177.525 8.8 177.701 10.368ZM172.613 7.584C171.925 7.584 171.357 7.76 170.909 8.112C170.461 8.448 170.157 8.904 169.997 9.48C169.885 9.832 169.813 10.28 169.781 10.824C169.781 10.888 169.813 10.92 169.877 10.92H175.373C175.437 10.92 175.469 10.888 175.469 10.824C175.437 10.296 175.389 9.904 175.325 9.648C175.165 9.024 174.845 8.528 174.365 8.16C173.901 7.776 173.317 7.584 172.613 7.584ZM191.485 5.472C192.765 5.472 193.797 5.864 194.581 6.648C195.365 7.432 195.757 8.496 195.757 9.84V17.712C195.757 17.792 195.725 17.864 195.661 17.928C195.613 17.976 195.549 18 195.469 18H192.661C192.581 18 192.509 17.976 192.445 17.928C192.397 17.864 192.373 17.792 192.373 17.712V10.536C192.373 9.896 192.189 9.376 191.821 8.976C191.469 8.576 190.997 8.376 190.405 8.376C189.813 8.376 189.333 8.576 188.965 8.976C188.613 9.376 188.437 9.896 188.437 10.536V17.712C188.437 17.792 188.405 17.864 188.341 17.928C188.293 17.976 188.229 18 188.149 18H185.341C185.261 18 185.189 17.976 185.125 17.928C185.077 17.864 185.053 17.792 185.053 17.712V5.952C185.053 5.872 185.077 5.808 185.125 5.76C185.189 5.696 185.261 5.664 185.341 5.664H188.149C188.229 5.664 188.293 5.696 188.341 5.76C188.405 5.808 188.437 5.872 188.437 5.952V6.792C188.437 6.84 188.453 6.872 188.485 6.888C188.517 6.904 188.541 6.896 188.557 6.864C189.213 5.936 190.189 5.472 191.485 5.472ZM203.555 18.192C202.211 18.192 201.059 17.84 200.099 17.136C199.139 16.432 198.483 15.472 198.131 14.256C197.907 13.504 197.795 12.688 197.795 11.808C197.795 10.864 197.907 10.016 198.131 9.264C198.499 8.08 199.163 7.152 200.123 6.48C201.083 5.808 202.235 5.472 203.579 5.472C204.891 5.472 206.011 5.808 206.939 6.48C207.867 7.136 208.523 8.056 208.907 9.24C209.163 10.04 209.291 10.88 209.291 11.76C209.291 12.624 209.179 13.432 208.955 14.184C208.603 15.432 207.947 16.416 206.987 17.136C206.043 17.84 204.899 18.192 203.555 18.192ZM203.555 15.288C204.083 15.288 204.531 15.128 204.899 14.808C205.267 14.488 205.531 14.048 205.691 13.488C205.819 12.976 205.883 12.416 205.883 11.808C205.883 11.136 205.819 10.568 205.691 10.104C205.515 9.56 205.243 9.136 204.875 8.832C204.507 8.528 204.059 8.376 203.531 8.376C202.987 8.376 202.531 8.528 202.163 8.832C201.811 9.136 201.555 9.56 201.395 10.104C201.267 10.488 201.203 11.056 201.203 11.808C201.203 12.528 201.259 13.088 201.371 13.488C201.531 14.048 201.795 14.488 202.163 14.808C202.547 15.128 203.011 15.288 203.555 15.288ZM223.351 8.088C223.351 8.168 223.319 8.24 223.255 8.304C223.207 8.352 223.143 8.376 223.063 8.376H220.759C220.679 8.376 220.639 8.416 220.639 8.496V13.584C220.639 14.112 220.743 14.504 220.951 14.76C221.175 15.016 221.527 15.144 222.007 15.144H222.799C222.879 15.144 222.943 15.176 222.991 15.24C223.055 15.288 223.087 15.352 223.087 15.432V17.712C223.087 17.888 222.991 17.992 222.799 18.024C222.127 18.056 221.647 18.072 221.359 18.072C220.031 18.072 219.039 17.856 218.383 17.424C217.727 16.976 217.391 16.144 217.375 14.928V8.496C217.375 8.416 217.335 8.376 217.255 8.376H215.887C215.807 8.376 215.735 8.352 215.671 8.304C215.623 8.24 215.599 8.168 215.599 8.088V5.952C215.599 5.872 215.623 5.808 215.671 5.76C215.735 5.696 215.807 5.664 215.887 5.664H217.255C217.335 5.664 217.375 5.624 217.375 5.544V2.688C217.375 2.608 217.399 2.544 217.447 2.496C217.511 2.432 217.583 2.4 217.663 2.4H220.351C220.431 2.4 220.495 2.432 220.543 2.496C220.607 2.544 220.639 2.608 220.639 2.688V5.544C220.639 5.624 220.679 5.664 220.759 5.664H223.063C223.143 5.664 223.207 5.696 223.255 5.76C223.319 5.808 223.351 5.872 223.351 5.952V8.088ZM236.145 10.56C236.241 11.168 236.273 11.848 236.241 12.6C236.225 12.792 236.121 12.888 235.929 12.888H228.513C228.417 12.888 228.385 12.928 228.417 13.008C228.465 13.328 228.553 13.648 228.681 13.968C229.097 14.864 229.945 15.312 231.225 15.312C232.249 15.296 233.057 14.88 233.649 14.064C233.713 13.968 233.785 13.92 233.865 13.92C233.913 13.92 233.969 13.952 234.033 14.016L235.761 15.72C235.841 15.8 235.881 15.872 235.881 15.936C235.881 15.968 235.849 16.032 235.785 16.128C235.257 16.784 234.577 17.296 233.745 17.664C232.913 18.016 232.001 18.192 231.009 18.192C229.633 18.192 228.465 17.88 227.505 17.256C226.561 16.632 225.881 15.76 225.465 14.64C225.129 13.84 224.961 12.792 224.961 11.496C224.961 10.616 225.081 9.84 225.321 9.168C225.689 8.032 226.329 7.128 227.241 6.456C228.169 5.784 229.265 5.448 230.529 5.448C232.129 5.448 233.409 5.912 234.369 6.84C235.345 7.768 235.937 9.008 236.145 10.56ZM230.553 8.376C229.545 8.376 228.881 8.848 228.561 9.792C228.497 10 228.441 10.256 228.393 10.56C228.393 10.64 228.433 10.68 228.513 10.68H232.665C232.761 10.68 232.793 10.64 232.761 10.56C232.681 10.096 232.641 9.872 232.641 9.888C232.497 9.408 232.241 9.04 231.873 8.784C231.521 8.512 231.081 8.376 230.553 8.376ZM244.955 4.272C244.411 4.272 243.955 4.096 243.587 3.744C243.235 3.376 243.059 2.92 243.059 2.376C243.059 1.816 243.235 1.36 243.587 1.008C243.939 0.656 244.395 0.48 244.955 0.48C245.515 0.48 245.971 0.656 246.323 1.008C246.675 1.36 246.851 1.816 246.851 2.376C246.851 2.92 246.667 3.376 246.299 3.744C245.947 4.096 245.499 4.272 244.955 4.272ZM243.515 18C243.435 18 243.363 17.976 243.299 17.928C243.251 17.864 243.227 17.792 243.227 17.712V5.928C243.227 5.848 243.251 5.784 243.299 5.736C243.363 5.672 243.435 5.64 243.515 5.64H246.323C246.403 5.64 246.467 5.672 246.515 5.736C246.579 5.784 246.611 5.848 246.611 5.928V17.712C246.611 17.792 246.579 17.864 246.515 17.928C246.467 17.976 246.403 18 246.323 18H243.515ZM262.928 5.472C264.176 5.472 265.152 5.848 265.856 6.6C266.56 7.352 266.912 8.408 266.912 9.768V17.712C266.912 17.792 266.88 17.864 266.816 17.928C266.768 17.976 266.704 18 266.624 18H263.816C263.736 18 263.664 17.976 263.6 17.928C263.552 17.864 263.528 17.792 263.528 17.712V10.512C263.528 9.856 263.36 9.336 263.024 8.952C262.688 8.568 262.24 8.376 261.68 8.376C261.12 8.376 260.664 8.568 260.312 8.952C259.96 9.336 259.784 9.848 259.784 10.488V17.712C259.784 17.792 259.752 17.864 259.688 17.928C259.64 17.976 259.576 18 259.496 18H256.712C256.632 18 256.56 17.976 256.496 17.928C256.448 17.864 256.424 17.792 256.424 17.712V10.512C256.424 9.872 256.248 9.36 255.896 8.976C255.544 8.576 255.088 8.376 254.528 8.376C254.016 8.376 253.584 8.528 253.232 8.832C252.896 9.136 252.696 9.56 252.632 10.104V17.712C252.632 17.792 252.6 17.864 252.536 17.928C252.488 17.976 252.424 18 252.344 18H249.536C249.456 18 249.384 17.976 249.32 17.928C249.272 17.864 249.248 17.792 249.248 17.712V5.952C249.248 5.872 249.272 5.808 249.32 5.76C249.384 5.696 249.456 5.664 249.536 5.664H252.344C252.424 5.664 252.488 5.696 252.536 5.76C252.6 5.808 252.632 5.872 252.632 5.952V6.888C252.632 6.936 252.648 6.968 252.68 6.984C252.712 7 252.744 6.984 252.776 6.936C253.432 5.96 254.448 5.472 255.824 5.472C256.624 5.472 257.32 5.64 257.912 5.976C258.52 6.312 258.984 6.792 259.304 7.416C259.352 7.512 259.408 7.512 259.472 7.416C259.824 6.76 260.296 6.272 260.888 5.952C261.496 5.632 262.176 5.472 262.928 5.472ZM274.207 5.472C275.247 5.472 276.175 5.656 276.991 6.024C277.807 6.376 278.439 6.864 278.887 7.488C279.351 8.112 279.583 8.808 279.583 9.576V17.712C279.583 17.792 279.551 17.864 279.487 17.928C279.439 17.976 279.375 18 279.295 18H276.487C276.407 18 276.335 17.976 276.271 17.928C276.223 17.864 276.199 17.792 276.199 17.712V16.92C276.199 16.872 276.183 16.84 276.151 16.824C276.119 16.808 276.087 16.824 276.055 16.872C275.383 17.752 274.303 18.192 272.815 18.192C271.567 18.192 270.559 17.888 269.791 17.28C269.023 16.672 268.639 15.776 268.639 14.592C268.639 13.36 269.071 12.408 269.935 11.736C270.799 11.048 272.031 10.704 273.631 10.704H276.079C276.159 10.704 276.199 10.664 276.199 10.584V10.056C276.199 9.528 276.039 9.12 275.719 8.832C275.399 8.528 274.919 8.376 274.279 8.376C273.783 8.376 273.367 8.464 273.031 8.64C272.711 8.816 272.503 9.064 272.407 9.384C272.359 9.56 272.255 9.64 272.095 9.624L269.191 9.24C268.999 9.208 268.911 9.136 268.927 9.024C268.991 8.352 269.255 7.744 269.719 7.2C270.199 6.656 270.823 6.232 271.591 5.928C272.375 5.624 273.247 5.472 274.207 5.472ZM273.727 15.672C274.415 15.672 274.999 15.488 275.479 15.12C275.959 14.752 276.199 14.28 276.199 13.704V12.84C276.199 12.76 276.159 12.72 276.079 12.72H274.351C273.631 12.72 273.063 12.856 272.647 13.128C272.247 13.4 272.047 13.784 272.047 14.28C272.047 14.712 272.199 15.056 272.503 15.312C272.807 15.552 273.215 15.672 273.727 15.672ZM289.503 5.952C289.503 5.872 289.527 5.808 289.575 5.76C289.639 5.696 289.711 5.664 289.791 5.664H292.599C292.679 5.664 292.743 5.696 292.791 5.76C292.855 5.808 292.887 5.872 292.887 5.952V16.896C292.887 18.992 292.279 20.488 291.063 21.384C289.863 22.28 288.311 22.728 286.407 22.728C285.847 22.728 285.223 22.688 284.535 22.608C284.375 22.592 284.295 22.488 284.295 22.296L284.391 19.824C284.391 19.616 284.503 19.528 284.727 19.56C285.303 19.656 285.831 19.704 286.311 19.704C287.335 19.704 288.119 19.48 288.663 19.032C289.223 18.584 289.503 17.864 289.503 16.872C289.503 16.824 289.487 16.8 289.455 16.8C289.423 16.784 289.391 16.792 289.359 16.824C288.751 17.48 287.863 17.808 286.695 17.808C285.655 17.808 284.695 17.56 283.815 17.064C282.951 16.552 282.335 15.736 281.967 14.616C281.727 13.88 281.607 12.928 281.607 11.76C281.607 10.512 281.751 9.496 282.039 8.712C282.375 7.736 282.943 6.952 283.743 6.36C284.543 5.768 285.471 5.472 286.527 5.472C287.759 5.472 288.703 5.84 289.359 6.576C289.391 6.608 289.423 6.624 289.455 6.624C289.487 6.608 289.503 6.576 289.503 6.528V5.952ZM289.311 13.704C289.439 13.224 289.503 12.568 289.503 11.736C289.503 11.24 289.487 10.856 289.455 10.584C289.423 10.312 289.367 10.056 289.287 9.816C289.143 9.384 288.903 9.04 288.567 8.784C288.231 8.512 287.815 8.376 287.319 8.376C286.839 8.376 286.431 8.512 286.095 8.784C285.759 9.04 285.511 9.384 285.351 9.816C285.127 10.296 285.015 10.944 285.015 11.76C285.015 12.656 285.111 13.296 285.303 13.68C285.447 14.112 285.695 14.464 286.047 14.736C286.415 14.992 286.847 15.12 287.343 15.12C287.855 15.12 288.279 14.992 288.615 14.736C288.951 14.464 289.183 14.12 289.311 13.704ZM297.127 4.272C296.583 4.272 296.127 4.096 295.759 3.744C295.407 3.376 295.231 2.92 295.231 2.376C295.231 1.816 295.407 1.36 295.759 1.008C296.111 0.656 296.567 0.48 297.127 0.48C297.687 0.48 298.143 0.656 298.495 1.008C298.847 1.36 299.023 1.816 299.023 2.376C299.023 2.92 298.839 3.376 298.471 3.744C298.119 4.096 297.671 4.272 297.127 4.272ZM295.687 18C295.607 18 295.535 17.976 295.471 17.928C295.423 17.864 295.399 17.792 295.399 17.712V5.928C295.399 5.848 295.423 5.784 295.471 5.736C295.535 5.672 295.607 5.64 295.687 5.64H298.495C298.575 5.64 298.639 5.672 298.687 5.736C298.751 5.784 298.783 5.848 298.783 5.928V17.712C298.783 17.792 298.751 17.864 298.687 17.928C298.639 17.976 298.575 18 298.495 18H295.687ZM307.852 5.472C309.132 5.472 310.164 5.864 310.948 6.648C311.732 7.432 312.124 8.496 312.124 9.84V17.712C312.124 17.792 312.092 17.864 312.028 17.928C311.98 17.976 311.916 18 311.836 18H309.028C308.948 18 308.876 17.976 308.812 17.928C308.764 17.864 308.74 17.792 308.74 17.712V10.536C308.74 9.896 308.556 9.376 308.188 8.976C307.836 8.576 307.364 8.376 306.772 8.376C306.18 8.376 305.7 8.576 305.332 8.976C304.98 9.376 304.804 9.896 304.804 10.536V17.712C304.804 17.792 304.772 17.864 304.708 17.928C304.66 17.976 304.596 18 304.516 18H301.708C301.628 18 301.556 17.976 301.492 17.928C301.444 17.864 301.42 17.792 301.42 17.712V5.952C301.42 5.872 301.444 5.808 301.492 5.76C301.556 5.696 301.628 5.664 301.708 5.664H304.516C304.596 5.664 304.66 5.696 304.708 5.76C304.772 5.808 304.804 5.872 304.804 5.952V6.792C304.804 6.84 304.82 6.872 304.852 6.888C304.884 6.904 304.908 6.896 304.924 6.864C305.58 5.936 306.556 5.472 307.852 5.472ZM319.465 5.472C320.505 5.472 321.433 5.656 322.249 6.024C323.065 6.376 323.697 6.864 324.145 7.488C324.609 8.112 324.841 8.808 324.841 9.576V17.712C324.841 17.792 324.809 17.864 324.745 17.928C324.697 17.976 324.633 18 324.553 18H321.745C321.665 18 321.593 17.976 321.529 17.928C321.481 17.864 321.457 17.792 321.457 17.712V16.92C321.457 16.872 321.441 16.84 321.409 16.824C321.377 16.808 321.345 16.824 321.313 16.872C320.641 17.752 319.561 18.192 318.073 18.192C316.825 18.192 315.817 17.888 315.049 17.28C314.281 16.672 313.897 15.776 313.897 14.592C313.897 13.36 314.329 12.408 315.193 11.736C316.057 11.048 317.289 10.704 318.889 10.704H321.337C321.417 10.704 321.457 10.664 321.457 10.584V10.056C321.457 9.528 321.297 9.12 320.977 8.832C320.657 8.528 320.177 8.376 319.537 8.376C319.041 8.376 318.625 8.464 318.289 8.64C317.969 8.816 317.761 9.064 317.665 9.384C317.617 9.56 317.513 9.64 317.353 9.624L314.449 9.24C314.257 9.208 314.169 9.136 314.185 9.024C314.249 8.352 314.513 7.744 314.977 7.2C315.457 6.656 316.081 6.232 316.849 5.928C317.633 5.624 318.505 5.472 319.465 5.472ZM318.985 15.672C319.673 15.672 320.257 15.488 320.737 15.12C321.217 14.752 321.457 14.28 321.457 13.704V12.84C321.457 12.76 321.417 12.72 321.337 12.72H319.609C318.889 12.72 318.321 12.856 317.905 13.128C317.505 13.4 317.305 13.784 317.305 14.28C317.305 14.712 317.457 15.056 317.761 15.312C318.065 15.552 318.473 15.672 318.985 15.672ZM338.145 8.808C338.449 9.64 338.601 10.632 338.601 11.784C338.601 12.888 338.465 13.856 338.193 14.688C337.825 15.776 337.233 16.632 336.417 17.256C335.617 17.88 334.665 18.192 333.561 18.192C332.393 18.192 331.473 17.752 330.801 16.872C330.769 16.84 330.737 16.832 330.705 16.848C330.673 16.848 330.657 16.872 330.657 16.92V17.712C330.657 17.792 330.625 17.864 330.561 17.928C330.513 17.976 330.449 18 330.369 18H327.561C327.481 18 327.409 17.976 327.345 17.928C327.297 17.864 327.273 17.792 327.273 17.712V1.488C327.273 1.408 327.297 1.344 327.345 1.296C327.409 1.232 327.481 1.2 327.561 1.2H330.369C330.449 1.2 330.513 1.232 330.561 1.296C330.625 1.344 330.657 1.408 330.657 1.488V6.624C330.657 6.672 330.673 6.704 330.705 6.72C330.737 6.736 330.769 6.72 330.801 6.672C331.425 5.872 332.313 5.472 333.465 5.472C334.633 5.472 335.609 5.776 336.393 6.384C337.193 6.976 337.777 7.784 338.145 8.808ZM334.593 14.256C334.929 13.648 335.097 12.848 335.097 11.856C335.097 10.752 334.905 9.904 334.521 9.312C334.137 8.688 333.569 8.376 332.817 8.376C332.113 8.376 331.577 8.688 331.209 9.312C330.857 9.92 330.681 10.76 330.681 11.832C330.681 12.904 330.841 13.712 331.161 14.256C331.545 14.944 332.105 15.288 332.841 15.288C333.625 15.288 334.209 14.944 334.593 14.256ZM345.738 5.472C346.778 5.472 347.706 5.656 348.522 6.024C349.338 6.376 349.97 6.864 350.418 7.488C350.882 8.112 351.114 8.808 351.114 9.576V17.712C351.114 17.792 351.082 17.864 351.018 17.928C350.97 17.976 350.906 18 350.826 18H348.018C347.938 18 347.866 17.976 347.802 17.928C347.754 17.864 347.73 17.792 347.73 17.712V16.92C347.73 16.872 347.714 16.84 347.682 16.824C347.65 16.808 347.618 16.824 347.586 16.872C346.914 17.752 345.834 18.192 344.346 18.192C343.098 18.192 342.09 17.888 341.322 17.28C340.554 16.672 340.17 15.776 340.17 14.592C340.17 13.36 340.602 12.408 341.466 11.736C342.33 11.048 343.562 10.704 345.162 10.704H347.61C347.69 10.704 347.73 10.664 347.73 10.584V10.056C347.73 9.528 347.57 9.12 347.25 8.832C346.93 8.528 346.45 8.376 345.81 8.376C345.314 8.376 344.898 8.464 344.562 8.64C344.242 8.816 344.034 9.064 343.938 9.384C343.89 9.56 343.786 9.64 343.626 9.624L340.722 9.24C340.53 9.208 340.442 9.136 340.458 9.024C340.522 8.352 340.786 7.744 341.25 7.2C341.73 6.656 342.354 6.232 343.122 5.928C343.906 5.624 344.778 5.472 345.738 5.472ZM345.258 15.672C345.946 15.672 346.53 15.488 347.01 15.12C347.49 14.752 347.73 14.28 347.73 13.704V12.84C347.73 12.76 347.69 12.72 347.61 12.72H345.882C345.162 12.72 344.594 12.856 344.178 13.128C343.778 13.4 343.578 13.784 343.578 14.28C343.578 14.712 343.73 15.056 344.034 15.312C344.338 15.552 344.746 15.672 345.258 15.672ZM358.418 18.168C357.346 18.168 356.41 18.016 355.61 17.712C354.81 17.408 354.186 16.984 353.738 16.44C353.306 15.896 353.09 15.28 353.09 14.592V14.352C353.09 14.272 353.114 14.208 353.162 14.16C353.226 14.096 353.298 14.064 353.378 14.064H356.042C356.122 14.064 356.186 14.096 356.234 14.16C356.298 14.208 356.33 14.272 356.33 14.352V14.376C356.33 14.728 356.522 15.032 356.906 15.288C357.306 15.528 357.802 15.648 358.394 15.648C358.938 15.648 359.378 15.544 359.714 15.336C360.05 15.112 360.218 14.84 360.218 14.52C360.218 14.232 360.074 14.016 359.786 13.872C359.498 13.728 359.026 13.576 358.37 13.416C357.618 13.224 357.026 13.04 356.594 12.864C355.57 12.512 354.754 12.08 354.146 11.568C353.538 11.056 353.234 10.32 353.234 9.36C353.234 8.176 353.69 7.24 354.602 6.552C355.53 5.848 356.754 5.496 358.274 5.496C359.298 5.496 360.194 5.664 360.962 6C361.73 6.32 362.322 6.776 362.738 7.368C363.17 7.96 363.386 8.632 363.386 9.384C363.386 9.464 363.354 9.536 363.29 9.6C363.242 9.648 363.178 9.672 363.098 9.672H360.53C360.45 9.672 360.378 9.648 360.314 9.6C360.266 9.536 360.242 9.464 360.242 9.384C360.242 9.032 360.058 8.736 359.69 8.496C359.338 8.256 358.866 8.136 358.274 8.136C357.746 8.136 357.314 8.232 356.978 8.424C356.642 8.616 356.474 8.88 356.474 9.216C356.474 9.536 356.634 9.776 356.954 9.936C357.29 10.096 357.842 10.264 358.61 10.44C358.786 10.488 358.986 10.544 359.21 10.608C359.434 10.656 359.674 10.72 359.93 10.8C361.066 11.136 361.962 11.568 362.618 12.096C363.274 12.624 363.602 13.392 363.602 14.4C363.602 15.584 363.13 16.512 362.186 17.184C361.258 17.84 360.002 18.168 358.418 18.168ZM10.568 35.368C10.632 36.024 10.656 36.76 10.64 37.576C10.64 37.736 10.56 37.816 10.4 37.816H2.744C2.68 37.816 2.648 37.848 2.648 37.912C2.648 38.456 2.696 38.872 2.792 39.16C2.968 39.8 3.32 40.304 3.848 40.672C4.392 41.024 5.072 41.2 5.888 41.2C7.072 41.2 7.984 40.712 8.624 39.736C8.704 39.576 8.808 39.552 8.936 39.664L10.304 40.576C10.416 40.672 10.44 40.776 10.376 40.888C9.928 41.608 9.288 42.176 8.456 42.592C7.64 43.008 6.712 43.216 5.672 43.216C4.504 43.216 3.52 42.96 2.72 42.448C1.92 41.936 1.32 41.208 0.92 40.264C0.536 39.32 0.344 38.176 0.344 36.832C0.344 35.664 0.432 34.776 0.608 34.168C0.896 33.064 1.472 32.192 2.336 31.552C3.2 30.912 4.248 30.592 5.48 30.592C7.096 30.592 8.304 31 9.104 31.816C9.904 32.616 10.392 33.8 10.568 35.368ZM5.48 32.584C4.792 32.584 4.224 32.76 3.776 33.112C3.328 33.448 3.024 33.904 2.864 34.48C2.752 34.832 2.68 35.28 2.648 35.824C2.648 35.888 2.68 35.92 2.744 35.92H8.24C8.304 35.92 8.336 35.888 8.336 35.824C8.304 35.296 8.256 34.904 8.192 34.648C8.032 34.024 7.712 33.528 7.232 33.16C6.768 32.776 6.184 32.584 5.48 32.584ZM18.9952 30.616C20.3072 30.616 21.3472 31 22.1152 31.768C22.8832 32.52 23.2672 33.544 23.2672 34.84V42.76C23.2672 42.92 23.1872 43 23.0272 43H21.2032C21.0432 43 20.9632 42.92 20.9632 42.76V35.296C20.9632 34.496 20.7312 33.848 20.2672 33.352C19.8032 32.856 19.1872 32.608 18.4192 32.608C17.6672 32.608 17.0512 32.856 16.5712 33.352C16.0912 33.848 15.8512 34.488 15.8512 35.272V42.76C15.8512 42.92 15.7712 43 15.6112 43H13.7872C13.6272 43 13.5472 42.92 13.5472 42.76V31.024C13.5472 30.864 13.6272 30.784 13.7872 30.784H15.6112C15.7712 30.784 15.8512 30.864 15.8512 31.024V31.888C15.8512 31.92 15.8592 31.944 15.8752 31.96C15.9072 31.976 15.9312 31.968 15.9472 31.936C16.6352 31.056 17.6512 30.616 18.9952 30.616ZM30.7117 43C30.6157 43 30.5517 42.976 30.5197 42.928C30.4877 42.864 30.4957 42.792 30.5437 42.712L35.4877 34.672C35.5197 34.624 35.5197 34.576 35.4877 34.528L30.5437 26.488C30.5117 26.424 30.4957 26.376 30.4957 26.344C30.4957 26.248 30.5677 26.2 30.7117 26.2H32.7037C32.8157 26.2 32.9117 26.256 32.9917 26.368L36.8557 32.728C36.8717 32.744 36.8957 32.752 36.9277 32.752C36.9597 32.752 36.9837 32.744 36.9997 32.728L40.8637 26.368C40.9437 26.256 41.0397 26.2 41.1517 26.2H43.1197C43.2157 26.2 43.2797 26.232 43.3117 26.296C43.3437 26.344 43.3357 26.408 43.2877 26.488L38.3677 34.552C38.3517 34.6 38.3517 34.648 38.3677 34.696L43.2877 42.712C43.3197 42.776 43.3357 42.824 43.3357 42.856C43.3357 42.952 43.2637 43 43.1197 43H41.1517C41.0397 43 40.9437 42.944 40.8637 42.832L36.9997 36.496C36.9837 36.464 36.9597 36.448 36.9277 36.448C36.8957 36.448 36.8717 36.464 36.8557 36.496L32.9917 42.832C32.9117 42.944 32.8157 43 32.7037 43H30.7117ZM50.2267 43.192C49.0427 43.192 48.0107 42.896 47.1307 42.304C46.2507 41.696 45.6347 40.856 45.2827 39.784C44.9947 38.92 44.8507 37.944 44.8507 36.856C44.8507 35.72 44.9867 34.76 45.2587 33.976C45.6107 32.92 46.2267 32.096 47.1067 31.504C47.9867 30.896 49.0347 30.592 50.2507 30.592C51.4027 30.592 52.4027 30.896 53.2507 31.504C54.1147 32.096 54.7307 32.912 55.0987 33.952C55.3867 34.768 55.5307 35.728 55.5307 36.832C55.5307 37.952 55.3867 38.936 55.0987 39.784C54.7467 40.856 54.1387 41.696 53.2747 42.304C52.4107 42.896 51.3947 43.192 50.2267 43.192ZM50.2267 41.2C50.8667 41.2 51.4267 41.024 51.9067 40.672C52.3867 40.304 52.7307 39.792 52.9387 39.136C53.1147 38.528 53.2027 37.776 53.2027 36.88C53.2027 35.984 53.1227 35.24 52.9627 34.648C52.7547 33.992 52.4107 33.488 51.9307 33.136C51.4507 32.768 50.8667 32.584 50.1787 32.584C49.5227 32.584 48.9547 32.768 48.4747 33.136C47.9947 33.488 47.6507 33.992 47.4427 34.648C47.2667 35.208 47.1787 35.952 47.1787 36.88C47.1787 37.808 47.2667 38.56 47.4427 39.136C47.6347 39.792 47.9707 40.304 48.4507 40.672C48.9467 41.024 49.5387 41.2 50.2267 41.2ZM63.4432 43.192C62.2272 43.192 61.1872 42.888 60.3232 42.28C59.4592 41.656 58.8672 40.816 58.5472 39.76C58.3072 39.024 58.1872 38.056 58.1872 36.856C58.1872 35.752 58.3072 34.784 58.5472 33.952C58.8672 32.928 59.4592 32.112 60.3232 31.504C61.2032 30.896 62.2432 30.592 63.4432 30.592C64.6432 30.592 65.6912 30.896 66.5872 31.504C67.4832 32.112 68.0672 32.88 68.3392 33.808C68.4352 34.064 68.4992 34.328 68.5312 34.6C68.5312 34.728 68.4592 34.808 68.3152 34.84L66.5152 35.104H66.4672C66.3552 35.104 66.2752 35.032 66.2272 34.888L66.1552 34.504C66.0272 33.96 65.7152 33.504 65.2192 33.136C64.7232 32.768 64.1232 32.584 63.4192 32.584C62.7312 32.584 62.1472 32.768 61.6672 33.136C61.1872 33.504 60.8752 33.992 60.7312 34.6C60.5872 35.176 60.5152 35.936 60.5152 36.88C60.5152 37.808 60.5872 38.56 60.7312 39.136C60.8912 39.776 61.2032 40.28 61.6672 40.648C62.1472 41.016 62.7312 41.2 63.4192 41.2C64.1232 41.2 64.7232 41.016 65.2192 40.648C65.7312 40.28 66.0512 39.8 66.1792 39.208C66.1952 39.192 66.1952 39.176 66.1792 39.16C66.1792 39.128 66.1872 39.104 66.2032 39.088V38.992C66.2512 38.864 66.3392 38.816 66.4672 38.848L68.2672 39.136C68.3952 39.168 68.4592 39.232 68.4592 39.328V39.424C68.4592 39.568 68.4192 39.744 68.3392 39.952C68.0672 40.928 67.4832 41.712 66.5872 42.304C65.6912 42.896 64.6432 43.192 63.4432 43.192ZM76.628 30.616C77.94 30.616 78.98 31 79.748 31.768C80.516 32.52 80.9 33.544 80.9 34.84V42.76C80.9 42.92 80.82 43 80.66 43H78.836C78.676 43 78.596 42.92 78.596 42.76V35.296C78.596 34.496 78.364 33.848 77.9 33.352C77.436 32.856 76.82 32.608 76.052 32.608C75.3 32.608 74.684 32.856 74.204 33.352C73.724 33.848 73.484 34.488 73.484 35.272V42.76C73.484 42.92 73.404 43 73.244 43H71.42C71.26 43 71.18 42.92 71.18 42.76V26.44C71.18 26.28 71.26 26.2 71.42 26.2H73.244C73.404 26.2 73.484 26.28 73.484 26.44V31.888C73.484 31.92 73.492 31.944 73.508 31.96C73.54 31.976 73.564 31.968 73.58 31.936C74.268 31.056 75.284 30.616 76.628 30.616ZM85.5798 28.864C85.1318 28.864 84.7638 28.72 84.4758 28.432C84.1878 28.144 84.0438 27.776 84.0438 27.328C84.0438 26.88 84.1878 26.512 84.4758 26.224C84.7638 25.936 85.1318 25.792 85.5798 25.792C86.0278 25.792 86.3958 25.936 86.6838 26.224C86.9718 26.512 87.1158 26.88 87.1158 27.328C87.1158 27.776 86.9718 28.144 86.6838 28.432C86.3958 28.72 86.0278 28.864 85.5798 28.864ZM84.6198 42.976C84.4598 42.976 84.3798 42.896 84.3798 42.736V31.024C84.3798 30.864 84.4598 30.784 84.6198 30.784H86.4438C86.6038 30.784 86.6838 30.864 86.6838 31.024V42.736C86.6838 42.896 86.6038 42.976 86.4438 42.976H84.6198ZM103.001 30.616C104.217 30.616 105.177 30.984 105.881 31.72C106.585 32.44 106.937 33.448 106.937 34.744V42.76C106.937 42.92 106.857 43 106.697 43H104.897C104.737 43 104.657 42.92 104.657 42.76V35.224C104.657 34.424 104.433 33.792 103.985 33.328C103.553 32.848 102.969 32.608 102.233 32.608C101.497 32.608 100.897 32.84 100.433 33.304C99.969 33.768 99.737 34.392 99.737 35.176V42.76C99.737 42.92 99.657 43 99.497 43H97.697C97.537 43 97.457 42.92 97.457 42.76V35.224C97.457 34.424 97.233 33.792 96.785 33.328C96.353 32.848 95.769 32.608 95.033 32.608C94.297 32.608 93.705 32.84 93.257 33.304C92.825 33.768 92.609 34.392 92.609 35.176V42.76C92.609 42.92 92.529 43 92.369 43H90.545C90.385 43 90.305 42.92 90.305 42.76V31.024C90.305 30.864 90.385 30.784 90.545 30.784H92.369C92.529 30.784 92.609 30.864 92.609 31.024V31.84C92.609 31.872 92.617 31.896 92.633 31.912C92.665 31.928 92.697 31.92 92.729 31.888C93.433 31.04 94.457 30.616 95.801 30.616C96.617 30.616 97.313 30.776 97.889 31.096C98.465 31.4 98.913 31.856 99.233 32.464C99.281 32.528 99.329 32.528 99.377 32.464C99.761 31.84 100.265 31.376 100.889 31.072C101.529 30.768 102.233 30.616 103.001 30.616ZM111.525 28.864C111.077 28.864 110.709 28.72 110.421 28.432C110.133 28.144 109.989 27.776 109.989 27.328C109.989 26.88 110.133 26.512 110.421 26.224C110.709 25.936 111.077 25.792 111.525 25.792C111.973 25.792 112.341 25.936 112.629 26.224C112.917 26.512 113.061 26.88 113.061 27.328C113.061 27.776 112.917 28.144 112.629 28.432C112.341 28.72 111.973 28.864 111.525 28.864ZM110.565 42.976C110.405 42.976 110.325 42.896 110.325 42.736V31.024C110.325 30.864 110.405 30.784 110.565 30.784H112.389C112.549 30.784 112.629 30.864 112.629 31.024V42.736C112.629 42.896 112.549 42.976 112.389 42.976H110.565ZM116.49 43C116.33 43 116.25 42.92 116.25 42.76V26.44C116.25 26.28 116.33 26.2 116.49 26.2H118.314C118.474 26.2 118.554 26.28 118.554 26.44V42.76C118.554 42.92 118.474 43 118.314 43H116.49ZM126.795 43.192C125.579 43.192 124.539 42.888 123.675 42.28C122.811 41.656 122.219 40.816 121.899 39.76C121.659 39.024 121.539 38.056 121.539 36.856C121.539 35.752 121.659 34.784 121.899 33.952C122.219 32.928 122.811 32.112 123.675 31.504C124.555 30.896 125.595 30.592 126.795 30.592C127.995 30.592 129.043 30.896 129.939 31.504C130.835 32.112 131.419 32.88 131.691 33.808C131.787 34.064 131.851 34.328 131.883 34.6C131.883 34.728 131.811 34.808 131.667 34.84L129.867 35.104H129.819C129.707 35.104 129.627 35.032 129.579 34.888L129.507 34.504C129.379 33.96 129.067 33.504 128.571 33.136C128.075 32.768 127.475 32.584 126.771 32.584C126.083 32.584 125.499 32.768 125.019 33.136C124.539 33.504 124.227 33.992 124.083 34.6C123.939 35.176 123.867 35.936 123.867 36.88C123.867 37.808 123.939 38.56 124.083 39.136C124.243 39.776 124.555 40.28 125.019 40.648C125.499 41.016 126.083 41.2 126.771 41.2C127.475 41.2 128.075 41.016 128.571 40.648C129.083 40.28 129.403 39.8 129.531 39.208C129.547 39.192 129.547 39.176 129.531 39.16C129.531 39.128 129.539 39.104 129.555 39.088V38.992C129.603 38.864 129.691 38.816 129.819 38.848L131.619 39.136C131.747 39.168 131.811 39.232 131.811 39.328V39.424C131.811 39.568 131.771 39.744 131.691 39.952C131.419 40.928 130.835 41.712 129.939 42.304C129.043 42.896 127.995 43.192 126.795 43.192ZM139.43 43.192C138.246 43.192 137.214 42.896 136.334 42.304C135.454 41.696 134.838 40.856 134.486 39.784C134.198 38.92 134.054 37.944 134.054 36.856C134.054 35.72 134.19 34.76 134.462 33.976C134.814 32.92 135.43 32.096 136.31 31.504C137.19 30.896 138.238 30.592 139.454 30.592C140.606 30.592 141.606 30.896 142.454 31.504C143.318 32.096 143.934 32.912 144.302 33.952C144.59 34.768 144.734 35.728 144.734 36.832C144.734 37.952 144.59 38.936 144.302 39.784C143.95 40.856 143.342 41.696 142.478 42.304C141.614 42.896 140.598 43.192 139.43 43.192ZM139.43 41.2C140.07 41.2 140.63 41.024 141.11 40.672C141.59 40.304 141.934 39.792 142.142 39.136C142.318 38.528 142.406 37.776 142.406 36.88C142.406 35.984 142.326 35.24 142.166 34.648C141.958 33.992 141.614 33.488 141.134 33.136C140.654 32.768 140.07 32.584 139.382 32.584C138.726 32.584 138.158 32.768 137.678 33.136C137.198 33.488 136.854 33.992 136.646 34.648C136.47 35.208 136.382 35.952 136.382 36.88C136.382 37.808 136.47 38.56 136.646 39.136C136.838 39.792 137.174 40.304 137.654 40.672C138.15 41.024 138.742 41.2 139.43 41.2Z" fill="#EB6540"/>
</svg>
