<svg width="367" height="44" viewBox="0 0 367 44" fill="none" xmlns="http://www.w3.org/2000/svg">
<path d="M11.856 1.44C11.856 1.28 11.936 1.2 12.096 1.2H13.92C14.08 1.2 14.16 1.28 14.16 1.44V17.76C14.16 17.92 14.08 18 13.92 18H12.168C12.056 18 11.96 17.944 11.88 17.832L4.368 5.568C4.352 5.52 4.328 5.504 4.296 5.52C4.264 5.52 4.248 5.544 4.248 5.592L4.272 17.76C4.272 17.92 4.192 18 4.032 18H2.208C2.048 18 1.968 17.92 1.968 17.76V1.44C1.968 1.28 2.048 1.2 2.208 1.2H3.984C4.096 1.2 4.192 1.256 4.272 1.368L11.76 13.632C11.776 13.68 11.8 13.704 11.832 13.704C11.864 13.688 11.88 13.656 11.88 13.608L11.856 1.44ZM22.8204 18.192C21.6364 18.192 20.6044 17.896 19.7244 17.304C18.8444 16.696 18.2284 15.856 17.8764 14.784C17.5884 13.92 17.4444 12.944 17.4444 11.856C17.4444 10.72 17.5804 9.76 17.8524 8.976C18.2044 7.92 18.8204 7.096 19.7004 6.504C20.5804 5.896 21.6284 5.592 22.8444 5.592C23.9964 5.592 24.9964 5.896 25.8444 6.504C26.7084 7.096 27.3244 7.912 27.6924 8.952C27.9804 9.768 28.1244 10.728 28.1244 11.832C28.1244 12.952 27.9804 13.936 27.6924 14.784C27.3404 15.856 26.7324 16.696 25.8684 17.304C25.0044 17.896 23.9884 18.192 22.8204 18.192ZM22.8204 16.2C23.4604 16.2 24.0204 16.024 24.5004 15.672C24.9804 15.304 25.3244 14.792 25.5324 14.136C25.7084 13.528 25.7964 12.776 25.7964 11.88C25.7964 10.984 25.7164 10.24 25.5564 9.648C25.3484 8.992 25.0044 8.488 24.5244 8.136C24.0444 7.768 23.4604 7.584 22.7724 7.584C22.1164 7.584 21.5484 7.768 21.0684 8.136C20.5884 8.488 20.2444 8.992 20.0364 9.648C19.8604 10.208 19.7724 10.952 19.7724 11.88C19.7724 12.808 19.8604 13.56 20.0364 14.136C20.2284 14.792 20.5644 15.304 21.0444 15.672C21.5404 16.024 22.1324 16.2 22.8204 16.2ZM35.4369 18.144C34.4769 18.144 33.6289 18 32.8929 17.712C32.1729 17.424 31.6129 17.032 31.2129 16.536C30.8129 16.024 30.6129 15.464 30.6129 14.856V14.592C30.6129 14.432 30.6929 14.352 30.8529 14.352H32.5809C32.7409 14.352 32.8209 14.432 32.8209 14.592V14.712C32.8209 15.16 33.0609 15.552 33.5409 15.888C34.0369 16.224 34.6609 16.392 35.4129 16.392C36.1329 16.392 36.7169 16.24 37.1649 15.936C37.6129 15.616 37.8369 15.216 37.8369 14.736C37.8369 14.272 37.6289 13.928 37.2129 13.704C36.7969 13.464 36.1249 13.216 35.1969 12.96C34.2849 12.704 33.5169 12.448 32.8929 12.192C32.2849 11.92 31.7649 11.544 31.3329 11.064C30.9169 10.568 30.7089 9.936 30.7089 9.168C30.7089 8.096 31.1249 7.248 31.9569 6.624C32.8049 5.984 33.9249 5.664 35.3169 5.664C36.2449 5.664 37.0609 5.816 37.7649 6.12C38.4849 6.408 39.0369 6.816 39.4209 7.344C39.8049 7.872 39.9969 8.464 39.9969 9.12V9.192C39.9969 9.352 39.9169 9.432 39.7569 9.432H38.0769C37.9169 9.432 37.8369 9.352 37.8369 9.192V9.12C37.8369 8.656 37.6049 8.272 37.1409 7.968C36.6929 7.648 36.0769 7.488 35.2929 7.488C34.5889 7.488 34.0129 7.624 33.5649 7.896C33.1329 8.168 32.9169 8.536 32.9169 9C32.9169 9.464 33.1249 9.816 33.5409 10.056C33.9729 10.296 34.6609 10.552 35.6049 10.824C36.5329 11.08 37.3009 11.336 37.9089 11.592C38.5329 11.832 39.0609 12.2 39.4929 12.696C39.9249 13.176 40.1409 13.808 40.1409 14.592C40.1409 15.68 39.7089 16.544 38.8449 17.184C37.9969 17.824 36.8609 18.144 35.4369 18.144ZM57.5289 10.368C57.5929 11.024 57.6169 11.76 57.6009 12.576C57.6009 12.736 57.5209 12.816 57.3609 12.816H49.7049C49.6409 12.816 49.6089 12.848 49.6089 12.912C49.6089 13.456 49.6569 13.872 49.7529 14.16C49.9289 14.8 50.2809 15.304 50.8089 15.672C51.3529 16.024 52.0329 16.2 52.8489 16.2C54.0329 16.2 54.9449 15.712 55.5849 14.736C55.6649 14.576 55.7689 14.552 55.8969 14.664L57.2649 15.576C57.3769 15.672 57.4009 15.776 57.3369 15.888C56.8889 16.608 56.2489 17.176 55.4169 17.592C54.6009 18.008 53.6729 18.216 52.6329 18.216C51.4649 18.216 50.4809 17.96 49.6809 17.448C48.8809 16.936 48.2809 16.208 47.8809 15.264C47.4969 14.32 47.3049 13.176 47.3049 11.832C47.3049 10.664 47.3929 9.776 47.5689 9.168C47.8569 8.064 48.4329 7.192 49.2969 6.552C50.1609 5.912 51.2089 5.592 52.4409 5.592C54.0569 5.592 55.2649 6 56.0649 6.816C56.8649 7.616 57.3529 8.8 57.5289 10.368ZM52.4409 7.584C51.7529 7.584 51.1849 7.76 50.7369 8.112C50.2889 8.448 49.9849 8.904 49.8249 9.48C49.7129 9.832 49.6409 10.28 49.6089 10.824C49.6089 10.888 49.6409 10.92 49.7049 10.92H55.2009C55.2649 10.92 55.2969 10.888 55.2969 10.824C55.2649 10.296 55.2169 9.904 55.1529 9.648C54.9929 9.024 54.6729 8.528 54.1929 8.16C53.7289 7.776 53.1449 7.584 52.4409 7.584ZM73.2041 5.616C74.4201 5.616 75.3801 5.984 76.0841 6.72C76.7881 7.44 77.1401 8.448 77.1401 9.744V17.76C77.1401 17.92 77.0601 18 76.9001 18H75.1001C74.9401 18 74.8601 17.92 74.8601 17.76V10.224C74.8601 9.424 74.6361 8.792 74.1881 8.328C73.7561 7.848 73.1721 7.608 72.4361 7.608C71.7001 7.608 71.1001 7.84 70.6361 8.304C70.1721 8.768 69.9401 9.392 69.9401 10.176V17.76C69.9401 17.92 69.8601 18 69.7001 18H67.9001C67.7401 18 67.6601 17.92 67.6601 17.76V10.224C67.6601 9.424 67.4361 8.792 66.9881 8.328C66.5561 7.848 65.9721 7.608 65.2361 7.608C64.5001 7.608 63.9081 7.84 63.4601 8.304C63.0281 8.768 62.8121 9.392 62.8121 10.176V17.76C62.8121 17.92 62.7321 18 62.5721 18H60.7481C60.5881 18 60.5081 17.92 60.5081 17.76V6.024C60.5081 5.864 60.5881 5.784 60.7481 5.784H62.5721C62.7321 5.784 62.8121 5.864 62.8121 6.024V6.84C62.8121 6.872 62.8201 6.896 62.8361 6.912C62.8681 6.928 62.9001 6.92 62.9321 6.888C63.6361 6.04 64.6601 5.616 66.0041 5.616C66.8201 5.616 67.5161 5.776 68.0921 6.096C68.6681 6.4 69.1161 6.856 69.4361 7.464C69.4841 7.528 69.5321 7.528 69.5801 7.464C69.9641 6.84 70.4681 6.376 71.0921 6.072C71.7321 5.768 72.4361 5.616 73.2041 5.616ZM85.1876 18.192C84.0036 18.192 82.9716 17.896 82.0916 17.304C81.2116 16.696 80.5956 15.856 80.2436 14.784C79.9556 13.92 79.8116 12.944 79.8116 11.856C79.8116 10.72 79.9476 9.76 80.2196 8.976C80.5716 7.92 81.1876 7.096 82.0676 6.504C82.9476 5.896 83.9956 5.592 85.2116 5.592C86.3636 5.592 87.3636 5.896 88.2116 6.504C89.0756 7.096 89.6916 7.912 90.0596 8.952C90.3476 9.768 90.4916 10.728 90.4916 11.832C90.4916 12.952 90.3476 13.936 90.0596 14.784C89.7076 15.856 89.0996 16.696 88.2356 17.304C87.3716 17.896 86.3556 18.192 85.1876 18.192ZM85.1876 16.2C85.8276 16.2 86.3876 16.024 86.8676 15.672C87.3476 15.304 87.6916 14.792 87.8996 14.136C88.0756 13.528 88.1636 12.776 88.1636 11.88C88.1636 10.984 88.0836 10.24 87.9236 9.648C87.7156 8.992 87.3716 8.488 86.8916 8.136C86.4116 7.768 85.8276 7.584 85.1396 7.584C84.4836 7.584 83.9156 7.768 83.4356 8.136C82.9556 8.488 82.6116 8.992 82.4036 9.648C82.2276 10.208 82.1396 10.952 82.1396 11.88C82.1396 12.808 82.2276 13.56 82.4036 14.136C82.5956 14.792 82.9316 15.304 83.4116 15.672C83.9076 16.024 84.4996 16.2 85.1876 16.2ZM98.4041 18.192C97.1881 18.192 96.1481 17.888 95.2841 17.28C94.4201 16.656 93.8281 15.816 93.5081 14.76C93.2681 14.024 93.1481 13.056 93.1481 11.856C93.1481 10.752 93.2681 9.784 93.5081 8.952C93.8281 7.928 94.4201 7.112 95.2841 6.504C96.1641 5.896 97.2041 5.592 98.4041 5.592C99.6041 5.592 100.652 5.896 101.548 6.504C102.444 7.112 103.028 7.88 103.3 8.808C103.396 9.064 103.46 9.328 103.492 9.6C103.492 9.728 103.42 9.808 103.276 9.84L101.476 10.104H101.428C101.316 10.104 101.236 10.032 101.188 9.888L101.116 9.504C100.988 8.96 100.676 8.504 100.18 8.136C99.6841 7.768 99.0841 7.584 98.3801 7.584C97.6921 7.584 97.1081 7.768 96.6281 8.136C96.1481 8.504 95.8361 8.992 95.6921 9.6C95.5481 10.176 95.4761 10.936 95.4761 11.88C95.4761 12.808 95.5481 13.56 95.6921 14.136C95.8521 14.776 96.1641 15.28 96.6281 15.648C97.1081 16.016 97.6921 16.2 98.3801 16.2C99.0841 16.2 99.6841 16.016 100.18 15.648C100.692 15.28 101.012 14.8 101.14 14.208C101.156 14.192 101.156 14.176 101.14 14.16C101.14 14.128 101.148 14.104 101.164 14.088V13.992C101.212 13.864 101.3 13.816 101.428 13.848L103.228 14.136C103.356 14.168 103.42 14.232 103.42 14.328V14.424C103.42 14.568 103.38 14.744 103.3 14.952C103.028 15.928 102.444 16.712 101.548 17.304C100.652 17.896 99.6041 18.192 98.4041 18.192ZM107.533 3.864C107.085 3.864 106.717 3.72 106.429 3.432C106.141 3.144 105.997 2.776 105.997 2.328C105.997 1.88 106.141 1.512 106.429 1.224C106.717 0.935999 107.085 0.792 107.533 0.792C107.981 0.792 108.349 0.935999 108.637 1.224C108.925 1.512 109.069 1.88 109.069 2.328C109.069 2.776 108.925 3.144 108.637 3.432C108.349 3.72 107.981 3.864 107.533 3.864ZM106.573 17.976C106.413 17.976 106.333 17.896 106.333 17.736V6.024C106.333 5.864 106.413 5.784 106.573 5.784H108.397C108.557 5.784 108.637 5.864 108.637 6.024V17.736C108.637 17.896 108.557 17.976 108.397 17.976H106.573ZM117.25 18.192C116.066 18.192 115.034 17.896 114.154 17.304C113.274 16.696 112.658 15.856 112.306 14.784C112.018 13.92 111.874 12.944 111.874 11.856C111.874 10.72 112.01 9.76 112.282 8.976C112.634 7.92 113.25 7.096 114.13 6.504C115.01 5.896 116.058 5.592 117.274 5.592C118.426 5.592 119.426 5.896 120.274 6.504C121.138 7.096 121.754 7.912 122.122 8.952C122.41 9.768 122.554 10.728 122.554 11.832C122.554 12.952 122.41 13.936 122.122 14.784C121.77 15.856 121.162 16.696 120.298 17.304C119.434 17.896 118.418 18.192 117.25 18.192ZM117.25 16.2C117.89 16.2 118.45 16.024 118.93 15.672C119.41 15.304 119.754 14.792 119.962 14.136C120.138 13.528 120.226 12.776 120.226 11.88C120.226 10.984 120.146 10.24 119.986 9.648C119.778 8.992 119.434 8.488 118.954 8.136C118.474 7.768 117.89 7.584 117.202 7.584C116.546 7.584 115.978 7.768 115.498 8.136C115.018 8.488 114.674 8.992 114.466 9.648C114.29 10.208 114.202 10.952 114.202 11.88C114.202 12.808 114.29 13.56 114.466 14.136C114.658 14.792 114.994 15.304 115.474 15.672C115.97 16.024 116.562 16.2 117.25 16.2ZM131.019 5.616C132.331 5.616 133.371 6 134.139 6.768C134.907 7.52 135.291 8.544 135.291 9.84V17.76C135.291 17.92 135.211 18 135.051 18H133.227C133.067 18 132.987 17.92 132.987 17.76V10.296C132.987 9.496 132.755 8.848 132.291 8.352C131.827 7.856 131.211 7.608 130.443 7.608C129.691 7.608 129.075 7.856 128.595 8.352C128.115 8.848 127.875 9.488 127.875 10.272V17.76C127.875 17.92 127.795 18 127.635 18H125.811C125.651 18 125.571 17.92 125.571 17.76V6.024C125.571 5.864 125.651 5.784 125.811 5.784H127.635C127.795 5.784 127.875 5.864 127.875 6.024V6.888C127.875 6.92 127.883 6.944 127.899 6.96C127.931 6.976 127.955 6.968 127.971 6.936C128.659 6.056 129.675 5.616 131.019 5.616ZM143.042 5.592C144.018 5.592 144.866 5.768 145.586 6.12C146.322 6.456 146.882 6.936 147.266 7.56C147.666 8.168 147.866 8.864 147.866 9.648V17.76C147.866 17.92 147.786 18 147.626 18H145.802C145.642 18 145.562 17.92 145.562 17.76V16.896C145.562 16.816 145.522 16.8 145.442 16.848C145.026 17.28 144.514 17.616 143.906 17.856C143.314 18.08 142.65 18.192 141.914 18.192C140.73 18.192 139.746 17.896 138.962 17.304C138.194 16.696 137.81 15.784 137.81 14.568C137.81 13.32 138.242 12.344 139.106 11.64C139.986 10.92 141.21 10.56 142.778 10.56H145.466C145.53 10.56 145.562 10.528 145.562 10.464V9.816C145.562 9.112 145.354 8.568 144.938 8.184C144.538 7.784 143.922 7.584 143.09 7.584C142.418 7.584 141.866 7.72 141.434 7.992C141.018 8.248 140.762 8.6 140.666 9.048C140.618 9.208 140.522 9.28 140.378 9.264L138.434 9C138.274 8.968 138.202 8.904 138.218 8.808C138.346 7.864 138.85 7.096 139.73 6.504C140.61 5.896 141.714 5.592 143.042 5.592ZM142.418 16.248C143.266 16.248 144.002 16.024 144.626 15.576C145.25 15.128 145.562 14.56 145.562 13.872V12.456C145.562 12.392 145.53 12.36 145.466 12.36H143.21C142.266 12.36 141.514 12.544 140.954 12.912C140.394 13.28 140.114 13.792 140.114 14.448C140.114 15.04 140.322 15.488 140.738 15.792C141.17 16.096 141.73 16.248 142.418 16.248ZM168.478 5.616C169.694 5.616 170.654 5.984 171.358 6.72C172.062 7.44 172.414 8.448 172.414 9.744V17.76C172.414 17.92 172.334 18 172.174 18H170.374C170.214 18 170.134 17.92 170.134 17.76V10.224C170.134 9.424 169.91 8.792 169.462 8.328C169.03 7.848 168.446 7.608 167.71 7.608C166.974 7.608 166.374 7.84 165.91 8.304C165.446 8.768 165.214 9.392 165.214 10.176V17.76C165.214 17.92 165.134 18 164.974 18H163.174C163.014 18 162.934 17.92 162.934 17.76V10.224C162.934 9.424 162.71 8.792 162.262 8.328C161.83 7.848 161.246 7.608 160.51 7.608C159.774 7.608 159.182 7.84 158.734 8.304C158.302 8.768 158.086 9.392 158.086 10.176V17.76C158.086 17.92 158.006 18 157.846 18H156.022C155.862 18 155.782 17.92 155.782 17.76V6.024C155.782 5.864 155.862 5.784 156.022 5.784H157.846C158.006 5.784 158.086 5.864 158.086 6.024V6.84C158.086 6.872 158.094 6.896 158.11 6.912C158.142 6.928 158.174 6.92 158.206 6.888C158.91 6.04 159.934 5.616 161.278 5.616C162.094 5.616 162.79 5.776 163.366 6.096C163.942 6.4 164.39 6.856 164.71 7.464C164.758 7.528 164.806 7.528 164.854 7.464C165.238 6.84 165.742 6.376 166.366 6.072C167.006 5.768 167.71 5.616 168.478 5.616ZM182.882 6.024C182.882 5.864 182.962 5.784 183.122 5.784H184.922C185.082 5.784 185.162 5.864 185.162 6.024V17.76C185.162 17.92 185.082 18 184.922 18H183.122C182.962 18 182.882 17.92 182.882 17.76V16.872C182.882 16.84 182.866 16.824 182.834 16.824C182.818 16.808 182.794 16.816 182.762 16.848C182.122 17.728 181.138 18.168 179.81 18.168C179.026 18.168 178.298 18.016 177.626 17.712C176.97 17.408 176.442 16.96 176.042 16.368C175.642 15.776 175.442 15.056 175.442 14.208V6.024C175.442 5.864 175.522 5.784 175.682 5.784H177.482C177.642 5.784 177.722 5.864 177.722 6.024V13.488C177.722 14.32 177.938 14.976 178.37 15.456C178.818 15.936 179.442 16.176 180.242 16.176C181.042 16.176 181.682 15.936 182.162 15.456C182.642 14.96 182.882 14.304 182.882 13.488V6.024ZM193.42 18.192C192.204 18.192 191.164 17.888 190.3 17.28C189.436 16.656 188.844 15.816 188.524 14.76C188.284 14.024 188.164 13.056 188.164 11.856C188.164 10.752 188.284 9.784 188.524 8.952C188.844 7.928 189.436 7.112 190.3 6.504C191.18 5.896 192.22 5.592 193.42 5.592C194.62 5.592 195.668 5.896 196.564 6.504C197.46 7.112 198.044 7.88 198.316 8.808C198.412 9.064 198.476 9.328 198.508 9.6C198.508 9.728 198.436 9.808 198.292 9.84L196.492 10.104H196.444C196.332 10.104 196.252 10.032 196.204 9.888L196.132 9.504C196.004 8.96 195.692 8.504 195.196 8.136C194.7 7.768 194.1 7.584 193.396 7.584C192.708 7.584 192.124 7.768 191.644 8.136C191.164 8.504 190.852 8.992 190.708 9.6C190.564 10.176 190.492 10.936 190.492 11.88C190.492 12.808 190.564 13.56 190.708 14.136C190.868 14.776 191.18 15.28 191.644 15.648C192.124 16.016 192.708 16.2 193.396 16.2C194.1 16.2 194.7 16.016 195.196 15.648C195.708 15.28 196.028 14.8 196.156 14.208C196.172 14.192 196.172 14.176 196.156 14.16C196.156 14.128 196.164 14.104 196.18 14.088V13.992C196.228 13.864 196.316 13.816 196.444 13.848L198.244 14.136C198.372 14.168 198.436 14.232 198.436 14.328V14.424C198.436 14.568 198.396 14.744 198.316 14.952C198.044 15.928 197.46 16.712 196.564 17.304C195.668 17.896 194.62 18.192 193.42 18.192ZM206.605 5.616C207.917 5.616 208.957 6 209.725 6.768C210.493 7.52 210.877 8.544 210.877 9.84V17.76C210.877 17.92 210.797 18 210.637 18H208.813C208.653 18 208.573 17.92 208.573 17.76V10.296C208.573 9.496 208.341 8.848 207.877 8.352C207.413 7.856 206.797 7.608 206.029 7.608C205.277 7.608 204.661 7.856 204.181 8.352C203.701 8.848 203.461 9.488 203.461 10.272V17.76C203.461 17.92 203.381 18 203.221 18H201.397C201.237 18 201.157 17.92 201.157 17.76V1.44C201.157 1.28 201.237 1.2 201.397 1.2H203.221C203.381 1.2 203.461 1.28 203.461 1.44V6.888C203.461 6.92 203.469 6.944 203.485 6.96C203.517 6.976 203.541 6.968 203.557 6.936C204.245 6.056 205.261 5.616 206.605 5.616ZM219.016 18.192C217.832 18.192 216.8 17.896 215.92 17.304C215.04 16.696 214.424 15.856 214.072 14.784C213.784 13.92 213.64 12.944 213.64 11.856C213.64 10.72 213.776 9.76 214.048 8.976C214.4 7.92 215.016 7.096 215.896 6.504C216.776 5.896 217.824 5.592 219.04 5.592C220.192 5.592 221.192 5.896 222.04 6.504C222.904 7.096 223.52 7.912 223.888 8.952C224.176 9.768 224.32 10.728 224.32 11.832C224.32 12.952 224.176 13.936 223.888 14.784C223.536 15.856 222.928 16.696 222.064 17.304C221.2 17.896 220.184 18.192 219.016 18.192ZM219.016 16.2C219.656 16.2 220.216 16.024 220.696 15.672C221.176 15.304 221.52 14.792 221.728 14.136C221.904 13.528 221.992 12.776 221.992 11.88C221.992 10.984 221.912 10.24 221.752 9.648C221.544 8.992 221.2 8.488 220.72 8.136C220.24 7.768 219.656 7.584 218.968 7.584C218.312 7.584 217.744 7.768 217.264 8.136C216.784 8.488 216.44 8.992 216.232 9.648C216.056 10.208 215.968 10.952 215.968 11.88C215.968 12.808 216.056 13.56 216.232 14.136C216.424 14.792 216.76 15.304 217.24 15.672C217.736 16.024 218.328 16.2 219.016 16.2ZM238.165 7.44C238.165 7.6 238.085 7.68 237.925 7.68H235.333C235.269 7.68 235.237 7.712 235.237 7.776V14.136C235.237 14.808 235.389 15.296 235.693 15.6C235.997 15.888 236.469 16.032 237.109 16.032H237.805C237.965 16.032 238.045 16.112 238.045 16.272V17.76C238.045 17.92 237.965 18 237.805 18C237.293 18.032 236.925 18.048 236.701 18.048C235.485 18.048 234.565 17.832 233.941 17.4C233.333 16.952 233.029 16.136 233.029 14.952V7.776C233.029 7.712 232.997 7.68 232.933 7.68H231.469C231.309 7.68 231.229 7.6 231.229 7.44V6.024C231.229 5.864 231.309 5.784 231.469 5.784H232.933C232.997 5.784 233.029 5.752 233.029 5.688V2.856C233.029 2.696 233.109 2.616 233.269 2.616H234.997C235.157 2.616 235.237 2.696 235.237 2.856V5.688C235.237 5.752 235.269 5.784 235.333 5.784H237.925C238.085 5.784 238.165 5.864 238.165 6.024V7.44ZM250.607 10.368C250.671 11.024 250.695 11.76 250.679 12.576C250.679 12.736 250.599 12.816 250.439 12.816H242.783C242.719 12.816 242.687 12.848 242.687 12.912C242.687 13.456 242.735 13.872 242.831 14.16C243.007 14.8 243.359 15.304 243.887 15.672C244.431 16.024 245.111 16.2 245.927 16.2C247.111 16.2 248.023 15.712 248.663 14.736C248.743 14.576 248.847 14.552 248.975 14.664L250.343 15.576C250.455 15.672 250.479 15.776 250.415 15.888C249.967 16.608 249.327 17.176 248.495 17.592C247.679 18.008 246.751 18.216 245.711 18.216C244.543 18.216 243.559 17.96 242.759 17.448C241.959 16.936 241.359 16.208 240.959 15.264C240.575 14.32 240.383 13.176 240.383 11.832C240.383 10.664 240.471 9.776 240.647 9.168C240.935 8.064 241.511 7.192 242.375 6.552C243.239 5.912 244.287 5.592 245.519 5.592C247.135 5.592 248.343 6 249.143 6.816C249.943 7.616 250.431 8.8 250.607 10.368ZM245.519 7.584C244.831 7.584 244.263 7.76 243.815 8.112C243.367 8.448 243.063 8.904 242.903 9.48C242.791 9.832 242.719 10.28 242.687 10.824C242.687 10.888 242.719 10.92 242.783 10.92H248.279C248.343 10.92 248.375 10.888 248.375 10.824C248.343 10.296 248.295 9.904 248.231 9.648C248.071 9.024 247.751 8.528 247.271 8.16C246.807 7.776 246.223 7.584 245.519 7.584ZM259.034 5.616C260.346 5.616 261.386 6 262.154 6.768C262.922 7.52 263.306 8.544 263.306 9.84V17.76C263.306 17.92 263.226 18 263.066 18H261.242C261.082 18 261.002 17.92 261.002 17.76V10.296C261.002 9.496 260.77 8.848 260.306 8.352C259.842 7.856 259.226 7.608 258.458 7.608C257.706 7.608 257.09 7.856 256.61 8.352C256.13 8.848 255.89 9.488 255.89 10.272V17.76C255.89 17.92 255.81 18 255.65 18H253.826C253.666 18 253.586 17.92 253.586 17.76V6.024C253.586 5.864 253.666 5.784 253.826 5.784H255.65C255.81 5.784 255.89 5.864 255.89 6.024V6.888C255.89 6.92 255.898 6.944 255.914 6.96C255.946 6.976 255.97 6.968 255.986 6.936C256.674 6.056 257.69 5.616 259.034 5.616ZM276.341 10.368C276.405 11.024 276.429 11.76 276.413 12.576C276.413 12.736 276.333 12.816 276.173 12.816H268.517C268.453 12.816 268.421 12.848 268.421 12.912C268.421 13.456 268.469 13.872 268.565 14.16C268.741 14.8 269.093 15.304 269.621 15.672C270.165 16.024 270.845 16.2 271.661 16.2C272.845 16.2 273.757 15.712 274.397 14.736C274.477 14.576 274.581 14.552 274.709 14.664L276.077 15.576C276.189 15.672 276.213 15.776 276.149 15.888C275.701 16.608 275.061 17.176 274.229 17.592C273.413 18.008 272.485 18.216 271.445 18.216C270.277 18.216 269.293 17.96 268.493 17.448C267.693 16.936 267.093 16.208 266.693 15.264C266.309 14.32 266.117 13.176 266.117 11.832C266.117 10.664 266.205 9.776 266.381 9.168C266.669 8.064 267.245 7.192 268.109 6.552C268.973 5.912 270.021 5.592 271.253 5.592C272.869 5.592 274.077 6 274.877 6.816C275.677 7.616 276.165 8.8 276.341 10.368ZM271.253 7.584C270.565 7.584 269.997 7.76 269.549 8.112C269.101 8.448 268.797 8.904 268.637 9.48C268.525 9.832 268.453 10.28 268.421 10.824C268.421 10.888 268.453 10.92 268.517 10.92H274.013C274.077 10.92 274.109 10.888 274.109 10.824C274.077 10.296 274.029 9.904 273.965 9.648C273.805 9.024 273.485 8.528 273.005 8.16C272.541 7.776 271.957 7.584 271.253 7.584ZM284.673 5.664C285.185 5.664 285.649 5.768 286.065 5.976C286.177 6.024 286.217 6.12 286.185 6.264L285.801 8.064C285.785 8.208 285.689 8.256 285.513 8.208C285.241 8.096 284.921 8.04 284.553 8.04L284.217 8.064C283.465 8.096 282.841 8.36 282.345 8.856C281.865 9.336 281.625 9.968 281.625 10.752V17.76C281.625 17.92 281.545 18 281.385 18H279.561C279.401 18 279.321 17.92 279.321 17.76V6.024C279.321 5.864 279.401 5.784 279.561 5.784H281.385C281.545 5.784 281.625 5.864 281.625 6.024V7.296C281.625 7.344 281.633 7.376 281.649 7.392C281.681 7.392 281.705 7.376 281.721 7.344C282.441 6.224 283.425 5.664 284.673 5.664ZM292.672 22.776C292.56 22.776 292.504 22.696 292.504 22.536V21.12C292.504 20.96 292.584 20.88 292.744 20.88H292.792C293.432 20.864 293.936 20.784 294.304 20.64C294.672 20.496 294.976 20.224 295.216 19.824C295.456 19.44 295.688 18.856 295.912 18.072C295.928 18.056 295.928 18.032 295.912 18C295.912 17.952 295.912 17.928 295.912 17.928L291.904 6.048L291.88 5.952C291.88 5.84 291.952 5.784 292.096 5.784H294.04C294.184 5.784 294.28 5.848 294.328 5.976L297.04 15.024C297.056 15.056 297.08 15.072 297.112 15.072C297.144 15.072 297.168 15.056 297.184 15.024L299.872 5.976C299.92 5.848 300.016 5.784 300.16 5.784H302.056C302.232 5.784 302.296 5.872 302.248 6.048L297.88 18.84C297.512 19.944 297.144 20.76 296.776 21.288C296.408 21.832 295.928 22.216 295.336 22.44C294.744 22.664 293.912 22.776 292.84 22.776H292.672ZM314.698 5.616C316.01 5.616 317.05 6 317.818 6.768C318.586 7.52 318.97 8.544 318.97 9.84V17.76C318.97 17.92 318.89 18 318.73 18H316.906C316.746 18 316.666 17.92 316.666 17.76V10.296C316.666 9.496 316.434 8.848 315.97 8.352C315.506 7.856 314.89 7.608 314.122 7.608C313.37 7.608 312.754 7.856 312.274 8.352C311.794 8.848 311.554 9.488 311.554 10.272V17.76C311.554 17.92 311.474 18 311.314 18H309.49C309.33 18 309.25 17.92 309.25 17.76V1.44C309.25 1.28 309.33 1.2 309.49 1.2H311.314C311.474 1.2 311.554 1.28 311.554 1.44V6.888C311.554 6.92 311.562 6.944 311.578 6.96C311.61 6.976 311.634 6.968 311.65 6.936C312.338 6.056 313.354 5.616 314.698 5.616ZM326.722 5.592C327.698 5.592 328.546 5.768 329.266 6.12C330.002 6.456 330.562 6.936 330.946 7.56C331.346 8.168 331.546 8.864 331.546 9.648V17.76C331.546 17.92 331.466 18 331.306 18H329.482C329.322 18 329.242 17.92 329.242 17.76V16.896C329.242 16.816 329.202 16.8 329.122 16.848C328.706 17.28 328.194 17.616 327.586 17.856C326.994 18.08 326.33 18.192 325.594 18.192C324.41 18.192 323.426 17.896 322.642 17.304C321.874 16.696 321.49 15.784 321.49 14.568C321.49 13.32 321.922 12.344 322.786 11.64C323.666 10.92 324.89 10.56 326.458 10.56H329.146C329.21 10.56 329.242 10.528 329.242 10.464V9.816C329.242 9.112 329.034 8.568 328.618 8.184C328.218 7.784 327.602 7.584 326.77 7.584C326.098 7.584 325.546 7.72 325.114 7.992C324.698 8.248 324.442 8.6 324.346 9.048C324.298 9.208 324.202 9.28 324.058 9.264L322.114 9C321.954 8.968 321.882 8.904 321.898 8.808C322.026 7.864 322.53 7.096 323.41 6.504C324.29 5.896 325.394 5.592 326.722 5.592ZM326.098 16.248C326.946 16.248 327.682 16.024 328.306 15.576C328.93 15.128 329.242 14.56 329.242 13.872V12.456C329.242 12.392 329.21 12.36 329.146 12.36H326.89C325.946 12.36 325.194 12.544 324.634 12.912C324.074 13.28 323.794 13.792 323.794 14.448C323.794 15.04 324.002 15.488 324.418 15.792C324.85 16.096 325.41 16.248 326.098 16.248ZM339.553 18.192C338.337 18.192 337.297 17.888 336.433 17.28C335.569 16.656 334.977 15.816 334.657 14.76C334.417 14.024 334.297 13.056 334.297 11.856C334.297 10.752 334.417 9.784 334.657 8.952C334.977 7.928 335.569 7.112 336.433 6.504C337.313 5.896 338.353 5.592 339.553 5.592C340.753 5.592 341.801 5.896 342.697 6.504C343.593 7.112 344.177 7.88 344.449 8.808C344.545 9.064 344.609 9.328 344.641 9.6C344.641 9.728 344.569 9.808 344.425 9.84L342.625 10.104H342.577C342.465 10.104 342.385 10.032 342.337 9.888L342.265 9.504C342.137 8.96 341.825 8.504 341.329 8.136C340.833 7.768 340.233 7.584 339.529 7.584C338.841 7.584 338.257 7.768 337.777 8.136C337.297 8.504 336.985 8.992 336.841 9.6C336.697 10.176 336.625 10.936 336.625 11.88C336.625 12.808 336.697 13.56 336.841 14.136C337.001 14.776 337.313 15.28 337.777 15.648C338.257 16.016 338.841 16.2 339.529 16.2C340.233 16.2 340.833 16.016 341.329 15.648C341.841 15.28 342.161 14.8 342.289 14.208C342.305 14.192 342.305 14.176 342.289 14.16C342.289 14.128 342.297 14.104 342.313 14.088V13.992C342.361 13.864 342.449 13.816 342.577 13.848L344.377 14.136C344.505 14.168 344.569 14.232 344.569 14.328V14.424C344.569 14.568 344.529 14.744 344.449 14.952C344.177 15.928 343.593 16.712 342.697 17.304C341.801 17.896 340.753 18.192 339.553 18.192ZM357.084 10.368C357.148 11.024 357.172 11.76 357.156 12.576C357.156 12.736 357.076 12.816 356.916 12.816H349.26C349.196 12.816 349.164 12.848 349.164 12.912C349.164 13.456 349.212 13.872 349.308 14.16C349.484 14.8 349.836 15.304 350.364 15.672C350.908 16.024 351.588 16.2 352.404 16.2C353.588 16.2 354.5 15.712 355.14 14.736C355.22 14.576 355.324 14.552 355.452 14.664L356.82 15.576C356.932 15.672 356.956 15.776 356.892 15.888C356.444 16.608 355.804 17.176 354.972 17.592C354.156 18.008 353.228 18.216 352.188 18.216C351.02 18.216 350.036 17.96 349.236 17.448C348.436 16.936 347.836 16.208 347.436 15.264C347.052 14.32 346.86 13.176 346.86 11.832C346.86 10.664 346.948 9.776 347.124 9.168C347.412 8.064 347.988 7.192 348.852 6.552C349.716 5.912 350.764 5.592 351.996 5.592C353.612 5.592 354.82 6 355.62 6.816C356.42 7.616 356.908 8.8 357.084 10.368ZM351.996 7.584C351.308 7.584 350.74 7.76 350.292 8.112C349.844 8.448 349.54 8.904 349.38 9.48C349.268 9.832 349.196 10.28 349.164 10.824C349.164 10.888 349.196 10.92 349.26 10.92H354.756C354.82 10.92 354.852 10.888 354.852 10.824C354.82 10.296 354.772 9.904 354.708 9.648C354.548 9.024 354.228 8.528 353.748 8.16C353.284 7.776 352.7 7.584 351.996 7.584ZM365.415 5.664C365.927 5.664 366.391 5.768 366.807 5.976C366.919 6.024 366.959 6.12 366.927 6.264L366.543 8.064C366.527 8.208 366.431 8.256 366.255 8.208C365.983 8.096 365.663 8.04 365.295 8.04L364.959 8.064C364.207 8.096 363.583 8.36 363.087 8.856C362.607 9.336 362.367 9.968 362.367 10.752V17.76C362.367 17.92 362.287 18 362.127 18H360.303C360.143 18 360.063 17.92 360.063 17.76V6.024C360.063 5.864 360.143 5.784 360.303 5.784H362.127C362.287 5.784 362.367 5.864 362.367 6.024V7.296C362.367 7.344 362.375 7.376 362.391 7.392C362.423 7.392 362.447 7.376 362.463 7.344C363.183 6.224 364.167 5.664 365.415 5.664ZM6.672 43.192C5.392 43.192 4.28 42.872 3.336 42.232C2.408 41.592 1.744 40.712 1.344 39.592C1.072 38.792 0.936 37.848 0.936 36.76C0.936 35.688 1.072 34.76 1.344 33.976C1.728 32.888 2.392 32.032 3.336 31.408C4.28 30.784 5.392 30.472 6.672 30.472C7.952 30.472 9.072 30.792 10.032 31.432C11.008 32.072 11.656 32.88 11.976 33.856C12.104 34.24 12.168 34.528 12.168 34.72V34.768C12.168 34.912 12.088 35 11.928 35.032L9.168 35.44H9.12C8.976 35.44 8.88 35.36 8.832 35.2L8.76 34.816C8.648 34.4 8.4 34.056 8.016 33.784C7.632 33.512 7.176 33.376 6.648 33.376C6.136 33.376 5.704 33.504 5.352 33.76C5 34.016 4.752 34.368 4.608 34.816C4.432 35.296 4.344 35.952 4.344 36.784C4.344 37.616 4.424 38.272 4.584 38.752C4.728 39.232 4.976 39.608 5.328 39.88C5.696 40.152 6.136 40.288 6.648 40.288C7.144 40.288 7.576 40.16 7.944 39.904C8.328 39.632 8.592 39.264 8.736 38.8C8.752 38.768 8.76 38.72 8.76 38.656C8.776 38.64 8.784 38.616 8.784 38.584C8.8 38.392 8.912 38.312 9.12 38.344L11.88 38.776C12.04 38.808 12.12 38.896 12.12 39.04C12.12 39.168 12.072 39.408 11.976 39.76C11.64 40.832 10.984 41.672 10.008 42.28C9.048 42.888 7.936 43.192 6.672 43.192ZM19.446 43.192C18.102 43.192 16.95 42.84 15.99 42.136C15.03 41.432 14.374 40.472 14.022 39.256C13.798 38.504 13.686 37.688 13.686 36.808C13.686 35.864 13.798 35.016 14.022 34.264C14.39 33.08 15.054 32.152 16.014 31.48C16.974 30.808 18.126 30.472 19.47 30.472C20.782 30.472 21.902 30.808 22.83 31.48C23.758 32.136 24.414 33.056 24.798 34.24C25.054 35.04 25.182 35.88 25.182 36.76C25.182 37.624 25.07 38.432 24.846 39.184C24.494 40.432 23.838 41.416 22.878 42.136C21.934 42.84 20.79 43.192 19.446 43.192ZM19.446 40.288C19.974 40.288 20.422 40.128 20.79 39.808C21.158 39.488 21.422 39.048 21.582 38.488C21.71 37.976 21.774 37.416 21.774 36.808C21.774 36.136 21.71 35.568 21.582 35.104C21.406 34.56 21.134 34.136 20.766 33.832C20.398 33.528 19.95 33.376 19.422 33.376C18.878 33.376 18.422 33.528 18.054 33.832C17.702 34.136 17.446 34.56 17.286 35.104C17.158 35.488 17.094 36.056 17.094 36.808C17.094 37.528 17.15 38.088 17.262 38.488C17.422 39.048 17.686 39.488 18.054 39.808C18.438 40.128 18.902 40.288 19.446 40.288ZM41.0374 30.472C42.2854 30.472 43.2614 30.848 43.9654 31.6C44.6694 32.352 45.0214 33.408 45.0214 34.768V42.712C45.0214 42.792 44.9894 42.864 44.9254 42.928C44.8774 42.976 44.8134 43 44.7334 43H41.9254C41.8454 43 41.7734 42.976 41.7094 42.928C41.6614 42.864 41.6374 42.792 41.6374 42.712V35.512C41.6374 34.856 41.4694 34.336 41.1334 33.952C40.7974 33.568 40.3494 33.376 39.7894 33.376C39.2294 33.376 38.7734 33.568 38.4214 33.952C38.0694 34.336 37.8934 34.848 37.8934 35.488V42.712C37.8934 42.792 37.8614 42.864 37.7974 42.928C37.7494 42.976 37.6854 43 37.6054 43H34.8214C34.7414 43 34.6694 42.976 34.6054 42.928C34.5574 42.864 34.5334 42.792 34.5334 42.712V35.512C34.5334 34.872 34.3574 34.36 34.0054 33.976C33.6534 33.576 33.1974 33.376 32.6374 33.376C32.1254 33.376 31.6934 33.528 31.3414 33.832C31.0054 34.136 30.8054 34.56 30.7414 35.104V42.712C30.7414 42.792 30.7094 42.864 30.6454 42.928C30.5974 42.976 30.5334 43 30.4534 43H27.6454C27.5654 43 27.4934 42.976 27.4294 42.928C27.3814 42.864 27.3574 42.792 27.3574 42.712V30.952C27.3574 30.872 27.3814 30.808 27.4294 30.76C27.4934 30.696 27.5654 30.664 27.6454 30.664H30.4534C30.5334 30.664 30.5974 30.696 30.6454 30.76C30.7094 30.808 30.7414 30.872 30.7414 30.952V31.888C30.7414 31.936 30.7574 31.968 30.7894 31.984C30.8214 32 30.8534 31.984 30.8854 31.936C31.5414 30.96 32.5574 30.472 33.9334 30.472C34.7334 30.472 35.4294 30.64 36.0214 30.976C36.6294 31.312 37.0934 31.792 37.4134 32.416C37.4614 32.512 37.5174 32.512 37.5814 32.416C37.9334 31.76 38.4054 31.272 38.9974 30.952C39.6054 30.632 40.2854 30.472 41.0374 30.472ZM54.5964 30.952C54.5964 30.872 54.6204 30.808 54.6684 30.76C54.7324 30.696 54.8044 30.664 54.8844 30.664H57.6924C57.7724 30.664 57.8364 30.696 57.8844 30.76C57.9484 30.808 57.9804 30.872 57.9804 30.952V42.712C57.9804 42.792 57.9484 42.864 57.8844 42.928C57.8364 42.976 57.7724 43 57.6924 43H54.8844C54.8044 43 54.7324 42.976 54.6684 42.928C54.6204 42.864 54.5964 42.792 54.5964 42.712V41.896C54.5964 41.848 54.5804 41.824 54.5484 41.824C54.5164 41.808 54.4844 41.824 54.4524 41.872C53.8124 42.736 52.8204 43.168 51.4764 43.168C50.2604 43.168 49.2604 42.8 48.4764 42.064C47.6924 41.328 47.3004 40.296 47.3004 38.968V30.952C47.3004 30.872 47.3244 30.808 47.3724 30.76C47.4364 30.696 47.5084 30.664 47.5884 30.664H50.3724C50.4524 30.664 50.5164 30.696 50.5644 30.76C50.6284 30.808 50.6604 30.872 50.6604 30.952V38.128C50.6604 38.768 50.8284 39.288 51.1644 39.688C51.5164 40.088 51.9964 40.288 52.6044 40.288C53.1484 40.288 53.5964 40.128 53.9484 39.808C54.3004 39.472 54.5164 39.04 54.5964 38.512V30.952ZM66.9066 30.472C68.1866 30.472 69.2186 30.864 70.0026 31.648C70.7866 32.432 71.1786 33.496 71.1786 34.84V42.712C71.1786 42.792 71.1466 42.864 71.0826 42.928C71.0346 42.976 70.9706 43 70.8906 43H68.0826C68.0026 43 67.9306 42.976 67.8666 42.928C67.8186 42.864 67.7946 42.792 67.7946 42.712V35.536C67.7946 34.896 67.6106 34.376 67.2426 33.976C66.8906 33.576 66.4186 33.376 65.8266 33.376C65.2346 33.376 64.7546 33.576 64.3866 33.976C64.0346 34.376 63.8586 34.896 63.8586 35.536V42.712C63.8586 42.792 63.8266 42.864 63.7626 42.928C63.7146 42.976 63.6506 43 63.5706 43H60.7626C60.6826 43 60.6106 42.976 60.5466 42.928C60.4986 42.864 60.4746 42.792 60.4746 42.712V30.952C60.4746 30.872 60.4986 30.808 60.5466 30.76C60.6106 30.696 60.6826 30.664 60.7626 30.664H63.5706C63.6506 30.664 63.7146 30.696 63.7626 30.76C63.8266 30.808 63.8586 30.872 63.8586 30.952V31.792C63.8586 31.84 63.8746 31.872 63.9066 31.888C63.9386 31.904 63.9626 31.896 63.9786 31.864C64.6346 30.936 65.6106 30.472 66.9066 30.472ZM75.4236 29.272C74.8796 29.272 74.4236 29.096 74.0556 28.744C73.7036 28.376 73.5276 27.92 73.5276 27.376C73.5276 26.816 73.7036 26.36 74.0556 26.008C74.4076 25.656 74.8636 25.48 75.4236 25.48C75.9836 25.48 76.4396 25.656 76.7916 26.008C77.1436 26.36 77.3196 26.816 77.3196 27.376C77.3196 27.92 77.1356 28.376 76.7676 28.744C76.4156 29.096 75.9676 29.272 75.4236 29.272ZM73.9836 43C73.9036 43 73.8316 42.976 73.7676 42.928C73.7196 42.864 73.6956 42.792 73.6956 42.712V30.928C73.6956 30.848 73.7196 30.784 73.7676 30.736C73.8316 30.672 73.9036 30.64 73.9836 30.64H76.7916C76.8716 30.64 76.9356 30.672 76.9836 30.736C77.0476 30.784 77.0796 30.848 77.0796 30.928V42.712C77.0796 42.792 77.0476 42.864 76.9836 42.928C76.9356 42.976 76.8716 43 76.7916 43H73.9836ZM87.3728 26.488C87.3728 26.408 87.3968 26.344 87.4448 26.296C87.5088 26.232 87.5808 26.2 87.6608 26.2H90.4688C90.5487 26.2 90.6128 26.232 90.6608 26.296C90.7248 26.344 90.7568 26.408 90.7568 26.488V42.712C90.7568 42.792 90.7248 42.864 90.6608 42.928C90.6128 42.976 90.5487 43 90.4688 43H87.6608C87.5808 43 87.5088 42.976 87.4448 42.928C87.3968 42.864 87.3728 42.792 87.3728 42.712V41.92C87.3728 41.872 87.3568 41.848 87.3248 41.848C87.2928 41.832 87.2608 41.84 87.2288 41.872C86.5568 42.752 85.6368 43.192 84.4688 43.192C83.3488 43.192 82.3808 42.88 81.5648 42.256C80.7648 41.632 80.1888 40.776 79.8368 39.688C79.5648 38.856 79.4288 37.888 79.4288 36.784C79.4288 35.648 79.5728 34.656 79.8608 33.808C80.2288 32.784 80.8048 31.976 81.5888 31.384C82.3888 30.776 83.3728 30.472 84.5408 30.472C85.6928 30.472 86.5888 30.872 87.2288 31.672C87.2608 31.72 87.2928 31.736 87.3248 31.72C87.3568 31.704 87.3728 31.672 87.3728 31.624V26.488ZM86.8688 39.256C87.1888 38.664 87.3488 37.856 87.3488 36.832C87.3488 35.76 87.1728 34.92 86.8208 34.312C86.4528 33.688 85.9168 33.376 85.2128 33.376C84.4608 33.376 83.8928 33.688 83.5088 34.312C83.1088 34.936 82.9088 35.784 82.9088 36.856C82.9088 37.816 83.0768 38.616 83.4128 39.256C83.8128 39.944 84.4048 40.288 85.1888 40.288C85.9088 40.288 86.4688 39.944 86.8688 39.256ZM98.2305 30.472C99.2705 30.472 100.199 30.656 101.015 31.024C101.831 31.376 102.463 31.864 102.911 32.488C103.375 33.112 103.607 33.808 103.607 34.576V42.712C103.607 42.792 103.575 42.864 103.511 42.928C103.463 42.976 103.399 43 103.319 43H100.511C100.431 43 100.359 42.976 100.295 42.928C100.247 42.864 100.223 42.792 100.223 42.712V41.92C100.223 41.872 100.207 41.84 100.175 41.824C100.143 41.808 100.111 41.824 100.079 41.872C99.4065 42.752 98.3265 43.192 96.8385 43.192C95.5905 43.192 94.5825 42.888 93.8145 42.28C93.0465 41.672 92.6625 40.776 92.6625 39.592C92.6625 38.36 93.0945 37.408 93.9585 36.736C94.8225 36.048 96.0545 35.704 97.6545 35.704H100.103C100.183 35.704 100.223 35.664 100.223 35.584V35.056C100.223 34.528 100.063 34.12 99.7425 33.832C99.4225 33.528 98.9425 33.376 98.3025 33.376C97.8065 33.376 97.3905 33.464 97.0545 33.64C96.7345 33.816 96.5265 34.064 96.4305 34.384C96.3825 34.56 96.2785 34.64 96.1185 34.624L93.2145 34.24C93.0225 34.208 92.9345 34.136 92.9505 34.024C93.0145 33.352 93.2785 32.744 93.7425 32.2C94.2225 31.656 94.8465 31.232 95.6145 30.928C96.3985 30.624 97.2705 30.472 98.2305 30.472ZM97.7505 40.672C98.4385 40.672 99.0225 40.488 99.5025 40.12C99.9825 39.752 100.223 39.28 100.223 38.704V37.84C100.223 37.76 100.183 37.72 100.103 37.72H98.3745C97.6545 37.72 97.0865 37.856 96.6705 38.128C96.2705 38.4 96.0705 38.784 96.0705 39.28C96.0705 39.712 96.2225 40.056 96.5265 40.312C96.8305 40.552 97.2385 40.672 97.7505 40.672ZM113.646 26.488C113.646 26.408 113.67 26.344 113.718 26.296C113.782 26.232 113.854 26.2 113.934 26.2H116.742C116.822 26.2 116.886 26.232 116.934 26.296C116.998 26.344 117.03 26.408 117.03 26.488V42.712C117.03 42.792 116.998 42.864 116.934 42.928C116.886 42.976 116.822 43 116.742 43H113.934C113.854 43 113.782 42.976 113.718 42.928C113.67 42.864 113.646 42.792 113.646 42.712V41.92C113.646 41.872 113.63 41.848 113.598 41.848C113.566 41.832 113.534 41.84 113.502 41.872C112.83 42.752 111.91 43.192 110.742 43.192C109.622 43.192 108.654 42.88 107.838 42.256C107.038 41.632 106.462 40.776 106.11 39.688C105.838 38.856 105.702 37.888 105.702 36.784C105.702 35.648 105.846 34.656 106.134 33.808C106.502 32.784 107.078 31.976 107.862 31.384C108.662 30.776 109.646 30.472 110.814 30.472C111.966 30.472 112.862 30.872 113.502 31.672C113.534 31.72 113.566 31.736 113.598 31.72C113.63 31.704 113.646 31.672 113.646 31.624V26.488ZM113.142 39.256C113.462 38.664 113.622 37.856 113.622 36.832C113.622 35.76 113.446 34.92 113.094 34.312C112.726 33.688 112.19 33.376 111.486 33.376C110.734 33.376 110.166 33.688 109.782 34.312C109.382 34.936 109.182 35.784 109.182 36.856C109.182 37.816 109.35 38.616 109.686 39.256C110.086 39.944 110.678 40.288 111.462 40.288C112.182 40.288 112.742 39.944 113.142 39.256ZM129.717 43.192C128.501 43.192 127.461 42.888 126.597 42.28C125.733 41.656 125.141 40.816 124.821 39.76C124.581 39.024 124.461 38.056 124.461 36.856C124.461 35.752 124.581 34.784 124.821 33.952C125.141 32.928 125.733 32.112 126.597 31.504C127.477 30.896 128.517 30.592 129.717 30.592C130.917 30.592 131.965 30.896 132.861 31.504C133.757 32.112 134.341 32.88 134.613 33.808C134.709 34.064 134.773 34.328 134.805 34.6C134.805 34.728 134.733 34.808 134.589 34.84L132.789 35.104H132.741C132.629 35.104 132.549 35.032 132.501 34.888L132.429 34.504C132.301 33.96 131.989 33.504 131.493 33.136C130.997 32.768 130.397 32.584 129.693 32.584C129.005 32.584 128.421 32.768 127.941 33.136C127.461 33.504 127.149 33.992 127.005 34.6C126.861 35.176 126.789 35.936 126.789 36.88C126.789 37.808 126.861 38.56 127.005 39.136C127.165 39.776 127.477 40.28 127.941 40.648C128.421 41.016 129.005 41.2 129.693 41.2C130.397 41.2 130.997 41.016 131.493 40.648C132.005 40.28 132.325 39.8 132.453 39.208C132.469 39.192 132.469 39.176 132.453 39.16C132.453 39.128 132.461 39.104 132.477 39.088V38.992C132.525 38.864 132.613 38.816 132.741 38.848L134.541 39.136C134.669 39.168 134.733 39.232 134.733 39.328V39.424C134.733 39.568 134.693 39.744 134.613 39.952C134.341 40.928 133.757 41.712 132.861 42.304C131.965 42.896 130.917 43.192 129.717 43.192ZM142.352 43.192C141.168 43.192 140.136 42.896 139.256 42.304C138.376 41.696 137.76 40.856 137.408 39.784C137.12 38.92 136.976 37.944 136.976 36.856C136.976 35.72 137.112 34.76 137.384 33.976C137.736 32.92 138.352 32.096 139.232 31.504C140.112 30.896 141.16 30.592 142.376 30.592C143.528 30.592 144.528 30.896 145.376 31.504C146.24 32.096 146.856 32.912 147.224 33.952C147.512 34.768 147.656 35.728 147.656 36.832C147.656 37.952 147.512 38.936 147.224 39.784C146.872 40.856 146.264 41.696 145.4 42.304C144.536 42.896 143.52 43.192 142.352 43.192ZM142.352 41.2C142.992 41.2 143.552 41.024 144.032 40.672C144.512 40.304 144.856 39.792 145.064 39.136C145.24 38.528 145.328 37.776 145.328 36.88C145.328 35.984 145.248 35.24 145.088 34.648C144.88 33.992 144.536 33.488 144.056 33.136C143.576 32.768 142.992 32.584 142.304 32.584C141.648 32.584 141.08 32.768 140.6 33.136C140.12 33.488 139.776 33.992 139.568 34.648C139.392 35.208 139.304 35.952 139.304 36.88C139.304 37.808 139.392 38.56 139.568 39.136C139.76 39.792 140.096 40.304 140.576 40.672C141.072 41.024 141.664 41.2 142.352 41.2ZM156.12 30.616C157.432 30.616 158.472 31 159.24 31.768C160.008 32.52 160.392 33.544 160.392 34.84V42.76C160.392 42.92 160.312 43 160.152 43H158.328C158.168 43 158.088 42.92 158.088 42.76V35.296C158.088 34.496 157.856 33.848 157.392 33.352C156.928 32.856 156.312 32.608 155.544 32.608C154.792 32.608 154.176 32.856 153.696 33.352C153.216 33.848 152.976 34.488 152.976 35.272V42.76C152.976 42.92 152.896 43 152.736 43H150.912C150.752 43 150.672 42.92 150.672 42.76V31.024C150.672 30.864 150.752 30.784 150.912 30.784H152.736C152.896 30.784 152.976 30.864 152.976 31.024V31.888C152.976 31.92 152.984 31.944 153 31.96C153.032 31.976 153.056 31.968 153.072 31.936C153.76 31.056 154.776 30.616 156.12 30.616ZM175.757 31.024C175.757 30.864 175.837 30.784 175.997 30.784H177.797C177.957 30.784 178.037 30.864 178.037 31.024V42.76C178.037 42.92 177.957 43 177.797 43H175.997C175.837 43 175.757 42.92 175.757 42.76V41.872C175.757 41.84 175.741 41.824 175.709 41.824C175.693 41.808 175.669 41.816 175.637 41.848C174.997 42.728 174.013 43.168 172.685 43.168C171.901 43.168 171.173 43.016 170.501 42.712C169.845 42.408 169.317 41.96 168.917 41.368C168.517 40.776 168.317 40.056 168.317 39.208V31.024C168.317 30.864 168.397 30.784 168.557 30.784H170.357C170.517 30.784 170.597 30.864 170.597 31.024V38.488C170.597 39.32 170.813 39.976 171.245 40.456C171.693 40.936 172.317 41.176 173.117 41.176C173.917 41.176 174.557 40.936 175.037 40.456C175.517 39.96 175.757 39.304 175.757 38.488V31.024ZM185.695 43.144C184.735 43.144 183.887 43 183.151 42.712C182.431 42.424 181.871 42.032 181.471 41.536C181.071 41.024 180.871 40.464 180.871 39.856V39.592C180.871 39.432 180.951 39.352 181.111 39.352H182.839C182.999 39.352 183.079 39.432 183.079 39.592V39.712C183.079 40.16 183.319 40.552 183.799 40.888C184.295 41.224 184.919 41.392 185.671 41.392C186.391 41.392 186.975 41.24 187.423 40.936C187.871 40.616 188.095 40.216 188.095 39.736C188.095 39.272 187.887 38.928 187.471 38.704C187.055 38.464 186.383 38.216 185.455 37.96C184.543 37.704 183.775 37.448 183.151 37.192C182.543 36.92 182.023 36.544 181.591 36.064C181.175 35.568 180.967 34.936 180.967 34.168C180.967 33.096 181.383 32.248 182.215 31.624C183.063 30.984 184.183 30.664 185.575 30.664C186.503 30.664 187.319 30.816 188.023 31.12C188.743 31.408 189.295 31.816 189.679 32.344C190.063 32.872 190.255 33.464 190.255 34.12V34.192C190.255 34.352 190.175 34.432 190.015 34.432H188.335C188.175 34.432 188.095 34.352 188.095 34.192V34.12C188.095 33.656 187.863 33.272 187.399 32.968C186.951 32.648 186.335 32.488 185.551 32.488C184.847 32.488 184.271 32.624 183.823 32.896C183.391 33.168 183.175 33.536 183.175 34C183.175 34.464 183.383 34.816 183.799 35.056C184.231 35.296 184.919 35.552 185.863 35.824C186.791 36.08 187.559 36.336 188.167 36.592C188.791 36.832 189.319 37.2 189.751 37.696C190.183 38.176 190.399 38.808 190.399 39.592C190.399 40.68 189.967 41.544 189.103 42.184C188.255 42.824 187.119 43.144 185.695 43.144ZM199.095 32.44C199.095 32.6 199.015 32.68 198.855 32.68H196.263C196.199 32.68 196.167 32.712 196.167 32.776V39.136C196.167 39.808 196.319 40.296 196.623 40.6C196.927 40.888 197.399 41.032 198.039 41.032H198.735C198.895 41.032 198.975 41.112 198.975 41.272V42.76C198.975 42.92 198.895 43 198.735 43C198.223 43.032 197.855 43.048 197.631 43.048C196.415 43.048 195.495 42.832 194.871 42.4C194.263 41.952 193.959 41.136 193.959 39.952V32.776C193.959 32.712 193.927 32.68 193.863 32.68H192.399C192.239 32.68 192.159 32.6 192.159 32.44V31.024C192.159 30.864 192.239 30.784 192.399 30.784H193.863C193.927 30.784 193.959 30.752 193.959 30.688V27.856C193.959 27.696 194.039 27.616 194.199 27.616H195.927C196.087 27.616 196.167 27.696 196.167 27.856V30.688C196.167 30.752 196.199 30.784 196.263 30.784H198.855C199.015 30.784 199.095 30.864 199.095 31.024V32.44ZM211.537 35.368C211.601 36.024 211.625 36.76 211.609 37.576C211.609 37.736 211.529 37.816 211.369 37.816H203.713C203.649 37.816 203.617 37.848 203.617 37.912C203.617 38.456 203.665 38.872 203.761 39.16C203.937 39.8 204.289 40.304 204.817 40.672C205.361 41.024 206.041 41.2 206.857 41.2C208.041 41.2 208.953 40.712 209.593 39.736C209.673 39.576 209.777 39.552 209.905 39.664L211.273 40.576C211.385 40.672 211.409 40.776 211.345 40.888C210.897 41.608 210.257 42.176 209.425 42.592C208.609 43.008 207.681 43.216 206.641 43.216C205.473 43.216 204.489 42.96 203.689 42.448C202.889 41.936 202.289 41.208 201.889 40.264C201.505 39.32 201.313 38.176 201.313 36.832C201.313 35.664 201.401 34.776 201.577 34.168C201.865 33.064 202.441 32.192 203.305 31.552C204.169 30.912 205.217 30.592 206.449 30.592C208.065 30.592 209.273 31 210.073 31.816C210.873 32.616 211.361 33.8 211.537 35.368ZM206.449 32.584C205.761 32.584 205.193 32.76 204.745 33.112C204.297 33.448 203.993 33.904 203.833 34.48C203.721 34.832 203.649 35.28 203.617 35.824C203.617 35.888 203.649 35.92 203.713 35.92H209.209C209.273 35.92 209.305 35.888 209.305 35.824C209.273 35.296 209.225 34.904 209.161 34.648C209.001 34.024 208.681 33.528 208.201 33.16C207.737 32.776 207.153 32.584 206.449 32.584ZM222.1 26.44C222.1 26.28 222.18 26.2 222.34 26.2H224.164C224.324 26.2 224.404 26.28 224.404 26.44V42.76C224.404 42.92 224.324 43 224.164 43H222.34C222.18 43 222.1 42.92 222.1 42.76V41.968C222.1 41.936 222.084 41.912 222.052 41.896C222.036 41.88 222.012 41.888 221.98 41.92C221.628 42.32 221.212 42.632 220.732 42.856C220.252 43.08 219.732 43.192 219.172 43.192C218.02 43.192 217.06 42.912 216.292 42.352C215.54 41.776 214.988 40.968 214.636 39.928C214.332 39.08 214.18 38.056 214.18 36.856C214.18 35.736 214.308 34.768 214.564 33.952C214.9 32.896 215.452 32.072 216.22 31.48C216.988 30.888 217.972 30.592 219.172 30.592C219.716 30.592 220.228 30.704 220.708 30.928C221.204 31.136 221.628 31.44 221.98 31.84C222.012 31.872 222.036 31.88 222.052 31.864C222.084 31.848 222.1 31.824 222.1 31.792V26.44ZM221.5 39.904C221.868 39.232 222.052 38.224 222.052 36.88C222.052 35.536 221.852 34.512 221.452 33.808C220.988 32.992 220.308 32.584 219.412 32.584C218.452 32.584 217.74 32.968 217.276 33.736C216.764 34.536 216.508 35.592 216.508 36.904C216.508 38.136 216.708 39.128 217.108 39.88C217.572 40.76 218.332 41.2 219.388 41.2C220.316 41.2 221.02 40.768 221.5 39.904ZM237.67 35.368C237.734 36.024 237.758 36.76 237.742 37.576C237.742 37.736 237.662 37.816 237.502 37.816H229.846C229.782 37.816 229.75 37.848 229.75 37.912C229.75 38.456 229.798 38.872 229.894 39.16C230.07 39.8 230.422 40.304 230.95 40.672C231.494 41.024 232.174 41.2 232.99 41.2C234.174 41.2 235.086 40.712 235.726 39.736C235.806 39.576 235.91 39.552 236.038 39.664L237.406 40.576C237.518 40.672 237.542 40.776 237.478 40.888C237.03 41.608 236.39 42.176 235.558 42.592C234.742 43.008 233.814 43.216 232.774 43.216C231.606 43.216 230.622 42.96 229.822 42.448C229.022 41.936 228.422 41.208 228.022 40.264C227.638 39.32 227.446 38.176 227.446 36.832C227.446 35.664 227.534 34.776 227.71 34.168C227.998 33.064 228.574 32.192 229.438 31.552C230.302 30.912 231.35 30.592 232.582 30.592C234.198 30.592 235.406 31 236.206 31.816C237.006 32.616 237.494 33.8 237.67 35.368ZM232.582 32.584C231.894 32.584 231.326 32.76 230.878 33.112C230.43 33.448 230.126 33.904 229.966 34.48C229.854 34.832 229.782 35.28 229.75 35.824C229.75 35.888 229.782 35.92 229.846 35.92H235.342C235.406 35.92 235.438 35.888 235.438 35.824C235.406 35.296 235.358 34.904 235.294 34.648C235.134 34.024 234.814 33.528 234.334 33.16C233.87 32.776 233.286 32.584 232.582 32.584ZM244.757 43.144C243.797 43.144 242.949 43 242.213 42.712C241.493 42.424 240.933 42.032 240.533 41.536C240.133 41.024 239.933 40.464 239.933 39.856V39.592C239.933 39.432 240.013 39.352 240.173 39.352H241.901C242.061 39.352 242.141 39.432 242.141 39.592V39.712C242.141 40.16 242.381 40.552 242.861 40.888C243.357 41.224 243.981 41.392 244.733 41.392C245.453 41.392 246.037 41.24 246.485 40.936C246.933 40.616 247.157 40.216 247.157 39.736C247.157 39.272 246.949 38.928 246.533 38.704C246.117 38.464 245.445 38.216 244.517 37.96C243.605 37.704 242.837 37.448 242.213 37.192C241.605 36.92 241.085 36.544 240.653 36.064C240.237 35.568 240.029 34.936 240.029 34.168C240.029 33.096 240.445 32.248 241.277 31.624C242.125 30.984 243.245 30.664 244.637 30.664C245.565 30.664 246.381 30.816 247.085 31.12C247.805 31.408 248.357 31.816 248.741 32.344C249.125 32.872 249.317 33.464 249.317 34.12V34.192C249.317 34.352 249.237 34.432 249.077 34.432H247.397C247.237 34.432 247.157 34.352 247.157 34.192V34.12C247.157 33.656 246.925 33.272 246.461 32.968C246.013 32.648 245.397 32.488 244.613 32.488C243.909 32.488 243.333 32.624 242.885 32.896C242.453 33.168 242.237 33.536 242.237 34C242.237 34.464 242.445 34.816 242.861 35.056C243.293 35.296 243.981 35.552 244.925 35.824C245.853 36.08 246.621 36.336 247.229 36.592C247.853 36.832 248.381 37.2 248.813 37.696C249.245 38.176 249.461 38.808 249.461 39.592C249.461 40.68 249.029 41.544 248.165 42.184C247.317 42.824 246.181 43.144 244.757 43.144Z" fill="#EB6540"/>
</svg>
