<svg width="264" height="48" viewBox="0 0 264 48" fill="none" xmlns="http://www.w3.org/2000/svg">
<path d="M13.128 3.816C13.128 3.896 13.096 3.968 13.032 4.032C12.984 4.08 12.92 4.104 12.84 4.104H4.968C4.888 4.104 4.848 4.144 4.848 4.224V7.944C4.848 8.024 4.888 8.064 4.968 8.064H10.128C10.208 8.064 10.272 8.096 10.32 8.16C10.384 8.208 10.416 8.272 10.416 8.352V10.68C10.416 10.76 10.384 10.832 10.32 10.896C10.272 10.944 10.208 10.968 10.128 10.968H4.968C4.888 10.968 4.848 11.008 4.848 11.088V14.976C4.848 15.056 4.888 15.096 4.968 15.096H12.84C12.92 15.096 12.984 15.128 13.032 15.192C13.096 15.24 13.128 15.304 13.128 15.384V17.712C13.128 17.792 13.096 17.864 13.032 17.928C12.984 17.976 12.92 18 12.84 18H1.752C1.672 18 1.6 17.976 1.536 17.928C1.488 17.864 1.464 17.792 1.464 17.712V1.488C1.464 1.408 1.488 1.344 1.536 1.296C1.6 1.232 1.672 1.2 1.752 1.2H12.84C12.92 1.2 12.984 1.232 13.032 1.296C13.096 1.344 13.128 1.408 13.128 1.488V3.816ZM14.7836 18C14.6716 18 14.5916 17.968 14.5436 17.904C14.5116 17.824 14.5276 17.736 14.5916 17.64L18.4556 11.904C18.4876 11.856 18.4876 11.808 18.4556 11.76L14.5916 6.024C14.5596 5.96 14.5436 5.904 14.5436 5.856C14.5436 5.728 14.6236 5.664 14.7836 5.664H17.7836C17.9276 5.664 18.0396 5.728 18.1196 5.856L20.2796 9.144C20.3436 9.24 20.3996 9.24 20.4476 9.144L22.6076 5.856C22.6876 5.728 22.7996 5.664 22.9436 5.664H26.1596C26.2716 5.664 26.3436 5.704 26.3756 5.784C26.4076 5.848 26.3916 5.928 26.3276 6.024L22.4876 11.76C22.4716 11.808 22.4716 11.856 22.4876 11.904L26.3276 17.64C26.3596 17.688 26.3756 17.744 26.3756 17.808C26.3756 17.936 26.3036 18 26.1596 18H23.1356C22.9916 18 22.8796 17.936 22.7996 17.808L20.6396 14.52C20.5916 14.424 20.5436 14.424 20.4956 14.52L18.3356 17.808C18.2556 17.936 18.1436 18 17.9996 18H14.7836ZM39.1937 8.976C39.4817 9.792 39.6257 10.752 39.6257 11.856C39.6257 12.96 39.4737 13.96 39.1697 14.856C38.8017 15.88 38.2177 16.696 37.4177 17.304C36.6337 17.896 35.6577 18.192 34.4897 18.192C33.3377 18.192 32.4417 17.792 31.8017 16.992C31.7697 16.944 31.7377 16.928 31.7057 16.944C31.6737 16.96 31.6577 16.992 31.6577 17.04V22.176C31.6577 22.256 31.6257 22.32 31.5617 22.368C31.5137 22.432 31.4497 22.464 31.3697 22.464H28.5617C28.4817 22.464 28.4097 22.432 28.3457 22.368C28.2977 22.32 28.2737 22.256 28.2737 22.176V5.952C28.2737 5.872 28.2977 5.808 28.3457 5.76C28.4097 5.696 28.4817 5.664 28.5617 5.664H31.3697C31.4497 5.664 31.5137 5.696 31.5617 5.76C31.6257 5.808 31.6577 5.872 31.6577 5.952V6.744C31.6577 6.792 31.6737 6.824 31.7057 6.84C31.7377 6.84 31.7697 6.824 31.8017 6.792C32.4737 5.912 33.4017 5.472 34.5857 5.472C35.6897 5.472 36.6417 5.784 37.4417 6.408C38.2577 7.016 38.8417 7.872 39.1937 8.976ZM35.5217 14.352C35.9217 13.728 36.1217 12.88 36.1217 11.808C36.1217 10.8 35.9537 10 35.6177 9.408C35.2497 8.72 34.6577 8.376 33.8417 8.376C33.1057 8.376 32.5537 8.72 32.1857 9.408C31.8497 9.984 31.6817 10.792 31.6817 11.832C31.6817 12.904 31.8577 13.736 32.2097 14.328C32.5777 14.968 33.1217 15.288 33.8417 15.288C34.5617 15.288 35.1217 14.976 35.5217 14.352ZM52.668 10.56C52.764 11.168 52.796 11.848 52.764 12.6C52.748 12.792 52.644 12.888 52.452 12.888H45.036C44.94 12.888 44.908 12.928 44.94 13.008C44.988 13.328 45.076 13.648 45.204 13.968C45.62 14.864 46.468 15.312 47.748 15.312C48.772 15.296 49.58 14.88 50.172 14.064C50.236 13.968 50.308 13.92 50.388 13.92C50.436 13.92 50.492 13.952 50.556 14.016L52.284 15.72C52.364 15.8 52.404 15.872 52.404 15.936C52.404 15.968 52.372 16.032 52.308 16.128C51.78 16.784 51.1 17.296 50.268 17.664C49.436 18.016 48.524 18.192 47.532 18.192C46.156 18.192 44.988 17.88 44.028 17.256C43.084 16.632 42.404 15.76 41.988 14.64C41.652 13.84 41.484 12.792 41.484 11.496C41.484 10.616 41.604 9.84 41.844 9.168C42.212 8.032 42.852 7.128 43.764 6.456C44.692 5.784 45.788 5.448 47.052 5.448C48.652 5.448 49.932 5.912 50.892 6.84C51.868 7.768 52.46 9.008 52.668 10.56ZM47.076 8.376C46.068 8.376 45.404 8.848 45.084 9.792C45.02 10 44.964 10.256 44.916 10.56C44.916 10.64 44.956 10.68 45.036 10.68H49.188C49.284 10.68 49.316 10.64 49.284 10.56C49.204 10.096 49.164 9.872 49.164 9.888C49.02 9.408 48.764 9.04 48.396 8.784C48.044 8.512 47.604 8.376 47.076 8.376ZM60.9936 5.496C61.5696 5.496 62.0256 5.608 62.3616 5.832C62.4896 5.896 62.5376 6.016 62.5056 6.192L62.0016 8.928C61.9856 9.12 61.8736 9.176 61.6656 9.096C61.4256 9.016 61.1456 8.976 60.8256 8.976C60.6976 8.976 60.5216 8.992 60.2976 9.024C59.7216 9.072 59.2336 9.288 58.8336 9.672C58.4336 10.04 58.2336 10.536 58.2336 11.16V17.712C58.2336 17.792 58.2016 17.864 58.1376 17.928C58.0896 17.976 58.0256 18 57.9456 18H55.1376C55.0576 18 54.9856 17.976 54.9216 17.928C54.8736 17.864 54.8496 17.792 54.8496 17.712V5.952C54.8496 5.872 54.8736 5.808 54.9216 5.76C54.9856 5.696 55.0576 5.664 55.1376 5.664H57.9456C58.0256 5.664 58.0896 5.696 58.1376 5.76C58.2016 5.808 58.2336 5.872 58.2336 5.952V6.864C58.2336 6.912 58.2496 6.944 58.2816 6.96C58.3136 6.976 58.3376 6.968 58.3536 6.936C59.0096 5.976 59.8896 5.496 60.9936 5.496ZM65.8611 4.272C65.3171 4.272 64.8611 4.096 64.4931 3.744C64.1411 3.376 63.9651 2.92 63.9651 2.376C63.9651 1.816 64.1411 1.36 64.4931 1.008C64.8451 0.656 65.3011 0.48 65.8611 0.48C66.4211 0.48 66.8771 0.656 67.2291 1.008C67.5811 1.36 67.7571 1.816 67.7571 2.376C67.7571 2.92 67.5731 3.376 67.2051 3.744C66.8531 4.096 66.4051 4.272 65.8611 4.272ZM64.4211 18C64.3411 18 64.2691 17.976 64.2051 17.928C64.1571 17.864 64.1331 17.792 64.1331 17.712V5.928C64.1331 5.848 64.1571 5.784 64.2051 5.736C64.2691 5.672 64.3411 5.64 64.4211 5.64H67.2291C67.3091 5.64 67.3731 5.672 67.4211 5.736C67.4851 5.784 67.5171 5.848 67.5171 5.928V17.712C67.5171 17.792 67.4851 17.864 67.4211 17.928C67.3731 17.976 67.3091 18 67.2291 18H64.4211ZM81.0743 10.56C81.1703 11.168 81.2023 11.848 81.1703 12.6C81.1543 12.792 81.0503 12.888 80.8583 12.888H73.4423C73.3463 12.888 73.3143 12.928 73.3463 13.008C73.3943 13.328 73.4823 13.648 73.6103 13.968C74.0263 14.864 74.8743 15.312 76.1543 15.312C77.1783 15.296 77.9863 14.88 78.5783 14.064C78.6423 13.968 78.7143 13.92 78.7943 13.92C78.8423 13.92 78.8983 13.952 78.9623 14.016L80.6903 15.72C80.7703 15.8 80.8103 15.872 80.8103 15.936C80.8103 15.968 80.7783 16.032 80.7143 16.128C80.1863 16.784 79.5063 17.296 78.6743 17.664C77.8423 18.016 76.9303 18.192 75.9383 18.192C74.5623 18.192 73.3943 17.88 72.4342 17.256C71.4903 16.632 70.8103 15.76 70.3943 14.64C70.0583 13.84 69.8903 12.792 69.8903 11.496C69.8903 10.616 70.0103 9.84 70.2503 9.168C70.6183 8.032 71.2583 7.128 72.1703 6.456C73.0983 5.784 74.1943 5.448 75.4583 5.448C77.0583 5.448 78.3383 5.912 79.2983 6.84C80.2743 7.768 80.8663 9.008 81.0743 10.56ZM75.4823 8.376C74.4743 8.376 73.8103 8.848 73.4903 9.792C73.4263 10 73.3703 10.256 73.3223 10.56C73.3223 10.64 73.3623 10.68 73.4423 10.68H77.5943C77.6903 10.68 77.7223 10.64 77.6903 10.56C77.6103 10.096 77.5703 9.872 77.5703 9.888C77.4263 9.408 77.1703 9.04 76.8023 8.784C76.4503 8.512 76.0103 8.376 75.4823 8.376ZM89.6878 5.472C90.9678 5.472 91.9998 5.864 92.7838 6.648C93.5678 7.432 93.9598 8.496 93.9598 9.84V17.712C93.9598 17.792 93.9278 17.864 93.8638 17.928C93.8158 17.976 93.7518 18 93.6718 18H90.8638C90.7838 18 90.7118 17.976 90.6478 17.928C90.5998 17.864 90.5758 17.792 90.5758 17.712V10.536C90.5758 9.896 90.3918 9.376 90.0238 8.976C89.6718 8.576 89.1998 8.376 88.6078 8.376C88.0158 8.376 87.5358 8.576 87.1678 8.976C86.8158 9.376 86.6398 9.896 86.6398 10.536V17.712C86.6398 17.792 86.6078 17.864 86.5438 17.928C86.4958 17.976 86.4318 18 86.3518 18H83.5438C83.4638 18 83.3918 17.976 83.3278 17.928C83.2798 17.864 83.2558 17.792 83.2558 17.712V5.952C83.2558 5.872 83.2798 5.808 83.3278 5.76C83.3918 5.696 83.4638 5.664 83.5438 5.664H86.3518C86.4318 5.664 86.4958 5.696 86.5438 5.76C86.6078 5.808 86.6398 5.872 86.6398 5.952V6.792C86.6398 6.84 86.6558 6.872 86.6878 6.888C86.7198 6.904 86.7438 6.896 86.7598 6.864C87.4158 5.936 88.3918 5.472 89.6878 5.472ZM101.735 18.192C100.455 18.192 99.3425 17.872 98.3985 17.232C97.4705 16.592 96.8065 15.712 96.4065 14.592C96.1345 13.792 95.9985 12.848 95.9985 11.76C95.9985 10.688 96.1345 9.76 96.4065 8.976C96.7905 7.888 97.4545 7.032 98.3985 6.408C99.3425 5.784 100.455 5.472 101.735 5.472C103.015 5.472 104.135 5.792 105.095 6.432C106.071 7.072 106.719 7.88 107.039 8.856C107.167 9.24 107.231 9.528 107.231 9.72V9.768C107.231 9.912 107.151 10 106.991 10.032L104.231 10.44H104.183C104.039 10.44 103.943 10.36 103.895 10.2L103.823 9.816C103.711 9.4 103.463 9.056 103.079 8.784C102.695 8.512 102.239 8.376 101.711 8.376C101.199 8.376 100.767 8.504 100.415 8.76C100.063 9.016 99.8145 9.368 99.6705 9.816C99.4945 10.296 99.4065 10.952 99.4065 11.784C99.4065 12.616 99.4865 13.272 99.6465 13.752C99.7905 14.232 100.039 14.608 100.391 14.88C100.759 15.152 101.199 15.288 101.711 15.288C102.207 15.288 102.639 15.16 103.007 14.904C103.391 14.632 103.655 14.264 103.799 13.8C103.815 13.768 103.823 13.72 103.823 13.656C103.839 13.64 103.847 13.616 103.847 13.584C103.863 13.392 103.975 13.312 104.183 13.344L106.943 13.776C107.103 13.808 107.182 13.896 107.182 14.04C107.182 14.168 107.135 14.408 107.039 14.76C106.703 15.832 106.047 16.672 105.071 17.28C104.111 17.888 102.999 18.192 101.735 18.192ZM111.025 4.272C110.481 4.272 110.025 4.096 109.657 3.744C109.305 3.376 109.129 2.92 109.129 2.376C109.129 1.816 109.305 1.36 109.657 1.008C110.009 0.656 110.465 0.48 111.025 0.48C111.585 0.48 112.041 0.656 112.393 1.008C112.745 1.36 112.921 1.816 112.921 2.376C112.921 2.92 112.737 3.376 112.369 3.744C112.017 4.096 111.569 4.272 111.025 4.272ZM109.585 18C109.505 18 109.433 17.976 109.369 17.928C109.321 17.864 109.297 17.792 109.297 17.712V5.928C109.297 5.848 109.321 5.784 109.369 5.736C109.433 5.672 109.505 5.64 109.585 5.64H112.393C112.473 5.64 112.537 5.672 112.585 5.736C112.649 5.784 112.681 5.848 112.681 5.928V17.712C112.681 17.792 112.649 17.864 112.585 17.928C112.537 17.976 112.473 18 112.393 18H109.585ZM120.238 5.472C121.278 5.472 122.206 5.656 123.022 6.024C123.838 6.376 124.47 6.864 124.918 7.488C125.382 8.112 125.614 8.808 125.614 9.576V17.712C125.614 17.792 125.582 17.864 125.518 17.928C125.47 17.976 125.406 18 125.326 18H122.518C122.438 18 122.366 17.976 122.302 17.928C122.254 17.864 122.23 17.792 122.23 17.712V16.92C122.23 16.872 122.214 16.84 122.182 16.824C122.15 16.808 122.118 16.824 122.086 16.872C121.414 17.752 120.334 18.192 118.846 18.192C117.598 18.192 116.59 17.888 115.822 17.28C115.054 16.672 114.67 15.776 114.67 14.592C114.67 13.36 115.102 12.408 115.966 11.736C116.83 11.048 118.062 10.704 119.662 10.704H122.11C122.19 10.704 122.23 10.664 122.23 10.584V10.056C122.23 9.528 122.07 9.12 121.75 8.832C121.43 8.528 120.95 8.376 120.31 8.376C119.814 8.376 119.398 8.464 119.062 8.64C118.742 8.816 118.534 9.064 118.438 9.384C118.39 9.56 118.286 9.64 118.126 9.624L115.222 9.24C115.03 9.208 114.942 9.136 114.958 9.024C115.022 8.352 115.286 7.744 115.75 7.2C116.23 6.656 116.854 6.232 117.622 5.928C118.406 5.624 119.278 5.472 120.238 5.472ZM119.758 15.672C120.446 15.672 121.03 15.488 121.51 15.12C121.99 14.752 122.23 14.28 122.23 13.704V12.84C122.23 12.76 122.19 12.72 122.11 12.72H120.382C119.662 12.72 119.094 12.856 118.678 13.128C118.278 13.4 118.078 13.784 118.078 14.28C118.078 14.712 118.23 15.056 118.534 15.312C118.838 15.552 119.246 15.672 119.758 15.672ZM132.918 18.168C131.846 18.168 130.91 18.016 130.11 17.712C129.31 17.408 128.686 16.984 128.238 16.44C127.806 15.896 127.59 15.28 127.59 14.592V14.352C127.59 14.272 127.614 14.208 127.662 14.16C127.726 14.096 127.798 14.064 127.878 14.064H130.542C130.622 14.064 130.686 14.096 130.734 14.16C130.798 14.208 130.83 14.272 130.83 14.352V14.376C130.83 14.728 131.022 15.032 131.406 15.288C131.806 15.528 132.302 15.648 132.894 15.648C133.438 15.648 133.878 15.544 134.214 15.336C134.55 15.112 134.718 14.84 134.718 14.52C134.718 14.232 134.574 14.016 134.286 13.872C133.998 13.728 133.526 13.576 132.87 13.416C132.118 13.224 131.526 13.04 131.094 12.864C130.07 12.512 129.254 12.08 128.646 11.568C128.038 11.056 127.734 10.32 127.734 9.36C127.734 8.176 128.19 7.24 129.102 6.552C130.03 5.848 131.254 5.496 132.774 5.496C133.798 5.496 134.694 5.664 135.462 6C136.23 6.32 136.822 6.776 137.238 7.368C137.67 7.96 137.886 8.632 137.886 9.384C137.886 9.464 137.854 9.536 137.79 9.6C137.742 9.648 137.678 9.672 137.598 9.672H135.03C134.95 9.672 134.878 9.648 134.814 9.6C134.766 9.536 134.742 9.464 134.742 9.384C134.742 9.032 134.558 8.736 134.19 8.496C133.838 8.256 133.366 8.136 132.774 8.136C132.246 8.136 131.814 8.232 131.478 8.424C131.142 8.616 130.974 8.88 130.974 9.216C130.974 9.536 131.134 9.776 131.454 9.936C131.79 10.096 132.342 10.264 133.11 10.44C133.286 10.488 133.486 10.544 133.71 10.608C133.934 10.656 134.174 10.72 134.43 10.8C135.566 11.136 136.462 11.568 137.118 12.096C137.774 12.624 138.102 13.392 138.102 14.4C138.102 15.584 137.63 16.512 136.686 17.184C135.758 17.84 134.502 18.168 132.918 18.168ZM152.05 5.952C152.05 5.872 152.074 5.808 152.122 5.76C152.186 5.696 152.258 5.664 152.338 5.664H155.146C155.226 5.664 155.29 5.696 155.338 5.76C155.402 5.808 155.434 5.872 155.434 5.952V17.712C155.434 17.792 155.402 17.864 155.338 17.928C155.29 17.976 155.226 18 155.146 18H152.338C152.258 18 152.186 17.976 152.122 17.928C152.074 17.864 152.05 17.792 152.05 17.712V16.896C152.05 16.848 152.034 16.824 152.002 16.824C151.97 16.808 151.938 16.824 151.906 16.872C151.266 17.736 150.274 18.168 148.93 18.168C147.714 18.168 146.714 17.8 145.93 17.064C145.146 16.328 144.754 15.296 144.754 13.968V5.952C144.754 5.872 144.778 5.808 144.826 5.76C144.89 5.696 144.962 5.664 145.042 5.664H147.826C147.906 5.664 147.97 5.696 148.018 5.76C148.082 5.808 148.114 5.872 148.114 5.952V13.128C148.114 13.768 148.282 14.288 148.618 14.688C148.97 15.088 149.45 15.288 150.058 15.288C150.602 15.288 151.05 15.128 151.402 14.808C151.754 14.472 151.97 14.04 152.05 13.512V5.952ZM148.81 4.176C148.698 4.176 148.626 4.144 148.594 4.08C148.562 4.016 148.57 3.936 148.618 3.84L149.89 1.416C149.954 1.272 150.074 1.2 150.25 1.2H152.674C152.786 1.2 152.858 1.24 152.89 1.32C152.938 1.384 152.93 1.464 152.866 1.56L151.162 3.984C151.082 4.112 150.97 4.176 150.826 4.176H148.81ZM164.407 5.472C165.687 5.472 166.719 5.864 167.503 6.648C168.287 7.432 168.679 8.496 168.679 9.84V17.712C168.679 17.792 168.647 17.864 168.583 17.928C168.535 17.976 168.471 18 168.391 18H165.583C165.503 18 165.431 17.976 165.367 17.928C165.319 17.864 165.295 17.792 165.295 17.712V10.536C165.295 9.896 165.111 9.376 164.743 8.976C164.391 8.576 163.919 8.376 163.327 8.376C162.735 8.376 162.255 8.576 161.887 8.976C161.535 9.376 161.359 9.896 161.359 10.536V17.712C161.359 17.792 161.327 17.864 161.263 17.928C161.215 17.976 161.151 18 161.071 18H158.263C158.183 18 158.111 17.976 158.047 17.928C157.999 17.864 157.975 17.792 157.975 17.712V5.952C157.975 5.872 157.999 5.808 158.047 5.76C158.111 5.696 158.183 5.664 158.263 5.664H161.071C161.151 5.664 161.215 5.696 161.263 5.76C161.327 5.808 161.359 5.872 161.359 5.952V6.792C161.359 6.84 161.375 6.872 161.407 6.888C161.439 6.904 161.463 6.896 161.479 6.864C162.135 5.936 163.111 5.472 164.407 5.472ZM172.924 4.272C172.38 4.272 171.924 4.096 171.556 3.744C171.204 3.376 171.028 2.92 171.028 2.376C171.028 1.816 171.204 1.36 171.556 1.008C171.908 0.656 172.364 0.48 172.924 0.48C173.484 0.48 173.94 0.656 174.292 1.008C174.644 1.36 174.82 1.816 174.82 2.376C174.82 2.92 174.636 3.376 174.268 3.744C173.916 4.096 173.468 4.272 172.924 4.272ZM171.484 18C171.404 18 171.332 17.976 171.268 17.928C171.22 17.864 171.196 17.792 171.196 17.712V5.928C171.196 5.848 171.22 5.784 171.268 5.736C171.332 5.672 171.404 5.64 171.484 5.64H174.292C174.372 5.64 174.436 5.672 174.484 5.736C174.548 5.784 174.58 5.848 174.58 5.928V17.712C174.58 17.792 174.548 17.864 174.484 17.928C174.436 17.976 174.372 18 174.292 18H171.484ZM182.641 18.192C181.361 18.192 180.249 17.872 179.305 17.232C178.377 16.592 177.713 15.712 177.313 14.592C177.041 13.792 176.905 12.848 176.905 11.76C176.905 10.688 177.041 9.76 177.313 8.976C177.697 7.888 178.361 7.032 179.305 6.408C180.249 5.784 181.361 5.472 182.641 5.472C183.921 5.472 185.041 5.792 186.001 6.432C186.977 7.072 187.625 7.88 187.945 8.856C188.073 9.24 188.137 9.528 188.137 9.72V9.768C188.137 9.912 188.057 10 187.897 10.032L185.137 10.44H185.089C184.945 10.44 184.849 10.36 184.801 10.2L184.729 9.816C184.617 9.4 184.369 9.056 183.985 8.784C183.601 8.512 183.145 8.376 182.617 8.376C182.105 8.376 181.673 8.504 181.321 8.76C180.969 9.016 180.721 9.368 180.577 9.816C180.401 10.296 180.313 10.952 180.313 11.784C180.313 12.616 180.393 13.272 180.553 13.752C180.697 14.232 180.945 14.608 181.297 14.88C181.665 15.152 182.105 15.288 182.617 15.288C183.113 15.288 183.545 15.16 183.913 14.904C184.297 14.632 184.561 14.264 184.705 13.8C184.721 13.768 184.729 13.72 184.729 13.656C184.745 13.64 184.753 13.616 184.753 13.584C184.769 13.392 184.881 13.312 185.089 13.344L187.849 13.776C188.009 13.808 188.089 13.896 188.089 14.04C188.089 14.168 188.041 14.408 187.945 14.76C187.609 15.832 186.953 16.672 185.977 17.28C185.017 17.888 183.905 18.192 182.641 18.192ZM195.027 5.472C196.067 5.472 196.995 5.656 197.811 6.024C198.627 6.376 199.259 6.864 199.707 7.488C200.171 8.112 200.403 8.808 200.403 9.576V17.712C200.403 17.792 200.371 17.864 200.307 17.928C200.259 17.976 200.195 18 200.115 18H197.307C197.227 18 197.155 17.976 197.091 17.928C197.043 17.864 197.019 17.792 197.019 17.712V16.92C197.019 16.872 197.003 16.84 196.971 16.824C196.939 16.808 196.907 16.824 196.875 16.872C196.203 17.752 195.123 18.192 193.635 18.192C192.387 18.192 191.379 17.888 190.611 17.28C189.843 16.672 189.459 15.776 189.459 14.592C189.459 13.36 189.891 12.408 190.755 11.736C191.619 11.048 192.851 10.704 194.451 10.704H196.899C196.979 10.704 197.019 10.664 197.019 10.584V10.056C197.019 9.528 196.859 9.12 196.539 8.832C196.219 8.528 195.739 8.376 195.099 8.376C194.603 8.376 194.187 8.464 193.851 8.64C193.531 8.816 193.323 9.064 193.227 9.384C193.179 9.56 193.075 9.64 192.915 9.624L190.011 9.24C189.819 9.208 189.731 9.136 189.747 9.024C189.811 8.352 190.075 7.744 190.539 7.2C191.019 6.656 191.643 6.232 192.411 5.928C193.195 5.624 194.067 5.472 195.027 5.472ZM194.547 15.672C195.235 15.672 195.819 15.488 196.299 15.12C196.779 14.752 197.019 14.28 197.019 13.704V12.84C197.019 12.76 196.979 12.72 196.899 12.72H195.171C194.451 12.72 193.883 12.856 193.467 13.128C193.067 13.4 192.867 13.784 192.867 14.28C192.867 14.712 193.019 15.056 193.323 15.312C193.627 15.552 194.035 15.672 194.547 15.672ZM207.707 18.168C206.635 18.168 205.699 18.016 204.899 17.712C204.099 17.408 203.475 16.984 203.027 16.44C202.595 15.896 202.379 15.28 202.379 14.592V14.352C202.379 14.272 202.403 14.208 202.451 14.16C202.515 14.096 202.587 14.064 202.667 14.064H205.331C205.411 14.064 205.475 14.096 205.523 14.16C205.587 14.208 205.619 14.272 205.619 14.352V14.376C205.619 14.728 205.811 15.032 206.195 15.288C206.595 15.528 207.091 15.648 207.683 15.648C208.227 15.648 208.667 15.544 209.003 15.336C209.339 15.112 209.507 14.84 209.507 14.52C209.507 14.232 209.363 14.016 209.075 13.872C208.787 13.728 208.315 13.576 207.659 13.416C206.907 13.224 206.315 13.04 205.883 12.864C204.859 12.512 204.043 12.08 203.435 11.568C202.827 11.056 202.523 10.32 202.523 9.36C202.523 8.176 202.979 7.24 203.891 6.552C204.819 5.848 206.043 5.496 207.563 5.496C208.587 5.496 209.483 5.664 210.251 6C211.019 6.32 211.611 6.776 212.027 7.368C212.459 7.96 212.675 8.632 212.675 9.384C212.675 9.464 212.643 9.536 212.579 9.6C212.531 9.648 212.467 9.672 212.387 9.672H209.819C209.739 9.672 209.667 9.648 209.603 9.6C209.555 9.536 209.531 9.464 209.531 9.384C209.531 9.032 209.347 8.736 208.979 8.496C208.627 8.256 208.155 8.136 207.563 8.136C207.035 8.136 206.603 8.232 206.267 8.424C205.931 8.616 205.763 8.88 205.763 9.216C205.763 9.536 205.923 9.776 206.243 9.936C206.579 10.096 207.131 10.264 207.899 10.44C208.075 10.488 208.275 10.544 208.499 10.608C208.723 10.656 208.963 10.72 209.219 10.8C210.355 11.136 211.251 11.568 211.907 12.096C212.563 12.624 212.891 13.392 212.891 14.4C212.891 15.584 212.419 16.512 211.475 17.184C210.547 17.84 209.291 18.168 207.707 18.168ZM229.983 8.856C230.287 9.72 230.439 10.744 230.439 11.928C230.439 13.048 230.311 14.016 230.055 14.832C229.719 15.904 229.167 16.736 228.399 17.328C227.631 17.904 226.647 18.192 225.447 18.192C224.903 18.192 224.383 18.088 223.887 17.88C223.407 17.656 222.991 17.344 222.639 16.944C222.607 16.912 222.575 16.904 222.543 16.92C222.527 16.936 222.519 16.96 222.519 16.992V22.344C222.519 22.504 222.439 22.584 222.279 22.584H220.455C220.295 22.584 220.215 22.504 220.215 22.344V6.024C220.215 5.864 220.295 5.784 220.455 5.784H222.279C222.439 5.784 222.519 5.864 222.519 6.024V6.816C222.519 6.848 222.527 6.872 222.543 6.888C222.575 6.904 222.607 6.896 222.639 6.864C222.991 6.464 223.407 6.152 223.887 5.928C224.367 5.704 224.887 5.592 225.447 5.592C226.599 5.592 227.551 5.88 228.303 6.456C229.071 7.016 229.631 7.816 229.983 8.856ZM227.343 15.048C227.855 14.28 228.111 13.224 228.111 11.88C228.111 10.648 227.911 9.656 227.511 8.904C227.047 8.024 226.287 7.584 225.231 7.584C224.303 7.584 223.599 8.016 223.119 8.88C222.735 9.568 222.543 10.576 222.543 11.904C222.543 13.248 222.751 14.272 223.167 14.976C223.631 15.792 224.311 16.2 225.207 16.2C226.167 16.2 226.879 15.816 227.343 15.048ZM237.917 5.592C238.893 5.592 239.741 5.768 240.461 6.12C241.197 6.456 241.757 6.936 242.141 7.56C242.541 8.168 242.741 8.864 242.741 9.648V17.76C242.741 17.92 242.661 18 242.501 18H240.677C240.517 18 240.437 17.92 240.437 17.76V16.896C240.437 16.816 240.397 16.8 240.317 16.848C239.901 17.28 239.389 17.616 238.781 17.856C238.189 18.08 237.525 18.192 236.789 18.192C235.605 18.192 234.621 17.896 233.837 17.304C233.069 16.696 232.685 15.784 232.685 14.568C232.685 13.32 233.117 12.344 233.981 11.64C234.861 10.92 236.085 10.56 237.653 10.56H240.341C240.405 10.56 240.437 10.528 240.437 10.464V9.816C240.437 9.112 240.229 8.568 239.813 8.184C239.413 7.784 238.797 7.584 237.965 7.584C237.293 7.584 236.741 7.72 236.309 7.992C235.893 8.248 235.637 8.6 235.541 9.048C235.493 9.208 235.397 9.28 235.253 9.264L233.309 9C233.149 8.968 233.077 8.904 233.093 8.808C233.221 7.864 233.725 7.096 234.605 6.504C235.485 5.896 236.589 5.592 237.917 5.592ZM237.293 16.248C238.141 16.248 238.877 16.024 239.501 15.576C240.125 15.128 240.437 14.56 240.437 13.872V12.456C240.437 12.392 240.405 12.36 240.341 12.36H238.085C237.141 12.36 236.389 12.544 235.829 12.912C235.269 13.28 234.989 13.792 234.989 14.448C234.989 15.04 235.197 15.488 235.613 15.792C236.045 16.096 236.605 16.248 237.293 16.248ZM251.204 5.664C251.716 5.664 252.18 5.768 252.596 5.976C252.708 6.024 252.748 6.12 252.716 6.264L252.332 8.064C252.316 8.208 252.22 8.256 252.044 8.208C251.772 8.096 251.452 8.04 251.084 8.04L250.748 8.064C249.996 8.096 249.372 8.36 248.876 8.856C248.396 9.336 248.156 9.968 248.156 10.752V17.76C248.156 17.92 248.076 18 247.916 18H246.092C245.932 18 245.852 17.92 245.852 17.76V6.024C245.852 5.864 245.932 5.784 246.092 5.784H247.916C248.076 5.784 248.156 5.864 248.156 6.024V7.296C248.156 7.344 248.164 7.376 248.18 7.392C248.212 7.392 248.236 7.376 248.252 7.344C248.972 6.224 249.956 5.664 251.204 5.664ZM259.128 5.592C260.104 5.592 260.952 5.768 261.672 6.12C262.408 6.456 262.968 6.936 263.352 7.56C263.752 8.168 263.952 8.864 263.952 9.648V17.76C263.952 17.92 263.872 18 263.712 18H261.888C261.728 18 261.648 17.92 261.648 17.76V16.896C261.648 16.816 261.608 16.8 261.528 16.848C261.112 17.28 260.6 17.616 259.992 17.856C259.4 18.08 258.736 18.192 258 18.192C256.816 18.192 255.832 17.896 255.048 17.304C254.28 16.696 253.896 15.784 253.896 14.568C253.896 13.32 254.328 12.344 255.192 11.64C256.072 10.92 257.296 10.56 258.864 10.56H261.552C261.616 10.56 261.648 10.528 261.648 10.464V9.816C261.648 9.112 261.44 8.568 261.024 8.184C260.624 7.784 260.008 7.584 259.176 7.584C258.504 7.584 257.952 7.72 257.52 7.992C257.104 8.248 256.848 8.6 256.752 9.048C256.704 9.208 256.608 9.28 256.464 9.264L254.52 9C254.36 8.968 254.288 8.904 254.304 8.808C254.432 7.864 254.936 7.096 255.816 6.504C256.696 5.896 257.8 5.592 259.128 5.592ZM258.504 16.248C259.352 16.248 260.088 16.024 260.712 15.576C261.336 15.128 261.648 14.56 261.648 13.872V12.456C261.648 12.392 261.616 12.36 261.552 12.36H259.296C258.352 12.36 257.6 12.544 257.04 12.912C256.48 13.28 256.2 13.792 256.2 14.448C256.2 15.04 256.408 15.488 256.824 15.792C257.256 16.096 257.816 16.248 258.504 16.248ZM7.704 32.44C7.704 32.6 7.624 32.68 7.464 32.68H4.872C4.808 32.68 4.776 32.712 4.776 32.776V39.136C4.776 39.808 4.928 40.296 5.232 40.6C5.536 40.888 6.008 41.032 6.648 41.032H7.344C7.504 41.032 7.584 41.112 7.584 41.272V42.76C7.584 42.92 7.504 43 7.344 43C6.832 43.032 6.464 43.048 6.24 43.048C5.024 43.048 4.104 42.832 3.48 42.4C2.872 41.952 2.568 41.136 2.568 39.952V32.776C2.568 32.712 2.536 32.68 2.472 32.68H1.008C0.848 32.68 0.768 32.6 0.768 32.44V31.024C0.768 30.864 0.848 30.784 1.008 30.784H2.472C2.536 30.784 2.568 30.752 2.568 30.688V27.856C2.568 27.696 2.648 27.616 2.808 27.616H4.536C4.696 27.616 4.776 27.696 4.776 27.856V30.688C4.776 30.752 4.808 30.784 4.872 30.784H7.464C7.624 30.784 7.704 30.864 7.704 31.024V32.44ZM11.9314 28.864C11.4834 28.864 11.1154 28.72 10.8274 28.432C10.5394 28.144 10.3954 27.776 10.3954 27.328C10.3954 26.88 10.5394 26.512 10.8274 26.224C11.1154 25.936 11.4834 25.792 11.9314 25.792C12.3794 25.792 12.7474 25.936 13.0354 26.224C13.3234 26.512 13.4674 26.88 13.4674 27.328C13.4674 27.776 13.3234 28.144 13.0354 28.432C12.7474 28.72 12.3794 28.864 11.9314 28.864ZM10.9714 42.976C10.8114 42.976 10.7314 42.896 10.7314 42.736V31.024C10.7314 30.864 10.8114 30.784 10.9714 30.784H12.7954C12.9554 30.784 13.0354 30.864 13.0354 31.024V42.736C13.0354 42.896 12.9554 42.976 12.7954 42.976H10.9714ZM21.1013 47.776C20.9893 47.776 20.9333 47.696 20.9333 47.536V46.12C20.9333 45.96 21.0133 45.88 21.1733 45.88H21.2213C21.8613 45.864 22.3653 45.784 22.7333 45.64C23.1013 45.496 23.4053 45.224 23.6453 44.824C23.8853 44.44 24.1173 43.856 24.3413 43.072C24.3573 43.056 24.3573 43.032 24.3413 43C24.3413 42.952 24.3413 42.928 24.3413 42.928L20.3333 31.048L20.3093 30.952C20.3093 30.84 20.3813 30.784 20.5253 30.784H22.4693C22.6133 30.784 22.7093 30.848 22.7573 30.976L25.4693 40.024C25.4853 40.056 25.5093 40.072 25.5413 40.072C25.5733 40.072 25.5973 40.056 25.6133 40.024L28.3013 30.976C28.3493 30.848 28.4453 30.784 28.5893 30.784H30.4853C30.6613 30.784 30.7253 30.872 30.6773 31.048L26.3093 43.84C25.9413 44.944 25.5733 45.76 25.2053 46.288C24.8373 46.832 24.3573 47.216 23.7653 47.44C23.1733 47.664 22.3413 47.776 21.2693 47.776H21.1013ZM43.704 32.44C43.704 32.6 43.624 32.68 43.464 32.68H40.872C40.808 32.68 40.776 32.712 40.776 32.776V39.136C40.776 39.808 40.928 40.296 41.232 40.6C41.536 40.888 42.008 41.032 42.648 41.032H43.344C43.504 41.032 43.584 41.112 43.584 41.272V42.76C43.584 42.92 43.504 43 43.344 43C42.832 43.032 42.464 43.048 42.24 43.048C41.024 43.048 40.104 42.832 39.48 42.4C38.872 41.952 38.568 41.136 38.568 39.952V32.776C38.568 32.712 38.536 32.68 38.472 32.68H37.008C36.848 32.68 36.768 32.6 36.768 32.44V31.024C36.768 30.864 36.848 30.784 37.008 30.784H38.472C38.536 30.784 38.568 30.752 38.568 30.688V27.856C38.568 27.696 38.648 27.616 38.808 27.616H40.536C40.696 27.616 40.776 27.696 40.776 27.856V30.688C40.776 30.752 40.808 30.784 40.872 30.784H43.464C43.624 30.784 43.704 30.864 43.704 31.024V32.44ZM53.8114 31.024C53.8114 30.864 53.8914 30.784 54.0514 30.784H55.8514C56.0114 30.784 56.0914 30.864 56.0914 31.024V42.76C56.0914 42.92 56.0114 43 55.8514 43H54.0514C53.8914 43 53.8114 42.92 53.8114 42.76V41.872C53.8114 41.84 53.7954 41.824 53.7634 41.824C53.7474 41.808 53.7234 41.816 53.6914 41.848C53.0514 42.728 52.0674 43.168 50.7394 43.168C49.9554 43.168 49.2274 43.016 48.5554 42.712C47.8994 42.408 47.3714 41.96 46.9714 41.368C46.5714 40.776 46.3714 40.056 46.3714 39.208V31.024C46.3714 30.864 46.4514 30.784 46.6114 30.784H48.4114C48.5714 30.784 48.6514 30.864 48.6514 31.024V38.488C48.6514 39.32 48.8674 39.976 49.2994 40.456C49.7474 40.936 50.3714 41.176 51.1714 41.176C51.9714 41.176 52.6114 40.936 53.0914 40.456C53.5714 39.96 53.8114 39.304 53.8114 38.488V31.024ZM69.6341 28.216C68.8341 28.216 68.2901 28.368 68.0021 28.672C67.7141 28.976 67.5701 29.552 67.5701 30.4V30.688C67.5701 30.752 67.6021 30.784 67.6661 30.784H70.1861C70.3461 30.784 70.4261 30.864 70.4261 31.024V32.656C70.4261 32.816 70.3461 32.896 70.1861 32.896H67.6661C67.6021 32.896 67.5701 32.928 67.5701 32.992V42.76C67.5701 42.92 67.4901 43 67.3301 43H65.5061C65.3461 43 65.2661 42.92 65.2661 42.76V32.992C65.2661 32.928 65.2341 32.896 65.1701 32.896H63.5621C63.4021 32.896 63.3221 32.816 63.3221 32.656V31.024C63.3221 30.864 63.4021 30.784 63.5621 30.784H65.1701C65.2341 30.784 65.2661 30.752 65.2661 30.688V30.256C65.2661 29.2 65.3861 28.384 65.6261 27.808C65.8821 27.232 66.3061 26.824 66.8981 26.584C67.4901 26.328 68.3221 26.2 69.3941 26.2H70.2101C70.3701 26.2 70.4501 26.28 70.4501 26.44V27.976C70.4501 28.136 70.3701 28.216 70.2101 28.216H69.6341ZM77.2065 30.592C78.1825 30.592 79.0305 30.768 79.7505 31.12C80.4865 31.456 81.0465 31.936 81.4305 32.56C81.8305 33.168 82.0305 33.864 82.0305 34.648V42.76C82.0305 42.92 81.9505 43 81.7905 43H79.9665C79.8065 43 79.7265 42.92 79.7265 42.76V41.896C79.7265 41.816 79.6865 41.8 79.6065 41.848C79.1905 42.28 78.6785 42.616 78.0705 42.856C77.4785 43.08 76.8145 43.192 76.0785 43.192C74.8945 43.192 73.9105 42.896 73.1265 42.304C72.3585 41.696 71.9745 40.784 71.9745 39.568C71.9745 38.32 72.4065 37.344 73.2705 36.64C74.1505 35.92 75.3745 35.56 76.9425 35.56H79.6305C79.6945 35.56 79.7265 35.528 79.7265 35.464V34.816C79.7265 34.112 79.5185 33.568 79.1025 33.184C78.7025 32.784 78.0865 32.584 77.2545 32.584C76.5825 32.584 76.0305 32.72 75.5985 32.992C75.1825 33.248 74.9265 33.6 74.8305 34.048C74.7825 34.208 74.6865 34.28 74.5425 34.264L72.5985 34C72.4385 33.968 72.3665 33.904 72.3825 33.808C72.5105 32.864 73.0145 32.096 73.8945 31.504C74.7745 30.896 75.8785 30.592 77.2065 30.592ZM76.5825 41.248C77.4305 41.248 78.1665 41.024 78.7905 40.576C79.4145 40.128 79.7265 39.56 79.7265 38.872V37.456C79.7265 37.392 79.6945 37.36 79.6305 37.36H77.3745C76.4305 37.36 75.6785 37.544 75.1185 37.912C74.5585 38.28 74.2785 38.792 74.2785 39.448C74.2785 40.04 74.4865 40.488 74.9025 40.792C75.3345 41.096 75.8945 41.248 76.5825 41.248ZM97.8369 30.616C99.0529 30.616 100.013 30.984 100.717 31.72C101.421 32.44 101.773 33.448 101.773 34.744V42.76C101.773 42.92 101.693 43 101.533 43H99.7329C99.5729 43 99.4929 42.92 99.4929 42.76V35.224C99.4929 34.424 99.2689 33.792 98.8209 33.328C98.3889 32.848 97.8049 32.608 97.0689 32.608C96.3329 32.608 95.7329 32.84 95.2689 33.304C94.8049 33.768 94.5729 34.392 94.5729 35.176V42.76C94.5729 42.92 94.4929 43 94.3329 43H92.5329C92.3729 43 92.2929 42.92 92.2929 42.76V35.224C92.2929 34.424 92.0689 33.792 91.6209 33.328C91.1889 32.848 90.6049 32.608 89.8689 32.608C89.1329 32.608 88.5409 32.84 88.0929 33.304C87.6609 33.768 87.4449 34.392 87.4449 35.176V42.76C87.4449 42.92 87.3649 43 87.2049 43H85.3809C85.2209 43 85.1409 42.92 85.1409 42.76V31.024C85.1409 30.864 85.2209 30.784 85.3809 30.784H87.2049C87.3649 30.784 87.4449 30.864 87.4449 31.024V31.84C87.4449 31.872 87.4529 31.896 87.4689 31.912C87.5009 31.928 87.5329 31.92 87.5649 31.888C88.2689 31.04 89.2929 30.616 90.6369 30.616C91.4529 30.616 92.1489 30.776 92.7249 31.096C93.3009 31.4 93.7489 31.856 94.0689 32.464C94.1169 32.528 94.1649 32.528 94.2129 32.464C94.5969 31.84 95.1009 31.376 95.7249 31.072C96.3649 30.768 97.0689 30.616 97.8369 30.616ZM106.361 28.864C105.913 28.864 105.545 28.72 105.257 28.432C104.969 28.144 104.825 27.776 104.825 27.328C104.825 26.88 104.969 26.512 105.257 26.224C105.545 25.936 105.913 25.792 106.361 25.792C106.809 25.792 107.177 25.936 107.465 26.224C107.753 26.512 107.897 26.88 107.897 27.328C107.897 27.776 107.753 28.144 107.465 28.432C107.177 28.72 106.809 28.864 106.361 28.864ZM105.401 42.976C105.241 42.976 105.161 42.896 105.161 42.736V31.024C105.161 30.864 105.241 30.784 105.401 30.784H107.225C107.385 30.784 107.465 30.864 107.465 31.024V42.736C107.465 42.896 107.385 42.976 107.225 42.976H105.401ZM111.326 43C111.166 43 111.086 42.92 111.086 42.76V26.44C111.086 26.28 111.166 26.2 111.326 26.2H113.15C113.31 26.2 113.39 26.28 113.39 26.44V42.76C113.39 42.92 113.31 43 113.15 43H111.326ZM118.127 28.864C117.679 28.864 117.311 28.72 117.023 28.432C116.735 28.144 116.591 27.776 116.591 27.328C116.591 26.88 116.735 26.512 117.023 26.224C117.311 25.936 117.679 25.792 118.127 25.792C118.575 25.792 118.943 25.936 119.231 26.224C119.519 26.512 119.663 26.88 119.663 27.328C119.663 27.776 119.519 28.144 119.231 28.432C118.943 28.72 118.575 28.864 118.127 28.864ZM117.167 42.976C117.007 42.976 116.927 42.896 116.927 42.736V31.024C116.927 30.864 117.007 30.784 117.167 30.784H118.991C119.151 30.784 119.231 30.864 119.231 31.024V42.736C119.231 42.896 119.151 42.976 118.991 42.976H117.167ZM127.316 30.592C128.292 30.592 129.14 30.768 129.86 31.12C130.596 31.456 131.156 31.936 131.54 32.56C131.94 33.168 132.14 33.864 132.14 34.648V42.76C132.14 42.92 132.06 43 131.9 43H130.076C129.916 43 129.836 42.92 129.836 42.76V41.896C129.836 41.816 129.796 41.8 129.716 41.848C129.3 42.28 128.788 42.616 128.18 42.856C127.588 43.08 126.924 43.192 126.188 43.192C125.004 43.192 124.02 42.896 123.236 42.304C122.468 41.696 122.084 40.784 122.084 39.568C122.084 38.32 122.516 37.344 123.38 36.64C124.26 35.92 125.484 35.56 127.052 35.56H129.74C129.804 35.56 129.836 35.528 129.836 35.464V34.816C129.836 34.112 129.628 33.568 129.212 33.184C128.812 32.784 128.196 32.584 127.364 32.584C126.692 32.584 126.14 32.72 125.708 32.992C125.292 33.248 125.036 33.6 124.94 34.048C124.892 34.208 124.796 34.28 124.652 34.264L122.708 34C122.548 33.968 122.476 33.904 122.492 33.808C122.62 32.864 123.124 32.096 124.004 31.504C124.884 30.896 125.988 30.592 127.316 30.592ZM126.692 41.248C127.54 41.248 128.276 41.024 128.9 40.576C129.524 40.128 129.836 39.56 129.836 38.872V37.456C129.836 37.392 129.804 37.36 129.74 37.36H127.484C126.54 37.36 125.788 37.544 125.228 37.912C124.668 38.28 124.388 38.792 124.388 39.448C124.388 40.04 124.596 40.488 125.012 40.792C125.444 41.096 126.004 41.248 126.692 41.248ZM145.047 43.192C143.863 43.192 142.831 42.896 141.951 42.304C141.071 41.696 140.455 40.856 140.103 39.784C139.815 38.92 139.671 37.944 139.671 36.856C139.671 35.72 139.807 34.76 140.079 33.976C140.431 32.92 141.047 32.096 141.927 31.504C142.807 30.896 143.855 30.592 145.071 30.592C146.223 30.592 147.223 30.896 148.071 31.504C148.935 32.096 149.551 32.912 149.919 33.952C150.207 34.768 150.351 35.728 150.351 36.832C150.351 37.952 150.207 38.936 149.919 39.784C149.567 40.856 148.959 41.696 148.095 42.304C147.231 42.896 146.215 43.192 145.047 43.192ZM145.047 41.2C145.687 41.2 146.247 41.024 146.727 40.672C147.207 40.304 147.551 39.792 147.759 39.136C147.935 38.528 148.023 37.776 148.023 36.88C148.023 35.984 147.943 35.24 147.783 34.648C147.575 33.992 147.231 33.488 146.751 33.136C146.271 32.768 145.687 32.584 144.999 32.584C144.343 32.584 143.775 32.768 143.295 33.136C142.815 33.488 142.471 33.992 142.263 34.648C142.087 35.208 141.999 35.952 141.999 36.88C141.999 37.808 142.087 38.56 142.263 39.136C142.455 39.792 142.791 40.304 143.271 40.672C143.767 41.024 144.359 41.2 145.047 41.2ZM162.636 30.592C163.612 30.592 164.46 30.768 165.18 31.12C165.916 31.456 166.476 31.936 166.86 32.56C167.26 33.168 167.46 33.864 167.46 34.648V42.76C167.46 42.92 167.38 43 167.22 43H165.396C165.236 43 165.156 42.92 165.156 42.76V41.896C165.156 41.816 165.116 41.8 165.036 41.848C164.62 42.28 164.108 42.616 163.5 42.856C162.908 43.08 162.244 43.192 161.508 43.192C160.324 43.192 159.34 42.896 158.556 42.304C157.788 41.696 157.404 40.784 157.404 39.568C157.404 38.32 157.836 37.344 158.7 36.64C159.58 35.92 160.804 35.56 162.372 35.56H165.06C165.124 35.56 165.156 35.528 165.156 35.464V34.816C165.156 34.112 164.948 33.568 164.532 33.184C164.132 32.784 163.516 32.584 162.684 32.584C162.012 32.584 161.46 32.72 161.028 32.992C160.612 33.248 160.356 33.6 160.26 34.048C160.212 34.208 160.116 34.28 159.972 34.264L158.028 34C157.868 33.968 157.796 33.904 157.812 33.808C157.94 32.864 158.444 32.096 159.324 31.504C160.204 30.896 161.308 30.592 162.636 30.592ZM162.012 41.248C162.86 41.248 163.596 41.024 164.22 40.576C164.844 40.128 165.156 39.56 165.156 38.872V37.456C165.156 37.392 165.124 37.36 165.06 37.36H162.804C161.86 37.36 161.108 37.544 160.548 37.912C159.988 38.28 159.708 38.792 159.708 39.448C159.708 40.04 159.916 40.488 160.332 40.792C160.764 41.096 161.324 41.248 162.012 41.248ZM183.267 30.616C184.483 30.616 185.443 30.984 186.147 31.72C186.851 32.44 187.203 33.448 187.203 34.744V42.76C187.203 42.92 187.123 43 186.963 43H185.163C185.003 43 184.923 42.92 184.923 42.76V35.224C184.923 34.424 184.699 33.792 184.251 33.328C183.819 32.848 183.235 32.608 182.499 32.608C181.763 32.608 181.163 32.84 180.699 33.304C180.235 33.768 180.003 34.392 180.003 35.176V42.76C180.003 42.92 179.923 43 179.763 43H177.963C177.803 43 177.723 42.92 177.723 42.76V35.224C177.723 34.424 177.499 33.792 177.051 33.328C176.619 32.848 176.035 32.608 175.299 32.608C174.563 32.608 173.971 32.84 173.523 33.304C173.091 33.768 172.875 34.392 172.875 35.176V42.76C172.875 42.92 172.795 43 172.635 43H170.811C170.651 43 170.571 42.92 170.571 42.76V31.024C170.571 30.864 170.651 30.784 170.811 30.784H172.635C172.795 30.784 172.875 30.864 172.875 31.024V31.84C172.875 31.872 172.883 31.896 172.899 31.912C172.931 31.928 172.963 31.92 172.995 31.888C173.699 31.04 174.723 30.616 176.067 30.616C176.883 30.616 177.579 30.776 178.155 31.096C178.731 31.4 179.179 31.856 179.499 32.464C179.547 32.528 179.595 32.528 179.643 32.464C180.027 31.84 180.531 31.376 181.155 31.072C181.795 30.768 182.499 30.616 183.267 30.616ZM191.791 28.864C191.343 28.864 190.975 28.72 190.687 28.432C190.399 28.144 190.255 27.776 190.255 27.328C190.255 26.88 190.399 26.512 190.687 26.224C190.975 25.936 191.343 25.792 191.791 25.792C192.239 25.792 192.607 25.936 192.895 26.224C193.183 26.512 193.327 26.88 193.327 27.328C193.327 27.776 193.183 28.144 192.895 28.432C192.607 28.72 192.239 28.864 191.791 28.864ZM190.831 42.976C190.671 42.976 190.591 42.896 190.591 42.736V31.024C190.591 30.864 190.671 30.784 190.831 30.784H192.655C192.815 30.784 192.895 30.864 192.895 31.024V42.736C192.895 42.896 192.815 42.976 192.655 42.976H190.831ZM204.028 31.024C204.028 30.864 204.108 30.784 204.268 30.784H206.092C206.252 30.784 206.332 30.864 206.332 31.024V42.376C206.332 44.312 205.78 45.696 204.676 46.528C203.588 47.36 202.124 47.776 200.284 47.776C200.028 47.776 199.628 47.76 199.084 47.728C198.924 47.712 198.844 47.624 198.844 47.464L198.916 45.808C198.916 45.744 198.94 45.688 198.988 45.64C199.036 45.592 199.1 45.576 199.18 45.592C199.404 45.608 199.732 45.616 200.164 45.616C201.524 45.616 202.508 45.36 203.116 44.848C203.724 44.352 204.028 43.504 204.028 42.304V41.872C204.028 41.84 204.012 41.816 203.98 41.8C203.964 41.784 203.94 41.792 203.908 41.824C203.236 42.608 202.252 43 200.956 43C199.916 43 198.972 42.728 198.124 42.184C197.292 41.64 196.716 40.84 196.396 39.784C196.188 39.08 196.084 38.104 196.084 36.856C196.084 35.528 196.204 34.504 196.444 33.784C196.748 32.824 197.284 32.056 198.052 31.48C198.836 30.888 199.756 30.592 200.812 30.592C202.124 30.592 203.156 30.992 203.908 31.792C203.94 31.824 203.964 31.84 203.98 31.84C204.012 31.824 204.028 31.8 204.028 31.768V31.024ZM203.884 39.088C203.932 38.832 203.964 38.56 203.98 38.272C204.012 37.984 204.028 37.504 204.028 36.832C204.028 36.16 204.012 35.688 203.98 35.416C203.964 35.128 203.924 34.856 203.86 34.6C203.732 34.008 203.444 33.528 202.996 33.16C202.548 32.776 201.988 32.584 201.316 32.584C200.644 32.584 200.084 32.776 199.636 33.16C199.188 33.528 198.868 34.008 198.676 34.6C198.5 35.08 198.412 35.824 198.412 36.832C198.412 37.936 198.492 38.688 198.652 39.088C198.812 39.68 199.124 40.168 199.588 40.552C200.068 40.92 200.644 41.104 201.316 41.104C202.02 41.104 202.588 40.92 203.02 40.552C203.468 40.168 203.756 39.68 203.884 39.088ZM214.539 43.192C213.355 43.192 212.323 42.896 211.443 42.304C210.563 41.696 209.947 40.856 209.595 39.784C209.307 38.92 209.163 37.944 209.163 36.856C209.163 35.72 209.299 34.76 209.571 33.976C209.923 32.92 210.539 32.096 211.419 31.504C212.299 30.896 213.347 30.592 214.563 30.592C215.715 30.592 216.715 30.896 217.563 31.504C218.427 32.096 219.043 32.912 219.411 33.952C219.699 34.768 219.843 35.728 219.843 36.832C219.843 37.952 219.699 38.936 219.411 39.784C219.059 40.856 218.451 41.696 217.587 42.304C216.723 42.896 215.707 43.192 214.539 43.192ZM214.539 41.2C215.179 41.2 215.739 41.024 216.219 40.672C216.699 40.304 217.043 39.792 217.251 39.136C217.427 38.528 217.515 37.776 217.515 36.88C217.515 35.984 217.435 35.24 217.275 34.648C217.067 33.992 216.723 33.488 216.243 33.136C215.763 32.768 215.179 32.584 214.491 32.584C213.835 32.584 213.267 32.768 212.787 33.136C212.307 33.488 211.963 33.992 211.755 34.648C211.579 35.208 211.491 35.952 211.491 36.88C211.491 37.808 211.579 38.56 211.755 39.136C211.947 39.792 212.283 40.304 212.763 40.672C213.259 41.024 213.851 41.2 214.539 41.2ZM227.156 43.144C226.196 43.144 225.348 43 224.612 42.712C223.892 42.424 223.332 42.032 222.932 41.536C222.532 41.024 222.332 40.464 222.332 39.856V39.592C222.332 39.432 222.412 39.352 222.572 39.352H224.3C224.46 39.352 224.54 39.432 224.54 39.592V39.712C224.54 40.16 224.78 40.552 225.26 40.888C225.756 41.224 226.38 41.392 227.132 41.392C227.852 41.392 228.436 41.24 228.884 40.936C229.332 40.616 229.556 40.216 229.556 39.736C229.556 39.272 229.348 38.928 228.932 38.704C228.516 38.464 227.844 38.216 226.916 37.96C226.004 37.704 225.236 37.448 224.612 37.192C224.004 36.92 223.484 36.544 223.052 36.064C222.636 35.568 222.428 34.936 222.428 34.168C222.428 33.096 222.844 32.248 223.676 31.624C224.524 30.984 225.644 30.664 227.036 30.664C227.964 30.664 228.78 30.816 229.484 31.12C230.204 31.408 230.756 31.816 231.14 32.344C231.524 32.872 231.716 33.464 231.716 34.12V34.192C231.716 34.352 231.636 34.432 231.476 34.432H229.796C229.636 34.432 229.556 34.352 229.556 34.192V34.12C229.556 33.656 229.324 33.272 228.86 32.968C228.412 32.648 227.796 32.488 227.012 32.488C226.308 32.488 225.732 32.624 225.284 32.896C224.852 33.168 224.636 33.536 224.636 34C224.636 34.464 224.844 34.816 225.26 35.056C225.692 35.296 226.38 35.552 227.324 35.824C228.252 36.08 229.02 36.336 229.628 36.592C230.252 36.832 230.78 37.2 231.212 37.696C231.644 38.176 231.86 38.808 231.86 39.592C231.86 40.68 231.428 41.544 230.564 42.184C229.716 42.824 228.58 43.144 227.156 43.144Z" fill="#EB6540"/>
</svg>
